  0
SECTION
  2
HEADER
  9
$ACADVER
  1
AC1024
  9
$ACADMAINTVER
 70
6
  9
$DWGCODEPAGE
  3
ANSI_1252
  9
$LASTSAVEDBY
  1
ezdxf
  9
$INSBASE
 10
0.0
 20
0.0
 30
0.0
  9
$EXTMIN
 10
1e+20
 20
1e+20
 30
1e+20
  9
$EXTMAX
 10
-1e+20
 20
-1e+20
 30
-1e+20
  9
$LIMMIN
 10
0.0
 20
0.0
  9
$LIMMAX
 10
420.0
 20
297.0
  9
$ORTHOMODE
 70
0
  9
$REGENMODE
 70
1
  9
$FILLMODE
 70
1
  9
$QTEXTMODE
 70
0
  9
$MIRRTEXT
 70
1
  9
$LTSCALE
 40
1.0
  9
$ATTMODE
 70
1
  9
$TEXTSIZE
 40
2.5
  9
$TRACEWID
 40
1.0
  9
$TEXTSTYLE
  7
Standard
  9
$CLAYER
  8
0
  9
$CELTYPE
  6
ByLayer
  9
$CECOLOR
 62
256
  9
$CELTSCALE
 40
1.0
  9
$DISPSILH
 70
0
  9
$DIMSCALE
 40
1.0
  9
$DIMASZ
 40
2.5
  9
$DIMEXO
 40
0.625
  9
$DIMDLI
 40
3.75
  9
$DIMRND
 40
0.0
  9
$DIMDLE
 40
0.0
  9
$DIMEXE
 40
1.25
  9
$DIMTP
 40
0.0
  9
$DIMTM
 40
0.0
  9
$DIMTXT
 40
2.5
  9
$DIMCEN
 40
2.5
  9
$DIMTSZ
 40
0.0
  9
$DIMTOL
 70
0
  9
$DIMLIM
 70
0
  9
$DIMTIH
 70
0
  9
$DIMTOH
 70
0
  9
$DIMSE1
 70
0
  9
$DIMSE2
 70
0
  9
$DIMTAD
 70
1
  9
$DIMZIN
 70
8
  9
$DIMBLK
  1

  9
$DIMASO
 70
1
  9
$DIMSHO
 70
1
  9
$DIMPOST
  1

  9
$DIMAPOST
  1

  9
$DIMALT
 70
0
  9
$DIMALTD
 70
3
  9
$DIMALTF
 40
0.03937007874
  9
$DIMLFAC
 40
1.0
  9
$DIMTOFL
 70
1
  9
$DIMTVP
 40
0.0
  9
$DIMTIX
 70
0
  9
$DIMSOXD
 70
0
  9
$DIMSAH
 70
0
  9
$DIMBLK1
  1

  9
$DIMBLK2
  1

  9
$DIMSTYLE
  2
ISO-25
  9
$DIMCLRD
 70
0
  9
$DIMCLRE
 70
0
  9
$DIMCLRT
 70
0
  9
$DIMTFAC
 40
1.0
  9
$DIMGAP
 40
0.625
  9
$DIMJUST
 70
0
  9
$DIMSD1
 70
0
  9
$DIMSD2
 70
0
  9
$DIMTOLJ
 70
0
  9
$DIMTZIN
 70
8
  9
$DIMALTZ
 70
0
  9
$DIMALTTZ
 70
0
  9
$DIMUPT
 70
0
  9
$DIMDEC
 70
2
  9
$DIMTDEC
 70
2
  9
$DIMALTU
 70
2
  9
$DIMALTTD
 70
3
  9
$DIMTXSTY
  7
Standard
  9
$DIMAUNIT
 70
0
  9
$DIMADEC
 70
0
  9
$DIMALTRND
 40
0.0
  9
$DIMAZIN
 70
0
  9
$DIMDSEP
 70
44
  9
$DIMATFIT
 70
3
  9
$DIMFRAC
 70
0
  9
$DIMLDRBLK
  1

  9
$DIMLUNIT
 70
2
  9
$DIMLWD
 70
-2
  9
$DIMLWE
 70
-2
  9
$DIMTMOVE
 70
0
  9
$DIMFXL
 40
1.0
  9
$DIMFXLON
 70
0
  9
$DIMJOGANG
 40
0.785398163397
  9
$DIMTFILL
 70
0
  9
$DIMTFILLCLR
 70
0
  9
$DIMARCSYM
 70
0
  9
$DIMLTYPE
  6

  9
$DIMLTEX1
  6

  9
$DIMLTEX2
  6

  9
$DIMTXTDIRECTION
 70
0
  9
$LUNITS
 70
2
  9
$LUPREC
 70
4
  9
$SKETCHINC
 40
1.0
  9
$FILLETRAD
 40
10.0
  9
$AUNITS
 70
0
  9
$AUPREC
 70
2
  9
$MENU
  1
.
  9
$ELEVATION
 40
0.0
  9
$PELEVATION
 40
0.0
  9
$THICKNESS
 40
0.0
  9
$LIMCHECK
 70
0
  9
$CHAMFERA
 40
0.0
  9
$CHAMFERB
 40
0.0
  9
$CHAMFERC
 40
0.0
  9
$CHAMFERD
 40
0.0
  9
$SKPOLY
 70
0
  9
$TDCREATE
 40
2460911.715277778
  9
$TDUCREATE
 40
2458532.153996898
  9
$TDUPDATE
 40
2460911.715277778
  9
$TDUUPDATE
 40
2458532.1544311
  9
$TDINDWG
 40
0.0
  9
$TDUSRTIMER
 40
0.0
  9
$USRTIMER
 70
1
  9
$ANGBASE
 50
0.0
  9
$ANGDIR
 70
0
  9
$PDMODE
 70
0
  9
$PDSIZE
 40
0.0
  9
$PLINEWID
 40
0.0
  9
$SPLFRAME
 70
0
  9
$SPLINETYPE
 70
6
  9
$SPLINESEGS
 70
8
  9
$HANDSEED
  5
62
  9
$SURFTAB1
 70
6
  9
$SURFTAB2
 70
6
  9
$SURFTYPE
 70
6
  9
$SURFU
 70
6
  9
$SURFV
 70
6
  9
$UCSBASE
  2

  9
$UCSNAME
  2

  9
$UCSORG
 10
0.0
 20
0.0
 30
0.0
  9
$UCSXDIR
 10
1.0
 20
0.0
 30
0.0
  9
$UCSYDIR
 10
0.0
 20
1.0
 30
0.0
  9
$UCSORTHOREF
  2

  9
$UCSORTHOVIEW
 70
0
  9
$UCSORGTOP
 10
0.0
 20
0.0
 30
0.0
  9
$UCSORGBOTTOM
 10
0.0
 20
0.0
 30
0.0
  9
$UCSORGLEFT
 10
0.0
 20
0.0
 30
0.0
  9
$UCSORGRIGHT
 10
0.0
 20
0.0
 30
0.0
  9
$UCSORGFRONT
 10
0.0
 20
0.0
 30
0.0
  9
$UCSORGBACK
 10
0.0
 20
0.0
 30
0.0
  9
$PUCSBASE
  2

  9
$PUCSNAME
  2

  9
$PUCSORG
 10
0.0
 20
0.0
 30
0.0
  9
$PUCSXDIR
 10
1.0
 20
0.0
 30
0.0
  9
$PUCSYDIR
 10
0.0
 20
1.0
 30
0.0
  9
$PUCSORTHOREF
  2

  9
$PUCSORTHOVIEW
 70
0
  9
$PUCSORGTOP
 10
0.0
 20
0.0
 30
0.0
  9
$PUCSORGBOTTOM
 10
0.0
 20
0.0
 30
0.0
  9
$PUCSORGLEFT
 10
0.0
 20
0.0
 30
0.0
  9
$PUCSORGRIGHT
 10
0.0
 20
0.0
 30
0.0
  9
$PUCSORGFRONT
 10
0.0
 20
0.0
 30
0.0
  9
$PUCSORGBACK
 10
0.0
 20
0.0
 30
0.0
  9
$USERI1
 70
0
  9
$USERI2
 70
0
  9
$USERI3
 70
0
  9
$USERI4
 70
0
  9
$USERI5
 70
0
  9
$USERR1
 40
0.0
  9
$USERR2
 40
0.0
  9
$USERR3
 40
0.0
  9
$USERR4
 40
0.0
  9
$USERR5
 40
0.0
  9
$WORLDVIEW
 70
1
  9
$SHADEDGE
 70
3
  9
$SHADEDIF
 70
70
  9
$TILEMODE
 70
1
  9
$MAXACTVP
 70
64
  9
$PINSBASE
 10
0.0
 20
0.0
 30
0.0
  9
$PLIMCHECK
 70
0
  9
$PEXTMIN
 10
1e+20
 20
1e+20
 30
1e+20
  9
$PEXTMAX
 10
-1e+20
 20
-1e+20
 30
-1e+20
  9
$PLIMMIN
 10
0.0
 20
0.0
  9
$PLIMMAX
 10
420.0
 20
297.0
  9
$UNITMODE
 70
0
  9
$VISRETAIN
 70
1
  9
$PLINEGEN
 70
0
  9
$PSLTSCALE
 70
1
  9
$TREEDEPTH
 70
3020
  9
$CMLSTYLE
  2
Standard
  9
$CMLJUST
 70
0
  9
$CMLSCALE
 40
20.0
  9
$PROXYGRAPHICS
 70
1
  9
$MEASUREMENT
 70
1
  9
$CELWEIGHT
370
-1
  9
$ENDCAPS
280
0
  9
$JOINSTYLE
280
0
  9
$LWDISPLAY
290
0
  9
$INSUNITS
 70
4
  9
$HYPERLINKBASE
  1

  9
$STYLESHEET
  1

  9
$XEDIT
290
1
  9
$CEPSNTYPE
380
0
  9
$PSTYLEMODE
290
1
  9
$FINGERPRINTGUID
  2
{5E66FD7F-7A29-44FF-8B1F-43FA2A5EAF08}
  9
$VERSIONGUID
  2
{BC503F67-7387-4E0D-80E2-1438733AFB12}
  9
$EXTNAMES
290
1
  9
$PSVPSCALE
 40
0.0
  9
$OLESTARTUP
290
0
  9
$SORTENTS
280
127
  9
$INDEXCTL
280
0
  9
$HIDETEXT
280
1
  9
$XCLIPFRAME
280
1
  9
$HALOGAP
280
0
  9
$OBSCOLOR
 70
257
  9
$OBSLTYPE
280
0
  9
$INTERSECTIONDISPLAY
280
0
  9
$INTERSECTIONCOLOR
 70
257
  9
$DIMASSOC
280
2
  9
$PROJECTNAME
  1

  9
$CAMERADISPLAY
290
0
  9
$LENSLENGTH
 40
50.0
  9
$CAMERAHEIGHT
 40
0.0
  9
$STEPSPERSEC
 40
24.0
  9
$STEPSIZE
 40
100.0
  9
$3DDWFPREC
 40
2.0
  9
$PSOLWIDTH
 40
0.005
  9
$PSOLHEIGHT
 40
0.08
  9
$LOFTANG1
 40
1.570796326795
  9
$LOFTANG2
 40
1.570796326795
  9
$LOFTMAG1
 40
0.0
  9
$LOFTMAG2
 40
0.0
  9
$LOFTPARAM
 70
7
  9
$LOFTNORMALS
280
1
  9
$LATITUDE
 40
37.795
  9
$LONGITUDE
 40
-122.394
  9
$NORTHDIRECTION
 40
0.0
  9
$TIMEZONE
 70
-8000
  9
$LIGHTGLYPHDISPLAY
280
1
  9
$TILEMODELIGHTSYNCH
280
1
  9
$CMATERIAL
347
20
  9
$SOLIDHIST
280
0
  9
$SHOWHIST
280
1
  9
$DWFFRAME
280
2
  9
$DGNFRAME
280
2
  9
$REALWORLDSCALE
290
1
  9
$INTERFERECOLOR
 62
256
  9
$CSHADOW
280
0
  9
$SHADOWPLANELOCATION
 40
0.0
  0
ENDSEC
  0
SECTION
  2
CLASSES
  0
CLASS
  1
ACDBDICTIONARYWDFLT
  2
AcDbDictionaryWithDefault
  3
ObjectDBX Classes
 90
0
 91
0
280
0
281
0
  0
CLASS
  1
SUN
  2
AcDbSun
  3
SCENEOE
 90
1153
 91
0
280
0
281
0
  0
CLASS
  1
VISUALSTYLE
  2
AcDbVisualStyle
  3
ObjectDBX Classes
 90
4095
 91
0
280
0
281
0
  0
CLASS
  1
MATERIAL
  2
AcDbMaterial
  3
ObjectDBX Classes
 90
1153
 91
0
280
0
281
0
  0
CLASS
  1
SCALE
  2
AcDbScale
  3
ObjectDBX Classes
 90
1153
 91
0
280
0
281
0
  0
CLASS
  1
TABLESTYLE
  2
AcDbTableStyle
  3
ObjectDBX Classes
 90
4095
 91
0
280
0
281
0
  0
CLASS
  1
MLEADERSTYLE
  2
AcDbMLeaderStyle
  3
ACDB_MLEADERSTYLE_CLASS
 90
4095
 91
0
280
0
281
0
  0
CLASS
  1
DICTIONARYVAR
  2
AcDbDictionaryVar
  3
ObjectDBX Classes
 90
0
 91
0
280
0
281
0
  0
CLASS
  1
CELLSTYLEMAP
  2
AcDbCellStyleMap
  3
ObjectDBX Classes
 90
1152
 91
0
280
0
281
0
  0
CLASS
  1
MENTALRAYRENDERSETTINGS
  2
AcDbMentalRayRenderSettings
  3
SCENEOE
 90
1024
 91
0
280
0
281
0
  0
CLASS
  1
ACDBDETAILVIEWSTYLE
  2
AcDbDetailViewStyle
  3
ObjectDBX Classes
 90
1025
 91
0
280
0
281
0
  0
CLASS
  1
ACDBSECTIONVIEWSTYLE
  2
AcDbSectionViewStyle
  3
ObjectDBX Classes
 90
1025
 91
0
280
0
281
0
  0
CLASS
  1
RASTERVARIABLES
  2
AcDbRasterVariables
  3
ISM
 90
0
 91
0
280
0
281
0
  0
CLASS
  1
LAYOUT
  2
AcDbLayout
  3
ObjectDBX Classes
 90
0
 91
0
280
0
281
0
  0
CLASS
  1
ACDBPLACEHOLDER
  2
AcDbPlaceHolder
  3
ObjectDBX Classes
 90
0
 91
0
280
0
281
0
  0
ENDSEC
  0
SECTION
  2
TABLES
  0
TABLE
  2
VPORT
  5
8
330
0
100
AcDbSymbolTable
 70
1
  0
VPORT
  5
23
330
8
100
AcDbSymbolTableRecord
100
AcDbViewportTableRecord
  2
*Active
 70
0
 10
0.0
 20
0.0
 11
1.0
 21
1.0
 12
0.0
 22
0.0
 13
0.0
 23
0.0
 14
0.5
 24
0.5
 15
0.5
 25
0.5
 16
0.0
 26
0.0
 36
1.0
 17
0.0
 27
0.0
 37
0.0
 40
1000.0
 41
1.34
 42
50.0
 43
0.0
 44
0.0
 50
0.0
 51
0.0
 71
0
 72
1000
 73
1
 74
3
 75
0
 76
0
 77
0
 78
0
281
0
 65
0
146
0.0
  0
ENDTAB
  0
TABLE
  2
LTYPE
  5
2
330
0
100
AcDbSymbolTable
 70
3
  0
LTYPE
  5
24
330
2
100
AcDbSymbolTableRecord
100
AcDbLinetypeTableRecord
  2
ByBlock
 70
0
  3

 72
65
 73
0
 40
0.0
  0
LTYPE
  5
25
330
2
100
AcDbSymbolTableRecord
100
AcDbLinetypeTableRecord
  2
ByLayer
 70
0
  3

 72
65
 73
0
 40
0.0
  0
LTYPE
  5
26
330
2
100
AcDbSymbolTableRecord
100
AcDbLinetypeTableRecord
  2
Continuous
 70
0
  3

 72
65
 73
0
 40
0.0
  0
ENDTAB
  0
TABLE
  2
LAYER
  5
1
330
0
100
AcDbSymbolTable
 70
2
  0
LAYER
  5
27
330
1
100
AcDbSymbolTableRecord
100
AcDbLayerTableRecord
  2
0
 70
0
 62
7
  6
Continuous
370
-3
390
13
347
21
  0
LAYER
  5
28
330
1
100
AcDbSymbolTableRecord
100
AcDbLayerTableRecord
  2
Defpoints
 70
0
 62
7
  6
Continuous
290
0
370
-3
390
13
347
21
  0
ENDTAB
  0
TABLE
  2
STYLE
  5
5
330
0
100
AcDbSymbolTable
 70
1
  0
STYLE
  5
29
330
5
100
AcDbSymbolTableRecord
100
AcDbTextStyleTableRecord
  2
Standard
 70
0
 40
0.0
 41
1.0
 50
0.0
 71
0
 42
2.5
  3
txt
  4

  0
ENDTAB
  0
TABLE
  2
VIEW
  5
7
330
0
100
AcDbSymbolTable
 70
0
  0
ENDTAB
  0
TABLE
  2
UCS
  5
6
330
0
100
AcDbSymbolTable
 70
0
  0
ENDTAB
  0
TABLE
  2
APPID
  5
3
330
0
100
AcDbSymbolTable
 70
3
  0
APPID
  5
2A
330
3
100
AcDbSymbolTableRecord
100
AcDbRegAppTableRecord
  2
ACAD
 70
0
  0
APPID
  5
5F
330
3
100
AcDbSymbolTableRecord
100
AcDbRegAppTableRecord
  2
HATCHBACKGROUNDCOLOR
 70
0
  0
APPID
  5
60
330
3
100
AcDbSymbolTableRecord
100
AcDbRegAppTableRecord
  2
EZDXF
 70
0
  0
ENDTAB
  0
TABLE
  2
DIMSTYLE
  5
4
330
0
100
AcDbSymbolTable
 70
1
100
AcDbDimStyleTable
  0
DIMSTYLE
105
2B
330
4
100
AcDbSymbolTableRecord
100
AcDbDimStyleTableRecord
  2
Standard
 70
0
 40
1.0
 41
2.5
 42
0.625
 43
3.75
 44
1.25
 45
0.0
 46
0.0
 47
0.0
 48
0.0
 49
2.5
140
2.5
141
2.5
142
0.0
143
0.03937007874
144
1.0
145
0.0
146
1.0
147
0.625
148
0.0
 69
0
 70
0
 71
0
 72
0
 73
0
 74
0
 75
0
 76
0
 77
1
 78
8
 79
3
170
0
171
3
172
1
173
0
174
0
175
0
176
0
177
0
178
0
179
2
271
2
272
2
273
2
274
3
275
0
276
0
277
2
278
44
279
0
280
0
281
0
282
0
283
0
284
8
285
0
286
0
288
0
289
3
290
0
371
-2
372
-2
  0
ENDTAB
  0
TABLE
  2
BLOCK_RECORD
  5
9
330
0
100
AcDbSymbolTable
 70
2
  0
BLOCK_RECORD
  5
17
330
9
100
AcDbSymbolTableRecord
100
AcDbBlockTableRecord
  2
*Model_Space
340
1A
 70
0
280
1
281
0
  0
BLOCK_RECORD
  5
1B
330
9
100
AcDbSymbolTableRecord
100
AcDbBlockTableRecord
  2
*Paper_Space
340
1E
 70
0
280
1
281
0
  0
ENDTAB
  0
ENDSEC
  0
SECTION
  2
BLOCKS
  0
BLOCK
  5
18
330
17
100
AcDbEntity
  8
0
100
AcDbBlockBegin
  2
*Model_Space
 70
0
 10
0.0
 20
0.0
 30
0.0
  3
*Model_Space
  1

  0
ENDBLK
  5
19
330
17
100
AcDbEntity
  8
0
100
AcDbBlockEnd
  0
BLOCK
  5
1C
330
1B
100
AcDbEntity
  8
0
100
AcDbBlockBegin
  2
*Paper_Space
 70
0
 10
0.0
 20
0.0
 30
0.0
  3
*Paper_Space
  1

  0
ENDBLK
  5
1D
330
1B
100
AcDbEntity
  8
0
100
AcDbBlockEnd
  0
ENDSEC
  0
SECTION
  2
ENTITIES
  0
SPLINE
  5
2F
330
17
100
AcDbEntity
  8
layer 1
 62
250
370
9
100
AcDbSpline
 70
8
 71
3
 72
32
 73
28
 74
0
 42
1e-09
 40
0.0
 40
0.0
 40
0.0
 40
0.0
 40
0.125
 40
0.125
 40
0.125
 40
0.125
 40
0.25
 40
0.25
 40
0.25
 40
0.25
 40
0.375
 40
0.375
 40
0.375
 40
0.375
 40
0.5
 40
0.5
 40
0.5
 40
0.5
 40
0.625
 40
0.625
 40
0.625
 40
0.625
 40
0.75
 40
0.75
 40
0.75
 40
0.75
 40
1.0
 40
1.0
 40
1.0
 40
1.0
 10
441.9407
 20
18.500199999999722
 30
0.0
 10
441.9407
 20
18.500199999999722
 30
0.0
 10
441.9407
 20
43.4536999999998
 30
0.0
 10
441.9407
 20
43.4536999999998
 30
0.0
 10
441.9407
 20
43.4536999999998
 30
0.0
 10
445.5355
 20
43.4536999999998
 30
0.0
 10
449.131
 20
43.4536999999998
 30
0.0
 10
452.7262
 20
43.4536999999998
 30
0.0
 10
452.7262
 20
43.4536999999998
 30
0.0
 10
455.0515
 20
43.41599999999971
 30
0.0
 10
456.6088
 20
41.9259999999997
 30
0.0
 10
456.6047
 20
39.55959999999982
 30
0.0
 10
456.6047
 20
39.55959999999982
 30
0.0
 10
456.6043
 20
37.52409999999986
 30
0.0
 10
456.6043
 20
34.464699999999766
 30
0.0
 10
456.6047
 20
32.42869999999971
 30
0.0
 10
456.6047
 20
32.42869999999971
 30
0.0
 10
456.5982
 20
30.553199999999833
 30
0.0
 10
454.7859
 20
28.611399999999776
 30
0.0
 10
452.7764
 20
28.592299999999796
 30
0.0
 10
452.7764
 20
28.592299999999796
 30
0.0
 10
452.7764
 20
28.592299999999796
 30
0.0
 10
441.9407
 20
28.592299999999796
 30
0.0
 10
441.9407
 20
28.592299999999796
 30
0.0
 10
441.9407
 20
28.592299999999796
 30
0.0
 10
441.9407
 20
28.592299999999796
 30
0.0
 10
456.5954
 20
18.500199999999722
 30
0.0
 10
456.5954
 20
18.500199999999722
 30
0.0
  0
SPLINE
  5
30
330
17
100
AcDbEntity
  8
layer 1
 62
250
370
9
100
AcDbSpline
 70
8
 71
3
 72
20
 73
16
 74
0
 42
1e-09
 40
0.0
 40
0.0
 40
0.0
 40
0.0
 40
0.2
 40
0.2
 40
0.2
 40
0.2
 40
0.4
 40
0.4
 40
0.4
 40
0.4
 40
0.6
 40
0.6
 40
0.6
 40
0.6
 40
1.0
 40
1.0
 40
1.0
 40
1.0
 10
400.4302
 20
18.49799999999982
 30
0.0
 10
400.4302
 20
18.49799999999982
 30
0.0
 10
400.4302
 20
43.4558999999997
 30
0.0
 10
400.4302
 20
43.4558999999997
 30
0.0
 10
400.4302
 20
43.4558999999997
 30
0.0
 10
400.4302
 20
43.4558999999997
 30
0.0
 10
409.3553
 20
18.49799999999982
 30
0.0
 10
409.3553
 20
18.49799999999982
 30
0.0
 10
409.3553
 20
18.49799999999982
 30
0.0
 10
409.3553
 20
18.49799999999982
 30
0.0
 10
418.1152
 20
43.45539999999983
 30
0.0
 10
418.1152
 20
43.45539999999983
 30
0.0
 10
418.1152
 20
43.45539999999983
 30
0.0
 10
418.1152
 20
43.45539999999983
 30
0.0
 10
418.1152
 20
18.49799999999982
 30
0.0
 10
418.1152
 20
18.49799999999982
 30
0.0
  0
SPLINE
  5
31
330
17
100
AcDbEntity
  8
layer 1
 62
250
370
9
100
AcDbSpline
 70
11
 71
3
 72
28
 73
24
 74
0
 42
1e-09
 40
0.0
 40
0.0
 40
0.0
 40
0.0
 40
0.1428571428571428
 40
0.1428571428571428
 40
0.1428571428571428
 40
0.1428571428571428
 40
0.2857142857142857
 40
0.2857142857142857
 40
0.2857142857142857
 40
0.2857142857142857
 40
0.4285714285714285
 40
0.4285714285714285
 40
0.4285714285714285
 40
0.4285714285714285
 40
0.5714285714285714
 40
0.5714285714285714
 40
0.5714285714285714
 40
0.5714285714285714
 40
0.7142857142857143
 40
0.7142857142857143
 40
0.7142857142857143
 40
0.7142857142857143
 40
1.0
 40
1.0
 40
1.0
 40
1.0
 10
381.8804
 20
18.528299999999717
 30
0.0
 10
384.2122
 20
18.528699999999844
 30
0.0
 10
389.1624
 20
18.50469999999973
 30
0.0
 10
391.4939
 20
18.504399999999805
 30
0.0
 10
391.4939
 20
18.504399999999805
 30
0.0
 10
393.4189
 20
18.398999999999887
 30
0.0
 10
396.7375
 20
21.940599999999904
 30
0.0
 10
396.7263
 20
23.95789999999988
 30
0.0
 10
396.7263
 20
23.95789999999988
 30
0.0
 10
396.7259
 20
29.727999999999838
 30
0.0
 10
396.7259
 20
31.89769999999976
 30
0.0
 10
396.7263
 20
37.66699999999969
 30
0.0
 10
396.7263
 20
37.66699999999969
 30
0.0
 10
396.722
 20
39.80509999999981
 30
0.0
 10
393.34749999999997
 20
43.46519999999987
 30
0.0
 10
391.1951
 20
43.451699999999846
 30
0.0
 10
391.1951
 20
43.451699999999846
 30
0.0
 10
388.8694
 20
43.451699999999846
 30
0.0
 10
384.1451
 20
43.451699999999846
 30
0.0
 10
381.819
 20
43.451699999999846
 30
0.0
 10
381.819
 20
43.451699999999846
 30
0.0
 10
381.8194
 20
37.70479999999975
 30
0.0
 10
381.8807
 20
24.275599999999713
 30
0.0
 10
381.8804
 20
18.528299999999717
 30
0.0
  0
SPLINE
  5
32
330
17
100
AcDbEntity
  8
layer 1
 62
250
370
9
100
AcDbSpline
 70
24
 71
3
 72
8
 73
4
 74
0
 42
1e-09
 40
0.0
 40
0.0
 40
0.0
 40
0.0
 40
1.0
 40
1.0
 40
1.0
 40
1.0
 10
425.6886
 20
43.4536999999998
 30
0.0
 10
425.6886
 20
43.4536999999998
 30
0.0
 10
432.8567
 20
43.4536999999998
 30
0.0
 10
432.8567
 20
43.4536999999998
 30
0.0
  0
SPLINE
  5
33
330
17
100
AcDbEntity
  8
layer 1
 62
250
370
9
100
AcDbSpline
 70
24
 71
3
 72
8
 73
4
 74
0
 42
1e-09
 40
0.0
 40
0.0
 40
0.0
 40
0.0
 40
1.0
 40
1.0
 40
1.0
 40
1.0
 10
425.6886
 20
18.500199999999722
 30
0.0
 10
425.6886
 20
18.500199999999722
 30
0.0
 10
432.8567
 20
18.500199999999722
 30
0.0
 10
432.8567
 20
18.500199999999722
 30
0.0
  0
SPLINE
  5
34
330
17
100
AcDbEntity
  8
layer 1
 62
250
370
9
100
AcDbSpline
 70
24
 71
3
 72
8
 73
4
 74
0
 42
1e-09
 40
0.0
 40
0.0
 40
0.0
 40
0.0
 40
1.0
 40
1.0
 40
1.0
 40
1.0
 10
429.2726
 20
43.4536999999998
 30
0.0
 10
429.2726
 20
43.4536999999998
 30
0.0
 10
429.2726
 20
18.500199999999722
 30
0.0
 10
429.2726
 20
18.500199999999722
 30
0.0
  0
SPLINE
  5
35
330
17
100
AcDbEntity
  8
layer 1
 62
250
370
9
100
AcDbSpline
 70
8
 71
3
 72
12
 73
8
 74
0
 42
1e-09
 40
0.0
 40
0.0
 40
0.0
 40
0.0
 40
0.3333333333333333
 40
0.3333333333333333
 40
0.3333333333333333
 40
0.3333333333333333
 40
1.0
 40
1.0
 40
1.0
 40
1.0
 10
361.80219999999997
 20
18.500199999999722
 30
0.0
 10
361.80219999999997
 20
18.500199999999722
 30
0.0
 10
369.1732
 20
43.4536999999998
 30
0.0
 10
369.1732
 20
43.4536999999998
 30
0.0
 10
369.1732
 20
43.4536999999998
 30
0.0
 10
369.1732
 20
43.4536999999998
 30
0.0
 10
376.7431
 20
18.500199999999722
 30
0.0
 10
376.7431
 20
18.500199999999722
 30
0.0
  0
SPLINE
  5
36
330
17
100
AcDbEntity
  8
layer 1
 62
250
370
9
100
AcDbSpline
 70
24
 71
3
 72
8
 73
4
 74
0
 42
1e-09
 40
0.0
 40
0.0
 40
0.0
 40
0.0
 40
1.0
 40
1.0
 40
1.0
 40
1.0
 10
364.5248
 20
27.749599999999873
 30
0.0
 10
364.5248
 20
27.749599999999873
 30
0.0
 10
374.02049999999997
 20
27.749599999999873
 30
0.0
 10
374.02049999999997
 20
27.749599999999873
 30
0.0
  0
SPLINE
  5
37
330
17
100
AcDbEntity
  8
layer 1
 62
250
370
9
100
AcDbSpline
 70
8
 71
3
 72
12
 73
8
 74
0
 42
1e-09
 40
0.0
 40
0.0
 40
0.0
 40
0.0
 40
0.3333333333333333
 40
0.3333333333333333
 40
0.3333333333333333
 40
0.3333333333333333
 40
1.0
 40
1.0
 40
1.0
 40
1.0
 10
495.7472
 20
18.500099999999748
 30
0.0
 10
495.7472
 20
18.500099999999748
 30
0.0
 10
482.7981
 20
18.500099999999748
 30
0.0
 10
482.7981
 20
18.500099999999748
 30
0.0
 10
482.7981
 20
18.500099999999748
 30
0.0
 10
482.7981
 20
18.500099999999748
 30
0.0
 10
482.7981
 20
43.4536999999998
 30
0.0
 10
482.7981
 20
43.4536999999998
 30
0.0
  0
SPLINE
  5
38
330
17
100
AcDbEntity
  8
layer 1
 62
250
370
9
100
AcDbSpline
 70
8
 71
3
 72
12
 73
8
 74
0
 42
1e-09
 40
0.0
 40
0.0
 40
0.0
 40
0.0
 40
0.3333333333333333
 40
0.3333333333333333
 40
0.3333333333333333
 40
0.3333333333333333
 40
1.0
 40
1.0
 40
1.0
 40
1.0
 10
461.80219999999997
 20
18.500199999999722
 30
0.0
 10
461.80219999999997
 20
18.500199999999722
 30
0.0
 10
469.1732
 20
43.4536999999998
 30
0.0
 10
469.1732
 20
43.4536999999998
 30
0.0
 10
469.1732
 20
43.4536999999998
 30
0.0
 10
469.1732
 20
43.4536999999998
 30
0.0
 10
476.7431
 20
18.500199999999722
 30
0.0
 10
476.7431
 20
18.500199999999722
 30
0.0
  0
SPLINE
  5
39
330
17
100
AcDbEntity
  8
layer 1
 62
250
370
9
100
AcDbSpline
 70
24
 71
3
 72
8
 73
4
 74
0
 42
1e-09
 40
0.0
 40
0.0
 40
0.0
 40
0.0
 40
1.0
 40
1.0
 40
1.0
 40
1.0
 10
464.5248
 20
27.749599999999873
 30
0.0
 10
464.5248
 20
27.749599999999873
 30
0.0
 10
474.0205
 20
27.749599999999873
 30
0.0
 10
474.0205
 20
27.749599999999873
 30
0.0
  0
SPLINE
  5
3A
330
17
100
AcDbEntity
  8
layer 1
 62
250
370
9
100
AcDbSpline
 70
24
 71
3
 72
8
 73
4
 74
0
 42
1e-09
 40
0.0
 40
0.0
 40
0.0
 40
0.0
 40
1.0
 40
1.0
 40
1.0
 40
1.0
 10
519.0503
 20
35.211399999999685
 30
0.0
 10
519.0503
 20
35.211399999999685
 30
0.0
 10
519.0503
 20
17.546699999999873
 30
0.0
 10
519.0503
 20
17.546699999999873
 30
0.0
  0
SPLINE
  5
3B
330
17
100
AcDbEntity
  8
layer 1
 62
250
370
9
100
AcDbSpline
 70
8
 71
3
 72
12
 73
8
 74
0
 42
1e-09
 40
0.0
 40
0.0
 40
0.0
 40
0.0
 40
0.3333333333333333
 40
0.3333333333333333
 40
0.3333333333333333
 40
0.3333333333333333
 40
1.0
 40
1.0
 40
1.0
 40
1.0
 10
521.9944
 20
24.450299999999743
 30
0.0
 10
521.9944
 20
24.450299999999743
 30
0.0
 10
507.1727
 20
24.450299999999743
 30
0.0
 10
507.1727
 20
24.450299999999743
 30
0.0
 10
507.1727
 20
24.450299999999743
 30
0.0
 10
507.1727
 20
24.450299999999743
 30
0.0
 10
519.0503
 20
42.52079999999978
 30
0.0
 10
519.0503
 20
42.52079999999978
 30
0.0
  0
SPLINE
  5
3C
330
17
100
AcDbEntity
  8
layer 1
 62
250
370
9
100
AcDbSpline
 70
11
 71
3
 72
36
 73
32
 74
0
 42
1e-09
 40
0.0
 40
0.0
 40
0.0
 40
0.0
 40
0.1111111111111111
 40
0.1111111111111111
 40
0.1111111111111111
 40
0.1111111111111111
 40
0.2222222222222222
 40
0.2222222222222222
 40
0.2222222222222222
 40
0.2222222222222222
 40
0.3333333333333333
 40
0.3333333333333333
 40
0.3333333333333333
 40
0.3333333333333333
 40
0.4444444444444444
 40
0.4444444444444444
 40
0.4444444444444444
 40
0.4444444444444444
 40
0.5555555555555556
 40
0.5555555555555556
 40
0.5555555555555556
 40
0.5555555555555556
 40
0.6666666666666666
 40
0.6666666666666666
 40
0.6666666666666666
 40
0.6666666666666666
 40
0.7777777777777778
 40
0.7777777777777778
 40
0.7777777777777778
 40
0.7777777777777778
 40
1.0
 40
1.0
 40
1.0
 40
1.0
 10
551.0029
 20
42.5329999999999
 30
0.0
 10
553.369
 20
42.5329999999999
 30
0.0
 10
555.7355
 20
42.5329999999999
 30
0.0
 10
558.102
 20
42.5329999999999
 30
0.0
 10
558.102
 20
42.5329999999999
 30
0.0
 10
560.0825
 20
42.56859999999983
 30
0.0
 10
562.1085
 20
41.074299999999766
 30
0.0
 10
562.1356
 20
38.632199999999784
 30
0.0
 10
562.1356
 20
38.632199999999784
 30
0.0
 10
562.1351999999999
 20
32.87479999999982
 30
0.0
 10
562.1351999999999
 20
27.116999999999734
 30
0.0
 10
562.1356
 20
21.358799999999746
 30
0.0
 10
562.1356
 20
21.358799999999746
 30
0.0
 10
561.9935
 20
19.0311999999999
 30
0.0
 10
560.2871
 20
17.548899999999776
 30
0.0
 10
558.102
 20
17.53809999999976
 30
0.0
 10
558.102
 20
17.53809999999976
 30
0.0
 10
555.7296
 20
17.538499999999885
 30
0.0
 10
553.3572
 20
17.538499999999885
 30
0.0
 10
550.9852
 20
17.53809999999976
 30
0.0
 10
550.9852
 20
17.53809999999976
 30
0.0
 10
549.0267
 20
17.43249999999989
 30
0.0
 10
547.0203
 20
19.320399999999836
 30
0.0
 10
547.0317
 20
21.341399999999794
 30
0.0
 10
547.0317
 20
21.341399999999794
 30
0.0
 10
547.0321
 20
27.121999999999844
 30
0.0
 10
547.0321
 20
32.90229999999974
 30
0.0
 10
547.0317
 20
38.682099999999764
 30
0.0
 10
547.0317
 20
38.682099999999764
 30
0.0
 10
547.0360000000001
 20
40.82409999999982
 30
0.0
 10
548.8131
 20
42.5465999999999
 30
0.0
 10
551.0029
 20
42.5329999999999
 30
0.0
  0
SPLINE
  5
3D
330
17
100
AcDbEntity
  8
layer 1
 62
250
370
9
100
AcDbSpline
 70
24
 71
3
 72
8
 73
4
 74
0
 42
1e-09
 40
0.0
 40
0.0
 40
0.0
 40
0.0
 40
1.0
 40
1.0
 40
1.0
 40
1.0
 10
534.5836
 20
42.52079999999978
 30
0.0
 10
534.5836
 20
42.52079999999978
 30
0.0
 10
534.5836
 20
17.546699999999873
 30
0.0
 10
534.5836
 20
17.546699999999873
 30
0.0
  0
SPLINE
  5
3E
330
17
100
AcDbEntity
  8
layer 1
 62
250
370
9
100
AcDbSpline
 70
11
 71
3
 72
36
 73
32
 74
0
 42
1e-09
 40
0.0
 40
0.0
 40
0.0
 40
0.0
 40
0.1111111111111111
 40
0.1111111111111111
 40
0.1111111111111111
 40
0.1111111111111111
 40
0.2222222222222222
 40
0.2222222222222222
 40
0.2222222222222222
 40
0.2222222222222222
 40
0.3333333333333333
 40
0.3333333333333333
 40
0.3333333333333333
 40
0.3333333333333333
 40
0.4444444444444444
 40
0.4444444444444444
 40
0.4444444444444444
 40
0.4444444444444444
 40
0.5555555555555556
 40
0.5555555555555556
 40
0.5555555555555556
 40
0.5555555555555556
 40
0.6666666666666666
 40
0.6666666666666666
 40
0.6666666666666666
 40
0.6666666666666666
 40
0.7777777777777778
 40
0.7777777777777778
 40
0.7777777777777778
 40
0.7777777777777778
 40
1.0
 40
1.0
 40
1.0
 40
1.0
 10
638.6164
 20
41.8938999999998
 30
0.0
 10
640.9421
 20
41.8938999999998
 30
0.0
 10
643.2682
 20
41.8938999999998
 30
0.0
 10
645.5943
 20
41.8938999999998
 30
0.0
 10
645.5943
 20
41.8938999999998
 30
0.0
 10
647.5409
 20
41.929499999999734
 30
0.0
 10
649.5323
 20
40.4378999999999
 30
0.0
 10
649.559
 20
38.0002999999997
 30
0.0
 10
649.559
 20
38.0002999999997
 30
0.0
 10
649.5586000000001
 20
32.25339999999983
 30
0.0
 10
649.5586000000001
 20
26.506099999999833
 30
0.0
 10
649.559
 20
20.75839999999971
 30
0.0
 10
649.559
 20
20.75839999999971
 30
0.0
 10
649.4192
 20
18.434999999999718
 30
0.0
 10
647.742
 20
16.955399999999827
 30
0.0
 10
645.5943
 20
16.94459999999981
 30
0.0
 10
645.5943
 20
16.94459999999981
 30
0.0
 10
643.2624000000001
 20
16.94499999999971
 30
0.0
 10
640.9304999999999
 20
16.94499999999971
 30
0.0
 10
638.5989999999999
 20
16.94459999999981
 30
0.0
 10
638.5989999999999
 20
16.94459999999981
 30
0.0
 10
636.674
 20
16.83919999999989
 30
0.0
 10
634.7019
 20
18.72369999999978
 30
0.0
 10
634.7130999999999
 20
20.740999999999758
 30
0.0
 10
634.7130999999999
 20
20.740999999999758
 30
0.0
 10
634.7134
 20
26.511099999999715
 30
0.0
 10
634.7134
 20
32.28079999999977
 30
0.0
 10
634.7130999999999
 20
38.0500999999997
 30
0.0
 10
634.7130999999999
 20
38.0500999999997
 30
0.0
 10
634.7173
 20
40.188199999999824
 30
0.0
 10
636.4639999999999
 20
41.907399999999825
 30
0.0
 10
638.6164
 20
41.8938999999998
 30
0.0
  0
SPLINE
  5
3F
330
17
100
AcDbEntity
  8
layer 1
 62
250
370
9
100
AcDbSpline
 70
8
 71
3
 72
12
 73
8
 74
0
 42
1e-09
 40
0.0
 40
0.0
 40
0.0
 40
0.0
 40
0.3333333333333333
 40
0.3333333333333333
 40
0.3333333333333333
 40
0.3333333333333333
 40
1.0
 40
1.0
 40
1.0
 40
1.0
 10
629.4576999999999
 20
41.89419999999973
 30
0.0
 10
629.4576999999999
 20
41.89419999999973
 30
0.0
 10
622.1353
 20
29.995499999999765
 30
0.0
 10
622.1353
 20
29.995499999999765
 30
0.0
 10
622.1353
 20
29.995499999999765
 30
0.0
 10
622.1353
 20
29.995499999999765
 30
0.0
 10
622.136
 20
16.940599999999904
 30
0.0
 10
622.136
 20
16.940599999999904
 30
0.0
  0
SPLINE
  5
40
330
17
100
AcDbEntity
  8
layer 1
 62
250
370
9
100
AcDbSpline
 70
24
 71
3
 72
8
 73
4
 74
0
 42
1e-09
 40
0.0
 40
0.0
 40
0.0
 40
0.0
 40
1.0
 40
1.0
 40
1.0
 40
1.0
 10
622.1353
 20
29.995499999999765
 30
0.0
 10
622.1353
 20
29.995499999999765
 30
0.0
 10
614.8144
 20
41.89419999999973
 30
0.0
 10
614.8144
 20
41.89419999999973
 30
0.0
  0
SPLINE
  5
41
330
17
100
AcDbEntity
  8
layer 1
 62
250
370
9
100
AcDbSpline
 70
8
 71
3
 72
28
 73
24
 74
0
 42
1e-09
 40
0.0
 40
0.0
 40
0.0
 40
0.0
 40
0.1428571428571428
 40
0.1428571428571428
 40
0.1428571428571428
 40
0.1428571428571428
 40
0.2857142857142857
 40
0.2857142857142857
 40
0.2857142857142857
 40
0.2857142857142857
 40
0.4285714285714285
 40
0.4285714285714285
 40
0.4285714285714285
 40
0.4285714285714285
 40
0.5714285714285714
 40
0.5714285714285714
 40
0.5714285714285714
 40
0.5714285714285714
 40
0.7142857142857143
 40
0.7142857142857143
 40
0.7142857142857143
 40
0.7142857142857143
 40
1.0
 40
1.0
 40
1.0
 40
1.0
 10
574.8039
 20
16.940599999999904
 30
0.0
 10
574.8039
 20
16.940599999999904
 30
0.0
 10
574.8039
 20
41.89419999999973
 30
0.0
 10
574.8039
 20
41.89419999999973
 30
0.0
 10
574.8039
 20
41.89419999999973
 30
0.0
 10
578.3989
 20
41.89419999999973
 30
0.0
 10
581.9942
 20
41.89419999999973
 30
0.0
 10
585.5896
 20
41.89419999999973
 30
0.0
 10
585.5896
 20
41.89419999999973
 30
0.0
 10
587.9148
 20
41.85629999999969
 30
0.0
 10
589.4722
 20
40.36619999999971
 30
0.0
 10
589.468
 20
38.00009999999975
 30
0.0
 10
589.468
 20
38.00009999999975
 30
0.0
 10
589.4676
 20
35.96439999999984
 30
0.0
 10
589.4676
 20
32.90509999999972
 30
0.0
 10
589.468
 20
30.86909999999989
 30
0.0
 10
589.468
 20
30.86909999999989
 30
0.0
 10
589.4615
 20
28.993699999999762
 30
0.0
 10
587.6493
 20
27.05179999999973
 30
0.0
 10
585.6397
 20
27.03269999999975
 30
0.0
 10
585.6397
 20
27.03269999999975
 30
0.0
 10
585.6397
 20
27.03269999999975
 30
0.0
 10
574.8039
 20
27.03269999999975
 30
0.0
 10
574.8039
 20
27.03269999999975
 30
0.0
  0
SPLINE
  5
42
330
17
100
AcDbEntity
  8
layer 1
 62
250
370
9
100
AcDbSpline
 70
8
 71
3
 72
12
 73
8
 74
0
 42
1e-09
 40
0.0
 40
0.0
 40
0.0
 40
0.0
 40
0.3333333333333333
 40
0.3333333333333333
 40
0.3333333333333333
 40
0.3333333333333333
 40
1.0
 40
1.0
 40
1.0
 40
1.0
 10
594.6656
 20
16.94069999999988
 30
0.0
 10
594.6656
 20
16.94069999999988
 30
0.0
 10
602.0366
 20
41.89419999999973
 30
0.0
 10
602.0366
 20
41.89419999999973
 30
0.0
 10
602.0366
 20
41.89419999999973
 30
0.0
 10
602.0366
 20
41.89419999999973
 30
0.0
 10
609.6065
 20
16.94069999999988
 30
0.0
 10
609.6065
 20
16.94069999999988
 30
0.0
  0
SPLINE
  5
43
330
17
100
AcDbEntity
  8
layer 1
 62
250
370
9
100
AcDbSpline
 70
24
 71
3
 72
8
 73
4
 74
0
 42
1e-09
 40
0.0
 40
0.0
 40
0.0
 40
0.0
 40
1.0
 40
1.0
 40
1.0
 40
1.0
 10
597.3882
 20
26.190099999999802
 30
0.0
 10
597.3882
 20
26.190099999999802
 30
0.0
 10
606.8839
 20
26.190099999999802
 30
0.0
 10
606.8839
 20
26.190099999999802
 30
0.0
  0
SPLINE
  5
44
330
17
100
AcDbEntity
  8
layer 1
 62
250
370
9
100
AcDbSpline
 70
8
 71
3
 72
12
 73
8
 74
0
 42
1e-09
 40
0.0
 40
0.0
 40
0.0
 40
0.0
 40
0.3333333333333333
 40
0.3333333333333333
 40
0.3333333333333333
 40
0.3333333333333333
 40
1.0
 40
1.0
 40
1.0
 40
1.0
 10
668.6105
 20
16.940599999999904
 30
0.0
 10
668.6105
 20
16.940599999999904
 30
0.0
 10
655.6614
 20
16.940599999999904
 30
0.0
 10
655.6614
 20
16.940599999999904
 30
0.0
 10
655.6614
 20
16.940599999999904
 30
0.0
 10
655.6614
 20
16.940599999999904
 30
0.0
 10
655.6614
 20
41.89419999999973
 30
0.0
 10
655.6614
 20
41.89419999999973
 30
0.0
  0
SPLINE
  5
45
330
17
100
AcDbEntity
  8
layer 1
 62
242
370
9
100
AcDbSpline
 70
11
 71
3
 72
444
 73
440
 74
0
 42
1e-09
 40
0.0
 40
0.0
 40
0.0
 40
0.0
 40
0.009009009009009
 40
0.009009009009009
 40
0.009009009009009
 40
0.009009009009009
 40
0.018018018018018
 40
0.018018018018018
 40
0.018018018018018
 40
0.018018018018018
 40
0.027027027027027
 40
0.027027027027027
 40
0.027027027027027
 40
0.027027027027027
 40
0.036036036036036
 40
0.036036036036036
 40
0.036036036036036
 40
0.036036036036036
 40
0.045045045045045
 40
0.045045045045045
 40
0.045045045045045
 40
0.045045045045045
 40
0.0540540540540541
 40
0.0540540540540541
 40
0.0540540540540541
 40
0.0540540540540541
 40
0.0630630630630631
 40
0.0630630630630631
 40
0.0630630630630631
 40
0.0630630630630631
 40
0.0720720720720721
 40
0.0720720720720721
 40
0.0720720720720721
 40
0.0720720720720721
 40
0.0810810810810811
 40
0.0810810810810811
 40
0.0810810810810811
 40
0.0810810810810811
 40
0.0900900900900901
 40
0.0900900900900901
 40
0.0900900900900901
 40
0.0900900900900901
 40
0.0990990990990991
 40
0.0990990990990991
 40
0.0990990990990991
 40
0.0990990990990991
 40
0.1081081081081081
 40
0.1081081081081081
 40
0.1081081081081081
 40
0.1081081081081081
 40
0.1171171171171171
 40
0.1171171171171171
 40
0.1171171171171171
 40
0.1171171171171171
 40
0.1261261261261261
 40
0.1261261261261261
 40
0.1261261261261261
 40
0.1261261261261261
 40
0.1351351351351351
 40
0.1351351351351351
 40
0.1351351351351351
 40
0.1351351351351351
 40
0.1441441441441441
 40
0.1441441441441441
 40
0.1441441441441441
 40
0.1441441441441441
 40
0.1531531531531531
 40
0.1531531531531531
 40
0.1531531531531531
 40
0.1531531531531531
 40
0.1621621621621622
 40
0.1621621621621622
 40
0.1621621621621622
 40
0.1621621621621622
 40
0.1711711711711712
 40
0.1711711711711712
 40
0.1711711711711712
 40
0.1711711711711712
 40
0.1801801801801802
 40
0.1801801801801802
 40
0.1801801801801802
 40
0.1801801801801802
 40
0.1891891891891892
 40
0.1891891891891892
 40
0.1891891891891892
 40
0.1891891891891892
 40
0.1981981981981982
 40
0.1981981981981982
 40
0.1981981981981982
 40
0.1981981981981982
 40
0.2072072072072072
 40
0.2072072072072072
 40
0.2072072072072072
 40
0.2072072072072072
 40
0.2162162162162162
 40
0.2162162162162162
 40
0.2162162162162162
 40
0.2162162162162162
 40
0.2252252252252252
 40
0.2252252252252252
 40
0.2252252252252252
 40
0.2252252252252252
 40
0.2342342342342342
 40
0.2342342342342342
 40
0.2342342342342342
 40
0.2342342342342342
 40
0.2432432432432433
 40
0.2432432432432433
 40
0.2432432432432433
 40
0.2432432432432433
 40
0.2522522522522522
 40
0.2522522522522522
 40
0.2522522522522522
 40
0.2522522522522522
 40
0.2612612612612613
 40
0.2612612612612613
 40
0.2612612612612613
 40
0.2612612612612613
 40
0.2702702702702703
 40
0.2702702702702703
 40
0.2702702702702703
 40
0.2702702702702703
 40
0.2792792792792793
 40
0.2792792792792793
 40
0.2792792792792793
 40
0.2792792792792793
 40
0.2882882882882883
 40
0.2882882882882883
 40
0.2882882882882883
 40
0.2882882882882883
 40
0.2972972972972973
 40
0.2972972972972973
 40
0.2972972972972973
 40
0.2972972972972973
 40
0.3063063063063063
 40
0.3063063063063063
 40
0.3063063063063063
 40
0.3063063063063063
 40
0.3153153153153153
 40
0.3153153153153153
 40
0.3153153153153153
 40
0.3153153153153153
 40
0.3243243243243243
 40
0.3243243243243243
 40
0.3243243243243243
 40
0.3243243243243243
 40
0.3333333333333333
 40
0.3333333333333333
 40
0.3333333333333333
 40
0.3333333333333333
 40
0.3423423423423423
 40
0.3423423423423423
 40
0.3423423423423423
 40
0.3423423423423423
 40
0.3513513513513514
 40
0.3513513513513514
 40
0.3513513513513514
 40
0.3513513513513514
 40
0.3603603603603603
 40
0.3603603603603603
 40
0.3603603603603603
 40
0.3603603603603603
 40
0.3693693693693694
 40
0.3693693693693694
 40
0.3693693693693694
 40
0.3693693693693694
 40
0.3783783783783784
 40
0.3783783783783784
 40
0.3783783783783784
 40
0.3783783783783784
 40
0.3873873873873874
 40
0.3873873873873874
 40
0.3873873873873874
 40
0.3873873873873874
 40
0.3963963963963964
 40
0.3963963963963964
 40
0.3963963963963964
 40
0.3963963963963964
 40
0.4054054054054054
 40
0.4054054054054054
 40
0.4054054054054054
 40
0.4054054054054054
 40
0.4144144144144144
 40
0.4144144144144144
 40
0.4144144144144144
 40
0.4144144144144144
 40
0.4234234234234234
 40
0.4234234234234234
 40
0.4234234234234234
 40
0.4234234234234234
 40
0.4324324324324325
 40
0.4324324324324325
 40
0.4324324324324325
 40
0.4324324324324325
 40
0.4414414414414414
 40
0.4414414414414414
 40
0.4414414414414414
 40
0.4414414414414414
 40
0.4504504504504505
 40
0.4504504504504505
 40
0.4504504504504505
 40
0.4504504504504505
 40
0.4594594594594595
 40
0.4594594594594595
 40
0.4594594594594595
 40
0.4594594594594595
 40
0.4684684684684685
 40
0.4684684684684685
 40
0.4684684684684685
 40
0.4684684684684685
 40
0.4774774774774775
 40
0.4774774774774775
 40
0.4774774774774775
 40
0.4774774774774775
 40
0.4864864864864865
 40
0.4864864864864865
 40
0.4864864864864865
 40
0.4864864864864865
 40
0.4954954954954955
 40
0.4954954954954955
 40
0.4954954954954955
 40
0.4954954954954955
 40
0.5045045045045045
 40
0.5045045045045045
 40
0.5045045045045045
 40
0.5045045045045045
 40
0.5135135135135135
 40
0.5135135135135135
 40
0.5135135135135135
 40
0.5135135135135135
 40
0.5225225225225225
 40
0.5225225225225225
 40
0.5225225225225225
 40
0.5225225225225225
 40
0.5315315315315315
 40
0.5315315315315315
 40
0.5315315315315315
 40
0.5315315315315315
 40
0.5405405405405406
 40
0.5405405405405406
 40
0.5405405405405406
 40
0.5405405405405406
 40
0.5495495495495496
 40
0.5495495495495496
 40
0.5495495495495496
 40
0.5495495495495496
 40
0.5585585585585585
 40
0.5585585585585585
 40
0.5585585585585585
 40
0.5585585585585585
 40
0.5675675675675675
 40
0.5675675675675675
 40
0.5675675675675675
 40
0.5675675675675675
 40
0.5765765765765766
 40
0.5765765765765766
 40
0.5765765765765766
 40
0.5765765765765766
 40
0.5855855855855856
 40
0.5855855855855856
 40
0.5855855855855856
 40
0.5855855855855856
 40
0.5945945945945946
 40
0.5945945945945946
 40
0.5945945945945946
 40
0.5945945945945946
 40
0.6036036036036037
 40
0.6036036036036037
 40
0.6036036036036037
 40
0.6036036036036037
 40
0.6126126126126126
 40
0.6126126126126126
 40
0.6126126126126126
 40
0.6126126126126126
 40
0.6216216216216216
 40
0.6216216216216216
 40
0.6216216216216216
 40
0.6216216216216216
 40
0.6306306306306306
 40
0.6306306306306306
 40
0.6306306306306306
 40
0.6306306306306306
 40
0.6396396396396397
 40
0.6396396396396397
 40
0.6396396396396397
 40
0.6396396396396397
 40
0.6486486486486487
 40
0.6486486486486487
 40
0.6486486486486487
 40
0.6486486486486487
 40
0.6576576576576577
 40
0.6576576576576577
 40
0.6576576576576577
 40
0.6576576576576577
 40
0.6666666666666666
 40
0.6666666666666666
 40
0.6666666666666666
 40
0.6666666666666666
 40
0.6756756756756757
 40
0.6756756756756757
 40
0.6756756756756757
 40
0.6756756756756757
 40
0.6846846846846847
 40
0.6846846846846847
 40
0.6846846846846847
 40
0.6846846846846847
 40
0.6936936936936937
 40
0.6936936936936937
 40
0.6936936936936937
 40
0.6936936936936937
 40
0.7027027027027027
 40
0.7027027027027027
 40
0.7027027027027027
 40
0.7027027027027027
 40
0.7117117117117117
 40
0.7117117117117117
 40
0.7117117117117117
 40
0.7117117117117117
 40
0.7207207207207207
 40
0.7207207207207207
 40
0.7207207207207207
 40
0.7207207207207207
 40
0.7297297297297297
 40
0.7297297297297297
 40
0.7297297297297297
 40
0.7297297297297297
 40
0.7387387387387387
 40
0.7387387387387387
 40
0.7387387387387387
 40
0.7387387387387387
 40
0.7477477477477478
 40
0.7477477477477478
 40
0.7477477477477478
 40
0.7477477477477478
 40
0.7567567567567568
 40
0.7567567567567568
 40
0.7567567567567568
 40
0.7567567567567568
 40
0.7657657657657657
 40
0.7657657657657657
 40
0.7657657657657657
 40
0.7657657657657657
 40
0.7747747747747747
 40
0.7747747747747747
 40
0.7747747747747747
 40
0.7747747747747747
 40
0.7837837837837838
 40
0.7837837837837838
 40
0.7837837837837838
 40
0.7837837837837838
 40
0.7927927927927928
 40
0.7927927927927928
 40
0.7927927927927928
 40
0.7927927927927928
 40
0.8018018018018018
 40
0.8018018018018018
 40
0.8018018018018018
 40
0.8018018018018018
 40
0.8108108108108109
 40
0.8108108108108109
 40
0.8108108108108109
 40
0.8108108108108109
 40
0.8198198198198198
 40
0.8198198198198198
 40
0.8198198198198198
 40
0.8198198198198198
 40
0.8288288288288288
 40
0.8288288288288288
 40
0.8288288288288288
 40
0.8288288288288288
 40
0.8378378378378378
 40
0.8378378378378378
 40
0.8378378378378378
 40
0.8378378378378378
 40
0.8468468468468469
 40
0.8468468468468469
 40
0.8468468468468469
 40
0.8468468468468469
 40
0.8558558558558559
 40
0.8558558558558559
 40
0.8558558558558559
 40
0.8558558558558559
 40
0.8648648648648649
 40
0.8648648648648649
 40
0.8648648648648649
 40
0.8648648648648649
 40
0.8738738738738738
 40
0.8738738738738738
 40
0.8738738738738738
 40
0.8738738738738738
 40
0.8828828828828829
 40
0.8828828828828829
 40
0.8828828828828829
 40
0.8828828828828829
 40
0.8918918918918919
 40
0.8918918918918919
 40
0.8918918918918919
 40
0.8918918918918919
 40
0.9009009009009009
 40
0.9009009009009009
 40
0.9009009009009009
 40
0.9009009009009009
 40
0.9099099099099099
 40
0.9099099099099099
 40
0.9099099099099099
 40
0.9099099099099099
 40
0.918918918918919
 40
0.918918918918919
 40
0.918918918918919
 40
0.918918918918919
 40
0.9279279279279279
 40
0.9279279279279279
 40
0.9279279279279279
 40
0.9279279279279279
 40
0.9369369369369369
 40
0.9369369369369369
 40
0.9369369369369369
 40
0.9369369369369369
 40
0.9459459459459459
 40
0.9459459459459459
 40
0.9459459459459459
 40
0.9459459459459459
 40
0.954954954954955
 40
0.954954954954955
 40
0.954954954954955
 40
0.954954954954955
 40
0.963963963963964
 40
0.963963963963964
 40
0.963963963963964
 40
0.963963963963964
 40
0.972972972972973
 40
0.972972972972973
 40
0.972972972972973
 40
0.972972972972973
 40
0.9819819819819819
 40
0.9819819819819819
 40
0.9819819819819819
 40
0.9819819819819819
 40
1.0
 40
1.0
 40
1.0
 40
1.0
 10
997.4999
 20
173.65989999999988
 30
0.0
 10
997.4999
 20
173.65989999999988
 30
0.0
 10
998.5871
 20
172.9337999999998
 30
0.0
 10
998.5871
 20
172.9337999999998
 30
0.0
 10
998.5871
 20
172.9337999999998
 30
0.0
 10
998.5871
 20
172.9337999999998
 30
0.0
 10
999.5709
 20
172.0701999999999
 30
0.0
 10
999.5709
 20
172.0701999999999
 30
0.0
 10
999.5709
 20
172.0701999999999
 30
0.0
 10
999.5709
 20
172.0701999999999
 30
0.0
 10
1000.4339
 20
171.08699999999976
 30
0.0
 10
1000.4339
 20
171.08699999999976
 30
0.0
 10
1000.4339
 20
171.08699999999976
 30
0.0
 10
1000.4339
 20
171.08699999999976
 30
0.0
 10
1001.16
 20
169.99979999999982
 30
0.0
 10
1001.16
 20
169.99979999999982
 30
0.0
 10
1001.16
 20
169.99979999999982
 30
0.0
 10
1001.16
 20
169.99979999999982
 30
0.0
 10
1001.7387
 20
168.82709999999975
 30
0.0
 10
1001.7387
 20
168.82709999999975
 30
0.0
 10
1001.7387
 20
168.82709999999975
 30
0.0
 10
1001.7387
 20
168.82709999999975
 30
0.0
 10
1002.1589
 20
167.5876999999998
 30
0.0
 10
1002.1589
 20
167.5876999999998
 30
0.0
 10
1002.1589
 20
167.5876999999998
 30
0.0
 10
1002.1589
 20
167.5876999999998
 30
0.0
 10
1002.4144
 20
166.30619999999976
 30
0.0
 10
1002.4144
 20
166.30619999999976
 30
0.0
 10
1002.4144
 20
166.30619999999976
 30
0.0
 10
1002.4144
 20
166.30619999999976
 30
0.0
 10
1002.4989
 20
164.99969999999985
 30
0.0
 10
1002.4989
 20
164.99969999999985
 30
0.0
 10
1002.4989
 20
164.99969999999985
 30
0.0
 10
1002.4989
 20
164.99969999999985
 30
0.0
 10
1002.4989
 20
-30.000600000000304
 30
0.0
 10
1002.4989
 20
-30.000600000000304
 30
0.0
 10
1002.4989
 20
-30.000600000000304
 30
0.0
 10
1002.4989
 20
-30.000600000000304
 30
0.0
 10
922.5005
 20
-99.99990000000025
 30
0.0
 10
922.5005
 20
-99.99990000000025
 30
0.0
 10
922.5005
 20
-99.99990000000025
 30
0.0
 10
922.5005
 20
-99.99990000000025
 30
0.0
 10
27.499500000000012
 20
-99.99990000000025
 30
0.0
 10
27.499500000000012
 20
-99.99990000000025
 30
0.0
 10
27.499500000000012
 20
-99.99990000000025
 30
0.0
 10
27.499500000000012
 20
-99.99990000000025
 30
0.0
 10
-52.49890000000005
 20
-30.000600000000304
 30
0.0
 10
-52.49890000000005
 20
-30.000600000000304
 30
0.0
 10
-52.49890000000005
 20
-30.000600000000304
 30
0.0
 10
-52.49890000000005
 20
-30.000600000000304
 30
0.0
 10
-52.49890000000005
 20
164.99969999999985
 30
0.0
 10
-52.49890000000005
 20
164.99969999999985
 30
0.0
 10
-52.49890000000005
 20
164.99969999999985
 30
0.0
 10
-52.49890000000005
 20
164.99969999999985
 30
0.0
 10
-52.414999999999964
 20
166.30619999999976
 30
0.0
 10
-52.414999999999964
 20
166.30619999999976
 30
0.0
 10
-52.414999999999964
 20
166.30619999999976
 30
0.0
 10
-52.414999999999964
 20
166.30619999999976
 30
0.0
 10
-52.15890000000002
 20
167.5876999999998
 30
0.0
 10
-52.15890000000002
 20
167.5876999999998
 30
0.0
 10
-52.15890000000002
 20
167.5876999999998
 30
0.0
 10
-52.15890000000002
 20
167.5876999999998
 30
0.0
 10
-51.738699999999994
 20
168.82709999999975
 30
0.0
 10
-51.738699999999994
 20
168.82709999999975
 30
0.0
 10
-51.738699999999994
 20
168.82709999999975
 30
0.0
 10
-51.738699999999994
 20
168.82709999999975
 30
0.0
 10
-51.15999999999997
 20
169.99979999999982
 30
0.0
 10
-51.15999999999997
 20
169.99979999999982
 30
0.0
 10
-51.15999999999997
 20
169.99979999999982
 30
0.0
 10
-51.15999999999997
 20
169.99979999999982
 30
0.0
 10
-50.43439999999998
 20
171.08699999999976
 30
0.0
 10
-50.43439999999998
 20
171.08699999999976
 30
0.0
 10
-50.43439999999998
 20
171.08699999999976
 30
0.0
 10
-50.43439999999998
 20
171.08699999999976
 30
0.0
 10
-49.57090000000005
 20
172.0701999999999
 30
0.0
 10
-49.57090000000005
 20
172.0701999999999
 30
0.0
 10
-49.57090000000005
 20
172.0701999999999
 30
0.0
 10
-49.57090000000005
 20
172.0701999999999
 30
0.0
 10
-48.587099999999964
 20
172.9337999999998
 30
0.0
 10
-48.587099999999964
 20
172.9337999999998
 30
0.0
 10
-48.587099999999964
 20
172.9337999999998
 30
0.0
 10
-48.587099999999964
 20
172.9337999999998
 30
0.0
 10
-47.50040000000001
 20
173.65989999999988
 30
0.0
 10
-47.50040000000001
 20
173.65989999999988
 30
0.0
 10
-47.50040000000001
 20
173.65989999999988
 30
0.0
 10
-47.50040000000001
 20
173.65989999999988
 30
0.0
 10
-46.32770000000005
 20
174.2380999999998
 30
0.0
 10
-46.32770000000005
 20
174.2380999999998
 30
0.0
 10
-46.32770000000005
 20
174.2380999999998
 30
0.0
 10
-46.32770000000005
 20
174.2380999999998
 30
0.0
 10
-45.087800000000016
 20
174.6587999999997
 30
0.0
 10
-45.087800000000016
 20
174.6587999999997
 30
0.0
 10
-45.087800000000016
 20
174.6587999999997
 30
0.0
 10
-45.087800000000016
 20
174.6587999999997
 30
0.0
 10
-43.80460000000005
 20
174.91429999999968
 30
0.0
 10
-43.80460000000005
 20
174.91429999999968
 30
0.0
 10
-43.80460000000005
 20
174.91429999999968
 30
0.0
 10
-43.80460000000005
 20
174.91429999999968
 30
0.0
 10
-42.49980000000005
 20
175.0003999999999
 30
0.0
 10
-42.49980000000005
 20
175.0003999999999
 30
0.0
 10
-42.49980000000005
 20
175.0003999999999
 30
0.0
 10
-42.49980000000005
 20
175.0003999999999
 30
0.0
 10
-2.5
 20
175.0003999999999
 30
0.0
 10
-2.5
 20
175.0003999999999
 30
0.0
 10
-2.5
 20
175.0003999999999
 30
0.0
 10
-2.5
 20
175.0003999999999
 30
0.0
 10
0.11130000000002838
 20
175.17039999999974
 30
0.0
 10
0.11130000000002838
 20
175.17039999999974
 30
0.0
 10
0.11130000000002838
 20
175.17039999999974
 30
0.0
 10
0.11130000000002838
 20
175.17039999999974
 30
0.0
 10
2.6766000000000076
 20
175.6804999999997
 30
0.0
 10
2.6766000000000076
 20
175.6804999999997
 30
0.0
 10
2.6766000000000076
 20
175.6804999999997
 30
0.0
 10
2.6766000000000076
 20
175.6804999999997
 30
0.0
 10
5.153599999999983
 20
176.5228999999997
 30
0.0
 10
5.153599999999983
 20
176.5228999999997
 30
0.0
 10
5.153599999999983
 20
176.5228999999997
 30
0.0
 10
5.153599999999983
 20
176.5228999999997
 30
0.0
 10
7.4990999999999985
 20
177.6782999999998
 30
0.0
 10
7.4990999999999985
 20
177.6782999999998
 30
0.0
 10
7.4990999999999985
 20
177.6782999999998
 30
0.0
 10
7.4990999999999985
 20
177.6782999999998
 30
0.0
 10
9.674599999999998
 20
179.1320999999998
 30
0.0
 10
9.674599999999998
 20
179.1320999999998
 30
0.0
 10
9.674599999999998
 20
179.1320999999998
 30
0.0
 10
9.674599999999998
 20
179.1320999999998
 30
0.0
 10
11.642100000000028
 20
180.85869999999977
 30
0.0
 10
11.642100000000028
 20
180.85869999999977
 30
0.0
 10
11.642100000000028
 20
180.85869999999977
 30
0.0
 10
11.642100000000028
 20
180.85869999999977
 30
0.0
 10
13.367099999999994
 20
182.82409999999982
 30
0.0
 10
13.367099999999994
 20
182.82409999999982
 30
0.0
 10
13.367099999999994
 20
182.82409999999982
 30
0.0
 10
13.367099999999994
 20
182.82409999999982
 30
0.0
 10
14.820299999999975
 20
184.99959999999987
 30
0.0
 10
14.820299999999975
 20
184.99959999999987
 30
0.0
 10
14.820299999999975
 20
184.99959999999987
 30
0.0
 10
14.820299999999975
 20
184.99959999999987
 30
0.0
 10
15.977899999999977
 20
187.3471999999997
 30
0.0
 10
15.977899999999977
 20
187.3471999999997
 30
0.0
 10
15.977899999999977
 20
187.3471999999997
 30
0.0
 10
15.977899999999977
 20
187.3471999999997
 30
0.0
 10
16.81819999999999
 20
189.8241999999998
 30
0.0
 10
16.81819999999999
 20
189.8241999999998
 30
0.0
 10
16.81819999999999
 20
189.8241999999998
 30
0.0
 10
16.81819999999999
 20
189.8241999999998
 30
0.0
 10
17.32819999999998
 20
192.38949999999977
 30
0.0
 10
17.32819999999998
 20
192.38949999999977
 30
0.0
 10
17.32819999999998
 20
192.38949999999977
 30
0.0
 10
17.32819999999998
 20
192.38949999999977
 30
0.0
 10
17.500400000000013
 20
194.99869999999987
 30
0.0
 10
17.500400000000013
 20
194.99869999999987
 30
0.0
 10
17.500400000000013
 20
194.99869999999987
 30
0.0
 10
17.500400000000013
 20
194.99869999999987
 30
0.0
 10
17.500400000000013
 20
1609.9996999999998
 30
0.0
 10
17.500400000000013
 20
1609.9996999999998
 30
0.0
 10
17.500400000000013
 20
1609.9996999999998
 30
0.0
 10
17.500400000000013
 20
1609.9996999999998
 30
0.0
 10
17.330399999999997
 20
1612.6012999999998
 30
0.0
 10
17.330399999999997
 20
1612.6012999999998
 30
0.0
 10
17.330399999999997
 20
1612.6012999999998
 30
0.0
 10
17.330399999999997
 20
1612.6012999999998
 30
0.0
 10
16.822000000000003
 20
1615.1584999999998
 30
0.0
 10
16.822000000000003
 20
1615.1584999999998
 30
0.0
 10
16.822000000000003
 20
1615.1584999999998
 30
0.0
 10
16.822000000000003
 20
1615.1584999999998
 30
0.0
 10
15.987599999999986
 20
1617.6300999999999
 30
0.0
 10
15.987599999999986
 20
1617.6300999999999
 30
0.0
 10
15.987599999999986
 20
1617.6300999999999
 30
0.0
 10
15.987599999999986
 20
1617.6300999999999
 30
0.0
 10
14.837600000000009
 20
1619.9701999999997
 30
0.0
 10
14.837600000000009
 20
1619.9701999999997
 30
0.0
 10
14.837600000000009
 20
1619.9701999999997
 30
0.0
 10
14.837600000000009
 20
1619.9701999999997
 30
0.0
 10
13.391500000000008
 20
1622.1418999999999
 30
0.0
 10
13.391500000000008
 20
1622.1418999999999
 30
0.0
 10
13.391500000000008
 20
1622.1418999999999
 30
0.0
 10
13.391500000000008
 20
1622.1418999999999
 30
0.0
 10
11.676800000000014
 20
1624.1050999999998
 30
0.0
 10
11.676800000000014
 20
1624.1050999999998
 30
0.0
 10
11.676800000000014
 20
1624.1050999999998
 30
0.0
 10
11.676800000000014
 20
1624.1050999999998
 30
0.0
 10
9.72059999999999
 20
1625.8300999999997
 30
0.0
 10
9.72059999999999
 20
1625.8300999999997
 30
0.0
 10
9.72059999999999
 20
1625.8300999999997
 30
0.0
 10
9.72059999999999
 20
1625.8300999999997
 30
0.0
 10
7.5586999999999875
 20
1627.2853999999998
 30
0.0
 10
7.5586999999999875
 20
1627.2853999999998
 30
0.0
 10
7.5586999999999875
 20
1627.2853999999998
 30
0.0
 10
7.5586999999999875
 20
1627.2853999999998
 30
0.0
 10
5.222399999999993
 20
1628.4489999999998
 30
0.0
 10
5.222399999999993
 20
1628.4489999999998
 30
0.0
 10
5.222399999999993
 20
1628.4489999999998
 30
0.0
 10
5.222399999999993
 20
1628.4489999999998
 30
0.0
 10
2.7567000000000235
 20
1629.2967999999998
 30
0.0
 10
2.7567000000000235
 20
1629.2967999999998
 30
0.0
 10
2.7567000000000235
 20
1629.2967999999998
 30
0.0
 10
2.7567000000000235
 20
1629.2967999999998
 30
0.0
 10
0.20119999999997162
 20
1629.8160999999998
 30
0.0
 10
0.20119999999997162
 20
1629.8160999999998
 30
0.0
 10
0.20119999999997162
 20
1629.8160999999998
 30
0.0
 10
0.20119999999997162
 20
1629.8160999999998
 30
0.0
 10
-2.4003999999999905
 20
1629.9995999999999
 30
0.0
 10
-2.4003999999999905
 20
1629.9995999999999
 30
0.0
 10
-2.4003999999999905
 20
1629.9995999999999
 30
0.0
 10
-2.4003999999999905
 20
1629.9995999999999
 30
0.0
 10
-42.49980000000005
 20
1629.9995999999999
 30
0.0
 10
-42.49980000000005
 20
1629.9995999999999
 30
0.0
 10
-42.49980000000005
 20
1629.9995999999999
 30
0.0
 10
-42.49980000000005
 20
1629.9995999999999
 30
0.0
 10
-43.80460000000005
 20
1630.0856999999999
 30
0.0
 10
-43.80460000000005
 20
1630.0856999999999
 30
0.0
 10
-43.80460000000005
 20
1630.0856999999999
 30
0.0
 10
-43.80460000000005
 20
1630.0856999999999
 30
0.0
 10
-45.087800000000016
 20
1630.3395999999998
 30
0.0
 10
-45.087800000000016
 20
1630.3395999999998
 30
0.0
 10
-45.087800000000016
 20
1630.3395999999998
 30
0.0
 10
-45.087800000000016
 20
1630.3395999999998
 30
0.0
 10
-46.32770000000005
 20
1630.7597999999998
 30
0.0
 10
-46.32770000000005
 20
1630.7597999999998
 30
0.0
 10
-46.32770000000005
 20
1630.7597999999998
 30
0.0
 10
-46.32770000000005
 20
1630.7597999999998
 30
0.0
 10
-47.50040000000001
 20
1631.3385999999998
 30
0.0
 10
-47.50040000000001
 20
1631.3385999999998
 30
0.0
 10
-47.50040000000001
 20
1631.3385999999998
 30
0.0
 10
-47.50040000000001
 20
1631.3385999999998
 30
0.0
 10
-48.587099999999964
 20
1632.0662999999997
 30
0.0
 10
-48.587099999999964
 20
1632.0662999999997
 30
0.0
 10
-48.587099999999964
 20
1632.0662999999997
 30
0.0
 10
-48.587099999999964
 20
1632.0662999999997
 30
0.0
 10
-49.57090000000005
 20
1632.9276999999997
 30
0.0
 10
-49.57090000000005
 20
1632.9276999999997
 30
0.0
 10
-49.57090000000005
 20
1632.9276999999997
 30
0.0
 10
-49.57090000000005
 20
1632.9276999999997
 30
0.0
 10
-50.43439999999998
 20
1633.9114999999997
 30
0.0
 10
-50.43439999999998
 20
1633.9114999999997
 30
0.0
 10
-50.43439999999998
 20
1633.9114999999997
 30
0.0
 10
-50.43439999999998
 20
1633.9114999999997
 30
0.0
 10
-51.15999999999997
 20
1634.9980999999998
 30
0.0
 10
-51.15999999999997
 20
1634.9980999999998
 30
0.0
 10
-51.15999999999997
 20
1634.9980999999998
 30
0.0
 10
-51.15999999999997
 20
1634.9980999999998
 30
0.0
 10
-51.738699999999994
 20
1636.1729999999998
 30
0.0
 10
-51.738699999999994
 20
1636.1729999999998
 30
0.0
 10
-51.738699999999994
 20
1636.1729999999998
 30
0.0
 10
-51.738699999999994
 20
1636.1729999999998
 30
0.0
 10
-52.15890000000002
 20
1637.4107
 30
0.0
 10
-52.15890000000002
 20
1637.4107
 30
0.0
 10
-52.15890000000002
 20
1637.4107
 30
0.0
 10
-52.15890000000002
 20
1637.4107
 30
0.0
 10
-52.414999999999964
 20
1638.6943999999999
 30
0.0
 10
-52.414999999999964
 20
1638.6943999999999
 30
0.0
 10
-52.414999999999964
 20
1638.6943999999999
 30
0.0
 10
-52.414999999999964
 20
1638.6943999999999
 30
0.0
 10
-52.49890000000005
 20
1639.9987999999998
 30
0.0
 10
-52.49890000000005
 20
1639.9987999999998
 30
0.0
 10
-52.49890000000005
 20
1639.9987999999998
 30
0.0
 10
-52.49890000000005
 20
1639.9987999999998
 30
0.0
 10
-52.49890000000005
 20
1899.9998999999998
 30
0.0
 10
-52.49890000000005
 20
1899.9998999999998
 30
0.0
 10
-52.49890000000005
 20
1899.9998999999998
 30
0.0
 10
-52.49890000000005
 20
1899.9998999999998
 30
0.0
 10
1002.4989
 20
1899.9998999999998
 30
0.0
 10
1002.4989
 20
1899.9998999999998
 30
0.0
 10
1002.4989
 20
1899.9998999999998
 30
0.0
 10
1002.4989
 20
1899.9998999999998
 30
0.0
 10
1002.4989
 20
1639.9987999999998
 30
0.0
 10
1002.4989
 20
1639.9987999999998
 30
0.0
 10
1002.4989
 20
1639.9987999999998
 30
0.0
 10
1002.4989
 20
1639.9987999999998
 30
0.0
 10
1002.4144
 20
1638.6943999999999
 30
0.0
 10
1002.4144
 20
1638.6943999999999
 30
0.0
 10
1002.4144
 20
1638.6943999999999
 30
0.0
 10
1002.4144
 20
1638.6943999999999
 30
0.0
 10
1002.1589
 20
1637.4107
 30
0.0
 10
1002.1589
 20
1637.4107
 30
0.0
 10
1002.1589
 20
1637.4107
 30
0.0
 10
1002.1589
 20
1637.4107
 30
0.0
 10
1001.7387
 20
1636.1729999999998
 30
0.0
 10
1001.7387
 20
1636.1729999999998
 30
0.0
 10
1001.7387
 20
1636.1729999999998
 30
0.0
 10
1001.7387
 20
1636.1729999999998
 30
0.0
 10
1001.16
 20
1634.9980999999998
 30
0.0
 10
1001.16
 20
1634.9980999999998
 30
0.0
 10
1001.16
 20
1634.9980999999998
 30
0.0
 10
1001.16
 20
1634.9980999999998
 30
0.0
 10
1000.4339
 20
1633.9114999999997
 30
0.0
 10
1000.4339
 20
1633.9114999999997
 30
0.0
 10
1000.4339
 20
1633.9114999999997
 30
0.0
 10
1000.4339
 20
1633.9114999999997
 30
0.0
 10
999.5709
 20
1632.9276999999997
 30
0.0
 10
999.5709
 20
1632.9276999999997
 30
0.0
 10
999.5709
 20
1632.9276999999997
 30
0.0
 10
999.5709
 20
1632.9276999999997
 30
0.0
 10
998.5871
 20
1632.0662999999997
 30
0.0
 10
998.5871
 20
1632.0662999999997
 30
0.0
 10
998.5871
 20
1632.0662999999997
 30
0.0
 10
998.5871
 20
1632.0662999999997
 30
0.0
 10
997.4999
 20
1631.3385999999998
 30
0.0
 10
997.4999
 20
1631.3385999999998
 30
0.0
 10
997.4999
 20
1631.3385999999998
 30
0.0
 10
997.4999
 20
1631.3385999999998
 30
0.0
 10
996.3255
 20
1630.7597999999998
 30
0.0
 10
996.3255
 20
1630.7597999999998
 30
0.0
 10
996.3255
 20
1630.7597999999998
 30
0.0
 10
996.3255
 20
1630.7597999999998
 30
0.0
 10
995.0878
 20
1630.3395999999998
 30
0.0
 10
995.0878
 20
1630.3395999999998
 30
0.0
 10
995.0878
 20
1630.3395999999998
 30
0.0
 10
995.0878
 20
1630.3395999999998
 30
0.0
 10
993.8041
 20
1630.0856999999999
 30
0.0
 10
993.8041
 20
1630.0856999999999
 30
0.0
 10
993.8041
 20
1630.0856999999999
 30
0.0
 10
993.8041
 20
1630.0856999999999
 30
0.0
 10
992.4998
 20
1629.9995999999999
 30
0.0
 10
992.4998
 20
1629.9995999999999
 30
0.0
 10
992.4998
 20
1629.9995999999999
 30
0.0
 10
992.4998
 20
1629.9995999999999
 30
0.0
 10
952.3999
 20
1629.9995999999999
 30
0.0
 10
952.3999
 20
1629.9995999999999
 30
0.0
 10
952.3999
 20
1629.9995999999999
 30
0.0
 10
952.3999
 20
1629.9995999999999
 30
0.0
 10
949.7988
 20
1629.8160999999998
 30
0.0
 10
949.7988
 20
1629.8160999999998
 30
0.0
 10
949.7988
 20
1629.8160999999998
 30
0.0
 10
949.7988
 20
1629.8160999999998
 30
0.0
 10
947.2427
 20
1629.2967999999998
 30
0.0
 10
947.2427
 20
1629.2967999999998
 30
0.0
 10
947.2427
 20
1629.2967999999998
 30
0.0
 10
947.2427
 20
1629.2967999999998
 30
0.0
 10
944.7771
 20
1628.4489999999998
 30
0.0
 10
944.7771
 20
1628.4489999999998
 30
0.0
 10
944.7771
 20
1628.4489999999998
 30
0.0
 10
944.7771
 20
1628.4489999999998
 30
0.0
 10
942.4413
 20
1627.2853999999998
 30
0.0
 10
942.4413
 20
1627.2853999999998
 30
0.0
 10
942.4413
 20
1627.2853999999998
 30
0.0
 10
942.4413
 20
1627.2853999999998
 30
0.0
 10
940.2789
 20
1625.8300999999997
 30
0.0
 10
940.2789
 20
1625.8300999999997
 30
0.0
 10
940.2789
 20
1625.8300999999997
 30
0.0
 10
940.2789
 20
1625.8300999999997
 30
0.0
 10
938.3211
 20
1624.1050999999998
 30
0.0
 10
938.3211
 20
1624.1050999999998
 30
0.0
 10
938.3211
 20
1624.1050999999998
 30
0.0
 10
938.3211
 20
1624.1050999999998
 30
0.0
 10
936.608
 20
1622.1418999999999
 30
0.0
 10
936.608
 20
1622.1418999999999
 30
0.0
 10
936.608
 20
1622.1418999999999
 30
0.0
 10
936.608
 20
1622.1418999999999
 30
0.0
 10
935.1618000000001
 20
1619.9701999999997
 30
0.0
 10
935.1618000000001
 20
1619.9701999999997
 30
0.0
 10
935.1618000000001
 20
1619.9701999999997
 30
0.0
 10
935.1618000000001
 20
1619.9701999999997
 30
0.0
 10
934.0124000000001
 20
1617.6300999999999
 30
0.0
 10
934.0124000000001
 20
1617.6300999999999
 30
0.0
 10
934.0124000000001
 20
1617.6300999999999
 30
0.0
 10
934.0124000000001
 20
1617.6300999999999
 30
0.0
 10
933.1775
 20
1615.1584999999998
 30
0.0
 10
933.1775
 20
1615.1584999999998
 30
0.0
 10
933.1775
 20
1615.1584999999998
 30
0.0
 10
933.1775
 20
1615.1584999999998
 30
0.0
 10
932.6696
 20
1612.6012999999998
 30
0.0
 10
932.6696
 20
1612.6012999999998
 30
0.0
 10
932.6696
 20
1612.6012999999998
 30
0.0
 10
932.6696
 20
1612.6012999999998
 30
0.0
 10
932.4996
 20
1609.9996999999998
 30
0.0
 10
932.4996
 20
1609.9996999999998
 30
0.0
 10
932.4996
 20
1609.9996999999998
 30
0.0
 10
932.4996
 20
1609.9996999999998
 30
0.0
 10
932.4996
 20
194.99869999999987
 30
0.0
 10
932.4996
 20
194.99869999999987
 30
0.0
 10
932.4996
 20
194.99869999999987
 30
0.0
 10
932.4996
 20
194.99869999999987
 30
0.0
 10
932.6712
 20
192.38949999999977
 30
0.0
 10
932.6712
 20
192.38949999999977
 30
0.0
 10
932.6712
 20
192.38949999999977
 30
0.0
 10
932.6712
 20
192.38949999999977
 30
0.0
 10
933.1813
 20
189.8241999999998
 30
0.0
 10
933.1813
 20
189.8241999999998
 30
0.0
 10
933.1813
 20
189.8241999999998
 30
0.0
 10
933.1813
 20
189.8241999999998
 30
0.0
 10
934.0216
 20
187.3471999999997
 30
0.0
 10
934.0216
 20
187.3471999999997
 30
0.0
 10
934.0216
 20
187.3471999999997
 30
0.0
 10
934.0216
 20
187.3471999999997
 30
0.0
 10
935.1791000000001
 20
184.99959999999987
 30
0.0
 10
935.1791000000001
 20
184.99959999999987
 30
0.0
 10
935.1791000000001
 20
184.99959999999987
 30
0.0
 10
935.1791000000001
 20
184.99959999999987
 30
0.0
 10
936.6329000000001
 20
182.82409999999982
 30
0.0
 10
936.6329000000001
 20
182.82409999999982
 30
0.0
 10
936.6329000000001
 20
182.82409999999982
 30
0.0
 10
936.6329000000001
 20
182.82409999999982
 30
0.0
 10
938.3573
 20
180.85869999999977
 30
0.0
 10
938.3573
 20
180.85869999999977
 30
0.0
 10
938.3573
 20
180.85869999999977
 30
0.0
 10
938.3573
 20
180.85869999999977
 30
0.0
 10
940.3249000000001
 20
179.1320999999998
 30
0.0
 10
940.3249000000001
 20
179.1320999999998
 30
0.0
 10
940.3249000000001
 20
179.1320999999998
 30
0.0
 10
940.3249000000001
 20
179.1320999999998
 30
0.0
 10
942.4982
 20
177.6782999999998
 30
0.0
 10
942.4982
 20
177.6782999999998
 30
0.0
 10
942.4982
 20
177.6782999999998
 30
0.0
 10
942.4982
 20
177.6782999999998
 30
0.0
 10
944.8458
 20
176.5228999999997
 30
0.0
 10
944.8458
 20
176.5228999999997
 30
0.0
 10
944.8458
 20
176.5228999999997
 30
0.0
 10
944.8458
 20
176.5228999999997
 30
0.0
 10
947.3234
 20
175.6804999999997
 30
0.0
 10
947.3234
 20
175.6804999999997
 30
0.0
 10
947.3234
 20
175.6804999999997
 30
0.0
 10
947.3234
 20
175.6804999999997
 30
0.0
 10
949.8882
 20
175.17039999999974
 30
0.0
 10
949.8882
 20
175.17039999999974
 30
0.0
 10
949.8882
 20
175.17039999999974
 30
0.0
 10
949.8882
 20
175.17039999999974
 30
0.0
 10
952.4995
 20
175.0003999999999
 30
0.0
 10
952.4995
 20
175.0003999999999
 30
0.0
 10
952.4995
 20
175.0003999999999
 30
0.0
 10
952.4995
 20
175.0003999999999
 30
0.0
 10
992.4998
 20
175.0003999999999
 30
0.0
 10
992.4998
 20
175.0003999999999
 30
0.0
 10
992.4998
 20
175.0003999999999
 30
0.0
 10
992.4998
 20
175.0003999999999
 30
0.0
 10
993.8041
 20
174.91429999999968
 30
0.0
 10
993.8041
 20
174.91429999999968
 30
0.0
 10
993.8041
 20
174.91429999999968
 30
0.0
 10
993.8041
 20
174.91429999999968
 30
0.0
 10
995.0878
 20
174.6587999999997
 30
0.0
 10
995.0878
 20
174.6587999999997
 30
0.0
 10
995.0878
 20
174.6587999999997
 30
0.0
 10
995.0878
 20
174.6587999999997
 30
0.0
 10
996.3255
 20
174.2380999999998
 30
0.0
 10
996.3255
 20
174.2380999999998
 30
0.0
 10
996.3255
 20
174.2380999999998
 30
0.0
 10
996.3255
 20
174.2380999999998
 30
0.0
 10
997.4999
 20
173.65989999999988
 30
0.0
 10
997.4999
 20
173.65989999999988
 30
0.0
  0
SPLINE
  5
46
330
17
100
AcDbEntity
  8
layer 1
 62
242
370
9
100
AcDbSpline
 70
11
 71
3
 72
20
 73
16
 74
0
 42
1e-09
 40
0.0
 40
0.0
 40
0.0
 40
0.0
 40
0.2
 40
0.2
 40
0.2
 40
0.2
 40
0.4
 40
0.4
 40
0.4
 40
0.4
 40
0.6
 40
0.6
 40
0.6
 40
0.6
 40
1.0
 40
1.0
 40
1.0
 40
1.0
 10
920.0003
 20
0.0006000000000767614
 30
0.0
 10
920.0003
 20
0.0006000000000767614
 30
0.0
 10
920.0003
 20
999.9994
 30
0.0
 10
920.0003
 20
999.9994
 30
0.0
 10
920.0003
 20
999.9994
 30
0.0
 10
920.0003
 20
999.9994
 30
0.0
 10
1219.9997
 20
999.9994
 30
0.0
 10
1219.9997
 20
999.9994
 30
0.0
 10
1219.9997
 20
999.9994
 30
0.0
 10
1219.9997
 20
999.9994
 30
0.0
 10
1219.9997
 20
0.0006000000000767614
 30
0.0
 10
1219.9997
 20
0.0006000000000767614
 30
0.0
 10
1219.9997
 20
0.0006000000000767614
 30
0.0
 10
1219.9997
 20
0.0006000000000767614
 30
0.0
 10
920.0003
 20
0.0006000000000767614
 30
0.0
 10
920.0003
 20
0.0006000000000767614
 30
0.0
  0
SPLINE
  5
47
330
17
100
AcDbEntity
  8
layer 1
 62
250
370
9
100
AcDbSpline
 70
8
 71
3
 72
32
 73
28
 74
0
 42
1e-09
 40
0.0
 40
0.0
 40
0.0
 40
0.0
 40
0.125
 40
0.125
 40
0.125
 40
0.125
 40
0.25
 40
0.25
 40
0.25
 40
0.25
 40
0.375
 40
0.375
 40
0.375
 40
0.375
 40
0.5
 40
0.5
 40
0.5
 40
0.5
 40
0.625
 40
0.625
 40
0.625
 40
0.625
 40
0.75
 40
0.75
 40
0.75
 40
0.75
 40
1.0
 40
1.0
 40
1.0
 40
1.0
 10
1323.2403
 20
1213.1114504605282
 30
0.0
 10
1323.2403
 20
1213.1114504605282
 30
0.0
 10
1298.2867999999999
 20
1213.1114504605282
 30
0.0
 10
1298.2867999999999
 20
1213.1114504605282
 30
0.0
 10
1298.2867999999999
 20
1213.1114504605282
 30
0.0
 10
1298.2867999999999
 20
1216.7062504605283
 30
0.0
 10
1298.2867999999999
 20
1220.3017504605282
 30
0.0
 10
1298.2867999999999
 20
1223.8969504605282
 30
0.0
 10
1298.2867999999999
 20
1223.8969504605282
 30
0.0
 10
1298.3245
 20
1226.2222504605284
 30
0.0
 10
1299.8145
 20
1227.7795504605283
 30
0.0
 10
1302.1809
 20
1227.7754504605282
 30
0.0
 10
1302.1809
 20
1227.7754504605282
 30
0.0
 10
1304.2164
 20
1227.7750504605283
 30
0.0
 10
1307.2758
 20
1227.7750504605283
 30
0.0
 10
1309.3118
 20
1227.7754504605282
 30
0.0
 10
1309.3118
 20
1227.7754504605282
 30
0.0
 10
1311.1873
 20
1227.7689504605282
 30
0.0
 10
1313.1290999999999
 20
1225.9566504605282
 30
0.0
 10
1313.1481999999999
 20
1223.947150460528
 30
0.0
 10
1313.1481999999999
 20
1223.947150460528
 30
0.0
 10
1313.1481999999999
 20
1223.947150460528
 30
0.0
 10
1313.1481999999999
 20
1213.1114504605282
 30
0.0
 10
1313.1481999999999
 20
1213.1114504605282
 30
0.0
 10
1313.1481999999999
 20
1213.1114504605282
 30
0.0
 10
1313.1481999999999
 20
1213.1114504605282
 30
0.0
 10
1323.2403
 20
1227.766150460528
 30
0.0
 10
1323.2403
 20
1227.766150460528
 30
0.0
  0
SPLINE
  5
48
330
17
100
AcDbEntity
  8
layer 1
 62
250
370
9
100
AcDbSpline
 70
8
 71
3
 72
20
 73
16
 74
0
 42
1e-09
 40
0.0
 40
0.0
 40
0.0
 40
0.0
 40
0.2
 40
0.2
 40
0.2
 40
0.2
 40
0.4
 40
0.4
 40
0.4
 40
0.4
 40
0.6
 40
0.6
 40
0.6
 40
0.6
 40
1.0
 40
1.0
 40
1.0
 40
1.0
 10
1323.2425
 20
1171.600950460528
 30
0.0
 10
1323.2425
 20
1171.600950460528
 30
0.0
 10
1298.2846
 20
1171.600950460528
 30
0.0
 10
1298.2846
 20
1171.600950460528
 30
0.0
 10
1298.2846
 20
1171.600950460528
 30
0.0
 10
1298.2846
 20
1171.600950460528
 30
0.0
 10
1323.2425
 20
1180.526050460528
 30
0.0
 10
1323.2425
 20
1180.526050460528
 30
0.0
 10
1323.2425
 20
1180.526050460528
 30
0.0
 10
1323.2425
 20
1180.526050460528
 30
0.0
 10
1298.2851
 20
1189.285950460528
 30
0.0
 10
1298.2851
 20
1189.285950460528
 30
0.0
 10
1298.2851
 20
1189.285950460528
 30
0.0
 10
1298.2851
 20
1189.285950460528
 30
0.0
 10
1323.2425
 20
1189.285950460528
 30
0.0
 10
1323.2425
 20
1189.285950460528
 30
0.0
  0
SPLINE
  5
49
330
17
100
AcDbEntity
  8
layer 1
 62
250
370
9
100
AcDbSpline
 70
11
 71
3
 72
28
 73
24
 74
0
 42
1e-09
 40
0.0
 40
0.0
 40
0.0
 40
0.0
 40
0.1428571428571428
 40
0.1428571428571428
 40
0.1428571428571428
 40
0.1428571428571428
 40
0.2857142857142857
 40
0.2857142857142857
 40
0.2857142857142857
 40
0.2857142857142857
 40
0.4285714285714285
 40
0.4285714285714285
 40
0.4285714285714285
 40
0.4285714285714285
 40
0.5714285714285714
 40
0.5714285714285714
 40
0.5714285714285714
 40
0.5714285714285714
 40
0.7142857142857143
 40
0.7142857142857143
 40
0.7142857142857143
 40
0.7142857142857143
 40
1.0
 40
1.0
 40
1.0
 40
1.0
 10
1323.2122
 20
1153.0511504605283
 30
0.0
 10
1323.2118
 20
1155.3829504605283
 30
0.0
 10
1323.2358
 20
1160.333150460528
 30
0.0
 10
1323.2360999999999
 20
1162.6646504605283
 30
0.0
 10
1323.2360999999999
 20
1162.6646504605283
 30
0.0
 10
1323.3415
 20
1164.5896504605282
 30
0.0
 10
1319.7999
 20
1167.908250460528
 30
0.0
 10
1317.7826
 20
1167.8970504605281
 30
0.0
 10
1317.7826
 20
1167.8970504605281
 30
0.0
 10
1312.0125
 20
1167.8966504605282
 30
0.0
 10
1309.8428
 20
1167.8966504605282
 30
0.0
 10
1304.0735
 20
1167.8970504605281
 30
0.0
 10
1304.0735
 20
1167.8970504605281
 30
0.0
 10
1301.9353999999998
 20
1167.892750460528
 30
0.0
 10
1298.2753
 20
1164.5182504605282
 30
0.0
 10
1298.2888
 20
1162.3658504605282
 30
0.0
 10
1298.2888
 20
1162.3658504605282
 30
0.0
 10
1298.2888
 20
1160.0401504605284
 30
0.0
 10
1298.2888
 20
1155.315850460528
 30
0.0
 10
1298.2888
 20
1152.9897504605283
 30
0.0
 10
1298.2888
 20
1152.9897504605283
 30
0.0
 10
1304.0357
 20
1152.9901504605282
 30
0.0
 10
1317.4649
 20
1153.051450460528
 30
0.0
 10
1323.2122
 20
1153.0511504605283
 30
0.0
  0
SPLINE
  5
4A
330
17
100
AcDbEntity
  8
layer 1
 62
250
370
9
100
AcDbSpline
 70
24
 71
3
 72
8
 73
4
 74
0
 42
1e-09
 40
0.0
 40
0.0
 40
0.0
 40
0.0
 40
1.0
 40
1.0
 40
1.0
 40
1.0
 10
1298.2867999999999
 20
1196.8593504605283
 30
0.0
 10
1298.2867999999999
 20
1196.8593504605283
 30
0.0
 10
1298.2867999999999
 20
1204.0274504605281
 30
0.0
 10
1298.2867999999999
 20
1204.0274504605281
 30
0.0
  0
SPLINE
  5
4B
330
17
100
AcDbEntity
  8
layer 1
 62
250
370
9
100
AcDbSpline
 70
24
 71
3
 72
8
 73
4
 74
0
 42
1e-09
 40
0.0
 40
0.0
 40
0.0
 40
0.0
 40
1.0
 40
1.0
 40
1.0
 40
1.0
 10
1323.2403
 20
1196.8593504605283
 30
0.0
 10
1323.2403
 20
1196.8593504605283
 30
0.0
 10
1323.2403
 20
1204.0274504605281
 30
0.0
 10
1323.2403
 20
1204.0274504605281
 30
0.0
  0
SPLINE
  5
4C
330
17
100
AcDbEntity
  8
layer 1
 62
250
370
9
100
AcDbSpline
 70
24
 71
3
 72
8
 73
4
 74
0
 42
1e-09
 40
0.0
 40
0.0
 40
0.0
 40
0.0
 40
1.0
 40
1.0
 40
1.0
 40
1.0
 10
1298.2867999999999
 20
1200.443350460528
 30
0.0
 10
1298.2867999999999
 20
1200.443350460528
 30
0.0
 10
1323.2403
 20
1200.443350460528
 30
0.0
 10
1323.2403
 20
1200.443350460528
 30
0.0
  0
SPLINE
  5
4D
330
17
100
AcDbEntity
  8
layer 1
 62
250
370
9
100
AcDbSpline
 70
8
 71
3
 72
12
 73
8
 74
0
 42
1e-09
 40
0.0
 40
0.0
 40
0.0
 40
0.0
 40
0.3333333333333333
 40
0.3333333333333333
 40
0.3333333333333333
 40
0.3333333333333333
 40
1.0
 40
1.0
 40
1.0
 40
1.0
 10
1323.2403
 20
1132.9729504605282
 30
0.0
 10
1323.2403
 20
1132.9729504605282
 30
0.0
 10
1298.2867999999999
 20
1140.343950460528
 30
0.0
 10
1298.2867999999999
 20
1140.343950460528
 30
0.0
 10
1298.2867999999999
 20
1140.343950460528
 30
0.0
 10
1298.2867999999999
 20
1140.343950460528
 30
0.0
 10
1323.2403
 20
1147.913850460528
 30
0.0
 10
1323.2403
 20
1147.913850460528
 30
0.0
  0
SPLINE
  5
4E
330
17
100
AcDbEntity
  8
layer 1
 62
250
370
9
100
AcDbSpline
 70
24
 71
3
 72
8
 73
4
 74
0
 42
1e-09
 40
0.0
 40
0.0
 40
0.0
 40
0.0
 40
1.0
 40
1.0
 40
1.0
 40
1.0
 10
1313.9909
 20
1135.695550460528
 30
0.0
 10
1313.9909
 20
1135.695550460528
 30
0.0
 10
1313.9909
 20
1145.1912504605282
 30
0.0
 10
1313.9909
 20
1145.1912504605282
 30
0.0
  0
SPLINE
  5
4F
330
17
100
AcDbEntity
  8
layer 1
 62
250
370
9
100
AcDbSpline
 70
8
 71
3
 72
12
 73
8
 74
0
 42
1e-09
 40
0.0
 40
0.0
 40
0.0
 40
0.0
 40
0.3333333333333333
 40
0.3333333333333333
 40
0.3333333333333333
 40
0.3333333333333333
 40
1.0
 40
1.0
 40
1.0
 40
1.0
 10
1323.2404
 20
1266.9179504605281
 30
0.0
 10
1323.2404
 20
1266.9179504605281
 30
0.0
 10
1323.2404
 20
1253.9688504605283
 30
0.0
 10
1323.2404
 20
1253.9688504605283
 30
0.0
 10
1323.2404
 20
1253.9688504605283
 30
0.0
 10
1323.2404
 20
1253.9688504605283
 30
0.0
 10
1298.2867999999999
 20
1253.9688504605283
 30
0.0
 10
1298.2867999999999
 20
1253.9688504605283
 30
0.0
  0
SPLINE
  5
50
330
17
100
AcDbEntity
  8
layer 1
 62
250
370
9
100
AcDbSpline
 70
8
 71
3
 72
12
 73
8
 74
0
 42
1e-09
 40
0.0
 40
0.0
 40
0.0
 40
0.0
 40
0.3333333333333333
 40
0.3333333333333333
 40
0.3333333333333333
 40
0.3333333333333333
 40
1.0
 40
1.0
 40
1.0
 40
1.0
 10
1323.2403
 20
1232.9729504605282
 30
0.0
 10
1323.2403
 20
1232.9729504605282
 30
0.0
 10
1298.2867999999999
 20
1240.343950460528
 30
0.0
 10
1298.2867999999999
 20
1240.343950460528
 30
0.0
 10
1298.2867999999999
 20
1240.343950460528
 30
0.0
 10
1298.2867999999999
 20
1240.343950460528
 30
0.0
 10
1323.2403
 20
1247.913850460528
 30
0.0
 10
1323.2403
 20
1247.913850460528
 30
0.0
  0
SPLINE
  5
51
330
17
100
AcDbEntity
  8
layer 1
 62
250
370
9
100
AcDbSpline
 70
24
 71
3
 72
8
 73
4
 74
0
 42
1e-09
 40
0.0
 40
0.0
 40
0.0
 40
0.0
 40
1.0
 40
1.0
 40
1.0
 40
1.0
 10
1313.9909
 20
1235.6955504605282
 30
0.0
 10
1313.9909
 20
1235.6955504605282
 30
0.0
 10
1313.9909
 20
1245.1912504605282
 30
0.0
 10
1313.9909
 20
1245.1912504605282
 30
0.0
  0
SPLINE
  5
52
330
17
100
AcDbEntity
  8
layer 1
 62
250
370
9
100
AcDbSpline
 70
8
 71
3
 72
52
 73
48
 74
0
 42
1e-09
 40
0.0
 40
0.0
 40
0.0
 40
0.0
 40
0.0769230769230769
 40
0.0769230769230769
 40
0.0769230769230769
 40
0.0769230769230769
 40
0.1538461538461539
 40
0.1538461538461539
 40
0.1538461538461539
 40
0.1538461538461539
 40
0.2307692307692308
 40
0.2307692307692308
 40
0.2307692307692308
 40
0.2307692307692308
 40
0.3076923076923077
 40
0.3076923076923077
 40
0.3076923076923077
 40
0.3076923076923077
 40
0.3846153846153846
 40
0.3846153846153846
 40
0.3846153846153846
 40
0.3846153846153846
 40
0.4615384615384616
 40
0.4615384615384616
 40
0.4615384615384616
 40
0.4615384615384616
 40
0.5384615384615384
 40
0.5384615384615384
 40
0.5384615384615384
 40
0.5384615384615384
 40
0.6153846153846154
 40
0.6153846153846154
 40
0.6153846153846154
 40
0.6153846153846154
 40
0.6923076923076923
 40
0.6923076923076923
 40
0.6923076923076923
 40
0.6923076923076923
 40
0.7692307692307693
 40
0.7692307692307693
 40
0.7692307692307693
 40
0.7692307692307693
 40
0.8461538461538461
 40
0.8461538461538461
 40
0.8461538461538461
 40
0.8461538461538461
 40
1.0
 40
1.0
 40
1.0
 40
1.0
 10
1304.7055
 20
1278.8818504605283
 30
0.0
 10
1304.7055
 20
1278.8818504605283
 30
0.0
 10
1302.8482999999999
 20
1278.8818504605283
 30
0.0
 10
1302.8482999999999
 20
1278.8818504605283
 30
0.0
 10
1302.8482999999999
 20
1278.8818504605283
 30
0.0
 10
1301.1064
 20
1278.867550460528
 30
0.0
 10
1298.9883
 20
1281.5320504605284
 30
0.0
 10
1299.011
 20
1283.5911504605283
 30
0.0
 10
1299.011
 20
1283.5911504605283
 30
0.0
 10
1299.011
 20
1285.6552504605284
 30
0.0
 10
1299.011
 20
1287.7192504605282
 30
0.0
 10
1299.011
 20
1289.7829504605284
 30
0.0
 10
1299.011
 20
1289.7829504605284
 30
0.0
 10
1299.0022
 20
1291.9774504605284
 30
0.0
 10
1300.849
 20
1293.575750460528
 30
0.0
 10
1302.7611
 20
1293.6201504605283
 30
0.0
 10
1302.7611
 20
1293.6201504605283
 30
0.0
 10
1304.1961999999999
 20
1293.6197504605284
 30
0.0
 10
1305.6313
 20
1293.6197504605284
 30
0.0
 10
1307.0668
 20
1293.6201504605283
 30
0.0
 10
1307.0668
 20
1293.6201504605283
 30
0.0
 10
1308.7203
 20
1293.5715504605282
 30
0.0
 10
1310.9503
 20
1291.968950460528
 30
0.0
 10
1310.9403
 20
1289.770650460528
 30
0.0
 10
1310.9403
 20
1289.770650460528
 30
0.0
 10
1310.9515
 20
1291.974350460528
 30
0.0
 10
1312.7547
 20
1293.5823504605282
 30
0.0
 10
1314.8142
 20
1293.6363504605283
 30
0.0
 10
1314.8142
 20
1293.6363504605283
 30
0.0
 10
1316.5989
 20
1293.6359504605284
 30
0.0
 10
1318.3836
 20
1293.6359504605284
 30
0.0
 10
1320.1687
 20
1293.6363504605283
 30
0.0
 10
1320.1687
 20
1293.6363504605283
 30
0.0
 10
1322.2301
 20
1293.6464504605283
 30
0.0
 10
1323.9932
 20
1291.5915504605282
 30
0.0
 10
1323.9850999999999
 20
1289.770650460528
 30
0.0
 10
1323.9850999999999
 20
1289.770650460528
 30
0.0
 10
1323.9848
 20
1287.7053504605283
 30
0.0
 10
1323.9848
 20
1285.6401504605283
 30
0.0
 10
1323.9850999999999
 20
1283.5745504605284
 30
0.0
 10
1323.9850999999999
 20
1283.5745504605284
 30
0.0
 10
1323.9736
 20
1281.4059504605284
 30
0.0
 10
1321.5734
 20
1278.874950460528
 30
0.0
 10
1320.1116
 20
1278.8563504605281
 30
0.0
 10
1320.1116
 20
1278.8563504605281
 30
0.0
 10
1320.1116
 20
1278.8563504605281
 30
0.0
 10
1318.203
 20
1278.8563504605281
 30
0.0
 10
1318.203
 20
1278.8563504605281
 30
0.0
  0
SPLINE
  5
53
330
17
100
AcDbEntity
  8
layer 1
 62
250
370
9
100
AcDbSpline
 70
24
 71
3
 72
8
 73
4
 74
0
 42
1e-09
 40
0.0
 40
0.0
 40
0.0
 40
0.0
 40
1.0
 40
1.0
 40
1.0
 40
1.0
 10
1310.9506999999999
 20
1283.5915504605282
 30
0.0
 10
1310.9506999999999
 20
1283.5915504605282
 30
0.0
 10
1310.9506999999999
 20
1289.787950460528
 30
0.0
 10
1310.9506999999999
 20
1289.787950460528
 30
0.0
  0
SPLINE
  5
54
330
17
100
AcDbEntity
  8
layer 1
 62
250
370
9
100
AcDbSpline
 70
8
 71
3
 72
40
 73
36
 74
0
 42
1e-09
 40
0.0
 40
0.0
 40
0.0
 40
0.0
 40
0.1
 40
0.1
 40
0.1
 40
0.1
 40
0.2
 40
0.2
 40
0.2
 40
0.2
 40
0.3
 40
0.3
 40
0.3
 40
0.3
 40
0.4
 40
0.4
 40
0.4
 40
0.4
 40
0.5
 40
0.5
 40
0.5
 40
0.5
 40
0.6
 40
0.6
 40
0.6
 40
0.6
 40
0.7
 40
0.7
 40
0.7
 40
0.7
 40
0.8
 40
0.8
 40
0.8
 40
0.8
 40
1.0
 40
1.0
 40
1.0
 40
1.0
 10
1299.0791
 20
1331.2684504605281
 30
0.0
 10
1299.0791
 20
1331.2684504605281
 30
0.0
 10
1299.0791
 20
1318.4167504605284
 30
0.0
 10
1299.0791
 20
1318.4167504605284
 30
0.0
 10
1299.0791
 20
1318.4167504605284
 30
0.0
 10
1303.3097
 20
1318.4170504605281
 30
0.0
 10
1307.5406
 20
1318.4170504605281
 30
0.0
 10
1311.7718
 20
1318.4167504605284
 30
0.0
 10
1311.7718
 20
1318.4167504605284
 30
0.0
 10
1308.4617
 20
1318.4164504605283
 30
0.0
 10
1307.3899
 20
1320.0474504605281
 30
0.0
 10
1307.3293999999999
 20
1322.859450460528
 30
0.0
 10
1307.3293999999999
 20
1322.859450460528
 30
0.0
 10
1307.3291
 20
1325.2990504605282
 30
0.0
 10
1307.3291
 20
1327.7385504605281
 30
0.0
 10
1307.3293999999999
 20
1330.1777504605284
 30
0.0
 10
1307.3293999999999
 20
1330.1777504605284
 30
0.0
 10
1307.3226
 20
1331.827550460528
 30
0.0
 10
1309.7031
 20
1333.3024504605282
 30
0.0
 10
1311.7718
 20
1333.3309504605281
 30
0.0
 10
1311.7718
 20
1333.3309504605281
 30
0.0
 10
1314.3591
 20
1333.330650460528
 30
0.0
 10
1316.9467
 20
1333.330650460528
 30
0.0
 10
1319.5344
 20
1333.3309504605281
 30
0.0
 10
1319.5344
 20
1333.3309504605281
 30
0.0
 10
1321.4938
 20
1333.3771504605284
 30
0.0
 10
1323.9301
 20
1331.8777504605282
 30
0.0
 10
1323.9886
 20
1330.2518504605282
 30
0.0
 10
1323.9886
 20
1330.2518504605282
 30
0.0
 10
1323.9883
 20
1328.295350460528
 30
0.0
 10
1323.9883
 20
1323.400350460528
 30
0.0
 10
1323.9886
 20
1321.443350460528
 30
0.0
 10
1323.9886
 20
1321.443350460528
 30
0.0
 10
1323.9974
 20
1319.5978504605282
 30
0.0
 10
1322.0326
 20
1318.490750460528
 30
0.0
 10
1319.4814999999999
 20
1318.4699504605283
 30
0.0
  0
SPLINE
  5
55
330
17
100
AcDbEntity
  8
layer 1
 62
250
370
9
100
AcDbSpline
 70
8
 71
3
 72
52
 73
48
 74
0
 42
1e-09
 40
0.0
 40
0.0
 40
0.0
 40
0.0
 40
0.0769230769230769
 40
0.0769230769230769
 40
0.0769230769230769
 40
0.0769230769230769
 40
0.1538461538461539
 40
0.1538461538461539
 40
0.1538461538461539
 40
0.1538461538461539
 40
0.2307692307692308
 40
0.2307692307692308
 40
0.2307692307692308
 40
0.2307692307692308
 40
0.3076923076923077
 40
0.3076923076923077
 40
0.3076923076923077
 40
0.3076923076923077
 40
0.3846153846153846
 40
0.3846153846153846
 40
0.3846153846153846
 40
0.3846153846153846
 40
0.4615384615384616
 40
0.4615384615384616
 40
0.4615384615384616
 40
0.4615384615384616
 40
0.5384615384615384
 40
0.5384615384615384
 40
0.5384615384615384
 40
0.5384615384615384
 40
0.6153846153846154
 40
0.6153846153846154
 40
0.6153846153846154
 40
0.6153846153846154
 40
0.6923076923076923
 40
0.6923076923076923
 40
0.6923076923076923
 40
0.6923076923076923
 40
0.7692307692307693
 40
0.7692307692307693
 40
0.7692307692307693
 40
0.7692307692307693
 40
0.8461538461538461
 40
0.8461538461538461
 40
0.8461538461538461
 40
0.8461538461538461
 40
1.0
 40
1.0
 40
1.0
 40
1.0
 10
1304.7055
 20
1298.8818504605283
 30
0.0
 10
1304.7055
 20
1298.8818504605283
 30
0.0
 10
1302.8482999999999
 20
1298.8818504605283
 30
0.0
 10
1302.8482999999999
 20
1298.8818504605283
 30
0.0
 10
1302.8482999999999
 20
1298.8818504605283
 30
0.0
 10
1301.1064
 20
1298.867550460528
 30
0.0
 10
1298.9883
 20
1301.5320504605284
 30
0.0
 10
1299.011
 20
1303.5911504605283
 30
0.0
 10
1299.011
 20
1303.5911504605283
 30
0.0
 10
1299.011
 20
1305.6552504605284
 30
0.0
 10
1299.011
 20
1307.7192504605282
 30
0.0
 10
1299.011
 20
1309.7829504605284
 30
0.0
 10
1299.011
 20
1309.7829504605284
 30
0.0
 10
1299.0022
 20
1311.9774504605284
 30
0.0
 10
1300.849
 20
1313.575750460528
 30
0.0
 10
1302.7611
 20
1313.6201504605283
 30
0.0
 10
1302.7611
 20
1313.6201504605283
 30
0.0
 10
1304.1961999999999
 20
1313.6197504605284
 30
0.0
 10
1305.6313
 20
1313.6197504605284
 30
0.0
 10
1307.0668
 20
1313.6201504605283
 30
0.0
 10
1307.0668
 20
1313.6201504605283
 30
0.0
 10
1308.7203
 20
1313.5715504605282
 30
0.0
 10
1310.9503
 20
1311.968950460528
 30
0.0
 10
1310.9403
 20
1309.770650460528
 30
0.0
 10
1310.9403
 20
1309.770650460528
 30
0.0
 10
1310.9515
 20
1311.974350460528
 30
0.0
 10
1312.7547
 20
1313.5823504605282
 30
0.0
 10
1314.8142
 20
1313.6363504605283
 30
0.0
 10
1314.8142
 20
1313.6363504605283
 30
0.0
 10
1316.5989
 20
1313.6359504605284
 30
0.0
 10
1318.3836
 20
1313.6359504605284
 30
0.0
 10
1320.1687
 20
1313.6363504605283
 30
0.0
 10
1320.1687
 20
1313.6363504605283
 30
0.0
 10
1322.2301
 20
1313.6464504605283
 30
0.0
 10
1323.9932
 20
1311.5915504605282
 30
0.0
 10
1323.9850999999999
 20
1309.770650460528
 30
0.0
 10
1323.9850999999999
 20
1309.770650460528
 30
0.0
 10
1323.9848
 20
1307.7053504605283
 30
0.0
 10
1323.9848
 20
1305.6401504605283
 30
0.0
 10
1323.9850999999999
 20
1303.5745504605284
 30
0.0
 10
1323.9850999999999
 20
1303.5745504605284
 30
0.0
 10
1323.9736
 20
1301.4059504605284
 30
0.0
 10
1321.5734
 20
1298.874950460528
 30
0.0
 10
1320.1116
 20
1298.8563504605281
 30
0.0
 10
1320.1116
 20
1298.8563504605281
 30
0.0
 10
1320.1116
 20
1298.8563504605281
 30
0.0
 10
1318.203
 20
1298.8563504605281
 30
0.0
 10
1318.203
 20
1298.8563504605281
 30
0.0
  0
SPLINE
  5
56
330
17
100
AcDbEntity
  8
layer 1
 62
250
370
9
100
AcDbSpline
 70
24
 71
3
 72
8
 73
4
 74
0
 42
1e-09
 40
0.0
 40
0.0
 40
0.0
 40
0.0
 40
1.0
 40
1.0
 40
1.0
 40
1.0
 10
1310.9506999999999
 20
1303.5915504605282
 30
0.0
 10
1310.9506999999999
 20
1303.5915504605282
 30
0.0
 10
1310.9506999999999
 20
1309.787950460528
 30
0.0
 10
1310.9506999999999
 20
1309.787950460528
 30
0.0
  0
SPLINE
  5
57
330
17
100
AcDbEntity
  8
layer 1
 62
242
370
9
100
AcDbSpline
 70
11
 71
3
 72
20
 73
16
 74
0
 42
1e-09
 40
0.0
 40
0.0
 40
0.0
 40
0.0
 40
0.2
 40
0.2
 40
0.2
 40
0.2
 40
0.4
 40
0.4
 40
0.4
 40
0.4
 40
0.6
 40
0.6
 40
0.6
 40
0.6
 40
1.0
 40
1.0
 40
1.0
 40
1.0
 10
997.5002
 20
1044.4212504605282
 30
0.0
 10
997.5002
 20
1044.4212504605282
 30
0.0
 10
997.5002
 20
1405.9409504605283
 30
0.0
 10
997.5002
 20
1405.9409504605283
 30
0.0
 10
997.5002
 20
1405.9409504605283
 30
0.0
 10
997.5002
 20
1405.9409504605283
 30
0.0
 10
1382.4998
 20
1586.1216504605281
 30
0.0
 10
1382.4998
 20
1586.1216504605281
 30
0.0
 10
1382.4998
 20
1586.1216504605281
 30
0.0
 10
1382.4998
 20
1586.1216504605281
 30
0.0
 10
1382.4998
 20
864.2418504605282
 30
0.0
 10
1382.4998
 20
864.2418504605282
 30
0.0
 10
1382.4998
 20
864.2418504605282
 30
0.0
 10
1382.4998
 20
864.2418504605282
 30
0.0
 10
997.5002
 20
1044.4212504605282
 30
0.0
 10
997.5002
 20
1044.4212504605282
 30
0.0
  0
SPLINE
  5
58
330
17
100
AcDbEntity
  8
layer 1
 62
250
370
9
100
AcDbSpline
 70
8
 71
3
 72
32
 73
28
 74
0
 42
1e-09
 40
0.0
 40
0.0
 40
0.0
 40
0.0
 40
0.125
 40
0.125
 40
0.125
 40
0.125
 40
0.25
 40
0.25
 40
0.25
 40
0.25
 40
0.375
 40
0.375
 40
0.375
 40
0.375
 40
0.5
 40
0.5
 40
0.5
 40
0.5
 40
0.625
 40
0.625
 40
0.625
 40
0.625
 40
0.75
 40
0.75
 40
0.75
 40
0.75
 40
1.0
 40
1.0
 40
1.0
 40
1.0
 10
1029.4464593386087
 20
1763.957417728505
 30
0.0
 10
1029.4464593386087
 20
1763.957417728505
 30
0.0
 10
1054.3999593386086
 20
1763.957417728505
 30
0.0
 10
1054.3999593386086
 20
1763.957417728505
 30
0.0
 10
1054.3999593386086
 20
1763.957417728505
 30
0.0
 10
1054.3999593386086
 20
1760.362617728505
 30
0.0
 10
1054.3999593386086
 20
1756.7671177285051
 30
0.0
 10
1054.3999593386086
 20
1753.1719177285052
 30
0.0
 10
1054.3999593386086
 20
1753.1719177285052
 30
0.0
 10
1054.3622593386087
 20
1750.846617728505
 30
0.0
 10
1052.8722593386087
 20
1749.289317728505
 30
0.0
 10
1050.5058593386086
 20
1749.2934177285051
 30
0.0
 10
1050.5058593386086
 20
1749.2934177285051
 30
0.0
 10
1048.4703593386087
 20
1749.293817728505
 30
0.0
 10
1045.4109593386086
 20
1749.293817728505
 30
0.0
 10
1043.3749593386087
 20
1749.2934177285051
 30
0.0
 10
1043.3749593386087
 20
1749.2934177285051
 30
0.0
 10
1041.4994593386086
 20
1749.299917728505
 30
0.0
 10
1039.5576593386086
 20
1751.1122177285051
 30
0.0
 10
1039.5385593386086
 20
1753.121717728505
 30
0.0
 10
1039.5385593386086
 20
1753.121717728505
 30
0.0
 10
1039.5385593386086
 20
1753.121717728505
 30
0.0
 10
1039.5385593386086
 20
1763.957417728505
 30
0.0
 10
1039.5385593386086
 20
1763.957417728505
 30
0.0
 10
1039.5385593386086
 20
1763.957417728505
 30
0.0
 10
1039.5385593386086
 20
1763.957417728505
 30
0.0
 10
1029.4464593386087
 20
1749.302717728505
 30
0.0
 10
1029.4464593386087
 20
1749.302717728505
 30
0.0
  0
SPLINE
  5
59
330
17
100
AcDbEntity
  8
layer 1
 62
250
370
9
100
AcDbSpline
 70
8
 71
3
 72
32
 73
28
 74
0
 42
1e-09
 40
0.0
 40
0.0
 40
0.0
 40
0.0
 40
0.125
 40
0.125
 40
0.125
 40
0.125
 40
0.25
 40
0.25
 40
0.25
 40
0.25
 40
0.375
 40
0.375
 40
0.375
 40
0.375
 40
0.5
 40
0.5
 40
0.5
 40
0.5
 40
0.625
 40
0.625
 40
0.625
 40
0.625
 40
0.75
 40
0.75
 40
0.75
 40
0.75
 40
1.0
 40
1.0
 40
1.0
 40
1.0
 10
1033.2859593386086
 20
1769.111817728505
 30
0.0
 10
1030.9625593386086
 20
1769.2516177285052
 30
0.0
 10
1029.4829593386087
 20
1770.928817728505
 30
0.0
 10
1029.4721593386087
 20
1773.076517728505
 30
0.0
 10
1029.4721593386087
 20
1773.076517728505
 30
0.0
 10
1029.4725593386086
 20
1775.4084177285051
 30
0.0
 10
1029.4725593386086
 20
1777.740317728505
 30
0.0
 10
1029.4721593386087
 20
1780.071817728505
 30
0.0
 10
1029.4721593386087
 20
1780.071817728505
 30
0.0
 10
1029.3667593386087
 20
1781.996817728505
 30
0.0
 10
1031.2512593386086
 20
1783.968917728505
 30
0.0
 10
1033.2685593386086
 20
1783.957717728505
 30
0.0
 10
1033.2685593386086
 20
1783.957717728505
 30
0.0
 10
1039.0386593386086
 20
1783.9573177285051
 30
0.0
 10
1044.8083593386086
 20
1783.9573177285051
 30
0.0
 10
1050.5776593386086
 20
1783.957717728505
 30
0.0
 10
1050.5776593386086
 20
1783.957717728505
 30
0.0
 10
1052.7157593386087
 20
1783.953517728505
 30
0.0
 10
1054.4349593386087
 20
1782.206817728505
 30
0.0
 10
1054.4214593386087
 20
1780.054417728505
 30
0.0
 10
1054.4214593386087
 20
1780.054417728505
 30
0.0
 10
1054.4214593386087
 20
1777.728717728505
 30
0.0
 10
1054.4214593386087
 20
1775.402617728505
 30
0.0
 10
1054.4214593386087
 20
1773.076517728505
 30
0.0
 10
1054.4214593386087
 20
1773.076517728505
 30
0.0
 10
1054.4569593386086
 20
1771.129917728505
 30
0.0
 10
1052.9654593386088
 20
1769.1385177285051
 30
0.0
 10
1050.5278593386086
 20
1769.111817728505
 30
0.0
  0
SPLINE
  5
5A
330
17
100
AcDbEntity
  8
layer 1
 62
250
370
9
100
AcDbSpline
 70
8
 71
3
 72
12
 73
8
 74
0
 42
1e-09
 40
0.0
 40
0.0
 40
0.0
 40
0.0
 40
0.3333333333333333
 40
0.3333333333333333
 40
0.3333333333333333
 40
0.3333333333333333
 40
1.0
 40
1.0
 40
1.0
 40
1.0
 10
1029.4463593386085
 20
1730.150817728505
 30
0.0
 10
1029.4463593386085
 20
1730.150817728505
 30
0.0
 10
1029.4463593386085
 20
1743.099917728505
 30
0.0
 10
1029.4463593386085
 20
1743.099917728505
 30
0.0
 10
1029.4463593386085
 20
1743.099917728505
 30
0.0
 10
1029.4463593386085
 20
1743.099917728505
 30
0.0
 10
1054.3999593386086
 20
1743.099917728505
 30
0.0
 10
1054.3999593386086
 20
1743.099917728505
 30
0.0
  0
SPLINE
  5
5B
330
17
100
AcDbEntity
  8
layer 1
 62
250
370
9
100
AcDbSpline
 70
8
 71
3
 72
48
 73
44
 74
0
 42
1e-09
 40
0.0
 40
0.0
 40
0.0
 40
0.0
 40
0.0833333333333333
 40
0.0833333333333333
 40
0.0833333333333333
 40
0.0833333333333333
 40
0.1666666666666667
 40
0.1666666666666667
 40
0.1666666666666667
 40
0.1666666666666667
 40
0.25
 40
0.25
 40
0.25
 40
0.25
 40
0.3333333333333333
 40
0.3333333333333333
 40
0.3333333333333333
 40
0.3333333333333333
 40
0.4166666666666667
 40
0.4166666666666667
 40
0.4166666666666667
 40
0.4166666666666667
 40
0.5
 40
0.5
 40
0.5
 40
0.5
 40
0.5833333333333334
 40
0.5833333333333334
 40
0.5833333333333334
 40
0.5833333333333334
 40
0.6666666666666666
 40
0.6666666666666666
 40
0.6666666666666666
 40
0.6666666666666666
 40
0.75
 40
0.75
 40
0.75
 40
0.75
 40
0.8333333333333334
 40
0.8333333333333334
 40
0.8333333333333334
 40
0.8333333333333334
 40
1.0
 40
1.0
 40
1.0
 40
1.0
 10
1032.3824593386087
 20
1718.5298177285051
 30
0.0
 10
1031.0429593386086
 20
1718.505717728505
 30
0.0
 10
1029.3896593386087
 20
1717.149517728505
 30
0.0
 10
1029.4240593386087
 20
1715.577617728505
 30
0.0
 10
1029.4240593386087
 20
1715.577617728505
 30
0.0
 10
1029.4243593386086
 20
1712.592817728505
 30
0.0
 10
1029.4243593386086
 20
1709.6076177285051
 30
0.0
 10
1029.4240593386087
 20
1706.6222177285051
 30
0.0
 10
1029.4240593386087
 20
1706.6222177285051
 30
0.0
 10
1029.4090593386086
 20
1705.403117728505
 30
0.0
 10
1030.8466593386086
 20
1703.674917728505
 30
0.0
 10
1032.3824593386087
 20
1703.669917728505
 30
0.0
 10
1032.3824593386087
 20
1703.669917728505
 30
0.0
 10
1038.7428593386087
 20
1703.6702177285051
 30
0.0
 10
1045.1036593386086
 20
1703.6702177285051
 30
0.0
 10
1051.4644593386085
 20
1703.669917728505
 30
0.0
 10
1051.4644593386085
 20
1703.669917728505
 30
0.0
 10
1052.6273593386086
 20
1703.6746177285052
 30
0.0
 10
1054.3984593386085
 20
1705.403117728505
 30
0.0
 10
1054.4228593386085
 20
1706.6222177285051
 30
0.0
 10
1054.4228593386085
 20
1706.6222177285051
 30
0.0
 10
1054.4225593386086
 20
1709.6076177285051
 30
0.0
 10
1054.4225593386086
 20
1712.592817728505
 30
0.0
 10
1054.4228593386088
 20
1715.577617728505
 30
0.0
 10
1054.4228593386088
 20
1715.577617728505
 30
0.0
 10
1054.3790593386086
 20
1716.855717728505
 30
0.0
 10
1052.7645593386087
 20
1718.525417728505
 30
0.0
 10
1051.4644593386085
 20
1718.5298177285051
 30
0.0
 10
1051.4644593386085
 20
1718.5298177285051
 30
0.0
 10
1047.8810593386086
 20
1718.5298177285051
 30
0.0
 10
1044.2980593386087
 20
1718.5298177285051
 30
0.0
 10
1040.7152593386086
 20
1718.5298177285051
 30
0.0
 10
1040.7152593386086
 20
1718.5298177285051
 30
0.0
 10
1039.2370593386086
 20
1718.491317728505
 30
0.0
 10
1037.8041593386088
 20
1716.908617728505
 30
0.0
 10
1037.8062593386087
 20
1715.577617728505
 30
0.0
 10
1037.8062593386087
 20
1715.577617728505
 30
0.0
 10
1037.8059593386085
 20
1712.592817728505
 30
0.0
 10
1037.8059593386085
 20
1709.6076177285051
 30
0.0
 10
1037.8062593386087
 20
1706.6222177285051
 30
0.0
 10
1037.8062593386087
 20
1706.6222177285051
 30
0.0
 10
1037.8012593386086
 20
1705.292717728505
 30
0.0
 10
1039.3084593386086
 20
1703.649717728505
 30
0.0
 10
1040.7370593386086
 20
1703.691417728505
 30
0.0
  0
SPLINE
  5
5C
330
17
100
AcDbEntity
  8
layer 2
 62
230
370
200
100
AcDbSpline
 70
11
 71
3
 72
92
 73
88
 74
0
 42
1e-09
 40
0.0
 40
0.0
 40
0.0
 40
0.0
 40
0.0434782608695652
 40
0.0434782608695652
 40
0.0434782608695652
 40
0.0434782608695652
 40
0.0869565217391304
 40
0.0869565217391304
 40
0.0869565217391304
 40
0.0869565217391304
 40
0.1304347826086956
 40
0.1304347826086956
 40
0.1304347826086956
 40
0.1304347826086956
 40
0.1739130434782609
 40
0.1739130434782609
 40
0.1739130434782609
 40
0.1739130434782609
 40
0.2173913043478261
 40
0.2173913043478261
 40
0.2173913043478261
 40
0.2173913043478261
 40
0.2608695652173913
 40
0.2608695652173913
 40
0.2608695652173913
 40
0.2608695652173913
 40
0.3043478260869565
 40
0.3043478260869565
 40
0.3043478260869565
 40
0.3043478260869565
 40
0.3478260869565217
 40
0.3478260869565217
 40
0.3478260869565217
 40
0.3478260869565217
 40
0.391304347826087
 40
0.391304347826087
 40
0.391304347826087
 40
0.391304347826087
 40
0.4347826086956522
 40
0.4347826086956522
 40
0.4347826086956522
 40
0.4347826086956522
 40
0.4782608695652174
 40
0.4782608695652174
 40
0.4782608695652174
 40
0.4782608695652174
 40
0.5217391304347826
 40
0.5217391304347826
 40
0.5217391304347826
 40
0.5217391304347826
 40
0.5652173913043478
 40
0.5652173913043478
 40
0.5652173913043478
 40
0.5652173913043478
 40
0.6086956521739131
 40
0.6086956521739131
 40
0.6086956521739131
 40
0.6086956521739131
 40
0.6521739130434783
 40
0.6521739130434783
 40
0.6521739130434783
 40
0.6521739130434783
 40
0.6956521739130435
 40
0.6956521739130435
 40
0.6956521739130435
 40
0.6956521739130435
 40
0.7391304347826086
 40
0.7391304347826086
 40
0.7391304347826086
 40
0.7391304347826086
 40
0.782608695652174
 40
0.782608695652174
 40
0.782608695652174
 40
0.782608695652174
 40
0.8260869565217391
 40
0.8260869565217391
 40
0.8260869565217391
 40
0.8260869565217391
 40
0.8695652173913043
 40
0.8695652173913043
 40
0.8695652173913043
 40
0.8695652173913043
 40
0.9130434782608695
 40
0.9130434782608695
 40
0.9130434782608695
 40
0.9130434782608695
 40
1.0
 40
1.0
 40
1.0
 40
1.0
 10
1015.5914593386087
 20
1958.139117728505
 30
0.0
 10
1015.5914593386087
 20
1958.139117728505
 30
0.0
 10
1252.4601593386087
 20
1973.5488177285051
 30
0.0
 10
1252.4601593386087
 20
1973.5488177285051
 30
0.0
 10
1252.4601593386087
 20
1973.5488177285051
 30
0.0
 10
1254.5182593386087
 20
1973.682917728505
 30
0.0
 10
1256.1163593386086
 20
1971.784617728505
 30
0.0
 10
1255.6309593386086
 20
1969.780417728505
 30
0.0
 10
1255.6309593386086
 20
1969.780417728505
 30
0.0
 10
1252.5984593386088
 20
1957.264317728505
 30
0.0
 10
1243.4830593386087
 20
1919.150817728505
 30
0.0
 10
1241.5925593386087
 20
1905.538317728505
 30
0.0
 10
1241.5925593386087
 20
1905.538317728505
 30
0.0
 10
1239.3163593386087
 20
1889.150617728505
 30
0.0
 10
1234.7645593386087
 20
1883.233117728505
 30
0.0
 10
1252.9727593386087
 20
1873.218517728505
 30
0.0
 10
1252.9727593386087
 20
1873.218517728505
 30
0.0
 10
1265.4402593386087
 20
1866.361517728505
 30
0.0
 10
1277.0540593386086
 20
1862.065417728505
 30
0.0
 10
1283.1380593386086
 20
1860.038017728505
 30
0.0
 10
1283.1380593386086
 20
1860.038017728505
 30
0.0
 10
1286.0527593386087
 20
1859.066817728505
 30
0.0
 10
1288.5458593386088
 20
1857.131417728505
 30
0.0
 10
1290.2070593386086
 20
1854.547317728505
 30
0.0
 10
1290.2070593386086
 20
1854.547317728505
 30
0.0
 10
1293.3037593386086
 20
1849.730517728505
 30
0.0
 10
1293.0338593386086
 20
1843.465917728505
 30
0.0
 10
1289.4824593386088
 20
1838.974017728505
 30
0.0
 10
1289.4824593386088
 20
1838.974017728505
 30
0.0
 10
1284.0440593386088
 20
1832.095917728505
 30
0.0
 10
1276.7549593386086
 20
1820.478517728505
 30
0.0
 10
1274.8227593386086
 20
1805.848117728505
 30
0.0
 10
1274.8227593386086
 20
1805.848117728505
 30
0.0
 10
1271.6361593386086
 20
1781.722017728505
 30
0.0
 10
1273.0017593386087
 20
1713.441317728505
 30
0.0
 10
1277.0985593386085
 20
1693.412317728505
 30
0.0
 10
1277.0985593386085
 20
1693.412317728505
 30
0.0
 10
1279.8375593386086
 20
1680.021217728505
 30
0.0
 10
1288.4773593386085
 20
1664.188617728505
 30
0.0
 10
1294.9917593386085
 20
1653.6684177285051
 30
0.0
 10
1294.9917593386085
 20
1653.6684177285051
 30
0.0
 10
1298.4807593386086
 20
1648.034217728505
 30
0.0
 10
1295.7312593386087
 20
1640.620917728505
 30
0.0
 10
1289.4189593386086
 20
1638.603717728505
 30
0.0
 10
1289.4189593386086
 20
1638.603717728505
 30
0.0
 10
1276.5139593386086
 20
1634.481117728505
 30
0.0
 10
1266.5215593386085
 20
1631.798617728505
 30
0.0
 10
1260.2558593386086
 20
1628.317817728505
 30
0.0
 10
1260.2558593386086
 20
1628.317817728505
 30
0.0
 10
1252.0622593386086
 20
1623.765917728505
 30
0.0
 10
1244.7791593386087
 20
1616.482417728505
 30
0.0
 10
1246.5998593386087
 20
1601.915517728505
 30
0.0
 10
1246.5998593386087
 20
1601.915517728505
 30
0.0
 10
1248.1594593386087
 20
1589.440217728505
 30
0.0
 10
1259.7355593386087
 20
1543.909717728505
 30
0.0
 10
1263.0269593386085
 20
1530.236417728505
 30
0.0
 10
1263.0269593386085
 20
1530.236417728505
 30
0.0
 10
1263.4982593386087
 20
1528.278117728505
 30
0.0
 10
1261.9844593386085
 20
1526.407317728505
 30
0.0
 10
1259.9708593386085
 20
1526.464117728505
 30
0.0
 10
1259.9708593386085
 20
1526.464117728505
 30
0.0
 10
1221.7145593386085
 20
1527.540117728505
 30
0.0
 10
1051.8760593386087
 20
1531.894117728505
 30
0.0
 10
1023.4841593386086
 20
1532.621517728505
 30
0.0
 10
1023.4841593386086
 20
1532.621517728505
 30
0.0
 10
1021.2535593386086
 20
1532.678617728505
 30
0.0
 10
1019.4850593386086
 20
1534.516317728505
 30
0.0
 10
1019.5139593386086
 20
1536.747617728505
 30
0.0
 10
1019.5139593386086
 20
1536.747617728505
 30
0.0
 10
1019.7132593386086
 20
1552.0133177285052
 30
0.0
 10
1020.0953593386087
 20
1606.836417728505
 30
0.0
 10
1015.8105593386085
 20
1633.3251177285051
 30
0.0
 10
1015.8105593386085
 20
1633.3251177285051
 30
0.0
 10
1010.8031593386086
 20
1664.279217728505
 30
0.0
 10
1003.5197593386087
 20
1721.8296177285051
 30
0.0
 10
1003.5197593386087
 20
1752.003317728505
 30
0.0
 10
1003.5197593386087
 20
1752.003317728505
 30
0.0
 10
1003.5197593386087
 20
1803.116917728505
 30
0.0
 10
1011.2582593386087
 20
1820.4147177285051
 30
0.0
 10
1012.1687593386087
 20
1851.368817728505
 30
0.0
 10
1012.1687593386087
 20
1851.368817728505
 30
0.0
 10
1012.9554593386086
 20
1878.1185177285051
 30
0.0
 10
1012.0424593386088
 20
1938.183617728505
 30
0.0
 10
1011.7800593386087
 20
1954.006017728505
 30
0.0
 10
1011.7800593386087
 20
1954.006017728505
 30
0.0
 10
1011.7436593386087
 20
1956.180517728505
 30
0.0
 10
1013.4211593386087
 20
1957.9980177285051
 30
0.0
 10
1015.5914593386087
 20
1958.139117728505
 30
0.0
  0
SPLINE
  5
5D
330
17
100
AcDbEntity
  8
layer 3
 62
142
370
200
100
AcDbSpline
 70
8
 71
3
 72
16
 73
12
 74
0
 42
1e-09
 40
0.0
 40
0.0
 40
0.0
 40
0.0
 40
0.25
 40
0.25
 40
0.25
 40
0.25
 40
0.5
 40
0.5
 40
0.5
 40
0.5
 40
1.0
 40
1.0
 40
1.0
 40
1.0
 10
1009.2214593386086
 20
1821.115617728505
 30
0.0
 10
1046.1198593386086
 20
1823.9971177285051
 30
0.0
 10
1091.5805593386087
 20
1817.224117728505
 30
0.0
 10
1127.4443593386086
 20
1821.115617728505
 30
0.0
 10
1127.4443593386086
 20
1821.115617728505
 30
0.0
 10
1163.3080593386087
 20
1825.007517728505
 30
0.0
 10
1195.7639593386086
 20
1819.303017728505
 30
0.0
 10
1227.5316593386087
 20
1820.863717728505
 30
0.0
 10
1227.5316593386087
 20
1820.863717728505
 30
0.0
 10
1259.2988593386087
 20
1822.424417728505
 30
0.0
 10
1267.5958593386088
 20
1823.053817728505
 30
0.0
 10
1281.8727593386086
 20
1827.345317728505
 30
0.0
  0
SPLINE
  5
5E
330
17
100
AcDbEntity
  8
layer 3
 62
142
370
200
100
AcDbSpline
 70
8
 71
3
 72
16
 73
12
 74
0
 42
1e-09
 40
0.0
 40
0.0
 40
0.0
 40
0.0
 40
0.25
 40
0.25
 40
0.25
 40
0.25
 40
0.5
 40
0.5
 40
0.5
 40
0.5
 40
1.0
 40
1.0
 40
1.0
 40
1.0
 10
1012.8115593386087
 20
1675.6094177285052
 30
0.0
 10
1026.7343593386086
 20
1678.2361177285052
 30
0.0
 10
1034.3525593386087
 20
1681.651417728505
 30
0.0
 10
1060.0965593386086
 20
1677.710817728505
 30
0.0
 10
1060.0965593386086
 20
1677.710817728505
 30
0.0
 10
1085.8408593386087
 20
1673.770317728505
 30
0.0
 10
1117.9393593386087
 20
1669.641417728505
 30
0.0
 10
1169.1676593386087
 20
1670.383717728505
 30
0.0
 10
1169.1676593386087
 20
1670.383717728505
 30
0.0
 10
1220.3959593386087
 20
1671.126317728505
 30
0.0
 10
1235.1391593386086
 20
1670.505017728505
 30
0.0
 10
1281.8727593386086
 20
1674.898917728505
 30
0.0
  0
ENDSEC
  0
SECTION
  2
OBJECTS
  0
DICTIONARY
  5
A
330
0
100
AcDbDictionary
281
1
  3
ACAD_COLOR
350
B
  3
ACAD_GROUP
350
C
  3
ACAD_LAYOUT
350
D
  3
ACAD_MATERIAL
350
E
  3
ACAD_MLEADERSTYLE
350
F
  3
ACAD_MLINESTYLE
350
10
  3
ACAD_PLOTSETTINGS
350
11
  3
ACAD_PLOTSTYLENAME
350
12
  3
ACAD_SCALELIST
350
14
  3
ACAD_TABLESTYLE
350
15
  3
ACAD_VISUALSTYLE
350
16
  3
EZDXF_META
350
2D
  0
DICTIONARY
  5
B
330
A
100
AcDbDictionary
281
1
  0
DICTIONARY
  5
C
330
A
100
AcDbDictionary
281
1
  0
DICTIONARY
  5
D
330
A
100
AcDbDictionary
281
1
  3
Model
350
1A
  3
Layout1
350
1E
  0
DICTIONARY
  5
E
330
A
100
AcDbDictionary
281
1
  3
ByBlock
350
1F
  3
ByLayer
350
20
  3
Global
350
21
  0
DICTIONARY
  5
F
330
A
100
AcDbDictionary
281
1
  3
Standard
350
2C
  0
DICTIONARY
  5
10
330
A
100
AcDbDictionary
281
1
  3
Standard
350
22
  0
DICTIONARY
  5
11
330
A
100
AcDbDictionary
281
1
  0
ACDBDICTIONARYWDFLT
  5
12
330
A
100
AcDbDictionary
281
1
  3
Normal
350
13
100
AcDbDictionaryWithDefault
340
13
  0
ACDBPLACEHOLDER
  5
13
330
12
  0
DICTIONARY
  5
14
330
A
100
AcDbDictionary
281
1
  0
DICTIONARY
  5
15
330
A
100
AcDbDictionary
281
1
  0
DICTIONARY
  5
16
330
A
100
AcDbDictionary
281
1
  0
LAYOUT
  5
1A
330
D
100
AcDbPlotSettings
  1

  4
A3
  6

 40
7.5
 41
20.0
 42
7.5
 43
20.0
 44
420.0
 45
297.0
 46
0.0
 47
0.0
 48
0.0
 49
0.0
140
0.0
141
0.0
142
1.0
143
1.0
 70
1024
 72
1
 73
0
 74
5
  7

 75
16
 76
0
 77
2
 78
300
147
1.0
148
0.0
149
0.0
100
AcDbLayout
  1
Model
 70
1
 71
0
 10
0.0
 20
0.0
 11
420.0
 21
297.0
 12
0.0
 22
0.0
 32
0.0
 14
1e+20
 24
1e+20
 34
1e+20
 15
-1e+20
 25
-1e+20
 35
-1e+20
146
0.0
 13
0.0
 23
0.0
 33
0.0
 16
1.0
 26
0.0
 36
0.0
 17
0.0
 27
1.0
 37
0.0
 76
1
330
17
  0
LAYOUT
  5
1E
330
D
100
AcDbPlotSettings
  1

  4
A3
  6

 40
7.5
 41
20.0
 42
7.5
 43
20.0
 44
420.0
 45
297.0
 46
0.0
 47
0.0
 48
0.0
 49
0.0
140
0.0
141
0.0
142
1.0
143
1.0
 70
0
 72
1
 73
0
 74
5
  7

 75
16
 76
0
 77
2
 78
300
147
1.0
148
0.0
149
0.0
100
AcDbLayout
  1
Layout1
 70
1
 71
1
 10
0.0
 20
0.0
 11
420.0
 21
297.0
 12
0.0
 22
0.0
 32
0.0
 14
1e+20
 24
1e+20
 34
1e+20
 15
-1e+20
 25
-1e+20
 35
-1e+20
146
0.0
 13
0.0
 23
0.0
 33
0.0
 16
1.0
 26
0.0
 36
0.0
 17
0.0
 27
1.0
 37
0.0
 76
1
330
1B
  0
MATERIAL
  5
1F
102
{ACAD_REACTORS
330
E
102
}
330
E
100
AcDbMaterial
  1
ByBlock
  2

 70
0
 40
1.0
 71
1
 41
1.0
 91
-1023410177
 42
1.0
 72
1
  3

 73
1
 74
1
 75
1
 44
0.5
 73
0
 45
1.0
 46
1.0
 77
1
  4

 78
1
 79
1
170
1
 48
1.0
171
1
  6

172
1
173
1
174
1
140
1.0
141
1.0
175
1
  7

176
1
177
1
178
1
143
1.0
179
1
  8

270
1
271
1
272
1
145
1.0
146
1.0
273
1
  9

274
1
275
1
276
1
 42
1.0
 72
1
  3

 73
1
 74
1
 75
1
 94
63
  0
MATERIAL
  5
20
102
{ACAD_REACTORS
330
E
102
}
330
E
100
AcDbMaterial
  1
ByLayer
  2

 70
0
 40
1.0
 71
1
 41
1.0
 91
-1023410177
 42
1.0
 72
1
  3

 73
1
 74
1
 75
1
 44
0.5
 73
0
 45
1.0
 46
1.0
 77
1
  4

 78
1
 79
1
170
1
 48
1.0
171
1
  6

172
1
173
1
174
1
140
1.0
141
1.0
175
1
  7

176
1
177
1
178
1
143
1.0
179
1
  8

270
1
271
1
272
1
145
1.0
146
1.0
273
1
  9

274
1
275
1
276
1
 42
1.0
 72
1
  3

 73
1
 74
1
 75
1
 94
63
  0
MATERIAL
  5
21
102
{ACAD_REACTORS
330
E
102
}
330
E
100
AcDbMaterial
  1
Global
  2

 70
0
 40
1.0
 71
1
 41
1.0
 91
-1023410177
 42
1.0
 72
1
  3

 73
1
 74
1
 75
1
 44
0.5
 73
0
 45
1.0
 46
1.0
 77
1
  4

 78
1
 79
1
170
1
 48
1.0
171
1
  6

172
1
173
1
174
1
140
1.0
141
1.0
175
1
  7

176
1
177
1
178
1
143
1.0
179
1
  8

270
1
271
1
272
1
145
1.0
146
1.0
273
1
  9

274
1
275
1
276
1
 42
1.0
 72
1
  3

 73
1
 74
1
 75
1
 94
63
  0
MLINESTYLE
  5
22
102
{ACAD_REACTORS
330
10
102
}
330
10
100
AcDbMlineStyle
  2
Standard
 70
0
  3

 62
256
 51
90.0
 52
90.0
 71
2
 49
0.5
 62
256
  6
BYLAYER
 49
-0.5
 62
256
  6
BYLAYER
  0
MLEADERSTYLE
  5
2C
102
{ACAD_REACTORS
330
F
102
}
330
F
100
AcDbMLeaderStyle
179
2
170
2
171
1
172
0
 90
2
 40
0.0
 41
0.0
173
1
 91
-1056964608
 92
-2
290
1
 42
2.0
291
1
 43
8.0
  3
Standard
 44
4.0
300

342
29
174
1
175
1
176
0
178
1
 93
-1056964608
 45
4.0
292
0
297
0
 46
4.0
 94
-1056964608
 47
1.0
 49
1.0
140
1.0
294
1
141
0.0
177
0
142
1.0
295
0
296
0
143
3.75
271
0
272
9
273
9
  0
DICTIONARY
  5
2D
330
A
100
AcDbDictionary
280
1
281
1
  3
CREATED_BY_EZDXF
350
2E
  3
WRITTEN_BY_EZDXF
350
61
  0
DICTIONARYVAR
  5
2E
330
2D
100
DictionaryVariables
280
0
  1
1.4.2 @ 2025-08-23T14:10:00.312184+00:00
  0
DICTIONARYVAR
  5
61
330
2D
100
DictionaryVariables
280
0
  1
1.4.2 @ 2025-08-23T14:10:00.442620+00:00
  0
ENDSEC
  0
EOF
