  0
SECTION
  2
HEADER
  9
$ACADVER
  1
AC1024
  9
$ACADMAINTVER
 70
6
  9
$DWGCODEPAGE
  3
ANSI_1252
  9
$LASTSAVEDBY
  1
ezdxf
  9
$INSBASE
 10
0.0
 20
0.0
 30
0.0
  9
$EXTMIN
 10
1e+20
 20
1e+20
 30
1e+20
  9
$EXTMAX
 10
-1e+20
 20
-1e+20
 30
-1e+20
  9
$LIMMIN
 10
0.0
 20
0.0
  9
$LIMMAX
 10
420.0
 20
297.0
  9
$ORTHOMODE
 70
0
  9
$REGENMODE
 70
1
  9
$FILLMODE
 70
1
  9
$QTEXTMODE
 70
0
  9
$MIRRTEXT
 70
1
  9
$LTSCALE
 40
1.0
  9
$ATTMODE
 70
1
  9
$TEXTSIZE
 40
2.5
  9
$TRACEWID
 40
1.0
  9
$TEXTSTYLE
  7
Standard
  9
$CLAYER
  8
0
  9
$CELTYPE
  6
ByLayer
  9
$CECOLOR
 62
256
  9
$CELTSCALE
 40
1.0
  9
$DISPSILH
 70
0
  9
$DIMSCALE
 40
1.0
  9
$DIMASZ
 40
2.5
  9
$DIMEXO
 40
0.625
  9
$DIMDLI
 40
3.75
  9
$DIMRND
 40
0.0
  9
$DIMDLE
 40
0.0
  9
$DIMEXE
 40
1.25
  9
$DIMTP
 40
0.0
  9
$DIMTM
 40
0.0
  9
$DIMTXT
 40
2.5
  9
$DIMCEN
 40
2.5
  9
$DIMTSZ
 40
0.0
  9
$DIMTOL
 70
0
  9
$DIMLIM
 70
0
  9
$DIMTIH
 70
0
  9
$DIMTOH
 70
0
  9
$DIMSE1
 70
0
  9
$DIMSE2
 70
0
  9
$DIMTAD
 70
1
  9
$DIMZIN
 70
8
  9
$DIMBLK
  1

  9
$DIMASO
 70
1
  9
$DIMSHO
 70
1
  9
$DIMPOST
  1

  9
$DIMAPOST
  1

  9
$DIMALT
 70
0
  9
$DIMALTD
 70
3
  9
$DIMALTF
 40
0.03937007874
  9
$DIMLFAC
 40
1.0
  9
$DIMTOFL
 70
1
  9
$DIMTVP
 40
0.0
  9
$DIMTIX
 70
0
  9
$DIMSOXD
 70
0
  9
$DIMSAH
 70
0
  9
$DIMBLK1
  1

  9
$DIMBLK2
  1

  9
$DIMSTYLE
  2
ISO-25
  9
$DIMCLRD
 70
0
  9
$DIMCLRE
 70
0
  9
$DIMCLRT
 70
0
  9
$DIMTFAC
 40
1.0
  9
$DIMGAP
 40
0.625
  9
$DIMJUST
 70
0
  9
$DIMSD1
 70
0
  9
$DIMSD2
 70
0
  9
$DIMTOLJ
 70
0
  9
$DIMTZIN
 70
8
  9
$DIMALTZ
 70
0
  9
$DIMALTTZ
 70
0
  9
$DIMUPT
 70
0
  9
$DIMDEC
 70
2
  9
$DIMTDEC
 70
2
  9
$DIMALTU
 70
2
  9
$DIMALTTD
 70
3
  9
$DIMTXSTY
  7
Standard
  9
$DIMAUNIT
 70
0
  9
$DIMADEC
 70
0
  9
$DIMALTRND
 40
0.0
  9
$DIMAZIN
 70
0
  9
$DIMDSEP
 70
44
  9
$DIMATFIT
 70
3
  9
$DIMFRAC
 70
0
  9
$DIMLDRBLK
  1

  9
$DIMLUNIT
 70
2
  9
$DIMLWD
 70
-2
  9
$DIMLWE
 70
-2
  9
$DIMTMOVE
 70
0
  9
$DIMFXL
 40
1.0
  9
$DIMFXLON
 70
0
  9
$DIMJOGANG
 40
0.785398163397
  9
$DIMTFILL
 70
0
  9
$DIMTFILLCLR
 70
0
  9
$DIMARCSYM
 70
0
  9
$DIMLTYPE
  6

  9
$DIMLTEX1
  6

  9
$DIMLTEX2
  6

  9
$DIMTXTDIRECTION
 70
0
  9
$LUNITS
 70
2
  9
$LUPREC
 70
4
  9
$SKETCHINC
 40
1.0
  9
$FILLETRAD
 40
10.0
  9
$AUNITS
 70
0
  9
$AUPREC
 70
2
  9
$MENU
  1
.
  9
$ELEVATION
 40
0.0
  9
$PELEVATION
 40
0.0
  9
$THICKNESS
 40
0.0
  9
$LIMCHECK
 70
0
  9
$CHAMFERA
 40
0.0
  9
$CHAMFERB
 40
0.0
  9
$CHAMFERC
 40
0.0
  9
$CHAMFERD
 40
0.0
  9
$SKPOLY
 70
0
  9
$TDCREATE
 40
2460909.6784722223
  9
$TDUCREATE
 40
2458532.153996898
  9
$TDUPDATE
 40
2460909.6784722223
  9
$TDUUPDATE
 40
2458532.1544311
  9
$TDINDWG
 40
0.0
  9
$TDUSRTIMER
 40
0.0
  9
$USRTIMER
 70
1
  9
$ANGBASE
 50
0.0
  9
$ANGDIR
 70
0
  9
$PDMODE
 70
0
  9
$PDSIZE
 40
0.0
  9
$PLINEWID
 40
0.0
  9
$SPLFRAME
 70
0
  9
$SPLINETYPE
 70
6
  9
$SPLINESEGS
 70
8
  9
$HANDSEED
  5
6B
  9
$SURFTAB1
 70
6
  9
$SURFTAB2
 70
6
  9
$SURFTYPE
 70
6
  9
$SURFU
 70
6
  9
$SURFV
 70
6
  9
$UCSBASE
  2

  9
$UCSNAME
  2

  9
$UCSORG
 10
0.0
 20
0.0
 30
0.0
  9
$UCSXDIR
 10
1.0
 20
0.0
 30
0.0
  9
$UCSYDIR
 10
0.0
 20
1.0
 30
0.0
  9
$UCSORTHOREF
  2

  9
$UCSORTHOVIEW
 70
0
  9
$UCSORGTOP
 10
0.0
 20
0.0
 30
0.0
  9
$UCSORGBOTTOM
 10
0.0
 20
0.0
 30
0.0
  9
$UCSORGLEFT
 10
0.0
 20
0.0
 30
0.0
  9
$UCSORGRIGHT
 10
0.0
 20
0.0
 30
0.0
  9
$UCSORGFRONT
 10
0.0
 20
0.0
 30
0.0
  9
$UCSORGBACK
 10
0.0
 20
0.0
 30
0.0
  9
$PUCSBASE
  2

  9
$PUCSNAME
  2

  9
$PUCSORG
 10
0.0
 20
0.0
 30
0.0
  9
$PUCSXDIR
 10
1.0
 20
0.0
 30
0.0
  9
$PUCSYDIR
 10
0.0
 20
1.0
 30
0.0
  9
$PUCSORTHOREF
  2

  9
$PUCSORTHOVIEW
 70
0
  9
$PUCSORGTOP
 10
0.0
 20
0.0
 30
0.0
  9
$PUCSORGBOTTOM
 10
0.0
 20
0.0
 30
0.0
  9
$PUCSORGLEFT
 10
0.0
 20
0.0
 30
0.0
  9
$PUCSORGRIGHT
 10
0.0
 20
0.0
 30
0.0
  9
$PUCSORGFRONT
 10
0.0
 20
0.0
 30
0.0
  9
$PUCSORGBACK
 10
0.0
 20
0.0
 30
0.0
  9
$USERI1
 70
0
  9
$USERI2
 70
0
  9
$USERI3
 70
0
  9
$USERI4
 70
0
  9
$USERI5
 70
0
  9
$USERR1
 40
0.0
  9
$USERR2
 40
0.0
  9
$USERR3
 40
0.0
  9
$USERR4
 40
0.0
  9
$USERR5
 40
0.0
  9
$WORLDVIEW
 70
1
  9
$SHADEDGE
 70
3
  9
$SHADEDIF
 70
70
  9
$TILEMODE
 70
1
  9
$MAXACTVP
 70
64
  9
$PINSBASE
 10
0.0
 20
0.0
 30
0.0
  9
$PLIMCHECK
 70
0
  9
$PEXTMIN
 10
1e+20
 20
1e+20
 30
1e+20
  9
$PEXTMAX
 10
-1e+20
 20
-1e+20
 30
-1e+20
  9
$PLIMMIN
 10
0.0
 20
0.0
  9
$PLIMMAX
 10
420.0
 20
297.0
  9
$UNITMODE
 70
0
  9
$VISRETAIN
 70
1
  9
$PLINEGEN
 70
0
  9
$PSLTSCALE
 70
1
  9
$TREEDEPTH
 70
3020
  9
$CMLSTYLE
  2
Standard
  9
$CMLJUST
 70
0
  9
$CMLSCALE
 40
20.0
  9
$PROXYGRAPHICS
 70
1
  9
$MEASUREMENT
 70
1
  9
$CELWEIGHT
370
-1
  9
$ENDCAPS
280
0
  9
$JOINSTYLE
280
0
  9
$LWDISPLAY
290
0
  9
$INSUNITS
 70
4
  9
$HYPERLINKBASE
  1

  9
$STYLESHEET
  1

  9
$XEDIT
290
1
  9
$CEPSNTYPE
380
0
  9
$PSTYLEMODE
290
1
  9
$FINGERPRINTGUID
  2
{9602BBA2-9ED3-49BC-86B0-A11E0E5C040C}
  9
$VERSIONGUID
  2
{64486469-163E-496C-B025-3563D0D9CC8B}
  9
$EXTNAMES
290
1
  9
$PSVPSCALE
 40
0.0
  9
$OLESTARTUP
290
0
  9
$SORTENTS
280
127
  9
$INDEXCTL
280
0
  9
$HIDETEXT
280
1
  9
$XCLIPFRAME
280
1
  9
$HALOGAP
280
0
  9
$OBSCOLOR
 70
257
  9
$OBSLTYPE
280
0
  9
$INTERSECTIONDISPLAY
280
0
  9
$INTERSECTIONCOLOR
 70
257
  9
$DIMASSOC
280
2
  9
$PROJECTNAME
  1

  9
$CAMERADISPLAY
290
0
  9
$LENSLENGTH
 40
50.0
  9
$CAMERAHEIGHT
 40
0.0
  9
$STEPSPERSEC
 40
24.0
  9
$STEPSIZE
 40
100.0
  9
$3DDWFPREC
 40
2.0
  9
$PSOLWIDTH
 40
0.005
  9
$PSOLHEIGHT
 40
0.08
  9
$LOFTANG1
 40
1.570796326795
  9
$LOFTANG2
 40
1.570796326795
  9
$LOFTMAG1
 40
0.0
  9
$LOFTMAG2
 40
0.0
  9
$LOFTPARAM
 70
7
  9
$LOFTNORMALS
280
1
  9
$LATITUDE
 40
37.795
  9
$LONGITUDE
 40
-122.394
  9
$NORTHDIRECTION
 40
0.0
  9
$TIMEZONE
 70
-8000
  9
$LIGHTGLYPHDISPLAY
280
1
  9
$TILEMODELIGHTSYNCH
280
1
  9
$CMATERIAL
347
20
  9
$SOLIDHIST
280
0
  9
$SHOWHIST
280
1
  9
$DWFFRAME
280
2
  9
$DGNFRAME
280
2
  9
$REALWORLDSCALE
290
1
  9
$INTERFERECOLOR
 62
256
  9
$CSHADOW
280
0
  9
$SHADOWPLANELOCATION
 40
0.0
  0
ENDSEC
  0
SECTION
  2
CLASSES
  0
CLASS
  1
ACDBDICTIONARYWDFLT
  2
AcDbDictionaryWithDefault
  3
ObjectDBX Classes
 90
0
 91
0
280
0
281
0
  0
CLASS
  1
SUN
  2
AcDbSun
  3
SCENEOE
 90
1153
 91
0
280
0
281
0
  0
CLASS
  1
VISUALSTYLE
  2
AcDbVisualStyle
  3
ObjectDBX Classes
 90
4095
 91
0
280
0
281
0
  0
CLASS
  1
MATERIAL
  2
AcDbMaterial
  3
ObjectDBX Classes
 90
1153
 91
0
280
0
281
0
  0
CLASS
  1
SCALE
  2
AcDbScale
  3
ObjectDBX Classes
 90
1153
 91
0
280
0
281
0
  0
CLASS
  1
TABLESTYLE
  2
AcDbTableStyle
  3
ObjectDBX Classes
 90
4095
 91
0
280
0
281
0
  0
CLASS
  1
MLEADERSTYLE
  2
AcDbMLeaderStyle
  3
ACDB_MLEADERSTYLE_CLASS
 90
4095
 91
0
280
0
281
0
  0
CLASS
  1
DICTIONARYVAR
  2
AcDbDictionaryVar
  3
ObjectDBX Classes
 90
0
 91
0
280
0
281
0
  0
CLASS
  1
CELLSTYLEMAP
  2
AcDbCellStyleMap
  3
ObjectDBX Classes
 90
1152
 91
0
280
0
281
0
  0
CLASS
  1
MENTALRAYRENDERSETTINGS
  2
AcDbMentalRayRenderSettings
  3
SCENEOE
 90
1024
 91
0
280
0
281
0
  0
CLASS
  1
ACDBDETAILVIEWSTYLE
  2
AcDbDetailViewStyle
  3
ObjectDBX Classes
 90
1025
 91
0
280
0
281
0
  0
CLASS
  1
ACDBSECTIONVIEWSTYLE
  2
AcDbSectionViewStyle
  3
ObjectDBX Classes
 90
1025
 91
0
280
0
281
0
  0
CLASS
  1
RASTERVARIABLES
  2
AcDbRasterVariables
  3
ISM
 90
0
 91
0
280
0
281
0
  0
CLASS
  1
LAYOUT
  2
AcDbLayout
  3
ObjectDBX Classes
 90
0
 91
0
280
0
281
0
  0
CLASS
  1
ACDBPLACEHOLDER
  2
AcDbPlaceHolder
  3
ObjectDBX Classes
 90
0
 91
0
280
0
281
0
  0
ENDSEC
  0
SECTION
  2
TABLES
  0
TABLE
  2
VPORT
  5
8
330
0
100
AcDbSymbolTable
 70
1
  0
VPORT
  5
23
330
8
100
AcDbSymbolTableRecord
100
AcDbViewportTableRecord
  2
*Active
 70
0
 10
0.0
 20
0.0
 11
1.0
 21
1.0
 12
0.0
 22
0.0
 13
0.0
 23
0.0
 14
0.5
 24
0.5
 15
0.5
 25
0.5
 16
0.0
 26
0.0
 36
1.0
 17
0.0
 27
0.0
 37
0.0
 40
1000.0
 41
1.34
 42
50.0
 43
0.0
 44
0.0
 50
0.0
 51
0.0
 71
0
 72
1000
 73
1
 74
3
 75
0
 76
0
 77
0
 78
0
281
0
 65
0
146
0.0
  0
ENDTAB
  0
TABLE
  2
LTYPE
  5
2
330
0
100
AcDbSymbolTable
 70
3
  0
LTYPE
  5
24
330
2
100
AcDbSymbolTableRecord
100
AcDbLinetypeTableRecord
  2
ByBlock
 70
0
  3

 72
65
 73
0
 40
0.0
  0
LTYPE
  5
25
330
2
100
AcDbSymbolTableRecord
100
AcDbLinetypeTableRecord
  2
ByLayer
 70
0
  3

 72
65
 73
0
 40
0.0
  0
LTYPE
  5
26
330
2
100
AcDbSymbolTableRecord
100
AcDbLinetypeTableRecord
  2
Continuous
 70
0
  3

 72
65
 73
0
 40
0.0
  0
ENDTAB
  0
TABLE
  2
LAYER
  5
1
330
0
100
AcDbSymbolTable
 70
11
  0
LAYER
  5
27
330
1
100
AcDbSymbolTableRecord
100
AcDbLayerTableRecord
  2
0
 70
0
 62
7
  6
Continuous
370
-3
390
13
347
21
  0
LAYER
  5
28
330
1
100
AcDbSymbolTableRecord
100
AcDbLayerTableRecord
  2
Defpoints
 70
0
 62
7
  6
Continuous
290
0
370
-3
390
13
347
21
  0
LAYER
  5
2F
330
1
100
AcDbSymbolTableRecord
100
AcDbLayerTableRecord
  2
dxf_samples_Лодка_Азимут_Эверест_385_2_layer 1
 70
0
 62
7
  6
Continuous
370
-3
390
13
347
21
  0
LAYER
  5
30
330
1
100
AcDbSymbolTableRecord
100
AcDbLayerTableRecord
  2
dxf_samples_SSANG_YONG_KYRON_1_layer 1
 70
0
 62
7
  6
Continuous
370
-3
390
13
347
21
  0
LAYER
  5
31
330
1
100
AcDbSymbolTableRecord
100
AcDbLayerTableRecord
  2
dxf_samples_SSANG_YONG_KYRON_1_layer 2
 70
0
 62
7
  6
Continuous
370
-3
390
13
347
21
  0
LAYER
  5
32
330
1
100
AcDbSymbolTableRecord
100
AcDbLayerTableRecord
  2
dxf_samples_SSANG_YONG_KYRON_1_layer 3
 70
0
 62
7
  6
Continuous
370
-3
390
13
347
21
  0
LAYER
  5
33
330
1
100
AcDbSymbolTableRecord
100
AcDbLayerTableRecord
  2
dxf_samples_SSANG_YONG_ACTYON_2_2_layer 1
 70
0
 62
7
  6
Continuous
370
-3
390
13
347
21
  0
LAYER
  5
34
330
1
100
AcDbSymbolTableRecord
100
AcDbLayerTableRecord
  2
dxf_samples_SSANG_YONG_ACTYON_2_2_layer 2
 70
0
 62
7
  6
Continuous
370
-3
390
13
347
21
  0
LAYER
  5
35
330
1
100
AcDbSymbolTableRecord
100
AcDbLayerTableRecord
  2
dxf_samples_SSANG_YONG_ACTYON_2_2_layer 3
 70
0
 62
7
  6
Continuous
370
-3
390
13
347
21
  0
LAYER
  5
36
330
1
100
AcDbSymbolTableRecord
100
AcDbLayerTableRecord
  2
dxf_samples_VOLKSWAGEN_TIGUAN_1_5_layer 1
 70
0
 62
7
  6
Continuous
370
-3
390
13
347
21
  0
LAYER
  5
37
330
1
100
AcDbSymbolTableRecord
100
AcDbLayerTableRecord
  2
dxf_samples_VOLKSWAGEN_TIGUAN_1_5_layer 2
 70
0
 62
7
  6
Continuous
370
-3
390
13
347
21
  0
ENDTAB
  0
TABLE
  2
STYLE
  5
5
330
0
100
AcDbSymbolTable
 70
1
  0
STYLE
  5
29
330
5
100
AcDbSymbolTableRecord
100
AcDbTextStyleTableRecord
  2
Standard
 70
0
 40
0.0
 41
1.0
 50
0.0
 71
0
 42
2.5
  3
txt
  4

  0
ENDTAB
  0
TABLE
  2
VIEW
  5
7
330
0
100
AcDbSymbolTable
 70
0
  0
ENDTAB
  0
TABLE
  2
UCS
  5
6
330
0
100
AcDbSymbolTable
 70
0
  0
ENDTAB
  0
TABLE
  2
APPID
  5
3
330
0
100
AcDbSymbolTable
 70
3
  0
APPID
  5
2A
330
3
100
AcDbSymbolTableRecord
100
AcDbRegAppTableRecord
  2
ACAD
 70
0
  0
APPID
  5
68
330
3
100
AcDbSymbolTableRecord
100
AcDbRegAppTableRecord
  2
HATCHBACKGROUNDCOLOR
 70
0
  0
APPID
  5
69
330
3
100
AcDbSymbolTableRecord
100
AcDbRegAppTableRecord
  2
EZDXF
 70
0
  0
ENDTAB
  0
TABLE
  2
DIMSTYLE
  5
4
330
0
100
AcDbSymbolTable
 70
1
100
AcDbDimStyleTable
  0
DIMSTYLE
105
2B
330
4
100
AcDbSymbolTableRecord
100
AcDbDimStyleTableRecord
  2
Standard
 70
0
 40
1.0
 41
2.5
 42
0.625
 43
3.75
 44
1.25
 45
0.0
 46
0.0
 47
0.0
 48
0.0
 49
2.5
140
2.5
141
2.5
142
0.0
143
0.03937007874
144
1.0
145
0.0
146
1.0
147
0.625
148
0.0
 69
0
 70
0
 71
0
 72
0
 73
0
 74
0
 75
0
 76
0
 77
1
 78
8
 79
3
170
0
171
3
172
1
173
0
174
0
175
0
176
0
177
0
178
0
179
2
271
2
272
2
273
2
274
3
275
0
276
0
277
2
278
44
279
0
280
0
281
0
282
0
283
0
284
8
285
0
286
0
288
0
289
3
290
0
371
-2
372
-2
  0
ENDTAB
  0
TABLE
  2
BLOCK_RECORD
  5
9
330
0
100
AcDbSymbolTable
 70
2
  0
BLOCK_RECORD
  5
17
330
9
100
AcDbSymbolTableRecord
100
AcDbBlockTableRecord
  2
*Model_Space
340
1A
 70
0
280
1
281
0
  0
BLOCK_RECORD
  5
1B
330
9
100
AcDbSymbolTableRecord
100
AcDbBlockTableRecord
  2
*Paper_Space
340
1E
 70
0
280
1
281
0
  0
ENDTAB
  0
ENDSEC
  0
SECTION
  2
BLOCKS
  0
BLOCK
  5
18
330
17
100
AcDbEntity
  8
0
100
AcDbBlockBegin
  2
*Model_Space
 70
0
 10
0.0
 20
0.0
 30
0.0
  3
*Model_Space
  1

  0
ENDBLK
  5
19
330
17
100
AcDbEntity
  8
0
100
AcDbBlockEnd
  0
BLOCK
  5
1C
330
1B
100
AcDbEntity
  8
0
100
AcDbBlockBegin
  2
*Paper_Space
 70
0
 10
0.0
 20
0.0
 30
0.0
  3
*Paper_Space
  1

  0
ENDBLK
  5
1D
330
1B
100
AcDbEntity
  8
0
100
AcDbBlockEnd
  0
ENDSEC
  0
SECTION
  2
ENTITIES
  0
SPLINE
  5
38
330
17
100
AcDbEntity
  8
dxf_samples_SSANG_YONG_KYRON_1_layer 1
 62
250
370
9
100
AcDbSpline
 70
8
 71
3
 72
32
 73
28
 74
0
 42
1e-09
 40
0.0
 40
0.0
 40
0.0
 40
0.0
 40
0.125
 40
0.125
 40
0.125
 40
0.125
 40
0.25
 40
0.25
 40
0.25
 40
0.25
 40
0.375
 40
0.375
 40
0.375
 40
0.375
 40
0.5
 40
0.5
 40
0.5
 40
0.5
 40
0.625
 40
0.625
 40
0.625
 40
0.625
 40
0.75
 40
0.75
 40
0.75
 40
0.75
 40
1.0
 40
1.0
 40
1.0
 40
1.0
 10
491.2903999999999
 20
216.88910000000004
 30
0.0
 10
491.1506
 20
214.56570000000005
 30
0.0
 10
489.4733999999999
 20
213.08610000000004
 30
0.0
 10
487.3256999999999
 20
213.07530000000003
 30
0.0
 10
487.3256999999999
 20
213.07530000000003
 30
0.0
 10
484.9938
 20
213.07570000000004
 30
0.0
 10
482.6618999999999
 20
213.07570000000004
 30
0.0
 10
480.3303999999999
 20
213.07530000000003
 30
0.0
 10
480.3303999999999
 20
213.07530000000003
 30
0.0
 10
478.40539999999993
 20
212.96990000000005
 30
0.0
 10
476.4333
 20
214.8544
 30
0.0
 10
476.4444999999999
 20
216.87170000000003
 30
0.0
 10
476.4444999999999
 20
216.87170000000003
 30
0.0
 10
476.4449
 20
222.64180000000005
 30
0.0
 10
476.4449
 20
228.41150000000005
 30
0.0
 10
476.4444999999999
 20
234.18080000000003
 30
0.0
 10
476.4444999999999
 20
234.18080000000003
 30
0.0
 10
476.4487
 20
236.31890000000004
 30
0.0
 10
478.1953999999999
 20
238.03810000000004
 30
0.0
 10
480.34779999999984
 20
238.02460000000002
 30
0.0
 10
480.34779999999984
 20
238.02460000000002
 30
0.0
 10
482.67349999999993
 20
238.02460000000002
 30
0.0
 10
484.99959999999993
 20
238.02460000000002
 30
0.0
 10
487.3256999999999
 20
238.02460000000002
 30
0.0
 10
487.3256999999999
 20
238.02460000000002
 30
0.0
 10
489.2722999999999
 20
238.06010000000003
 30
0.0
 10
491.26370000000003
 20
236.5686
 30
0.0
 10
491.2903999999999
 20
234.13100000000003
 30
0.0
  0
SPLINE
  5
39
330
17
100
AcDbEntity
  8
dxf_samples_SSANG_YONG_KYRON_1_layer 1
 62
250
370
9
100
AcDbSpline
 70
8
 71
3
 72
28
 73
24
 74
0
 42
1e-09
 40
0.0
 40
0.0
 40
0.0
 40
0.0
 40
0.1428571428571428
 40
0.1428571428571428
 40
0.1428571428571428
 40
0.1428571428571428
 40
0.2857142857142857
 40
0.2857142857142857
 40
0.2857142857142857
 40
0.2857142857142857
 40
0.4285714285714285
 40
0.4285714285714285
 40
0.4285714285714285
 40
0.4285714285714285
 40
0.5714285714285714
 40
0.5714285714285714
 40
0.5714285714285714
 40
0.5714285714285714
 40
0.7142857142857143
 40
0.7142857142857143
 40
0.7142857142857143
 40
0.7142857142857143
 40
1.0
 40
1.0
 40
1.0
 40
1.0
 10
500.24139999999994
 20
213.07090000000005
 30
0.0
 10
500.24139999999994
 20
213.07090000000005
 30
0.0
 10
500.24139999999994
 20
238.02450000000005
 30
0.0
 10
500.24139999999994
 20
238.02450000000005
 30
0.0
 10
500.24139999999994
 20
238.02450000000005
 30
0.0
 10
503.83639999999997
 20
238.02450000000005
 30
0.0
 10
507.4316999999999
 20
238.02450000000005
 30
0.0
 10
511.02709999999985
 20
238.02450000000005
 30
0.0
 10
511.02709999999985
 20
238.02450000000005
 30
0.0
 10
513.3522999999998
 20
237.9866
 30
0.0
 10
514.9096999999999
 20
236.49650000000003
 30
0.0
 10
514.9054999999998
 20
234.1304
 30
0.0
 10
514.9054999999998
 20
234.1304
 30
0.0
 10
514.9051
 20
232.09470000000005
 30
0.0
 10
514.9051
 20
229.03540000000004
 30
0.0
 10
514.9054999999998
 20
226.99940000000004
 30
0.0
 10
514.9054999999998
 20
226.99940000000004
 30
0.0
 10
514.8989999999999
 20
225.12400000000002
 30
0.0
 10
513.0867999999998
 20
223.18210000000005
 30
0.0
 10
511.0772
 20
223.163
 30
0.0
 10
511.0772
 20
223.163
 30
0.0
 10
511.0772
 20
223.163
 30
0.0
 10
500.24139999999994
 20
223.163
 30
0.0
 10
500.24139999999994
 20
223.163
 30
0.0
  0
SPLINE
  5
3A
330
17
100
AcDbEntity
  8
dxf_samples_SSANG_YONG_KYRON_1_layer 1
 62
250
370
9
100
AcDbSpline
 70
8
 71
3
 72
44
 73
40
 74
0
 42
1e-09
 40
0.0
 40
0.0
 40
0.0
 40
0.0
 40
0.0909090909090909
 40
0.0909090909090909
 40
0.0909090909090909
 40
0.0909090909090909
 40
0.1818181818181818
 40
0.1818181818181818
 40
0.1818181818181818
 40
0.1818181818181818
 40
0.2727272727272727
 40
0.2727272727272727
 40
0.2727272727272727
 40
0.2727272727272727
 40
0.3636363636363636
 40
0.3636363636363636
 40
0.3636363636363636
 40
0.3636363636363636
 40
0.4545454545454545
 40
0.4545454545454545
 40
0.4545454545454545
 40
0.4545454545454545
 40
0.5454545454545454
 40
0.5454545454545454
 40
0.5454545454545454
 40
0.5454545454545454
 40
0.6363636363636364
 40
0.6363636363636364
 40
0.6363636363636364
 40
0.6363636363636364
 40
0.7272727272727273
 40
0.7272727272727273
 40
0.7272727272727273
 40
0.7272727272727273
 40
0.8181818181818182
 40
0.8181818181818182
 40
0.8181818181818182
 40
0.8181818181818182
 40
1.0
 40
1.0
 40
1.0
 40
1.0
 10
153.87999999999994
 20
249.0002
 30
0.0
 10
157.13899999999995
 20
249.00060000000002
 30
0.0
 10
160.39839999999987
 20
249.00060000000002
 30
0.0
 10
163.65809999999993
 20
249.0002
 30
0.0
 10
163.65809999999993
 20
249.0002
 30
0.0
 10
165.42739999999986
 20
248.98470000000003
 30
0.0
 10
167.15029999999985
 20
247.42970000000003
 30
0.0
 10
167.15029999999985
 20
245.59390000000002
 30
0.0
 10
167.15029999999985
 20
245.59390000000002
 30
0.0
 10
167.14999999999992
 20
244.5831
 30
0.0
 10
167.14999999999992
 20
241.85180000000003
 30
0.0
 10
167.15029999999985
 20
240.84070000000003
 30
0.0
 10
167.15029999999985
 20
240.84070000000003
 30
0.0
 10
167.16619999999995
 20
239.1766
 30
0.0
 10
165.78489999999994
 20
237.37280000000004
 30
0.0
 10
163.70549999999986
 20
237.38800000000003
 30
0.0
 10
163.70549999999986
 20
237.38800000000003
 30
0.0
 10
160.44549999999987
 20
237.38830000000002
 30
0.0
 10
157.18580000000003
 20
237.38830000000002
 30
0.0
 10
153.92649999999986
 20
237.38800000000003
 30
0.0
 10
153.92649999999986
 20
237.38800000000003
 30
0.0
 10
153.92649999999986
 20
244.83840000000004
 30
0.0
 10
153.92649999999986
 20
252.2885
 30
0.0
 10
153.92649999999986
 20
259.73830000000004
 30
0.0
 10
153.92649999999986
 20
259.73830000000004
 30
0.0
 10
156.0525999999998
 20
259.73830000000004
 30
0.0
 10
158.17899999999992
 20
259.73830000000004
 30
0.0
 10
160.3055
 20
259.73830000000004
 30
0.0
 10
160.3055
 20
259.73830000000004
 30
0.0
 10
161.81099999999998
 20
259.75410000000005
 30
0.0
 10
163.6889999999999
 20
258.04290000000003
 30
0.0
 10
163.7049
 20
256.28520000000003
 30
0.0
 10
163.7049
 20
256.28520000000003
 30
0.0
 10
163.70449999999988
 20
254.43460000000005
 30
0.0
 10
163.70449999999988
 20
254.3039
 30
0.0
 10
163.7049
 20
252.45300000000003
 30
0.0
 10
163.7049
 20
252.45300000000003
 30
0.0
 10
163.7203
 20
250.60240000000005
 30
0.0
 10
162.05939999999993
 20
248.98470000000003
 30
0.0
 10
160.25899999999984
 20
249.0002
 30
0.0
  0
SPLINE
  5
3B
330
17
100
AcDbEntity
  8
dxf_samples_SSANG_YONG_KYRON_1_layer 1
 62
250
370
9
100
AcDbSpline
 70
24
 71
3
 72
8
 73
4
 74
0
 42
1e-09
 40
0.0
 40
0.0
 40
0.0
 40
0.0
 40
1.0
 40
1.0
 40
1.0
 40
1.0
 10
193.0537
 20
585.9334
 30
0.0
 10
193.0537
 20
585.9334
 30
0.0
 10
206.79429999999985
 20
560.9799
 30
0.0
 10
206.79429999999985
 20
560.9799
 30
0.0
  0
SPLINE
  5
3C
330
17
100
AcDbEntity
  8
dxf_samples_SSANG_YONG_KYRON_1_layer 1
 62
250
370
9
100
AcDbSpline
 70
24
 71
3
 72
8
 73
4
 74
0
 42
1e-09
 40
0.0
 40
0.0
 40
0.0
 40
0.0
 40
1.0
 40
1.0
 40
1.0
 40
1.0
 10
205.33969999999982
 20
585.9334
 30
0.0
 10
205.33969999999982
 20
585.9334
 30
0.0
 10
191.59909999999996
 20
561.0376
 30
0.0
 10
191.59909999999996
 20
561.0376
 30
0.0
  0
SPLINE
  5
3D
330
17
100
AcDbEntity
  8
dxf_samples_SSANG_YONG_KYRON_1_layer 1
 62
250
370
9
100
AcDbSpline
 70
24
 71
3
 72
8
 73
4
 74
0
 42
1e-09
 40
0.0
 40
0.0
 40
0.0
 40
0.0
 40
1.0
 40
1.0
 40
1.0
 40
1.0
 10
225.9749
 20
587.4111
 30
0.0
 10
225.9749
 20
587.4111
 30
0.0
 10
239.71549999999985
 20
562.4576000000001
 30
0.0
 10
239.71549999999985
 20
562.4576000000001
 30
0.0
  0
SPLINE
  5
3E
330
17
100
AcDbEntity
  8
dxf_samples_SSANG_YONG_KYRON_1_layer 1
 62
250
370
9
100
AcDbSpline
 70
24
 71
3
 72
8
 73
4
 74
0
 42
1e-09
 40
0.0
 40
0.0
 40
0.0
 40
0.0
 40
1.0
 40
1.0
 40
1.0
 40
1.0
 10
238.26089999999982
 20
587.4111
 30
0.0
 10
238.26089999999982
 20
587.4111
 30
0.0
 10
224.52029999999996
 20
562.5153
 30
0.0
 10
224.52029999999996
 20
562.5153
 30
0.0
  0
SPLINE
  5
3F
330
17
100
AcDbEntity
  8
dxf_samples_SSANG_YONG_KYRON_1_layer 1
 62
250
370
9
100
AcDbSpline
 70
24
 71
3
 72
8
 73
4
 74
0
 42
1e-09
 40
0.0
 40
0.0
 40
0.0
 40
0.0
 40
1.0
 40
1.0
 40
1.0
 40
1.0
 10
333.5883999999999
 20
192.59630000000004
 30
0.0
 10
333.5883999999999
 20
192.59630000000004
 30
0.0
 10
333.5883999999999
 20
167.6427
 30
0.0
 10
333.5883999999999
 20
167.6427
 30
0.0
  0
SPLINE
  5
40
330
17
100
AcDbEntity
  8
dxf_samples_SSANG_YONG_KYRON_1_layer 1
 62
250
370
9
100
AcDbSpline
 70
24
 71
3
 72
8
 73
4
 74
0
 42
1e-09
 40
0.0
 40
0.0
 40
0.0
 40
0.0
 40
1.0
 40
1.0
 40
1.0
 40
1.0
 10
347.96459999999985
 20
192.59630000000004
 30
0.0
 10
347.96459999999985
 20
192.59630000000004
 30
0.0
 10
333.5883999999999
 20
173.95660000000004
 30
0.0
 10
333.5883999999999
 20
173.95660000000004
 30
0.0
  0
SPLINE
  5
41
330
17
100
AcDbEntity
  8
dxf_samples_SSANG_YONG_KYRON_1_layer 1
 62
250
370
9
100
AcDbSpline
 70
24
 71
3
 72
8
 73
4
 74
0
 42
1e-09
 40
0.0
 40
0.0
 40
0.0
 40
0.0
 40
1.0
 40
1.0
 40
1.0
 40
1.0
 10
348.2898999999998
 20
167.73850000000004
 30
0.0
 10
348.2898999999998
 20
167.73850000000004
 30
0.0
 10
339.8193999999999
 20
182.0521
 30
0.0
 10
339.8193999999999
 20
182.0521
 30
0.0
  0
SPLINE
  5
42
330
17
100
AcDbEntity
  8
dxf_samples_SSANG_YONG_KYRON_1_layer 1
 62
250
370
9
100
AcDbSpline
 70
8
 71
3
 72
16
 73
12
 74
0
 42
1e-09
 40
0.0
 40
0.0
 40
0.0
 40
0.0
 40
0.25
 40
0.25
 40
0.25
 40
0.25
 40
0.5
 40
0.5
 40
0.5
 40
0.5
 40
1.0
 40
1.0
 40
1.0
 40
1.0
 10
413.61189999999993
 20
167.64280000000002
 30
0.0
 10
413.61189999999993
 20
167.64280000000002
 30
0.0
 10
413.61189999999993
 20
192.59630000000004
 30
0.0
 10
413.61189999999993
 20
192.59630000000004
 30
0.0
 10
413.61189999999993
 20
192.59630000000004
 30
0.0
 10
413.61189999999993
 20
192.59630000000004
 30
0.0
 10
428.26669999999996
 20
167.64280000000002
 30
0.0
 10
428.26669999999996
 20
167.64280000000002
 30
0.0
 10
428.26669999999996
 20
167.64280000000002
 30
0.0
 10
428.26669999999996
 20
167.64280000000002
 30
0.0
 10
428.26669999999996
 20
192.59630000000004
 30
0.0
 10
428.26669999999996
 20
192.59630000000004
 30
0.0
  0
SPLINE
  5
43
330
17
100
AcDbEntity
  8
dxf_samples_SSANG_YONG_KYRON_1_layer 1
 62
250
370
9
100
AcDbSpline
 70
11
 71
3
 72
36
 73
32
 74
0
 42
1e-09
 40
0.0
 40
0.0
 40
0.0
 40
0.0
 40
0.1111111111111111
 40
0.1111111111111111
 40
0.1111111111111111
 40
0.1111111111111111
 40
0.2222222222222222
 40
0.2222222222222222
 40
0.2222222222222222
 40
0.2222222222222222
 40
0.3333333333333333
 40
0.3333333333333333
 40
0.3333333333333333
 40
0.3333333333333333
 40
0.4444444444444444
 40
0.4444444444444444
 40
0.4444444444444444
 40
0.4444444444444444
 40
0.5555555555555556
 40
0.5555555555555556
 40
0.5555555555555556
 40
0.5555555555555556
 40
0.6666666666666666
 40
0.6666666666666666
 40
0.6666666666666666
 40
0.6666666666666666
 40
0.7777777777777778
 40
0.7777777777777778
 40
0.7777777777777778
 40
0.7777777777777778
 40
1.0
 40
1.0
 40
1.0
 40
1.0
 10
397.4197
 20
192.596
 30
0.0
 10
399.74539999999985
 20
192.596
 30
0.0
 10
402.07149999999984
 20
192.596
 30
0.0
 10
404.39759999999984
 20
192.596
 30
0.0
 10
404.39759999999984
 20
192.596
 30
0.0
 10
406.34419999999983
 20
192.63160000000005
 30
0.0
 10
408.33559999999994
 20
191.14
 30
0.0
 10
408.36229999999983
 20
188.7024
 30
0.0
 10
408.36229999999983
 20
188.7024
 30
0.0
 10
408.36189999999993
 20
182.95550000000003
 30
0.0
 10
408.36189999999993
 20
177.20820000000003
 30
0.0
 10
408.36229999999983
 20
171.46050000000002
 30
0.0
 10
408.36229999999983
 20
171.46050000000002
 30
0.0
 10
408.2224999999999
 20
169.13710000000003
 30
0.0
 10
406.5452999999998
 20
167.65750000000003
 30
0.0
 10
404.39759999999984
 20
167.6467
 30
0.0
 10
404.39759999999984
 20
167.6467
 30
0.0
 10
402.06569999999994
 20
167.64710000000002
 30
0.0
 10
399.73380000000003
 20
167.64710000000002
 30
0.0
 10
397.4023
 20
167.6467
 30
0.0
 10
397.4023
 20
167.6467
 30
0.0
 10
395.47729999999984
 20
167.54130000000004
 30
0.0
 10
393.5051999999999
 20
169.42580000000004
 30
0.0
 10
393.51640000000003
 20
171.44310000000002
 30
0.0
 10
393.51640000000003
 20
171.44310000000002
 30
0.0
 10
393.51669999999996
 20
177.21320000000003
 30
0.0
 10
393.51669999999996
 20
182.98290000000003
 30
0.0
 10
393.51640000000003
 20
188.75220000000002
 30
0.0
 10
393.51640000000003
 20
188.75220000000002
 30
0.0
 10
393.5205999999999
 20
190.89030000000002
 30
0.0
 10
395.26730000000003
 20
192.60950000000003
 30
0.0
 10
397.4197
 20
192.596
 30
0.0
  0
SPLINE
  5
44
330
17
100
AcDbEntity
  8
dxf_samples_SSANG_YONG_KYRON_1_layer 1
 62
250
370
9
100
AcDbSpline
 70
8
 71
3
 72
12
 73
8
 74
0
 42
1e-09
 40
0.0
 40
0.0
 40
0.0
 40
0.0
 40
0.3333333333333333
 40
0.3333333333333333
 40
0.3333333333333333
 40
0.3333333333333333
 40
1.0
 40
1.0
 40
1.0
 40
1.0
 10
368.2608999999998
 20
192.59630000000004
 30
0.0
 10
368.2608999999998
 20
192.59630000000004
 30
0.0
 10
360.93850000000003
 20
180.69760000000002
 30
0.0
 10
360.93850000000003
 20
180.69760000000002
 30
0.0
 10
360.93850000000003
 20
180.69760000000002
 30
0.0
 10
360.93850000000003
 20
180.69760000000002
 30
0.0
 10
360.93919999999986
 20
167.6427
 30
0.0
 10
360.93919999999986
 20
167.6427
 30
0.0
  0
SPLINE
  5
45
330
17
100
AcDbEntity
  8
dxf_samples_SSANG_YONG_KYRON_1_layer 1
 62
250
370
9
100
AcDbSpline
 70
24
 71
3
 72
8
 73
4
 74
0
 42
1e-09
 40
0.0
 40
0.0
 40
0.0
 40
0.0
 40
1.0
 40
1.0
 40
1.0
 40
1.0
 10
360.93850000000003
 20
180.69760000000002
 30
0.0
 10
360.93850000000003
 20
180.69760000000002
 30
0.0
 10
353.61759999999987
 20
192.59630000000004
 30
0.0
 10
353.61759999999987
 20
192.59630000000004
 30
0.0
  0
SPLINE
  5
46
330
17
100
AcDbEntity
  8
dxf_samples_SSANG_YONG_KYRON_1_layer 1
 62
250
370
9
100
AcDbSpline
 70
8
 71
3
 72
32
 73
28
 74
0
 42
1e-09
 40
0.0
 40
0.0
 40
0.0
 40
0.0
 40
0.125
 40
0.125
 40
0.125
 40
0.125
 40
0.25
 40
0.25
 40
0.25
 40
0.25
 40
0.375
 40
0.375
 40
0.375
 40
0.375
 40
0.5
 40
0.5
 40
0.5
 40
0.5
 40
0.625
 40
0.625
 40
0.625
 40
0.625
 40
0.75
 40
0.75
 40
0.75
 40
0.75
 40
1.0
 40
1.0
 40
1.0
 40
1.0
 10
373.6072
 20
167.64280000000002
 30
0.0
 10
373.6072
 20
167.64280000000002
 30
0.0
 10
373.6072
 20
192.59630000000004
 30
0.0
 10
373.6072
 20
192.59630000000004
 30
0.0
 10
373.6072
 20
192.59630000000004
 30
0.0
 10
377.2019999999998
 20
192.59630000000004
 30
0.0
 10
380.79749999999996
 20
192.59630000000004
 30
0.0
 10
384.39269999999993
 20
192.59630000000004
 30
0.0
 10
384.39269999999993
 20
192.59630000000004
 30
0.0
 10
386.7179999999999
 20
192.5586
 30
0.0
 10
388.27529999999985
 20
191.06860000000006
 30
0.0
 10
388.27119999999996
 20
188.70220000000006
 30
0.0
 10
388.27119999999996
 20
188.70220000000006
 30
0.0
 10
388.27079999999984
 20
186.6667
 30
0.0
 10
388.27079999999984
 20
183.6073
 30
0.0
 10
388.27119999999996
 20
181.57130000000006
 30
0.0
 10
388.27119999999996
 20
181.57130000000006
 30
0.0
 10
388.2647
 20
179.69580000000002
 30
0.0
 10
386.45239999999995
 20
177.75400000000002
 30
0.0
 10
384.44289999999984
 20
177.73490000000004
 30
0.0
 10
384.44289999999984
 20
177.73490000000004
 30
0.0
 10
384.44289999999984
 20
177.73490000000004
 30
0.0
 10
373.6072
 20
177.73490000000004
 30
0.0
 10
373.6072
 20
177.73490000000004
 30
0.0
 10
373.6072
 20
177.73490000000004
 30
0.0
 10
373.6072
 20
177.73490000000004
 30
0.0
 10
388.2619
 20
167.64280000000002
 30
0.0
 10
388.2619
 20
167.64280000000002
 30
0.0
  0
SPLINE
  5
47
330
17
100
AcDbEntity
  8
dxf_samples_SSANG_YONG_KYRON_1_layer 2
 62
142
100
AcDbSpline
 70
11
 71
3
 72
20
 73
16
 74
0
 42
1e-09
 40
0.0
 40
0.0
 40
0.0
 40
0.0
 40
0.2
 40
0.2
 40
0.2
 40
0.2
 40
0.4
 40
0.4
 40
0.4
 40
0.4
 40
0.6
 40
0.6
 40
0.6
 40
0.6
 40
1.0
 40
1.0
 40
1.0
 40
1.0
 10
621.6174999999998
 20
806.6245
 30
0.0
 10
621.6174999999998
 20
806.6245
 30
0.0
 10
617.7956999999999
 20
820.2869000000001
 30
0.0
 10
617.7956999999999
 20
820.2869000000001
 30
0.0
 10
617.7956999999999
 20
820.2869000000001
 30
0.0
 10
617.7956999999999
 20
820.2869000000001
 30
0.0
 10
619.0941999999998
 20
820.2869000000001
 30
0.0
 10
619.0941999999998
 20
820.2869000000001
 30
0.0
 10
619.0941999999998
 20
820.2869000000001
 30
0.0
 10
619.0941999999998
 20
820.2869000000001
 30
0.0
 10
622.9159999999999
 20
806.6245
 30
0.0
 10
622.9159999999999
 20
806.6245
 30
0.0
 10
622.9159999999999
 20
806.6245
 30
0.0
 10
622.9159999999999
 20
806.6245
 30
0.0
 10
621.6174999999998
 20
806.6245
 30
0.0
 10
621.6174999999998
 20
806.6245
 30
0.0
  0
SPLINE
  5
48
330
17
100
AcDbEntity
  8
dxf_samples_SSANG_YONG_KYRON_1_layer 2
 62
142
100
AcDbSpline
 70
11
 71
3
 72
20
 73
16
 74
0
 42
1e-09
 40
0.0
 40
0.0
 40
0.0
 40
0.0
 40
0.2
 40
0.2
 40
0.2
 40
0.2
 40
0.4
 40
0.4
 40
0.4
 40
0.4
 40
0.6
 40
0.6
 40
0.6
 40
0.6
 40
1.0
 40
1.0
 40
1.0
 40
1.0
 10
631.8765999999998
 20
806.6245
 30
0.0
 10
631.8765999999998
 20
806.6245
 30
0.0
 10
628.0546999999999
 20
820.2869000000001
 30
0.0
 10
628.0546999999999
 20
820.2869000000001
 30
0.0
 10
628.0546999999999
 20
820.2869000000001
 30
0.0
 10
628.0546999999999
 20
820.2869000000001
 30
0.0
 10
629.3531999999998
 20
820.2869000000001
 30
0.0
 10
629.3531999999998
 20
820.2869000000001
 30
0.0
 10
629.3531999999998
 20
820.2869000000001
 30
0.0
 10
629.3531999999998
 20
820.2869000000001
 30
0.0
 10
633.1750999999999
 20
806.6245
 30
0.0
 10
633.1750999999999
 20
806.6245
 30
0.0
 10
633.1750999999999
 20
806.6245
 30
0.0
 10
633.1750999999999
 20
806.6245
 30
0.0
 10
631.8765999999998
 20
806.6245
 30
0.0
 10
631.8765999999998
 20
806.6245
 30
0.0
  0
SPLINE
  5
49
330
17
100
AcDbEntity
  8
dxf_samples_SSANG_YONG_KYRON_1_layer 2
 62
142
370
158
100
AcDbSpline
 70
8
 71
3
 72
24
 73
20
 74
0
 42
1e-09
 40
0.0
 40
0.0
 40
0.0
 40
0.0
 40
0.1666666666666667
 40
0.1666666666666667
 40
0.1666666666666667
 40
0.1666666666666667
 40
0.3333333333333333
 40
0.3333333333333333
 40
0.3333333333333333
 40
0.3333333333333333
 40
0.5
 40
0.5
 40
0.5
 40
0.5
 40
0.6666666666666666
 40
0.6666666666666666
 40
0.6666666666666666
 40
0.6666666666666666
 40
1.0
 40
1.0
 40
1.0
 40
1.0
 10
448.6825999999999
 20
847.0161
 30
0.0
 10
449.0060999999999
 20
837.5022
 30
0.0
 10
449.3294999999999
 20
827.9884000000001
 30
0.0
 10
449.65299999999985
 20
818.4745
 30
0.0
 10
449.65299999999985
 20
818.4745
 30
0.0
 10
450.3167999999999
 20
791.5212
 30
0.0
 10
447.70249999999993
 20
756.7811
 30
0.0
 10
457.11279999999994
 20
731.6153
 30
0.0
 10
457.11279999999994
 20
731.6153
 30
0.0
 10
463.9523
 20
713.3244
 30
0.0
 10
476.3786999999998
 20
688.7977000000001
 30
0.0
 10
491.5920999999999
 20
676.2728000000001
 30
0.0
 10
491.5920999999999
 20
676.2728000000001
 30
0.0
 10
498.1974999999998
 20
671.2207000000001
 30
0.0
 10
504.6304999999998
 20
668.8011
 30
0.0
 10
512.6135999999999
 20
666.7993
 30
0.0
 10
512.6135999999999
 20
666.7993
 30
0.0
 10
541.4770999999998
 20
662.5647
 30
0.0
 10
576.9613999999999
 20
662.2876
 30
0.0
 10
607.0030999999999
 20
660.0789
 30
0.0
  0
SPLINE
  5
4A
330
17
100
AcDbEntity
  8
dxf_samples_SSANG_YONG_KYRON_1_layer 2
 62
142
370
158
100
AcDbSpline
 70
24
 71
3
 72
8
 73
4
 74
0
 42
1e-09
 40
0.0
 40
0.0
 40
0.0
 40
0.0
 40
1.0
 40
1.0
 40
1.0
 40
1.0
 10
492.45059999999995
 20
675.1904000000001
 30
0.0
 10
492.45059999999995
 20
675.1904000000001
 30
0.0
 10
527.8240999999998
 20
908.5873
 30
0.0
 10
527.8240999999998
 20
908.5873
 30
0.0
  0
SPLINE
  5
4B
330
17
100
AcDbEntity
  8
dxf_samples_SSANG_YONG_KYRON_1_layer 2
 62
142
370
158
100
AcDbSpline
 70
8
 71
3
 72
12
 73
8
 74
0
 42
1e-09
 40
0.0
 40
0.0
 40
0.0
 40
0.0
 40
0.3333333333333333
 40
0.3333333333333333
 40
0.3333333333333333
 40
0.3333333333333333
 40
1.0
 40
1.0
 40
1.0
 40
1.0
 10
619.9244999999999
 20
868.2968000000001
 30
0.0
 10
617.9737999999998
 20
838.4327000000001
 30
0.0
 10
615.0659999999998
 20
807.8291
 30
0.0
 10
614.0386999999998
 20
778.0110000000001
 30
0.0
 10
614.0386999999998
 20
778.0110000000001
 30
0.0
 10
613.473
 20
761.5888
 30
0.0
 10
617.8800999999999
 20
744.1794
 30
0.0
 10
620.8226
 20
728.0269000000001
 30
0.0
  0
SPLINE
  5
4C
330
17
100
AcDbEntity
  8
dxf_samples_SSANG_YONG_KYRON_1_layer 2
 62
142
370
158
100
AcDbSpline
 70
8
 71
3
 72
16
 73
12
 74
0
 42
1e-09
 40
0.0
 40
0.0
 40
0.0
 40
0.0
 40
0.25
 40
0.25
 40
0.25
 40
0.25
 40
0.5
 40
0.5
 40
0.5
 40
0.5
 40
1.0
 40
1.0
 40
1.0
 40
1.0
 10
620.1526999999999
 20
135.6957
 30
0.0
 10
606.5685999999998
 20
137.34270000000004
 30
0.0
 10
592.8158999999998
 20
140.1631
 30
0.0
 10
579.1095999999998
 20
138.74710000000005
 30
0.0
 10
579.1095999999998
 20
138.74710000000005
 30
0.0
 10
570.0133999999998
 20
137.80740000000003
 30
0.0
 10
561.0120999999999
 20
136.26230000000004
 30
0.0
 10
551.9545999999998
 20
135.0675
 30
0.0
 10
551.9545999999998
 20
135.0675
 30
0.0
 10
551.9545999999998
 20
135.0675
 30
0.0
 10
551.3144
 20
134.98310000000004
 30
0.0
 10
551.3144
 20
134.98310000000004
 30
0.0
  0
SPLINE
  5
4D
330
17
100
AcDbEntity
  8
dxf_samples_SSANG_YONG_KYRON_1_layer 2
 62
142
370
158
100
AcDbSpline
 70
8
 71
3
 72
20
 73
16
 74
0
 42
1e-09
 40
0.0
 40
0.0
 40
0.0
 40
0.0
 40
0.2
 40
0.2
 40
0.2
 40
0.2
 40
0.4
 40
0.4
 40
0.4
 40
0.4
 40
0.6
 40
0.6
 40
0.6
 40
0.6
 40
1.0
 40
1.0
 40
1.0
 40
1.0
 10
496.89399999999983
 20
102.58720000000005
 30
0.0
 10
469.0257
 20
108.31670000000003
 30
0.0
 10
436.0332999999999
 20
117.56130000000002
 30
0.0
 10
408.0122999999999
 20
118.17810000000003
 30
0.0
 10
408.0122999999999
 20
118.17810000000003
 30
0.0
 10
387.8809999999999
 20
118.62120000000004
 30
0.0
 10
366.6482999999999
 20
116.88800000000003
 30
0.0
 10
346.3438999999999
 20
116.32920000000001
 30
0.0
 10
346.3438999999999
 20
116.32920000000001
 30
0.0
 10
311.03839999999997
 20
115.35760000000005
 30
0.0
 10
270.46009999999984
 20
111.81230000000005
 30
0.0
 10
236.55630000000002
 20
101.89370000000002
 30
0.0
 10
236.55630000000002
 20
101.89370000000002
 30
0.0
 10
218.8007999999998
 20
96.62440000000004
 30
0.0
 10
200.8761
 20
90.60040000000004
 30
0.0
 10
183.09019999999992
 20
85.12080000000003
 30
0.0
  0
SPLINE
  5
4E
330
17
100
AcDbEntity
  8
dxf_samples_SSANG_YONG_KYRON_1_layer 2
 62
142
370
158
100
AcDbSpline
 70
8
 71
3
 72
24
 73
20
 74
0
 42
1e-09
 40
0.0
 40
0.0
 40
0.0
 40
0.0
 40
0.1666666666666667
 40
0.1666666666666667
 40
0.1666666666666667
 40
0.1666666666666667
 40
0.3333333333333333
 40
0.3333333333333333
 40
0.3333333333333333
 40
0.3333333333333333
 40
0.5
 40
0.5
 40
0.5
 40
0.5
 40
0.6666666666666666
 40
0.6666666666666666
 40
0.6666666666666666
 40
0.6666666666666666
 40
1.0
 40
1.0
 40
1.0
 40
1.0
 10
108.15500000000003
 20
100.84280000000001
 30
0.0
 10
133.1325
 20
123.9176
 30
0.0
 10
134.41439999999994
 20
118.61420000000004
 30
0.0
 10
166.1454999999999
 20
124.53470000000004
 30
0.0
 10
166.1454999999999
 20
124.53470000000004
 30
0.0
 10
215.53199999999998
 20
133.74940000000004
 30
0.0
 10
258.6668
 20
143.54010000000005
 30
0.0
 10
309.40989999999994
 20
145.5852
 30
0.0
 10
309.40989999999994
 20
145.5852
 30
0.0
 10
331.5051999999999
 20
146.43860000000006
 30
0.0
 10
355.0386999999999
 20
146.98920000000004
 30
0.0
 10
377.13489999999985
 20
146.94389999999999
 30
0.0
 10
377.13489999999985
 20
146.94389999999999
 30
0.0
 10
403.2463999999998
 20
146.8904
 30
0.0
 10
427.0006999999999
 20
145.04520000000002
 30
0.0
 10
452.7097999999999
 20
140.26820000000004
 30
0.0
 10
452.7097999999999
 20
140.26820000000004
 30
0.0
 10
468.3326
 20
137.28870000000006
 30
0.0
 10
483.89219999999983
 20
133.97350000000006
 30
0.0
 10
499.4976
 20
130.8999
 30
0.0
  0
SPLINE
  5
4F
330
17
100
AcDbEntity
  8
dxf_samples_SSANG_YONG_KYRON_1_layer 2
 62
142
370
158
100
AcDbSpline
 70
8
 71
3
 72
32
 73
28
 74
0
 42
1e-09
 40
0.0
 40
0.0
 40
0.0
 40
0.0
 40
0.125
 40
0.125
 40
0.125
 40
0.125
 40
0.25
 40
0.25
 40
0.25
 40
0.25
 40
0.375
 40
0.375
 40
0.375
 40
0.375
 40
0.5
 40
0.5
 40
0.5
 40
0.5
 40
0.625
 40
0.625
 40
0.625
 40
0.625
 40
0.75
 40
0.75
 40
0.75
 40
0.75
 40
1.0
 40
1.0
 40
1.0
 40
1.0
 10
132.91249999999997
 20
118.29040000000003
 30
0.0
 10
127.41119999999984
 20
161.04950000000002
 30
0.0
 10
122.17389999999983
 20
199.4647
 30
0.0
 10
121.64679999999981
 20
242.84730000000002
 30
0.0
 10
121.64679999999981
 20
242.84730000000002
 30
0.0
 10
120.90529999999995
 20
299.86400000000003
 30
0.0
 10
122.17969999999997
 20
323.8115
 30
0.0
 10
138.75259999999986
 20
379.04260000000005
 30
0.0
 10
138.75259999999986
 20
379.04260000000005
 30
0.0
 10
147.41929999999985
 20
408.2948
 30
0.0
 10
143.64899999999994
 20
410.0595
 30
0.0
 10
140.11599999999981
 20
439.1197
 30
0.0
 10
140.11599999999981
 20
439.1197
 30
0.0
 10
128.368
 20
534.9832
 30
0.0
 10
114.03929999999997
 20
630.7685
 30
0.0
 10
103.58959999999985
 20
726.7416000000001
 30
0.0
 10
103.58959999999985
 20
726.7416000000001
 30
0.0
 10
99.97120000000001
 20
759.9735000000001
 30
0.0
 10
100.84629999999999
 20
795.1328
 30
0.0
 10
99.43639999999988
 20
828.7606000000001
 30
0.0
 10
99.43639999999988
 20
828.7606000000001
 30
0.0
 10
98.78019999999998
 20
844.4124
 30
0.0
 10
98.69139999999999
 20
857.9949
 30
0.0
 10
101.63129999999984
 20
873.5026
 30
0.0
 10
101.63129999999984
 20
873.5026
 30
0.0
 10
103.12909999999994
 20
880.7765
 30
0.0
 10
105.06360000000001
 20
887.9957
 30
0.0
 10
106.78839999999997
 20
895.2234
 30
0.0
  0
SPLINE
  5
50
330
17
100
AcDbEntity
  8
dxf_samples_SSANG_YONG_KYRON_1_layer 2
 62
142
370
158
100
AcDbSpline
 70
8
 71
3
 72
32
 73
28
 74
0
 42
1e-09
 40
0.0
 40
0.0
 40
0.0
 40
0.0
 40
0.125
 40
0.125
 40
0.125
 40
0.125
 40
0.25
 40
0.25
 40
0.25
 40
0.25
 40
0.375
 40
0.375
 40
0.375
 40
0.375
 40
0.5
 40
0.5
 40
0.5
 40
0.5
 40
0.625
 40
0.625
 40
0.625
 40
0.625
 40
0.75
 40
0.75
 40
0.75
 40
0.75
 40
1.0
 40
1.0
 40
1.0
 40
1.0
 10
165.96649999999983
 20
124.27160000000003
 30
0.0
 10
172.8952
 20
159.54650000000004
 30
0.0
 10
179.96660000000003
 20
194.5842
 30
0.0
 10
187.15619999999996
 20
229.8023
 30
0.0
 10
187.15619999999996
 20
229.8023
 30
0.0
 10
195.30869999999987
 20
269.7368
 30
0.0
 10
199.49279999999982
 20
283.63190000000003
 30
0.0
 10
186.69339999999994
 20
323.5419
 30
0.0
 10
186.69339999999994
 20
323.5419
 30
0.0
 10
183.8945999999999
 20
332.1972
 30
0.0
 10
180.64889999999997
 20
340.37530000000004
 30
0.0
 10
176.81609999999984
 20
348.62230000000005
 30
0.0
 10
176.81609999999984
 20
348.62230000000005
 30
0.0
 10
170.05929999999995
 20
362.63210000000004
 30
0.0
 10
161.65439999999995
 20
374.846
 30
0.0
 10
152.9290999999999
 20
387.6456
 30
0.0
 10
152.9290999999999
 20
387.6456
 30
0.0
 10
150.6814
 20
390.9427
 30
0.0
 10
148.44310000000002
 20
394.244
 30
0.0
 10
146.21679999999998
 20
397.5556
 30
0.0
 10
146.21679999999998
 20
397.5556
 30
0.0
 10
146.21679999999998
 20
397.5556
 30
0.0
 10
145.3852
 20
398.7948
 30
0.0
 10
145.3852
 20
398.7948
 30
0.0
 10
145.3852
 20
398.7948
 30
0.0
 10
145.3852
 20
398.7948
 30
0.0
 10
144.54609999999985
 20
400.0459
 30
0.0
 10
144.54609999999985
 20
400.0459
 30
0.0
  0
ELLIPSE
  5
51
330
17
100
AcDbEntity
  8
dxf_samples_SSANG_YONG_KYRON_1_layer 2
 62
142
370
200
100
AcDbEllipse
 10
491.41179999999986
 20
191.02480000000003
 30
0.0
 11
0.0
 21
10.0
 31
0.0
 40
1.0
 41
0.0
 42
6.283185307179586
  0
ELLIPSE
  5
52
330
17
100
AcDbEntity
  8
dxf_samples_SSANG_YONG_KYRON_1_layer 2
 62
142
370
200
100
AcDbEllipse
 10
274.18859999999995
 20
177.79550000000003
 30
0.0
 11
0.0
 21
10.0
 31
0.0
 40
1.0
 41
0.0
 42
6.283185307179586
  0
SPLINE
  5
53
330
17
100
AcDbEntity
  8
dxf_samples_SSANG_YONG_KYRON_1_layer 3
 62
242
370
158
100
AcDbSpline
 70
11
 71
3
 72
200
 73
196
 74
0
 42
1e-09
 40
0.0
 40
0.0
 40
0.0
 40
0.0
 40
0.02
 40
0.02
 40
0.02
 40
0.02
 40
0.04
 40
0.04
 40
0.04
 40
0.04
 40
0.06
 40
0.06
 40
0.06
 40
0.06
 40
0.08
 40
0.08
 40
0.08
 40
0.08
 40
0.1
 40
0.1
 40
0.1
 40
0.1
 40
0.12
 40
0.12
 40
0.12
 40
0.12
 40
0.14
 40
0.14
 40
0.14
 40
0.14
 40
0.16
 40
0.16
 40
0.16
 40
0.16
 40
0.18
 40
0.18
 40
0.18
 40
0.18
 40
0.2
 40
0.2
 40
0.2
 40
0.2
 40
0.22
 40
0.22
 40
0.22
 40
0.22
 40
0.24
 40
0.24
 40
0.24
 40
0.24
 40
0.26
 40
0.26
 40
0.26
 40
0.26
 40
0.28
 40
0.28
 40
0.28
 40
0.28
 40
0.3
 40
0.3
 40
0.3
 40
0.3
 40
0.32
 40
0.32
 40
0.32
 40
0.32
 40
0.34
 40
0.34
 40
0.34
 40
0.34
 40
0.36
 40
0.36
 40
0.36
 40
0.36
 40
0.38
 40
0.38
 40
0.38
 40
0.38
 40
0.4
 40
0.4
 40
0.4
 40
0.4
 40
0.42
 40
0.42
 40
0.42
 40
0.42
 40
0.44
 40
0.44
 40
0.44
 40
0.44
 40
0.46
 40
0.46
 40
0.46
 40
0.46
 40
0.48
 40
0.48
 40
0.48
 40
0.48
 40
0.5
 40
0.5
 40
0.5
 40
0.5
 40
0.52
 40
0.52
 40
0.52
 40
0.52
 40
0.54
 40
0.54
 40
0.54
 40
0.54
 40
0.56
 40
0.56
 40
0.56
 40
0.56
 40
0.58
 40
0.58
 40
0.58
 40
0.58
 40
0.6
 40
0.6
 40
0.6
 40
0.6
 40
0.62
 40
0.62
 40
0.62
 40
0.62
 40
0.64
 40
0.64
 40
0.64
 40
0.64
 40
0.66
 40
0.66
 40
0.66
 40
0.66
 40
0.68
 40
0.68
 40
0.68
 40
0.68
 40
0.7
 40
0.7
 40
0.7
 40
0.7
 40
0.72
 40
0.72
 40
0.72
 40
0.72
 40
0.74
 40
0.74
 40
0.74
 40
0.74
 40
0.76
 40
0.76
 40
0.76
 40
0.76
 40
0.78
 40
0.78
 40
0.78
 40
0.78
 40
0.8
 40
0.8
 40
0.8
 40
0.8
 40
0.82
 40
0.82
 40
0.82
 40
0.82
 40
0.84
 40
0.84
 40
0.84
 40
0.84
 40
0.86
 40
0.86
 40
0.86
 40
0.86
 40
0.88
 40
0.88
 40
0.88
 40
0.88
 40
0.9
 40
0.9
 40
0.9
 40
0.9
 40
0.92
 40
0.92
 40
0.92
 40
0.92
 40
0.94
 40
0.94
 40
0.94
 40
0.94
 40
0.96
 40
0.96
 40
0.96
 40
0.96
 40
1.0
 40
1.0
 40
1.0
 40
1.0
 10
625.5050999999999
 20
748.3725000000001
 30
0.0
 10
617.0980999999999
 20
710.0654000000001
 30
0.0
 10
606.5065999999999
 20
675.6311000000001
 30
0.0
 10
604.9821
 20
635.9765
 30
0.0
 10
604.9821
 20
635.9765
 30
0.0
 10
604.2918
 20
618.0207
 30
0.0
 10
604.3271
 20
599.4502
 30
0.0
 10
603.9999999999998
 20
581.3967
 30
0.0
 10
603.9999999999998
 20
581.3967
 30
0.0
 10
603.1813999999999
 20
525.5429
 30
0.0
 10
607.2411999999999
 20
468.1821
 30
0.0
 10
609.3161999999998
 20
412.2076
 30
0.0
 10
609.3161999999998
 20
412.2076
 30
0.0
 10
612.5709999999999
 20
324.18800000000005
 30
0.0
 10
614.6618999999998
 20
235.76420000000002
 30
0.0
 10
619.0808999999999
 20
147.836
 30
0.0
 10
619.0808999999999
 20
147.836
 30
0.0
 10
620.1117999999999
 20
127.32320000000004
 30
0.0
 10
625.3346999999999
 20
107.99880000000002
 30
0.0
 10
629.1509999999998
 20
87.93619999999999
 30
0.0
 10
629.1509999999998
 20
87.93619999999999
 30
0.0
 10
631.5836999999999
 20
75.274
 30
0.0
 10
644.0767999999998
 20
20.17349999999999
 30
0.0
 10
641.7524999999998
 20
11.770200000000045
 30
0.0
 10
641.7524999999998
 20
11.770200000000045
 30
0.0
 10
640.2036999999998
 20
6.170500000000004
 30
0.0
 10
634.3521999999998
 20
6.603200000000015
 30
0.0
 10
629.1230999999998
 20
5.949299999999994
 30
0.0
 10
629.1230999999998
 20
5.949299999999994
 30
0.0
 10
619.6224
 20
4.7894000000000005
 30
0.0
 10
574.9154999999998
 20
0.0
 30
0.0
 10
569.1960999999999
 20
4.807000000000016
 30
0.0
 10
569.1960999999999
 20
4.807000000000016
 30
0.0
 10
563.7795999999998
 20
9.359500000000025
 30
0.0
 10
561.9558
 20
38.46370000000002
 30
0.0
 10
561.0576999999998
 20
46.4846
 30
0.0
 10
561.0576999999998
 20
46.4846
 30
0.0
 10
558.8462999999999
 20
62.242200000000025
 30
0.0
 10
556.2087999999999
 20
75.79960000000005
 30
0.0
 10
558.4804999999999
 20
91.77260000000001
 30
0.0
 10
558.4804999999999
 20
91.77260000000001
 30
0.0
 10
559.8353
 20
101.29920000000004
 30
0.0
 10
565.1056999999998
 20
130.55990000000003
 30
0.0
 10
552.8602999999998
 20
134.53190000000006
 30
0.0
 10
552.8602999999998
 20
134.53190000000006
 30
0.0
 10
542.2707999999998
 20
137.96670000000006
 30
0.0
 10
506.5839999999999
 20
140.89140000000003
 30
0.0
 10
499.4976
 20
130.8999
 30
0.0
 10
499.4976
 20
130.8999
 30
0.0
 10
495.82099999999997
 20
124.5281
 30
0.0
 10
497.09289999999993
 20
103.77250000000004
 30
0.0
 10
496.92889999999994
 20
95.28000000000003
 30
0.0
 10
496.92889999999994
 20
95.28000000000003
 30
0.0
 10
496.8285999999999
 20
87.62480000000005
 30
0.0
 10
497.7454999999998
 20
65.54290000000003
 30
0.0
 10
494.7983
 20
59.72120000000001
 30
0.0
 10
494.7983
 20
59.72120000000001
 30
0.0
 10
493.0557999999999
 20
56.27910000000003
 30
0.0
 10
489.5603999999999
 20
54.44210000000004
 30
0.0
 10
485.46369999999985
 20
53.4547
 30
0.0
 10
485.46369999999985
 20
53.4547
 30
0.0
 10
469.98509999999993
 20
49.72380000000004
 30
0.0
 10
396.3308
 20
47.83590000000004
 30
0.0
 10
327.18609999999995
 20
45.495700000000056
 30
0.0
 10
327.18609999999995
 20
45.495700000000056
 30
0.0
 10
288.6057999999999
 20
44.18380000000002
 30
0.0
 10
249.3951
 20
42.11560000000003
 30
0.0
 10
210.86409999999984
 20
41.56130000000002
 30
0.0
 10
210.86409999999984
 20
41.56130000000002
 30
0.0
 10
194.35239999999982
 20
41.323800000000006
 30
0.0
 10
187.4887999999999
 20
40.33760000000001
 30
0.0
 10
187.7702
 20
62.30550000000005
 30
0.0
 10
187.7702
 20
62.30550000000005
 30
0.0
 10
187.83189999999996
 20
67.11860000000001
 30
0.0
 10
188.0446
 20
70.57600000000002
 30
0.0
 10
187.52550000000002
 20
75.4719
 30
0.0
 10
187.52550000000002
 20
75.4719
 30
0.0
 10
183.23470000000003
 20
95.46430000000004
 30
0.0
 10
157.62169999999998
 20
99.77600000000007
 30
0.0
 10
140.66349999999994
 20
102.89330000000007
 30
0.0
 10
140.66349999999994
 20
102.89330000000007
 30
0.0
 10
114.78879999999987
 20
107.64970000000005
 30
0.0
 10
116.88549999999992
 20
102.59879999999998
 30
0.0
 10
93.9788999999999
 20
95.94950000000006
 30
0.0
 10
93.9788999999999
 20
95.94950000000006
 30
0.0
 10
86.6545999999999
 20
93.89320000000004
 30
0.0
 10
56.26909999999981
 20
91.6472
 30
0.0
 10
50.52349999999984
 20
95.84340000000003
 30
0.0
 10
50.52349999999984
 20
95.84340000000003
 30
0.0
 10
48.17729999999989
 20
98.03740000000005
 30
0.0
 10
47.07260000000002
 20
101.62990000000002
 30
0.0
 10
46.55749999999995
 20
105.58780000000002
 30
0.0
 10
46.55749999999995
 20
105.58780000000002
 30
0.0
 10
40.790299999999945
 20
156.9561
 30
0.0
 10
48.71059999999994
 20
211.0399
 30
0.0
 10
51.484499999999855
 20
262.69070000000005
 30
0.0
 10
51.484499999999855
 20
262.69070000000005
 30
0.0
 10
53.12330000000003
 20
293.20520000000005
 30
0.0
 10
55.12610000000001
 20
322.7121
 30
0.0
 10
58.108399999999904
 20
353.1419
 30
0.0
 10
58.108399999999904
 20
353.1419
 30
0.0
 10
62.83329999999984
 20
403.26360000000005
 30
0.0
 10
51.95760000000001
 20
462.27430000000004
 30
0.0
 10
43.6844999999999
 20
512.1116000000001
 30
0.0
 10
43.6844999999999
 20
512.1116000000001
 30
0.0
 10
34.10880000000003
 20
569.7950000000001
 30
0.0
 10
20.246199999999874
 20
612.3177000000001
 30
0.0
 10
5.641899999999907
 20
667.1489
 30
0.0
 10
5.641899999999907
 20
667.1489
 30
0.0
 10
3.750699999999881
 20
674.2492
 30
0.0
 10
-5.684341886080802e-14
 20
685.2187
 30
0.0
 10
9.607599999999877
 20
687.3566000000001
 30
0.0
 10
9.607599999999877
 20
687.3566000000001
 30
0.0
 10
14.67029999999994
 20
688.4831
 30
0.0
 10
26.592999999999904
 20
688.5446000000001
 30
0.0
 10
32.59499999999986
 20
688.9541
 30
0.0
 10
32.59499999999986
 20
688.9541
 30
0.0
 10
42.642499999999984
 20
689.6044
 30
0.0
 10
87.7783
 20
691.3317000000001
 30
0.0
 10
93.48059999999992
 20
695.1985000000001
 30
0.0
 10
93.48059999999992
 20
695.1985000000001
 30
0.0
 10
101.90399999999983
 20
700.9104
 30
0.0
 10
92.32879999999983
 20
709.1142
 30
0.0
 10
86.47409999999996
 20
712.0752
 30
0.0
 10
86.47409999999996
 20
712.0752
 30
0.0
 10
76.43649999999985
 20
717.1517
 30
0.0
 10
62.64309999999983
 20
721.6733
 30
0.0
 10
51.88259999999997
 20
725.7344
 30
0.0
 10
51.88259999999997
 20
725.7344
 30
0.0
 10
42.01949999999994
 20
729.4411
 30
0.0
 10
13.873599999999954
 20
738.9300000000001
 30
0.0
 10
8.50329999999991
 20
746.9672
 30
0.0
 10
8.50329999999991
 20
746.9672
 30
0.0
 10
4.163699999999892
 20
753.4619
 30
0.0
 10
5.24209999999988
 20
761.7965
 30
0.0
 10
7.959599999999966
 20
770.1146
 30
0.0
 10
7.959599999999966
 20
770.1146
 30
0.0
 10
20.69449999999989
 20
809.0935000000001
 30
0.0
 10
32.61289999999991
 20
834.6773000000001
 30
0.0
 10
63.25290000000001
 20
862.7032
 30
0.0
 10
63.25290000000001
 20
862.7032
 30
0.0
 10
90.3109
 20
887.1779
 30
0.0
 10
139.051
 20
917.9197
 30
0.0
 10
175.0512999999999
 20
928.4004
 30
0.0
 10
175.0512999999999
 20
928.4004
 30
0.0
 10
197.9556999999998
 20
935.0684
 30
0.0
 10
284.78609999999986
 20
950.9961000000001
 30
0.0
 10
306.7162999999999
 20
943.1011
 30
0.0
 10
306.7162999999999
 20
943.1011
 30
0.0
 10
316.3625
 20
939.6283000000001
 30
0.0
 10
314.6208
 20
925.7961
 30
0.0
 10
315.1958
 20
917.3107
 30
0.0
 10
315.1958
 20
917.3107
 30
0.0
 10
316.46999999999986
 20
897.1544
 30
0.0
 10
315.56569999999994
 20
864.0980000000001
 30
0.0
 10
332.9135999999999
 20
850.4926
 30
0.0
 10
332.9135999999999
 20
850.4926
 30
0.0
 10
340.6938999999998
 20
844.7187
 30
0.0
 10
350.8330999999999
 20
842.4085
 30
0.0
 10
361.5793999999999
 20
841.6788
 30
0.0
 10
361.5793999999999
 20
841.6788
 30
0.0
 10
378.2938
 20
840.5438
 30
0.0
 10
424.14479999999986
 20
841.922
 30
0.0
 10
440.3910999999999
 20
844.9805
 30
0.0
 10
440.3910999999999
 20
844.9805
 30
0.0
 10
451.10179999999997
 20
846.9968
 30
0.0
 10
461.09599999999983
 20
850.9626000000001
 30
0.0
 10
468.83369999999996
 20
858.7885
 30
0.0
 10
468.83369999999996
 20
858.7885
 30
0.0
 10
481.14749999999987
 20
871.2426
 30
0.0
 10
510.36399999999986
 20
901.4764
 30
0.0
 10
525.1949
 20
907.7722
 30
0.0
 10
525.1949
 20
907.7722
 30
0.0
 10
541.627
 20
913.3122000000001
 30
0.0
 10
566.3389999999999
 20
912.6679
 30
0.0
 10
583.6872999999998
 20
911.3357
 30
0.0
 10
583.6872999999998
 20
911.3357
 30
0.0
 10
598.2770999999998
 20
910.2153000000001
 30
0.0
 10
603.3296999999998
 20
904.409
 30
0.0
 10
609.1752999999999
 20
891.5211
 30
0.0
 10
609.1752999999999
 20
891.5211
 30
0.0
 10
612.6940999999999
 20
883.7632
 30
0.0
 10
616.4175999999998
 20
870.4857000000001
 30
0.0
 10
622.8819999999998
 20
865.0777
 30
0.0
 10
622.8819999999998
 20
865.0777
 30
0.0
 10
631.4549
 20
858.916
 30
0.0
 10
639.9556999999998
 20
861.6610000000001
 30
0.0
 10
638.5934
 20
845.7520000000001
 30
0.0
 10
638.5934
 20
845.7520000000001
 30
0.0
 10
638.0029
 20
838.8565
 30
0.0
 10
636.4797999999998
 20
830.3269
 30
0.0
 10
635.5548999999999
 20
823.2267
 30
0.0
 10
635.5548999999999
 20
823.2267
 30
0.0
 10
632.3030999999999
 20
798.2626
 30
0.0
 10
628.9030999999998
 20
773.3171
 30
0.0
 10
625.5050999999999
 20
748.3725000000001
 30
0.0
  0
SPLINE
  5
54
330
17
100
AcDbEntity
  8
dxf_samples_SSANG_YONG_ACTYON_2_2_layer 2
 62
142
370
158
100
AcDbSpline
 70
8
 71
3
 72
44
 73
40
 74
0
 42
1e-09
 40
0.0
 40
0.0
 40
0.0
 40
0.0
 40
0.0909090909090909
 40
0.0909090909090909
 40
0.0909090909090909
 40
0.0909090909090909
 40
0.1818181818181818
 40
0.1818181818181818
 40
0.1818181818181818
 40
0.1818181818181818
 40
0.2727272727272727
 40
0.2727272727272727
 40
0.2727272727272727
 40
0.2727272727272727
 40
0.3636363636363636
 40
0.3636363636363636
 40
0.3636363636363636
 40
0.3636363636363636
 40
0.4545454545454545
 40
0.4545454545454545
 40
0.4545454545454545
 40
0.4545454545454545
 40
0.5454545454545454
 40
0.5454545454545454
 40
0.5454545454545454
 40
0.5454545454545454
 40
0.6363636363636364
 40
0.6363636363636364
 40
0.6363636363636364
 40
0.6363636363636364
 40
0.7272727272727273
 40
0.7272727272727273
 40
0.7272727272727273
 40
0.7272727272727273
 40
0.8181818181818182
 40
0.8181818181818182
 40
0.8181818181818182
 40
0.8181818181818182
 40
1.0
 40
1.0
 40
1.0
 40
1.0
 10
1277.9310999999998
 20
584.1387
 30
0.0
 10
1268.3990999999996
 20
511.7446
 30
0.0
 10
1262.4877999999999
 20
459.9593
 30
0.0
 10
1271.5177999999999
 20
386.4227
 30
0.0
 10
1271.5177999999999
 20
386.4227
 30
0.0
 10
1282.0275999999997
 20
302.5776
 30
0.0
 10
1300.8271999999997
 20
220.3924
 30
0.0
 10
1310.8994999999998
 20
136.1796
 30
0.0
 10
1310.8994999999998
 20
136.1796
 30
0.0
 10
1313.2679999999998
 20
116.91810000000004
 30
0.0
 10
1322.6260999999997
 20
61.926499999999976
 30
0.0
 10
1317.5598999999997
 20
46.044399999999996
 30
0.0
 10
1317.5598999999997
 20
46.044399999999996
 30
0.0
 10
1312.8668999999998
 20
33.73840000000001
 30
0.0
 10
1303.7970999999998
 20
37.20830000000001
 30
0.0
 10
1293.3563999999997
 20
39.57990000000001
 30
0.0
 10
1293.3563999999997
 20
39.57990000000001
 30
0.0
 10
1268.0948999999998
 20
45.252800000000036
 30
0.0
 10
1240.5645999999997
 20
51.49330000000003
 30
0.0
 10
1215.0721999999998
 20
55.40469999999999
 30
0.0
 10
1215.0721999999998
 20
55.40469999999999
 30
0.0
 10
1195.2115999999996
 20
58.451899999999966
 30
0.0
 10
1168.3876999999998
 20
56.72750000000002
 30
0.0
 10
1147.6790999999998
 20
56.7774
 30
0.0
 10
1147.6790999999998
 20
56.7774
 30
0.0
 10
1067.8446999999996
 20
56.97430000000003
 30
0.0
 10
987.8810999999998
 20
57.54930000000002
 30
0.0
 10
908.0640999999998
 20
57.41699999999997
 30
0.0
 10
908.0640999999998
 20
57.41699999999997
 30
0.0
 10
894.5230999999998
 20
57.394600000000025
 30
0.0
 10
892.5717999999997
 20
56.4101
 30
0.0
 10
885.1864999999998
 20
45.19419999999997
 30
0.0
 10
885.1864999999998
 20
45.19419999999997
 30
0.0
 10
879.0605999999998
 20
35.89089999999999
 30
0.0
 10
874.0814999999998
 20
38.46139999999997
 30
0.0
 10
863.8087999999998
 20
39.41300000000001
 30
0.0
 10
863.8087999999998
 20
39.41300000000001
 30
0.0
 10
840.1398999999998
 20
41.605399999999975
 30
0.0
 10
815.9525999999997
 20
42.722699999999975
 30
0.0
 10
792.1702999999998
 20
44.603800000000035
 30
0.0
  0
SPLINE
  5
55
330
17
100
AcDbEntity
  8
dxf_samples_SSANG_YONG_ACTYON_2_2_layer 2
 62
142
370
158
100
AcDbSpline
 70
8
 71
3
 72
16
 73
12
 74
0
 42
1e-09
 40
0.0
 40
0.0
 40
0.0
 40
0.0
 40
0.25
 40
0.25
 40
0.25
 40
0.25
 40
0.5
 40
0.5
 40
0.5
 40
0.5
 40
1.0
 40
1.0
 40
1.0
 40
1.0
 10
788.1500999999998
 20
50.452499999999986
 30
0.0
 10
788.1500999999998
 20
50.452499999999986
 30
0.0
 10
785.3056999999998
 20
211.3852
 30
0.0
 10
785.3056999999998
 20
211.3852
 30
0.0
 10
785.3056999999998
 20
211.3852
 30
0.0
 10
785.3056999999998
 20
211.3852
 30
0.0
 10
789.0097999999998
 20
334.6808
 30
0.0
 10
789.0097999999998
 20
334.6808
 30
0.0
 10
789.0097999999998
 20
334.6808
 30
0.0
 10
789.0097999999998
 20
334.6808
 30
0.0
 10
797.1173999999997
 20
530.479
 30
0.0
 10
797.1173999999997
 20
530.479
 30
0.0
  0
SPLINE
  5
56
330
17
100
AcDbEntity
  8
dxf_samples_SSANG_YONG_ACTYON_2_2_layer 2
 62
142
370
158
100
AcDbSpline
 70
8
 71
3
 72
28
 73
24
 74
0
 42
1e-09
 40
0.0
 40
0.0
 40
0.0
 40
0.0
 40
0.1428571428571428
 40
0.1428571428571428
 40
0.1428571428571428
 40
0.1428571428571428
 40
0.2857142857142857
 40
0.2857142857142857
 40
0.2857142857142857
 40
0.2857142857142857
 40
0.4285714285714285
 40
0.4285714285714285
 40
0.4285714285714285
 40
0.4285714285714285
 40
0.5714285714285714
 40
0.5714285714285714
 40
0.5714285714285714
 40
0.5714285714285714
 40
0.7142857142857143
 40
0.7142857142857143
 40
0.7142857142857143
 40
0.7142857142857143
 40
1.0
 40
1.0
 40
1.0
 40
1.0
 10
796.5782999999998
 20
517.4575
 30
0.0
 10
822.5997999999997
 20
529.1619
 30
0.0
 10
845.2096999999998
 20
539.6557
 30
0.0
 10
870.1347999999998
 20
553.8118
 30
0.0
 10
870.1347999999998
 20
553.8118
 30
0.0
 10
898.4276999999997
 20
569.9209
 30
0.0
 10
920.6595999999997
 20
583.9528
 30
0.0
 10
945.5252999999998
 20
605.2628
 30
0.0
 10
945.5252999999998
 20
605.2628
 30
0.0
 10
963.9004999999997
 20
620.7366
 30
0.0
 10
972.8384999999998
 20
619.2819
 30
0.0
 10
995.8579999999997
 20
618.1389
 30
0.0
 10
995.8579999999997
 20
618.1389
 30
0.0
 10
1021.8924999999997
 20
616.8269
 30
0.0
 10
1048.5057999999997
 20
615.0375
 30
0.0
 10
1074.5263999999997
 20
613.196
 30
0.0
 10
1074.5263999999997
 20
613.196
 30
0.0
 10
1101.4303999999997
 20
611.292
 30
0.0
 10
1128.7603999999997
 20
608.5564
 30
0.0
 10
1155.7070999999999
 20
606.2963
 30
0.0
 10
1155.7070999999999
 20
606.2963
 30
0.0
 10
1194.4845999999998
 20
603.0439
 30
0.0
 10
1233.2620999999997
 20
599.7915
 30
0.0
 10
1272.0394999999999
 20
596.5389
 30
0.0
  0
SPLINE
  5
57
330
17
100
AcDbEntity
  8
dxf_samples_SSANG_YONG_ACTYON_2_2_layer 2
 62
142
370
158
100
AcDbSpline
 70
8
 71
3
 72
16
 73
12
 74
0
 42
1e-09
 40
0.0
 40
0.0
 40
0.0
 40
0.0
 40
0.25
 40
0.25
 40
0.25
 40
0.25
 40
0.5
 40
0.5
 40
0.5
 40
0.5
 40
1.0
 40
1.0
 40
1.0
 40
1.0
 10
959.9306999999998
 20
615.933
 30
0.0
 10
980.9535999999998
 20
635.7246
 30
0.0
 10
979.9257999999998
 20
640.6868
 30
0.0
 10
988.4443999999997
 20
667.3522
 30
0.0
 10
988.4443999999997
 20
667.3522
 30
0.0
 10
1006.9392999999998
 20
725.246
 30
0.0
 10
1004.7183999999997
 20
776.2556
 30
0.0
 10
1006.9112999999998
 20
835.3325
 30
0.0
 10
1006.9112999999998
 20
835.3325
 30
0.0
 10
1006.9112999999998
 20
835.3325
 30
0.0
 10
1006.9203999999997
 20
835.575
 30
0.0
 10
1006.9203999999997
 20
835.575
 30
0.0
  0
ELLIPSE
  5
58
330
17
100
AcDbEntity
  8
dxf_samples_SSANG_YONG_ACTYON_2_2_layer 2
 62
142
370
200
100
AcDbEllipse
 10
1288.2144999999998
 20
83.5074
 30
0.0
 11
0.0
 21
10.0
 31
0.0
 40
1.0
 41
0.0
 42
6.283185307179586
  0
ELLIPSE
  5
59
330
17
100
AcDbEntity
  8
dxf_samples_SSANG_YONG_ACTYON_2_2_layer 2
 62
142
370
200
100
AcDbEllipse
 10
831.4763999999998
 20
79.9534
 30
0.0
 11
0.0
 21
10.0
 31
0.0
 40
1.0
 41
0.0
 42
6.283185307179586
  0
SPLINE
  5
5A
330
17
100
AcDbEntity
  8
dxf_samples_SSANG_YONG_ACTYON_2_2_layer 2
 62
250
370
9
100
AcDbSpline
 70
24
 71
3
 72
8
 73
4
 74
0
 42
1e-09
 40
0.0
 40
0.0
 40
0.0
 40
0.0
 40
1.0
 40
1.0
 40
1.0
 40
1.0
 10
768.8074999999997
 20
302.2915
 30
0.0
 10
768.8074999999997
 20
302.2915
 30
0.0
 10
781.1717999999997
 20
281.7472
 30
0.0
 10
781.1717999999997
 20
281.7472
 30
0.0
  0
SPLINE
  5
5B
330
17
100
AcDbEntity
  8
dxf_samples_SSANG_YONG_ACTYON_2_2_layer 2
 62
250
370
9
100
AcDbSpline
 70
24
 71
3
 72
8
 73
4
 74
0
 42
1e-09
 40
0.0
 40
0.0
 40
0.0
 40
0.0
 40
1.0
 40
1.0
 40
1.0
 40
1.0
 10
751.0775999999998
 20
302.2915
 30
0.0
 10
751.0775999999998
 20
302.2915
 30
0.0
 10
763.4418999999998
 20
281.7472
 30
0.0
 10
763.4418999999998
 20
281.7472
 30
0.0
  0
SPLINE
  5
5C
330
17
100
AcDbEntity
  8
dxf_samples_SSANG_YONG_ACTYON_2_2_layer 2
 62
250
370
9
100
AcDbSpline
 70
24
 71
3
 72
8
 73
4
 74
0
 42
1e-09
 40
0.0
 40
0.0
 40
0.0
 40
0.0
 40
1.0
 40
1.0
 40
1.0
 40
1.0
 10
1314.1389999999997
 20
330.189
 30
0.0
 10
1314.1389999999997
 20
330.189
 30
0.0
 10
1326.5032999999999
 20
309.6447
 30
0.0
 10
1326.5032999999999
 20
309.6447
 30
0.0
  0
SPLINE
  5
5D
330
17
100
AcDbEntity
  8
dxf_samples_SSANG_YONG_ACTYON_2_2_layer 2
 62
250
370
9
100
AcDbSpline
 70
24
 71
3
 72
8
 73
4
 74
0
 42
1e-09
 40
0.0
 40
0.0
 40
0.0
 40
0.0
 40
1.0
 40
1.0
 40
1.0
 40
1.0
 10
1296.4090999999999
 20
330.189
 30
0.0
 10
1296.4090999999999
 20
330.189
 30
0.0
 10
1308.7733999999998
 20
309.6447
 30
0.0
 10
1308.7733999999998
 20
309.6447
 30
0.0
  0
SPLINE
  5
5E
330
17
100
AcDbEntity
  8
dxf_samples_SSANG_YONG_ACTYON_2_2_layer 2
 62
250
370
9
100
AcDbSpline
 70
8
 71
3
 72
12
 73
8
 74
0
 42
1e-09
 40
0.0
 40
0.0
 40
0.0
 40
0.0
 40
0.3333333333333333
 40
0.3333333333333333
 40
0.3333333333333333
 40
0.3333333333333333
 40
1.0
 40
1.0
 40
1.0
 40
1.0
 10
1289.7232999999997
 20
121.2613
 30
0.0
 10
1289.7232999999997
 20
121.2613
 30
0.0
 10
1276.7741999999998
 20
121.2613
 30
0.0
 10
1276.7741999999998
 20
121.2613
 30
0.0
 10
1276.7741999999998
 20
121.2613
 30
0.0
 10
1276.7741999999998
 20
121.2613
 30
0.0
 10
1276.7741999999998
 20
146.2149
 30
0.0
 10
1276.7741999999998
 20
146.2149
 30
0.0
  0
SPLINE
  5
5F
330
17
100
AcDbEntity
  8
dxf_samples_SSANG_YONG_ACTYON_2_2_layer 3
 62
242
370
158
100
AcDbSpline
 70
11
 71
3
 72
152
 73
148
 74
0
 42
1e-09
 40
0.0
 40
0.0
 40
0.0
 40
0.0
 40
0.0263157894736842
 40
0.0263157894736842
 40
0.0263157894736842
 40
0.0263157894736842
 40
0.0526315789473684
 40
0.0526315789473684
 40
0.0526315789473684
 40
0.0526315789473684
 40
0.0789473684210526
 40
0.0789473684210526
 40
0.0789473684210526
 40
0.0789473684210526
 40
0.1052631578947368
 40
0.1052631578947368
 40
0.1052631578947368
 40
0.1052631578947368
 40
0.131578947368421
 40
0.131578947368421
 40
0.131578947368421
 40
0.131578947368421
 40
0.1578947368421053
 40
0.1578947368421053
 40
0.1578947368421053
 40
0.1578947368421053
 40
0.1842105263157895
 40
0.1842105263157895
 40
0.1842105263157895
 40
0.1842105263157895
 40
0.2105263157894737
 40
0.2105263157894737
 40
0.2105263157894737
 40
0.2105263157894737
 40
0.2368421052631579
 40
0.2368421052631579
 40
0.2368421052631579
 40
0.2368421052631579
 40
0.2631578947368421
 40
0.2631578947368421
 40
0.2631578947368421
 40
0.2631578947368421
 40
0.2894736842105263
 40
0.2894736842105263
 40
0.2894736842105263
 40
0.2894736842105263
 40
0.3157894736842105
 40
0.3157894736842105
 40
0.3157894736842105
 40
0.3157894736842105
 40
0.3421052631578947
 40
0.3421052631578947
 40
0.3421052631578947
 40
0.3421052631578947
 40
0.3684210526315789
 40
0.3684210526315789
 40
0.3684210526315789
 40
0.3684210526315789
 40
0.3947368421052632
 40
0.3947368421052632
 40
0.3947368421052632
 40
0.3947368421052632
 40
0.4210526315789473
 40
0.4210526315789473
 40
0.4210526315789473
 40
0.4210526315789473
 40
0.4473684210526316
 40
0.4473684210526316
 40
0.4473684210526316
 40
0.4473684210526316
 40
0.4736842105263158
 40
0.4736842105263158
 40
0.4736842105263158
 40
0.4736842105263158
 40
0.5
 40
0.5
 40
0.5
 40
0.5
 40
0.5263157894736842
 40
0.5263157894736842
 40
0.5263157894736842
 40
0.5263157894736842
 40
0.5526315789473685
 40
0.5526315789473685
 40
0.5526315789473685
 40
0.5526315789473685
 40
0.5789473684210527
 40
0.5789473684210527
 40
0.5789473684210527
 40
0.5789473684210527
 40
0.6052631578947368
 40
0.6052631578947368
 40
0.6052631578947368
 40
0.6052631578947368
 40
0.631578947368421
 40
0.631578947368421
 40
0.631578947368421
 40
0.631578947368421
 40
0.6578947368421053
 40
0.6578947368421053
 40
0.6578947368421053
 40
0.6578947368421053
 40
0.6842105263157895
 40
0.6842105263157895
 40
0.6842105263157895
 40
0.6842105263157895
 40
0.7105263157894737
 40
0.7105263157894737
 40
0.7105263157894737
 40
0.7105263157894737
 40
0.7368421052631579
 40
0.7368421052631579
 40
0.7368421052631579
 40
0.7368421052631579
 40
0.7631578947368421
 40
0.7631578947368421
 40
0.7631578947368421
 40
0.7631578947368421
 40
0.7894736842105263
 40
0.7894736842105263
 40
0.7894736842105263
 40
0.7894736842105263
 40
0.8157894736842105
 40
0.8157894736842105
 40
0.8157894736842105
 40
0.8157894736842105
 40
0.8421052631578947
 40
0.8421052631578947
 40
0.8421052631578947
 40
0.8421052631578947
 40
0.868421052631579
 40
0.868421052631579
 40
0.868421052631579
 40
0.868421052631579
 40
0.8947368421052632
 40
0.8947368421052632
 40
0.8947368421052632
 40
0.8947368421052632
 40
0.9210526315789473
 40
0.9210526315789473
 40
0.9210526315789473
 40
0.9210526315789473
 40
0.9473684210526315
 40
0.9473684210526315
 40
0.9473684210526315
 40
0.9473684210526315
 40
1.0
 40
1.0
 40
1.0
 40
1.0
 10
988.8330999999998
 20
836.9953
 30
0.0
 10
1046.4169999999997
 20
830.0967
 30
0.0
 10
1092.3316999999997
 20
847.3605
 30
0.0
 10
1147.1431999999998
 20
858.9815
 30
0.0
 10
1147.1431999999998
 20
858.9815
 30
0.0
 10
1187.2711999999997
 20
865.6419
 30
0.0
 10
1230.7450999999996
 20
850.2941
 30
0.0
 10
1267.6823999999997
 20
835.6283
 30
0.0
 10
1267.6823999999997
 20
835.6283
 30
0.0
 10
1284.2533999999998
 20
829.0488
 30
0.0
 10
1284.0165999999997
 20
823.7652
 30
0.0
 10
1286.4018999999998
 20
806.8776
 30
0.0
 10
1286.4018999999998
 20
806.8776
 30
0.0
 10
1288.8460999999998
 20
788.8684
 30
0.0
 10
1293.1216999999997
 20
762.0168
 30
0.0
 10
1277.3564999999999
 20
748.7575
 30
0.0
 10
1277.3564999999999
 20
748.7575
 30
0.0
 10
1253.9022999999997
 20
729.5102
 30
0.0
 10
1248.9457999999997
 20
730.8672
 30
0.0
 10
1250.0260999999998
 20
697.3194
 30
0.0
 10
1250.0260999999998
 20
697.3194
 30
0.0
 10
1251.1875999999997
 20
673.8648
 30
0.0
 10
1255.0842999999998
 20
674.7757
 30
0.0
 10
1267.3051999999998
 20
657.1563
 30
0.0
 10
1267.3051999999998
 20
657.1563
 30
0.0
 10
1277.3413999999998
 20
637.7651
 30
0.0
 10
1271.2057999999997
 20
617.5867
 30
0.0
 10
1272.3328999999999
 20
597.4707
 30
0.0
 10
1272.3328999999999
 20
597.4707
 30
0.0
 10
1276.1908999999998
 20
578.2304
 30
0.0
 10
1283.0817999999997
 20
579.5866
 30
0.0
 10
1297.9415999999997
 20
589.9466
 30
0.0
 10
1297.9415999999997
 20
589.9466
 30
0.0
 10
1301.1575999999998
 20
592.1887
 30
0.0
 10
1316.1697999999997
 20
604.0739
 30
0.0
 10
1317.8942999999997
 20
595.4363
 30
0.0
 10
1317.8942999999997
 20
595.4363
 30
0.0
 10
1319.9022999999997
 20
579.6663
 30
0.0
 10
1318.3618999999999
 20
558.8125
 30
0.0
 10
1318.2257999999997
 20
542.4192
 30
0.0
 10
1318.2257999999997
 20
542.4192
 30
0.0
 10
1317.3580999999997
 20
488.1491
 30
0.0
 10
1314.0970999999997
 20
443.2935
 30
0.0
 10
1323.5415999999998
 20
388.9129
 30
0.0
 10
1323.5415999999998
 20
388.9129
 30
0.0
 10
1331.4581999999998
 20
344.1084
 30
0.0
 10
1340.4131999999997
 20
301.1841
 30
0.0
 10
1345.7624999999998
 20
255.8188
 30
0.0
 10
1345.7624999999998
 20
255.8188
 30
0.0
 10
1352.8149999999998
 20
196.48930000000001
 30
0.0
 10
1360.9999999999998
 20
138.2427
 30
0.0
 10
1366.2637999999997
 20
78.61629999999997
 30
0.0
 10
1366.2637999999997
 20
78.61629999999997
 30
0.0
 10
1367.0254999999997
 20
71.95920000000001
 30
0.0
 10
1371.7311999999997
 20
45.37729999999999
 30
0.0
 10
1368.0980999999997
 20
41.040400000000034
 30
0.0
 10
1368.0980999999997
 20
41.040400000000034
 30
0.0
 10
1349.7653999999998
 20
33.31279999999998
 30
0.0
 10
1331.9361
 20
57.11959999999999
 30
0.0
 10
1321.2051999999999
 20
34.606899999999996
 30
0.0
 10
1321.2051999999999
 20
34.606899999999996
 30
0.0
 10
1314.2173999999998
 20
19.986499999999978
 30
0.0
 10
1314.2603999999997
 20
22.580600000000004
 30
0.0
 10
1297.9610999999998
 20
22.789699999999982
 30
0.0
 10
1297.9610999999998
 20
22.789699999999982
 30
0.0
 10
1288.8843999999997
 20
23.023799999999994
 30
0.0
 10
1268.1705999999997
 20
25.246699999999976
 30
0.0
 10
1261.9566999999997
 20
17.827200000000005
 30
0.0
 10
1261.9566999999997
 20
17.827200000000005
 30
0.0
 10
1258.9366999999997
 20
14.22120000000001
 30
0.0
 10
1257.0935999999997
 20
8.172599999999989
 30
0.0
 10
1254.3517999999997
 20
4.21690000000001
 30
0.0
 10
1254.3517999999997
 20
4.21690000000001
 30
0.0
 10
1253.2129999999997
 20
2.5738999999999805
 30
0.0
 10
1251.9187999999997
 20
1.2918000000000234
 30
0.0
 10
1250.3210999999997
 20
0.6959999999999695
 30
0.0
 10
1250.3210999999997
 20
0.6959999999999695
 30
0.0
 10
1247.1602999999998
 20
0.0
 30
0.0
 10
1210.8121999999998
 20
0.7980999999999767
 30
0.0
 10
1205.9112999999998
 20
0.8511000000000308
 30
0.0
 10
1205.9112999999998
 20
0.8511000000000308
 30
0.0
 10
1109.4480999999998
 20
1.898300000000006
 30
0.0
 10
1013.1605999999997
 20
3.6123999999999796
 30
0.0
 10
916.7154999999998
 20
5.373400000000004
 30
0.0
 10
916.7154999999998
 20
5.373400000000004
 30
0.0
 10
903.6654999999998
 20
5.611699999999985
 30
0.0
 10
906.2961999999998
 20
6.19580000000002
 30
0.0
 10
904.7203999999997
 20
17.12220000000002
 30
0.0
 10
904.7203999999997
 20
17.12220000000002
 30
0.0
 10
903.5004999999998
 20
25.581099999999992
 30
0.0
 10
895.8850999999997
 20
25.14069999999998
 30
0.0
 10
888.6632999999997
 20
25.613
 30
0.0
 10
888.6632999999997
 20
25.613
 30
0.0
 10
865.4241999999997
 20
27.13280000000003
 30
0.0
 10
841.3328999999998
 20
25.372000000000014
 30
0.0
 10
818.0233999999998
 20
25.494899999999973
 30
0.0
 10
818.0233999999998
 20
25.494899999999973
 30
0.0
 10
814.0949999999998
 20
25.530700000000024
 30
0.0
 10
796.6208999999998
 20
25.097500000000025
 30
0.0
 10
794.5408999999997
 20
26.979899999999986
 30
0.0
 10
794.5408999999997
 20
26.979899999999986
 30
0.0
 10
789.4853999999998
 20
31.555000000000007
 30
0.0
 10
802.2448999999997
 20
56.880600000000015
 30
0.0
 10
771.2905999999998
 20
51.0412
 30
0.0
 10
771.2905999999998
 20
51.0412
 30
0.0
 10
766.5907999999997
 20
50.154600000000016
 30
0.0
 10
760.3752999999997
 20
48.18130000000002
 30
0.0
 10
755.7437999999997
 20
49.82470000000001
 30
0.0
 10
755.7437999999997
 20
49.82470000000001
 30
0.0
 10
752.0118999999997
 20
52.370799999999974
 30
0.0
 10
752.7434999999998
 20
67.5412
 30
0.0
 10
752.6396999999997
 20
71.90350000000001
 30
0.0
 10
752.6396999999997
 20
71.90350000000001
 30
0.0
 10
750.5754999999997
 20
142.2683
 30
0.0
 10
744.0767999999998
 20
211.0876
 30
0.0
 10
745.1856999999998
 20
281.7472
 30
0.0
 10
745.1856999999998
 20
281.7472
 30
0.0
 10
746.3454999999997
 20
354.7839
 30
0.0
 10
747.6714999999997
 20
427.8211
 30
0.0
 10
748.6689999999999
 20
500.85990000000004
 30
0.0
 10
748.6689999999999
 20
500.85990000000004
 30
0.0
 10
749.0123999999998
 20
508.3713
 30
0.0
 10
748.7372999999998
 20
518.2239
 30
0.0
 10
758.5278999999998
 20
516.8328
 30
0.0
 10
758.5278999999998
 20
516.8328
 30
0.0
 10
773.7604999999998
 20
513.9317
 30
0.0
 10
796.0539999999997
 20
507.0317
 30
0.0
 10
797.1173999999997
 20
530.479
 30
0.0
 10
797.1173999999997
 20
530.479
 30
0.0
 10
797.2667999999998
 20
542.8121
 30
0.0
 10
788.3335999999997
 20
563.8845
 30
0.0
 10
785.1458999999998
 20
577.2121
 30
0.0
 10
785.1458999999998
 20
577.2121
 30
0.0
 10
779.9281999999998
 20
599.6203
 30
0.0
 10
754.2687999999998
 20
749.6916
 30
0.0
 10
758.4692999999997
 20
764.7002
 30
0.0
 10
758.4692999999997
 20
764.7002
 30
0.0
 10
760.1580999999996
 20
770.7343
 30
0.0
 10
770.7068999999997
 20
775.9759
 30
0.0
 10
776.1327999999997
 20
779.1044
 30
0.0
 10
776.1327999999997
 20
779.1044
 30
0.0
 10
818.5303999999998
 20
803.3851
 30
0.0
 10
891.0306999999998
 20
829.5234
 30
0.0
 10
939.3270999999997
 20
836.5669
 30
0.0
 10
939.3270999999997
 20
836.5669
 30
0.0
 10
955.7452999999998
 20
838.9045
 30
0.0
 10
972.4136999999998
 20
839.7619
 30
0.0
 10
988.8330999999998
 20
836.9953
 30
0.0
  0
SPLINE
  5
60
330
17
100
AcDbEntity
  8
dxf_samples_VOLKSWAGEN_TIGUAN_1_5_layer 1
 62
250
370
9
100
AcDbSpline
 70
24
 71
3
 72
8
 73
4
 74
0
 42
1e-09
 40
0.0
 40
0.0
 40
0.0
 40
0.0
 40
1.0
 40
1.0
 40
1.0
 40
1.0
 10
1658.8616999999997
 20
48.00760000000005
 30
0.0
 10
1658.8616999999997
 20
48.00760000000005
 30
0.0
 10
1675.8488999999997
 20
48.00760000000005
 30
0.0
 10
1675.8488999999997
 20
48.00760000000005
 30
0.0
  0
SPLINE
  5
61
330
17
100
AcDbEntity
  8
dxf_samples_VOLKSWAGEN_TIGUAN_1_5_layer 1
 62
250
370
9
100
AcDbSpline
 70
24
 71
3
 72
8
 73
4
 74
0
 42
1e-09
 40
0.0
 40
0.0
 40
0.0
 40
0.0
 40
1.0
 40
1.0
 40
1.0
 40
1.0
 10
1667.3554999999997
 20
23.077600000000047
 30
0.0
 10
1667.3554999999997
 20
23.077600000000047
 30
0.0
 10
1667.3554999999997
 20
48.031100000000066
 30
0.0
 10
1667.3554999999997
 20
48.031100000000066
 30
0.0
  0
SPLINE
  5
62
330
17
100
AcDbEntity
  8
dxf_samples_VOLKSWAGEN_TIGUAN_1_5_layer 1
 62
250
370
9
100
AcDbSpline
 70
8
 71
3
 72
16
 73
12
 74
0
 42
1e-09
 40
0.0
 40
0.0
 40
0.0
 40
0.0
 40
0.25
 40
0.25
 40
0.25
 40
0.25
 40
0.5
 40
0.5
 40
0.5
 40
0.5
 40
1.0
 40
1.0
 40
1.0
 40
1.0
 10
1700.0278999999996
 20
23.077600000000047
 30
0.0
 10
1700.0278999999996
 20
23.077600000000047
 30
0.0
 10
1700.0278999999996
 20
48.031100000000066
 30
0.0
 10
1700.0278999999996
 20
48.031100000000066
 30
0.0
 10
1700.0278999999996
 20
48.031100000000066
 30
0.0
 10
1700.0278999999996
 20
48.031100000000066
 30
0.0
 10
1714.6826999999996
 20
23.077600000000047
 30
0.0
 10
1714.6826999999996
 20
23.077600000000047
 30
0.0
 10
1714.6826999999996
 20
23.077600000000047
 30
0.0
 10
1714.6826999999996
 20
23.077600000000047
 30
0.0
 10
1714.6826999999996
 20
48.031100000000066
 30
0.0
 10
1714.6826999999996
 20
48.031100000000066
 30
0.0
  0
SPLINE
  5
63
330
17
100
AcDbEntity
  8
dxf_samples_VOLKSWAGEN_TIGUAN_1_5_layer 1
 62
250
370
9
100
AcDbSpline
 70
8
 71
3
 72
40
 73
36
 74
0
 42
1e-09
 40
0.0
 40
0.0
 40
0.0
 40
0.0
 40
0.1
 40
0.1
 40
0.1
 40
0.1
 40
0.2
 40
0.2
 40
0.2
 40
0.2
 40
0.3
 40
0.3
 40
0.3
 40
0.3
 40
0.4
 40
0.4
 40
0.4
 40
0.4
 40
0.5
 40
0.5
 40
0.5
 40
0.5
 40
0.6
 40
0.6
 40
0.6
 40
0.6
 40
0.7
 40
0.7
 40
0.7
 40
0.7
 40
0.8
 40
0.8
 40
0.8
 40
0.8
 40
1.0
 40
1.0
 40
1.0
 40
1.0
 10
1687.6101999999996
 20
34.063300000000055
 30
0.0
 10
1687.6101999999996
 20
34.063300000000055
 30
0.0
 10
1694.7782999999997
 20
34.063300000000055
 30
0.0
 10
1694.7782999999997
 20
34.063300000000055
 30
0.0
 10
1694.7782999999997
 20
34.063300000000055
 30
0.0
 10
1694.7782999999997
 20
34.063300000000055
 30
0.0
 10
1694.7782999999997
 20
26.895200000000074
 30
0.0
 10
1694.7782999999997
 20
26.895200000000074
 30
0.0
 10
1694.7782999999997
 20
26.895200000000074
 30
0.0
 10
1694.6385999999995
 20
24.571800000000025
 30
0.0
 10
1692.9613999999997
 20
23.092200000000076
 30
0.0
 10
1690.8135999999997
 20
23.08140000000006
 30
0.0
 10
1690.8135999999997
 20
23.08140000000006
 30
0.0
 10
1688.4817999999996
 20
23.081800000000072
 30
0.0
 10
1686.1497999999997
 20
23.081800000000072
 30
0.0
 10
1683.8182999999997
 20
23.08140000000006
 30
0.0
 10
1683.8182999999997
 20
23.08140000000006
 30
0.0
 10
1681.8933999999997
 20
22.976000000000028
 30
0.0
 10
1679.9211999999995
 20
24.86050000000003
 30
0.0
 10
1679.9323999999997
 20
26.877800000000065
 30
0.0
 10
1679.9323999999997
 20
26.877800000000065
 30
0.0
 10
1679.9327999999996
 20
32.64790000000002
 30
0.0
 10
1679.9327999999996
 20
38.41760000000002
 30
0.0
 10
1679.9323999999997
 20
44.186900000000065
 30
0.0
 10
1679.9323999999997
 20
44.186900000000065
 30
0.0
 10
1679.9365999999995
 20
46.325000000000074
 30
0.0
 10
1681.6833999999997
 20
48.044200000000075
 30
0.0
 10
1683.8356999999996
 20
48.03080000000003
 30
0.0
 10
1683.8356999999996
 20
48.03080000000003
 30
0.0
 10
1686.1613999999997
 20
48.03080000000003
 30
0.0
 10
1688.4874999999997
 20
48.03080000000003
 30
0.0
 10
1690.8135999999997
 20
48.03080000000003
 30
0.0
 10
1690.8135999999997
 20
48.03080000000003
 30
0.0
 10
1692.7602999999997
 20
48.066200000000066
 30
0.0
 10
1694.7516999999996
 20
46.574700000000036
 30
0.0
 10
1694.7782999999997
 20
44.13700000000003
 30
0.0
  0
SPLINE
  5
64
330
17
100
AcDbEntity
  8
dxf_samples_VOLKSWAGEN_TIGUAN_1_5_layer 1
 62
250
370
9
100
AcDbSpline
 70
24
 71
3
 72
8
 73
4
 74
0
 42
1e-09
 40
0.0
 40
0.0
 40
0.0
 40
0.0
 40
1.0
 40
1.0
 40
1.0
 40
1.0
 10
1734.6826999999996
 20
48.04140000000004
 30
0.0
 10
1734.6826999999996
 20
48.04140000000004
 30
0.0
 10
1734.6826999999996
 20
23.067300000000074
 30
0.0
 10
1734.6826999999996
 20
23.067300000000074
 30
0.0
  0
SPLINE
  5
65
330
17
100
AcDbEntity
  8
dxf_samples_VOLKSWAGEN_TIGUAN_1_5_layer 1
 62
142
370
158
100
AcDbSpline
 70
24
 71
3
 72
8
 73
4
 74
0
 42
1e-09
 40
0.0
 40
0.0
 40
0.0
 40
0.0
 40
1.0
 40
1.0
 40
1.0
 40
1.0
 10
1618.3941999999997
 20
219.8948
 30
0.0
 10
1618.3941999999997
 20
219.8948
 30
0.0
 10
1614.7519999999995
 20
8.819500000000033
 30
0.0
 10
1614.7519999999995
 20
8.819500000000033
 30
0.0
  0
SPLINE
  5
66
330
17
100
AcDbEntity
  8
dxf_samples_VOLKSWAGEN_TIGUAN_1_5_layer 1
 62
142
370
158
100
AcDbSpline
 70
24
 71
3
 72
8
 73
4
 74
0
 42
1e-09
 40
0.0
 40
0.0
 40
0.0
 40
0.0
 40
1.0
 40
1.0
 40
1.0
 40
1.0
 10
1777.7411999999997
 20
1.4483000000000459
 30
0.0
 10
1777.7411999999997
 20
1.4483000000000459
 30
0.0
 10
1780.7257999999997
 20
217.12880000000004
 30
0.0
 10
1780.7257999999997
 20
217.12880000000004
 30
0.0
  0
SPLINE
  5
67
330
17
100
AcDbEntity
  8
dxf_samples_VOLKSWAGEN_TIGUAN_1_5_layer 2
 62
242
370
158
100
AcDbSpline
 70
11
 71
3
 72
88
 73
84
 74
0
 42
1e-09
 40
0.0
 40
0.0
 40
0.0
 40
0.0
 40
0.0454545454545455
 40
0.0454545454545455
 40
0.0454545454545455
 40
0.0454545454545455
 40
0.0909090909090909
 40
0.0909090909090909
 40
0.0909090909090909
 40
0.0909090909090909
 40
0.1363636363636364
 40
0.1363636363636364
 40
0.1363636363636364
 40
0.1363636363636364
 40
0.1818181818181818
 40
0.1818181818181818
 40
0.1818181818181818
 40
0.1818181818181818
 40
0.2272727272727273
 40
0.2272727272727273
 40
0.2272727272727273
 40
0.2272727272727273
 40
0.2727272727272727
 40
0.2727272727272727
 40
0.2727272727272727
 40
0.2727272727272727
 40
0.3181818181818182
 40
0.3181818181818182
 40
0.3181818181818182
 40
0.3181818181818182
 40
0.3636363636363636
 40
0.3636363636363636
 40
0.3636363636363636
 40
0.3636363636363636
 40
0.4090909090909091
 40
0.4090909090909091
 40
0.4090909090909091
 40
0.4090909090909091
 40
0.4545454545454545
 40
0.4545454545454545
 40
0.4545454545454545
 40
0.4545454545454545
 40
0.5
 40
0.5
 40
0.5
 40
0.5
 40
0.5454545454545454
 40
0.5454545454545454
 40
0.5454545454545454
 40
0.5454545454545454
 40
0.5909090909090909
 40
0.5909090909090909
 40
0.5909090909090909
 40
0.5909090909090909
 40
0.6363636363636364
 40
0.6363636363636364
 40
0.6363636363636364
 40
0.6363636363636364
 40
0.6818181818181818
 40
0.6818181818181818
 40
0.6818181818181818
 40
0.6818181818181818
 40
0.7272727272727273
 40
0.7272727272727273
 40
0.7272727272727273
 40
0.7272727272727273
 40
0.7727272727272727
 40
0.7727272727272727
 40
0.7727272727272727
 40
0.7727272727272727
 40
0.8181818181818182
 40
0.8181818181818182
 40
0.8181818181818182
 40
0.8181818181818182
 40
0.8636363636363636
 40
0.8636363636363636
 40
0.8636363636363636
 40
0.8636363636363636
 40
0.9090909090909091
 40
0.9090909090909091
 40
0.9090909090909091
 40
0.9090909090909091
 40
1.0
 40
1.0
 40
1.0
 40
1.0
 10
1921.7778999999996
 20
41.12940000000006
 30
0.0
 10
1921.5692999999997
 20
31.046800000000047
 30
0.0
 10
1919.4861999999996
 20
26.71500000000006
 30
0.0
 10
1915.6553999999996
 20
24.52830000000003
 30
0.0
 10
1915.6553999999996
 20
24.52830000000003
 30
0.0
 10
1902.3627999999997
 20
18.674000000000063
 30
0.0
 10
1835.9194999999995
 20
9.681600000000032
 30
0.0
 10
1818.9657999999997
 20
7.39620000000005
 30
0.0
 10
1818.9657999999997
 20
7.39620000000005
 30
0.0
 10
1794.2366999999997
 20
4.056700000000063
 30
0.0
 10
1769.3275999999996
 20
2.842170943040401e-14
 30
0.0
 10
1744.3061999999995
 20
1.395100000000042
 30
0.0
 10
1744.3061999999995
 20
1.395100000000042
 30
0.0
 10
1703.7609999999995
 20
3.6479000000000212
 30
0.0
 10
1663.1663999999996
 20
5.440800000000053
 30
0.0
 10
1622.6372999999996
 20
7.88220000000004
 30
0.0
 10
1622.6372999999996
 20
7.88220000000004
 30
0.0
 10
1603.3423999999995
 20
9.044500000000056
 30
0.0
 10
1481.4893999999997
 20
35.225400000000064
 30
0.0
 10
1476.7465999999997
 20
38.227400000000074
 30
0.0
 10
1476.7465999999997
 20
38.227400000000074
 30
0.0
 10
1471.7311999999997
 20
41.40200000000007
 30
0.0
 10
1472.9454999999996
 20
46.67820000000003
 30
0.0
 10
1473.1768999999997
 20
56.17380000000006
 30
0.0
 10
1473.1768999999997
 20
56.17380000000006
 30
0.0
 10
1473.6672999999996
 20
76.29770000000005
 30
0.0
 10
1473.2705999999996
 20
97.35790000000006
 30
0.0
 10
1473.2800999999997
 20
117.58350000000004
 30
0.0
 10
1473.2800999999997
 20
117.58350000000004
 30
0.0
 10
1473.3072999999997
 20
166.63810000000004
 30
0.0
 10
1473.7211999999995
 20
215.6724
 30
0.0
 10
1472.8331999999996
 20
264.72230000000013
 30
0.0
 10
1472.8331999999996
 20
264.72230000000013
 30
0.0
 10
1472.6200999999996
 20
276.49800000000005
 30
0.0
 10
1473.0267999999996
 20
278.6287000000001
 30
0.0
 10
1478.5685999999996
 20
279.6445000000001
 30
0.0
 10
1478.5685999999996
 20
279.6445000000001
 30
0.0
 10
1493.5338999999997
 20
282.38750000000005
 30
0.0
 10
1590.5064999999995
 20
284.56500000000005
 30
0.0
 10
1599.9955999999997
 20
282.4656000000001
 30
0.0
 10
1599.9955999999997
 20
282.4656000000001
 30
0.0
 10
1604.3272999999997
 20
281.5073000000001
 30
0.0
 10
1607.2186999999997
 20
280.07900000000006
 30
0.0
 10
1608.5078999999996
 20
274.64840000000004
 30
0.0
 10
1608.5078999999996
 20
274.64840000000004
 30
0.0
 10
1610.5153999999998
 20
266.19220000000007
 30
0.0
 10
1611.5489999999995
 20
252.28280000000004
 30
0.0
 10
1612.6942999999997
 20
243.20810000000003
 30
0.0
 10
1612.6942999999997
 20
243.20810000000003
 30
0.0
 10
1613.2146999999995
 20
239.08470000000008
 30
0.0
 10
1613.7487999999996
 20
234.95430000000007
 30
0.0
 10
1614.6533999999997
 20
230.89470000000003
 30
0.0
 10
1614.6533999999997
 20
230.89470000000003
 30
0.0
 10
1614.6533999999997
 20
230.89470000000003
 30
0.0
 10
1614.9684999999997
 20
229.58560000000008
 30
0.0
 10
1614.9684999999997
 20
229.58560000000008
 30
0.0
 10
1614.9684999999997
 20
229.58560000000008
 30
0.0
 10
1617.7089999999996
 20
218.8011000000001
 30
0.0
 10
1621.6303999999996
 20
213.3595
 30
0.0
 10
1626.8874999999996
 20
210.65240000000003
 30
0.0
 10
1626.8874999999996
 20
210.65240000000003
 30
0.0
 10
1635.1317999999997
 20
206.40720000000007
 30
0.0
 10
1746.4122999999997
 20
206.58480000000006
 30
0.0
 10
1761.2595999999996
 20
207.0208000000001
 30
0.0
 10
1761.2595999999996
 20
207.0208000000001
 30
0.0
 10
1778.5815999999995
 20
207.5294000000001
 30
0.0
 10
1780.8055999999997
 20
213.05090000000004
 30
0.0
 10
1783.6316999999997
 20
229.22600000000008
 30
0.0
 10
1783.6316999999997
 20
229.22600000000008
 30
0.0
 10
1784.3922999999995
 20
237.1874
 30
0.0
 10
1786.1647999999996
 20
278.5758000000001
 30
0.0
 10
1792.5398999999995
 20
281.12610000000006
 30
0.0
 10
1792.5398999999995
 20
281.12610000000006
 30
0.0
 10
1800.6558999999997
 20
284.3729000000001
 30
0.0
 10
1892.9690999999996
 20
279.81550000000004
 30
0.0
 10
1909.9412999999997
 20
279.37120000000004
 30
0.0
 10
1909.9412999999997
 20
279.37120000000004
 30
0.0
 10
1926.8821999999996
 20
279.1881000000001
 30
0.0
 10
1924.7259999999997
 20
275.2383000000001
 30
0.0
 10
1924.8002999999997
 20
259.9819000000001
 30
0.0
 10
1924.8002999999997
 20
259.9819000000001
 30
0.0
 10
1925.1532999999997
 20
187.45890000000006
 30
0.0
 10
1923.2640999999996
 20
112.95880000000002
 30
0.0
 10
1921.7778999999996
 20
41.12940000000006
 30
0.0
  0
ENDSEC
  0
SECTION
  2
OBJECTS
  0
DICTIONARY
  5
A
330
0
100
AcDbDictionary
281
1
  3
ACAD_COLOR
350
B
  3
ACAD_GROUP
350
C
  3
ACAD_LAYOUT
350
D
  3
ACAD_MATERIAL
350
E
  3
ACAD_MLEADERSTYLE
350
F
  3
ACAD_MLINESTYLE
350
10
  3
ACAD_PLOTSETTINGS
350
11
  3
ACAD_PLOTSTYLENAME
350
12
  3
ACAD_SCALELIST
350
14
  3
ACAD_TABLESTYLE
350
15
  3
ACAD_VISUALSTYLE
350
16
  3
EZDXF_META
350
2D
  0
DICTIONARY
  5
B
330
A
100
AcDbDictionary
281
1
  0
DICTIONARY
  5
C
330
A
100
AcDbDictionary
281
1
  0
DICTIONARY
  5
D
330
A
100
AcDbDictionary
281
1
  3
Model
350
1A
  3
Layout1
350
1E
  0
DICTIONARY
  5
E
330
A
100
AcDbDictionary
281
1
  3
ByBlock
350
1F
  3
ByLayer
350
20
  3
Global
350
21
  0
DICTIONARY
  5
F
330
A
100
AcDbDictionary
281
1
  3
Standard
350
2C
  0
DICTIONARY
  5
10
330
A
100
AcDbDictionary
281
1
  3
Standard
350
22
  0
DICTIONARY
  5
11
330
A
100
AcDbDictionary
281
1
  0
ACDBDICTIONARYWDFLT
  5
12
330
A
100
AcDbDictionary
281
1
  3
Normal
350
13
100
AcDbDictionaryWithDefault
340
13
  0
ACDBPLACEHOLDER
  5
13
330
12
  0
DICTIONARY
  5
14
330
A
100
AcDbDictionary
281
1
  0
DICTIONARY
  5
15
330
A
100
AcDbDictionary
281
1
  0
DICTIONARY
  5
16
330
A
100
AcDbDictionary
281
1
  0
LAYOUT
  5
1A
330
D
100
AcDbPlotSettings
  1

  4
A3
  6

 40
7.5
 41
20.0
 42
7.5
 43
20.0
 44
420.0
 45
297.0
 46
0.0
 47
0.0
 48
0.0
 49
0.0
140
0.0
141
0.0
142
1.0
143
1.0
 70
1024
 72
1
 73
0
 74
5
  7

 75
16
 76
0
 77
2
 78
300
147
1.0
148
0.0
149
0.0
100
AcDbLayout
  1
Model
 70
1
 71
0
 10
0.0
 20
0.0
 11
420.0
 21
297.0
 12
0.0
 22
0.0
 32
0.0
 14
1e+20
 24
1e+20
 34
1e+20
 15
-1e+20
 25
-1e+20
 35
-1e+20
146
0.0
 13
0.0
 23
0.0
 33
0.0
 16
1.0
 26
0.0
 36
0.0
 17
0.0
 27
1.0
 37
0.0
 76
1
330
17
  0
LAYOUT
  5
1E
330
D
100
AcDbPlotSettings
  1

  4
A3
  6

 40
7.5
 41
20.0
 42
7.5
 43
20.0
 44
420.0
 45
297.0
 46
0.0
 47
0.0
 48
0.0
 49
0.0
140
0.0
141
0.0
142
1.0
143
1.0
 70
0
 72
1
 73
0
 74
5
  7

 75
16
 76
0
 77
2
 78
300
147
1.0
148
0.0
149
0.0
100
AcDbLayout
  1
Layout1
 70
1
 71
1
 10
0.0
 20
0.0
 11
420.0
 21
297.0
 12
0.0
 22
0.0
 32
0.0
 14
1e+20
 24
1e+20
 34
1e+20
 15
-1e+20
 25
-1e+20
 35
-1e+20
146
0.0
 13
0.0
 23
0.0
 33
0.0
 16
1.0
 26
0.0
 36
0.0
 17
0.0
 27
1.0
 37
0.0
 76
1
330
1B
  0
MATERIAL
  5
1F
102
{ACAD_REACTORS
330
E
102
}
330
E
100
AcDbMaterial
  1
ByBlock
  2

 70
0
 40
1.0
 71
1
 41
1.0
 91
-1023410177
 42
1.0
 72
1
  3

 73
1
 74
1
 75
1
 44
0.5
 73
0
 45
1.0
 46
1.0
 77
1
  4

 78
1
 79
1
170
1
 48
1.0
171
1
  6

172
1
173
1
174
1
140
1.0
141
1.0
175
1
  7

176
1
177
1
178
1
143
1.0
179
1
  8

270
1
271
1
272
1
145
1.0
146
1.0
273
1
  9

274
1
275
1
276
1
 42
1.0
 72
1
  3

 73
1
 74
1
 75
1
 94
63
  0
MATERIAL
  5
20
102
{ACAD_REACTORS
330
E
102
}
330
E
100
AcDbMaterial
  1
ByLayer
  2

 70
0
 40
1.0
 71
1
 41
1.0
 91
-1023410177
 42
1.0
 72
1
  3

 73
1
 74
1
 75
1
 44
0.5
 73
0
 45
1.0
 46
1.0
 77
1
  4

 78
1
 79
1
170
1
 48
1.0
171
1
  6

172
1
173
1
174
1
140
1.0
141
1.0
175
1
  7

176
1
177
1
178
1
143
1.0
179
1
  8

270
1
271
1
272
1
145
1.0
146
1.0
273
1
  9

274
1
275
1
276
1
 42
1.0
 72
1
  3

 73
1
 74
1
 75
1
 94
63
  0
MATERIAL
  5
21
102
{ACAD_REACTORS
330
E
102
}
330
E
100
AcDbMaterial
  1
Global
  2

 70
0
 40
1.0
 71
1
 41
1.0
 91
-1023410177
 42
1.0
 72
1
  3

 73
1
 74
1
 75
1
 44
0.5
 73
0
 45
1.0
 46
1.0
 77
1
  4

 78
1
 79
1
170
1
 48
1.0
171
1
  6

172
1
173
1
174
1
140
1.0
141
1.0
175
1
  7

176
1
177
1
178
1
143
1.0
179
1
  8

270
1
271
1
272
1
145
1.0
146
1.0
273
1
  9

274
1
275
1
276
1
 42
1.0
 72
1
  3

 73
1
 74
1
 75
1
 94
63
  0
MLINESTYLE
  5
22
102
{ACAD_REACTORS
330
10
102
}
330
10
100
AcDbMlineStyle
  2
Standard
 70
0
  3

 62
256
 51
90.0
 52
90.0
 71
2
 49
0.5
 62
256
  6
BYLAYER
 49
-0.5
 62
256
  6
BYLAYER
  0
MLEADERSTYLE
  5
2C
102
{ACAD_REACTORS
330
F
102
}
330
F
100
AcDbMLeaderStyle
179
2
170
2
171
1
172
0
 90
2
 40
0.0
 41
0.0
173
1
 91
-1056964608
 92
-2
290
1
 42
2.0
291
1
 43
8.0
  3
Standard
 44
4.0
300

342
29
174
1
175
1
176
0
178
1
 93
-1056964608
 45
4.0
292
0
297
0
 46
4.0
 94
-1056964608
 47
1.0
 49
1.0
140
1.0
294
1
141
0.0
177
0
142
1.0
295
0
296
0
143
3.75
271
0
272
9
273
9
  0
DICTIONARY
  5
2D
330
A
100
AcDbDictionary
280
1
281
1
  3
CREATED_BY_EZDXF
350
2E
  3
WRITTEN_BY_EZDXF
350
6A
  0
DICTIONARYVAR
  5
2E
330
2D
100
DictionaryVariables
280
0
  1
1.4.2 @ 2025-08-21T13:17:00.051800+00:00
  0
DICTIONARYVAR
  5
6A
330
2D
100
DictionaryVariables
280
0
  1
1.4.2 @ 2025-08-21T13:17:00.057426+00:00
  0
ENDSEC
  0
EOF
