  0
SECTION
  2
HEADER
  9
$ACADVER
  1
AC1024
  9
$ACADMAINTVER
 70
6
  9
$DWGCODEPAGE
  3
ANSI_1252
  9
$LASTSAVEDBY
  1
ezdxf
  9
$INSBASE
 10
0.0
 20
0.0
 30
0.0
  9
$EXTMIN
 10
1e+20
 20
1e+20
 30
1e+20
  9
$EXTMAX
 10
-1e+20
 20
-1e+20
 30
-1e+20
  9
$LIMMIN
 10
0.0
 20
0.0
  9
$LIMMAX
 10
420.0
 20
297.0
  9
$ORTHOMODE
 70
0
  9
$REGENMODE
 70
1
  9
$FILLMODE
 70
1
  9
$QTEXTMODE
 70
0
  9
$MIRRTEXT
 70
1
  9
$LTSCALE
 40
1.0
  9
$ATTMODE
 70
1
  9
$TEXTSIZE
 40
2.5
  9
$TRACEWID
 40
1.0
  9
$TEXTSTYLE
  7
Standard
  9
$CLAYER
  8
0
  9
$CELTYPE
  6
ByLayer
  9
$CECOLOR
 62
256
  9
$CELTSCALE
 40
1.0
  9
$DISPSILH
 70
0
  9
$DIMSCALE
 40
1.0
  9
$DIMASZ
 40
2.5
  9
$DIMEXO
 40
0.625
  9
$DIMDLI
 40
3.75
  9
$DIMRND
 40
0.0
  9
$DIMDLE
 40
0.0
  9
$DIMEXE
 40
1.25
  9
$DIMTP
 40
0.0
  9
$DIMTM
 40
0.0
  9
$DIMTXT
 40
2.5
  9
$DIMCEN
 40
2.5
  9
$DIMTSZ
 40
0.0
  9
$DIMTOL
 70
0
  9
$DIMLIM
 70
0
  9
$DIMTIH
 70
0
  9
$DIMTOH
 70
0
  9
$DIMSE1
 70
0
  9
$DIMSE2
 70
0
  9
$DIMTAD
 70
1
  9
$DIMZIN
 70
8
  9
$DIMBLK
  1

  9
$DIMASO
 70
1
  9
$DIMSHO
 70
1
  9
$DIMPOST
  1

  9
$DIMAPOST
  1

  9
$DIMALT
 70
0
  9
$DIMALTD
 70
3
  9
$DIMALTF
 40
0.03937007874
  9
$DIMLFAC
 40
1.0
  9
$DIMTOFL
 70
1
  9
$DIMTVP
 40
0.0
  9
$DIMTIX
 70
0
  9
$DIMSOXD
 70
0
  9
$DIMSAH
 70
0
  9
$DIMBLK1
  1

  9
$DIMBLK2
  1

  9
$DIMSTYLE
  2
ISO-25
  9
$DIMCLRD
 70
0
  9
$DIMCLRE
 70
0
  9
$DIMCLRT
 70
0
  9
$DIMTFAC
 40
1.0
  9
$DIMGAP
 40
0.625
  9
$DIMJUST
 70
0
  9
$DIMSD1
 70
0
  9
$DIMSD2
 70
0
  9
$DIMTOLJ
 70
0
  9
$DIMTZIN
 70
8
  9
$DIMALTZ
 70
0
  9
$DIMALTTZ
 70
0
  9
$DIMUPT
 70
0
  9
$DIMDEC
 70
2
  9
$DIMTDEC
 70
2
  9
$DIMALTU
 70
2
  9
$DIMALTTD
 70
3
  9
$DIMTXSTY
  7
Standard
  9
$DIMAUNIT
 70
0
  9
$DIMADEC
 70
0
  9
$DIMALTRND
 40
0.0
  9
$DIMAZIN
 70
0
  9
$DIMDSEP
 70
44
  9
$DIMATFIT
 70
3
  9
$DIMFRAC
 70
0
  9
$DIMLDRBLK
  1

  9
$DIMLUNIT
 70
2
  9
$DIMLWD
 70
-2
  9
$DIMLWE
 70
-2
  9
$DIMTMOVE
 70
0
  9
$DIMFXL
 40
1.0
  9
$DIMFXLON
 70
0
  9
$DIMJOGANG
 40
0.785398163397
  9
$DIMTFILL
 70
0
  9
$DIMTFILLCLR
 70
0
  9
$DIMARCSYM
 70
0
  9
$DIMLTYPE
  6

  9
$DIMLTEX1
  6

  9
$DIMLTEX2
  6

  9
$DIMTXTDIRECTION
 70
0
  9
$LUNITS
 70
2
  9
$LUPREC
 70
4
  9
$SKETCHINC
 40
1.0
  9
$FILLETRAD
 40
10.0
  9
$AUNITS
 70
0
  9
$AUPREC
 70
2
  9
$MENU
  1
.
  9
$ELEVATION
 40
0.0
  9
$PELEVATION
 40
0.0
  9
$THICKNESS
 40
0.0
  9
$LIMCHECK
 70
0
  9
$CHAMFERA
 40
0.0
  9
$CHAMFERB
 40
0.0
  9
$CHAMFERC
 40
0.0
  9
$CHAMFERD
 40
0.0
  9
$SKPOLY
 70
0
  9
$TDCREATE
 40
2460904.6418518517
  9
$TDUCREATE
 40
2458532.153996898
  9
$TDUPDATE
 40
2460904.6418518517
  9
$TDUUPDATE
 40
2458532.1544311
  9
$TDINDWG
 40
0.0
  9
$TDUSRTIMER
 40
0.0
  9
$USRTIMER
 70
1
  9
$ANGBASE
 50
0.0
  9
$ANGDIR
 70
0
  9
$PDMODE
 70
0
  9
$PDSIZE
 40
0.0
  9
$PLINEWID
 40
0.0
  9
$SPLFRAME
 70
0
  9
$SPLINETYPE
 70
6
  9
$SPLINESEGS
 70
8
  9
$HANDSEED
  5
7F
  9
$SURFTAB1
 70
6
  9
$SURFTAB2
 70
6
  9
$SURFTYPE
 70
6
  9
$SURFU
 70
6
  9
$SURFV
 70
6
  9
$UCSBASE
  2

  9
$UCSNAME
  2

  9
$UCSORG
 10
0.0
 20
0.0
 30
0.0
  9
$UCSXDIR
 10
1.0
 20
0.0
 30
0.0
  9
$UCSYDIR
 10
0.0
 20
1.0
 30
0.0
  9
$UCSORTHOREF
  2

  9
$UCSORTHOVIEW
 70
0
  9
$UCSORGTOP
 10
0.0
 20
0.0
 30
0.0
  9
$UCSORGBOTTOM
 10
0.0
 20
0.0
 30
0.0
  9
$UCSORGLEFT
 10
0.0
 20
0.0
 30
0.0
  9
$UCSORGRIGHT
 10
0.0
 20
0.0
 30
0.0
  9
$UCSORGFRONT
 10
0.0
 20
0.0
 30
0.0
  9
$UCSORGBACK
 10
0.0
 20
0.0
 30
0.0
  9
$PUCSBASE
  2

  9
$PUCSNAME
  2

  9
$PUCSORG
 10
0.0
 20
0.0
 30
0.0
  9
$PUCSXDIR
 10
1.0
 20
0.0
 30
0.0
  9
$PUCSYDIR
 10
0.0
 20
1.0
 30
0.0
  9
$PUCSORTHOREF
  2

  9
$PUCSORTHOVIEW
 70
0
  9
$PUCSORGTOP
 10
0.0
 20
0.0
 30
0.0
  9
$PUCSORGBOTTOM
 10
0.0
 20
0.0
 30
0.0
  9
$PUCSORGLEFT
 10
0.0
 20
0.0
 30
0.0
  9
$PUCSORGRIGHT
 10
0.0
 20
0.0
 30
0.0
  9
$PUCSORGFRONT
 10
0.0
 20
0.0
 30
0.0
  9
$PUCSORGBACK
 10
0.0
 20
0.0
 30
0.0
  9
$USERI1
 70
0
  9
$USERI2
 70
0
  9
$USERI3
 70
0
  9
$USERI4
 70
0
  9
$USERI5
 70
0
  9
$USERR1
 40
0.0
  9
$USERR2
 40
0.0
  9
$USERR3
 40
0.0
  9
$USERR4
 40
0.0
  9
$USERR5
 40
0.0
  9
$WORLDVIEW
 70
1
  9
$SHADEDGE
 70
3
  9
$SHADEDIF
 70
70
  9
$TILEMODE
 70
1
  9
$MAXACTVP
 70
64
  9
$PINSBASE
 10
0.0
 20
0.0
 30
0.0
  9
$PLIMCHECK
 70
0
  9
$PEXTMIN
 10
1e+20
 20
1e+20
 30
1e+20
  9
$PEXTMAX
 10
-1e+20
 20
-1e+20
 30
-1e+20
  9
$PLIMMIN
 10
0.0
 20
0.0
  9
$PLIMMAX
 10
420.0
 20
297.0
  9
$UNITMODE
 70
0
  9
$VISRETAIN
 70
1
  9
$PLINEGEN
 70
0
  9
$PSLTSCALE
 70
1
  9
$TREEDEPTH
 70
3020
  9
$CMLSTYLE
  2
Standard
  9
$CMLJUST
 70
0
  9
$CMLSCALE
 40
20.0
  9
$PROXYGRAPHICS
 70
1
  9
$MEASUREMENT
 70
1
  9
$CELWEIGHT
370
-1
  9
$ENDCAPS
280
0
  9
$JOINSTYLE
280
0
  9
$LWDISPLAY
290
0
  9
$INSUNITS
 70
4
  9
$HYPERLINKBASE
  1

  9
$STYLESHEET
  1

  9
$XEDIT
290
1
  9
$CEPSNTYPE
380
0
  9
$PSTYLEMODE
290
1
  9
$FINGERPRINTGUID
  2
{7A2ACF7D-EFB7-48F4-8988-101CAC6039D0}
  9
$VERSIONGUID
  2
{F3B35037-767A-4D65-AF4C-546B7362CDEB}
  9
$EXTNAMES
290
1
  9
$PSVPSCALE
 40
0.0
  9
$OLESTARTUP
290
0
  9
$SORTENTS
280
127
  9
$INDEXCTL
280
0
  9
$HIDETEXT
280
1
  9
$XCLIPFRAME
280
1
  9
$HALOGAP
280
0
  9
$OBSCOLOR
 70
257
  9
$OBSLTYPE
280
0
  9
$INTERSECTIONDISPLAY
280
0
  9
$INTERSECTIONCOLOR
 70
257
  9
$DIMASSOC
280
2
  9
$PROJECTNAME
  1

  9
$CAMERADISPLAY
290
0
  9
$LENSLENGTH
 40
50.0
  9
$CAMERAHEIGHT
 40
0.0
  9
$STEPSPERSEC
 40
24.0
  9
$STEPSIZE
 40
100.0
  9
$3DDWFPREC
 40
2.0
  9
$PSOLWIDTH
 40
0.005
  9
$PSOLHEIGHT
 40
0.08
  9
$LOFTANG1
 40
1.570796326795
  9
$LOFTANG2
 40
1.570796326795
  9
$LOFTMAG1
 40
0.0
  9
$LOFTMAG2
 40
0.0
  9
$LOFTPARAM
 70
7
  9
$LOFTNORMALS
280
1
  9
$LATITUDE
 40
37.795
  9
$LONGITUDE
 40
-122.394
  9
$NORTHDIRECTION
 40
0.0
  9
$TIMEZONE
 70
-8000
  9
$LIGHTGLYPHDISPLAY
280
1
  9
$TILEMODELIGHTSYNCH
280
1
  9
$CMATERIAL
347
20
  9
$SOLIDHIST
280
0
  9
$SHOWHIST
280
1
  9
$DWFFRAME
280
2
  9
$DGNFRAME
280
2
  9
$REALWORLDSCALE
290
1
  9
$INTERFERECOLOR
 62
256
  9
$CSHADOW
280
0
  9
$SHADOWPLANELOCATION
 40
0.0
  0
ENDSEC
  0
SECTION
  2
CLASSES
  0
CLASS
  1
ACDBDICTIONARYWDFLT
  2
AcDbDictionaryWithDefault
  3
ObjectDBX Classes
 90
0
 91
0
280
0
281
0
  0
CLASS
  1
SUN
  2
AcDbSun
  3
SCENEOE
 90
1153
 91
0
280
0
281
0
  0
CLASS
  1
VISUALSTYLE
  2
AcDbVisualStyle
  3
ObjectDBX Classes
 90
4095
 91
0
280
0
281
0
  0
CLASS
  1
MATERIAL
  2
AcDbMaterial
  3
ObjectDBX Classes
 90
1153
 91
0
280
0
281
0
  0
CLASS
  1
SCALE
  2
AcDbScale
  3
ObjectDBX Classes
 90
1153
 91
0
280
0
281
0
  0
CLASS
  1
TABLESTYLE
  2
AcDbTableStyle
  3
ObjectDBX Classes
 90
4095
 91
0
280
0
281
0
  0
CLASS
  1
MLEADERSTYLE
  2
AcDbMLeaderStyle
  3
ACDB_MLEADERSTYLE_CLASS
 90
4095
 91
0
280
0
281
0
  0
CLASS
  1
DICTIONARYVAR
  2
AcDbDictionaryVar
  3
ObjectDBX Classes
 90
0
 91
0
280
0
281
0
  0
CLASS
  1
CELLSTYLEMAP
  2
AcDbCellStyleMap
  3
ObjectDBX Classes
 90
1152
 91
0
280
0
281
0
  0
CLASS
  1
MENTALRAYRENDERSETTINGS
  2
AcDbMentalRayRenderSettings
  3
SCENEOE
 90
1024
 91
0
280
0
281
0
  0
CLASS
  1
ACDBDETAILVIEWSTYLE
  2
AcDbDetailViewStyle
  3
ObjectDBX Classes
 90
1025
 91
0
280
0
281
0
  0
CLASS
  1
ACDBSECTIONVIEWSTYLE
  2
AcDbSectionViewStyle
  3
ObjectDBX Classes
 90
1025
 91
0
280
0
281
0
  0
CLASS
  1
RASTERVARIABLES
  2
AcDbRasterVariables
  3
ISM
 90
0
 91
0
280
0
281
0
  0
CLASS
  1
IMAGE
  2
AcDbRasterImage
  3
ISM
 90
2175
 91
0
280
0
281
1
  0
CLASS
  1
IMAGEDEF
  2
AcDbRasterImageDef
  3
ISM
 90
0
 91
0
280
0
281
0
  0
CLASS
  1
IMAGEDEF_REACTOR
  2
AcDbRasterImageDefReactor
  3
ISM
 90
1
 91
0
280
0
281
0
  0
CLASS
  1
ACDBPLACEHOLDER
  2
AcDbPlaceHolder
  3
ObjectDBX Classes
 90
0
 91
0
280
0
281
0
  0
CLASS
  1
LAYOUT
  2
AcDbLayout
  3
ObjectDBX Classes
 90
0
 91
0
280
0
281
0
  0
ENDSEC
  0
SECTION
  2
TABLES
  0
TABLE
  2
VPORT
  5
8
330
0
100
AcDbSymbolTable
 70
1
  0
VPORT
  5
23
330
8
100
AcDbSymbolTableRecord
100
AcDbViewportTableRecord
  2
*Active
 70
0
 10
0.0
 20
0.0
 11
1.0
 21
1.0
 12
0.0
 22
0.0
 13
0.0
 23
0.0
 14
0.5
 24
0.5
 15
0.5
 25
0.5
 16
0.0
 26
0.0
 36
1.0
 17
0.0
 27
0.0
 37
0.0
 40
1000.0
 41
1.34
 42
50.0
 43
0.0
 44
0.0
 50
0.0
 51
0.0
 71
0
 72
1000
 73
1
 74
3
 75
0
 76
0
 77
0
 78
0
281
0
 65
0
146
0.0
  0
ENDTAB
  0
TABLE
  2
LTYPE
  5
2
330
0
100
AcDbSymbolTable
 70
3
  0
LTYPE
  5
24
330
2
100
AcDbSymbolTableRecord
100
AcDbLinetypeTableRecord
  2
ByBlock
 70
0
  3

 72
65
 73
0
 40
0.0
  0
LTYPE
  5
25
330
2
100
AcDbSymbolTableRecord
100
AcDbLinetypeTableRecord
  2
ByLayer
 70
0
  3

 72
65
 73
0
 40
0.0
  0
LTYPE
  5
26
330
2
100
AcDbSymbolTableRecord
100
AcDbLinetypeTableRecord
  2
Continuous
 70
0
  3

 72
65
 73
0
 40
0.0
  0
ENDTAB
  0
TABLE
  2
LAYER
  5
1
330
0
100
AcDbSymbolTable
 70
2
  0
LAYER
  5
27
330
1
100
AcDbSymbolTableRecord
100
AcDbLayerTableRecord
  2
0
 70
0
 62
7
  6
Continuous
370
-3
390
13
347
21
  0
LAYER
  5
28
330
1
100
AcDbSymbolTableRecord
100
AcDbLayerTableRecord
  2
Defpoints
 70
0
 62
7
  6
Continuous
290
0
370
-3
390
13
347
21
  0
ENDTAB
  0
TABLE
  2
STYLE
  5
5
330
0
100
AcDbSymbolTable
 70
1
  0
STYLE
  5
29
330
5
100
AcDbSymbolTableRecord
100
AcDbTextStyleTableRecord
  2
Standard
 70
0
 40
0.0
 41
1.0
 50
0.0
 71
0
 42
2.5
  3
txt
  4

  0
ENDTAB
  0
TABLE
  2
VIEW
  5
7
330
0
100
AcDbSymbolTable
 70
0
  0
ENDTAB
  0
TABLE
  2
UCS
  5
6
330
0
100
AcDbSymbolTable
 70
0
  0
ENDTAB
  0
TABLE
  2
APPID
  5
3
330
0
100
AcDbSymbolTable
 70
3
  0
APPID
  5
2A
330
3
100
AcDbSymbolTableRecord
100
AcDbRegAppTableRecord
  2
ACAD
 70
0
  0
APPID
  5
7C
330
3
100
AcDbSymbolTableRecord
100
AcDbRegAppTableRecord
  2
HATCHBACKGROUNDCOLOR
 70
0
  0
APPID
  5
7D
330
3
100
AcDbSymbolTableRecord
100
AcDbRegAppTableRecord
  2
EZDXF
 70
0
  0
ENDTAB
  0
TABLE
  2
DIMSTYLE
  5
4
330
0
100
AcDbSymbolTable
 70
1
100
AcDbDimStyleTable
  0
DIMSTYLE
105
2B
330
4
100
AcDbSymbolTableRecord
100
AcDbDimStyleTableRecord
  2
Standard
 70
0
 40
1.0
 41
2.5
 42
0.625
 43
3.75
 44
1.25
 45
0.0
 46
0.0
 47
0.0
 48
0.0
 49
2.5
140
2.5
141
2.5
142
0.0
143
0.03937007874
144
1.0
145
0.0
146
1.0
147
0.625
148
0.0
 69
0
 70
0
 71
0
 72
0
 73
0
 74
0
 75
0
 76
0
 77
1
 78
8
 79
3
170
0
171
3
172
1
173
0
174
0
175
0
176
0
177
0
178
0
179
2
271
2
272
2
273
2
274
3
275
0
276
0
277
2
278
44
279
0
280
0
281
0
282
0
283
0
284
8
285
0
286
0
288
0
289
3
290
0
371
-2
372
-2
  0
ENDTAB
  0
TABLE
  2
BLOCK_RECORD
  5
9
330
0
100
AcDbSymbolTable
 70
2
  0
BLOCK_RECORD
  5
17
330
9
100
AcDbSymbolTableRecord
100
AcDbBlockTableRecord
  2
*Model_Space
340
1A
 70
0
280
1
281
0
  0
BLOCK_RECORD
  5
1B
330
9
100
AcDbSymbolTableRecord
100
AcDbBlockTableRecord
  2
*Paper_Space
340
1E
 70
0
280
1
281
0
  0
ENDTAB
  0
ENDSEC
  0
SECTION
  2
BLOCKS
  0
BLOCK
  5
18
330
17
100
AcDbEntity
  8
0
100
AcDbBlockBegin
  2
*Model_Space
 70
0
 10
0.0
 20
0.0
 30
0.0
  3
*Model_Space
  1

  0
ENDBLK
  5
19
330
17
100
AcDbEntity
  8
0
100
AcDbBlockEnd
  0
BLOCK
  5
1C
330
1B
100
AcDbEntity
  8
0
100
AcDbBlockBegin
  2
*Paper_Space
 70
0
 10
0.0
 20
0.0
 30
0.0
  3
*Paper_Space
  1

  0
ENDBLK
  5
1D
330
1B
100
AcDbEntity
  8
0
100
AcDbBlockEnd
  0
ENDSEC
  0
SECTION
  2
ENTITIES
  0
LWPOLYLINE
  5
2F
330
17
100
AcDbEntity
  8
SHEET_BOUNDARY
 62
1
100
AcDbPolyline
 90
5
 70
0
 10
0.0
 20
0.0
 10
1400.0
 20
0.0
 10
1400.0
 20
2000.0
 10
0.0
 20
2000.0
 10
0.0
 20
0.0
  0
LWPOLYLINE
  5
30
330
17
100
AcDbEntity
  8
POLYGON_2
100
AcDbPolyline
 90
99
 70
0
 10
869.9996000000002
 20
1222.2218525851852
 10
869.9996000000001
 20
961.9338659698215
 10
869.9996000000001
 20
688.0656364746225
 10
869.9996000000001
 20
427.77764961481466
 10
869.9996000000001
 20
208.2303909056236
 10
869.9996000000001
 20
56.584345862276905
 10
869.9996000000001
 20
0.0
 10
840.1642233437583
 20
4.547473508864641e-13
 10
760.2054128996976
 20
2.2737367544323206e-13
 10
644.4441496948141
 20
0.0
 10
507.2014147561033
 20
0.0
 10
362.7981891105612
 20
2.2737367544323206e-13
 10
225.55545378518428
 20
2.2737367544323206e-13
 10
109.79418980696761
 20
0.0
 10
29.835378202907634
 20
2.2737367544323206e-13
 10
5.684341886080802e-14
 20
0.0
 10
2.2737367544323206e-13
 20
56.584342928945034
 10
0.0
 20
208.23038577229272
 10
1.1368683772161603e-13
 20
427.7776430148168
 10
1.7053025658242404e-13
 20
688.0656291412921
 10
1.1368683772161603e-13
 20
961.9338586364913
 10
5.684341886080802e-14
 20
1222.2218459851874
 10
5.684341886080802e-14
 20
1441.7691056721558
 10
1.1368683772161603e-13
 20
1593.4151521821686
 10
5.684341886080802e-14
 20
1649.9995000000001
 10
0.1714814722627125
 20
1653.4288208032945
 10
0.6310518351427845
 20
1662.6194009004153
 10
1.2963999777761614
 20
1675.9251662222268
 10
2.0852147892984476
 20
1691.700042699594
 10
2.915185158845702
 20
1708.29795626338
 10
3.7039999755536996
 20
1724.0728328444497
 10
4.369348128558215
 20
1737.3785983736668
 10
4.828918506995024
 20
1746.5691787818955
 10
5.00040000000007
 20
1749.9985000000001
 10
5.00040000000007
 20
1753.4278207440357
 10
5.000400000000127
 20
1762.6184007967124
 10
5.000400000000127
 20
1775.924166088895
 10
5.000400000000127
 20
1791.6990425514473
 10
5.000400000000127
 20
1808.2969561152336
 10
5.000400000000127
 20
1824.0718327111176
 10
5.000400000000184
 20
1837.377598269964
 10
5.00040000000007
 20
1846.568178722637
 10
5.000400000000127
 20
1849.9975000000002
 10
5.2576016288067535
 20
1855.1415805871027
 10
5.946902036008282
 20
1868.9277174005451
 10
6.944844427777809
 20
1888.8867515185157
 10
8.127972010288147
 20
1912.5495240192035
 10
9.372827989711993
 20
1937.4468759807971
 10
10.555955572222274
 20
1961.1096484814852
 10
11.553897963991858
 20
1981.0686825994558
 10
12.2431983711935
 20
1994.854819412898
 10
12.50040000000024
 20
1999.9989
 10
41.478464862333055
 20
1999.9989000000005
 10
119.13967387125064
 20
1999.9989000000003
 10
231.57455710963202
 20
1999.9989000000003
 10
364.87364466035854
 20
1999.9989000000003
 10
505.1274666063128
 20
1999.9989000000003
 10
638.4265530303722
 20
1999.9989000000003
 10
750.8614340154204
 20
1999.9989000000003
 10
828.5226396443356
 20
1999.9989000000003
 10
857.5007
 20
1999.9989000000003
 10
857.7578982340191
 20
1994.8548187215333
 10
858.4471894669682
 20
1981.068681579693
 10
859.4451185551848
 20
1961.109647414808
 10
860.6282303550064
 20
1937.446875067208
 10
861.8730697227707
 20
1912.5495233772222
 10
863.0561815148146
 20
1888.886751185179
 10
864.0541105874757
 20
1868.9277173314083
 10
864.7434017970918
 20
1855.141580656239
 10
865.0006000000001
 20
1849.9975000000002
 10
865.0006000000001
 20
1846.5681788411541
 10
865.0006000000001
 20
1837.3775984773692
 10
865.0006000000002
 20
1824.0718329777815
 10
865.0006000000002
 20
1808.2969564115265
 10
865.0006000000003
 20
1791.6990428477407
 10
865.0006000000002
 20
1775.9241663555588
 10
865.0006000000001
 20
1762.6184010041177
 10
865.0006000000001
 20
1753.4278208625528
 10
865.0006000000002
 20
1749.9985000000001
 10
865.0451727038185
 20
1749.106876513478
 10
865.1720334731408
 20
1746.5691789596715
 10
865.370896299768
 20
1742.591166597223
 10
865.6314751755001
 20
1737.3785986847747
 10
865.9434840921374
 20
1731.1372344809681
 10
866.2966370414808
 20
1724.0728332444455
 10
866.6806480153301
 20
1716.3911542338487
 10
867.0852310054863
 20
1708.29795670782
 10
867.5001000037494
 20
1699.998999925001
 10
867.9149690019199
 20
1691.7000431440338
 10
868.3195519917982
 20
1683.6068456235603
 10
868.7035629651848
 20
1675.9251666222228
 10
869.0567159138802
 20
1668.860765398663
 10
869.3687248296844
 20
1662.6194012115232
 10
869.6293037043981
 20
1657.4068333194448
 10
869.8281665298216
 20
1653.4288209810702
 10
869.9550272977556
 20
1650.8911234550415
 10
869.9996000000001
 20
1649.9995000000004
 10
869.9996000000001
 20
1593.415155115501
 10
869.9996000000001
 20
1441.769110805487
  0
SPLINE
  5
31
330
17
100
AcDbEntity
  8
2_layer 1
 62
250
370
9
100
AcDbSpline
 70
8
 71
3
 72
20
 73
16
 74
0
 42
1e-09
 40
0.0
 40
0.0
 40
0.0
 40
0.0
 40
0.2
 40
0.2
 40
0.2
 40
0.2
 40
0.4
 40
0.4
 40
0.4
 40
0.4
 40
0.6
 40
0.6
 40
0.6
 40
0.6
 40
1.0
 40
1.0
 40
1.0
 40
1.0
 10
368.7590000000001
 20
120.01610000000028
 30
0.0
 10
368.7590000000001
 20
120.01610000000028
 30
0.0
 10
368.7590000000001
 20
144.97400000000016
 30
0.0
 10
368.7590000000001
 20
144.97400000000016
 30
0.0
 10
368.7590000000001
 20
144.97400000000016
 30
0.0
 10
368.7590000000001
 20
144.97400000000016
 30
0.0
 10
377.6841000000001
 20
120.01610000000028
 30
0.0
 10
377.6841000000001
 20
120.01610000000028
 30
0.0
 10
377.6841000000001
 20
120.01610000000028
 30
0.0
 10
377.6841000000001
 20
120.01610000000028
 30
0.0
 10
386.44400000000013
 20
144.97350000000029
 30
0.0
 10
386.44400000000013
 20
144.97350000000029
 30
0.0
 10
386.44400000000013
 20
144.97350000000029
 30
0.0
 10
386.44400000000013
 20
144.97350000000029
 30
0.0
 10
386.44400000000013
 20
120.01610000000028
 30
0.0
 10
386.44400000000013
 20
120.01610000000028
 30
0.0
  0
SPLINE
  5
32
330
17
100
AcDbEntity
  8
2_layer 1
 62
250
370
9
100
AcDbSpline
 70
24
 71
3
 72
8
 73
4
 74
0
 42
1e-09
 40
0.0
 40
0.0
 40
0.0
 40
0.0
 40
1.0
 40
1.0
 40
1.0
 40
1.0
 10
354.0174000000001
 20
144.97180000000026
 30
0.0
 10
354.0174000000001
 20
144.97180000000026
 30
0.0
 10
361.1855000000001
 20
144.97180000000026
 30
0.0
 10
361.1855000000001
 20
144.97180000000026
 30
0.0
  0
SPLINE
  5
33
330
17
100
AcDbEntity
  8
2_layer 1
 62
250
370
9
100
AcDbSpline
 70
24
 71
3
 72
8
 73
4
 74
0
 42
1e-09
 40
0.0
 40
0.0
 40
0.0
 40
0.0
 40
1.0
 40
1.0
 40
1.0
 40
1.0
 10
354.0174000000001
 20
120.01830000000018
 30
0.0
 10
354.0174000000001
 20
120.01830000000018
 30
0.0
 10
361.1855000000001
 20
120.01830000000018
 30
0.0
 10
361.1855000000001
 20
120.01830000000018
 30
0.0
  0
SPLINE
  5
34
330
17
100
AcDbEntity
  8
2_layer 1
 62
250
370
9
100
AcDbSpline
 70
24
 71
3
 72
8
 73
4
 74
0
 42
1e-09
 40
0.0
 40
0.0
 40
0.0
 40
0.0
 40
1.0
 40
1.0
 40
1.0
 40
1.0
 10
357.6014000000001
 20
144.97180000000026
 30
0.0
 10
357.6014000000001
 20
144.97180000000026
 30
0.0
 10
357.6014000000001
 20
120.01830000000018
 30
0.0
 10
357.6014000000001
 20
120.01830000000018
 30
0.0
  0
SPLINE
  5
35
330
17
100
AcDbEntity
  8
2_layer 1
 62
250
370
9
100
AcDbSpline
 70
8
 71
3
 72
16
 73
12
 74
0
 42
1e-09
 40
0.0
 40
0.0
 40
0.0
 40
0.0
 40
0.25
 40
0.25
 40
0.25
 40
0.25
 40
0.5
 40
0.5
 40
0.5
 40
0.5
 40
1.0
 40
1.0
 40
1.0
 40
1.0
 10
344.8988000000001
 20
120.01630000000023
 30
0.0
 10
344.8988000000001
 20
120.01630000000023
 30
0.0
 10
330.27980000000014
 20
120.01630000000023
 30
0.0
 10
330.27980000000014
 20
120.01630000000023
 30
0.0
 10
330.27980000000014
 20
120.01630000000023
 30
0.0
 10
330.27980000000014
 20
120.01630000000023
 30
0.0
 10
344.9231000000001
 20
144.97370000000024
 30
0.0
 10
344.9231000000001
 20
144.97370000000024
 30
0.0
 10
344.9231000000001
 20
144.97370000000024
 30
0.0
 10
344.9231000000001
 20
144.97370000000024
 30
0.0
 10
330.27980000000014
 20
144.97370000000024
 30
0.0
 10
330.27980000000014
 20
144.97370000000024
 30
0.0
  0
SPLINE
  5
36
330
17
100
AcDbEntity
  8
2_layer 1
 62
250
370
9
100
AcDbSpline
 70
8
 71
3
 72
12
 73
8
 74
0
 42
1e-09
 40
0.0
 40
0.0
 40
0.0
 40
0.0
 40
0.3333333333333333
 40
0.3333333333333333
 40
0.3333333333333333
 40
0.3333333333333333
 40
1.0
 40
1.0
 40
1.0
 40
1.0
 10
310.1310000000001
 20
120.01830000000018
 30
0.0
 10
310.1310000000001
 20
120.01830000000018
 30
0.0
 10
317.5020000000001
 20
144.97180000000026
 30
0.0
 10
317.5020000000001
 20
144.97180000000026
 30
0.0
 10
317.5020000000001
 20
144.97180000000026
 30
0.0
 10
317.5020000000001
 20
144.97180000000026
 30
0.0
 10
325.07190000000014
 20
120.01830000000018
 30
0.0
 10
325.07190000000014
 20
120.01830000000018
 30
0.0
  0
SPLINE
  5
37
330
17
100
AcDbEntity
  8
2_layer 1
 62
250
370
9
100
AcDbSpline
 70
24
 71
3
 72
8
 73
4
 74
0
 42
1e-09
 40
0.0
 40
0.0
 40
0.0
 40
0.0
 40
1.0
 40
1.0
 40
1.0
 40
1.0
 10
312.85360000000014
 20
129.26770000000033
 30
0.0
 10
312.85360000000014
 20
129.26770000000033
 30
0.0
 10
322.3493000000001
 20
129.26770000000033
 30
0.0
 10
322.3493000000001
 20
129.26770000000033
 30
0.0
  0
SPLINE
  5
38
330
17
100
AcDbEntity
  8
2_layer 1
 62
250
370
9
100
AcDbSpline
 70
8
 71
3
 72
24
 73
20
 74
0
 42
1e-09
 40
0.0
 40
0.0
 40
0.0
 40
0.0
 40
0.1666666666666667
 40
0.1666666666666667
 40
0.1666666666666667
 40
0.1666666666666667
 40
0.3333333333333333
 40
0.3333333333333333
 40
0.3333333333333333
 40
0.3333333333333333
 40
0.5
 40
0.5
 40
0.5
 40
0.5
 40
0.6666666666666666
 40
0.6666666666666666
 40
0.6666666666666666
 40
0.6666666666666666
 40
1.0
 40
1.0
 40
1.0
 40
1.0
 10
406.9287000000001
 20
144.97600000000034
 30
0.0
 10
406.9283000000001
 20
139.43650000000025
 30
0.0
 10
407.0241000000001
 20
129.2347000000002
 30
0.0
 10
407.0245000000001
 20
123.69430000000034
 30
0.0
 10
407.0245000000001
 20
123.69430000000034
 30
0.0
 10
406.8847000000001
 20
121.4548000000002
 30
0.0
 10
405.2075000000001
 20
120.02860000000032
 30
0.0
 10
403.0598000000001
 20
120.01810000000023
 30
0.0
 10
403.0598000000001
 20
120.01810000000023
 30
0.0
 10
400.7279000000001
 20
120.01850000000036
 30
0.0
 10
398.39600000000013
 20
120.01850000000036
 30
0.0
 10
396.0645000000001
 20
120.01810000000023
 30
0.0
 10
396.0645000000001
 20
120.01810000000023
 30
0.0
 10
394.1395000000001
 20
119.91660000000024
 30
0.0
 10
392.1674000000001
 20
121.73310000000015
 30
0.0
 10
392.17860000000013
 20
123.67760000000021
 30
0.0
 10
392.17860000000013
 20
123.67760000000021
 30
0.0
 10
392.1789000000001
 20
129.23950000000036
 30
0.0
 10
392.2743000000001
 20
139.41490000000022
 30
0.0
 10
392.2739000000001
 20
144.97600000000034
 30
0.0
  0
SPLINE
  5
39
330
17
100
AcDbEntity
  8
2_layer 1
 62
250
370
9
100
AcDbSpline
 70
24
 71
3
 72
8
 73
4
 74
0
 42
1e-09
 40
0.0
 40
0.0
 40
0.0
 40
0.0
 40
1.0
 40
1.0
 40
1.0
 40
1.0
 10
411.1079000000001
 20
144.94830000000024
 30
0.0
 10
411.1079000000001
 20
144.94830000000024
 30
0.0
 10
428.0951000000001
 20
144.94830000000024
 30
0.0
 10
428.0951000000001
 20
144.94830000000024
 30
0.0
  0
SPLINE
  5
3A
330
17
100
AcDbEntity
  8
2_layer 1
 62
250
370
9
100
AcDbSpline
 70
24
 71
3
 72
8
 73
4
 74
0
 42
1e-09
 40
0.0
 40
0.0
 40
0.0
 40
0.0
 40
1.0
 40
1.0
 40
1.0
 40
1.0
 10
419.6017000000001
 20
120.01830000000018
 30
0.0
 10
419.6017000000001
 20
120.01830000000018
 30
0.0
 10
419.6017000000001
 20
144.97180000000026
 30
0.0
 10
419.6017000000001
 20
144.97180000000026
 30
0.0
  0
SPLINE
  5
3B
330
17
100
AcDbEntity
  8
2_layer 1
 62
250
370
9
100
AcDbSpline
 70
8
 71
3
 72
52
 73
48
 74
0
 42
1e-09
 40
0.0
 40
0.0
 40
0.0
 40
0.0
 40
0.0769230769230769
 40
0.0769230769230769
 40
0.0769230769230769
 40
0.0769230769230769
 40
0.1538461538461539
 40
0.1538461538461539
 40
0.1538461538461539
 40
0.1538461538461539
 40
0.2307692307692308
 40
0.2307692307692308
 40
0.2307692307692308
 40
0.2307692307692308
 40
0.3076923076923077
 40
0.3076923076923077
 40
0.3076923076923077
 40
0.3076923076923077
 40
0.3846153846153846
 40
0.3846153846153846
 40
0.3846153846153846
 40
0.3846153846153846
 40
0.4615384615384616
 40
0.4615384615384616
 40
0.4615384615384616
 40
0.4615384615384616
 40
0.5384615384615384
 40
0.5384615384615384
 40
0.5384615384615384
 40
0.5384615384615384
 40
0.6153846153846154
 40
0.6153846153846154
 40
0.6153846153846154
 40
0.6153846153846154
 40
0.6923076923076923
 40
0.6923076923076923
 40
0.6923076923076923
 40
0.6923076923076923
 40
0.7692307692307693
 40
0.7692307692307693
 40
0.7692307692307693
 40
0.7692307692307693
 40
0.8461538461538461
 40
0.8461538461538461
 40
0.8461538461538461
 40
0.8461538461538461
 40
1.0
 40
1.0
 40
1.0
 40
1.0
 10
590.1241000000001
 20
140.04330000000027
 30
0.0
 10
590.1241000000001
 20
140.04330000000027
 30
0.0
 10
590.1241000000001
 20
141.9005000000002
 30
0.0
 10
590.1241000000001
 20
141.9005000000002
 30
0.0
 10
590.1241000000001
 20
141.9005000000002
 30
0.0
 10
590.1098000000002
 20
143.64240000000018
 30
0.0
 10
592.7743
 20
145.76050000000032
 30
0.0
 10
594.8334000000001
 20
145.73780000000033
 30
0.0
 10
594.8334000000001
 20
145.73780000000033
 30
0.0
 10
596.8975
 20
145.73780000000033
 30
0.0
 10
598.9615000000001
 20
145.73780000000033
 30
0.0
 10
601.0252
 20
145.73780000000033
 30
0.0
 10
601.0252
 20
145.73780000000033
 30
0.0
 10
603.2197000000001
 20
145.74660000000017
 30
0.0
 10
604.8180000000001
 20
143.89980000000014
 30
0.0
 10
604.8624000000001
 20
141.98770000000036
 30
0.0
 10
604.8624000000001
 20
141.98770000000036
 30
0.0
 10
604.8620000000001
 20
140.5526000000002
 30
0.0
 10
604.8620000000001
 20
139.1175000000003
 30
0.0
 10
604.8624000000001
 20
137.68200000000024
 30
0.0
 10
604.8624000000001
 20
137.68200000000024
 30
0.0
 10
604.8138000000001
 20
136.02850000000035
 30
0.0
 10
603.2112000000001
 20
133.79850000000033
 30
0.0
 10
601.0129000000002
 20
133.80850000000032
 30
0.0
 10
601.0129000000002
 20
133.80850000000032
 30
0.0
 10
603.2166000000001
 20
133.79730000000018
 30
0.0
 10
604.8246000000001
 20
131.99410000000034
 30
0.0
 10
604.8786000000001
 20
129.93460000000027
 30
0.0
 10
604.8786000000001
 20
129.93460000000027
 30
0.0
 10
604.8782000000001
 20
128.14990000000034
 30
0.0
 10
604.8782000000001
 20
126.36520000000019
 30
0.0
 10
604.8786000000001
 20
124.58010000000036
 30
0.0
 10
604.8786000000001
 20
124.58010000000036
 30
0.0
 10
604.8887000000001
 20
122.51870000000031
 30
0.0
 10
602.8338000000001
 20
120.75560000000019
 30
0.0
 10
601.0129000000002
 20
120.7637000000002
 30
0.0
 10
601.0129000000002
 20
120.7637000000002
 30
0.0
 10
598.9476000000001
 20
120.76400000000035
 30
0.0
 10
596.8824000000001
 20
120.76400000000035
 30
0.0
 10
594.8168000000001
 20
120.7637000000002
 30
0.0
 10
594.8168000000001
 20
120.7637000000002
 30
0.0
 10
592.6482000000001
 20
120.77520000000027
 30
0.0
 10
590.1172000000001
 20
123.17540000000031
 30
0.0
 10
590.0986000000001
 20
124.63720000000035
 30
0.0
 10
590.0986000000001
 20
124.63720000000035
 30
0.0
 10
590.0986000000001
 20
124.63720000000035
 30
0.0
 10
590.0986000000001
 20
126.54580000000033
 30
0.0
 10
590.0986000000001
 20
126.54580000000033
 30
0.0
  0
SPLINE
  5
3C
330
17
100
AcDbEntity
  8
2_layer 1
 62
250
370
9
100
AcDbSpline
 70
24
 71
3
 72
8
 73
4
 74
0
 42
1e-09
 40
0.0
 40
0.0
 40
0.0
 40
0.0
 40
1.0
 40
1.0
 40
1.0
 40
1.0
 10
594.8338000000001
 20
133.7981000000002
 30
0.0
 10
594.8338000000001
 20
133.7981000000002
 30
0.0
 10
601.0302000000001
 20
133.7981000000002
 30
0.0
 10
601.0302000000001
 20
133.7981000000002
 30
0.0
  0
SPLINE
  5
3D
330
17
100
AcDbEntity
  8
2_layer 1
 62
250
370
9
100
AcDbSpline
 70
11
 71
3
 72
36
 73
32
 74
0
 42
1e-09
 40
0.0
 40
0.0
 40
0.0
 40
0.0
 40
0.1111111111111111
 40
0.1111111111111111
 40
0.1111111111111111
 40
0.1111111111111111
 40
0.2222222222222222
 40
0.2222222222222222
 40
0.2222222222222222
 40
0.2222222222222222
 40
0.3333333333333333
 40
0.3333333333333333
 40
0.3333333333333333
 40
0.3333333333333333
 40
0.4444444444444444
 40
0.4444444444444444
 40
0.4444444444444444
 40
0.4444444444444444
 40
0.5555555555555556
 40
0.5555555555555556
 40
0.5555555555555556
 40
0.5555555555555556
 40
0.6666666666666666
 40
0.6666666666666666
 40
0.6666666666666666
 40
0.6666666666666666
 40
0.7777777777777778
 40
0.7777777777777778
 40
0.7777777777777778
 40
0.7777777777777778
 40
1.0
 40
1.0
 40
1.0
 40
1.0
 10
609.0150000000001
 20
131.7447000000002
 30
0.0
 10
609.0150000000001
 20
128.57390000000032
 30
0.0
 10
609.0150000000001
 20
126.87180000000035
 30
0.0
 10
609.0150000000001
 20
123.70040000000017
 30
0.0
 10
609.0150000000001
 20
123.70040000000017
 30
0.0
 10
609.0065000000001
 20
122.47850000000017
 30
0.0
 10
610.7044000000001
 20
120.78580000000034
 30
0.0
 10
611.9570000000001
 20
120.7773000000002
 30
0.0
 10
611.9570000000001
 20
120.7773000000002
 30
0.0
 10
614.9401000000001
 20
120.77760000000035
 30
0.0
 10
617.9234000000001
 20
120.77760000000035
 30
0.0
 10
620.9068000000001
 20
120.7773000000002
 30
0.0
 10
620.9068000000001
 20
120.7773000000002
 30
0.0
 10
622.2301000000001
 20
120.78900000000021
 30
0.0
 10
623.8505000000001
 20
122.41060000000016
 30
0.0
 10
623.8394000000001
 20
123.70980000000031
 30
0.0
 10
623.8394000000001
 20
123.70980000000031
 30
0.0
 10
623.8391000000001
 20
126.87800000000016
 30
0.0
 10
623.8391000000001
 20
128.57680000000028
 30
0.0
 10
623.8394000000001
 20
131.7447000000002
 30
0.0
 10
623.8394000000001
 20
131.7447000000002
 30
0.0
 10
623.7697000000001
 20
133.1251000000002
 30
0.0
 10
622.1919000000001
 20
134.70370000000025
 30
0.0
 10
620.8865000000001
 20
134.6976000000002
 30
0.0
 10
620.8865000000001
 20
134.6976000000002
 30
0.0
 10
617.9099000000001
 20
134.69730000000027
 30
0.0
 10
614.9333000000001
 20
134.69730000000027
 30
0.0
 10
611.9570000000001
 20
134.6976000000002
 30
0.0
 10
611.9570000000001
 20
134.6976000000002
 30
0.0
 10
610.8775
 20
134.70400000000018
 30
0.0
 10
609.0312000000001
 20
133.1251000000002
 30
0.0
 10
609.0150000000001
 20
131.7447000000002
 30
0.0
  0
SPLINE
  5
3E
330
17
100
AcDbEntity
  8
2_layer 1
 62
250
370
9
100
AcDbSpline
 70
11
 71
3
 72
36
 73
32
 74
0
 42
1e-09
 40
0.0
 40
0.0
 40
0.0
 40
0.0
 40
0.1111111111111111
 40
0.1111111111111111
 40
0.1111111111111111
 40
0.1111111111111111
 40
0.2222222222222222
 40
0.2222222222222222
 40
0.2222222222222222
 40
0.2222222222222222
 40
0.3333333333333333
 40
0.3333333333333333
 40
0.3333333333333333
 40
0.3333333333333333
 40
0.4444444444444444
 40
0.4444444444444444
 40
0.4444444444444444
 40
0.4444444444444444
 40
0.5555555555555556
 40
0.5555555555555556
 40
0.5555555555555556
 40
0.5555555555555556
 40
0.6666666666666666
 40
0.6666666666666666
 40
0.6666666666666666
 40
0.6666666666666666
 40
0.7777777777777778
 40
0.7777777777777778
 40
0.7777777777777778
 40
0.7777777777777778
 40
1.0
 40
1.0
 40
1.0
 40
1.0
 10
610.4738000000001
 20
144.26290000000017
 30
0.0
 10
610.4738000000001
 20
142.0499000000002
 30
0.0
 10
610.4738000000001
 20
138.36760000000027
 30
0.0
 10
610.4738000000001
 20
136.15430000000015
 30
0.0
 10
610.4738000000001
 20
136.15430000000015
 30
0.0
 10
610.4888000000001
 20
135.6469000000002
 30
0.0
 10
611.2962000000001
 20
134.71550000000025
 30
0.0
 10
611.9963000000001
 20
134.71670000000017
 30
0.0
 10
611.9963000000001
 20
134.71670000000017
 30
0.0
 10
614.9662000000001
 20
134.71690000000035
 30
0.0
 10
617.9364
 20
134.6320000000003
 30
0.0
 10
620.9068000000001
 20
134.63170000000036
 30
0.0
 10
620.9068000000001
 20
134.63170000000036
 30
0.0
 10
621.7039000000001
 20
134.63590000000022
 30
0.0
 10
622.4246
 20
135.42620000000034
 30
0.0
 10
622.4220000000001
 20
136.1469000000002
 30
0.0
 10
622.4220000000001
 20
136.1469000000002
 30
0.0
 10
622.4217000000001
 20
138.3629000000003
 30
0.0
 10
622.4217000000001
 20
142.04760000000033
 30
0.0
 10
622.4220000000001
 20
144.26290000000017
 30
0.0
 10
622.4220000000001
 20
144.26290000000017
 30
0.0
 10
622.4035000000001
 20
144.97370000000024
 30
0.0
 10
621.7921000000001
 20
145.73410000000035
 30
0.0
 10
620.9582000000001
 20
145.72670000000016
 30
0.0
 10
620.9582000000001
 20
145.72670000000016
 30
0.0
 10
617.9411000000001
 20
145.72640000000024
 30
0.0
 10
614.9242000000002
 20
145.72640000000024
 30
0.0
 10
611.9076000000001
 20
145.72670000000016
 30
0.0
 10
611.9076000000001
 20
145.72670000000016
 30
0.0
 10
611.2812000000001
 20
145.7343000000003
 30
0.0
 10
610.4571000000001
 20
145.0233000000003
 30
0.0
 10
610.4738000000001
 20
144.26290000000017
 30
0.0
  0
SPLINE
  5
3F
330
17
100
AcDbEntity
  8
2_layer 1
 62
250
370
9
100
AcDbSpline
 70
8
 71
3
 72
32
 73
28
 74
0
 42
1e-09
 40
0.0
 40
0.0
 40
0.0
 40
0.0
 40
0.125
 40
0.125
 40
0.125
 40
0.125
 40
0.25
 40
0.25
 40
0.25
 40
0.25
 40
0.375
 40
0.375
 40
0.375
 40
0.375
 40
0.5
 40
0.5
 40
0.5
 40
0.5
 40
0.625
 40
0.625
 40
0.625
 40
0.625
 40
0.75
 40
0.75
 40
0.75
 40
0.75
 40
1.0
 40
1.0
 40
1.0
 40
1.0
 10
504.26940000000013
 20
120.01830000000018
 30
0.0
 10
504.26940000000013
 20
120.01830000000018
 30
0.0
 10
504.26940000000013
 20
144.97180000000026
 30
0.0
 10
504.26940000000013
 20
144.97180000000026
 30
0.0
 10
504.26940000000013
 20
144.97180000000026
 30
0.0
 10
507.8642000000001
 20
144.97180000000026
 30
0.0
 10
511.4597000000001
 20
144.97180000000026
 30
0.0
 10
515.0549000000001
 20
144.97180000000026
 30
0.0
 10
515.0549000000001
 20
144.97180000000026
 30
0.0
 10
517.3802000000001
 20
144.93410000000017
 30
0.0
 10
518.9375000000001
 20
143.44410000000016
 30
0.0
 10
518.9334000000001
 20
141.07770000000028
 30
0.0
 10
518.9334000000001
 20
141.07770000000028
 30
0.0
 10
518.9330000000001
 20
139.04220000000032
 30
0.0
 10
518.9330000000001
 20
135.98280000000022
 30
0.0
 10
518.9334000000001
 20
133.94680000000017
 30
0.0
 10
518.9334000000001
 20
133.94680000000017
 30
0.0
 10
518.9269000000002
 20
132.0713000000003
 30
0.0
 10
517.1146000000001
 20
130.12950000000023
 30
0.0
 10
515.1051000000001
 20
130.11040000000025
 30
0.0
 10
515.1051000000001
 20
130.11040000000025
 30
0.0
 10
515.1051000000001
 20
130.11040000000025
 30
0.0
 10
504.26940000000013
 20
130.11040000000025
 30
0.0
 10
504.26940000000013
 20
130.11040000000025
 30
0.0
 10
504.26940000000013
 20
130.11040000000025
 30
0.0
 10
504.26940000000013
 20
130.11040000000025
 30
0.0
 10
518.9241000000001
 20
120.01830000000018
 30
0.0
 10
518.9241000000001
 20
120.01830000000018
 30
0.0
  0
SPLINE
  5
40
330
17
100
AcDbEntity
  8
2_layer 1
 62
250
370
9
100
AcDbSpline
 70
8
 71
3
 72
16
 73
12
 74
0
 42
1e-09
 40
0.0
 40
0.0
 40
0.0
 40
0.0
 40
0.25
 40
0.25
 40
0.25
 40
0.25
 40
0.5
 40
0.5
 40
0.5
 40
0.5
 40
1.0
 40
1.0
 40
1.0
 40
1.0
 10
455.04250000000013
 20
144.97180000000026
 30
0.0
 10
455.04250000000013
 20
144.97180000000026
 30
0.0
 10
442.1686000000001
 20
144.97180000000026
 30
0.0
 10
442.1686000000001
 20
144.97180000000026
 30
0.0
 10
442.1686000000001
 20
144.97180000000026
 30
0.0
 10
442.1686000000001
 20
144.97180000000026
 30
0.0
 10
442.1686000000001
 20
120.0182000000002
 30
0.0
 10
442.1686000000001
 20
120.0182000000002
 30
0.0
 10
442.1686000000001
 20
120.0182000000002
 30
0.0
 10
442.1686000000001
 20
120.0182000000002
 30
0.0
 10
457.0344000000001
 20
120.0182000000002
 30
0.0
 10
457.0344000000001
 20
120.0182000000002
 30
0.0
  0
SPLINE
  5
41
330
17
100
AcDbEntity
  8
2_layer 1
 62
250
370
9
100
AcDbSpline
 70
24
 71
3
 72
8
 73
4
 74
0
 42
1e-09
 40
0.0
 40
0.0
 40
0.0
 40
0.0
 40
1.0
 40
1.0
 40
1.0
 40
1.0
 10
442.1686000000001
 20
133.0921000000003
 30
0.0
 10
442.1686000000001
 20
133.0921000000003
 30
0.0
 10
449.3367000000001
 20
133.0921000000003
 30
0.0
 10
449.3367000000001
 20
133.0921000000003
 30
0.0
  0
SPLINE
  5
42
330
17
100
AcDbEntity
  8
2_layer 1
 62
250
370
9
100
AcDbSpline
 70
24
 71
3
 72
8
 73
4
 74
0
 42
1e-09
 40
0.0
 40
0.0
 40
0.0
 40
0.0
 40
1.0
 40
1.0
 40
1.0
 40
1.0
 10
559.2646000000001
 20
145.7193000000002
 30
0.0
 10
559.2646000000001
 20
145.7193000000002
 30
0.0
 10
576.2518000000001
 20
145.7193000000002
 30
0.0
 10
576.2518000000001
 20
145.7193000000002
 30
0.0
  0
SPLINE
  5
43
330
17
100
AcDbEntity
  8
2_layer 1
 62
250
370
9
100
AcDbSpline
 70
24
 71
3
 72
8
 73
4
 74
0
 42
1e-09
 40
0.0
 40
0.0
 40
0.0
 40
0.0
 40
1.0
 40
1.0
 40
1.0
 40
1.0
 10
567.7584000000002
 20
120.78930000000014
 30
0.0
 10
567.7584000000002
 20
120.78930000000014
 30
0.0
 10
567.7584000000002
 20
145.74280000000022
 30
0.0
 10
567.7584000000002
 20
145.74280000000022
 30
0.0
  0
SPLINE
  5
44
330
17
100
AcDbEntity
  8
2_layer 1
 62
250
370
9
100
AcDbSpline
 70
8
 71
3
 72
16
 73
12
 74
0
 42
1e-09
 40
0.0
 40
0.0
 40
0.0
 40
0.0
 40
0.25
 40
0.25
 40
0.25
 40
0.25
 40
0.5
 40
0.5
 40
0.5
 40
0.5
 40
1.0
 40
1.0
 40
1.0
 40
1.0
 10
547.7582000000001
 20
133.2660000000003
 30
0.0
 10
543.5099000000001
 20
134.73640000000023
 30
0.0
 10
538.6018000000001
 20
136.53220000000033
 30
0.0
 10
540.6069000000001
 20
142.05250000000024
 30
0.0
 10
540.6069000000001
 20
142.05250000000024
 30
0.0
 10
542.1104000000001
 20
146.19240000000036
 30
0.0
 10
547.3240000000001
 20
145.80390000000034
 30
0.0
 10
550.9276000000001
 20
145.20280000000025
 30
0.0
 10
550.9276000000001
 20
145.20280000000025
 30
0.0
 10
553.7882000000001
 20
144.7256000000002
 30
0.0
 10
554.6529
 20
143.5124000000003
 30
0.0
 10
554.9635000000001
 20
141.42830000000026
 30
0.0
  0
SPLINE
  5
45
330
17
100
AcDbEntity
  8
2_layer 1
 62
250
370
9
100
AcDbSpline
 70
8
 71
3
 72
16
 73
12
 74
0
 42
1e-09
 40
0.0
 40
0.0
 40
0.0
 40
0.0
 40
0.25
 40
0.25
 40
0.25
 40
0.25
 40
0.5
 40
0.5
 40
0.5
 40
0.5
 40
1.0
 40
1.0
 40
1.0
 40
1.0
 10
547.7582000000001
 20
133.26590000000033
 30
0.0
 10
551.7768000000001
 20
131.61920000000032
 30
0.0
 10
556.8063000000001
 20
129.73090000000025
 30
0.0
 10
554.9723000000001
 20
124.3706000000002
 30
0.0
 10
554.9723000000001
 20
124.3706000000002
 30
0.0
 10
553.5125
 20
120.10420000000022
 30
0.0
 10
548.6017000000002
 20
120.36090000000036
 30
0.0
 10
544.8756000000001
 20
120.91560000000027
 30
0.0
 10
544.8756000000001
 20
120.91560000000027
 30
0.0
 10
542.1256000000001
 20
121.32540000000017
 30
0.0
 10
540.9047
 20
122.53890000000024
 30
0.0
 10
540.5267000000001
 20
124.65110000000027
 30
0.0
  0
SPLINE
  5
46
330
17
100
AcDbEntity
  8
2_layer 1
 62
250
370
9
100
AcDbSpline
 70
24
 71
3
 72
8
 73
4
 74
0
 42
1e-09
 40
0.0
 40
0.0
 40
0.0
 40
0.0
 40
1.0
 40
1.0
 40
1.0
 40
1.0
 10
476.92340000000013
 20
144.97180000000026
 30
0.0
 10
476.92340000000013
 20
144.97180000000026
 30
0.0
 10
469.6016000000001
 20
120.0182000000002
 30
0.0
 10
469.6016000000001
 20
120.0182000000002
 30
0.0
  0
SPLINE
  5
47
330
17
100
AcDbEntity
  8
2_layer 1
 62
250
370
9
100
AcDbSpline
 70
24
 71
3
 72
8
 73
4
 74
0
 42
1e-09
 40
0.0
 40
0.0
 40
0.0
 40
0.0
 40
1.0
 40
1.0
 40
1.0
 40
1.0
 10
469.6015000000001
 20
120.0182000000002
 30
0.0
 10
469.6015000000001
 20
120.0182000000002
 30
0.0
 10
462.2797000000001
 20
144.97180000000026
 30
0.0
 10
462.2797000000001
 20
144.97180000000026
 30
0.0
  0
SPLINE
  5
48
330
17
100
AcDbEntity
  8
2_layer 1
 62
250
370
9
100
AcDbSpline
 70
8
 71
3
 72
16
 73
12
 74
0
 42
1e-09
 40
0.0
 40
0.0
 40
0.0
 40
0.0
 40
0.25
 40
0.25
 40
0.25
 40
0.25
 40
0.5
 40
0.5
 40
0.5
 40
0.5
 40
1.0
 40
1.0
 40
1.0
 40
1.0
 10
497.04250000000013
 20
144.97180000000026
 30
0.0
 10
497.04250000000013
 20
144.97180000000026
 30
0.0
 10
484.1686000000001
 20
144.97180000000026
 30
0.0
 10
484.1686000000001
 20
144.97180000000026
 30
0.0
 10
484.1686000000001
 20
144.97180000000026
 30
0.0
 10
484.1686000000001
 20
144.97180000000026
 30
0.0
 10
484.1686000000001
 20
120.0182000000002
 30
0.0
 10
484.1686000000001
 20
120.0182000000002
 30
0.0
 10
484.1686000000001
 20
120.0182000000002
 30
0.0
 10
484.1686000000001
 20
120.0182000000002
 30
0.0
 10
499.0344000000001
 20
120.0182000000002
 30
0.0
 10
499.0344000000001
 20
120.0182000000002
 30
0.0
  0
SPLINE
  5
49
330
17
100
AcDbEntity
  8
2_layer 1
 62
250
370
9
100
AcDbSpline
 70
24
 71
3
 72
8
 73
4
 74
0
 42
1e-09
 40
0.0
 40
0.0
 40
0.0
 40
0.0
 40
1.0
 40
1.0
 40
1.0
 40
1.0
 10
484.1686000000001
 20
133.0921000000003
 30
0.0
 10
484.1686000000001
 20
133.0921000000003
 30
0.0
 10
491.3367000000001
 20
133.0921000000003
 30
0.0
 10
491.3367000000001
 20
133.0921000000003
 30
0.0
  0
SPLINE
  5
4A
330
17
100
AcDbEntity
  8
2_layer 1
 62
250
370
9
100
AcDbSpline
 70
8
 71
3
 72
16
 73
12
 74
0
 42
1e-09
 40
0.0
 40
0.0
 40
0.0
 40
0.0
 40
0.25
 40
0.25
 40
0.25
 40
0.25
 40
0.5
 40
0.5
 40
0.5
 40
0.5
 40
1.0
 40
1.0
 40
1.0
 40
1.0
 10
537.0425000000001
 20
144.97180000000026
 30
0.0
 10
537.0425000000001
 20
144.97180000000026
 30
0.0
 10
524.1686000000001
 20
144.97180000000026
 30
0.0
 10
524.1686000000001
 20
144.97180000000026
 30
0.0
 10
524.1686000000001
 20
144.97180000000026
 30
0.0
 10
524.1686000000001
 20
144.97180000000026
 30
0.0
 10
524.1686000000001
 20
120.0182000000002
 30
0.0
 10
524.1686000000001
 20
120.0182000000002
 30
0.0
 10
524.1686000000001
 20
120.0182000000002
 30
0.0
 10
524.1686000000001
 20
120.0182000000002
 30
0.0
 10
539.0344000000001
 20
120.0182000000002
 30
0.0
 10
539.0344000000001
 20
120.0182000000002
 30
0.0
  0
SPLINE
  5
4B
330
17
100
AcDbEntity
  8
2_layer 1
 62
250
370
9
100
AcDbSpline
 70
24
 71
3
 72
8
 73
4
 74
0
 42
1e-09
 40
0.0
 40
0.0
 40
0.0
 40
0.0
 40
1.0
 40
1.0
 40
1.0
 40
1.0
 10
524.1686000000001
 20
133.0921000000003
 30
0.0
 10
524.1686000000001
 20
133.0921000000003
 30
0.0
 10
531.3367000000001
 20
133.0921000000003
 30
0.0
 10
531.3367000000001
 20
133.0921000000003
 30
0.0
  0
SPLINE
  5
4C
330
17
100
AcDbEntity
  8
2_layer 1
 62
250
370
9
100
AcDbSpline
 70
8
 71
3
 72
40
 73
36
 74
0
 42
1e-09
 40
0.0
 40
0.0
 40
0.0
 40
0.0
 40
0.1
 40
0.1
 40
0.1
 40
0.1
 40
0.2
 40
0.2
 40
0.2
 40
0.2
 40
0.3
 40
0.3
 40
0.3
 40
0.3
 40
0.4
 40
0.4
 40
0.4
 40
0.4
 40
0.5
 40
0.5
 40
0.5
 40
0.5
 40
0.6
 40
0.6
 40
0.6
 40
0.6
 40
0.7
 40
0.7
 40
0.7
 40
0.7
 40
0.8
 40
0.8
 40
0.8
 40
0.8
 40
1.0
 40
1.0
 40
1.0
 40
1.0
 10
641.8213000000001
 20
145.70680000000016
 30
0.0
 10
641.8213000000001
 20
145.70680000000016
 30
0.0
 10
628.9696000000001
 20
145.70680000000016
 30
0.0
 10
628.9696000000001
 20
145.70680000000016
 30
0.0
 10
628.9696000000001
 20
145.70680000000016
 30
0.0
 10
628.9699
 20
141.4762000000003
 30
0.0
 10
628.9699
 20
137.24530000000027
 30
0.0
 10
628.9696000000001
 20
133.01410000000033
 30
0.0
 10
628.9696000000001
 20
133.01410000000033
 30
0.0
 10
628.9693000000001
 20
136.32420000000025
 30
0.0
 10
630.6003000000001
 20
137.39600000000019
 30
0.0
 10
633.4123000000001
 20
137.45650000000023
 30
0.0
 10
633.4123000000001
 20
137.45650000000023
 30
0.0
 10
635.8519000000001
 20
137.45680000000016
 30
0.0
 10
638.2914000000001
 20
137.45680000000016
 30
0.0
 10
640.7306000000001
 20
137.45650000000023
 30
0.0
 10
640.7306000000001
 20
137.45650000000023
 30
0.0
 10
642.3804000000001
 20
137.46330000000034
 30
0.0
 10
643.8553000000002
 20
135.08280000000036
 30
0.0
 10
643.8838000000001
 20
133.01410000000033
 30
0.0
 10
643.8838000000001
 20
133.01410000000033
 30
0.0
 10
643.8835000000001
 20
130.42680000000018
 30
0.0
 10
643.8835000000001
 20
127.83920000000035
 30
0.0
 10
643.8838000000001
 20
125.2515000000003
 30
0.0
 10
643.8838000000001
 20
125.2515000000003
 30
0.0
 10
643.9300000000001
 20
123.29210000000035
 30
0.0
 10
642.4306000000001
 20
120.85580000000027
 30
0.0
 10
640.8047000000001
 20
120.79730000000018
 30
0.0
 10
640.8047000000001
 20
120.79730000000018
 30
0.0
 10
638.8482000000001
 20
120.79760000000033
 30
0.0
 10
633.9532000000002
 20
120.79760000000033
 30
0.0
 10
631.9962
 20
120.79730000000018
 30
0.0
 10
631.9962
 20
120.79730000000018
 30
0.0
 10
630.1507000000001
 20
120.78850000000034
 30
0.0
 10
629.0436000000001
 20
122.75330000000031
 30
0.0
 10
629.0228000000001
 20
125.30440000000021
 30
0.0
  0
SPLINE
  5
4D
330
17
100
AcDbEntity
  8
2_layer 1
 62
242
370
9
100
AcDbSpline
 70
11
 71
3
 72
44
 73
40
 74
0
 42
1e-09
 40
0.0
 40
0.0
 40
0.0
 40
0.0
 40
0.0909090909090909
 40
0.0909090909090909
 40
0.0909090909090909
 40
0.0909090909090909
 40
0.1818181818181818
 40
0.1818181818181818
 40
0.1818181818181818
 40
0.1818181818181818
 40
0.2727272727272727
 40
0.2727272727272727
 40
0.2727272727272727
 40
0.2727272727272727
 40
0.3636363636363636
 40
0.3636363636363636
 40
0.3636363636363636
 40
0.3636363636363636
 40
0.4545454545454545
 40
0.4545454545454545
 40
0.4545454545454545
 40
0.4545454545454545
 40
0.5454545454545454
 40
0.5454545454545454
 40
0.5454545454545454
 40
0.5454545454545454
 40
0.6363636363636364
 40
0.6363636363636364
 40
0.6363636363636364
 40
0.6363636363636364
 40
0.7272727272727273
 40
0.7272727272727273
 40
0.7272727272727273
 40
0.7272727272727273
 40
0.8181818181818182
 40
0.8181818181818182
 40
0.8181818181818182
 40
0.8181818181818182
 40
1.0
 40
1.0
 40
1.0
 40
1.0
 10
869.9996000000001
 20
1649.9995000000004
 30
0.0
 10
869.9996000000001
 20
1649.9995000000004
 30
0.0
 10
869.9996000000001
 20
2.2737367544323206e-13
 30
0.0
 10
869.9996000000001
 20
2.2737367544323206e-13
 30
0.0
 10
869.9996000000001
 20
2.2737367544323206e-13
 30
0.0
 10
869.9996000000001
 20
2.2737367544323206e-13
 30
0.0
 10
1.1368683772161603e-13
 20
2.2737367544323206e-13
 30
0.0
 10
1.1368683772161603e-13
 20
2.2737367544323206e-13
 30
0.0
 10
1.1368683772161603e-13
 20
2.2737367544323206e-13
 30
0.0
 10
1.1368683772161603e-13
 20
2.2737367544323206e-13
 30
0.0
 10
1.1368683772161603e-13
 20
1649.9995000000004
 30
0.0
 10
1.1368683772161603e-13
 20
1649.9995000000004
 30
0.0
 10
1.1368683772161603e-13
 20
1649.9995000000004
 30
0.0
 10
1.1368683772161603e-13
 20
1649.9995000000004
 30
0.0
 10
5.000400000000127
 20
1749.9985000000001
 30
0.0
 10
5.000400000000127
 20
1749.9985000000001
 30
0.0
 10
5.000400000000127
 20
1749.9985000000001
 30
0.0
 10
5.000400000000127
 20
1749.9985000000001
 30
0.0
 10
5.000400000000127
 20
1849.9975000000002
 30
0.0
 10
5.000400000000127
 20
1849.9975000000002
 30
0.0
 10
5.000400000000127
 20
1849.9975000000002
 30
0.0
 10
5.000400000000127
 20
1849.9975000000002
 30
0.0
 10
12.500400000000127
 20
1999.9989000000003
 30
0.0
 10
12.500400000000127
 20
1999.9989000000003
 30
0.0
 10
12.500400000000127
 20
1999.9989000000003
 30
0.0
 10
12.500400000000127
 20
1999.9989000000003
 30
0.0
 10
857.5007
 20
1999.9989000000003
 30
0.0
 10
857.5007
 20
1999.9989000000003
 30
0.0
 10
857.5007
 20
1999.9989000000003
 30
0.0
 10
857.5007
 20
1999.9989000000003
 30
0.0
 10
865.0006000000001
 20
1849.9975000000002
 30
0.0
 10
865.0006000000001
 20
1849.9975000000002
 30
0.0
 10
865.0006000000001
 20
1849.9975000000002
 30
0.0
 10
865.0006000000001
 20
1849.9975000000002
 30
0.0
 10
865.0006000000001
 20
1749.9985000000001
 30
0.0
 10
865.0006000000001
 20
1749.9985000000001
 30
0.0
 10
865.0006000000001
 20
1749.9985000000001
 30
0.0
 10
865.0006000000001
 20
1749.9985000000001
 30
0.0
 10
869.9996000000001
 20
1649.9995000000004
 30
0.0
 10
869.9996000000001
 20
1649.9995000000004
 30
0.0
  0
LWPOLYLINE
  5
4E
330
17
100
AcDbEntity
  8
POLYGON_1
100
AcDbPolyline
 90
99
 70
0
 10
1021.8522694298786
 20
572.5547106300951
 10
1015.1402400534243
 20
572.5122311471
 10
1005.5921418082471
 20
572.4518025860357
 10
1001.115565788507
 20
571.6729878448108
 10
997.4221066071095
 20
568.0644627946249
 10
996.6044941729083
 20
561.1729882956367
 10
996.8332677046387
 20
541.2048277788413
 10
997.7638224052075
 20
525.2252014092062
 10
1000.5349283307478
 20
520.0048308397479
 10
1002.9142537002836
 20
514.7979499582295
 10
1003.6856796231691
 20
507.5135845571638
 10
1002.1597064299563
 20
501.1515476117811
 10
994.7571442810431
 20
498.8887984578282
 10
966.74184438167
 20
498.55176364236695
 10
942.3685740699357
 20
499.54744371313916
 10
939.4863021183073
 20
505.9220918717811
 10
940.626301979154
 20
515.7211693212872
 10
944.0267286291123
 20
521.9340388009034
 10
946.4908660741821
 20
524.9168787678873
 10
946.9662678627506
 20
532.5509426552671
 10
947.3360758767035
 20
542.8057661591799
 10
947.7487423847933
 20
553.0953162639291
 10
947.3825545972977
 20
557.4307366083608
 10
946.2469348387312
 20
559.3950982507233
 10
944.0369996113523
 20
561.0208817110064
 10
940.1125789098323
 20
561.3084323625171
 10
936.9936677045098
 20
562.1173710119411
 10
935.7698713983373
 20
563.8468392978357
 10
935.2328261002949
 20
565.5215473652864
 10
934.8392675066398
 20
568.0291614420871
 10
934.0757907342277
 20
571.0160425291881
 10
932.2893002049436
 20
572.5066190128155
 10
924.6818680305405
 20
572.8270672929965
 10
918.5108692157378
 20
572.8501106212204
 10
913.1155558930695
 20
572.81959520267
 10
910.3186341295059
 20
571.0302042964167
 10
910.0526595128458
 20
565.5388840513367
 10
910.1288187412592
 20
559.5806137529523
 10
910.1960448583759
 20
555.0543294269805
 10
910.1856169916828
 20
547.6003467139353
 10
909.4912065766907
 20
543.3771978589289
 10
904.4115021751791
 20
542.7832065002098
 10
897.9360075885443
 20
543.5003412916869
 10
895.004314527408
 20
541.1066574766194
 10
893.6665805291345
 20
534.3825327779844
 10
891.9694626381611
 20
525.2587408472002
 10
887.1636500797945
 20
500.43136948047146
 10
882.9623238382128
 20
475.5182483311061
 10
880.7848844241989
 20
460.9858354351544
 10
878.2785052409381
 20
443.92221548477755
 10
877.5019446668744
 20
435.06185392004755
 10
876.8197652298004
 20
422.7923684759538
 10
876.5081526357967
 20
411.5140400311475
 10
876.1896260577723
 20
288.36027735004836
 10
875.8487653779475
 20
156.5713524482013
 10
874.9008953775897
 20
146.68061067478072
 10
872.9996000000001
 20
142.6049209175261
 10
874.4337151535328
 20
128.1144754098633
 10
884.8124384600542
 20
53.41063195067875
 10
891.1257975110707
 20
8.025897849396074
 10
893.339806595176
 20
3.803778949581556
 10
897.5193917917436
 20
1.6175664660435132
 10
907.1662462887443
 20
1.4313537890859607
 10
929.5275925506094
 20
1.28739162292527
 10
939.1768816478043
 20
1.6149809967467945
 10
943.0614232684184
 20
5.054189994228068
 10
948.6445691111917
 20
7.440110632976257
 10
967.6233859847744
 20
7.322681573485966
 10
990.274260284169
 20
6.956144825738193
 10
995.4735744336645
 20
5.377830796794115
 10
997.8267376369672
 20
2.284071535327257
 10
1001.2868479711774
 20
0.5534490335486453
 10
1024.081438819917
 20
0.04678162635480021
 10
1045.3315117996708
 20
0.0
 10
1050.320766443941
 20
1.2603429029331892
 10
1053.3945097642159
 20
4.95940797280366
 10
1056.2277801194223
 20
26.63470873959568
 10
1065.4289321997258
 20
105.13414601957209
 10
1069.5148630508515
 20
140.8995106701998
 10
1067.6877796607077
 20
145.46936105103111
 10
1065.6105085461404
 20
149.97804040420397
 10
1064.3534866771784
 20
229.95429544411286
 10
1062.0312593880453
 20
383.47999613669856
 10
1060.9658377130136
 20
424.45498828638426
 10
1057.9963931799653
 20
463.32577229590834
 10
1055.826630629807
 20
486.10858832330007
 10
1052.839385375586
 20
504.5326800110109
 10
1049.8579060988745
 20
522.3436461410354
 10
1046.4100250241868
 20
536.356643827623
 10
1041.2560654430736
 20
544.1554026244153
 10
1033.8700190136656
 20
544.890403789846
 10
1031.3710015249708
 20
545.510618553744
 10
1029.976170771335
 20
547.4119999683292
 10
1029.9445737877832
 20
554.8062092876406
 10
1029.9057513588077
 20
563.8912906423151
 10
1029.6582049626581
 20
566.5404495568587
 10
1028.5985848725481
 20
568.9563867156664
 10
1026.8416406800898
 20
570.8657475703794
 10
1024.5414947457202
 20
572.116024686641
  0
IMAGE
  5
4F
330
17
100
AcDbEntity
  8
1_layer 1
 62
0
 92
140
310
8C00000001000000840000000600000005000000454772F90FF36540F831E6AE251E69C00000000000000000B4CAEAE1FC718940F831E6AE251E69C00000000000000000B4CAEAE1FC71894088AB3F11AD4F90400000000000000000454772F90FF3654088AB3F11AD4F90400000000000000000454772F90FF36540F831E6
310
AE251E69C00000000000000000
100
AcDbRasterImage
 90
0
 10
-1096.9718305701215
 20
744.3087106300951
 30
0.0
 11
0.01388888888888889
 21
0.0
 31
0.0
 12
0.0
 22
0.01388888888888889
 32
0.0
 13
45983.0
 23
89630.0
340
71
 70
3
280
1
281
50
282
50
283
0
360
50
 71
1
 91
2
 14
175.5957
 24
-200.9421
 14
814.2618
 24
1043.9316
290
0
  0
IMAGE
  5
51
330
17
100
AcDbEntity
  8
1_layer 1
 62
0
 92
140
310
8C00000001000000840000000600000005000000A52C431CEBE87640C520B072683D7B4000000000000000008C2405C703788240C520B072683D7B4000000000000000008C2405C7037882408C92CC39DA417D400000000000000000A52C431CEBE876408C92CC39DA417D400000000000000000A52C431CEBE87640C520B0
310
72683D7B400000000000000000
100
AcDbRasterImage
 90
0
 10
-906.0101305701216
 20
1381.0888106300952
 30
0.0
 11
0.01388888888888889
 21
0.0
 31
0.0
 12
0.0
 22
0.01388888888888889
 32
0.0
 13
16160.0
 23
2324.0
340
74
 70
3
280
1
281
50
282
50
283
0
360
52
 71
1
 91
2
 14
366.5574
 24
435.838
 14
591.0065
 24
468.1172
290
0
  0
IMAGE
  5
53
330
17
100
AcDbEntity
  8
1_layer 1
 62
0
 92
140
310
8C00000001000000840000000600000005000000A52C431CEBE87640C0EC9E3C2C92774000000000000000001A083E55E7558240C0EC9E3C2C92774000000000000000001A083E55E7558240875EBB039E9679400000000000000000A52C431CEBE87640875EBB039E9679400000000000000000A52C431CEBE87640C0EC9E
310
3C2C9277400000000000000000
100
AcDbRasterImage
 90
0
 10
-906.0101305701216
 20
1322.3866106300952
 30
0.0
 11
0.01388888888888889
 21
0.0
 31
0.0
 12
0.0
 22
0.01388888888888889
 32
0.0
 13
15853.0
 23
2324.0
340
77
 70
3
280
1
281
50
282
50
283
0
360
54
 71
1
 91
2
 14
366.5574
 24
377.1358
 14
586.7497
 24
409.415
290
0
  0
IMAGE
  5
55
330
17
100
AcDbEntity
  8
1_layer 1
 62
0
 92
140
310
8C00000001000000840000000600000005000000A52C431CEBE87640BBB88D06F0E6734000000000000000008C2405C703FB8440BBB88D06F0E6734000000000000000008C2405C703FB8440822AAACD61EB75400000000000000000A52C431CEBE87640822AAACD61EB75400000000000000000A52C431CEBE87640BBB88D
310
06F0E673400000000000000000
100
AcDbRasterImage
 90
0
 10
-906.0101305701216
 20
1263.684410630095
 30
0.0
 11
0.01388888888888889
 21
0.0
 31
0.0
 12
0.0
 22
0.01388888888888889
 32
0.0
 13
21947.0
 23
2324.0
340
7A
 70
3
280
1
281
50
282
50
283
0
360
56
 71
1
 91
2
 14
366.5574
 24
318.4336
 14
671.3812
 24
350.7128
290
0
  0
IMAGE
  5
57
330
17
100
AcDbEntity
  8
1_layer 1
 62
0
 92
140
310
8C00000001000000840000000600000005000000A52C431CEBE876402AA913D044387040000000000000000036CFAF71AE9282402AA913D044387040000000000000000036CFAF71AE9282409CC5DA41614372400000000000000000A52C431CEBE876409CC5DA41614372400000000000000000A52C431CEBE876402AA913
310
D0443870400000000000000000
100
AcDbRasterImage
 90
0
 10
-906.0101305701216
 20
1204.767610630095
 30
0.0
 11
0.01388888888888889
 21
0.0
 31
0.0
 12
0.0
 22
0.01388888888888889
 32
0.0
 13
16400.0
 23
2354.0
340
7D
 70
3
280
1
281
50
282
50
283
0
360
58
 71
1
 91
2
 14
366.5574
 24
259.5168
 14
594.3461
 24
292.2193
290
0
  0
IMAGE
  5
59
330
17
100
AcDbEntity
  8
1_layer 1
 62
0
 92
140
310
8C00000001000000840000000600000005000000A52C431CEBE876404BEA0434111A694000000000000000005296218E75AF82404BEA0434111A694000000000000000005296218E75AF82402F2393174A306D400000000000000000A52C431CEBE876402F2393174A306D400000000000000000A52C431CEBE876404BEA04
310
34111A69400000000000000000
100
AcDbRasterImage
 90
0
 10
-906.0101305701216
 20
1146.0654106300951
 30
0.0
 11
0.01388888888888889
 21
0.0
 31
0.0
 12
0.0
 22
0.01388888888888889
 32
0.0
 13
16659.0
 23
2354.0
340
80
 70
3
280
1
281
50
282
50
283
0
360
5A
 71
1
 91
2
 14
366.5574
 24
200.8146
 14
597.9385
 24
233.5171
290
0
  0
IMAGE
  5
5B
330
17
100
AcDbEntity
  8
1_layer 1
 62
0
 92
140
310
8C00000001000000840000000600000005000000C217265305E9764089D2DEE00B38814000000000000000006FEFCB3766A0804089D2DEE00B38814000000000000000006FEFCB3766A0804089D2DEE00BF781400000000000000000C217265305E9764089D2DEE00BF781400000000000000000C217265305E9764089D2DE
310
E00B3881400000000000000000
100
AcDbRasterImage
 90
0
 10
-906.0037305701215
 20
1496.256610630095
 30
0.0
 11
0.01388888888888889
 21
0.0
 31
0.0
 12
0.0
 22
0.01388888888888889
 32
0.0
 13
11915.0
 23
1719.0
340
83
 70
3
280
1
281
50
282
50
283
0
360
5C
 71
1
 91
2
 14
366.5638
 24
551.0058
 14
532.0517
 24
574.8888000000001
290
0
  0
IMAGE
  5
5D
330
17
100
AcDbEntity
  8
1_layer 1
 62
0
 92
140
310
8C000000010000008400000006000000050000008D28ED0DBEE87640DFE00B93A9F5824000000000000000009CE94B5CB4818740DFE00B93A9F5824000000000000000009CE94B5CB481874051FDD204C6FF834000000000000000008D28ED0DBEE8764051FDD204C6FF834000000000000000008D28ED0DBEE87640DFE00B
310
93A9F582400000000000000000
100
AcDbRasterImage
 90
0
 10
-906.0211305701216
 20
1551.958610630095
 30
0.0
 11
0.01388888888888889
 21
0.0
 31
0.0
 12
0.0
 22
0.01388888888888889
 32
0.0
 13
27768.0
 23
2395.0
340
86
 70
3
280
1
281
50
282
50
283
0
360
5E
 71
1
 91
2
 14
366.5464
 24
606.7078
 14
752.2254
 24
639.9747
290
0
  0
IMAGE
  5
5F
330
17
100
AcDbEntity
  8
1_layer 1
 62
0
 92
140
310
8C00000001000000840000000600000005000000C217265305E97640ED9E3C2C54C284400000000000000000C444218DBB778240ED9E3C2C54C284400000000000000000C444218DBB7782409849E7D6FE8F85400000000000000000C217265305E976409849E7D6FE8F85400000000000000000C217265305E97640ED9E3C
310
2C54C284400000000000000000
100
AcDbRasterImage
 90
0
 10
-906.0037305701215
 20
1609.5419106300951
 30
0.0
 11
0.01388888888888889
 21
0.0
 31
0.0
 12
0.0
 22
0.01388888888888889
 32
0.0
 13
16157.0
 23
1851.0
340
89
 70
3
280
1
281
50
282
50
283
0
360
60
 71
1
 91
2
 14
366.5638
 24
664.2911
 14
590.9772
 24
690.0086
290
0
  0
IMAGE
  5
61
330
17
100
AcDbEntity
  8
1_layer 1
 62
0
 92
140
310
8C000000010000008400000006000000050000002C6519E258E97640B7D100DE028886400000000000000000405DB71B57C38440B7D100DE028886400000000000000000405DB71B57C38440627CAB88AD90874000000000000000002C6519E258E97640627CAB88AD90874000000000000000002C6519E258E97640B7D100
310
DE028886400000000000000000
100
AcDbRasterImage
 90
0
 10
-905.9833305701216
 20
1666.252210630095
 30
0.0
 11
0.01388888888888889
 21
0.0
 31
0.0
 12
0.0
 22
0.01388888888888889
 32
0.0
 13
21444.0
 23
2382.0
340
8C
 70
3
280
1
281
50
282
50
283
0
360
62
 71
1
 91
2
 14
366.5842
 24
721.0014
 14
664.428
 24
754.0919
290
0
  0
IMAGE
  5
63
330
17
100
AcDbEntity
  8
1_layer 1
 62
0
 92
140
310
8C00000001000000840000000600000005000000E25817B7D1E87640454772F98F5288400000000000000000C691A59A0ACF7D40454772F98F5288400000000000000000C691A59A0ACF7D40620EE415572389400000000000000000E25817B7D1E87640620EE415572389400000000000000000E25817B7D1E87640454772
310
F98F5288400000000000000000
100
AcDbRasterImage
 90
0
 10
-906.0163305701216
 20
1723.571110630095
 30
0.0
 11
0.01388888888888889
 21
0.0
 31
0.0
 12
0.0
 22
0.01388888888888889
 32
0.0
 13
7948.0
 23
1879.0
340
8F
 70
3
280
1
281
50
282
50
283
0
360
64
 71
1
 91
2
 14
366.5512
 24
778.3203
 14
476.9468
 24
804.4258
290
0
  0
IMAGE
  5
65
330
17
100
AcDbEntity
  8
1_layer 1
 62
0
 92
140
310
8C00000001000000840000000600000005000000B30C71AC8BE87640098A1F636E1A8A4000000000000000009745FF8FC4727B40098A1F636E1A8A4000000000000000009745FF8FC4727B40098A1F636E218B400000000000000000B30C71AC8BE87640098A1F636E218B400000000000000000B30C71AC8BE87640098A1F
310
636E1A8A400000000000000000
100
AcDbRasterImage
 90
0
 10
-906.0334305701215
 20
1780.554710630095
 30
0.0
 11
0.01388888888888889
 21
0.0
 31
0.0
 12
0.0
 22
0.01388888888888889
 32
0.0
 13
5230.0
 23
2367.0
340
92
 70
3
280
1
281
50
282
50
283
0
360
66
 71
1
 91
2
 14
366.5341
 24
835.3039
 14
439.1768
 24
868.1828
290
0
  0
IMAGE
  5
67
330
17
100
AcDbEntity
  8
1_layer 1
 62
0
 92
140
310
8C00000001000000840000000600000005000000E25817B7D1E87640A69BC420B0FE8B40000000000000000038AE6C0C27CC7E40A69BC420B0FE8B40000000000000000038AE6C0C27CC7E4051466FCB5A978C400000000000000000E25817B7D1E8764051466FCB5A978C400000000000000000E25817B7D1E87640A69BC4
310
20B0FE8B400000000000000000
100
AcDbRasterImage
 90
0
 10
-906.0163305701216
 20
1841.086810630095
 30
0.0
 11
0.01388888888888889
 21
0.0
 31
0.0
 12
0.0
 22
0.01388888888888889
 32
0.0
 13
9087.0
 23
1374.0
340
95
 70
3
280
1
281
50
282
50
283
0
360
68
 71
1
 91
2
 14
366.5512
 24
895.836
 14
492.769
 24
914.9213
290
0
  0
IMAGE
  5
69
330
17
100
AcDbEntity
  8
1_layer 1
 62
0
 92
140
310
8C00000001000000840000000600000005000000E25817B7D1E876407DAEB6627FAE8D400000000000000000E25817B7D1707C407DAEB6627FAE8D400000000000000000E25817B7D1707C402859610D2A7C8E400000000000000000E25817B7D1E876402859610D2A7C8E400000000000000000E25817B7D1E876407DAEB6
310
627FAE8D400000000000000000
100
AcDbRasterImage
 90
0
 10
-906.0163305701216
 20
1895.063010630095
 30
0.0
 11
0.01388888888888889
 21
0.0
 31
0.0
 12
0.0
 22
0.01388888888888889
 32
0.0
 13
6372.0
 23
1851.0
340
98
 70
3
280
1
281
50
282
50
283
0
360
6A
 71
1
 91
2
 14
366.5512
 24
949.8122
 14
455.0631
 24
975.5296999999999
290
0
  0
IMAGE
  5
6B
330
17
100
AcDbEntity
  8
1_layer 1
 62
0
 92
140
310
8C00000001000000840000000600000005000000B84082E2C7E87640ACADD85F762757400000000000000000F1CE651B56BA7B40ACADD85F762757400000000000000000F1CE651B56BA7B4001032EB5CBEC5B400000000000000000B84082E2C7E8764001032EB5CBEC5B400000000000000000B84082E2C7E87640ACADD8
310
5F762757400000000000000000
100
AcDbRasterImage
 90
0
 10
-906.0187305701215
 20
1037.867410630095
 30
0.0
 11
0.01388888888888889
 21
0.0
 31
0.0
 12
0.0
 22
0.01388888888888889
 32
0.0
 13
5551.0
 23
1374.0
340
9B
 70
3
280
1
281
50
282
50
283
0
360
6C
 71
1
 91
2
 14
366.5488
 24
92.6166
 14
443.6541
 24
111.7019
290
0
  0
IMAGE
  5
6D
330
17
100
AcDbEntity
  8
1_layer 1
 62
0
 92
140
310
8C0000000100000084000000060000000500000048E17A14AEE876404C378941605D444000000000000000009E36D06903FE7F404C378941605D444000000000000000009E36D06903FE7F4018B88B92CCBD5040000000000000000048E17A14AEE8764018B88B92CCBD5040000000000000000048E17A14AEE876404C3789
310
41605D44400000000000000000
100
AcDbRasterImage
 90
0
 10
-906.0250305701215
 20
985.9803106300951
 30
0.0
 11
0.01388888888888889
 21
0.0
 31
0.0
 12
0.0
 22
0.01388888888888889
 32
0.0
 13
10464.0
 23
1889.0
340
9E
 70
3
280
1
281
50
282
50
283
0
360
6E
 71
1
 91
2
 14
366.5425
 24
40.7295
 14
511.8807
 24
66.9762
290
0
  0
IMAGE
  5
6F
330
17
100
AcDbEntity
  8
1_layer 1
 62
0
 92
140
310
8C000000010000008400000006000000050000001904560E2DEB76408126C286A79B60C000000000000000000D022B87962C87408126C286A79B60C000000000000000000D022B87962C87401F14F629163159C000000000000000001904560E2DEB76401F14F629163159C000000000000000001904560E2DEB76408126C2
310
86A79B60C00000000000000000
100
AcDbRasterImage
 90
0
 10
-905.8690305701216
 20
812.3866106300951
 30
0.0
 11
0.01388888888888889
 21
0.0
 31
0.0
 12
0.0
 22
0.01388888888888889
 32
0.0
 13
26991.0
 23
2311.0
340
A1
 70
3
280
1
281
50
282
50
283
0
360
70
 71
1
 91
2
 14
366.6985
 24
-132.8642
 14
741.5782
 24
-100.7614
290
0
  0
IMAGE
  5
71
330
17
100
AcDbEntity
  8
1_layer 1
 62
0
 92
140
310
8C00000001000000840000000600000005000000B0726891ED118AC08C06F01648AD7EC000000000000000003015671F3E6B52408C06F01648AD7EC000000000000000003015671F3E6B5240968C2733BCE495400000000000000000B0726891ED118AC0968C2733BCE495400000000000000000B0726891ED118AC08C06F0
310
1648AD7EC00000000000000000
100
AcDbRasterImage
 90
0
 10
-2106.8085305701215
 20
454.4207106300951
 30
0.0
 11
0.01388888888888889
 21
0.0
 31
0.0
 12
0.0
 22
0.01388888888888889
 32
0.0
 13
65370.0
 23
136225.0
340
A4
 70
3
280
1
281
50
282
50
283
0
360
72
 71
1
 91
2
 14
-834.241
 24
-490.8301
 14
73.68079999999998
 24
1401.1967
290
0
  0
SPLINE
  5
73
330
17
100
AcDbEntity
  8
1_layer 2
 62
242
370
158
100
AcDbSpline
 70
11
 71
3
 72
168
 73
164
 74
0
 42
1e-09
 40
0.0
 40
0.0
 40
0.0
 40
0.0
 40
0.0238095238095238
 40
0.0238095238095238
 40
0.0238095238095238
 40
0.0238095238095238
 40
0.0476190476190476
 40
0.0476190476190476
 40
0.0476190476190476
 40
0.0476190476190476
 40
0.0714285714285714
 40
0.0714285714285714
 40
0.0714285714285714
 40
0.0714285714285714
 40
0.0952380952380952
 40
0.0952380952380952
 40
0.0952380952380952
 40
0.0952380952380952
 40
0.119047619047619
 40
0.119047619047619
 40
0.119047619047619
 40
0.119047619047619
 40
0.1428571428571428
 40
0.1428571428571428
 40
0.1428571428571428
 40
0.1428571428571428
 40
0.1666666666666667
 40
0.1666666666666667
 40
0.1666666666666667
 40
0.1666666666666667
 40
0.1904761904761905
 40
0.1904761904761905
 40
0.1904761904761905
 40
0.1904761904761905
 40
0.2142857142857143
 40
0.2142857142857143
 40
0.2142857142857143
 40
0.2142857142857143
 40
0.2380952380952381
 40
0.2380952380952381
 40
0.2380952380952381
 40
0.2380952380952381
 40
0.2619047619047619
 40
0.2619047619047619
 40
0.2619047619047619
 40
0.2619047619047619
 40
0.2857142857142857
 40
0.2857142857142857
 40
0.2857142857142857
 40
0.2857142857142857
 40
0.3095238095238095
 40
0.3095238095238095
 40
0.3095238095238095
 40
0.3095238095238095
 40
0.3333333333333333
 40
0.3333333333333333
 40
0.3333333333333333
 40
0.3333333333333333
 40
0.3571428571428572
 40
0.3571428571428572
 40
0.3571428571428572
 40
0.3571428571428572
 40
0.3809523809523809
 40
0.3809523809523809
 40
0.3809523809523809
 40
0.3809523809523809
 40
0.4047619047619048
 40
0.4047619047619048
 40
0.4047619047619048
 40
0.4047619047619048
 40
0.4285714285714285
 40
0.4285714285714285
 40
0.4285714285714285
 40
0.4285714285714285
 40
0.4523809523809524
 40
0.4523809523809524
 40
0.4523809523809524
 40
0.4523809523809524
 40
0.4761904761904762
 40
0.4761904761904762
 40
0.4761904761904762
 40
0.4761904761904762
 40
0.5
 40
0.5
 40
0.5
 40
0.5
 40
0.5238095238095238
 40
0.5238095238095238
 40
0.5238095238095238
 40
0.5238095238095238
 40
0.5476190476190477
 40
0.5476190476190477
 40
0.5476190476190477
 40
0.5476190476190477
 40
0.5714285714285714
 40
0.5714285714285714
 40
0.5714285714285714
 40
0.5714285714285714
 40
0.5952380952380952
 40
0.5952380952380952
 40
0.5952380952380952
 40
0.5952380952380952
 40
0.6190476190476191
 40
0.6190476190476191
 40
0.6190476190476191
 40
0.6190476190476191
 40
0.6428571428571429
 40
0.6428571428571429
 40
0.6428571428571429
 40
0.6428571428571429
 40
0.6666666666666666
 40
0.6666666666666666
 40
0.6666666666666666
 40
0.6666666666666666
 40
0.6904761904761905
 40
0.6904761904761905
 40
0.6904761904761905
 40
0.6904761904761905
 40
0.7142857142857143
 40
0.7142857142857143
 40
0.7142857142857143
 40
0.7142857142857143
 40
0.7380952380952381
 40
0.7380952380952381
 40
0.7380952380952381
 40
0.7380952380952381
 40
0.7619047619047619
 40
0.7619047619047619
 40
0.7619047619047619
 40
0.7619047619047619
 40
0.7857142857142857
 40
0.7857142857142857
 40
0.7857142857142857
 40
0.7857142857142857
 40
0.8095238095238095
 40
0.8095238095238095
 40
0.8095238095238095
 40
0.8095238095238095
 40
0.8333333333333334
 40
0.8333333333333334
 40
0.8333333333333334
 40
0.8333333333333334
 40
0.8571428571428571
 40
0.8571428571428571
 40
0.8571428571428571
 40
0.8571428571428571
 40
0.8809523809523809
 40
0.8809523809523809
 40
0.8809523809523809
 40
0.8809523809523809
 40
0.9047619047619048
 40
0.9047619047619048
 40
0.9047619047619048
 40
0.9047619047619048
 40
0.9285714285714286
 40
0.9285714285714286
 40
0.9285714285714286
 40
0.9285714285714286
 40
0.9523809523809523
 40
0.9523809523809523
 40
0.9523809523809523
 40
0.9523809523809523
 40
1.0
 40
1.0
 40
1.0
 40
1.0
 10
1021.8522694298786
 20
572.5547106300951
 30
0.0
 10
1021.8522694298786
 20
572.5547106300951
 30
0.0
 10
1004.5189694298783
 20
572.4450106300951
 30
0.0
 10
1004.5189694298783
 20
572.4450106300951
 30
0.0
 10
1004.5189694298783
 20
572.4450106300951
 30
0.0
 10
1000.0378694298784
 20
572.4166106300951
 30
0.0
 10
996.4901694298783
 20
568.7815106300951
 30
0.0
 10
996.5709694298785
 20
564.3010106300951
 30
0.0
 10
996.5709694298785
 20
564.3010106300951
 30
0.0
 10
996.6770694298784
 20
558.4116106300951
 30
0.0
 10
996.6072694298782
 20
528.0569106300951
 30
0.0
 10
997.8754694298786
 20
524.8613106300951
 30
0.0
 10
997.8754694298786
 20
524.8613106300951
 30
0.0
 10
1000.0540694298784
 20
519.3715106300951
 30
0.0
 10
1002.7264694298783
 20
519.0625106300951
 30
0.0
 10
1003.5184694298782
 20
511.16691063009506
 30
0.0
 10
1003.5184694298782
 20
511.16691063009506
 30
0.0
 10
1003.9641694298784
 20
506.7229106300951
 30
0.0
 10
1003.9754694298786
 20
499.00681063009506
 30
0.0
 10
997.9128694298784
 20
498.9382106300951
 30
0.0
 10
997.9128694298784
 20
498.9382106300951
 30
0.0
 10
989.3629694298784
 20
498.8414106300951
 30
0.0
 10
945.2932694298784
 20
497.6813106300951
 30
0.0
 10
941.2007694298786
 20
499.9176106300951
 30
0.0
 10
941.2007694298786
 20
499.9176106300951
 30
0.0
 10
938.1197694298785
 20
502.5568106300951
 30
0.0
 10
939.6600694298786
 20
515.4248106300951
 30
0.0
 10
941.9405694298785
 20
519.1316106300951
 30
0.0
 10
941.9405694298785
 20
519.1316106300951
 30
0.0
 10
945.6959694298785
 20
525.2358106300951
 30
0.0
 10
947.1551694298782
 20
521.7310106300952
 30
0.0
 10
946.9797694298786
 20
531.1454106300951
 30
0.0
 10
946.9797694298786
 20
531.1454106300951
 30
0.0
 10
946.8368694298783
 20
538.8142106300951
 30
0.0
 10
947.8740694298785
 20
547.5426106300952
 30
0.0
 10
947.7392694298783
 20
555.2115106300951
 30
0.0
 10
947.7392694298783
 20
555.2115106300951
 30
0.0
 10
947.6934694298784
 20
557.8220106300951
 30
0.0
 10
946.6155694298786
 20
559.134710630095
 30
0.0
 10
945.3997694298782
 20
560.2654106300951
 30
0.0
 10
945.3997694298782
 20
560.2654106300951
 30
0.0
 10
943.2568694298784
 20
562.2582106300952
 30
0.0
 10
938.8616694298785
 20
560.4792106300952
 30
0.0
 10
937.1144694298782
 20
562.0080106300951
 30
0.0
 10
937.1144694298782
 20
562.0080106300951
 30
0.0
 10
935.7584694298785
 20
563.194410630095
 30
0.0
 10
935.3053694298783
 20
564.9410106300951
 30
0.0
 10
935.1678694298785
 20
565.9038106300951
 30
0.0
 10
935.1678694298785
 20
565.9038106300951
 30
0.0
 10
934.8704694298785
 20
567.9866106300951
 30
0.0
 10
934.4101694298784
 20
571.2568106300951
 30
0.0
 10
933.3067694298784
 20
572.2928106300951
 30
0.0
 10
933.3067694298784
 20
572.2928106300951
 30
0.0
 10
932.7347694298783
 20
572.8298106300952
 30
0.0
 10
919.9788694298786
 20
572.9113106300952
 30
0.0
 10
918.5108694298783
 20
572.8501106300951
 30
0.0
 10
918.5108694298783
 20
572.8501106300951
 30
0.0
 10
913.4122694298785
 20
572.6388106300951
 30
0.0
 10
910.1492694298786
 20
573.9042106300951
 30
0.0
 10
910.0667694298786
 20
569.3263106300951
 30
0.0
 10
910.0667694298786
 20
569.3263106300951
 30
0.0
 10
909.9942694298784
 20
565.3039106300951
 30
0.0
 10
910.1603694298783
 20
558.2160106300951
 30
0.0
 10
910.1690694298786
 20
557.3138106300951
 30
0.0
 10
910.1690694298786
 20
557.3138106300951
 30
0.0
 10
910.2286694298787
 20
551.1803106300952
 30
0.0
 10
910.4688694298784
 20
544.0940106300951
 30
0.0
 10
909.3973694298784
 20
543.2867106300951
 30
0.0
 10
909.3973694298784
 20
543.2867106300951
 30
0.0
 10
906.6753694298786
 20
541.2359106300951
 30
0.0
 10
898.8357694298784
 20
544.7130106300951
 30
0.0
 10
895.9156694298786
 20
543.0297106300951
 30
0.0
 10
895.9156694298786
 20
543.0297106300951
 30
0.0
 10
894.6323694298785
 20
542.2898106300951
 30
0.0
 10
893.4086694298785
 20
532.277710630095
 30
0.0
 10
893.0479694298783
 20
530.5284106300951
 30
0.0
 10
893.0479694298783
 20
530.5284106300951
 30
0.0
 10
889.0725694298785
 20
511.2529106300951
 30
0.0
 10
885.3061694298785
 20
491.43751063009506
 30
0.0
 10
882.4296694298782
 20
471.9761106300951
 30
0.0
 10
882.4296694298782
 20
471.9761106300951
 30
0.0
 10
881.8274694298784
 20
467.8621106300951
 30
0.0
 10
877.8561694298783
 20
441.74411063009507
 30
0.0
 10
877.7668694298786
 20
439.9281106300951
 30
0.0
 10
877.7668694298786
 20
439.9281106300951
 30
0.0
 10
877.4598694298784
 20
433.6870106300951
 30
0.0
 10
876.5284694298784
 20
419.65311063009506
 30
0.0
 10
876.5153694298783
 20
414.3043106300951
 30
0.0
 10
876.5153694298783
 20
414.3043106300951
 30
0.0
 10
876.5153694298783
 20
414.3043106300951
 30
0.0
 10
875.8328694298784
 20
150.42541063009514
 30
0.0
 10
875.8328694298784
 20
150.42541063009514
 30
0.0
 10
875.8328694298784
 20
150.42541063009514
 30
0.0
 10
875.8210694298787
 20
145.8807106300951
 30
0.0
 10
872.1604694298785
 20
144.47651063009505
 30
0.0
 10
872.8455694298787
 20
139.5456106300951
 30
0.0
 10
872.8455694298787
 20
139.5456106300951
 30
0.0
 10
872.8455694298787
 20
139.5456106300951
 30
0.0
 10
891.0681694298783
 20
8.38321063009505
 30
0.0
 10
891.0681694298783
 20
8.38321063009505
 30
0.0
 10
891.0681694298783
 20
8.38321063009505
 30
0.0
 10
891.6187694298783
 20
4.420310630095059
 30
0.0
 10
894.9396694298784
 20
1.5101106300951415
 30
0.0
 10
898.9405694298785
 20
1.4843106300951376
 30
0.0
 10
898.9405694298785
 20
1.4843106300951376
 30
0.0
 10
898.9405694298785
 20
1.4843106300951376
 30
0.0
 10
936.3590694298782
 20
1.243410630095127
 30
0.0
 10
936.3590694298782
 20
1.243410630095127
 30
0.0
 10
936.3590694298782
 20
1.243410630095127
 30
0.0
 10
944.0004694298786
 20
1.1942106300950854
 30
0.0
 10
941.0567694298784
 20
7.508710630095038
 30
0.0
 10
948.6445694298786
 20
7.440110630095091
 30
0.0
 10
948.6445694298786
 20
7.440110630095091
 30
0.0
 10
954.0125694298786
 20
7.387310630095044
 30
0.0
 10
991.4249694298783
 20
7.310310630095046
 30
0.0
 10
993.3637694298786
 20
6.722410630095055
 30
0.0
 10
993.3637694298786
 20
6.722410630095055
 30
0.0
 10
996.2997694298783
 20
5.832310630095094
 30
0.0
 10
997.8224694298783
 20
1.5415106300951038
 30
0.0
 10
999.0650694298783
 20
0.8756106300951387
 30
0.0
 10
999.0650694298783
 20
0.8756106300951387
 30
0.0
 10
1000.9801694298785
 20
-0.15068936990496695
 30
0.0
 10
1040.3852694298785
 20
0.03951063009503741
 30
0.0
 10
1045.9265694298783
 20
-0.0032893699049054703
 30
0.0
 10
1045.9265694298783
 20
-0.0032893699049054703
 30
0.0
 10
1050.0270694298783
 20
-0.0349893699049062
 30
0.0
 10
1053.4565694298785
 20
2.992410630095037
 30
0.0
 10
1053.9339694298783
 20
7.065110630095091
 30
0.0
 10
1053.9339694298783
 20
7.065110630095091
 30
0.0
 10
1053.9339694298783
 20
7.065110630095091
 30
0.0
 10
1069.4521694298783
 20
139.45831063009507
 30
0.0
 10
1069.4521694298783
 20
139.45831063009507
 30
0.0
 10
1069.4521694298783
 20
139.45831063009507
 30
0.0
 10
1070.1255694298784
 20
145.2027106300951
 30
0.0
 10
1065.6297694298783
 20
145.57441063009514
 30
0.0
 10
1065.5493694298784
 20
150.89281063009514
 30
0.0
 10
1065.5493694298784
 20
150.89281063009514
 30
0.0
 10
1065.5493694298784
 20
150.89281063009514
 30
0.0
 10
1061.5700694298785
 20
413.9699106300951
 30
0.0
 10
1061.5700694298785
 20
413.9699106300951
 30
0.0
 10
1061.5700694298785
 20
413.9699106300951
 30
0.0
 10
1061.4637694298785
 20
420.9395106300951
 30
0.0
 10
1056.7820694298784
 20
480.29981063009507
 30
0.0
 10
1056.0146694298783
 20
484.9579106300951
 30
0.0
 10
1056.0146694298783
 20
484.9579106300951
 30
0.0
 10
1055.2322694298782
 20
489.7067106300951
 30
0.0
 10
1050.1140694298783
 20
521.6824106300951
 30
0.0
 10
1049.6136694298784
 20
523.558510630095
 30
0.0
 10
1049.6136694298784
 20
523.558510630095
 30
0.0
 10
1045.3397694298783
 20
539.582210630095
 30
0.0
 10
1046.1806694298784
 20
545.5457106300951
 30
0.0
 10
1035.0000694298783
 20
544.9005106300951
 30
0.0
 10
1035.0000694298783
 20
544.9005106300951
 30
0.0
 10
1032.9816694298784
 20
544.784010630095
 30
0.0
 10
1030.5281694298783
 20
545.1176106300951
 30
0.0
 10
1029.9763694298786
 20
547.3655106300951
 30
0.0
 10
1029.9763694298786
 20
547.3655106300951
 30
0.0
 10
1029.9763694298786
 20
547.3655106300951
 30
0.0
 10
1029.9027694298784
 20
564.5891106300951
 30
0.0
 10
1029.9027694298784
 20
564.5891106300951
 30
0.0
 10
1029.9027694298784
 20
564.5891106300951
 30
0.0
 10
1029.8837694298786
 20
569.0400106300951
 30
0.0
 10
1026.3031694298784
 20
572.5829106300951
 30
0.0
 10
1021.8522694298786
 20
572.5547106300951
 30
0.0
  0
SPLINE
  5
74
330
17
100
AcDbEntity
  8
1_layer 3
 62
142
370
158
100
AcDbSpline
 70
24
 71
3
 72
8
 73
4
 74
0
 42
1e-09
 40
0.0
 40
0.0
 40
0.0
 40
0.0
 40
1.0
 40
1.0
 40
1.0
 40
1.0
 10
1064.0040694298787
 20
102.91861063009515
 30
0.0
 10
1064.0040694298787
 20
102.91861063009515
 30
0.0
 10
1021.6706694298782
 20
102.91861063009515
 30
0.0
 10
1021.6706694298782
 20
102.91861063009515
 30
0.0
  0
SPLINE
  5
75
330
17
100
AcDbEntity
  8
1_layer 3
 62
142
370
158
100
AcDbSpline
 70
24
 71
3
 72
8
 73
4
 74
0
 42
1e-09
 40
0.0
 40
0.0
 40
0.0
 40
0.0
 40
1.0
 40
1.0
 40
1.0
 40
1.0
 10
1066.7557694298785
 20
130.2236106300951
 30
0.0
 10
1066.7557694298785
 20
130.2236106300951
 30
0.0
 10
1022.5173694298783
 20
130.01191063009514
 30
0.0
 10
1022.5173694298783
 20
130.01191063009514
 30
0.0
  0
SPLINE
  5
76
330
17
100
AcDbEntity
  8
1_layer 3
 62
142
370
158
100
AcDbSpline
 70
24
 71
3
 72
8
 73
4
 74
0
 42
1e-09
 40
0.0
 40
0.0
 40
0.0
 40
0.0
 40
1.0
 40
1.0
 40
1.0
 40
1.0
 10
879.6421694298783
 20
102.28361063009504
 30
0.0
 10
879.6421694298783
 20
102.28361063009504
 30
0.0
 10
919.2238694298785
 20
102.4953106300951
 30
0.0
 10
919.2238694298785
 20
102.4953106300951
 30
0.0
  0
SPLINE
  5
77
330
17
100
AcDbEntity
  8
1_layer 3
 62
142
370
158
100
AcDbSpline
 70
24
 71
3
 72
8
 73
4
 74
0
 42
1e-09
 40
0.0
 40
0.0
 40
0.0
 40
0.0
 40
1.0
 40
1.0
 40
1.0
 40
1.0
 10
875.4088694298785
 20
129.80031063009505
 30
0.0
 10
875.4088694298785
 20
129.80031063009505
 30
0.0
 10
920.7055694298783
 20
130.01201063009512
 30
0.0
 10
920.7055694298783
 20
130.01201063009512
 30
0.0
  0
SPLINE
  5
78
330
17
100
AcDbEntity
  8
1_layer 3
 62
142
370
158
100
AcDbSpline
 70
24
 71
3
 72
8
 73
4
 74
0
 42
1e-09
 40
0.0
 40
0.0
 40
0.0
 40
0.0
 40
1.0
 40
1.0
 40
1.0
 40
1.0
 10
1061.5700694298785
 20
413.9699106300951
 30
0.0
 10
1061.5700694298785
 20
413.9699106300951
 30
0.0
 10
1027.5976694298784
 20
413.6457106300951
 30
0.0
 10
1027.5976694298784
 20
413.6457106300951
 30
0.0
  0
SPLINE
  5
79
330
17
100
AcDbEntity
  8
1_layer 3
 62
142
370
158
100
AcDbSpline
 70
24
 71
3
 72
8
 73
4
 74
0
 42
1e-09
 40
0.0
 40
0.0
 40
0.0
 40
0.0
 40
1.0
 40
1.0
 40
1.0
 40
1.0
 10
1059.9826694298786
 20
391.2090106300951
 30
0.0
 10
1059.9826694298786
 20
391.2090106300951
 30
0.0
 10
1027.1743694298784
 20
391.4207106300951
 30
0.0
 10
1027.1743694298784
 20
391.4207106300951
 30
0.0
  0
SPLINE
  5
7A
330
17
100
AcDbEntity
  8
1_layer 3
 62
142
370
158
100
AcDbSpline
 70
24
 71
3
 72
8
 73
4
 74
0
 42
1e-09
 40
0.0
 40
0.0
 40
0.0
 40
0.0
 40
1.0
 40
1.0
 40
1.0
 40
1.0
 10
878.1609694298786
 20
412.6932106300951
 30
0.0
 10
878.1609694298786
 20
412.6932106300951
 30
0.0
 10
909.1701694298786
 20
412.48151063009504
 30
0.0
 10
909.1701694298786
 20
412.48151063009504
 30
0.0
  0
SPLINE
  5
7B
330
17
100
AcDbEntity
  8
1_layer 3
 62
142
370
158
100
AcDbSpline
 70
24
 71
3
 72
8
 73
4
 74
0
 42
1e-09
 40
0.0
 40
0.0
 40
0.0
 40
0.0
 40
1.0
 40
1.0
 40
1.0
 40
1.0
 10
878.2667694298784
 20
389.5157106300951
 30
0.0
 10
878.2667694298784
 20
389.5157106300951
 30
0.0
 10
909.5934694298785
 20
390.1507106300951
 30
0.0
 10
909.5934694298785
 20
390.1507106300951
 30
0.0
  0
ENDSEC
  0
SECTION
  2
OBJECTS
  0
DICTIONARY
  5
A
330
0
100
AcDbDictionary
281
1
  3
ACAD_COLOR
350
B
  3
ACAD_GROUP
350
C
  3
ACAD_LAYOUT
350
D
  3
ACAD_MATERIAL
350
E
  3
ACAD_MLEADERSTYLE
350
F
  3
ACAD_MLINESTYLE
350
10
  3
ACAD_PLOTSETTINGS
350
11
  3
ACAD_PLOTSTYLENAME
350
12
  3
ACAD_SCALELIST
350
14
  3
ACAD_TABLESTYLE
350
15
  3
ACAD_VISUALSTYLE
350
16
  3
EZDXF_META
350
2D
  0
DICTIONARY
  5
B
330
A
100
AcDbDictionary
281
1
  0
DICTIONARY
  5
C
330
A
100
AcDbDictionary
281
1
  0
DICTIONARY
  5
D
330
A
100
AcDbDictionary
281
1
  3
Model
350
1A
  3
Layout1
350
1E
  0
DICTIONARY
  5
E
330
A
100
AcDbDictionary
281
1
  3
ByBlock
350
1F
  3
ByLayer
350
20
  3
Global
350
21
  0
DICTIONARY
  5
F
330
A
100
AcDbDictionary
281
1
  3
Standard
350
2C
  0
DICTIONARY
  5
10
330
A
100
AcDbDictionary
281
1
  3
Standard
350
22
  0
DICTIONARY
  5
11
330
A
100
AcDbDictionary
281
1
  0
ACDBDICTIONARYWDFLT
  5
12
330
A
100
AcDbDictionary
281
1
  3
Normal
350
13
100
AcDbDictionaryWithDefault
340
13
  0
ACDBPLACEHOLDER
  5
13
330
12
  0
DICTIONARY
  5
14
330
A
100
AcDbDictionary
281
1
  0
DICTIONARY
  5
15
330
A
100
AcDbDictionary
281
1
  0
DICTIONARY
  5
16
330
A
100
AcDbDictionary
281
1
  0
LAYOUT
  5
1A
330
D
100
AcDbPlotSettings
  1

  4
A3
  6

 40
7.5
 41
20.0
 42
7.5
 43
20.0
 44
420.0
 45
297.0
 46
0.0
 47
0.0
 48
0.0
 49
0.0
140
0.0
141
0.0
142
1.0
143
1.0
 70
1024
 72
1
 73
0
 74
5
  7

 75
16
 76
0
 77
2
 78
300
147
1.0
148
0.0
149
0.0
100
AcDbLayout
  1
Model
 70
1
 71
0
 10
0.0
 20
0.0
 11
420.0
 21
297.0
 12
0.0
 22
0.0
 32
0.0
 14
1e+20
 24
1e+20
 34
1e+20
 15
-1e+20
 25
-1e+20
 35
-1e+20
146
0.0
 13
0.0
 23
0.0
 33
0.0
 16
1.0
 26
0.0
 36
0.0
 17
0.0
 27
1.0
 37
0.0
 76
1
330
17
  0
LAYOUT
  5
1E
330
D
100
AcDbPlotSettings
  1

  4
A3
  6

 40
7.5
 41
20.0
 42
7.5
 43
20.0
 44
420.0
 45
297.0
 46
0.0
 47
0.0
 48
0.0
 49
0.0
140
0.0
141
0.0
142
1.0
143
1.0
 70
0
 72
1
 73
0
 74
5
  7

 75
16
 76
0
 77
2
 78
300
147
1.0
148
0.0
149
0.0
100
AcDbLayout
  1
Layout1
 70
1
 71
1
 10
0.0
 20
0.0
 11
420.0
 21
297.0
 12
0.0
 22
0.0
 32
0.0
 14
1e+20
 24
1e+20
 34
1e+20
 15
-1e+20
 25
-1e+20
 35
-1e+20
146
0.0
 13
0.0
 23
0.0
 33
0.0
 16
1.0
 26
0.0
 36
0.0
 17
0.0
 27
1.0
 37
0.0
 76
1
330
1B
  0
MATERIAL
  5
1F
102
{ACAD_REACTORS
330
E
102
}
330
E
100
AcDbMaterial
  1
ByBlock
  2

 70
0
 40
1.0
 71
1
 41
1.0
 91
-1023410177
 42
1.0
 72
1
  3

 73
1
 74
1
 75
1
 44
0.5
 73
0
 45
1.0
 46
1.0
 77
1
  4

 78
1
 79
1
170
1
 48
1.0
171
1
  6

172
1
173
1
174
1
140
1.0
141
1.0
175
1
  7

176
1
177
1
178
1
143
1.0
179
1
  8

270
1
271
1
272
1
145
1.0
146
1.0
273
1
  9

274
1
275
1
276
1
 42
1.0
 72
1
  3

 73
1
 74
1
 75
1
 94
63
  0
MATERIAL
  5
20
102
{ACAD_REACTORS
330
E
102
}
330
E
100
AcDbMaterial
  1
ByLayer
  2

 70
0
 40
1.0
 71
1
 41
1.0
 91
-1023410177
 42
1.0
 72
1
  3

 73
1
 74
1
 75
1
 44
0.5
 73
0
 45
1.0
 46
1.0
 77
1
  4

 78
1
 79
1
170
1
 48
1.0
171
1
  6

172
1
173
1
174
1
140
1.0
141
1.0
175
1
  7

176
1
177
1
178
1
143
1.0
179
1
  8

270
1
271
1
272
1
145
1.0
146
1.0
273
1
  9

274
1
275
1
276
1
 42
1.0
 72
1
  3

 73
1
 74
1
 75
1
 94
63
  0
MATERIAL
  5
21
102
{ACAD_REACTORS
330
E
102
}
330
E
100
AcDbMaterial
  1
Global
  2

 70
0
 40
1.0
 71
1
 41
1.0
 91
-1023410177
 42
1.0
 72
1
  3

 73
1
 74
1
 75
1
 44
0.5
 73
0
 45
1.0
 46
1.0
 77
1
  4

 78
1
 79
1
170
1
 48
1.0
171
1
  6

172
1
173
1
174
1
140
1.0
141
1.0
175
1
  7

176
1
177
1
178
1
143
1.0
179
1
  8

270
1
271
1
272
1
145
1.0
146
1.0
273
1
  9

274
1
275
1
276
1
 42
1.0
 72
1
  3

 73
1
 74
1
 75
1
 94
63
  0
MLINESTYLE
  5
22
102
{ACAD_REACTORS
330
10
102
}
330
10
100
AcDbMlineStyle
  2
Standard
 70
0
  3

 62
256
 51
90.0
 52
90.0
 71
2
 49
0.5
 62
256
  6
BYLAYER
 49
-0.5
 62
256
  6
BYLAYER
  0
MLEADERSTYLE
  5
2C
102
{ACAD_REACTORS
330
F
102
}
330
F
100
AcDbMLeaderStyle
179
2
170
2
171
1
172
0
 90
2
 40
0.0
 41
0.0
173
1
 91
-1056964608
 92
-2
290
1
 42
2.0
291
1
 43
8.0
  3
Standard
 44
4.0
300

342
29
174
1
175
1
176
0
178
1
 93
-1056964608
 45
4.0
292
0
297
0
 46
4.0
 94
-1056964608
 47
1.0
 49
1.0
140
1.0
294
1
141
0.0
177
0
142
1.0
295
0
296
0
143
3.75
271
0
272
9
273
9
  0
DICTIONARY
  5
2D
330
A
100
AcDbDictionary
280
1
281
1
  3
CREATED_BY_EZDXF
350
2E
  3
WRITTEN_BY_EZDXF
350
7E
  0
DICTIONARYVAR
  5
2E
330
2D
100
DictionaryVariables
280
0
  1
1.4.2 @ 2025-08-16T12:24:16.977480+00:00
  0
IMAGEDEF_REACTOR
  5
50
330
4F
100
AcDbRasterImageDefReactor
 90
2
330
4F
  0
IMAGEDEF_REACTOR
  5
52
330
51
100
AcDbRasterImageDefReactor
 90
2
330
51
  0
IMAGEDEF_REACTOR
  5
54
330
53
100
AcDbRasterImageDefReactor
 90
2
330
53
  0
IMAGEDEF_REACTOR
  5
56
330
55
100
AcDbRasterImageDefReactor
 90
2
330
55
  0
IMAGEDEF_REACTOR
  5
58
330
57
100
AcDbRasterImageDefReactor
 90
2
330
57
  0
IMAGEDEF_REACTOR
  5
5A
330
59
100
AcDbRasterImageDefReactor
 90
2
330
59
  0
IMAGEDEF_REACTOR
  5
5C
330
5B
100
AcDbRasterImageDefReactor
 90
2
330
5B
  0
IMAGEDEF_REACTOR
  5
5E
330
5D
100
AcDbRasterImageDefReactor
 90
2
330
5D
  0
IMAGEDEF_REACTOR
  5
60
330
5F
100
AcDbRasterImageDefReactor
 90
2
330
5F
  0
IMAGEDEF_REACTOR
  5
62
330
61
100
AcDbRasterImageDefReactor
 90
2
330
61
  0
IMAGEDEF_REACTOR
  5
64
330
63
100
AcDbRasterImageDefReactor
 90
2
330
63
  0
IMAGEDEF_REACTOR
  5
66
330
65
100
AcDbRasterImageDefReactor
 90
2
330
65
  0
IMAGEDEF_REACTOR
  5
68
330
67
100
AcDbRasterImageDefReactor
 90
2
330
67
  0
IMAGEDEF_REACTOR
  5
6A
330
69
100
AcDbRasterImageDefReactor
 90
2
330
69
  0
IMAGEDEF_REACTOR
  5
6C
330
6B
100
AcDbRasterImageDefReactor
 90
2
330
6B
  0
IMAGEDEF_REACTOR
  5
6E
330
6D
100
AcDbRasterImageDefReactor
 90
2
330
6D
  0
IMAGEDEF_REACTOR
  5
70
330
6F
100
AcDbRasterImageDefReactor
 90
2
330
6F
  0
IMAGEDEF_REACTOR
  5
72
330
71
100
AcDbRasterImageDefReactor
 90
2
330
71
  0
DICTIONARYVAR
  5
7E
330
2D
100
DictionaryVariables
280
0
  1
1.4.2 @ 2025-08-16T12:24:16.983109+00:00
  0
ENDSEC
  0
EOF
