  0
SECTION
  2
HEADER
  9
$ACADVER
  1
AC1024
  9
$ACADMAINTVER
 70
6
  9
$DWGCODEPAGE
  3
ANSI_1252
  9
$LASTSAVEDBY
  1
ezdxf
  9
$INSBASE
 10
0.0
 20
0.0
 30
0.0
  9
$EXTMIN
 10
1e+20
 20
1e+20
 30
1e+20
  9
$EXTMAX
 10
-1e+20
 20
-1e+20
 30
-1e+20
  9
$LIMMIN
 10
0.0
 20
0.0
  9
$LIMMAX
 10
420.0
 20
297.0
  9
$ORTHOMODE
 70
0
  9
$REGENMODE
 70
1
  9
$FILLMODE
 70
1
  9
$QTEXTMODE
 70
0
  9
$MIRRTEXT
 70
1
  9
$LTSCALE
 40
1.0
  9
$ATTMODE
 70
1
  9
$TEXTSIZE
 40
2.5
  9
$TRACEWID
 40
1.0
  9
$TEXTSTYLE
  7
Standard
  9
$CLAYER
  8
0
  9
$CELTYPE
  6
ByLayer
  9
$CECOLOR
 62
256
  9
$CELTSCALE
 40
1.0
  9
$DISPSILH
 70
0
  9
$DIMSCALE
 40
1.0
  9
$DIMASZ
 40
2.5
  9
$DIMEXO
 40
0.625
  9
$DIMDLI
 40
3.75
  9
$DIMRND
 40
0.0
  9
$DIMDLE
 40
0.0
  9
$DIMEXE
 40
1.25
  9
$DIMTP
 40
0.0
  9
$DIMTM
 40
0.0
  9
$DIMTXT
 40
2.5
  9
$DIMCEN
 40
2.5
  9
$DIMTSZ
 40
0.0
  9
$DIMTOL
 70
0
  9
$DIMLIM
 70
0
  9
$DIMTIH
 70
0
  9
$DIMTOH
 70
0
  9
$DIMSE1
 70
0
  9
$DIMSE2
 70
0
  9
$DIMTAD
 70
1
  9
$DIMZIN
 70
8
  9
$DIMBLK
  1

  9
$DIMASO
 70
1
  9
$DIMSHO
 70
1
  9
$DIMPOST
  1

  9
$DIMAPOST
  1

  9
$DIMALT
 70
0
  9
$DIMALTD
 70
3
  9
$DIMALTF
 40
0.03937007874
  9
$DIMLFAC
 40
1.0
  9
$DIMTOFL
 70
1
  9
$DIMTVP
 40
0.0
  9
$DIMTIX
 70
0
  9
$DIMSOXD
 70
0
  9
$DIMSAH
 70
0
  9
$DIMBLK1
  1

  9
$DIMBLK2
  1

  9
$DIMSTYLE
  2
ISO-25
  9
$DIMCLRD
 70
0
  9
$DIMCLRE
 70
0
  9
$DIMCLRT
 70
0
  9
$DIMTFAC
 40
1.0
  9
$DIMGAP
 40
0.625
  9
$DIMJUST
 70
0
  9
$DIMSD1
 70
0
  9
$DIMSD2
 70
0
  9
$DIMTOLJ
 70
0
  9
$DIMTZIN
 70
8
  9
$DIMALTZ
 70
0
  9
$DIMALTTZ
 70
0
  9
$DIMUPT
 70
0
  9
$DIMDEC
 70
2
  9
$DIMTDEC
 70
2
  9
$DIMALTU
 70
2
  9
$DIMALTTD
 70
3
  9
$DIMTXSTY
  7
Standard
  9
$DIMAUNIT
 70
0
  9
$DIMADEC
 70
0
  9
$DIMALTRND
 40
0.0
  9
$DIMAZIN
 70
0
  9
$DIMDSEP
 70
44
  9
$DIMATFIT
 70
3
  9
$DIMFRAC
 70
0
  9
$DIMLDRBLK
  1

  9
$DIMLUNIT
 70
2
  9
$DIMLWD
 70
-2
  9
$DIMLWE
 70
-2
  9
$DIMTMOVE
 70
0
  9
$DIMFXL
 40
1.0
  9
$DIMFXLON
 70
0
  9
$DIMJOGANG
 40
0.785398163397
  9
$DIMTFILL
 70
0
  9
$DIMTFILLCLR
 70
0
  9
$DIMARCSYM
 70
0
  9
$DIMLTYPE
  6

  9
$DIMLTEX1
  6

  9
$DIMLTEX2
  6

  9
$DIMTXTDIRECTION
 70
0
  9
$LUNITS
 70
2
  9
$LUPREC
 70
4
  9
$SKETCHINC
 40
1.0
  9
$FILLETRAD
 40
10.0
  9
$AUNITS
 70
0
  9
$AUPREC
 70
2
  9
$MENU
  1
.
  9
$ELEVATION
 40
0.0
  9
$PELEVATION
 40
0.0
  9
$THICKNESS
 40
0.0
  9
$LIMCHECK
 70
0
  9
$CHAMFERA
 40
0.0
  9
$CHAMFERB
 40
0.0
  9
$CHAMFERC
 40
0.0
  9
$CHAMFERD
 40
0.0
  9
$SKPOLY
 70
0
  9
$TDCREATE
 40
2460903.4499421297
  9
$TDUCREATE
 40
2458532.153996898
  9
$TDUPDATE
 40
2460903.4499421297
  9
$TDUUPDATE
 40
2458532.1544311
  9
$TDINDWG
 40
0.0
  9
$TDUSRTIMER
 40
0.0
  9
$USRTIMER
 70
1
  9
$ANGBASE
 50
0.0
  9
$ANGDIR
 70
0
  9
$PDMODE
 70
0
  9
$PDSIZE
 40
0.0
  9
$PLINEWID
 40
0.0
  9
$SPLFRAME
 70
0
  9
$SPLINETYPE
 70
6
  9
$SPLINESEGS
 70
8
  9
$HANDSEED
  5
6D
  9
$SURFTAB1
 70
6
  9
$SURFTAB2
 70
6
  9
$SURFTYPE
 70
6
  9
$SURFU
 70
6
  9
$SURFV
 70
6
  9
$UCSBASE
  2

  9
$UCSNAME
  2

  9
$UCSORG
 10
0.0
 20
0.0
 30
0.0
  9
$UCSXDIR
 10
1.0
 20
0.0
 30
0.0
  9
$UCSYDIR
 10
0.0
 20
1.0
 30
0.0
  9
$UCSORTHOREF
  2

  9
$UCSORTHOVIEW
 70
0
  9
$UCSORGTOP
 10
0.0
 20
0.0
 30
0.0
  9
$UCSORGBOTTOM
 10
0.0
 20
0.0
 30
0.0
  9
$UCSORGLEFT
 10
0.0
 20
0.0
 30
0.0
  9
$UCSORGRIGHT
 10
0.0
 20
0.0
 30
0.0
  9
$UCSORGFRONT
 10
0.0
 20
0.0
 30
0.0
  9
$UCSORGBACK
 10
0.0
 20
0.0
 30
0.0
  9
$PUCSBASE
  2

  9
$PUCSNAME
  2

  9
$PUCSORG
 10
0.0
 20
0.0
 30
0.0
  9
$PUCSXDIR
 10
1.0
 20
0.0
 30
0.0
  9
$PUCSYDIR
 10
0.0
 20
1.0
 30
0.0
  9
$PUCSORTHOREF
  2

  9
$PUCSORTHOVIEW
 70
0
  9
$PUCSORGTOP
 10
0.0
 20
0.0
 30
0.0
  9
$PUCSORGBOTTOM
 10
0.0
 20
0.0
 30
0.0
  9
$PUCSORGLEFT
 10
0.0
 20
0.0
 30
0.0
  9
$PUCSORGRIGHT
 10
0.0
 20
0.0
 30
0.0
  9
$PUCSORGFRONT
 10
0.0
 20
0.0
 30
0.0
  9
$PUCSORGBACK
 10
0.0
 20
0.0
 30
0.0
  9
$USERI1
 70
0
  9
$USERI2
 70
0
  9
$USERI3
 70
0
  9
$USERI4
 70
0
  9
$USERI5
 70
0
  9
$USERR1
 40
0.0
  9
$USERR2
 40
0.0
  9
$USERR3
 40
0.0
  9
$USERR4
 40
0.0
  9
$USERR5
 40
0.0
  9
$WORLDVIEW
 70
1
  9
$SHADEDGE
 70
3
  9
$SHADEDIF
 70
70
  9
$TILEMODE
 70
1
  9
$MAXACTVP
 70
64
  9
$PINSBASE
 10
0.0
 20
0.0
 30
0.0
  9
$PLIMCHECK
 70
0
  9
$PEXTMIN
 10
1e+20
 20
1e+20
 30
1e+20
  9
$PEXTMAX
 10
-1e+20
 20
-1e+20
 30
-1e+20
  9
$PLIMMIN
 10
0.0
 20
0.0
  9
$PLIMMAX
 10
420.0
 20
297.0
  9
$UNITMODE
 70
0
  9
$VISRETAIN
 70
1
  9
$PLINEGEN
 70
0
  9
$PSLTSCALE
 70
1
  9
$TREEDEPTH
 70
3020
  9
$CMLSTYLE
  2
Standard
  9
$CMLJUST
 70
0
  9
$CMLSCALE
 40
20.0
  9
$PROXYGRAPHICS
 70
1
  9
$MEASUREMENT
 70
1
  9
$CELWEIGHT
370
-1
  9
$ENDCAPS
280
0
  9
$JOINSTYLE
280
0
  9
$LWDISPLAY
290
0
  9
$INSUNITS
 70
4
  9
$HYPERLINKBASE
  1

  9
$STYLESHEET
  1

  9
$XEDIT
290
1
  9
$CEPSNTYPE
380
0
  9
$PSTYLEMODE
290
1
  9
$FINGERPRINTGUID
  2
{71297473-6CEE-4C1B-A30D-870482CD3A61}
  9
$VERSIONGUID
  2
{927695A3-BC82-4894-8A47-D8FAB2972CA4}
  9
$EXTNAMES
290
1
  9
$PSVPSCALE
 40
0.0
  9
$OLESTARTUP
290
0
  9
$SORTENTS
280
127
  9
$INDEXCTL
280
0
  9
$HIDETEXT
280
1
  9
$XCLIPFRAME
280
1
  9
$HALOGAP
280
0
  9
$OBSCOLOR
 70
257
  9
$OBSLTYPE
280
0
  9
$INTERSECTIONDISPLAY
280
0
  9
$INTERSECTIONCOLOR
 70
257
  9
$DIMASSOC
280
2
  9
$PROJECTNAME
  1

  9
$CAMERADISPLAY
290
0
  9
$LENSLENGTH
 40
50.0
  9
$CAMERAHEIGHT
 40
0.0
  9
$STEPSPERSEC
 40
24.0
  9
$STEPSIZE
 40
100.0
  9
$3DDWFPREC
 40
2.0
  9
$PSOLWIDTH
 40
0.005
  9
$PSOLHEIGHT
 40
0.08
  9
$LOFTANG1
 40
1.570796326795
  9
$LOFTANG2
 40
1.570796326795
  9
$LOFTMAG1
 40
0.0
  9
$LOFTMAG2
 40
0.0
  9
$LOFTPARAM
 70
7
  9
$LOFTNORMALS
280
1
  9
$LATITUDE
 40
37.795
  9
$LONGITUDE
 40
-122.394
  9
$NORTHDIRECTION
 40
0.0
  9
$TIMEZONE
 70
-8000
  9
$LIGHTGLYPHDISPLAY
280
1
  9
$TILEMODELIGHTSYNCH
280
1
  9
$CMATERIAL
347
20
  9
$SOLIDHIST
280
0
  9
$SHOWHIST
280
1
  9
$DWFFRAME
280
2
  9
$DGNFRAME
280
2
  9
$REALWORLDSCALE
290
1
  9
$INTERFERECOLOR
 62
256
  9
$CSHADOW
280
0
  9
$SHADOWPLANELOCATION
 40
0.0
  0
ENDSEC
  0
SECTION
  2
CLASSES
  0
CLASS
  1
ACDBDICTIONARYWDFLT
  2
AcDbDictionaryWithDefault
  3
ObjectDBX Classes
 90
0
 91
0
280
0
281
0
  0
CLASS
  1
SUN
  2
AcDbSun
  3
SCENEOE
 90
1153
 91
0
280
0
281
0
  0
CLASS
  1
VISUALSTYLE
  2
AcDbVisualStyle
  3
ObjectDBX Classes
 90
4095
 91
0
280
0
281
0
  0
CLASS
  1
MATERIAL
  2
AcDbMaterial
  3
ObjectDBX Classes
 90
1153
 91
0
280
0
281
0
  0
CLASS
  1
SCALE
  2
AcDbScale
  3
ObjectDBX Classes
 90
1153
 91
0
280
0
281
0
  0
CLASS
  1
TABLESTYLE
  2
AcDbTableStyle
  3
ObjectDBX Classes
 90
4095
 91
0
280
0
281
0
  0
CLASS
  1
MLEADERSTYLE
  2
AcDbMLeaderStyle
  3
ACDB_MLEADERSTYLE_CLASS
 90
4095
 91
0
280
0
281
0
  0
CLASS
  1
DICTIONARYVAR
  2
AcDbDictionaryVar
  3
ObjectDBX Classes
 90
0
 91
0
280
0
281
0
  0
CLASS
  1
CELLSTYLEMAP
  2
AcDbCellStyleMap
  3
ObjectDBX Classes
 90
1152
 91
0
280
0
281
0
  0
CLASS
  1
MENTALRAYRENDERSETTINGS
  2
AcDbMentalRayRenderSettings
  3
SCENEOE
 90
1024
 91
0
280
0
281
0
  0
CLASS
  1
ACDBDETAILVIEWSTYLE
  2
AcDbDetailViewStyle
  3
ObjectDBX Classes
 90
1025
 91
0
280
0
281
0
  0
CLASS
  1
ACDBSECTIONVIEWSTYLE
  2
AcDbSectionViewStyle
  3
ObjectDBX Classes
 90
1025
 91
0
280
0
281
0
  0
CLASS
  1
RASTERVARIABLES
  2
AcDbRasterVariables
  3
ISM
 90
0
 91
0
280
0
281
0
  0
CLASS
  1
ACDBPLACEHOLDER
  2
AcDbPlaceHolder
  3
ObjectDBX Classes
 90
0
 91
0
280
0
281
0
  0
CLASS
  1
LAYOUT
  2
AcDbLayout
  3
ObjectDBX Classes
 90
0
 91
0
280
0
281
0
  0
ENDSEC
  0
SECTION
  2
TABLES
  0
TABLE
  2
VPORT
  5
8
330
0
100
AcDbSymbolTable
 70
1
  0
VPORT
  5
23
330
8
100
AcDbSymbolTableRecord
100
AcDbViewportTableRecord
  2
*Active
 70
0
 10
0.0
 20
0.0
 11
1.0
 21
1.0
 12
0.0
 22
0.0
 13
0.0
 23
0.0
 14
0.5
 24
0.5
 15
0.5
 25
0.5
 16
0.0
 26
0.0
 36
1.0
 17
0.0
 27
0.0
 37
0.0
 40
1000.0
 41
1.34
 42
50.0
 43
0.0
 44
0.0
 50
0.0
 51
0.0
 71
0
 72
1000
 73
1
 74
3
 75
0
 76
0
 77
0
 78
0
281
0
 65
0
146
0.0
  0
ENDTAB
  0
TABLE
  2
LTYPE
  5
2
330
0
100
AcDbSymbolTable
 70
3
  0
LTYPE
  5
24
330
2
100
AcDbSymbolTableRecord
100
AcDbLinetypeTableRecord
  2
ByBlock
 70
0
  3

 72
65
 73
0
 40
0.0
  0
LTYPE
  5
25
330
2
100
AcDbSymbolTableRecord
100
AcDbLinetypeTableRecord
  2
ByLayer
 70
0
  3

 72
65
 73
0
 40
0.0
  0
LTYPE
  5
26
330
2
100
AcDbSymbolTableRecord
100
AcDbLinetypeTableRecord
  2
Continuous
 70
0
  3

 72
65
 73
0
 40
0.0
  0
ENDTAB
  0
TABLE
  2
LAYER
  5
1
330
0
100
AcDbSymbolTable
 70
2
  0
LAYER
  5
27
330
1
100
AcDbSymbolTableRecord
100
AcDbLayerTableRecord
  2
0
 70
0
 62
7
  6
Continuous
370
-3
390
13
347
21
  0
LAYER
  5
28
330
1
100
AcDbSymbolTableRecord
100
AcDbLayerTableRecord
  2
Defpoints
 70
0
 62
7
  6
Continuous
290
0
370
-3
390
13
347
21
  0
ENDTAB
  0
TABLE
  2
STYLE
  5
5
330
0
100
AcDbSymbolTable
 70
1
  0
STYLE
  5
29
330
5
100
AcDbSymbolTableRecord
100
AcDbTextStyleTableRecord
  2
Standard
 70
0
 40
0.0
 41
1.0
 50
0.0
 71
0
 42
2.5
  3
txt
  4

  0
ENDTAB
  0
TABLE
  2
VIEW
  5
7
330
0
100
AcDbSymbolTable
 70
0
  0
ENDTAB
  0
TABLE
  2
UCS
  5
6
330
0
100
AcDbSymbolTable
 70
0
  0
ENDTAB
  0
TABLE
  2
APPID
  5
3
330
0
100
AcDbSymbolTable
 70
3
  0
APPID
  5
2A
330
3
100
AcDbSymbolTableRecord
100
AcDbRegAppTableRecord
  2
ACAD
 70
0
  0
APPID
  5
6A
330
3
100
AcDbSymbolTableRecord
100
AcDbRegAppTableRecord
  2
HATCHBACKGROUNDCOLOR
 70
0
  0
APPID
  5
6B
330
3
100
AcDbSymbolTableRecord
100
AcDbRegAppTableRecord
  2
EZDXF
 70
0
  0
ENDTAB
  0
TABLE
  2
DIMSTYLE
  5
4
330
0
100
AcDbSymbolTable
 70
1
100
AcDbDimStyleTable
  0
DIMSTYLE
105
2B
330
4
100
AcDbSymbolTableRecord
100
AcDbDimStyleTableRecord
  2
Standard
 70
0
 40
1.0
 41
2.5
 42
0.625
 43
3.75
 44
1.25
 45
0.0
 46
0.0
 47
0.0
 48
0.0
 49
2.5
140
2.5
141
2.5
142
0.0
143
0.03937007874
144
1.0
145
0.0
146
1.0
147
0.625
148
0.0
 69
0
 70
0
 71
0
 72
0
 73
0
 74
0
 75
0
 76
0
 77
1
 78
8
 79
3
170
0
171
3
172
1
173
0
174
0
175
0
176
0
177
0
178
0
179
2
271
2
272
2
273
2
274
3
275
0
276
0
277
2
278
44
279
0
280
0
281
0
282
0
283
0
284
8
285
0
286
0
288
0
289
3
290
0
371
-2
372
-2
  0
ENDTAB
  0
TABLE
  2
BLOCK_RECORD
  5
9
330
0
100
AcDbSymbolTable
 70
2
  0
BLOCK_RECORD
  5
17
330
9
100
AcDbSymbolTableRecord
100
AcDbBlockTableRecord
  2
*Model_Space
340
1A
 70
0
280
1
281
0
  0
BLOCK_RECORD
  5
1B
330
9
100
AcDbSymbolTableRecord
100
AcDbBlockTableRecord
  2
*Paper_Space
340
1E
 70
0
280
1
281
0
  0
ENDTAB
  0
ENDSEC
  0
SECTION
  2
BLOCKS
  0
BLOCK
  5
18
330
17
100
AcDbEntity
  8
0
100
AcDbBlockBegin
  2
*Model_Space
 70
0
 10
0.0
 20
0.0
 30
0.0
  3
*Model_Space
  1

  0
ENDBLK
  5
19
330
17
100
AcDbEntity
  8
0
100
AcDbBlockEnd
  0
BLOCK
  5
1C
330
1B
100
AcDbEntity
  8
0
100
AcDbBlockBegin
  2
*Paper_Space
 70
0
 10
0.0
 20
0.0
 30
0.0
  3
*Paper_Space
  1

  0
ENDBLK
  5
1D
330
1B
100
AcDbEntity
  8
0
100
AcDbBlockEnd
  0
ENDSEC
  0
SECTION
  2
ENTITIES
  0
LWPOLYLINE
  5
2F
330
17
100
AcDbEntity
  8
SHEET_BOUNDARY
 62
1
100
AcDbPolyline
 90
5
 70
0
 10
0.0
 20
0.0
 10
1400.0
 20
0.0
 10
1400.0
 20
2000.0
 10
0.0
 20
2000.0
 10
0.0
 20
0.0
  0
SPLINE
  5
30
330
17
100
AcDbEntity
  8
1_layer 1
 62
250
370
9
100
AcDbSpline
 70
24
 71
3
 72
8
 73
4
 74
0
 42
1e-09
 40
0.0
 40
0.0
 40
0.0
 40
0.0
 40
1.0
 40
1.0
 40
1.0
 40
1.0
 10
1348.531136192214
 20
-163.05307473083866
 30
0.0
 10
1348.531136192214
 20
-163.05307473083866
 30
0.0
 10
1348.531136192214
 20
-187.0309747308387
 30
0.0
 10
1348.531136192214
 20
-187.0309747308387
 30
0.0
  0
SPLINE
  5
31
330
17
100
AcDbEntity
  8
1_layer 1
 62
250
370
9
100
AcDbSpline
 70
24
 71
3
 72
8
 73
4
 74
0
 42
1e-09
 40
0.0
 40
0.0
 40
0.0
 40
0.0
 40
1.0
 40
1.0
 40
1.0
 40
1.0
 10
1336.5422361922142
 20
-175.0420747308387
 30
0.0
 10
1336.5422361922142
 20
-175.0420747308387
 30
0.0
 10
1360.520136192214
 20
-175.0420747308387
 30
0.0
 10
1360.520136192214
 20
-175.0420747308387
 30
0.0
  0
SPLINE
  5
32
330
17
100
AcDbEntity
  8
1_layer 1
 62
250
370
9
100
AcDbSpline
 70
24
 71
3
 72
8
 73
4
 74
0
 42
1e-09
 40
0.0
 40
0.0
 40
0.0
 40
0.0
 40
1.0
 40
1.0
 40
1.0
 40
1.0
 10
1630.2263361922141
 20
335.1181252691613
 30
0.0
 10
1630.2263361922141
 20
335.1181252691613
 30
0.0
 10
1642.590636192214
 20
314.5738252691614
 30
0.0
 10
1642.590636192214
 20
314.5738252691614
 30
0.0
  0
SPLINE
  5
33
330
17
100
AcDbEntity
  8
1_layer 1
 62
250
370
9
100
AcDbSpline
 70
24
 71
3
 72
8
 73
4
 74
0
 42
1e-09
 40
0.0
 40
0.0
 40
0.0
 40
0.0
 40
1.0
 40
1.0
 40
1.0
 40
1.0
 10
1612.496436192214
 20
335.1181252691613
 30
0.0
 10
1612.496436192214
 20
335.1181252691613
 30
0.0
 10
1624.860736192214
 20
314.5738252691614
 30
0.0
 10
1624.860736192214
 20
314.5738252691614
 30
0.0
  0
SPLINE
  5
34
330
17
100
AcDbEntity
  8
1_layer 1
 62
250
370
9
100
AcDbSpline
 70
24
 71
3
 72
8
 73
4
 74
0
 42
1e-09
 40
0.0
 40
0.0
 40
0.0
 40
0.0
 40
1.0
 40
1.0
 40
1.0
 40
1.0
 10
1560.555336192214
 20
160.17942526916136
 30
0.0
 10
1560.555336192214
 20
160.17942526916136
 30
0.0
 10
1572.919636192214
 20
139.63512526916134
 30
0.0
 10
1572.919636192214
 20
139.63512526916134
 30
0.0
  0
SPLINE
  5
35
330
17
100
AcDbEntity
  8
1_layer 1
 62
250
370
9
100
AcDbSpline
 70
24
 71
3
 72
8
 73
4
 74
0
 42
1e-09
 40
0.0
 40
0.0
 40
0.0
 40
0.0
 40
1.0
 40
1.0
 40
1.0
 40
1.0
 10
1542.825436192214
 20
160.17942526916136
 30
0.0
 10
1542.825436192214
 20
160.17942526916136
 30
0.0
 10
1555.1897361922142
 20
139.63512526916134
 30
0.0
 10
1555.1897361922142
 20
139.63512526916134
 30
0.0
  0
SPLINE
  5
36
330
17
100
AcDbEntity
  8
1_layer 1
 62
250
370
9
100
AcDbSpline
 70
24
 71
3
 72
8
 73
4
 74
0
 42
1e-09
 40
0.0
 40
0.0
 40
0.0
 40
0.0
 40
1.0
 40
1.0
 40
1.0
 40
1.0
 10
1231.8501361922142
 20
224.64002526916136
 30
0.0
 10
1231.8501361922142
 20
224.64002526916136
 30
0.0
 10
1245.590736192214
 20
199.68652526916128
 30
0.0
 10
1245.590736192214
 20
199.68652526916128
 30
0.0
  0
SPLINE
  5
37
330
17
100
AcDbEntity
  8
1_layer 1
 62
250
370
9
100
AcDbSpline
 70
24
 71
3
 72
8
 73
4
 74
0
 42
1e-09
 40
0.0
 40
0.0
 40
0.0
 40
0.0
 40
1.0
 40
1.0
 40
1.0
 40
1.0
 10
1244.136136192214
 20
224.64002526916136
 30
0.0
 10
1244.136136192214
 20
224.64002526916136
 30
0.0
 10
1230.3955361922142
 20
199.74422526916135
 30
0.0
 10
1230.3955361922142
 20
199.74422526916135
 30
0.0
  0
SPLINE
  5
38
330
17
100
AcDbEntity
  8
1_layer 1
 62
250
370
9
100
AcDbSpline
 70
24
 71
3
 72
8
 73
4
 74
0
 42
1e-09
 40
0.0
 40
0.0
 40
0.0
 40
0.0
 40
1.0
 40
1.0
 40
1.0
 40
1.0
 10
1177.3458361922142
 20
223.8464252691614
 30
0.0
 10
1177.3458361922142
 20
223.8464252691614
 30
0.0
 10
1191.086436192214
 20
198.8929252691613
 30
0.0
 10
1191.086436192214
 20
198.8929252691613
 30
0.0
  0
SPLINE
  5
39
330
17
100
AcDbEntity
  8
1_layer 1
 62
250
370
9
100
AcDbSpline
 70
24
 71
3
 72
8
 73
4
 74
0
 42
1e-09
 40
0.0
 40
0.0
 40
0.0
 40
0.0
 40
1.0
 40
1.0
 40
1.0
 40
1.0
 10
1189.6318361922142
 20
223.8464252691614
 30
0.0
 10
1189.6318361922142
 20
223.8464252691614
 30
0.0
 10
1175.8912361922141
 20
198.95062526916138
 30
0.0
 10
1175.8912361922141
 20
198.95062526916138
 30
0.0
  0
SPLINE
  5
3A
330
17
100
AcDbEntity
  8
1_layer 1
 62
250
370
9
100
AcDbSpline
 70
8
 71
3
 72
52
 73
48
 74
0
 42
1e-09
 40
0.0
 40
0.0
 40
0.0
 40
0.0
 40
0.0769230769230769
 40
0.0769230769230769
 40
0.0769230769230769
 40
0.0769230769230769
 40
0.1538461538461539
 40
0.1538461538461539
 40
0.1538461538461539
 40
0.1538461538461539
 40
0.2307692307692308
 40
0.2307692307692308
 40
0.2307692307692308
 40
0.2307692307692308
 40
0.3076923076923077
 40
0.3076923076923077
 40
0.3076923076923077
 40
0.3076923076923077
 40
0.3846153846153846
 40
0.3846153846153846
 40
0.3846153846153846
 40
0.3846153846153846
 40
0.4615384615384616
 40
0.4615384615384616
 40
0.4615384615384616
 40
0.4615384615384616
 40
0.5384615384615384
 40
0.5384615384615384
 40
0.5384615384615384
 40
0.5384615384615384
 40
0.6153846153846154
 40
0.6153846153846154
 40
0.6153846153846154
 40
0.6153846153846154
 40
0.6923076923076923
 40
0.6923076923076923
 40
0.6923076923076923
 40
0.6923076923076923
 40
0.7692307692307693
 40
0.7692307692307693
 40
0.7692307692307693
 40
0.7692307692307693
 40
0.8461538461538461
 40
0.8461538461538461
 40
0.8461538461538461
 40
0.8461538461538461
 40
1.0
 40
1.0
 40
1.0
 40
1.0
 10
1317.603336192214
 20
-204.53957473083864
 30
0.0
 10
1317.603336192214
 20
-204.53957473083864
 30
0.0
 10
1317.603336192214
 20
-202.68237473083866
 30
0.0
 10
1317.603336192214
 20
-202.68237473083866
 30
0.0
 10
1317.603336192214
 20
-202.68237473083866
 30
0.0
 10
1317.5890361922143
 20
-200.94047473083867
 30
0.0
 10
1320.2535361922141
 20
-198.82237473083865
 30
0.0
 10
1322.312636192214
 20
-198.8450747308387
 30
0.0
 10
1322.312636192214
 20
-198.8450747308387
 30
0.0
 10
1324.3767361922141
 20
-198.8450747308387
 30
0.0
 10
1326.4407361922142
 20
-198.8450747308387
 30
0.0
 10
1328.5044361922141
 20
-198.8450747308387
 30
0.0
 10
1328.5044361922141
 20
-198.8450747308387
 30
0.0
 10
1330.6989361922142
 20
-198.83627473083868
 30
0.0
 10
1332.2972361922143
 20
-200.68307473083865
 30
0.0
 10
1332.341636192214
 20
-202.59517473083866
 30
0.0
 10
1332.341636192214
 20
-202.59517473083866
 30
0.0
 10
1332.3412361922142
 20
-204.03027473083864
 30
0.0
 10
1332.3412361922142
 20
-205.46537473083868
 30
0.0
 10
1332.341636192214
 20
-206.90087473083867
 30
0.0
 10
1332.341636192214
 20
-206.90087473083867
 30
0.0
 10
1332.293036192214
 20
-208.55437473083867
 30
0.0
 10
1330.6904361922143
 20
-210.7843747308387
 30
0.0
 10
1328.4921361922143
 20
-210.77437473083864
 30
0.0
 10
1328.4921361922143
 20
-210.77437473083864
 30
0.0
 10
1330.6958361922143
 20
-210.78557473083868
 30
0.0
 10
1332.303836192214
 20
-212.58877473083868
 30
0.0
 10
1332.357836192214
 20
-214.6482747308387
 30
0.0
 10
1332.357836192214
 20
-214.6482747308387
 30
0.0
 10
1332.3574361922142
 20
-216.43297473083868
 30
0.0
 10
1332.3574361922142
 20
-218.21767473083867
 30
0.0
 10
1332.357836192214
 20
-220.00277473083867
 30
0.0
 10
1332.357836192214
 20
-220.00277473083867
 30
0.0
 10
1332.367936192214
 20
-222.06417473083866
 30
0.0
 10
1330.3130361922142
 20
-223.82727473083867
 30
0.0
 10
1328.4921361922143
 20
-223.81917473083865
 30
0.0
 10
1328.4921361922143
 20
-223.81917473083865
 30
0.0
 10
1326.426836192214
 20
-223.81887473083867
 30
0.0
 10
1324.361636192214
 20
-223.81887473083867
 30
0.0
 10
1322.2960361922142
 20
-223.81917473083865
 30
0.0
 10
1322.2960361922142
 20
-223.81917473083865
 30
0.0
 10
1320.1274361922142
 20
-223.80767473083864
 30
0.0
 10
1317.5964361922142
 20
-221.40747473083866
 30
0.0
 10
1317.5778361922141
 20
-219.94567473083868
 30
0.0
 10
1317.5778361922141
 20
-219.94567473083868
 30
0.0
 10
1317.5778361922141
 20
-219.94567473083868
 30
0.0
 10
1317.5778361922141
 20
-218.03707473083864
 30
0.0
 10
1317.5778361922141
 20
-218.03707473083864
 30
0.0
  0
SPLINE
  5
3B
330
17
100
AcDbEntity
  8
1_layer 1
 62
250
370
9
100
AcDbSpline
 70
24
 71
3
 72
8
 73
4
 74
0
 42
1e-09
 40
0.0
 40
0.0
 40
0.0
 40
0.0
 40
1.0
 40
1.0
 40
1.0
 40
1.0
 10
1322.3130361922142
 20
-210.78477473083865
 30
0.0
 10
1322.3130361922142
 20
-210.78477473083865
 30
0.0
 10
1328.5094361922143
 20
-210.78477473083865
 30
0.0
 10
1328.5094361922143
 20
-210.78477473083865
 30
0.0
  0
SPLINE
  5
3C
330
17
100
AcDbEntity
  8
1_layer 1
 62
250
370
9
100
AcDbSpline
 70
11
 71
3
 72
36
 73
32
 74
0
 42
1e-09
 40
0.0
 40
0.0
 40
0.0
 40
0.0
 40
0.1111111111111111
 40
0.1111111111111111
 40
0.1111111111111111
 40
0.1111111111111111
 40
0.2222222222222222
 40
0.2222222222222222
 40
0.2222222222222222
 40
0.2222222222222222
 40
0.3333333333333333
 40
0.3333333333333333
 40
0.3333333333333333
 40
0.3333333333333333
 40
0.4444444444444444
 40
0.4444444444444444
 40
0.4444444444444444
 40
0.4444444444444444
 40
0.5555555555555556
 40
0.5555555555555556
 40
0.5555555555555556
 40
0.5555555555555556
 40
0.6666666666666666
 40
0.6666666666666666
 40
0.6666666666666666
 40
0.6666666666666666
 40
0.7777777777777778
 40
0.7777777777777778
 40
0.7777777777777778
 40
0.7777777777777778
 40
1.0
 40
1.0
 40
1.0
 40
1.0
 10
1361.387236192214
 20
-198.83277473083865
 30
0.0
 10
1363.7533361922142
 20
-198.83277473083865
 30
0.0
 10
1366.1198361922143
 20
-198.83277473083865
 30
0.0
 10
1368.4863361922141
 20
-198.83277473083865
 30
0.0
 10
1368.4863361922141
 20
-198.83277473083865
 30
0.0
 10
1370.466836192214
 20
-198.79717473083866
 30
0.0
 10
1372.4928361922143
 20
-200.29147473083867
 30
0.0
 10
1372.5199361922141
 20
-202.73357473083865
 30
0.0
 10
1372.5199361922141
 20
-202.73357473083865
 30
0.0
 10
1372.5195361922142
 20
-208.49097473083867
 30
0.0
 10
1372.5195361922142
 20
-214.24877473083865
 30
0.0
 10
1372.5199361922141
 20
-220.0069747308387
 30
0.0
 10
1372.5199361922141
 20
-220.0069747308387
 30
0.0
 10
1372.377836192214
 20
-222.33457473083865
 30
0.0
 10
1370.671436192214
 20
-223.81687473083866
 30
0.0
 10
1368.4863361922141
 20
-223.82767473083868
 30
0.0
 10
1368.4863361922141
 20
-223.82767473083868
 30
0.0
 10
1366.1139361922142
 20
-223.82727473083867
 30
0.0
 10
1363.7415361922142
 20
-223.82727473083867
 30
0.0
 10
1361.3695361922141
 20
-223.82767473083868
 30
0.0
 10
1361.3695361922141
 20
-223.82767473083868
 30
0.0
 10
1359.4110361922142
 20
-223.93327473083866
 30
0.0
 10
1357.4046361922142
 20
-222.04537473083866
 30
0.0
 10
1357.416036192214
 20
-220.02437473083864
 30
0.0
 10
1357.416036192214
 20
-220.02437473083864
 30
0.0
 10
1357.4164361922142
 20
-214.24377473083865
 30
0.0
 10
1357.4164361922142
 20
-208.46347473083864
 30
0.0
 10
1357.416036192214
 20
-202.68367473083867
 30
0.0
 10
1357.416036192214
 20
-202.68367473083867
 30
0.0
 10
1357.420336192214
 20
-200.54167473083868
 30
0.0
 10
1359.1974361922141
 20
-198.81917473083865
 30
0.0
 10
1361.387236192214
 20
-198.83277473083865
 30
0.0
  0
SPLINE
  5
3D
330
17
100
AcDbEntity
  8
1_layer 1
 62
250
370
9
100
AcDbSpline
 70
11
 71
3
 72
36
 73
32
 74
0
 42
1e-09
 40
0.0
 40
0.0
 40
0.0
 40
0.0
 40
0.1111111111111111
 40
0.1111111111111111
 40
0.1111111111111111
 40
0.1111111111111111
 40
0.2222222222222222
 40
0.2222222222222222
 40
0.2222222222222222
 40
0.2222222222222222
 40
0.3333333333333333
 40
0.3333333333333333
 40
0.3333333333333333
 40
0.3333333333333333
 40
0.4444444444444444
 40
0.4444444444444444
 40
0.4444444444444444
 40
0.4444444444444444
 40
0.5555555555555556
 40
0.5555555555555556
 40
0.5555555555555556
 40
0.5555555555555556
 40
0.6666666666666666
 40
0.6666666666666666
 40
0.6666666666666666
 40
0.6666666666666666
 40
0.7777777777777778
 40
0.7777777777777778
 40
0.7777777777777778
 40
0.7777777777777778
 40
1.0
 40
1.0
 40
1.0
 40
1.0
 10
1341.387236192214
 20
-198.83277473083865
 30
0.0
 10
1343.7533361922142
 20
-198.83277473083865
 30
0.0
 10
1346.1198361922143
 20
-198.83277473083865
 30
0.0
 10
1348.4863361922141
 20
-198.83277473083865
 30
0.0
 10
1348.4863361922141
 20
-198.83277473083865
 30
0.0
 10
1350.466836192214
 20
-198.79717473083866
 30
0.0
 10
1352.4928361922143
 20
-200.29147473083867
 30
0.0
 10
1352.5199361922141
 20
-202.73357473083865
 30
0.0
 10
1352.5199361922141
 20
-202.73357473083865
 30
0.0
 10
1352.5195361922142
 20
-208.49097473083867
 30
0.0
 10
1352.5195361922142
 20
-214.24877473083865
 30
0.0
 10
1352.5199361922141
 20
-220.0069747308387
 30
0.0
 10
1352.5199361922141
 20
-220.0069747308387
 30
0.0
 10
1352.377836192214
 20
-222.33457473083865
 30
0.0
 10
1350.671436192214
 20
-223.81687473083866
 30
0.0
 10
1348.4863361922141
 20
-223.82767473083868
 30
0.0
 10
1348.4863361922141
 20
-223.82767473083868
 30
0.0
 10
1346.1139361922142
 20
-223.82727473083867
 30
0.0
 10
1343.7415361922142
 20
-223.82727473083867
 30
0.0
 10
1341.3695361922141
 20
-223.82767473083868
 30
0.0
 10
1341.3695361922141
 20
-223.82767473083868
 30
0.0
 10
1339.4110361922142
 20
-223.93327473083866
 30
0.0
 10
1337.4046361922142
 20
-222.04537473083866
 30
0.0
 10
1337.416036192214
 20
-220.02437473083864
 30
0.0
 10
1337.416036192214
 20
-220.02437473083864
 30
0.0
 10
1337.4164361922142
 20
-214.24377473083865
 30
0.0
 10
1337.4164361922142
 20
-208.46347473083864
 30
0.0
 10
1337.416036192214
 20
-202.68367473083867
 30
0.0
 10
1337.416036192214
 20
-202.68367473083867
 30
0.0
 10
1337.420336192214
 20
-200.54167473083868
 30
0.0
 10
1339.1974361922141
 20
-198.81917473083865
 30
0.0
 10
1341.387236192214
 20
-198.83277473083865
 30
0.0
  0
SPLINE
  5
3E
330
17
100
AcDbEntity
  8
1_layer 2
 62
142
370
158
100
AcDbSpline
 70
8
 71
3
 72
24
 73
20
 74
0
 42
1e-09
 40
0.0
 40
0.0
 40
0.0
 40
0.0
 40
0.1666666666666667
 40
0.1666666666666667
 40
0.1666666666666667
 40
0.1666666666666667
 40
0.3333333333333333
 40
0.3333333333333333
 40
0.3333333333333333
 40
0.3333333333333333
 40
0.5
 40
0.5
 40
0.5
 40
0.5
 40
0.6666666666666666
 40
0.6666666666666666
 40
0.6666666666666666
 40
0.6666666666666666
 40
1.0
 40
1.0
 40
1.0
 40
1.0
 10
1650.3908361922142
 20
465.2957252691614
 30
0.0
 10
1650.3908361922142
 20
465.2957252691614
 30
0.0
 10
1593.517336192214
 20
311.3522252691613
 30
0.0
 10
1593.517336192214
 20
311.3522252691613
 30
0.0
 10
1593.517336192214
 20
311.3522252691613
 30
0.0
 10
1593.517336192214
 20
311.3522252691613
 30
0.0
 10
1558.0631361922142
 20
221.3938252691613
 30
0.0
 10
1558.0631361922142
 20
221.3938252691613
 30
0.0
 10
1558.0631361922142
 20
221.3938252691613
 30
0.0
 10
1539.567136192214
 20
179.47122526916132
 30
0.0
 10
1537.1766361922141
 20
174.87422526916134
 30
0.0
 10
1535.6679361922143
 20
127.85342526916133
 30
0.0
 10
1535.6679361922143
 20
127.85342526916133
 30
0.0
 10
1532.427736192214
 20
26.85282526916137
 30
0.0
 10
1530.3016361922141
 20
-80.46457473083865
 30
0.0
 10
1538.126236192214
 20
-181.2157747308387
 30
0.0
 10
1538.126236192214
 20
-181.2157747308387
 30
0.0
 10
1538.664036192214
 20
-188.14007473083865
 30
0.0
 10
1539.2025361922142
 20
-195.06437473083867
 30
0.0
 10
1539.7408361922141
 20
-201.98867473083868
 30
0.0
  0
SPLINE
  5
3F
330
17
100
AcDbEntity
  8
1_layer 2
 62
142
370
158
100
AcDbSpline
 70
8
 71
3
 72
60
 73
56
 74
0
 42
1e-09
 40
0.0
 40
0.0
 40
0.0
 40
0.0
 40
0.0666666666666667
 40
0.0666666666666667
 40
0.0666666666666667
 40
0.0666666666666667
 40
0.1333333333333333
 40
0.1333333333333333
 40
0.1333333333333333
 40
0.1333333333333333
 40
0.2
 40
0.2
 40
0.2
 40
0.2
 40
0.2666666666666667
 40
0.2666666666666667
 40
0.2666666666666667
 40
0.2666666666666667
 40
0.3333333333333333
 40
0.3333333333333333
 40
0.3333333333333333
 40
0.3333333333333333
 40
0.4
 40
0.4
 40
0.4
 40
0.4
 40
0.4666666666666667
 40
0.4666666666666667
 40
0.4666666666666667
 40
0.4666666666666667
 40
0.5333333333333333
 40
0.5333333333333333
 40
0.5333333333333333
 40
0.5333333333333333
 40
0.6
 40
0.6
 40
0.6
 40
0.6
 40
0.6666666666666666
 40
0.6666666666666666
 40
0.6666666666666666
 40
0.6666666666666666
 40
0.7333333333333333
 40
0.7333333333333333
 40
0.7333333333333333
 40
0.7333333333333333
 40
0.8
 40
0.8
 40
0.8
 40
0.8
 40
0.8666666666666667
 40
0.8666666666666667
 40
0.8666666666666667
 40
0.8666666666666667
 40
1.0
 40
1.0
 40
1.0
 40
1.0
 10
1524.4064361922142
 20
-236.90647473083868
 30
0.0
 10
1402.107836192214
 20
-238.43347473083867
 30
0.0
 10
1279.8557361922142
 20
-236.95397473083864
 30
0.0
 10
1157.8201361922142
 20
-238.51417473083865
 30
0.0
 10
1157.8201361922142
 20
-238.51417473083865
 30
0.0
 10
1150.136136192214
 20
-238.61467473083866
 30
0.0
 10
1136.7549361922142
 20
-239.57527473083866
 30
0.0
 10
1139.4742361922142
 20
-228.33877473083868
 30
0.0
 10
1139.4742361922142
 20
-228.33877473083868
 30
0.0
 10
1147.5463361922143
 20
-205.24637473083868
 30
0.0
 10
1157.8621361922142
 20
-190.94807473083864
 30
0.0
 10
1162.136136192214
 20
-165.59647473083868
 30
0.0
 10
1162.136136192214
 20
-165.59647473083868
 30
0.0
 10
1167.775736192214
 20
-130.40787473083867
 30
0.0
 10
1170.2639361922143
 20
-91.68957473083867
 30
0.0
 10
1157.6452361922143
 20
-57.737074730838685
 30
0.0
 10
1157.6452361922143
 20
-57.737074730838685
 30
0.0
 10
1148.5276361922142
 20
-33.20477473083872
 30
0.0
 10
1140.3559361922141
 20
-19.722474730838712
 30
0.0
 10
1139.9916361922142
 20
7.657625269161372
 30
0.0
 10
1139.9916361922142
 20
7.657625269161372
 30
0.0
 10
1139.2007361922142
 20
67.09302526916133
 30
0.0
 10
1140.7180361922142
 20
110.39282526916134
 30
0.0
 10
1124.9649361922143
 20
169.10152526916136
 30
0.0
 10
1124.9649361922143
 20
169.10152526916136
 30
0.0
 10
1109.5642361922141
 20
225.98422526916136
 30
0.0
 10
1113.076336192214
 20
260.54862526916133
 30
0.0
 10
1113.5171361922141
 20
317.8831252691614
 30
0.0
 10
1113.5171361922141
 20
317.8831252691614
 30
0.0
 10
1113.8061361922141
 20
355.47842526916133
 30
0.0
 10
1117.4647361922143
 20
384.05122526916136
 30
0.0
 10
1138.157636192214
 20
416.6547252691613
 30
0.0
 10
1138.157636192214
 20
416.6547252691613
 30
0.0
 10
1150.7306361922142
 20
436.4646252691614
 30
0.0
 10
1166.158836192214
 20
443.89692526916133
 30
0.0
 10
1186.1617361922142
 20
454.60012526916137
 30
0.0
 10
1186.1617361922142
 20
454.60012526916137
 30
0.0
 10
1234.771236192214
 20
480.61012526916124
 30
0.0
 10
1308.656736192214
 20
479.53312526916125
 30
0.0
 10
1365.2742361922142
 20
485.85822526916127
 30
0.0
 10
1365.2742361922142
 20
485.85822526916127
 30
0.0
 10
1374.750336192214
 20
486.91682526916134
 30
0.0
 10
1392.2205361922142
 20
488.93042526916133
 30
0.0
 10
1398.2378361922142
 20
479.66402526916136
 30
0.0
 10
1398.2378361922142
 20
479.66402526916136
 30
0.0
 10
1407.1612361922141
 20
465.9225252691614
 30
0.0
 10
1414.7740361922142
 20
443.3967252691614
 30
0.0
 10
1422.2807361922141
 20
427.76732526916135
 30
0.0
 10
1422.2807361922141
 20
427.76732526916135
 30
0.0
 10
1424.1063361922143
 20
423.9663252691613
 30
0.0
 10
1430.7830361922142
 20
408.6253252691613
 30
0.0
 10
1436.6465361922142
 20
411.6447252691613
 30
0.0
 10
1436.6465361922142
 20
411.6447252691613
 30
0.0
 10
1443.7801361922143
 20
415.3182252691613
 30
0.0
 10
1459.6717361922142
 20
438.2287252691614
 30
0.0
 10
1464.8157361922142
 20
445.8645252691614
 30
0.0
  0
SPLINE
  5
40
330
17
100
AcDbEntity
  8
1_layer 2
 62
142
370
158
100
AcDbSpline
 70
8
 71
3
 72
20
 73
16
 74
0
 42
1e-09
 40
0.0
 40
0.0
 40
0.0
 40
0.0
 40
0.2
 40
0.2
 40
0.2
 40
0.2
 40
0.4
 40
0.4
 40
0.4
 40
0.4
 40
0.6
 40
0.6
 40
0.6
 40
0.6
 40
1.0
 40
1.0
 40
1.0
 40
1.0
 10
1432.9145361922142
 20
408.8495252691613
 30
0.0
 10
1436.1456361922142
 20
350.8639252691613
 30
0.0
 10
1439.3552361922143
 20
293.3453252691613
 30
0.0
 10
1441.8017361922143
 20
235.29972526916129
 30
0.0
 10
1441.8017361922143
 20
235.29972526916129
 30
0.0
 10
1442.9064361922142
 20
210.47962526916137
 30
0.0
 10
1445.8316361922143
 20
187.33422526916138
 30
0.0
 10
1475.4883361922143
 20
184.48112526916134
 30
0.0
 10
1475.4883361922143
 20
184.48112526916134
 30
0.0
 10
1490.8405361922141
 20
183.00412526916136
 30
0.0
 10
1507.216636192214
 20
183.2539252691613
 30
0.0
 10
1522.940336192214
 20
182.14282526916134
 30
0.0
 10
1522.940336192214
 20
182.14282526916134
 30
0.0
 10
1528.9345361922142
 20
181.71922526916137
 30
0.0
 10
1534.9282361922142
 20
181.29232526916132
 30
0.0
 10
1540.923136192214
 20
180.8790252691614
 30
0.0
  0
SPLINE
  5
41
330
17
100
AcDbEntity
  8
1_layer 2
 62
142
370
158
100
AcDbSpline
 70
24
 71
3
 72
8
 73
4
 74
0
 42
1e-09
 40
0.0
 40
0.0
 40
0.0
 40
0.0
 40
1.0
 40
1.0
 40
1.0
 40
1.0
 10
1454.6202361922142
 20
191.13292526916132
 30
0.0
 10
1454.6202361922142
 20
191.13292526916132
 30
0.0
 10
1557.0803361922142
 20
492.9287252691613
 30
0.0
 10
1557.0803361922142
 20
492.9287252691613
 30
0.0
  0
SPLINE
  5
42
330
17
100
AcDbEntity
  8
1_layer 3
 62
242
370
158
100
AcDbSpline
 70
11
 71
3
 72
212
 73
208
 74
0
 42
1e-09
 40
0.0
 40
0.0
 40
0.0
 40
0.0
 40
0.0188679245283019
 40
0.0188679245283019
 40
0.0188679245283019
 40
0.0188679245283019
 40
0.0377358490566038
 40
0.0377358490566038
 40
0.0377358490566038
 40
0.0377358490566038
 40
0.0566037735849057
 40
0.0566037735849057
 40
0.0566037735849057
 40
0.0566037735849057
 40
0.0754716981132075
 40
0.0754716981132075
 40
0.0754716981132075
 40
0.0754716981132075
 40
0.0943396226415094
 40
0.0943396226415094
 40
0.0943396226415094
 40
0.0943396226415094
 40
0.1132075471698113
 40
0.1132075471698113
 40
0.1132075471698113
 40
0.1132075471698113
 40
0.1320754716981132
 40
0.1320754716981132
 40
0.1320754716981132
 40
0.1320754716981132
 40
0.1509433962264151
 40
0.1509433962264151
 40
0.1509433962264151
 40
0.1509433962264151
 40
0.169811320754717
 40
0.169811320754717
 40
0.169811320754717
 40
0.169811320754717
 40
0.1886792452830189
 40
0.1886792452830189
 40
0.1886792452830189
 40
0.1886792452830189
 40
0.2075471698113208
 40
0.2075471698113208
 40
0.2075471698113208
 40
0.2075471698113208
 40
0.2264150943396226
 40
0.2264150943396226
 40
0.2264150943396226
 40
0.2264150943396226
 40
0.2452830188679245
 40
0.2452830188679245
 40
0.2452830188679245
 40
0.2452830188679245
 40
0.2641509433962264
 40
0.2641509433962264
 40
0.2641509433962264
 40
0.2641509433962264
 40
0.2830188679245283
 40
0.2830188679245283
 40
0.2830188679245283
 40
0.2830188679245283
 40
0.3018867924528302
 40
0.3018867924528302
 40
0.3018867924528302
 40
0.3018867924528302
 40
0.3207547169811321
 40
0.3207547169811321
 40
0.3207547169811321
 40
0.3207547169811321
 40
0.3396226415094339
 40
0.3396226415094339
 40
0.3396226415094339
 40
0.3396226415094339
 40
0.3584905660377358
 40
0.3584905660377358
 40
0.3584905660377358
 40
0.3584905660377358
 40
0.3773584905660378
 40
0.3773584905660378
 40
0.3773584905660378
 40
0.3773584905660378
 40
0.3962264150943396
 40
0.3962264150943396
 40
0.3962264150943396
 40
0.3962264150943396
 40
0.4150943396226415
 40
0.4150943396226415
 40
0.4150943396226415
 40
0.4150943396226415
 40
0.4339622641509434
 40
0.4339622641509434
 40
0.4339622641509434
 40
0.4339622641509434
 40
0.4528301886792453
 40
0.4528301886792453
 40
0.4528301886792453
 40
0.4528301886792453
 40
0.4716981132075472
 40
0.4716981132075472
 40
0.4716981132075472
 40
0.4716981132075472
 40
0.4905660377358491
 40
0.4905660377358491
 40
0.4905660377358491
 40
0.4905660377358491
 40
0.5094339622641509
 40
0.5094339622641509
 40
0.5094339622641509
 40
0.5094339622641509
 40
0.5283018867924528
 40
0.5283018867924528
 40
0.5283018867924528
 40
0.5283018867924528
 40
0.5471698113207547
 40
0.5471698113207547
 40
0.5471698113207547
 40
0.5471698113207547
 40
0.5660377358490566
 40
0.5660377358490566
 40
0.5660377358490566
 40
0.5660377358490566
 40
0.5849056603773585
 40
0.5849056603773585
 40
0.5849056603773585
 40
0.5849056603773585
 40
0.6037735849056604
 40
0.6037735849056604
 40
0.6037735849056604
 40
0.6037735849056604
 40
0.6226415094339622
 40
0.6226415094339622
 40
0.6226415094339622
 40
0.6226415094339622
 40
0.6415094339622641
 40
0.6415094339622641
 40
0.6415094339622641
 40
0.6415094339622641
 40
0.660377358490566
 40
0.660377358490566
 40
0.660377358490566
 40
0.660377358490566
 40
0.6792452830188679
 40
0.6792452830188679
 40
0.6792452830188679
 40
0.6792452830188679
 40
0.6981132075471698
 40
0.6981132075471698
 40
0.6981132075471698
 40
0.6981132075471698
 40
0.7169811320754716
 40
0.7169811320754716
 40
0.7169811320754716
 40
0.7169811320754716
 40
0.7358490566037735
 40
0.7358490566037735
 40
0.7358490566037735
 40
0.7358490566037735
 40
0.7547169811320755
 40
0.7547169811320755
 40
0.7547169811320755
 40
0.7547169811320755
 40
0.7735849056603774
 40
0.7735849056603774
 40
0.7735849056603774
 40
0.7735849056603774
 40
0.7924528301886793
 40
0.7924528301886793
 40
0.7924528301886793
 40
0.7924528301886793
 40
0.8113207547169812
 40
0.8113207547169812
 40
0.8113207547169812
 40
0.8113207547169812
 40
0.8301886792452831
 40
0.8301886792452831
 40
0.8301886792452831
 40
0.8301886792452831
 40
0.8490566037735849
 40
0.8490566037735849
 40
0.8490566037735849
 40
0.8490566037735849
 40
0.8679245283018868
 40
0.8679245283018868
 40
0.8679245283018868
 40
0.8679245283018868
 40
0.8867924528301887
 40
0.8867924528301887
 40
0.8867924528301887
 40
0.8867924528301887
 40
0.9056603773584906
 40
0.9056603773584906
 40
0.9056603773584906
 40
0.9056603773584906
 40
0.9245283018867925
 40
0.9245283018867925
 40
0.9245283018867925
 40
0.9245283018867925
 40
0.9433962264150944
 40
0.9433962264150944
 40
0.9433962264150944
 40
0.9433962264150944
 40
0.9622641509433962
 40
0.9622641509433962
 40
0.9622641509433962
 40
0.9622641509433962
 40
1.0
 40
1.0
 40
1.0
 40
1.0
 10
1053.7718361922143
 20
429.7538252691613
 30
0.0
 10
1064.7941361922142
 20
443.62502526916137
 30
0.0
 10
1075.867036192214
 20
459.89012526916133
 30
0.0
 10
1086.2947361922143
 20
474.4179252691613
 30
0.0
 10
1086.2947361922143
 20
474.4179252691613
 30
0.0
 10
1086.2947361922143
 20
474.4179252691613
 30
0.0
 10
1088.034536192214
 20
476.8418252691613
 30
0.0
 10
1088.034536192214
 20
476.8418252691613
 30
0.0
 10
1088.034536192214
 20
476.8418252691613
 30
0.0
 10
1088.034536192214
 20
476.8418252691613
 30
0.0
 10
1111.2852361922141
 20
470.29902526916135
 30
0.0
 10
1111.2852361922141
 20
470.29902526916135
 30
0.0
 10
1111.2852361922141
 20
470.29902526916135
 30
0.0
 10
1131.6964361922142
 20
466.7250252691613
 30
0.0
 10
1135.8246361922143
 20
479.58662526916123
 30
0.0
 10
1153.201336192214
 20
486.8185252691612
 30
0.0
 10
1153.201336192214
 20
486.8185252691612
 30
0.0
 10
1174.1482361922142
 20
495.4391252691614
 30
0.0
 10
1189.432436192214
 20
500.6602252691614
 30
0.0
 10
1211.4395361922143
 20
506.27542526916136
 30
0.0
 10
1211.4395361922143
 20
506.27542526916136
 30
0.0
 10
1260.7860361922142
 20
518.1247252691614
 30
0.0
 10
1305.6288361922143
 20
518.0292252691613
 30
0.0
 10
1355.5915361922143
 20
521.0521252691613
 30
0.0
 10
1355.5915361922143
 20
521.0521252691613
 30
0.0
 10
1385.290136192214
 20
524.4655252691614
 30
0.0
 10
1412.7623361922142
 20
534.3834252691613
 30
0.0
 10
1442.7571361922141
 20
537.1849252691613
 30
0.0
 10
1442.7571361922141
 20
537.1849252691613
 30
0.0
 10
1449.7561361922142
 20
537.8154252691613
 30
0.0
 10
1464.9961361922142
 20
540.5707252691614
 30
0.0
 10
1466.2662361922141
 20
530.7708252691614
 30
0.0
 10
1466.2662361922141
 20
530.7708252691614
 30
0.0
 10
1463.8638361922142
 20
507.6461252691613
 30
0.0
 10
1442.164436192214
 20
457.6593252691613
 30
0.0
 10
1443.0539361922142
 20
442.75062526916133
 30
0.0
 10
1443.0539361922142
 20
442.75062526916133
 30
0.0
 10
1443.6459361922143
 20
432.8300252691613
 30
0.0
 10
1450.1279361922143
 20
433.30212526916137
 30
0.0
 10
1456.5534361922141
 20
438.1765252691613
 30
0.0
 10
1456.5534361922141
 20
438.1765252691613
 30
0.0
 10
1471.0130361922143
 20
449.14552526916134
 30
0.0
 10
1492.225836192214
 20
478.83852526916144
 30
0.0
 10
1503.0859361922141
 20
494.3785252691614
 30
0.0
 10
1503.0859361922141
 20
494.3785252691614
 30
0.0
 10
1505.998536192214
 20
498.54632526916134
 30
0.0
 10
1508.9047361922142
 20
502.7173252691614
 30
0.0
 10
1511.8307361922143
 20
506.87592526916137
 30
0.0
 10
1511.8307361922143
 20
506.87592526916137
 30
0.0
 10
1522.8716361922143
 20
522.5456252691613
 30
0.0
 10
1527.1376361922141
 20
516.6752252691613
 30
0.0
 10
1537.2197361922142
 20
507.6138252691612
 30
0.0
 10
1537.2197361922142
 20
507.6138252691612
 30
0.0
 10
1543.8808361922142
 20
501.6272252691613
 30
0.0
 10
1550.6330361922141
 20
495.7195252691613
 30
0.0
 10
1558.6239361922142
 20
492.21522526916124
 30
0.0
 10
1558.6239361922142
 20
492.21522526916124
 30
0.0
 10
1586.128736192214
 20
480.15372526916144
 30
0.0
 10
1639.716536192214
 20
469.25962526916135
 30
0.0
 10
1671.290836192214
 20
459.27502526916135
 30
0.0
 10
1671.290836192214
 20
459.27502526916135
 30
0.0
 10
1682.6515361922143
 20
455.6741252691613
 30
0.0
 10
1689.0665361922142
 20
450.90312526916136
 30
0.0
 10
1688.129836192214
 20
437.91772526916134
 30
0.0
 10
1688.129836192214
 20
437.91772526916134
 30
0.0
 10
1685.8322361922142
 20
421.10652526916135
 30
0.0
 10
1673.5568361922142
 20
393.5063252691614
 30
0.0
 10
1667.2009361922142
 20
376.5030252691613
 30
0.0
 10
1667.2009361922142
 20
376.5030252691613
 30
0.0
 10
1646.1745361922142
 20
320.3505252691614
 30
0.0
 10
1623.6684361922141
 20
264.7022252691613
 30
0.0
 10
1604.0720361922142
 20
208.03082526916137
 30
0.0
 10
1604.0720361922142
 20
208.03082526916137
 30
0.0
 10
1597.5865361922142
 20
192.47422526916137
 30
0.0
 10
1593.6189361922143
 20
193.05892526916136
 30
0.0
 10
1577.7517361922141
 20
191.37702526916132
 30
0.0
 10
1577.7517361922141
 20
191.37702526916132
 30
0.0
 10
1572.2535361922141
 20
190.7942252691613
 30
0.0
 10
1546.0053361922141
 20
191.7041252691613
 30
0.0
 10
1547.7152361922142
 20
182.6678252691613
 30
0.0
 10
1547.7152361922142
 20
182.6678252691613
 30
0.0
 10
1548.996736192214
 20
175.89502526916135
 30
0.0
 10
1568.829836192214
 20
174.42272526916133
 30
0.0
 10
1574.970236192214
 20
172.7566252691613
 30
0.0
 10
1574.970236192214
 20
172.7566252691613
 30
0.0
 10
1580.5079361922142
 20
171.2540252691614
 30
0.0
 10
1587.3240361922142
 20
169.4577252691613
 30
0.0
 10
1588.434036192214
 20
163.1158252691613
 30
0.0
 10
1588.434036192214
 20
163.1158252691613
 30
0.0
 10
1587.6321361922141
 20
156.0736252691613
 30
0.0
 10
1573.1562361922142
 20
135.88042526916138
 30
0.0
 10
1568.6536361922142
 20
128.74992526916128
 30
0.0
 10
1568.6536361922142
 20
128.74992526916128
 30
0.0
 10
1546.9509361922142
 20
93.02632526916136
 30
0.0
 10
1552.5089361922142
 20
89.87002526916137
 30
0.0
 10
1551.4622361922143
 20
50.183425269161376
 30
0.0
 10
1551.4622361922143
 20
50.183425269161376
 30
0.0
 10
1549.6871361922142
 20
-17.55107473083865
 30
0.0
 10
1549.1572361922142
 20
-85.67137473083869
 30
0.0
 10
1546.5525361922141
 20
-153.32467473083864
 30
0.0
 10
1546.5525361922141
 20
-153.32467473083864
 30
0.0
 10
1545.5930361922142
 20
-171.57697473083869
 30
0.0
 10
1541.232836192214
 20
-189.60747473083865
 30
0.0
 10
1538.942136192214
 20
-207.82327473083865
 30
0.0
 10
1538.942136192214
 20
-207.82327473083865
 30
0.0
 10
1536.070936192214
 20
-225.82387473083867
 30
0.0
 10
1527.6012361922142
 20
-231.53907473083865
 30
0.0
 10
1517.816236192214
 20
-245.73477473083864
 30
0.0
 10
1517.816236192214
 20
-245.73477473083864
 30
0.0
 10
1512.6312361922141
 20
-253.71927473083866
 30
0.0
 10
1507.4925361922142
 20
-264.25577473083865
 30
0.0
 10
1502.2325361922142
 20
-271.46347473083864
 30
0.0
 10
1502.2325361922142
 20
-271.46347473083864
 30
0.0
 10
1493.0784361922142
 20
-280.9028747308387
 30
0.0
 10
1485.885236192214
 20
-277.0640747308387
 30
0.0
 10
1473.8774361922142
 20
-276.19167473083866
 30
0.0
 10
1473.8774361922142
 20
-276.19167473083866
 30
0.0
 10
1460.7592361922143
 20
-275.23857473083865
 30
0.0
 10
1447.603736192214
 20
-276.1136747308387
 30
0.0
 10
1434.678636192214
 20
-275.31507473083866
 30
0.0
 10
1434.678636192214
 20
-275.31507473083866
 30
0.0
 10
1421.445736192214
 20
-274.10727473083864
 30
0.0
 10
1414.4000361922142
 20
-266.9938747308387
 30
0.0
 10
1402.2158361922143
 20
-266.68937473083867
 30
0.0
 10
1402.2158361922143
 20
-266.68937473083867
 30
0.0
 10
1387.491336192214
 20
-266.32147473083864
 30
0.0
 10
1371.8469361922141
 20
-266.7753747308387
 30
0.0
 10
1356.987736192214
 20
-266.77477473083866
 30
0.0
 10
1356.987736192214
 20
-266.77477473083866
 30
0.0
 10
1331.857336192214
 20
-266.77387473083866
 30
0.0
 10
1306.726936192214
 20
-266.77507473083864
 30
0.0
 10
1281.5965361922142
 20
-266.77507473083864
 30
0.0
 10
1281.5965361922142
 20
-266.77507473083864
 30
0.0
 10
1229.3765361922142
 20
-266.2300747308387
 30
0.0
 10
1177.0758361922142
 20
-266.38687473083866
 30
0.0
 10
1124.8731361922141
 20
-265.2594747308387
 30
0.0
 10
1124.8731361922141
 20
-265.2594747308387
 30
0.0
 10
1111.041736192214
 20
-264.9607747308387
 30
0.0
 10
1098.5730361922142
 20
-261.6901747308387
 30
0.0
 10
1091.0795361922142
 20
-248.89967473083868
 30
0.0
 10
1091.0795361922142
 20
-248.89967473083868
 30
0.0
 10
1079.8041361922142
 20
-214.96717473083868
 30
0.0
 10
1092.9013361922143
 20
-176.9691747308387
 30
0.0
 10
1082.172536192214
 20
-144.02137473083866
 30
0.0
 10
1082.172536192214
 20
-144.02137473083866
 30
0.0
 10
1071.2434361922142
 20
-113.48367473083869
 30
0.0
 10
1038.8626361922143
 20
-111.16397473083867
 30
0.0
 10
1036.3008361922143
 20
-106.98207473083869
 30
0.0
 10
1036.3008361922143
 20
-106.98207473083869
 30
0.0
 10
1035.5459361922142
 20
-105.74987473083866
 30
0.0
 10
1023.5436361922142
 20
144.9024252691613
 30
0.0
 10
1021.8351361922141
 20
172.6964252691613
 30
0.0
 10
1021.8351361922141
 20
172.6964252691613
 30
0.0
 10
1020.5692361922141
 20
193.28732526916133
 30
0.0
 10
1026.7913361922142
 20
190.01822526916135
 30
0.0
 10
1044.8145361922143
 20
193.11832526916135
 30
0.0
 10
1044.8145361922143
 20
193.11832526916135
 30
0.0
 10
1052.821636192214
 20
194.1139252691613
 30
0.0
 10
1091.8902361922142
 20
197.05632526916133
 30
0.0
 10
1095.7451361922142
 20
199.83032526916134
 30
0.0
 10
1095.7451361922142
 20
199.83032526916134
 30
0.0
 10
1101.4410361922141
 20
203.92902526916134
 30
0.0
 10
1097.666736192214
 20
210.2000252691613
 30
0.0
 10
1093.0222361922142
 20
212.3821252691613
 30
0.0
 10
1093.0222361922142
 20
212.3821252691613
 30
0.0
 10
1083.4436361922142
 20
216.8825252691613
 30
0.0
 10
1054.7054361922142
 20
223.14242526916132
 30
0.0
 10
1043.0823361922141
 20
226.05272526916133
 30
0.0
 10
1043.0823361922141
 20
226.05272526916133
 30
0.0
 10
1040.2055361922141
 20
226.77302526916128
 30
0.0
 10
1037.3846361922142
 20
227.54222526916135
 30
0.0
 10
1034.5460361922142
 20
228.40232526916134
 30
0.0
 10
1034.5460361922142
 20
228.40232526916134
 30
0.0
 10
1034.5460361922142
 20
228.40232526916134
 30
0.0
 10
1033.3621361922142
 20
228.78192526916132
 30
0.0
 10
1033.3621361922142
 20
228.78192526916132
 30
0.0
 10
1033.3621361922142
 20
228.78192526916132
 30
0.0
 10
1021.8166361922142
 20
232.5632252691613
 30
0.0
 10
1021.7077361922142
 20
236.48322526916138
 30
0.0
 10
1021.5238361922142
 20
248.76062526916132
 30
0.0
 10
1021.5238361922142
 20
248.76062526916132
 30
0.0
 10
1021.3642361922142
 20
265.6656252691613
 30
0.0
 10
1022.9764361922141
 20
285.52592526916135
 30
0.0
 10
1024.169436192214
 20
302.4624252691614
 30
0.0
 10
1024.169436192214
 20
302.4624252691614
 30
0.0
 10
1024.8271361922143
 20
311.7988252691613
 30
0.0
 10
1029.485536192214
 20
378.89812526916137
 30
0.0
 10
1034.4150361922143
 20
383.2426252691613
 30
0.0
 10
1034.4150361922143
 20
383.2426252691613
 30
0.0
 10
1042.671636192214
 20
388.6574252691613
 30
0.0
 10
1091.9022361922143
 20
371.4121252691614
 30
0.0
 10
1092.6985361922143
 20
383.06842526916137
 30
0.0
 10
1092.6985361922143
 20
383.06842526916137
 30
0.0
 10
1093.2545361922141
 20
391.2072252691613
 30
0.0
 10
1062.714136192214
 20
402.7136252691613
 30
0.0
 10
1055.9012361922141
 20
406.0034252691613
 30
0.0
 10
1055.9012361922141
 20
406.0034252691613
 30
0.0
 10
1053.626936192214
 20
407.10162526916133
 30
0.0
 10
1051.483936192214
 20
408.2226252691613
 30
0.0
 10
1049.2732361922142
 20
409.4414252691613
 30
0.0
 10
1049.2732361922142
 20
409.4414252691613
 30
0.0
 10
1040.0758361922142
 20
414.6225252691613
 30
0.0
 10
1048.1937361922141
 20
422.94262526916134
 30
0.0
 10
1052.470136192214
 20
428.1298252691613
 30
0.0
 10
1052.470136192214
 20
428.1298252691613
 30
0.0
 10
1052.470136192214
 20
428.1298252691613
 30
0.0
 10
1053.7718361922143
 20
429.7538252691613
 30
0.0
 10
1053.7718361922143
 20
429.7538252691613
 30
0.0
  0
SPLINE
  5
43
330
17
100
AcDbEntity
  8
2_layer 1
 62
250
370
9
100
AcDbSpline
 70
24
 71
3
 72
8
 73
4
 74
0
 42
1e-09
 40
0.0
 40
0.0
 40
0.0
 40
0.0
 40
1.0
 40
1.0
 40
1.0
 40
1.0
 10
1351.9417610849089
 20
525.9536429018995
 30
0.0
 10
1351.9417610849089
 20
525.9536429018995
 30
0.0
 10
1364.3060610849088
 20
505.4093429018994
 30
0.0
 10
1364.3060610849088
 20
505.4093429018994
 30
0.0
  0
SPLINE
  5
44
330
17
100
AcDbEntity
  8
2_layer 1
 62
250
370
9
100
AcDbSpline
 70
24
 71
3
 72
8
 73
4
 74
0
 42
1e-09
 40
0.0
 40
0.0
 40
0.0
 40
0.0
 40
1.0
 40
1.0
 40
1.0
 40
1.0
 10
1334.2118610849088
 20
525.9536429018995
 30
0.0
 10
1334.2118610849088
 20
525.9536429018995
 30
0.0
 10
1346.5761610849088
 20
505.4093429018994
 30
0.0
 10
1346.5761610849088
 20
505.4093429018994
 30
0.0
  0
SPLINE
  5
45
330
17
100
AcDbEntity
  8
2_layer 1
 62
250
370
9
100
AcDbSpline
 70
24
 71
3
 72
8
 73
4
 74
0
 42
1e-09
 40
0.0
 40
0.0
 40
0.0
 40
0.0
 40
1.0
 40
1.0
 40
1.0
 40
1.0
 10
1347.7084610849088
 20
409.5369429018994
 30
0.0
 10
1347.7084610849088
 20
409.5369429018994
 30
0.0
 10
1360.072761084909
 20
388.9926429018994
 30
0.0
 10
1360.072761084909
 20
388.9926429018994
 30
0.0
  0
SPLINE
  5
46
330
17
100
AcDbEntity
  8
2_layer 1
 62
250
370
9
100
AcDbSpline
 70
24
 71
3
 72
8
 73
4
 74
0
 42
1e-09
 40
0.0
 40
0.0
 40
0.0
 40
0.0
 40
1.0
 40
1.0
 40
1.0
 40
1.0
 10
1329.978561084909
 20
409.5369429018994
 30
0.0
 10
1329.978561084909
 20
409.5369429018994
 30
0.0
 10
1342.3428610849087
 20
388.9926429018994
 30
0.0
 10
1342.3428610849087
 20
388.9926429018994
 30
0.0
  0
SPLINE
  5
47
330
17
100
AcDbEntity
  8
2_layer 1
 62
250
370
9
100
AcDbSpline
 70
24
 71
3
 72
8
 73
4
 74
0
 42
1e-09
 40
0.0
 40
0.0
 40
0.0
 40
0.0
 40
1.0
 40
1.0
 40
1.0
 40
1.0
 10
1351.9417610849089
 20
310.0535429018995
 30
0.0
 10
1351.9417610849089
 20
310.0535429018995
 30
0.0
 10
1364.3060610849088
 20
289.5092429018995
 30
0.0
 10
1364.3060610849088
 20
289.5092429018995
 30
0.0
  0
SPLINE
  5
48
330
17
100
AcDbEntity
  8
2_layer 1
 62
250
370
9
100
AcDbSpline
 70
24
 71
3
 72
8
 73
4
 74
0
 42
1e-09
 40
0.0
 40
0.0
 40
0.0
 40
0.0
 40
1.0
 40
1.0
 40
1.0
 40
1.0
 10
1334.2118610849088
 20
310.0535429018995
 30
0.0
 10
1334.2118610849088
 20
310.0535429018995
 30
0.0
 10
1346.5761610849088
 20
289.5092429018995
 30
0.0
 10
1346.5761610849088
 20
289.5092429018995
 30
0.0
  0
SPLINE
  5
49
330
17
100
AcDbEntity
  8
2_layer 1
 62
250
370
9
100
AcDbSpline
 70
8
 71
3
 72
52
 73
48
 74
0
 42
1e-09
 40
0.0
 40
0.0
 40
0.0
 40
0.0
 40
0.0769230769230769
 40
0.0769230769230769
 40
0.0769230769230769
 40
0.0769230769230769
 40
0.1538461538461539
 40
0.1538461538461539
 40
0.1538461538461539
 40
0.1538461538461539
 40
0.2307692307692308
 40
0.2307692307692308
 40
0.2307692307692308
 40
0.2307692307692308
 40
0.3076923076923077
 40
0.3076923076923077
 40
0.3076923076923077
 40
0.3076923076923077
 40
0.3846153846153846
 40
0.3846153846153846
 40
0.3846153846153846
 40
0.3846153846153846
 40
0.4615384615384616
 40
0.4615384615384616
 40
0.4615384615384616
 40
0.4615384615384616
 40
0.5384615384615384
 40
0.5384615384615384
 40
0.5384615384615384
 40
0.5384615384615384
 40
0.6153846153846154
 40
0.6153846153846154
 40
0.6153846153846154
 40
0.6153846153846154
 40
0.6923076923076923
 40
0.6923076923076923
 40
0.6923076923076923
 40
0.6923076923076923
 40
0.7692307692307693
 40
0.7692307692307693
 40
0.7692307692307693
 40
0.7692307692307693
 40
0.8461538461538461
 40
0.8461538461538461
 40
0.8461538461538461
 40
0.8461538461538461
 40
1.0
 40
1.0
 40
1.0
 40
1.0
 10
1542.3444610849087
 20
-61.93065709810054
 30
0.0
 10
1542.3444610849087
 20
-61.93065709810054
 30
0.0
 10
1542.3444610849087
 20
-60.07345709810053
 30
0.0
 10
1542.3444610849087
 20
-60.07345709810053
 30
0.0
 10
1542.3444610849087
 20
-60.07345709810053
 30
0.0
 10
1542.330161084909
 20
-58.33155709810052
 30
0.0
 10
1544.9946610849088
 20
-56.21345709810052
 30
0.0
 10
1547.0537610849087
 20
-56.236157098100534
 30
0.0
 10
1547.0537610849087
 20
-56.236157098100534
 30
0.0
 10
1549.1178610849088
 20
-56.236157098100534
 30
0.0
 10
1551.1818610849089
 20
-56.236157098100534
 30
0.0
 10
1553.2455610849088
 20
-56.236157098100534
 30
0.0
 10
1553.2455610849088
 20
-56.236157098100534
 30
0.0
 10
1555.4400610849088
 20
-56.227357098100526
 30
0.0
 10
1557.038361084909
 20
-58.07415709810053
 30
0.0
 10
1557.0827610849087
 20
-59.98625709810054
 30
0.0
 10
1557.0827610849087
 20
-59.98625709810054
 30
0.0
 10
1557.0823610849088
 20
-61.421357098100515
 30
0.0
 10
1557.0823610849088
 20
-62.85645709810052
 30
0.0
 10
1557.0827610849087
 20
-64.29195709810054
 30
0.0
 10
1557.0827610849087
 20
-64.29195709810054
 30
0.0
 10
1557.0341610849089
 20
-65.94545709810052
 30
0.0
 10
1555.431561084909
 20
-68.17545709810054
 30
0.0
 10
1553.233261084909
 20
-68.16545709810052
 30
0.0
 10
1553.233261084909
 20
-68.16545709810052
 30
0.0
 10
1555.436961084909
 20
-68.17665709810052
 30
0.0
 10
1557.044961084909
 20
-69.97985709810052
 30
0.0
 10
1557.0989610849088
 20
-72.03935709810054
 30
0.0
 10
1557.0989610849088
 20
-72.03935709810054
 30
0.0
 10
1557.0985610849089
 20
-73.82405709810052
 30
0.0
 10
1557.0985610849089
 20
-75.60875709810054
 30
0.0
 10
1557.0989610849088
 20
-77.39385709810054
 30
0.0
 10
1557.0989610849088
 20
-77.39385709810054
 30
0.0
 10
1557.1090610849087
 20
-79.45525709810053
 30
0.0
 10
1555.0541610849089
 20
-81.21835709810054
 30
0.0
 10
1553.233261084909
 20
-81.21025709810053
 30
0.0
 10
1553.233261084909
 20
-81.21025709810053
 30
0.0
 10
1551.1679610849087
 20
-81.20995709810052
 30
0.0
 10
1549.1027610849087
 20
-81.20995709810052
 30
0.0
 10
1547.0371610849088
 20
-81.21025709810053
 30
0.0
 10
1547.0371610849088
 20
-81.21025709810053
 30
0.0
 10
1544.8685610849088
 20
-81.19875709810051
 30
0.0
 10
1542.3375610849089
 20
-78.79855709810053
 30
0.0
 10
1542.3189610849088
 20
-77.33675709810052
 30
0.0
 10
1542.3189610849088
 20
-77.33675709810052
 30
0.0
 10
1542.3189610849088
 20
-77.33675709810052
 30
0.0
 10
1542.3189610849088
 20
-75.42815709810054
 30
0.0
 10
1542.3189610849088
 20
-75.42815709810054
 30
0.0
  0
SPLINE
  5
4A
330
17
100
AcDbEntity
  8
2_layer 1
 62
250
370
9
100
AcDbSpline
 70
24
 71
3
 72
8
 73
4
 74
0
 42
1e-09
 40
0.0
 40
0.0
 40
0.0
 40
0.0
 40
1.0
 40
1.0
 40
1.0
 40
1.0
 10
1547.0541610849089
 20
-68.17585709810052
 30
0.0
 10
1547.0541610849089
 20
-68.17585709810052
 30
0.0
 10
1553.250561084909
 20
-68.17585709810052
 30
0.0
 10
1553.250561084909
 20
-68.17585709810052
 30
0.0
  0
SPLINE
  5
4B
330
17
100
AcDbEntity
  8
2_layer 1
 62
250
370
9
100
AcDbSpline
 70
11
 71
3
 72
36
 73
32
 74
0
 42
1e-09
 40
0.0
 40
0.0
 40
0.0
 40
0.0
 40
0.1111111111111111
 40
0.1111111111111111
 40
0.1111111111111111
 40
0.1111111111111111
 40
0.2222222222222222
 40
0.2222222222222222
 40
0.2222222222222222
 40
0.2222222222222222
 40
0.3333333333333333
 40
0.3333333333333333
 40
0.3333333333333333
 40
0.3333333333333333
 40
0.4444444444444444
 40
0.4444444444444444
 40
0.4444444444444444
 40
0.4444444444444444
 40
0.5555555555555556
 40
0.5555555555555556
 40
0.5555555555555556
 40
0.5555555555555556
 40
0.6666666666666666
 40
0.6666666666666666
 40
0.6666666666666666
 40
0.6666666666666666
 40
0.7777777777777778
 40
0.7777777777777778
 40
0.7777777777777778
 40
0.7777777777777778
 40
1.0
 40
1.0
 40
1.0
 40
1.0
 10
1586.1283610849089
 20
-56.223857098100524
 30
0.0
 10
1588.4944610849088
 20
-56.223857098100524
 30
0.0
 10
1590.860961084909
 20
-56.223857098100524
 30
0.0
 10
1593.2274610849088
 20
-56.223857098100524
 30
0.0
 10
1593.2274610849088
 20
-56.223857098100524
 30
0.0
 10
1595.207961084909
 20
-56.188257098100536
 30
0.0
 10
1597.233961084909
 20
-57.68255709810052
 30
0.0
 10
1597.2610610849088
 20
-60.12465709810053
 30
0.0
 10
1597.2610610849088
 20
-60.12465709810053
 30
0.0
 10
1597.2606610849089
 20
-65.88205709810052
 30
0.0
 10
1597.2606610849089
 20
-71.63985709810052
 30
0.0
 10
1597.2610610849088
 20
-77.39805709810054
 30
0.0
 10
1597.2610610849088
 20
-77.39805709810054
 30
0.0
 10
1597.1189610849087
 20
-79.72565709810053
 30
0.0
 10
1595.4125610849087
 20
-81.20795709810054
 30
0.0
 10
1593.2274610849088
 20
-81.21875709810053
 30
0.0
 10
1593.2274610849088
 20
-81.21875709810053
 30
0.0
 10
1590.8550610849088
 20
-81.21835709810054
 30
0.0
 10
1588.4826610849088
 20
-81.21835709810054
 30
0.0
 10
1586.1106610849088
 20
-81.21875709810053
 30
0.0
 10
1586.1106610849088
 20
-81.21875709810053
 30
0.0
 10
1584.1521610849088
 20
-81.32435709810053
 30
0.0
 10
1582.1457610849088
 20
-79.43645709810053
 30
0.0
 10
1582.1571610849087
 20
-77.41545709810052
 30
0.0
 10
1582.1571610849087
 20
-77.41545709810052
 30
0.0
 10
1582.1575610849088
 20
-71.63485709810053
 30
0.0
 10
1582.1575610849088
 20
-65.85455709810051
 30
0.0
 10
1582.1571610849087
 20
-60.07475709810052
 30
0.0
 10
1582.1571610849087
 20
-60.07475709810052
 30
0.0
 10
1582.1614610849088
 20
-57.932757098100524
 30
0.0
 10
1583.9385610849088
 20
-56.21025709810053
 30
0.0
 10
1586.1283610849089
 20
-56.223857098100524
 30
0.0
  0
SPLINE
  5
4C
330
17
100
AcDbEntity
  8
2_layer 1
 62
250
370
9
100
AcDbSpline
 70
11
 71
3
 72
36
 73
32
 74
0
 42
1e-09
 40
0.0
 40
0.0
 40
0.0
 40
0.0
 40
0.1111111111111111
 40
0.1111111111111111
 40
0.1111111111111111
 40
0.1111111111111111
 40
0.2222222222222222
 40
0.2222222222222222
 40
0.2222222222222222
 40
0.2222222222222222
 40
0.3333333333333333
 40
0.3333333333333333
 40
0.3333333333333333
 40
0.3333333333333333
 40
0.4444444444444444
 40
0.4444444444444444
 40
0.4444444444444444
 40
0.4444444444444444
 40
0.5555555555555556
 40
0.5555555555555556
 40
0.5555555555555556
 40
0.5555555555555556
 40
0.6666666666666666
 40
0.6666666666666666
 40
0.6666666666666666
 40
0.6666666666666666
 40
0.7777777777777778
 40
0.7777777777777778
 40
0.7777777777777778
 40
0.7777777777777778
 40
1.0
 40
1.0
 40
1.0
 40
1.0
 10
1566.1283610849089
 20
-56.223857098100524
 30
0.0
 10
1568.4944610849088
 20
-56.223857098100524
 30
0.0
 10
1570.860961084909
 20
-56.223857098100524
 30
0.0
 10
1573.2274610849088
 20
-56.223857098100524
 30
0.0
 10
1573.2274610849088
 20
-56.223857098100524
 30
0.0
 10
1575.207961084909
 20
-56.188257098100536
 30
0.0
 10
1577.233961084909
 20
-57.68255709810052
 30
0.0
 10
1577.2610610849088
 20
-60.12465709810053
 30
0.0
 10
1577.2610610849088
 20
-60.12465709810053
 30
0.0
 10
1577.2606610849089
 20
-65.88205709810052
 30
0.0
 10
1577.2606610849089
 20
-71.63985709810052
 30
0.0
 10
1577.2610610849088
 20
-77.39805709810054
 30
0.0
 10
1577.2610610849088
 20
-77.39805709810054
 30
0.0
 10
1577.1189610849087
 20
-79.72565709810053
 30
0.0
 10
1575.4125610849087
 20
-81.20795709810054
 30
0.0
 10
1573.2274610849088
 20
-81.21875709810053
 30
0.0
 10
1573.2274610849088
 20
-81.21875709810053
 30
0.0
 10
1570.8550610849088
 20
-81.21835709810054
 30
0.0
 10
1568.4826610849088
 20
-81.21835709810054
 30
0.0
 10
1566.1106610849088
 20
-81.21875709810053
 30
0.0
 10
1566.1106610849088
 20
-81.21875709810053
 30
0.0
 10
1564.1521610849088
 20
-81.32435709810053
 30
0.0
 10
1562.1457610849088
 20
-79.43645709810053
 30
0.0
 10
1562.1571610849087
 20
-77.41545709810052
 30
0.0
 10
1562.1571610849087
 20
-77.41545709810052
 30
0.0
 10
1562.1575610849088
 20
-71.63485709810053
 30
0.0
 10
1562.1575610849088
 20
-65.85455709810051
 30
0.0
 10
1562.1571610849087
 20
-60.07475709810052
 30
0.0
 10
1562.1571610849087
 20
-60.07475709810052
 30
0.0
 10
1562.1614610849088
 20
-57.932757098100524
 30
0.0
 10
1563.9385610849088
 20
-56.21025709810053
 30
0.0
 10
1566.1283610849089
 20
-56.223857098100524
 30
0.0
  0
SPLINE
  5
4D
330
17
100
AcDbEntity
  8
2_layer 2
 62
142
370
158
100
AcDbSpline
 70
8
 71
3
 72
16
 73
12
 74
0
 42
1e-09
 40
0.0
 40
0.0
 40
0.0
 40
0.0
 40
0.25
 40
0.25
 40
0.25
 40
0.25
 40
0.5
 40
0.5
 40
0.5
 40
0.5
 40
1.0
 40
1.0
 40
1.0
 40
1.0
 10
1357.4532610849087
 20
609.5727429018996
 30
0.0
 10
1363.0860610849088
 20
565.9771429018995
 30
0.0
 10
1369.2407610849089
 20
522.1433429018996
 30
0.0
 10
1374.4280610849087
 20
478.5319429018995
 30
0.0
 10
1374.4280610849087
 20
478.5319429018995
 30
0.0
 10
1382.2772610849088
 20
412.5429429018995
 30
0.0
 10
1365.6050610849088
 20
215.08624290189948
 30
0.0
 10
1358.9255610849088
 20
142.19934290189946
 30
0.0
 10
1358.9255610849088
 20
142.19934290189946
 30
0.0
 10
1352.223161084909
 20
69.06394290189945
 30
0.0
 10
1345.024661084909
 20
-4.024757098100508
 30
0.0
 10
1337.881661084909
 20
-77.11815709810054
 30
0.0
  0
SPLINE
  5
4E
330
17
100
AcDbEntity
  8
2_layer 2
 62
142
370
158
100
AcDbSpline
 70
8
 71
3
 72
60
 73
56
 74
0
 42
1e-09
 40
0.0
 40
0.0
 40
0.0
 40
0.0
 40
0.0666666666666667
 40
0.0666666666666667
 40
0.0666666666666667
 40
0.0666666666666667
 40
0.1333333333333333
 40
0.1333333333333333
 40
0.1333333333333333
 40
0.1333333333333333
 40
0.2
 40
0.2
 40
0.2
 40
0.2
 40
0.2666666666666667
 40
0.2666666666666667
 40
0.2666666666666667
 40
0.2666666666666667
 40
0.3333333333333333
 40
0.3333333333333333
 40
0.3333333333333333
 40
0.3333333333333333
 40
0.4
 40
0.4
 40
0.4
 40
0.4
 40
0.4666666666666667
 40
0.4666666666666667
 40
0.4666666666666667
 40
0.4666666666666667
 40
0.5333333333333333
 40
0.5333333333333333
 40
0.5333333333333333
 40
0.5333333333333333
 40
0.6
 40
0.6
 40
0.6
 40
0.6
 40
0.6666666666666666
 40
0.6666666666666666
 40
0.6666666666666666
 40
0.6666666666666666
 40
0.7333333333333333
 40
0.7333333333333333
 40
0.7333333333333333
 40
0.7333333333333333
 40
0.8
 40
0.8
 40
0.8
 40
0.8
 40
0.8666666666666667
 40
0.8666666666666667
 40
0.8666666666666667
 40
0.8666666666666667
 40
1.0
 40
1.0
 40
1.0
 40
1.0
 10
1349.7072610849089
 20
-113.37585709810054
 30
0.0
 10
1484.4194610849088
 20
-115.91315709810053
 30
0.0
 10
1621.4291610849089
 20
-119.12405709810054
 30
0.0
 10
1756.0905610849088
 20
-115.71065709810054
 30
0.0
 10
1756.0905610849088
 20
-115.71065709810054
 30
0.0
 10
1791.6178610849088
 20
-114.81005709810051
 30
0.0
 10
1795.3279610849088
 20
-106.29285709810054
 30
0.0
 10
1778.0245610849088
 20
-74.60015709810054
 30
0.0
 10
1778.0245610849088
 20
-74.60015709810054
 30
0.0
 10
1768.6858610849088
 20
-57.49535709810053
 30
0.0
 10
1756.0461610849088
 20
-37.751857098100515
 30
0.0
 10
1751.292161084909
 20
-18.979557098100543
 30
0.0
 10
1751.292161084909
 20
-18.979557098100543
 30
0.0
 10
1745.135261084909
 20
5.3328429018994825
 30
0.0
 10
1741.8468610849088
 20
44.86354290189945
 30
0.0
 10
1743.8867610849088
 20
69.95284290189949
 30
0.0
 10
1743.8867610849088
 20
69.95284290189949
 30
0.0
 10
1747.5423610849089
 20
111.95284290189949
 30
0.0
 10
1763.2274610849088
 20
153.24804290189945
 30
0.0
 10
1770.3428610849087
 20
194.71884290189945
 30
0.0
 10
1770.3428610849087
 20
194.71884290189945
 30
0.0
 10
1774.2860610849089
 20
217.7012429018995
 30
0.0
 10
1771.764061084909
 20
231.78824290189948
 30
0.0
 10
1769.1220610849089
 20
254.45834290189953
 30
0.0
 10
1769.1220610849089
 20
254.45834290189953
 30
0.0
 10
1764.5472610849088
 20
293.71314290189946
 30
0.0
 10
1761.4684610849088
 20
335.88614290189946
 30
0.0
 10
1759.8594610849088
 20
375.3943429018995
 30
0.0
 10
1759.8594610849088
 20
375.3943429018995
 30
0.0
 10
1758.5915610849088
 20
406.5269429018994
 30
0.0
 10
1758.802961084909
 20
435.9423429018995
 30
0.0
 10
1759.4254610849089
 20
467.04214290189947
 30
0.0
 10
1759.4254610849089
 20
467.04214290189947
 30
0.0
 10
1760.289461084909
 20
510.21304290189954
 30
0.0
 10
1760.1279610849087
 20
527.1000429018995
 30
0.0
 10
1729.637261084909
 20
560.3967429018994
 30
0.0
 10
1729.637261084909
 20
560.3967429018994
 30
0.0
 10
1708.1130610849088
 20
583.9016429018995
 30
0.0
 10
1699.202461084909
 20
585.0218429018996
 30
0.0
 10
1668.098361084909
 20
587.0735429018996
 30
0.0
 10
1668.098361084909
 20
587.0735429018996
 30
0.0
 10
1640.2866610849087
 20
588.9081429018995
 30
0.0
 10
1610.2139610849088
 20
587.7369429018995
 30
0.0
 10
1582.117261084909
 20
587.6879429018995
 30
0.0
 10
1582.117261084909
 20
587.6879429018995
 30
0.0
 10
1558.3214610849088
 20
587.6464429018995
 30
0.0
 10
1468.7834610849088
 20
587.9142429018996
 30
0.0
 10
1454.3702610849089
 20
570.4694429018996
 30
0.0
 10
1454.3702610849089
 20
570.4694429018996
 30
0.0
 10
1447.104661084909
 20
561.6755429018995
 30
0.0
 10
1439.801861084909
 20
540.1302429018995
 30
0.0
 10
1433.4356610849088
 20
528.4950429018995
 30
0.0
 10
1433.4356610849088
 20
528.4950429018995
 30
0.0
 10
1417.938761084909
 20
500.1720429018994
 30
0.0
 10
1399.7385610849087
 20
488.08564290189946
 30
0.0
 10
1375.4482610849088
 20
468.4916429018994
 30
0.0
  0
SPLINE
  5
4F
330
17
100
AcDbEntity
  8
2_layer 3
 62
242
370
158
100
AcDbSpline
 70
11
 71
3
 72
188
 73
184
 74
0
 42
1e-09
 40
0.0
 40
0.0
 40
0.0
 40
0.0
 40
0.0212765957446809
 40
0.0212765957446809
 40
0.0212765957446809
 40
0.0212765957446809
 40
0.0425531914893617
 40
0.0425531914893617
 40
0.0425531914893617
 40
0.0425531914893617
 40
0.0638297872340425
 40
0.0638297872340425
 40
0.0638297872340425
 40
0.0638297872340425
 40
0.0851063829787234
 40
0.0851063829787234
 40
0.0851063829787234
 40
0.0851063829787234
 40
0.1063829787234043
 40
0.1063829787234043
 40
0.1063829787234043
 40
0.1063829787234043
 40
0.1276595744680851
 40
0.1276595744680851
 40
0.1276595744680851
 40
0.1276595744680851
 40
0.148936170212766
 40
0.148936170212766
 40
0.148936170212766
 40
0.148936170212766
 40
0.1702127659574468
 40
0.1702127659574468
 40
0.1702127659574468
 40
0.1702127659574468
 40
0.1914893617021277
 40
0.1914893617021277
 40
0.1914893617021277
 40
0.1914893617021277
 40
0.2127659574468085
 40
0.2127659574468085
 40
0.2127659574468085
 40
0.2127659574468085
 40
0.2340425531914894
 40
0.2340425531914894
 40
0.2340425531914894
 40
0.2340425531914894
 40
0.2553191489361702
 40
0.2553191489361702
 40
0.2553191489361702
 40
0.2553191489361702
 40
0.2765957446808511
 40
0.2765957446808511
 40
0.2765957446808511
 40
0.2765957446808511
 40
0.2978723404255319
 40
0.2978723404255319
 40
0.2978723404255319
 40
0.2978723404255319
 40
0.3191489361702128
 40
0.3191489361702128
 40
0.3191489361702128
 40
0.3191489361702128
 40
0.3404255319148936
 40
0.3404255319148936
 40
0.3404255319148936
 40
0.3404255319148936
 40
0.3617021276595745
 40
0.3617021276595745
 40
0.3617021276595745
 40
0.3617021276595745
 40
0.3829787234042553
 40
0.3829787234042553
 40
0.3829787234042553
 40
0.3829787234042553
 40
0.4042553191489361
 40
0.4042553191489361
 40
0.4042553191489361
 40
0.4042553191489361
 40
0.425531914893617
 40
0.425531914893617
 40
0.425531914893617
 40
0.425531914893617
 40
0.4468085106382979
 40
0.4468085106382979
 40
0.4468085106382979
 40
0.4468085106382979
 40
0.4680851063829787
 40
0.4680851063829787
 40
0.4680851063829787
 40
0.4680851063829787
 40
0.4893617021276596
 40
0.4893617021276596
 40
0.4893617021276596
 40
0.4893617021276596
 40
0.5106382978723404
 40
0.5106382978723404
 40
0.5106382978723404
 40
0.5106382978723404
 40
0.5319148936170213
 40
0.5319148936170213
 40
0.5319148936170213
 40
0.5319148936170213
 40
0.5531914893617021
 40
0.5531914893617021
 40
0.5531914893617021
 40
0.5531914893617021
 40
0.574468085106383
 40
0.574468085106383
 40
0.574468085106383
 40
0.574468085106383
 40
0.5957446808510638
 40
0.5957446808510638
 40
0.5957446808510638
 40
0.5957446808510638
 40
0.6170212765957447
 40
0.6170212765957447
 40
0.6170212765957447
 40
0.6170212765957447
 40
0.6382978723404256
 40
0.6382978723404256
 40
0.6382978723404256
 40
0.6382978723404256
 40
0.6595744680851063
 40
0.6595744680851063
 40
0.6595744680851063
 40
0.6595744680851063
 40
0.6808510638297872
 40
0.6808510638297872
 40
0.6808510638297872
 40
0.6808510638297872
 40
0.7021276595744681
 40
0.7021276595744681
 40
0.7021276595744681
 40
0.7021276595744681
 40
0.723404255319149
 40
0.723404255319149
 40
0.723404255319149
 40
0.723404255319149
 40
0.7446808510638298
 40
0.7446808510638298
 40
0.7446808510638298
 40
0.7446808510638298
 40
0.7659574468085106
 40
0.7659574468085106
 40
0.7659574468085106
 40
0.7659574468085106
 40
0.7872340425531915
 40
0.7872340425531915
 40
0.7872340425531915
 40
0.7872340425531915
 40
0.8085106382978723
 40
0.8085106382978723
 40
0.8085106382978723
 40
0.8085106382978723
 40
0.8297872340425532
 40
0.8297872340425532
 40
0.8297872340425532
 40
0.8297872340425532
 40
0.851063829787234
 40
0.851063829787234
 40
0.851063829787234
 40
0.851063829787234
 40
0.8723404255319149
 40
0.8723404255319149
 40
0.8723404255319149
 40
0.8723404255319149
 40
0.8936170212765957
 40
0.8936170212765957
 40
0.8936170212765957
 40
0.8936170212765957
 40
0.9148936170212766
 40
0.9148936170212766
 40
0.9148936170212766
 40
0.9148936170212766
 40
0.9361702127659575
 40
0.9361702127659575
 40
0.9361702127659575
 40
0.9361702127659575
 40
0.9574468085106383
 40
0.9574468085106383
 40
0.9574468085106383
 40
0.9574468085106383
 40
1.0
 40
1.0
 40
1.0
 40
1.0
 10
1528.541061084909
 20
642.8687429018996
 30
0.0
 10
1517.7134610849089
 20
644.3061429018994
 30
0.0
 10
1511.298561084909
 20
645.7388429018995
 30
0.0
 10
1500.246861084909
 20
644.8067429018995
 30
0.0
 10
1500.246861084909
 20
644.8067429018995
 30
0.0
 10
1496.233261084909
 20
644.4239429018996
 30
0.0
 10
1492.2125610849089
 20
643.9608429018995
 30
0.0
 10
1488.2019610849088
 20
643.5340429018995
 30
0.0
 10
1488.2019610849088
 20
643.5340429018995
 30
0.0
 10
1456.2484610849087
 20
640.1474429018995
 30
0.0
 10
1370.4941610849087
 20
631.0620429018995
 30
0.0
 10
1352.2734610849088
 20
603.7337429018996
 30
0.0
 10
1352.2734610849088
 20
603.7337429018996
 30
0.0
 10
1341.4952610849089
 20
587.5681429018996
 30
0.0
 10
1328.0178610849089
 20
549.1346429018995
 30
0.0
 10
1320.589861084909
 20
529.4921429018996
 30
0.0
 10
1320.589861084909
 20
529.4921429018996
 30
0.0
 10
1317.4766610849088
 20
521.2595429018995
 30
0.0
 10
1305.9499610849089
 20
488.89504290189956
 30
0.0
 10
1306.0089610849088
 20
482.05844290189947
 30
0.0
 10
1306.0089610849088
 20
482.05844290189947
 30
0.0
 10
1308.2307610849089
 20
478.2400429018996
 30
0.0
 10
1316.7156610849088
 20
477.4762429018994
 30
0.0
 10
1320.8359610849088
 20
476.7814429018994
 30
0.0
 10
1320.8359610849088
 20
476.7814429018994
 30
0.0
 10
1328.606261084909
 20
475.45254290189945
 30
0.0
 10
1359.2872610849088
 20
474.4142429018995
 30
0.0
 10
1363.8280610849088
 20
471.2630429018995
 30
0.0
 10
1363.8280610849088
 20
471.2630429018995
 30
0.0
 10
1370.9454610849089
 20
466.32354290189954
 30
0.0
 10
1365.8352610849088
 20
460.2476429018995
 30
0.0
 10
1362.1592610849088
 20
459.3283429018995
 30
0.0
 10
1362.1592610849088
 20
459.3283429018995
 30
0.0
 10
1351.697061084909
 20
456.8192429018995
 30
0.0
 10
1308.1974610849088
 20
451.81454290189953
 30
0.0
 10
1303.0343610849088
 20
447.4446429018994
 30
0.0
 10
1303.0343610849088
 20
447.4446429018994
 30
0.0
 10
1300.108261084909
 20
444.96794290189945
 30
0.0
 10
1299.1099610849087
 20
423.9559429018995
 30
0.0
 10
1297.3817610849087
 20
403.50864290189946
 30
0.0
 10
1297.3817610849087
 20
403.50864290189946
 30
0.0
 10
1295.8943610849087
 20
385.9093429018994
 30
0.0
 10
1293.3858610849088
 20
368.72784290189946
 30
0.0
 10
1294.2273610849088
 20
364.14424290189953
 30
0.0
 10
1294.2273610849088
 20
364.14424290189953
 30
0.0
 10
1294.2273610849088
 20
364.14424290189953
 30
0.0
 10
1294.300261084909
 20
363.7471429018994
 30
0.0
 10
1294.300261084909
 20
363.7471429018994
 30
0.0
 10
1294.300261084909
 20
363.7471429018994
 30
0.0
 10
1297.5087610849089
 20
357.2161429018995
 30
0.0
 10
1340.278461084909
 20
355.4458429018995
 30
0.0
 10
1349.2011610849088
 20
354.0527429018995
 30
0.0
 10
1349.2011610849088
 20
354.0527429018995
 30
0.0
 10
1353.9730610849087
 20
353.27474290189946
 30
0.0
 10
1362.064461084909
 20
349.9810429018995
 30
0.0
 10
1361.008661084909
 20
343.33044290189946
 30
0.0
 10
1361.008661084909
 20
343.33044290189946
 30
0.0
 10
1355.3952610849087
 20
330.3018429018995
 30
0.0
 10
1298.9177610849088
 20
320.32774290189946
 30
0.0
 10
1299.6183610849089
 20
308.86574290189947
 30
0.0
 10
1299.6183610849089
 20
308.86574290189947
 30
0.0
 10
1300.0769610849088
 20
301.3616429018995
 30
0.0
 10
1322.627161084909
 20
278.9349429018995
 30
0.0
 10
1328.3426610849087
 20
271.2626429018994
 30
0.0
 10
1328.3426610849087
 20
271.2626429018994
 30
0.0
 10
1335.6827610849089
 20
260.3140429018995
 30
0.0
 10
1343.284061084909
 20
243.50184290189952
 30
0.0
 10
1345.4282610849089
 20
230.32644290189944
 30
0.0
 10
1345.4282610849089
 20
230.32644290189944
 30
0.0
 10
1349.973161084909
 20
199.04394290189947
 30
0.0
 10
1344.9982610849088
 20
157.64654290189947
 30
0.0
 10
1342.294061084909
 20
125.8085429018995
 30
0.0
 10
1342.294061084909
 20
125.8085429018995
 30
0.0
 10
1339.5948610849089
 20
93.7775429018995
 30
0.0
 10
1336.8243610849088
 20
61.758942901899445
 30
0.0
 10
1334.4501610849088
 20
29.70124290189949
 30
0.0
 10
1334.4501610849088
 20
29.70124290189949
 30
0.0
 10
1333.7571610849088
 20
20.261242901899493
 30
0.0
 10
1333.1875610849088
 20
10.854942901899449
 30
0.0
 10
1332.8277610849088
 20
1.395642901899464
 30
0.0
 10
1332.8277610849088
 20
1.395642901899464
 30
0.0
 10
1331.984161084909
 20
-21.73295709810054
 30
0.0
 10
1337.1772610849089
 20
-46.61565709810054
 30
0.0
 10
1337.7421610849087
 20
-70.35945709810053
 30
0.0
 10
1337.7421610849087
 20
-70.35945709810053
 30
0.0
 10
1337.950461084909
 20
-79.11405709810052
 30
0.0
 10
1337.8840610849088
 20
-94.26225709810052
 30
0.0
 10
1341.0388610849088
 20
-102.18985709810053
 30
0.0
 10
1341.0388610849088
 20
-102.18985709810053
 30
0.0
 10
1341.0388610849088
 20
-102.18985709810053
 30
0.0
 10
1342.739361084909
 20
-105.75825709810053
 30
0.0
 10
1342.739361084909
 20
-105.75825709810053
 30
0.0
 10
1342.739361084909
 20
-105.75825709810053
 30
0.0
 10
1353.0096610849089
 20
-118.49935709810052
 30
0.0
 10
1361.3610610849087
 20
-121.15185709810052
 30
0.0
 10
1371.228561084909
 20
-137.28315709810053
 30
0.0
 10
1371.228561084909
 20
-137.28315709810053
 30
0.0
 10
1377.8675610849089
 20
-148.13635709810052
 30
0.0
 10
1382.3514610849088
 20
-151.14905709810054
 30
0.0
 10
1389.144461084909
 20
-151.31095709810052
 30
0.0
 10
1389.144461084909
 20
-151.31095709810052
 30
0.0
 10
1506.074861084909
 20
-154.09715709810052
 30
0.0
 10
1668.5661610849088
 20
-148.01025709810054
 30
0.0
 10
1786.242961084909
 20
-148.13465709810052
 30
0.0
 10
1786.242961084909
 20
-148.13465709810052
 30
0.0
 10
1806.4231610849088
 20
-148.15595709810052
 30
0.0
 10
1833.0415610849088
 20
-145.22365709810052
 30
0.0
 10
1840.2990610849088
 20
-122.74455709810053
 30
0.0
 10
1840.2990610849088
 20
-122.74455709810053
 30
0.0
 10
1844.9986610849087
 20
-106.47105709810052
 30
0.0
 10
1845.0776610849089
 20
-89.00235709810053
 30
0.0
 10
1844.7772610849088
 20
-72.23295709810054
 30
0.0
 10
1844.7772610849088
 20
-72.23295709810054
 30
0.0
 10
1844.4602610849088
 20
-54.530657098100534
 30
0.0
 10
1842.075761084909
 20
-15.861657098100522
 30
0.0
 10
1848.0271610849088
 20
-0.3434570981005436
 30
0.0
 10
1848.0271610849088
 20
-0.3434570981005436
 30
0.0
 10
1853.330161084909
 20
13.483742901899461
 30
0.0
 10
1857.887261084909
 20
11.281542901899456
 30
0.0
 10
1866.884561084909
 20
19.511342901899468
 30
0.0
 10
1866.884561084909
 20
19.511342901899468
 30
0.0
 10
1875.1601610849089
 20
27.080942901899448
 30
0.0
 10
1868.257761084909
 20
272.5217429018994
 30
0.0
 10
1868.3820610849089
 20
303.50254290189946
 30
0.0
 10
1868.3820610849089
 20
303.50254290189946
 30
0.0
 10
1868.4100610849089
 20
310.24674290189944
 30
0.0
 10
1871.2125610849089
 20
334.9329429018994
 30
0.0
 10
1864.4802610849088
 20
337.90334290189946
 30
0.0
 10
1864.4802610849088
 20
337.90334290189946
 30
0.0
 10
1856.0733610849088
 20
340.2854429018995
 30
0.0
 10
1814.351961084909
 20
341.0654429018995
 30
0.0
 10
1803.436261084909
 20
341.41384290189944
 30
0.0
 10
1803.436261084909
 20
341.41384290189944
 30
0.0
 10
1794.5442610849088
 20
341.6976429018995
 30
0.0
 10
1770.6340610849088
 20
340.41984290189953
 30
0.0
 10
1766.6809610849089
 20
350.1934429018995
 30
0.0
 10
1766.6809610849089
 20
350.1934429018995
 30
0.0
 10
1763.6124610849088
 20
357.7799429018995
 30
0.0
 10
1779.8097610849088
 20
362.1797429018995
 30
0.0
 10
1785.150561084909
 20
364.1878429018995
 30
0.0
 10
1785.150561084909
 20
364.1878429018995
 30
0.0
 10
1806.0946610849087
 20
372.0627429018995
 30
0.0
 10
1827.3561610849088
 20
378.5625429018996
 30
0.0
 10
1848.2861610849088
 20
386.32334290189937
 30
0.0
 10
1848.2861610849088
 20
386.32334290189937
 30
0.0
 10
1866.688761084909
 20
393.29454290189955
 30
0.0
 10
1860.6611610849088
 20
398.0018429018996
 30
0.0
 10
1855.9523610849087
 20
414.5328429018995
 30
0.0
 10
1855.9523610849087
 20
414.5328429018995
 30
0.0
 10
1844.776661084909
 20
453.7662429018994
 30
0.0
 10
1835.4889610849089
 20
497.55704290189937
 30
0.0
 10
1826.573661084909
 20
537.4934429018995
 30
0.0
 10
1826.573661084909
 20
537.4934429018995
 30
0.0
 10
1825.625161084909
 20
541.7650429018995
 30
0.0
 10
1823.7464610849088
 20
553.9408429018995
 30
0.0
 10
1817.6070610849088
 20
552.9420429018996
 30
0.0
 10
1817.6070610849088
 20
552.9420429018996
 30
0.0
 10
1808.903661084909
 20
550.1121429018995
 30
0.0
 10
1772.228561084909
 20
521.7505429018995
 30
0.0
 10
1766.963961084909
 20
529.0702429018995
 30
0.0
 10
1766.963961084909
 20
529.0702429018995
 30
0.0
 10
1761.8486610849088
 20
536.1825429018995
 30
0.0
 10
1776.431361084909
 20
548.7236429018994
 30
0.0
 10
1781.1058610849088
 20
553.5072429018994
 30
0.0
 10
1781.1058610849088
 20
553.5072429018994
 30
0.0
 10
1788.4772610849088
 20
561.0508429018996
 30
0.0
 10
1798.2246610849088
 20
570.7096429018995
 30
0.0
 10
1803.3035610849088
 20
579.8733429018996
 30
0.0
 10
1803.3035610849088
 20
579.8733429018996
 30
0.0
 10
1804.7173610849088
 20
590.3794429018994
 30
0.0
 10
1779.564661084909
 20
636.7567429018995
 30
0.0
 10
1770.2463610849088
 20
640.5899429018996
 30
0.0
 10
1770.2463610849088
 20
640.5899429018996
 30
0.0
 10
1761.1106610849088
 20
644.3480429018996
 30
0.0
 10
1715.6422610849088
 20
644.8528429018995
 30
0.0
 10
1703.2723610849089
 20
644.7465429018996
 30
0.0
 10
1703.2723610849089
 20
644.7465429018996
 30
0.0
 10
1651.7707610849088
 20
644.0760429018994
 30
0.0
 10
1597.0537610849087
 20
637.5808429018996
 30
0.0
 10
1546.0764610849087
 20
641.1275429018995
 30
0.0
 10
1546.0764610849087
 20
641.1275429018995
 30
0.0
 10
1540.1849610849088
 20
641.5374429018996
 30
0.0
 10
1534.3976610849088
 20
642.1103429018995
 30
0.0
 10
1528.541061084909
 20
642.8687429018996
 30
0.0
  0
SPLINE
  5
50
330
17
100
AcDbEntity
  8
4_layer 1
 62
250
370
9
100
AcDbSpline
 70
24
 71
3
 72
8
 73
4
 74
0
 42
1e-09
 40
0.0
 40
0.0
 40
0.0
 40
0.0
 40
1.0
 40
1.0
 40
1.0
 40
1.0
 10
1649.3266406917605
 20
907.7443541962164
 30
0.0
 10
1649.3266406917605
 20
907.7443541962164
 30
0.0
 10
1661.6909406917607
 20
887.2000541962163
 30
0.0
 10
1661.6909406917607
 20
887.2000541962163
 30
0.0
  0
SPLINE
  5
51
330
17
100
AcDbEntity
  8
4_layer 1
 62
250
370
9
100
AcDbSpline
 70
24
 71
3
 72
8
 73
4
 74
0
 42
1e-09
 40
0.0
 40
0.0
 40
0.0
 40
0.0
 40
1.0
 40
1.0
 40
1.0
 40
1.0
 10
1631.5967406917607
 20
907.7443541962164
 30
0.0
 10
1631.5967406917607
 20
907.7443541962164
 30
0.0
 10
1643.9610406917604
 20
887.2000541962163
 30
0.0
 10
1643.9610406917604
 20
887.2000541962163
 30
0.0
  0
SPLINE
  5
52
330
17
100
AcDbEntity
  8
4_layer 1
 62
250
370
9
100
AcDbSpline
 70
8
 71
3
 72
32
 73
28
 74
0
 42
1e-09
 40
0.0
 40
0.0
 40
0.0
 40
0.0
 40
0.125
 40
0.125
 40
0.125
 40
0.125
 40
0.25
 40
0.25
 40
0.25
 40
0.25
 40
0.375
 40
0.375
 40
0.375
 40
0.375
 40
0.5
 40
0.5
 40
0.5
 40
0.5
 40
0.625
 40
0.625
 40
0.625
 40
0.625
 40
0.75
 40
0.75
 40
0.75
 40
0.75
 40
1.0
 40
1.0
 40
1.0
 40
1.0
 10
1078.6163406917606
 20
703.8576541962163
 30
0.0
 10
1078.4911406917604
 20
701.7766541962163
 30
0.0
 10
1076.9889406917605
 20
700.4514541962163
 30
0.0
 10
1075.0652406917607
 20
700.4417541962163
 30
0.0
 10
1075.0652406917607
 20
700.4417541962163
 30
0.0
 10
1072.9766406917606
 20
700.4420541962163
 30
0.0
 10
1070.8880406917606
 20
700.4420541962163
 30
0.0
 10
1068.7997406917607
 20
700.4417541962163
 30
0.0
 10
1068.7997406917607
 20
700.4417541962163
 30
0.0
 10
1067.0755406917606
 20
700.3473541962163
 30
0.0
 10
1065.3091406917606
 20
702.0352541962163
 30
0.0
 10
1065.3191406917606
 20
703.8420541962163
 30
0.0
 10
1065.3191406917606
 20
703.8420541962163
 30
0.0
 10
1065.3195406917607
 20
709.0102541962164
 30
0.0
 10
1065.3195406917607
 20
714.1779541962163
 30
0.0
 10
1065.3191406917606
 20
719.3453541962164
 30
0.0
 10
1065.3191406917606
 20
719.3453541962164
 30
0.0
 10
1065.3229406917606
 20
721.2604541962163
 30
0.0
 10
1066.8874406917605
 20
722.8003541962163
 30
0.0
 10
1068.8153406917604
 20
722.7882541962163
 30
0.0
 10
1068.8153406917604
 20
722.7882541962163
 30
0.0
 10
1070.8983406917605
 20
722.7882541962163
 30
0.0
 10
1072.9818406917607
 20
722.7882541962163
 30
0.0
 10
1075.0652406917607
 20
722.7882541962163
 30
0.0
 10
1075.0652406917607
 20
722.7882541962163
 30
0.0
 10
1076.8087406917607
 20
722.8200541962163
 30
0.0
 10
1078.5924406917607
 20
721.4841541962163
 30
0.0
 10
1078.6163406917606
 20
719.3007541962163
 30
0.0
  0
SPLINE
  5
53
330
17
100
AcDbEntity
  8
4_layer 1
 62
250
370
9
100
AcDbSpline
 70
8
 71
3
 72
52
 73
48
 74
0
 42
1e-09
 40
0.0
 40
0.0
 40
0.0
 40
0.0
 40
0.0769230769230769
 40
0.0769230769230769
 40
0.0769230769230769
 40
0.0769230769230769
 40
0.1538461538461539
 40
0.1538461538461539
 40
0.1538461538461539
 40
0.1538461538461539
 40
0.2307692307692308
 40
0.2307692307692308
 40
0.2307692307692308
 40
0.2307692307692308
 40
0.3076923076923077
 40
0.3076923076923077
 40
0.3076923076923077
 40
0.3076923076923077
 40
0.3846153846153846
 40
0.3846153846153846
 40
0.3846153846153846
 40
0.3846153846153846
 40
0.4615384615384616
 40
0.4615384615384616
 40
0.4615384615384616
 40
0.4615384615384616
 40
0.5384615384615384
 40
0.5384615384615384
 40
0.5384615384615384
 40
0.5384615384615384
 40
0.6153846153846154
 40
0.6153846153846154
 40
0.6153846153846154
 40
0.6153846153846154
 40
0.6923076923076923
 40
0.6923076923076923
 40
0.6923076923076923
 40
0.6923076923076923
 40
0.7692307692307693
 40
0.7692307692307693
 40
0.7692307692307693
 40
0.7692307692307693
 40
0.8461538461538461
 40
0.8461538461538461
 40
0.8461538461538461
 40
0.8461538461538461
 40
1.0
 40
1.0
 40
1.0
 40
1.0
 10
1325.8210406917606
 20
707.0879541962163
 30
0.0
 10
1325.8210406917606
 20
707.0879541962163
 30
0.0
 10
1325.8210406917606
 20
708.9451541962163
 30
0.0
 10
1325.8210406917606
 20
708.9451541962163
 30
0.0
 10
1325.8210406917606
 20
708.9451541962163
 30
0.0
 10
1325.8067406917605
 20
710.6870541962163
 30
0.0
 10
1328.4712406917606
 20
712.8051541962163
 30
0.0
 10
1330.5303406917606
 20
712.7824541962163
 30
0.0
 10
1330.5303406917606
 20
712.7824541962163
 30
0.0
 10
1332.5944406917606
 20
712.7824541962163
 30
0.0
 10
1334.6584406917605
 20
712.7824541962163
 30
0.0
 10
1336.7221406917606
 20
712.7824541962163
 30
0.0
 10
1336.7221406917606
 20
712.7824541962163
 30
0.0
 10
1338.9166406917607
 20
712.7912541962163
 30
0.0
 10
1340.5149406917606
 20
710.9444541962163
 30
0.0
 10
1340.5593406917606
 20
709.0323541962163
 30
0.0
 10
1340.5593406917606
 20
709.0323541962163
 30
0.0
 10
1340.5589406917607
 20
707.5972541962163
 30
0.0
 10
1340.5589406917607
 20
706.1621541962163
 30
0.0
 10
1340.5593406917606
 20
704.7266541962163
 30
0.0
 10
1340.5593406917606
 20
704.7266541962163
 30
0.0
 10
1340.5107406917605
 20
703.0731541962164
 30
0.0
 10
1338.9081406917605
 20
700.8431541962163
 30
0.0
 10
1336.7098406917605
 20
700.8531541962163
 30
0.0
 10
1336.7098406917605
 20
700.8531541962163
 30
0.0
 10
1338.9135406917605
 20
700.8419541962163
 30
0.0
 10
1340.5215406917605
 20
699.0387541962164
 30
0.0
 10
1340.5755406917606
 20
696.9792541962163
 30
0.0
 10
1340.5755406917606
 20
696.9792541962163
 30
0.0
 10
1340.5751406917607
 20
695.1945541962164
 30
0.0
 10
1340.5751406917607
 20
693.4098541962163
 30
0.0
 10
1340.5755406917606
 20
691.6247541962163
 30
0.0
 10
1340.5755406917606
 20
691.6247541962163
 30
0.0
 10
1340.5856406917605
 20
689.5633541962163
 30
0.0
 10
1338.5307406917605
 20
687.8002541962163
 30
0.0
 10
1336.7098406917605
 20
687.8083541962163
 30
0.0
 10
1336.7098406917605
 20
687.8083541962163
 30
0.0
 10
1334.6445406917605
 20
687.8086541962164
 30
0.0
 10
1332.5793406917605
 20
687.8086541962164
 30
0.0
 10
1330.5137406917606
 20
687.8083541962163
 30
0.0
 10
1330.5137406917606
 20
687.8083541962163
 30
0.0
 10
1328.3451406917607
 20
687.8198541962163
 30
0.0
 10
1325.8141406917607
 20
690.2200541962163
 30
0.0
 10
1325.7955406917606
 20
691.6818541962164
 30
0.0
 10
1325.7955406917606
 20
691.6818541962164
 30
0.0
 10
1325.7955406917606
 20
691.6818541962164
 30
0.0
 10
1325.7955406917606
 20
693.5904541962163
 30
0.0
 10
1325.7955406917606
 20
693.5904541962163
 30
0.0
  0
SPLINE
  5
54
330
17
100
AcDbEntity
  8
4_layer 1
 62
250
370
9
100
AcDbSpline
 70
24
 71
3
 72
8
 73
4
 74
0
 42
1e-09
 40
0.0
 40
0.0
 40
0.0
 40
0.0
 40
1.0
 40
1.0
 40
1.0
 40
1.0
 10
1330.5307406917605
 20
700.8427541962163
 30
0.0
 10
1330.5307406917605
 20
700.8427541962163
 30
0.0
 10
1336.7271406917605
 20
700.8427541962163
 30
0.0
 10
1336.7271406917605
 20
700.8427541962163
 30
0.0
  0
SPLINE
  5
55
330
17
100
AcDbEntity
  8
4_layer 1
 62
250
370
9
100
AcDbSpline
 70
11
 71
3
 72
36
 73
32
 74
0
 42
1e-09
 40
0.0
 40
0.0
 40
0.0
 40
0.0
 40
0.1111111111111111
 40
0.1111111111111111
 40
0.1111111111111111
 40
0.1111111111111111
 40
0.2222222222222222
 40
0.2222222222222222
 40
0.2222222222222222
 40
0.2222222222222222
 40
0.3333333333333333
 40
0.3333333333333333
 40
0.3333333333333333
 40
0.3333333333333333
 40
0.4444444444444444
 40
0.4444444444444444
 40
0.4444444444444444
 40
0.4444444444444444
 40
0.5555555555555556
 40
0.5555555555555556
 40
0.5555555555555556
 40
0.5555555555555556
 40
0.6666666666666666
 40
0.6666666666666666
 40
0.6666666666666666
 40
0.6666666666666666
 40
0.7777777777777778
 40
0.7777777777777778
 40
0.7777777777777778
 40
0.7777777777777778
 40
1.0
 40
1.0
 40
1.0
 40
1.0
 10
1369.6049406917605
 20
712.7947541962163
 30
0.0
 10
1371.9710406917607
 20
712.7947541962163
 30
0.0
 10
1374.3375406917605
 20
712.7947541962163
 30
0.0
 10
1376.7040406917604
 20
712.7947541962163
 30
0.0
 10
1376.7040406917604
 20
712.7947541962163
 30
0.0
 10
1378.6845406917605
 20
712.8303541962163
 30
0.0
 10
1380.7105406917606
 20
711.3360541962163
 30
0.0
 10
1380.7376406917606
 20
708.8939541962163
 30
0.0
 10
1380.7376406917606
 20
708.8939541962163
 30
0.0
 10
1380.7372406917607
 20
703.1365541962164
 30
0.0
 10
1380.7372406917607
 20
697.3787541962163
 30
0.0
 10
1380.7376406917606
 20
691.6205541962163
 30
0.0
 10
1380.7376406917606
 20
691.6205541962163
 30
0.0
 10
1380.5955406917606
 20
689.2929541962163
 30
0.0
 10
1378.8891406917605
 20
687.8106541962163
 30
0.0
 10
1376.7040406917604
 20
687.7998541962163
 30
0.0
 10
1376.7040406917604
 20
687.7998541962163
 30
0.0
 10
1374.3316406917606
 20
687.8002541962163
 30
0.0
 10
1371.9592406917604
 20
687.8002541962163
 30
0.0
 10
1369.5872406917606
 20
687.7998541962163
 30
0.0
 10
1369.5872406917606
 20
687.7998541962163
 30
0.0
 10
1367.6287406917604
 20
687.6942541962163
 30
0.0
 10
1365.6223406917607
 20
689.5821541962163
 30
0.0
 10
1365.6337406917605
 20
691.6031541962163
 30
0.0
 10
1365.6337406917605
 20
691.6031541962163
 30
0.0
 10
1365.6341406917604
 20
697.3837541962163
 30
0.0
 10
1365.6341406917604
 20
703.1640541962163
 30
0.0
 10
1365.6337406917605
 20
708.9438541962163
 30
0.0
 10
1365.6337406917605
 20
708.9438541962163
 30
0.0
 10
1365.6380406917606
 20
711.0858541962164
 30
0.0
 10
1367.4151406917606
 20
712.8083541962163
 30
0.0
 10
1369.6049406917605
 20
712.7947541962163
 30
0.0
  0
SPLINE
  5
56
330
17
100
AcDbEntity
  8
4_layer 1
 62
250
370
9
100
AcDbSpline
 70
11
 71
3
 72
36
 73
32
 74
0
 42
1e-09
 40
0.0
 40
0.0
 40
0.0
 40
0.0
 40
0.1111111111111111
 40
0.1111111111111111
 40
0.1111111111111111
 40
0.1111111111111111
 40
0.2222222222222222
 40
0.2222222222222222
 40
0.2222222222222222
 40
0.2222222222222222
 40
0.3333333333333333
 40
0.3333333333333333
 40
0.3333333333333333
 40
0.3333333333333333
 40
0.4444444444444444
 40
0.4444444444444444
 40
0.4444444444444444
 40
0.4444444444444444
 40
0.5555555555555556
 40
0.5555555555555556
 40
0.5555555555555556
 40
0.5555555555555556
 40
0.6666666666666666
 40
0.6666666666666666
 40
0.6666666666666666
 40
0.6666666666666666
 40
0.7777777777777778
 40
0.7777777777777778
 40
0.7777777777777778
 40
0.7777777777777778
 40
1.0
 40
1.0
 40
1.0
 40
1.0
 10
1349.6049406917605
 20
712.7947541962163
 30
0.0
 10
1351.9710406917607
 20
712.7947541962163
 30
0.0
 10
1354.3375406917605
 20
712.7947541962163
 30
0.0
 10
1356.7040406917604
 20
712.7947541962163
 30
0.0
 10
1356.7040406917604
 20
712.7947541962163
 30
0.0
 10
1358.6845406917605
 20
712.8303541962163
 30
0.0
 10
1360.7105406917606
 20
711.3360541962163
 30
0.0
 10
1360.7376406917606
 20
708.8939541962163
 30
0.0
 10
1360.7376406917606
 20
708.8939541962163
 30
0.0
 10
1360.7372406917607
 20
703.1365541962164
 30
0.0
 10
1360.7372406917607
 20
697.3787541962163
 30
0.0
 10
1360.7376406917606
 20
691.6205541962163
 30
0.0
 10
1360.7376406917606
 20
691.6205541962163
 30
0.0
 10
1360.5955406917606
 20
689.2929541962163
 30
0.0
 10
1358.8891406917605
 20
687.8106541962163
 30
0.0
 10
1356.7040406917604
 20
687.7998541962163
 30
0.0
 10
1356.7040406917604
 20
687.7998541962163
 30
0.0
 10
1354.3316406917606
 20
687.8002541962163
 30
0.0
 10
1351.9592406917604
 20
687.8002541962163
 30
0.0
 10
1349.5872406917606
 20
687.7998541962163
 30
0.0
 10
1349.5872406917606
 20
687.7998541962163
 30
0.0
 10
1347.6287406917604
 20
687.6942541962163
 30
0.0
 10
1345.6223406917607
 20
689.5821541962163
 30
0.0
 10
1345.6337406917605
 20
691.6031541962163
 30
0.0
 10
1345.6337406917605
 20
691.6031541962163
 30
0.0
 10
1345.6341406917604
 20
697.3837541962163
 30
0.0
 10
1345.6341406917604
 20
703.1640541962163
 30
0.0
 10
1345.6337406917605
 20
708.9438541962163
 30
0.0
 10
1345.6337406917605
 20
708.9438541962163
 30
0.0
 10
1345.6380406917606
 20
711.0858541962164
 30
0.0
 10
1347.4151406917606
 20
712.8083541962163
 30
0.0
 10
1349.6049406917605
 20
712.7947541962163
 30
0.0
  0
SPLINE
  5
57
330
17
100
AcDbEntity
  8
4_layer 2
 62
142
370
158
100
AcDbSpline
 70
8
 71
3
 72
16
 73
12
 74
0
 42
1e-09
 40
0.0
 40
0.0
 40
0.0
 40
0.0
 40
0.25
 40
0.25
 40
0.25
 40
0.25
 40
0.5
 40
0.5
 40
0.5
 40
0.5
 40
1.0
 40
1.0
 40
1.0
 40
1.0
 10
1513.8973406917607
 20
1148.9579541962164
 30
0.0
 10
1514.0884406917605
 20
1088.6283541962162
 30
0.0
 10
1512.7503406917604
 20
1026.8303541962164
 30
0.0
 10
1514.4154406917605
 20
966.6681541962163
 30
0.0
 10
1514.4154406917605
 20
966.6681541962163
 30
0.0
 10
1515.1673406917607
 20
939.5004541962163
 30
0.0
 10
1528.4136406917605
 20
939.2191541962163
 30
0.0
 10
1551.1765406917607
 20
937.8947541962164
 30
0.0
 10
1551.1765406917607
 20
937.8947541962164
 30
0.0
 10
1578.4474406917607
 20
936.3081541962163
 30
0.0
 10
1604.9681406917607
 20
936.8774541962163
 30
0.0
 10
1632.2328406917604
 20
937.3571541962164
 30
0.0
  0
SPLINE
  5
58
330
17
100
AcDbEntity
  8
4_layer 2
 62
142
370
158
100
AcDbSpline
 70
8
 71
3
 72
24
 73
20
 74
0
 42
1e-09
 40
0.0
 40
0.0
 40
0.0
 40
0.0
 40
0.1666666666666667
 40
0.1666666666666667
 40
0.1666666666666667
 40
0.1666666666666667
 40
0.3333333333333333
 40
0.3333333333333333
 40
0.3333333333333333
 40
0.3333333333333333
 40
0.5
 40
0.5
 40
0.5
 40
0.5
 40
0.6666666666666666
 40
0.6666666666666666
 40
0.6666666666666666
 40
0.6666666666666666
 40
1.0
 40
1.0
 40
1.0
 40
1.0
 10
1631.9017406917606
 20
957.0280541962163
 30
0.0
 10
1631.9017406917606
 20
957.0280541962163
 30
0.0
 10
1635.4741406917606
 20
663.7115541962163
 30
0.0
 10
1635.4741406917606
 20
663.7115541962163
 30
0.0
 10
1635.4741406917606
 20
663.7115541962163
 30
0.0
 10
1636.3208406917606
 20
648.9742541962163
 30
0.0
 10
1645.7194406917606
 20
527.0263541962163
 30
0.0
 10
1641.7658406917606
 20
521.7211541962163
 30
0.0
 10
1641.7658406917606
 20
521.7211541962163
 30
0.0
 10
1637.9288406917606
 20
516.5725541962163
 30
0.0
 10
1627.6624406917604
 20
515.9482541962163
 30
0.0
 10
1622.0957406917605
 20
518.2042541962163
 30
0.0
 10
1622.0957406917605
 20
518.2042541962163
 30
0.0
 10
1601.2035406917607
 20
526.6713541962163
 30
0.0
 10
1591.9053406917606
 20
538.3775541962164
 30
0.0
 10
1576.8443406917604
 20
553.7522541962163
 30
0.0
 10
1576.8443406917604
 20
553.7522541962163
 30
0.0
 10
1540.9456406917607
 20
590.3988541962162
 30
0.0
 10
1505.0912406917605
 20
627.0672541962163
 30
0.0
 10
1468.9830406917606
 20
663.5076541962163
 30
0.0
  0
SPLINE
  5
59
330
17
100
AcDbEntity
  8
4_layer 2
 62
142
370
158
100
AcDbSpline
 70
8
 71
3
 72
36
 73
32
 74
0
 42
1e-09
 40
0.0
 40
0.0
 40
0.0
 40
0.0
 40
0.1111111111111111
 40
0.1111111111111111
 40
0.1111111111111111
 40
0.1111111111111111
 40
0.2222222222222222
 40
0.2222222222222222
 40
0.2222222222222222
 40
0.2222222222222222
 40
0.3333333333333333
 40
0.3333333333333333
 40
0.3333333333333333
 40
0.3333333333333333
 40
0.4444444444444444
 40
0.4444444444444444
 40
0.4444444444444444
 40
0.4444444444444444
 40
0.5555555555555556
 40
0.5555555555555556
 40
0.5555555555555556
 40
0.5555555555555556
 40
0.6666666666666666
 40
0.6666666666666666
 40
0.6666666666666666
 40
0.6666666666666666
 40
0.7777777777777778
 40
0.7777777777777778
 40
0.7777777777777778
 40
0.7777777777777778
 40
1.0
 40
1.0
 40
1.0
 40
1.0
 10
1461.7586406917605
 20
665.2192541962163
 30
0.0
 10
1446.5152406917605
 20
672.4512541962163
 30
0.0
 10
1444.6299406917606
 20
670.6391541962163
 30
0.0
 10
1428.3481406917606
 20
670.2562541962163
 30
0.0
 10
1428.3481406917606
 20
670.2562541962163
 30
0.0
 10
1385.2340406917606
 20
669.2424541962163
 30
0.0
 10
1198.3075406917606
 20
658.3234541962163
 30
0.0
 10
1168.6134406917604
 20
668.0961541962163
 30
0.0
 10
1168.6134406917604
 20
668.0961541962163
 30
0.0
 10
1153.6072406917606
 20
674.0181541962163
 30
0.0
 10
1153.1932406917606
 20
686.0710541962163
 30
0.0
 10
1153.3522406917605
 20
700.0900541962163
 30
0.0
 10
1153.3522406917605
 20
700.0900541962163
 30
0.0
 10
1154.2894406917605
 20
768.4989541962163
 30
0.0
 10
1156.4436406917607
 20
836.9754541962163
 30
0.0
 10
1157.3804406917607
 20
905.4363541962163
 30
0.0
 10
1157.3804406917607
 20
905.4363541962163
 30
0.0
 10
1157.4469406917606
 20
910.3347541962163
 30
0.0
 10
1156.4149406917604
 20
922.3459541962163
 30
0.0
 10
1160.1018406917606
 20
925.6436541962163
 30
0.0
 10
1160.1018406917606
 20
925.6436541962163
 30
0.0
 10
1170.8194406917605
 20
932.9129541962163
 30
0.0
 10
1201.2034406917605
 20
922.3232541962163
 30
0.0
 10
1214.4719406917607
 20
940.7944541962163
 30
0.0
 10
1214.4719406917607
 20
940.7944541962163
 30
0.0
 10
1226.1355406917605
 20
957.7825541962163
 30
0.0
 10
1226.0672406917606
 20
980.6025541962163
 30
0.0
 10
1227.8636406917606
 20
1000.5792541962163
 30
0.0
 10
1227.8636406917606
 20
1000.5792541962163
 30
0.0
 10
1232.0187406917605
 20
1046.7818541962163
 30
0.0
 10
1229.2489406917607
 20
1103.0998541962163
 30
0.0
 10
1229.5375406917606
 20
1150.2292541962163
 30
0.0
  0
SPLINE
  5
5A
330
17
100
AcDbEntity
  8
4_layer 2
 62
142
370
158
100
AcDbSpline
 70
8
 71
3
 72
20
 73
16
 74
0
 42
1e-09
 40
0.0
 40
0.0
 40
0.0
 40
0.0
 40
0.2
 40
0.2
 40
0.2
 40
0.2
 40
0.4
 40
0.4
 40
0.4
 40
0.4
 40
0.6
 40
0.6
 40
0.6
 40
0.6
 40
1.0
 40
1.0
 40
1.0
 40
1.0
 10
1108.3570406917606
 20
983.7245541962163
 30
0.0
 10
1108.3190406917606
 20
896.3276541962163
 30
0.0
 10
1108.2311406917606
 20
808.9778541962163
 30
0.0
 10
1107.9665406917607
 20
721.5807541962163
 30
0.0
 10
1107.9665406917607
 20
721.5807541962163
 30
0.0
 10
1107.9332406917606
 20
710.5996541962163
 30
0.0
 10
1107.9721406917606
 20
699.6288541962164
 30
0.0
 10
1108.1510406917605
 20
688.6489541962163
 30
0.0
 10
1108.1510406917605
 20
688.6489541962163
 30
0.0
 10
1108.3817406917606
 20
675.0843541962163
 30
0.0
 10
1112.8749406917605
 20
655.4544541962163
 30
0.0
 10
1121.5778406917607
 20
644.8750541962163
 30
0.0
 10
1121.5778406917607
 20
644.8750541962163
 30
0.0
 10
1129.2119406917604
 20
635.5949541962163
 30
0.0
 10
1135.4779406917605
 20
631.6857541962163
 30
0.0
 10
1145.8304406917605
 20
625.9910541962163
 30
0.0
  0
SPLINE
  5
5B
330
17
100
AcDbEntity
  8
4_layer 2
 62
142
370
158
100
AcDbSpline
 70
24
 71
3
 72
8
 73
4
 74
0
 42
1e-09
 40
0.0
 40
0.0
 40
0.0
 40
0.0
 40
1.0
 40
1.0
 40
1.0
 40
1.0
 10
1002.3971406917606
 20
576.6056541962164
 30
0.0
 10
1002.3971406917606
 20
576.6056541962164
 30
0.0
 10
1132.7008406917605
 20
576.9546541962163
 30
0.0
 10
1132.7008406917605
 20
576.9546541962163
 30
0.0
  0
SPLINE
  5
5C
330
17
100
AcDbEntity
  8
4_layer 3
 62
242
370
158
100
AcDbSpline
 70
11
 71
3
 72
232
 73
228
 74
0
 42
1e-09
 40
0.0
 40
0.0
 40
0.0
 40
0.0
 40
0.0172413793103448
 40
0.0172413793103448
 40
0.0172413793103448
 40
0.0172413793103448
 40
0.0344827586206897
 40
0.0344827586206897
 40
0.0344827586206897
 40
0.0344827586206897
 40
0.0517241379310345
 40
0.0517241379310345
 40
0.0517241379310345
 40
0.0517241379310345
 40
0.0689655172413793
 40
0.0689655172413793
 40
0.0689655172413793
 40
0.0689655172413793
 40
0.0862068965517241
 40
0.0862068965517241
 40
0.0862068965517241
 40
0.0862068965517241
 40
0.103448275862069
 40
0.103448275862069
 40
0.103448275862069
 40
0.103448275862069
 40
0.1206896551724138
 40
0.1206896551724138
 40
0.1206896551724138
 40
0.1206896551724138
 40
0.1379310344827586
 40
0.1379310344827586
 40
0.1379310344827586
 40
0.1379310344827586
 40
0.1551724137931035
 40
0.1551724137931035
 40
0.1551724137931035
 40
0.1551724137931035
 40
0.1724137931034483
 40
0.1724137931034483
 40
0.1724137931034483
 40
0.1724137931034483
 40
0.1896551724137931
 40
0.1896551724137931
 40
0.1896551724137931
 40
0.1896551724137931
 40
0.2068965517241379
 40
0.2068965517241379
 40
0.2068965517241379
 40
0.2068965517241379
 40
0.2241379310344828
 40
0.2241379310344828
 40
0.2241379310344828
 40
0.2241379310344828
 40
0.2413793103448276
 40
0.2413793103448276
 40
0.2413793103448276
 40
0.2413793103448276
 40
0.2586206896551724
 40
0.2586206896551724
 40
0.2586206896551724
 40
0.2586206896551724
 40
0.2758620689655172
 40
0.2758620689655172
 40
0.2758620689655172
 40
0.2758620689655172
 40
0.293103448275862
 40
0.293103448275862
 40
0.293103448275862
 40
0.293103448275862
 40
0.3103448275862069
 40
0.3103448275862069
 40
0.3103448275862069
 40
0.3103448275862069
 40
0.3275862068965517
 40
0.3275862068965517
 40
0.3275862068965517
 40
0.3275862068965517
 40
0.3448275862068966
 40
0.3448275862068966
 40
0.3448275862068966
 40
0.3448275862068966
 40
0.3620689655172414
 40
0.3620689655172414
 40
0.3620689655172414
 40
0.3620689655172414
 40
0.3793103448275862
 40
0.3793103448275862
 40
0.3793103448275862
 40
0.3793103448275862
 40
0.396551724137931
 40
0.396551724137931
 40
0.396551724137931
 40
0.396551724137931
 40
0.4137931034482759
 40
0.4137931034482759
 40
0.4137931034482759
 40
0.4137931034482759
 40
0.4310344827586207
 40
0.4310344827586207
 40
0.4310344827586207
 40
0.4310344827586207
 40
0.4482758620689655
 40
0.4482758620689655
 40
0.4482758620689655
 40
0.4482758620689655
 40
0.4655172413793103
 40
0.4655172413793103
 40
0.4655172413793103
 40
0.4655172413793103
 40
0.4827586206896552
 40
0.4827586206896552
 40
0.4827586206896552
 40
0.4827586206896552
 40
0.5
 40
0.5
 40
0.5
 40
0.5
 40
0.5172413793103449
 40
0.5172413793103449
 40
0.5172413793103449
 40
0.5172413793103449
 40
0.5344827586206896
 40
0.5344827586206896
 40
0.5344827586206896
 40
0.5344827586206896
 40
0.5517241379310345
 40
0.5517241379310345
 40
0.5517241379310345
 40
0.5517241379310345
 40
0.5689655172413793
 40
0.5689655172413793
 40
0.5689655172413793
 40
0.5689655172413793
 40
0.5862068965517241
 40
0.5862068965517241
 40
0.5862068965517241
 40
0.5862068965517241
 40
0.603448275862069
 40
0.603448275862069
 40
0.603448275862069
 40
0.603448275862069
 40
0.6206896551724138
 40
0.6206896551724138
 40
0.6206896551724138
 40
0.6206896551724138
 40
0.6379310344827587
 40
0.6379310344827587
 40
0.6379310344827587
 40
0.6379310344827587
 40
0.6551724137931034
 40
0.6551724137931034
 40
0.6551724137931034
 40
0.6551724137931034
 40
0.6724137931034483
 40
0.6724137931034483
 40
0.6724137931034483
 40
0.6724137931034483
 40
0.6896551724137931
 40
0.6896551724137931
 40
0.6896551724137931
 40
0.6896551724137931
 40
0.7068965517241379
 40
0.7068965517241379
 40
0.7068965517241379
 40
0.7068965517241379
 40
0.7241379310344828
 40
0.7241379310344828
 40
0.7241379310344828
 40
0.7241379310344828
 40
0.7413793103448276
 40
0.7413793103448276
 40
0.7413793103448276
 40
0.7413793103448276
 40
0.7586206896551724
 40
0.7586206896551724
 40
0.7586206896551724
 40
0.7586206896551724
 40
0.7758620689655172
 40
0.7758620689655172
 40
0.7758620689655172
 40
0.7758620689655172
 40
0.7931034482758621
 40
0.7931034482758621
 40
0.7931034482758621
 40
0.7931034482758621
 40
0.8103448275862069
 40
0.8103448275862069
 40
0.8103448275862069
 40
0.8103448275862069
 40
0.8275862068965517
 40
0.8275862068965517
 40
0.8275862068965517
 40
0.8275862068965517
 40
0.8448275862068966
 40
0.8448275862068966
 40
0.8448275862068966
 40
0.8448275862068966
 40
0.8620689655172413
 40
0.8620689655172413
 40
0.8620689655172413
 40
0.8620689655172413
 40
0.8793103448275862
 40
0.8793103448275862
 40
0.8793103448275862
 40
0.8793103448275862
 40
0.896551724137931
 40
0.896551724137931
 40
0.896551724137931
 40
0.896551724137931
 40
0.9137931034482759
 40
0.9137931034482759
 40
0.9137931034482759
 40
0.9137931034482759
 40
0.9310344827586207
 40
0.9310344827586207
 40
0.9310344827586207
 40
0.9310344827586207
 40
0.9482758620689655
 40
0.9482758620689655
 40
0.9482758620689655
 40
0.9482758620689655
 40
0.9655172413793104
 40
0.9655172413793104
 40
0.9655172413793104
 40
0.9655172413793104
 40
1.0
 40
1.0
 40
1.0
 40
1.0
 10
1006.1930406917605
 20
518.4119541962164
 30
0.0
 10
1007.8868406917605
 20
516.9702541962163
 30
0.0
 10
1010.9165406917606
 20
516.6051541962163
 30
0.0
 10
1016.3717406917606
 20
516.6839541962163
 30
0.0
 10
1016.3717406917606
 20
516.6839541962163
 30
0.0
 10
1041.1420406917605
 20
517.0416541962163
 30
0.0
 10
1112.2593406917606
 20
512.3295541962163
 30
0.0
 10
1132.1364406917605
 20
517.8040541962164
 30
0.0
 10
1132.1364406917605
 20
517.8040541962164
 30
0.0
 10
1140.2405406917605
 20
520.1174541962164
 30
0.0
 10
1144.8308406917604
 20
521.6144541962162
 30
0.0
 10
1142.9773406917607
 20
531.1719541962163
 30
0.0
 10
1142.9773406917607
 20
531.1719541962163
 30
0.0
 10
1140.0649406917605
 20
546.1898541962163
 30
0.0
 10
1133.5455406917606
 20
561.2798541962163
 30
0.0
 10
1132.7008406917605
 20
576.9546541962163
 30
0.0
 10
1132.7008406917605
 20
576.9546541962163
 30
0.0
 10
1133.0754406917606
 20
583.5728541962163
 30
0.0
 10
1136.8596406917604
 20
588.5220541962162
 30
0.0
 10
1136.9868406917606
 20
598.1540541962163
 30
0.0
 10
1136.9868406917606
 20
598.1540541962163
 30
0.0
 10
1137.0699406917606
 20
604.4508541962164
 30
0.0
 10
1135.1657406917607
 20
622.1353541962163
 30
0.0
 10
1141.1853406917605
 20
625.7537541962163
 30
0.0
 10
1141.1853406917605
 20
625.7537541962163
 30
0.0
 10
1147.2958406917605
 20
628.2691541962163
 30
0.0
 10
1152.6023406917607
 20
621.4083541962164
 30
0.0
 10
1154.8389406917604
 20
616.5919541962163
 30
0.0
 10
1154.8389406917604
 20
616.5919541962163
 30
0.0
 10
1162.6159406917604
 20
597.0474541962163
 30
0.0
 10
1163.5184406917606
 20
559.1098541962162
 30
0.0
 10
1165.3619406917605
 20
537.1043541962163
 30
0.0
 10
1165.3619406917605
 20
537.1043541962163
 30
0.0
 10
1165.6340406917607
 20
533.8566541962164
 30
0.0
 10
1165.3065406917606
 20
525.2508541962163
 30
0.0
 10
1170.1258406917605
 20
525.2715541962164
 30
0.0
 10
1170.1258406917605
 20
525.2715541962164
 30
0.0
 10
1224.9741406917606
 20
525.5070541962164
 30
0.0
 10
1279.7583406917606
 20
526.3484541962164
 30
0.0
 10
1334.5980406917606
 20
527.3763541962163
 30
0.0
 10
1334.5980406917606
 20
527.3763541962163
 30
0.0
 10
1356.1258406917605
 20
527.7798541962163
 30
0.0
 10
1378.9035406917606
 20
527.8154541962163
 30
0.0
 10
1400.3447406917605
 20
528.9834541962164
 30
0.0
 10
1400.3447406917605
 20
528.9834541962164
 30
0.0
 10
1404.5386406917605
 20
529.2241541962163
 30
0.0
 10
1405.9997406917605
 20
532.1619541962164
 30
0.0
 10
1409.2810406917606
 20
540.2340541962163
 30
0.0
 10
1409.2810406917606
 20
540.2340541962163
 30
0.0
 10
1421.1974406917607
 20
569.5485541962163
 30
0.0
 10
1433.4675406917604
 20
598.4664541962163
 30
0.0
 10
1445.6858406917604
 20
627.6387541962163
 30
0.0
 10
1445.6858406917604
 20
627.6387541962163
 30
0.0
 10
1448.5449406917605
 20
634.3920541962163
 30
0.0
 10
1452.2272406917605
 20
641.9226541962163
 30
0.0
 10
1454.5181406917604
 20
648.7611541962164
 30
0.0
 10
1454.5181406917604
 20
648.7611541962164
 30
0.0
 10
1455.8455406917606
 20
652.7235541962164
 30
0.0
 10
1454.8511406917605
 20
657.7718541962163
 30
0.0
 10
1455.9373406917607
 20
660.9324541962163
 30
0.0
 10
1455.9373406917607
 20
660.9324541962163
 30
0.0
 10
1457.6930406917604
 20
666.0415541962163
 30
0.0
 10
1465.3978406917604
 20
666.4021541962163
 30
0.0
 10
1468.9830406917606
 20
663.5076541962163
 30
0.0
 10
1468.9830406917606
 20
663.5076541962163
 30
0.0
 10
1472.7582406917604
 20
660.4597541962163
 30
0.0
 10
1471.0322406917605
 20
655.7014541962163
 30
0.0
 10
1468.4647406917607
 20
652.3154541962164
 30
0.0
 10
1468.4647406917607
 20
652.3154541962164
 30
0.0
 10
1467.3980406917606
 20
650.9087541962164
 30
0.0
 10
1465.6660406917606
 20
650.2858541962163
 30
0.0
 10
1464.9500406917605
 20
649.2506541962163
 30
0.0
 10
1464.9500406917605
 20
649.2506541962163
 30
0.0
 10
1461.5357406917606
 20
644.3138541962163
 30
0.0
 10
1452.4708406917607
 20
616.2597541962164
 30
0.0
 10
1449.5767406917605
 20
608.4169541962162
 30
0.0
 10
1449.5767406917605
 20
608.4169541962162
 30
0.0
 10
1447.0983406917605
 20
601.7561541962164
 30
0.0
 10
1442.3993406917607
 20
593.6060541962163
 30
0.0
 10
1445.3892406917605
 20
586.5491541962163
 30
0.0
 10
1445.3892406917605
 20
586.5491541962163
 30
0.0
 10
1449.9513406917606
 20
575.7817541962163
 30
0.0
 10
1474.7098406917605
 20
559.0847541962163
 30
0.0
 10
1482.7585406917606
 20
546.4051541962162
 30
0.0
 10
1482.7585406917606
 20
546.4051541962162
 30
0.0
 10
1486.8721406917605
 20
538.0011541962162
 30
0.0
 10
1475.8438406917605
 20
501.3716541962163
 30
0.0
 10
1477.0866406917605
 20
486.3361541962163
 30
0.0
 10
1477.0866406917605
 20
486.3361541962163
 30
0.0
 10
1478.4748406917606
 20
478.7034541962163
 30
0.0
 10
1488.8312406917605
 20
464.1760541962163
 30
0.0
 10
1494.4585406917606
 20
459.50015419621633
 30
0.0
 10
1494.4585406917606
 20
459.50015419621633
 30
0.0
 10
1501.1100406917606
 20
453.9730541962163
 30
0.0
 10
1508.9286406917604
 20
460.3568541962163
 30
0.0
 10
1515.2580406917605
 20
464.20485419621633
 30
0.0
 10
1515.2580406917605
 20
464.20485419621633
 30
0.0
 10
1538.6647406917605
 20
478.3081541962163
 30
0.0
 10
1562.7039406917606
 20
492.17745419621633
 30
0.0
 10
1586.3565406917605
 20
505.91045419621634
 30
0.0
 10
1586.3565406917605
 20
505.91045419621634
 30
0.0
 10
1605.2113406917606
 20
516.8535541962162
 30
0.0
 10
1600.8332406917607
 20
517.7636541962163
 30
0.0
 10
1621.3829406917607
 20
511.50015419621633
 30
0.0
 10
1621.3829406917607
 20
511.50015419621633
 30
0.0
 10
1639.0659406917607
 20
506.1584541962163
 30
0.0
 10
1651.1819406917607
 20
509.6306541962163
 30
0.0
 10
1651.4837406917604
 20
530.1965541962163
 30
0.0
 10
1651.4837406917604
 20
530.1965541962163
 30
0.0
 10
1650.9098406917606
 20
545.6770541962163
 30
0.0
 10
1650.1286406917607
 20
561.1981541962164
 30
0.0
 10
1649.5490406917606
 20
576.7033541962163
 30
0.0
 10
1649.5490406917606
 20
576.7033541962163
 30
0.0
 10
1649.1757406917604
 20
586.6777541962163
 30
0.0
 10
1648.8024406917607
 20
596.6521541962163
 30
0.0
 10
1648.4291406917605
 20
606.6265541962164
 30
0.0
 10
1648.4291406917605
 20
606.6265541962164
 30
0.0
 10
1646.1894406917604
 20
666.4654541962163
 30
0.0
 10
1644.1064406917606
 20
726.3520541962163
 30
0.0
 10
1641.7026406917607
 20
786.1794541962163
 30
0.0
 10
1641.7026406917607
 20
786.1794541962163
 30
0.0
 10
1641.1649406917604
 20
799.5630541962163
 30
0.0
 10
1639.2418406917604
 20
804.2061541962163
 30
0.0
 10
1646.2301406917604
 20
816.2837541962164
 30
0.0
 10
1646.2301406917604
 20
816.2837541962164
 30
0.0
 10
1652.5762406917606
 20
827.2513541962163
 30
0.0
 10
1658.6385406917607
 20
830.5632541962163
 30
0.0
 10
1659.3391406917606
 20
843.6860541962163
 30
0.0
 10
1659.3391406917606
 20
843.6860541962163
 30
0.0
 10
1659.8303406917607
 20
862.1205541962163
 30
0.0
 10
1659.9467406917606
 20
880.8631541962163
 30
0.0
 10
1660.3182406917604
 20
899.3496541962163
 30
0.0
 10
1660.3182406917604
 20
899.3496541962163
 30
0.0
 10
1660.3585406917605
 20
901.3541541962163
 30
0.0
 10
1660.3988406917606
 20
903.3586541962163
 30
0.0
 10
1660.4391406917607
 20
905.3631541962163
 30
0.0
 10
1660.4391406917607
 20
905.3631541962163
 30
0.0
 10
1660.6924406917606
 20
917.4595541962163
 30
0.0
 10
1660.9884406917604
 20
929.6913541962164
 30
0.0
 10
1661.4065406917607
 20
941.7799541962163
 30
0.0
 10
1661.4065406917607
 20
941.7799541962163
 30
0.0
 10
1661.8992406917605
 20
953.1613541962163
 30
0.0
 10
1663.8659406917604
 20
956.9474541962163
 30
0.0
 10
1651.1294406917605
 20
956.9735541962164
 30
0.0
 10
1651.1294406917605
 20
956.9735541962164
 30
0.0
 10
1635.5148406917606
 20
957.0055541962163
 30
0.0
 10
1618.0848406917607
 20
957.3802541962164
 30
0.0
 10
1602.6775406917604
 20
955.7709541962163
 30
0.0
 10
1602.6775406917604
 20
955.7709541962163
 30
0.0
 10
1589.6502406917607
 20
954.1561541962163
 30
0.0
 10
1578.3114406917607
 20
953.0374541962163
 30
0.0
 10
1565.2001406917607
 20
952.2000541962163
 30
0.0
 10
1565.2001406917607
 20
952.2000541962163
 30
0.0
 10
1552.6891406917607
 20
951.4236541962163
 30
0.0
 10
1550.1181406917606
 20
950.2512541962163
 30
0.0
 10
1550.2688406917605
 20
962.8494541962164
 30
0.0
 10
1550.2688406917605
 20
962.8494541962164
 30
0.0
 10
1550.9102406917605
 20
1016.5005541962163
 30
0.0
 10
1551.0062406917605
 20
1070.2910541962165
 30
0.0
 10
1551.3350406917607
 20
1123.9589541962164
 30
0.0
 10
1551.3350406917607
 20
1123.9589541962164
 30
0.0
 10
1551.3656406917607
 20
1128.9472541962164
 30
0.0
 10
1552.5396406917607
 20
1143.1828541962163
 30
0.0
 10
1550.4213406917606
 20
1146.8429541962164
 30
0.0
 10
1550.4213406917606
 20
1146.8429541962164
 30
0.0
 10
1548.0362406917607
 20
1150.9640541962162
 30
0.0
 10
1536.4273406917605
 20
1149.4948541962162
 30
0.0
 10
1531.9685406917606
 20
1149.4485541962163
 30
0.0
 10
1531.9685406917606
 20
1149.4485541962163
 30
0.0
 10
1500.1162406917606
 20
1149.1172541962162
 30
0.0
 10
1467.7103406917604
 20
1149.6075541962164
 30
0.0
 10
1435.7975406917606
 20
1149.7020541962163
 30
0.0
 10
1435.7975406917606
 20
1149.7020541962163
 30
0.0
 10
1365.6374406917605
 20
1149.9071541962162
 30
0.0
 10
1295.4797406917605
 20
1149.8042541962163
 30
0.0
 10
1225.3200406917606
 20
1150.2557541962162
 30
0.0
 10
1225.3200406917606
 20
1150.2557541962162
 30
0.0
 10
1217.9314406917606
 20
1150.3032541962164
 30
0.0
 10
1204.3851406917606
 20
1151.8182541962162
 30
0.0
 10
1198.8213406917605
 20
1147.2136541962163
 30
0.0
 10
1198.8213406917605
 20
1147.2136541962163
 30
0.0
 10
1185.1281406917606
 20
1135.8809541962164
 30
0.0
 10
1202.6009406917606
 20
980.0786541962163
 30
0.0
 10
1194.4044406917606
 20
949.9114541962163
 30
0.0
 10
1194.4044406917606
 20
949.9114541962163
 30
0.0
 10
1190.9960406917605
 20
937.3664541962163
 30
0.0
 10
1150.2271406917605
 20
932.9935541962163
 30
0.0
 10
1140.6416406917606
 20
943.4058541962163
 30
0.0
 10
1140.6416406917606
 20
943.4058541962163
 30
0.0
 10
1133.8196406917605
 20
950.8164541962163
 30
0.0
 10
1136.5237406917604
 20
965.0855541962163
 30
0.0
 10
1136.1880406917605
 20
974.3912541962163
 30
0.0
 10
1136.1880406917605
 20
974.3912541962163
 30
0.0
 10
1135.9672406917607
 20
980.5118541962163
 30
0.0
 10
1135.8719406917605
 20
983.2675541962163
 30
0.0
 10
1129.4190406917605
 20
983.5612541962163
 30
0.0
 10
1129.4190406917605
 20
983.5612541962163
 30
0.0
 10
1124.4602406917606
 20
983.7596541962163
 30
0.0
 10
1092.7704406917605
 20
984.8333541962163
 30
0.0
 10
1089.7026406917605
 20
983.4056541962163
 30
0.0
 10
1089.7026406917605
 20
983.4056541962163
 30
0.0
 10
1088.1062406917606
 20
982.6626541962163
 30
0.0
 10
1086.8857406917605
 20
981.3599541962163
 30
0.0
 10
1086.3325406917606
 20
979.1484541962163
 30
0.0
 10
1086.3325406917606
 20
979.1484541962163
 30
0.0
 10
1084.4955406917607
 20
971.8055541962163
 30
0.0
 10
1086.5120406917606
 20
945.5822541962164
 30
0.0
 10
1086.6753406917605
 20
935.9103541962163
 30
0.0
 10
1086.6753406917605
 20
935.9103541962163
 30
0.0
 10
1087.0182406917606
 20
915.5690541962163
 30
0.0
 10
1086.9670406917605
 20
894.4099541962163
 30
0.0
 10
1087.7836406917604
 20
874.1750541962164
 30
0.0
 10
1087.7836406917604
 20
874.1750541962164
 30
0.0
 10
1088.1065406917605
 20
866.1755541962164
 30
0.0
 10
1087.5946406917606
 20
853.3583541962163
 30
0.0
 10
1081.0048406917606
 20
847.7274541962163
 30
0.0
 10
1081.0048406917606
 20
847.7274541962163
 30
0.0
 10
1071.9843406917605
 20
840.0194541962163
 30
0.0
 10
1019.3992406917605
 20
835.7225541962163
 30
0.0
 10
1005.4796406917606
 20
834.9230541962163
 30
0.0
 10
1005.4796406917606
 20
834.9230541962163
 30
0.0
 10
999.7128406917606
 20
834.5918541962163
 30
0.0
 10
996.1744406917605
 20
834.5652541962163
 30
0.0
 10
994.2501406917605
 20
832.7857541962163
 30
0.0
 10
994.2501406917605
 20
832.7857541962163
 30
0.0
 10
992.3258406917605
 20
831.0062541962163
 30
0.0
 10
1006.1930406917605
 20
518.4119541962164
 30
0.0
 10
1006.1930406917605
 20
518.4119541962164
 30
0.0
  0
SPLINE
  5
5D
330
17
100
AcDbEntity
  8
3_layer 1
 62
250
370
9
100
AcDbSpline
 70
24
 71
3
 72
8
 73
4
 74
0
 42
1e-09
 40
0.0
 40
0.0
 40
0.0
 40
0.0
 40
1.0
 40
1.0
 40
1.0
 40
1.0
 10
1243.8681057169342
 20
1694.642961336248
 30
0.0
 10
1243.8681057169342
 20
1694.642961336248
 30
0.0
 10
1256.2324057169342
 20
1674.0986613362481
 30
0.0
 10
1256.2324057169342
 20
1674.0986613362481
 30
0.0
  0
SPLINE
  5
5E
330
17
100
AcDbEntity
  8
3_layer 1
 62
250
370
9
100
AcDbSpline
 70
24
 71
3
 72
8
 73
4
 74
0
 42
1e-09
 40
0.0
 40
0.0
 40
0.0
 40
0.0
 40
1.0
 40
1.0
 40
1.0
 40
1.0
 10
1226.1382057169342
 20
1694.642961336248
 30
0.0
 10
1226.1382057169342
 20
1694.642961336248
 30
0.0
 10
1238.5025057169341
 20
1674.0986613362481
 30
0.0
 10
1238.5025057169341
 20
1674.0986613362481
 30
0.0
  0
SPLINE
  5
5F
330
17
100
AcDbEntity
  8
3_layer 1
 62
250
370
9
100
AcDbSpline
 70
8
 71
3
 72
32
 73
28
 74
0
 42
1e-09
 40
0.0
 40
0.0
 40
0.0
 40
0.0
 40
0.125
 40
0.125
 40
0.125
 40
0.125
 40
0.25
 40
0.25
 40
0.25
 40
0.25
 40
0.375
 40
0.375
 40
0.375
 40
0.375
 40
0.5
 40
0.5
 40
0.5
 40
0.5
 40
0.625
 40
0.625
 40
0.625
 40
0.625
 40
0.75
 40
0.75
 40
0.75
 40
0.75
 40
1.0
 40
1.0
 40
1.0
 40
1.0
 10
1856.774505716934
 20
1536.914961336248
 30
0.0
 10
1856.6493057169341
 20
1534.8339613362482
 30
0.0
 10
1855.1471057169342
 20
1533.508761336248
 30
0.0
 10
1853.2234057169342
 20
1533.4990613362481
 30
0.0
 10
1853.2234057169342
 20
1533.4990613362481
 30
0.0
 10
1851.1348057169344
 20
1533.499361336248
 30
0.0
 10
1849.0462057169343
 20
1533.499361336248
 30
0.0
 10
1846.9579057169342
 20
1533.4990613362481
 30
0.0
 10
1846.9579057169342
 20
1533.4990613362481
 30
0.0
 10
1845.2337057169343
 20
1533.404661336248
 30
0.0
 10
1843.4673057169343
 20
1535.092561336248
 30
0.0
 10
1843.477305716934
 20
1536.8993613362481
 30
0.0
 10
1843.477305716934
 20
1536.8993613362481
 30
0.0
 10
1843.4777057169342
 20
1542.0675613362482
 30
0.0
 10
1843.4777057169342
 20
1547.2352613362482
 30
0.0
 10
1843.477305716934
 20
1552.402661336248
 30
0.0
 10
1843.477305716934
 20
1552.402661336248
 30
0.0
 10
1843.481105716934
 20
1554.3177613362482
 30
0.0
 10
1845.0456057169342
 20
1555.857661336248
 30
0.0
 10
1846.9735057169341
 20
1555.845561336248
 30
0.0
 10
1846.9735057169341
 20
1555.845561336248
 30
0.0
 10
1849.0565057169342
 20
1555.845561336248
 30
0.0
 10
1851.1400057169342
 20
1555.845561336248
 30
0.0
 10
1853.2234057169342
 20
1555.845561336248
 30
0.0
 10
1853.2234057169342
 20
1555.845561336248
 30
0.0
 10
1854.9669057169342
 20
1555.8773613362482
 30
0.0
 10
1856.7506057169342
 20
1554.5414613362482
 30
0.0
 10
1856.774505716934
 20
1552.358061336248
 30
0.0
  0
SPLINE
  5
60
330
17
100
AcDbEntity
  8
3_layer 1
 62
250
370
9
100
AcDbSpline
 70
8
 71
3
 72
52
 73
48
 74
0
 42
1e-09
 40
0.0
 40
0.0
 40
0.0
 40
0.0
 40
0.0769230769230769
 40
0.0769230769230769
 40
0.0769230769230769
 40
0.0769230769230769
 40
0.1538461538461539
 40
0.1538461538461539
 40
0.1538461538461539
 40
0.1538461538461539
 40
0.2307692307692308
 40
0.2307692307692308
 40
0.2307692307692308
 40
0.2307692307692308
 40
0.3076923076923077
 40
0.3076923076923077
 40
0.3076923076923077
 40
0.3076923076923077
 40
0.3846153846153846
 40
0.3846153846153846
 40
0.3846153846153846
 40
0.3846153846153846
 40
0.4615384615384616
 40
0.4615384615384616
 40
0.4615384615384616
 40
0.4615384615384616
 40
0.5384615384615384
 40
0.5384615384615384
 40
0.5384615384615384
 40
0.5384615384615384
 40
0.6153846153846154
 40
0.6153846153846154
 40
0.6153846153846154
 40
0.6153846153846154
 40
0.6923076923076923
 40
0.6923076923076923
 40
0.6923076923076923
 40
0.6923076923076923
 40
0.7692307692307693
 40
0.7692307692307693
 40
0.7692307692307693
 40
0.7692307692307693
 40
0.8461538461538461
 40
0.8461538461538461
 40
0.8461538461538461
 40
0.8461538461538461
 40
1.0
 40
1.0
 40
1.0
 40
1.0
 10
1526.4278057169342
 20
1511.246461336248
 30
0.0
 10
1526.4278057169342
 20
1511.246461336248
 30
0.0
 10
1526.4278057169342
 20
1513.103661336248
 30
0.0
 10
1526.4278057169342
 20
1513.103661336248
 30
0.0
 10
1526.4278057169342
 20
1513.103661336248
 30
0.0
 10
1526.4135057169342
 20
1514.845561336248
 30
0.0
 10
1529.0780057169343
 20
1516.9636613362482
 30
0.0
 10
1531.1371057169342
 20
1516.9409613362482
 30
0.0
 10
1531.1371057169342
 20
1516.9409613362482
 30
0.0
 10
1533.2012057169343
 20
1516.9409613362482
 30
0.0
 10
1535.2652057169341
 20
1516.9409613362482
 30
0.0
 10
1537.328905716934
 20
1516.9409613362482
 30
0.0
 10
1537.328905716934
 20
1516.9409613362482
 30
0.0
 10
1539.5234057169341
 20
1516.9497613362482
 30
0.0
 10
1541.1217057169342
 20
1515.102961336248
 30
0.0
 10
1541.1661057169342
 20
1513.1908613362482
 30
0.0
 10
1541.1661057169342
 20
1513.1908613362482
 30
0.0
 10
1541.165705716934
 20
1511.755761336248
 30
0.0
 10
1541.165705716934
 20
1510.3206613362481
 30
0.0
 10
1541.1661057169342
 20
1508.885161336248
 30
0.0
 10
1541.1661057169342
 20
1508.885161336248
 30
0.0
 10
1541.1175057169341
 20
1507.2316613362482
 30
0.0
 10
1539.5149057169342
 20
1505.0016613362482
 30
0.0
 10
1537.3166057169342
 20
1505.0116613362482
 30
0.0
 10
1537.3166057169342
 20
1505.0116613362482
 30
0.0
 10
1539.5203057169342
 20
1505.000461336248
 30
0.0
 10
1541.1283057169342
 20
1503.1972613362482
 30
0.0
 10
1541.1823057169343
 20
1501.137761336248
 30
0.0
 10
1541.1823057169343
 20
1501.137761336248
 30
0.0
 10
1541.1819057169341
 20
1499.3530613362482
 30
0.0
 10
1541.1819057169341
 20
1497.568361336248
 30
0.0
 10
1541.1823057169343
 20
1495.7832613362482
 30
0.0
 10
1541.1823057169343
 20
1495.7832613362482
 30
0.0
 10
1541.1924057169342
 20
1493.7218613362481
 30
0.0
 10
1539.1375057169341
 20
1491.958761336248
 30
0.0
 10
1537.3166057169342
 20
1491.966861336248
 30
0.0
 10
1537.3166057169342
 20
1491.966861336248
 30
0.0
 10
1535.2513057169342
 20
1491.9671613362482
 30
0.0
 10
1533.1861057169342
 20
1491.9671613362482
 30
0.0
 10
1531.120505716934
 20
1491.966861336248
 30
0.0
 10
1531.120505716934
 20
1491.966861336248
 30
0.0
 10
1528.951905716934
 20
1491.978361336248
 30
0.0
 10
1526.4209057169342
 20
1494.3785613362481
 30
0.0
 10
1526.4023057169343
 20
1495.8403613362482
 30
0.0
 10
1526.4023057169343
 20
1495.8403613362482
 30
0.0
 10
1526.4023057169343
 20
1495.8403613362482
 30
0.0
 10
1526.4023057169343
 20
1497.7489613362482
 30
0.0
 10
1526.4023057169343
 20
1497.7489613362482
 30
0.0
  0
SPLINE
  5
61
330
17
100
AcDbEntity
  8
3_layer 1
 62
250
370
9
100
AcDbSpline
 70
24
 71
3
 72
8
 73
4
 74
0
 42
1e-09
 40
0.0
 40
0.0
 40
0.0
 40
0.0
 40
1.0
 40
1.0
 40
1.0
 40
1.0
 10
1531.1375057169341
 20
1505.001261336248
 30
0.0
 10
1531.1375057169341
 20
1505.001261336248
 30
0.0
 10
1537.3339057169342
 20
1505.001261336248
 30
0.0
 10
1537.3339057169342
 20
1505.001261336248
 30
0.0
  0
SPLINE
  5
62
330
17
100
AcDbEntity
  8
3_layer 1
 62
250
370
9
100
AcDbSpline
 70
11
 71
3
 72
36
 73
32
 74
0
 42
1e-09
 40
0.0
 40
0.0
 40
0.0
 40
0.0
 40
0.1111111111111111
 40
0.1111111111111111
 40
0.1111111111111111
 40
0.1111111111111111
 40
0.2222222222222222
 40
0.2222222222222222
 40
0.2222222222222222
 40
0.2222222222222222
 40
0.3333333333333333
 40
0.3333333333333333
 40
0.3333333333333333
 40
0.3333333333333333
 40
0.4444444444444444
 40
0.4444444444444444
 40
0.4444444444444444
 40
0.4444444444444444
 40
0.5555555555555556
 40
0.5555555555555556
 40
0.5555555555555556
 40
0.5555555555555556
 40
0.6666666666666666
 40
0.6666666666666666
 40
0.6666666666666666
 40
0.6666666666666666
 40
0.7777777777777778
 40
0.7777777777777778
 40
0.7777777777777778
 40
0.7777777777777778
 40
1.0
 40
1.0
 40
1.0
 40
1.0
 10
1570.2117057169341
 20
1516.953261336248
 30
0.0
 10
1572.577805716934
 20
1516.953261336248
 30
0.0
 10
1574.9443057169342
 20
1516.953261336248
 30
0.0
 10
1577.3108057169343
 20
1516.953261336248
 30
0.0
 10
1577.3108057169343
 20
1516.953261336248
 30
0.0
 10
1579.2913057169342
 20
1516.9888613362482
 30
0.0
 10
1581.3173057169342
 20
1515.4945613362481
 30
0.0
 10
1581.3444057169343
 20
1513.0524613362481
 30
0.0
 10
1581.3444057169343
 20
1513.0524613362481
 30
0.0
 10
1581.3440057169341
 20
1507.2950613362482
 30
0.0
 10
1581.3440057169341
 20
1501.537261336248
 30
0.0
 10
1581.3444057169343
 20
1495.779061336248
 30
0.0
 10
1581.3444057169343
 20
1495.779061336248
 30
0.0
 10
1581.2023057169342
 20
1493.451461336248
 30
0.0
 10
1579.4959057169342
 20
1491.9691613362481
 30
0.0
 10
1577.3108057169343
 20
1491.9583613362481
 30
0.0
 10
1577.3108057169343
 20
1491.9583613362481
 30
0.0
 10
1574.938405716934
 20
1491.958761336248
 30
0.0
 10
1572.5660057169343
 20
1491.958761336248
 30
0.0
 10
1570.1940057169343
 20
1491.9583613362481
 30
0.0
 10
1570.1940057169343
 20
1491.9583613362481
 30
0.0
 10
1568.2355057169343
 20
1491.852761336248
 30
0.0
 10
1566.229105716934
 20
1493.7406613362482
 30
0.0
 10
1566.2405057169342
 20
1495.7616613362482
 30
0.0
 10
1566.2405057169342
 20
1495.7616613362482
 30
0.0
 10
1566.2409057169343
 20
1501.5422613362482
 30
0.0
 10
1566.2409057169343
 20
1507.322561336248
 30
0.0
 10
1566.2405057169342
 20
1513.1023613362481
 30
0.0
 10
1566.2405057169342
 20
1513.1023613362481
 30
0.0
 10
1566.2448057169343
 20
1515.244361336248
 30
0.0
 10
1568.0219057169343
 20
1516.9668613362483
 30
0.0
 10
1570.2117057169341
 20
1516.953261336248
 30
0.0
  0
SPLINE
  5
63
330
17
100
AcDbEntity
  8
3_layer 1
 62
250
370
9
100
AcDbSpline
 70
11
 71
3
 72
36
 73
32
 74
0
 42
1e-09
 40
0.0
 40
0.0
 40
0.0
 40
0.0
 40
0.1111111111111111
 40
0.1111111111111111
 40
0.1111111111111111
 40
0.1111111111111111
 40
0.2222222222222222
 40
0.2222222222222222
 40
0.2222222222222222
 40
0.2222222222222222
 40
0.3333333333333333
 40
0.3333333333333333
 40
0.3333333333333333
 40
0.3333333333333333
 40
0.4444444444444444
 40
0.4444444444444444
 40
0.4444444444444444
 40
0.4444444444444444
 40
0.5555555555555556
 40
0.5555555555555556
 40
0.5555555555555556
 40
0.5555555555555556
 40
0.6666666666666666
 40
0.6666666666666666
 40
0.6666666666666666
 40
0.6666666666666666
 40
0.7777777777777778
 40
0.7777777777777778
 40
0.7777777777777778
 40
0.7777777777777778
 40
1.0
 40
1.0
 40
1.0
 40
1.0
 10
1550.2117057169341
 20
1516.953261336248
 30
0.0
 10
1552.577805716934
 20
1516.953261336248
 30
0.0
 10
1554.9443057169342
 20
1516.953261336248
 30
0.0
 10
1557.3108057169343
 20
1516.953261336248
 30
0.0
 10
1557.3108057169343
 20
1516.953261336248
 30
0.0
 10
1559.2913057169342
 20
1516.9888613362482
 30
0.0
 10
1561.3173057169342
 20
1515.4945613362481
 30
0.0
 10
1561.3444057169343
 20
1513.0524613362481
 30
0.0
 10
1561.3444057169343
 20
1513.0524613362481
 30
0.0
 10
1561.3440057169341
 20
1507.2950613362482
 30
0.0
 10
1561.3440057169341
 20
1501.537261336248
 30
0.0
 10
1561.3444057169343
 20
1495.779061336248
 30
0.0
 10
1561.3444057169343
 20
1495.779061336248
 30
0.0
 10
1561.2023057169342
 20
1493.451461336248
 30
0.0
 10
1559.4959057169342
 20
1491.9691613362481
 30
0.0
 10
1557.3108057169343
 20
1491.9583613362481
 30
0.0
 10
1557.3108057169343
 20
1491.9583613362481
 30
0.0
 10
1554.938405716934
 20
1491.958761336248
 30
0.0
 10
1552.5660057169343
 20
1491.958761336248
 30
0.0
 10
1550.1940057169343
 20
1491.9583613362481
 30
0.0
 10
1550.1940057169343
 20
1491.9583613362481
 30
0.0
 10
1548.2355057169343
 20
1491.852761336248
 30
0.0
 10
1546.229105716934
 20
1493.7406613362482
 30
0.0
 10
1546.2405057169342
 20
1495.7616613362482
 30
0.0
 10
1546.2405057169342
 20
1495.7616613362482
 30
0.0
 10
1546.2409057169343
 20
1501.5422613362482
 30
0.0
 10
1546.2409057169343
 20
1507.322561336248
 30
0.0
 10
1546.2405057169342
 20
1513.1023613362481
 30
0.0
 10
1546.2405057169342
 20
1513.1023613362481
 30
0.0
 10
1546.2448057169343
 20
1515.244361336248
 30
0.0
 10
1548.0219057169343
 20
1516.9668613362483
 30
0.0
 10
1550.2117057169341
 20
1516.953261336248
 30
0.0
  0
SPLINE
  5
64
330
17
100
AcDbEntity
  8
3_layer 2
 62
142
370
158
100
AcDbSpline
 70
8
 71
3
 72
44
 73
40
 74
0
 42
1e-09
 40
0.0
 40
0.0
 40
0.0
 40
0.0
 40
0.0909090909090909
 40
0.0909090909090909
 40
0.0909090909090909
 40
0.0909090909090909
 40
0.1818181818181818
 40
0.1818181818181818
 40
0.1818181818181818
 40
0.1818181818181818
 40
0.2727272727272727
 40
0.2727272727272727
 40
0.2727272727272727
 40
0.2727272727272727
 40
0.3636363636363636
 40
0.3636363636363636
 40
0.3636363636363636
 40
0.3636363636363636
 40
0.4545454545454545
 40
0.4545454545454545
 40
0.4545454545454545
 40
0.4545454545454545
 40
0.5454545454545454
 40
0.5454545454545454
 40
0.5454545454545454
 40
0.5454545454545454
 40
0.6363636363636364
 40
0.6363636363636364
 40
0.6363636363636364
 40
0.6363636363636364
 40
0.7272727272727273
 40
0.7272727272727273
 40
0.7272727272727273
 40
0.7272727272727273
 40
0.8181818181818182
 40
0.8181818181818182
 40
0.8181818181818182
 40
0.8181818181818182
 40
1.0
 40
1.0
 40
1.0
 40
1.0
 10
1726.699405716934
 20
1746.502761336248
 30
0.0
 10
1729.4679057169342
 20
1666.158861336248
 30
0.0
 10
1732.5120057169343
 20
1585.8312613362482
 30
0.0
 10
1735.2034057169342
 20
1505.4827613362481
 30
0.0
 10
1735.2034057169342
 20
1505.4827613362481
 30
0.0
 10
1735.9767057169342
 20
1473.3549613362482
 30
0.0
 10
1725.2861057169343
 20
1474.6356613362482
 30
0.0
 10
1696.5928057169342
 20
1474.4528613362481
 30
0.0
 10
1696.5928057169342
 20
1474.4528613362481
 30
0.0
 10
1610.0122057169342
 20
1473.974261336248
 30
0.0
 10
1523.3650057169343
 20
1475.614361336248
 30
0.0
 10
1436.809805716934
 20
1473.1646613362482
 30
0.0
 10
1436.809805716934
 20
1473.1646613362482
 30
0.0
 10
1414.1545057169342
 20
1471.860661336248
 30
0.0
 10
1412.4024057169343
 20
1463.4726613362482
 30
0.0
 10
1398.6545057169342
 20
1447.7532613362482
 30
0.0
 10
1398.6545057169342
 20
1447.7532613362482
 30
0.0
 10
1366.392305716934
 20
1410.736861336248
 30
0.0
 10
1335.2146057169343
 20
1372.808961336248
 30
0.0
 10
1303.0622057169342
 20
1335.770261336248
 30
0.0
 10
1303.0622057169342
 20
1335.770261336248
 30
0.0
 10
1293.6473057169342
 20
1324.9245613362482
 30
0.0
 10
1287.796305716934
 20
1321.804661336248
 30
0.0
 10
1273.4242057169342
 20
1320.307161336248
 30
0.0
 10
1273.4242057169342
 20
1320.307161336248
 30
0.0
 10
1255.2663057169343
 20
1318.415261336248
 30
0.0
 10
1257.4300057169341
 20
1331.214261336248
 30
0.0
 10
1257.311805716934
 20
1345.108261336248
 30
0.0
 10
1257.311805716934
 20
1345.108261336248
 30
0.0
 10
1256.7750057169342
 20
1408.2407613362482
 30
0.0
 10
1257.0659057169341
 20
1471.510461336248
 30
0.0
 10
1256.876105716934
 20
1534.661461336248
 30
0.0
 10
1256.876105716934
 20
1534.661461336248
 30
0.0
 10
1256.6763057169342
 20
1601.086761336248
 30
0.0
 10
1256.8338057169342
 20
1667.6997613362482
 30
0.0
 10
1256.2793057169342
 20
1734.100961336248
 30
0.0
 10
1256.2793057169342
 20
1734.100961336248
 30
0.0
 10
1256.2445057169343
 20
1738.268161336248
 30
0.0
 10
1256.0438057169342
 20
1742.496561336248
 30
0.0
 10
1255.8955057169342
 20
1746.6644613362482
 30
0.0
  0
SPLINE
  5
65
330
17
100
AcDbEntity
  8
3_layer 2
 62
142
370
158
100
AcDbSpline
 70
8
 71
3
 72
20
 73
16
 74
0
 42
1e-09
 40
0.0
 40
0.0
 40
0.0
 40
0.0
 40
0.2
 40
0.2
 40
0.2
 40
0.2
 40
0.4
 40
0.4
 40
0.4
 40
0.4
 40
0.6
 40
0.6
 40
0.6
 40
0.6
 40
1.0
 40
1.0
 40
1.0
 40
1.0
 10
1353.9869057169342
 20
1896.666961336248
 30
0.0
 10
1353.5379057169343
 20
1886.712161336248
 30
0.0
 10
1353.0890057169343
 20
1876.757361336248
 30
0.0
 10
1352.6400057169342
 20
1866.8024613362481
 30
0.0
 10
1352.6400057169342
 20
1866.8024613362481
 30
0.0
 10
1351.2023057169342
 20
1834.934761336248
 30
0.0
 10
1350.0442057169344
 20
1802.9162613362482
 30
0.0
 10
1348.4983057169343
 20
1771.085461336248
 30
0.0
 10
1348.4983057169343
 20
1771.085461336248
 30
0.0
 10
1347.9556057169343
 20
1759.911561336248
 30
0.0
 10
1346.0737057169342
 20
1753.9189613362482
 30
0.0
 10
1334.3348057169342
 20
1753.5389613362481
 30
0.0
 10
1334.3348057169342
 20
1753.5389613362481
 30
0.0
 10
1334.3348057169342
 20
1753.5389613362481
 30
0.0
 10
1333.3883057169342
 20
1753.508361336248
 30
0.0
 10
1333.3883057169342
 20
1753.508361336248
 30
0.0
  0
SPLINE
  5
66
330
17
100
AcDbEntity
  8
3_layer 2
 62
142
370
158
100
AcDbSpline
 70
8
 71
3
 72
24
 73
20
 74
0
 42
1e-09
 40
0.0
 40
0.0
 40
0.0
 40
0.0
 40
0.1666666666666667
 40
0.1666666666666667
 40
0.1666666666666667
 40
0.1666666666666667
 40
0.3333333333333333
 40
0.3333333333333333
 40
0.3333333333333333
 40
0.3333333333333333
 40
0.5
 40
0.5
 40
0.5
 40
0.5
 40
0.6666666666666666
 40
0.6666666666666666
 40
0.6666666666666666
 40
0.6666666666666666
 40
1.0
 40
1.0
 40
1.0
 40
1.0
 10
1435.6751057169342
 20
1945.612161336248
 30
0.0
 10
1418.6218057169342
 20
1928.073761336248
 30
0.0
 10
1408.4327057169342
 20
1920.253761336248
 30
0.0
 10
1388.2443057169342
 20
1906.800961336248
 30
0.0
 10
1388.2443057169342
 20
1906.800961336248
 30
0.0
 10
1366.4846057169343
 20
1892.301161336248
 30
0.0
 10
1370.1489057169342
 20
1887.328361336248
 30
0.0
 10
1370.1614057169343
 20
1862.983861336248
 30
0.0
 10
1370.1614057169343
 20
1862.983861336248
 30
0.0
 10
1370.177605716934
 20
1829.693261336248
 30
0.0
 10
1370.115105716934
 20
1794.081161336248
 30
0.0
 10
1363.704805716934
 20
1761.349161336248
 30
0.0
 10
1363.704805716934
 20
1761.349161336248
 30
0.0
 10
1360.5341057169342
 20
1745.158961336248
 30
0.0
 10
1356.4598057169342
 20
1740.8820613362482
 30
0.0
 10
1339.9034057169342
 20
1737.511661336248
 30
0.0
 10
1339.9034057169342
 20
1737.511661336248
 30
0.0
 10
1315.6609057169342
 20
1732.576661336248
 30
0.0
 10
1282.1744057169342
 20
1732.954861336248
 30
0.0
 10
1256.287305716934
 20
1733.135261336248
 30
0.0
  0
SPLINE
  5
67
330
17
100
AcDbEntity
  8
3_layer 2
 62
142
370
158
100
AcDbSpline
 70
8
 71
3
 72
20
 73
16
 74
0
 42
1e-09
 40
0.0
 40
0.0
 40
0.0
 40
0.0
 40
0.2
 40
0.2
 40
0.2
 40
0.2
 40
0.4
 40
0.4
 40
0.4
 40
0.4
 40
0.6
 40
0.6
 40
0.6
 40
0.6
 40
1.0
 40
1.0
 40
1.0
 40
1.0
 10
1776.5740057169342
 20
1798.0207613362481
 30
0.0
 10
1779.1536057169342
 20
1701.2970613362481
 30
0.0
 10
1782.9432057169342
 20
1604.8604613362481
 30
0.0
 10
1787.0956057169342
 20
1508.201261336248
 30
0.0
 10
1787.0956057169342
 20
1508.201261336248
 30
0.0
 10
1788.2751057169341
 20
1482.143661336248
 30
0.0
 10
1791.076905716934
 20
1453.1674613362482
 30
0.0
 10
1763.2171057169342
 20
1440.224161336248
 30
0.0
 10
1763.2171057169342
 20
1440.224161336248
 30
0.0
 10
1746.9390057169342
 20
1432.661561336248
 30
0.0
 10
1720.7773057169343
 20
1429.241361336248
 30
0.0
 10
1702.5068057169342
 20
1425.267661336248
 30
0.0
 10
1702.5068057169342
 20
1425.267661336248
 30
0.0
 10
1696.698305716934
 20
1424.0043613362482
 30
0.0
 10
1690.8907057169342
 20
1422.736861336248
 30
0.0
 10
1685.083405716934
 20
1421.468361336248
 30
0.0
  0
SPLINE
  5
68
330
17
100
AcDbEntity
  8
3_layer 2
 62
142
370
158
100
AcDbSpline
 70
8
 71
3
 72
20
 73
16
 74
0
 42
1e-09
 40
0.0
 40
0.0
 40
0.0
 40
0.0
 40
0.2
 40
0.2
 40
0.2
 40
0.2
 40
0.4
 40
0.4
 40
0.4
 40
0.4
 40
0.6
 40
0.6
 40
0.6
 40
0.6
 40
1.0
 40
1.0
 40
1.0
 40
1.0
 10
1894.9128057169341
 20
1394.311961336248
 30
0.0
 10
1861.4653057169342
 20
1392.337161336248
 30
0.0
 10
1827.127705716934
 20
1391.265561336248
 30
0.0
 10
1793.8493057169342
 20
1388.4174613362482
 30
0.0
 10
1793.8493057169342
 20
1388.4174613362482
 30
0.0
 10
1769.9581057169341
 20
1386.372761336248
 30
0.0
 10
1745.299905716934
 20
1380.938561336248
 30
0.0
 10
1721.5518057169343
 20
1376.793961336248
 30
0.0
 10
1721.5518057169343
 20
1376.793961336248
 30
0.0
 10
1719.089705716934
 20
1376.364261336248
 30
0.0
 10
1716.6278057169343
 20
1375.9338613362481
 30
0.0
 10
1714.1660057169343
 20
1375.502261336248
 30
0.0
 10
1714.1660057169343
 20
1375.502261336248
 30
0.0
 10
1709.2333057169342
 20
1374.636461336248
 30
0.0
 10
1704.3006057169341
 20
1373.7706613362482
 30
0.0
 10
1699.3679057169343
 20
1372.9048613362481
 30
0.0
  0
SPLINE
  5
69
330
17
100
AcDbEntity
  8
3_layer 3
 62
242
370
158
100
AcDbSpline
 70
11
 71
3
 72
200
 73
196
 74
0
 42
1e-09
 40
0.0
 40
0.0
 40
0.0
 40
0.0
 40
0.02
 40
0.02
 40
0.02
 40
0.02
 40
0.04
 40
0.04
 40
0.04
 40
0.04
 40
0.06
 40
0.06
 40
0.06
 40
0.06
 40
0.08
 40
0.08
 40
0.08
 40
0.08
 40
0.1
 40
0.1
 40
0.1
 40
0.1
 40
0.12
 40
0.12
 40
0.12
 40
0.12
 40
0.14
 40
0.14
 40
0.14
 40
0.14
 40
0.16
 40
0.16
 40
0.16
 40
0.16
 40
0.18
 40
0.18
 40
0.18
 40
0.18
 40
0.2
 40
0.2
 40
0.2
 40
0.2
 40
0.22
 40
0.22
 40
0.22
 40
0.22
 40
0.24
 40
0.24
 40
0.24
 40
0.24
 40
0.26
 40
0.26
 40
0.26
 40
0.26
 40
0.28
 40
0.28
 40
0.28
 40
0.28
 40
0.3
 40
0.3
 40
0.3
 40
0.3
 40
0.32
 40
0.32
 40
0.32
 40
0.32
 40
0.34
 40
0.34
 40
0.34
 40
0.34
 40
0.36
 40
0.36
 40
0.36
 40
0.36
 40
0.38
 40
0.38
 40
0.38
 40
0.38
 40
0.4
 40
0.4
 40
0.4
 40
0.4
 40
0.42
 40
0.42
 40
0.42
 40
0.42
 40
0.44
 40
0.44
 40
0.44
 40
0.44
 40
0.46
 40
0.46
 40
0.46
 40
0.46
 40
0.48
 40
0.48
 40
0.48
 40
0.48
 40
0.5
 40
0.5
 40
0.5
 40
0.5
 40
0.52
 40
0.52
 40
0.52
 40
0.52
 40
0.54
 40
0.54
 40
0.54
 40
0.54
 40
0.56
 40
0.56
 40
0.56
 40
0.56
 40
0.58
 40
0.58
 40
0.58
 40
0.58
 40
0.6
 40
0.6
 40
0.6
 40
0.6
 40
0.62
 40
0.62
 40
0.62
 40
0.62
 40
0.64
 40
0.64
 40
0.64
 40
0.64
 40
0.66
 40
0.66
 40
0.66
 40
0.66
 40
0.68
 40
0.68
 40
0.68
 40
0.68
 40
0.7
 40
0.7
 40
0.7
 40
0.7
 40
0.72
 40
0.72
 40
0.72
 40
0.72
 40
0.74
 40
0.74
 40
0.74
 40
0.74
 40
0.76
 40
0.76
 40
0.76
 40
0.76
 40
0.78
 40
0.78
 40
0.78
 40
0.78
 40
0.8
 40
0.8
 40
0.8
 40
0.8
 40
0.82
 40
0.82
 40
0.82
 40
0.82
 40
0.84
 40
0.84
 40
0.84
 40
0.84
 40
0.86
 40
0.86
 40
0.86
 40
0.86
 40
0.88
 40
0.88
 40
0.88
 40
0.88
 40
0.9
 40
0.9
 40
0.9
 40
0.9
 40
0.92
 40
0.92
 40
0.92
 40
0.92
 40
0.94
 40
0.94
 40
0.94
 40
0.94
 40
0.96
 40
0.96
 40
0.96
 40
0.96
 40
1.0
 40
1.0
 40
1.0
 40
1.0
 10
1340.8167057169342
 20
1874.209661336248
 30
0.0
 10
1337.8385057169342
 20
1868.105461336248
 30
0.0
 10
1333.1589057169342
 20
1849.7226613362482
 30
0.0
 10
1332.8159057169341
 20
1842.9818613362481
 30
0.0
 10
1332.8159057169341
 20
1842.9818613362481
 30
0.0
 10
1332.1215057169343
 20
1829.418361336248
 30
0.0
 10
1329.4859057169342
 20
1793.375861336248
 30
0.0
 10
1331.9491057169344
 20
1781.846361336248
 30
0.0
 10
1331.9491057169344
 20
1781.846361336248
 30
0.0
 10
1333.2901057169342
 20
1775.5697613362481
 30
0.0
 10
1339.049005716934
 20
1758.166861336248
 30
0.0
 10
1333.3883057169342
 20
1753.508361336248
 30
0.0
 10
1333.3883057169342
 20
1753.508361336248
 30
0.0
 10
1330.2550057169342
 20
1750.929761336248
 30
0.0
 10
1244.860605716934
 20
1745.5722613362482
 30
0.0
 10
1235.6816057169342
 20
1745.088561336248
 30
0.0
 10
1235.6816057169342
 20
1745.088561336248
 30
0.0
 10
1225.125205716934
 20
1744.532361336248
 30
0.0
 10
1223.6119057169342
 20
1741.552661336248
 30
0.0
 10
1223.2974057169342
 20
1735.9380613362482
 30
0.0
 10
1223.2974057169342
 20
1735.9380613362482
 30
0.0
 10
1223.183005716934
 20
1733.896261336248
 30
0.0
 10
1223.109505716934
 20
1731.445861336248
 30
0.0
 10
1223.1004057169343
 20
1728.756461336248
 30
0.0
 10
1223.1004057169343
 20
1728.756461336248
 30
0.0
 10
1223.0320057169342
 20
1708.539061336248
 30
0.0
 10
1222.9066057169343
 20
1685.922661336248
 30
0.0
 10
1223.9655057169343
 20
1665.978561336248
 30
0.0
 10
1223.9655057169343
 20
1665.978561336248
 30
0.0
 10
1227.5323057169342
 20
1633.0767613362482
 30
0.0
 10
1244.7399057169341
 20
1646.2766613362483
 30
0.0
 10
1246.0195057169342
 20
1610.654661336248
 30
0.0
 10
1246.0195057169342
 20
1610.654661336248
 30
0.0
 10
1247.5976057169341
 20
1561.328661336248
 30
0.0
 10
1247.1484057169341
 20
1511.5162613362481
 30
0.0
 10
1247.9477057169343
 20
1462.078861336248
 30
0.0
 10
1247.9477057169343
 20
1462.078861336248
 30
0.0
 10
1248.5758057169342
 20
1419.1747613362481
 30
0.0
 10
1248.4644057169342
 20
1376.235061336248
 30
0.0
 10
1249.924705716934
 20
1333.349261336248
 30
0.0
 10
1249.924705716934
 20
1333.349261336248
 30
0.0
 10
1254.2689057169341
 20
1302.355361336248
 30
0.0
 10
1271.1724057169342
 20
1311.8386613362482
 30
0.0
 10
1293.1997057169342
 20
1317.002161336248
 30
0.0
 10
1293.1997057169342
 20
1317.002161336248
 30
0.0
 10
1307.8422057169341
 20
1319.948461336248
 30
0.0
 10
1315.346205716934
 20
1312.321661336248
 30
0.0
 10
1327.1327057169342
 20
1304.8966613362481
 30
0.0
 10
1327.1327057169342
 20
1304.8966613362481
 30
0.0
 10
1349.5884057169342
 20
1290.750461336248
 30
0.0
 10
1372.7012057169343
 20
1276.3321613362482
 30
0.0
 10
1395.8070057169343
 20
1263.3233613362481
 30
0.0
 10
1395.8070057169343
 20
1263.3233613362481
 30
0.0
 10
1395.8070057169343
 20
1263.3233613362481
 30
0.0
 10
1397.0775057169342
 20
1262.6177613362481
 30
0.0
 10
1397.0775057169342
 20
1262.6177613362481
 30
0.0
 10
1397.0775057169342
 20
1262.6177613362481
 30
0.0
 10
1422.475505716934
 20
1248.5713613362482
 30
0.0
 10
1422.0041057169342
 20
1268.937561336248
 30
0.0
 10
1421.1157057169341
 20
1288.218761336248
 30
0.0
 10
1421.1157057169341
 20
1288.218761336248
 30
0.0
 10
1420.2958057169342
 20
1309.058461336248
 30
0.0
 10
1413.8226057169343
 20
1458.8756613362482
 30
0.0
 10
1416.884005716934
 20
1466.861561336248
 30
0.0
 10
1416.884005716934
 20
1466.861561336248
 30
0.0
 10
1418.2690057169343
 20
1470.4745613362481
 30
0.0
 10
1424.7417057169341
 20
1472.3540613362482
 30
0.0
 10
1428.4821057169343
 20
1468.9788613362482
 30
0.0
 10
1428.4821057169343
 20
1468.9788613362482
 30
0.0
 10
1430.2728057169343
 20
1467.3629613362482
 30
0.0
 10
1430.794305716934
 20
1461.999561336248
 30
0.0
 10
1431.5060057169342
 20
1459.0679613362481
 30
0.0
 10
1431.5060057169342
 20
1459.0679613362481
 30
0.0
 10
1433.9011057169341
 20
1449.201561336248
 30
0.0
 10
1435.004505716934
 20
1430.873661336248
 30
0.0
 10
1435.8683057169342
 20
1420.107861336248
 30
0.0
 10
1435.8683057169342
 20
1420.107861336248
 30
0.0
 10
1436.1471057169342
 20
1416.632361336248
 30
0.0
 10
1436.4353057169342
 20
1413.174061336248
 30
0.0
 10
1436.8312057169342
 20
1409.709361336248
 30
0.0
 10
1436.8312057169342
 20
1409.709361336248
 30
0.0
 10
1437.294305716934
 20
1405.871761336248
 30
0.0
 10
1438.3612057169341
 20
1395.1765613362481
 30
0.0
 10
1441.4741057169342
 20
1392.602861336248
 30
0.0
 10
1441.4741057169342
 20
1392.602861336248
 30
0.0
 10
1453.7094057169343
 20
1387.158061336248
 30
0.0
 10
1458.8308057169343
 20
1391.338861336248
 30
0.0
 10
1468.8662057169342
 20
1378.3286613362482
 30
0.0
 10
1468.8662057169342
 20
1378.3286613362482
 30
0.0
 10
1477.8998057169342
 20
1364.532661336248
 30
0.0
 10
1477.5940057169341
 20
1355.071061336248
 30
0.0
 10
1482.3587057169343
 20
1340.6322613362481
 30
0.0
 10
1482.3587057169343
 20
1340.6322613362481
 30
0.0
 10
1485.9787057169342
 20
1329.6621613362481
 30
0.0
 10
1494.144105716934
 20
1331.791261336248
 30
0.0
 10
1504.1917057169342
 20
1332.019461336248
 30
0.0
 10
1504.1917057169342
 20
1332.019461336248
 30
0.0
 10
1550.3365057169342
 20
1332.9554613362482
 30
0.0
 10
1594.9437057169341
 20
1332.5623613362482
 30
0.0
 10
1641.0584057169342
 20
1330.5487613362482
 30
0.0
 10
1641.0584057169342
 20
1330.5487613362482
 30
0.0
 10
1660.8137057169342
 20
1330.183061336248
 30
0.0
 10
1657.8513057169343
 20
1335.137361336248
 30
0.0
 10
1658.4143057169342
 20
1352.775861336248
 30
0.0
 10
1658.4143057169342
 20
1352.775861336248
 30
0.0
 10
1659.183005716934
 20
1367.527661336248
 30
0.0
 10
1665.8799057169342
 20
1416.5649613362482
 30
0.0
 10
1682.0894057169342
 20
1421.4420613362481
 30
0.0
 10
1682.0894057169342
 20
1421.4420613362481
 30
0.0
 10
1690.1125057169343
 20
1423.856061336248
 30
0.0
 10
1692.0467057169342
 20
1407.9481613362482
 30
0.0
 10
1693.1557057169343
 20
1402.5595613362482
 30
0.0
 10
1693.1557057169343
 20
1402.5595613362482
 30
0.0
 10
1695.0707057169343
 20
1393.406161336248
 30
0.0
 10
1703.3168057169341
 20
1352.0649613362482
 30
0.0
 10
1706.1173057169342
 20
1346.592661336248
 30
0.0
 10
1706.1173057169342
 20
1346.592661336248
 30
0.0
 10
1709.8337057169342
 20
1339.330661336248
 30
0.0
 10
1716.9942057169342
 20
1343.609761336248
 30
0.0
 10
1723.5382057169343
 20
1345.4609613362481
 30
0.0
 10
1723.5382057169343
 20
1345.4609613362481
 30
0.0
 10
1756.9162057169342
 20
1353.464161336248
 30
0.0
 10
1801.699405716934
 20
1353.9392613362481
 30
0.0
 10
1836.4920057169343
 20
1354.925261336248
 30
0.0
 10
1836.4920057169343
 20
1354.925261336248
 30
0.0
 10
1851.786205716934
 20
1355.333561336248
 30
0.0
 10
1866.5312057169342
 20
1355.381061336248
 30
0.0
 10
1881.8133057169343
 20
1355.335461336248
 30
0.0
 10
1881.8133057169343
 20
1355.335461336248
 30
0.0
 10
1898.800805716934
 20
1355.833461336248
 30
0.0
 10
1897.3268057169344
 20
1359.5496613362482
 30
0.0
 10
1896.219405716934
 20
1374.879861336248
 30
0.0
 10
1896.219405716934
 20
1374.879861336248
 30
0.0
 10
1890.2432057169342
 20
1460.968661336248
 30
0.0
 10
1886.8077057169342
 20
1547.3047613362482
 30
0.0
 10
1883.4079057169342
 20
1633.5307613362481
 30
0.0
 10
1883.4079057169342
 20
1633.5307613362481
 30
0.0
 10
1882.6774057169341
 20
1649.2287613362482
 30
0.0
 10
1881.064505716934
 20
1647.931661336248
 30
0.0
 10
1865.5279057169341
 20
1649.7226613362482
 30
0.0
 10
1865.5279057169341
 20
1649.7226613362482
 30
0.0
 10
1852.7622057169342
 20
1651.194261336248
 30
0.0
 10
1808.2185057169343
 20
1654.1484613362481
 30
0.0
 10
1800.722805716934
 20
1662.713561336248
 30
0.0
 10
1800.722805716934
 20
1662.713561336248
 30
0.0
 10
1793.248205716934
 20
1671.254661336248
 30
0.0
 10
1795.5424057169344
 20
1691.287361336248
 30
0.0
 10
1795.6919057169343
 20
1702.1629613362481
 30
0.0
 10
1795.6919057169343
 20
1702.1629613362481
 30
0.0
 10
1795.7535057169343
 20
1713.4571613362482
 30
0.0
 10
1797.1321057169343
 20
1790.361261336248
 30
0.0
 10
1795.9306057169342
 20
1794.4971613362482
 30
0.0
 10
1795.9306057169342
 20
1794.4971613362482
 30
0.0
 10
1794.632405716934
 20
1798.965761336248
 30
0.0
 10
1787.405805716934
 20
1798.007661336248
 30
0.0
 10
1783.328005716934
 20
1797.996461336248
 30
0.0
 10
1783.328005716934
 20
1797.996461336248
 30
0.0
 10
1777.3270057169343
 20
1797.9798613362482
 30
0.0
 10
1750.291805716934
 20
1798.487661336248
 30
0.0
 10
1746.7962057169343
 20
1795.640661336248
 30
0.0
 10
1746.7962057169343
 20
1795.640661336248
 30
0.0
 10
1738.7132057169342
 20
1784.908761336248
 30
0.0
 10
1749.0170057169344
 20
1751.0108613362481
 30
0.0
 10
1734.107005716934
 20
1747.1282613362482
 30
0.0
 10
1734.107005716934
 20
1747.1282613362482
 30
0.0
 10
1726.196705716934
 20
1745.8141613362482
 30
0.0
 10
1691.1921057169343
 20
1745.6030613362482
 30
0.0
 10
1685.2605057169342
 20
1749.514561336248
 30
0.0
 10
1685.2605057169342
 20
1749.514561336248
 30
0.0
 10
1679.8646057169342
 20
1753.072761336248
 30
0.0
 10
1684.7094057169343
 20
1764.690461336248
 30
0.0
 10
1685.5048057169342
 20
1770.1246613362482
 30
0.0
 10
1685.5048057169342
 20
1770.1246613362482
 30
0.0
 10
1691.1773057169341
 20
1808.8813613362481
 30
0.0
 10
1694.0973057169342
 20
1904.001561336248
 30
0.0
 10
1695.290005716934
 20
1944.765561336248
 30
0.0
 10
1695.290005716934
 20
1944.765561336248
 30
0.0
 10
1695.4014057169343
 20
1948.574161336248
 30
0.0
 10
1694.9293057169343
 20
1951.160961336248
 30
0.0
 10
1691.9000057169342
 20
1952.4845613362481
 30
0.0
 10
1691.9000057169342
 20
1952.4845613362481
 30
0.0
 10
1686.800805716934
 20
1954.7127613362481
 30
0.0
 10
1667.6671057169342
 20
1952.6385613362481
 30
0.0
 10
1660.5498057169343
 20
1952.423761336248
 30
0.0
 10
1660.5498057169343
 20
1952.423761336248
 30
0.0
 10
1590.401305716934
 20
1950.352261336248
 30
0.0
 10
1519.3456057169342
 20
1950.6185613362481
 30
0.0
 10
1449.3836057169342
 20
1946.883461336248
 30
0.0
 10
1449.3836057169342
 20
1946.883461336248
 30
0.0
 10
1414.1591057169342
 20
1945.002961336248
 30
0.0
 10
1399.9363057169342
 20
1935.179861336248
 30
0.0
 10
1372.4549057169343
 20
1914.930361336248
 30
0.0
 10
1372.4549057169343
 20
1914.930361336248
 30
0.0
 10
1357.0177057169342
 20
1903.534761336248
 30
0.0
 10
1349.1383057169342
 20
1891.127661336248
 30
0.0
 10
1340.8167057169342
 20
1874.209661336248
 30
0.0
  0
ENDSEC
  0
SECTION
  2
OBJECTS
  0
DICTIONARY
  5
A
330
0
100
AcDbDictionary
281
1
  3
ACAD_COLOR
350
B
  3
ACAD_GROUP
350
C
  3
ACAD_LAYOUT
350
D
  3
ACAD_MATERIAL
350
E
  3
ACAD_MLEADERSTYLE
350
F
  3
ACAD_MLINESTYLE
350
10
  3
ACAD_PLOTSETTINGS
350
11
  3
ACAD_PLOTSTYLENAME
350
12
  3
ACAD_SCALELIST
350
14
  3
ACAD_TABLESTYLE
350
15
  3
ACAD_VISUALSTYLE
350
16
  3
EZDXF_META
350
2D
  0
DICTIONARY
  5
B
330
A
100
AcDbDictionary
281
1
  0
DICTIONARY
  5
C
330
A
100
AcDbDictionary
281
1
  0
DICTIONARY
  5
D
330
A
100
AcDbDictionary
281
1
  3
Model
350
1A
  3
Layout1
350
1E
  0
DICTIONARY
  5
E
330
A
100
AcDbDictionary
281
1
  3
ByBlock
350
1F
  3
ByLayer
350
20
  3
Global
350
21
  0
DICTIONARY
  5
F
330
A
100
AcDbDictionary
281
1
  3
Standard
350
2C
  0
DICTIONARY
  5
10
330
A
100
AcDbDictionary
281
1
  3
Standard
350
22
  0
DICTIONARY
  5
11
330
A
100
AcDbDictionary
281
1
  0
ACDBDICTIONARYWDFLT
  5
12
330
A
100
AcDbDictionary
281
1
  3
Normal
350
13
100
AcDbDictionaryWithDefault
340
13
  0
ACDBPLACEHOLDER
  5
13
330
12
  0
DICTIONARY
  5
14
330
A
100
AcDbDictionary
281
1
  0
DICTIONARY
  5
15
330
A
100
AcDbDictionary
281
1
  0
DICTIONARY
  5
16
330
A
100
AcDbDictionary
281
1
  0
LAYOUT
  5
1A
330
D
100
AcDbPlotSettings
  1

  4
A3
  6

 40
7.5
 41
20.0
 42
7.5
 43
20.0
 44
420.0
 45
297.0
 46
0.0
 47
0.0
 48
0.0
 49
0.0
140
0.0
141
0.0
142
1.0
143
1.0
 70
1024
 72
1
 73
0
 74
5
  7

 75
16
 76
0
 77
2
 78
300
147
1.0
148
0.0
149
0.0
100
AcDbLayout
  1
Model
 70
1
 71
0
 10
0.0
 20
0.0
 11
420.0
 21
297.0
 12
0.0
 22
0.0
 32
0.0
 14
1e+20
 24
1e+20
 34
1e+20
 15
-1e+20
 25
-1e+20
 35
-1e+20
146
0.0
 13
0.0
 23
0.0
 33
0.0
 16
1.0
 26
0.0
 36
0.0
 17
0.0
 27
1.0
 37
0.0
 76
1
330
17
  0
LAYOUT
  5
1E
330
D
100
AcDbPlotSettings
  1

  4
A3
  6

 40
7.5
 41
20.0
 42
7.5
 43
20.0
 44
420.0
 45
297.0
 46
0.0
 47
0.0
 48
0.0
 49
0.0
140
0.0
141
0.0
142
1.0
143
1.0
 70
0
 72
1
 73
0
 74
5
  7

 75
16
 76
0
 77
2
 78
300
147
1.0
148
0.0
149
0.0
100
AcDbLayout
  1
Layout1
 70
1
 71
1
 10
0.0
 20
0.0
 11
420.0
 21
297.0
 12
0.0
 22
0.0
 32
0.0
 14
1e+20
 24
1e+20
 34
1e+20
 15
-1e+20
 25
-1e+20
 35
-1e+20
146
0.0
 13
0.0
 23
0.0
 33
0.0
 16
1.0
 26
0.0
 36
0.0
 17
0.0
 27
1.0
 37
0.0
 76
1
330
1B
  0
MATERIAL
  5
1F
102
{ACAD_REACTORS
330
E
102
}
330
E
100
AcDbMaterial
  1
ByBlock
  2

 70
0
 40
1.0
 71
1
 41
1.0
 91
-1023410177
 42
1.0
 72
1
  3

 73
1
 74
1
 75
1
 44
0.5
 73
0
 45
1.0
 46
1.0
 77
1
  4

 78
1
 79
1
170
1
 48
1.0
171
1
  6

172
1
173
1
174
1
140
1.0
141
1.0
175
1
  7

176
1
177
1
178
1
143
1.0
179
1
  8

270
1
271
1
272
1
145
1.0
146
1.0
273
1
  9

274
1
275
1
276
1
 42
1.0
 72
1
  3

 73
1
 74
1
 75
1
 94
63
  0
MATERIAL
  5
20
102
{ACAD_REACTORS
330
E
102
}
330
E
100
AcDbMaterial
  1
ByLayer
  2

 70
0
 40
1.0
 71
1
 41
1.0
 91
-1023410177
 42
1.0
 72
1
  3

 73
1
 74
1
 75
1
 44
0.5
 73
0
 45
1.0
 46
1.0
 77
1
  4

 78
1
 79
1
170
1
 48
1.0
171
1
  6

172
1
173
1
174
1
140
1.0
141
1.0
175
1
  7

176
1
177
1
178
1
143
1.0
179
1
  8

270
1
271
1
272
1
145
1.0
146
1.0
273
1
  9

274
1
275
1
276
1
 42
1.0
 72
1
  3

 73
1
 74
1
 75
1
 94
63
  0
MATERIAL
  5
21
102
{ACAD_REACTORS
330
E
102
}
330
E
100
AcDbMaterial
  1
Global
  2

 70
0
 40
1.0
 71
1
 41
1.0
 91
-1023410177
 42
1.0
 72
1
  3

 73
1
 74
1
 75
1
 44
0.5
 73
0
 45
1.0
 46
1.0
 77
1
  4

 78
1
 79
1
170
1
 48
1.0
171
1
  6

172
1
173
1
174
1
140
1.0
141
1.0
175
1
  7

176
1
177
1
178
1
143
1.0
179
1
  8

270
1
271
1
272
1
145
1.0
146
1.0
273
1
  9

274
1
275
1
276
1
 42
1.0
 72
1
  3

 73
1
 74
1
 75
1
 94
63
  0
MLINESTYLE
  5
22
102
{ACAD_REACTORS
330
10
102
}
330
10
100
AcDbMlineStyle
  2
Standard
 70
0
  3

 62
256
 51
90.0
 52
90.0
 71
2
 49
0.5
 62
256
  6
BYLAYER
 49
-0.5
 62
256
  6
BYLAYER
  0
MLEADERSTYLE
  5
2C
102
{ACAD_REACTORS
330
F
102
}
330
F
100
AcDbMLeaderStyle
179
2
170
2
171
1
172
0
 90
2
 40
0.0
 41
0.0
173
1
 91
-1056964608
 92
-2
290
1
 42
2.0
291
1
 43
8.0
  3
Standard
 44
4.0
300

342
29
174
1
175
1
176
0
178
1
 93
-1056964608
 45
4.0
292
0
297
0
 46
4.0
 94
-1056964608
 47
1.0
 49
1.0
140
1.0
294
1
141
0.0
177
0
142
1.0
295
0
296
0
143
3.75
271
0
272
9
273
9
  0
DICTIONARY
  5
2D
330
A
100
AcDbDictionary
280
1
281
1
  3
CREATED_BY_EZDXF
350
2E
  3
WRITTEN_BY_EZDXF
350
6C
  0
DICTIONARYVAR
  5
2E
330
2D
100
DictionaryVariables
280
0
  1
1.4.2 @ 2025-08-15T07:47:55.248835+00:00
  0
DICTIONARYVAR
  5
6C
330
2D
100
DictionaryVariables
280
0
  1
1.4.2 @ 2025-08-15T07:47:55.257760+00:00
  0
ENDSEC
  0
EOF
