  0
SECTION
  2
HEADER
  9
$ACADVER
  1
AC1024
  9
$ACADMAINTVER
 70
6
  9
$DWGCODEPAGE
  3
ANSI_1252
  9
$LASTSAVEDBY
  1
ezdxf
  9
$INSBASE
 10
0.0
 20
0.0
 30
0.0
  9
$EXTMIN
 10
1e+20
 20
1e+20
 30
1e+20
  9
$EXTMAX
 10
-1e+20
 20
-1e+20
 30
-1e+20
  9
$LIMMIN
 10
0.0
 20
0.0
  9
$LIMMAX
 10
420.0
 20
297.0
  9
$ORTHOMODE
 70
0
  9
$REGENMODE
 70
1
  9
$FILLMODE
 70
1
  9
$QTEXTMODE
 70
0
  9
$MIRRTEXT
 70
1
  9
$LTSCALE
 40
1.0
  9
$ATTMODE
 70
1
  9
$TEXTSIZE
 40
2.5
  9
$TRACEWID
 40
1.0
  9
$TEXTSTYLE
  7
Standard
  9
$CLAYER
  8
0
  9
$CELTYPE
  6
ByLayer
  9
$CECOLOR
 62
256
  9
$CELTSCALE
 40
1.0
  9
$DISPSILH
 70
0
  9
$DIMSCALE
 40
1.0
  9
$DIMASZ
 40
2.5
  9
$DIMEXO
 40
0.625
  9
$DIMDLI
 40
3.75
  9
$DIMRND
 40
0.0
  9
$DIMDLE
 40
0.0
  9
$DIMEXE
 40
1.25
  9
$DIMTP
 40
0.0
  9
$DIMTM
 40
0.0
  9
$DIMTXT
 40
2.5
  9
$DIMCEN
 40
2.5
  9
$DIMTSZ
 40
0.0
  9
$DIMTOL
 70
0
  9
$DIMLIM
 70
0
  9
$DIMTIH
 70
0
  9
$DIMTOH
 70
0
  9
$DIMSE1
 70
0
  9
$DIMSE2
 70
0
  9
$DIMTAD
 70
1
  9
$DIMZIN
 70
8
  9
$DIMBLK
  1

  9
$DIMASO
 70
1
  9
$DIMSHO
 70
1
  9
$DIMPOST
  1

  9
$DIMAPOST
  1

  9
$DIMALT
 70
0
  9
$DIMALTD
 70
3
  9
$DIMALTF
 40
0.03937007874
  9
$DIMLFAC
 40
1.0
  9
$DIMTOFL
 70
1
  9
$DIMTVP
 40
0.0
  9
$DIMTIX
 70
0
  9
$DIMSOXD
 70
0
  9
$DIMSAH
 70
0
  9
$DIMBLK1
  1

  9
$DIMBLK2
  1

  9
$DIMSTYLE
  2
ISO-25
  9
$DIMCLRD
 70
0
  9
$DIMCLRE
 70
0
  9
$DIMCLRT
 70
0
  9
$DIMTFAC
 40
1.0
  9
$DIMGAP
 40
0.625
  9
$DIMJUST
 70
0
  9
$DIMSD1
 70
0
  9
$DIMSD2
 70
0
  9
$DIMTOLJ
 70
0
  9
$DIMTZIN
 70
8
  9
$DIMALTZ
 70
0
  9
$DIMALTTZ
 70
0
  9
$DIMUPT
 70
0
  9
$DIMDEC
 70
2
  9
$DIMTDEC
 70
2
  9
$DIMALTU
 70
2
  9
$DIMALTTD
 70
3
  9
$DIMTXSTY
  7
Standard
  9
$DIMAUNIT
 70
0
  9
$DIMADEC
 70
0
  9
$DIMALTRND
 40
0.0
  9
$DIMAZIN
 70
0
  9
$DIMDSEP
 70
44
  9
$DIMATFIT
 70
3
  9
$DIMFRAC
 70
0
  9
$DIMLDRBLK
  1

  9
$DIMLUNIT
 70
2
  9
$DIMLWD
 70
-2
  9
$DIMLWE
 70
-2
  9
$DIMTMOVE
 70
0
  9
$DIMFXL
 40
1.0
  9
$DIMFXLON
 70
0
  9
$DIMJOGANG
 40
0.785398163397
  9
$DIMTFILL
 70
0
  9
$DIMTFILLCLR
 70
0
  9
$DIMARCSYM
 70
0
  9
$DIMLTYPE
  6

  9
$DIMLTEX1
  6

  9
$DIMLTEX2
  6

  9
$DIMTXTDIRECTION
 70
0
  9
$LUNITS
 70
2
  9
$LUPREC
 70
4
  9
$SKETCHINC
 40
1.0
  9
$FILLETRAD
 40
10.0
  9
$AUNITS
 70
0
  9
$AUPREC
 70
2
  9
$MENU
  1
.
  9
$ELEVATION
 40
0.0
  9
$PELEVATION
 40
0.0
  9
$THICKNESS
 40
0.0
  9
$LIMCHECK
 70
0
  9
$CHAMFERA
 40
0.0
  9
$CHAMFERB
 40
0.0
  9
$CHAMFERC
 40
0.0
  9
$CHAMFERD
 40
0.0
  9
$SKPOLY
 70
0
  9
$TDCREATE
 40
2460911.7030555555
  9
$TDUCREATE
 40
2458532.153996898
  9
$TDUPDATE
 40
2460911.7030555555
  9
$TDUUPDATE
 40
2458532.1544311
  9
$TDINDWG
 40
0.0
  9
$TDUSRTIMER
 40
0.0
  9
$USRTIMER
 70
1
  9
$ANGBASE
 50
0.0
  9
$ANGDIR
 70
0
  9
$PDMODE
 70
0
  9
$PDSIZE
 40
0.0
  9
$PLINEWID
 40
0.0
  9
$SPLFRAME
 70
0
  9
$SPLINETYPE
 70
6
  9
$SPLINESEGS
 70
8
  9
$HANDSEED
  5
61
  9
$SURFTAB1
 70
6
  9
$SURFTAB2
 70
6
  9
$SURFTYPE
 70
6
  9
$SURFU
 70
6
  9
$SURFV
 70
6
  9
$UCSBASE
  2

  9
$UCSNAME
  2

  9
$UCSORG
 10
0.0
 20
0.0
 30
0.0
  9
$UCSXDIR
 10
1.0
 20
0.0
 30
0.0
  9
$UCSYDIR
 10
0.0
 20
1.0
 30
0.0
  9
$UCSORTHOREF
  2

  9
$UCSORTHOVIEW
 70
0
  9
$UCSORGTOP
 10
0.0
 20
0.0
 30
0.0
  9
$UCSORGBOTTOM
 10
0.0
 20
0.0
 30
0.0
  9
$UCSORGLEFT
 10
0.0
 20
0.0
 30
0.0
  9
$UCSORGRIGHT
 10
0.0
 20
0.0
 30
0.0
  9
$UCSORGFRONT
 10
0.0
 20
0.0
 30
0.0
  9
$UCSORGBACK
 10
0.0
 20
0.0
 30
0.0
  9
$PUCSBASE
  2

  9
$PUCSNAME
  2

  9
$PUCSORG
 10
0.0
 20
0.0
 30
0.0
  9
$PUCSXDIR
 10
1.0
 20
0.0
 30
0.0
  9
$PUCSYDIR
 10
0.0
 20
1.0
 30
0.0
  9
$PUCSORTHOREF
  2

  9
$PUCSORTHOVIEW
 70
0
  9
$PUCSORGTOP
 10
0.0
 20
0.0
 30
0.0
  9
$PUCSORGBOTTOM
 10
0.0
 20
0.0
 30
0.0
  9
$PUCSORGLEFT
 10
0.0
 20
0.0
 30
0.0
  9
$PUCSORGRIGHT
 10
0.0
 20
0.0
 30
0.0
  9
$PUCSORGFRONT
 10
0.0
 20
0.0
 30
0.0
  9
$PUCSORGBACK
 10
0.0
 20
0.0
 30
0.0
  9
$USERI1
 70
0
  9
$USERI2
 70
0
  9
$USERI3
 70
0
  9
$USERI4
 70
0
  9
$USERI5
 70
0
  9
$USERR1
 40
0.0
  9
$USERR2
 40
0.0
  9
$USERR3
 40
0.0
  9
$USERR4
 40
0.0
  9
$USERR5
 40
0.0
  9
$WORLDVIEW
 70
1
  9
$SHADEDGE
 70
3
  9
$SHADEDIF
 70
70
  9
$TILEMODE
 70
1
  9
$MAXACTVP
 70
64
  9
$PINSBASE
 10
0.0
 20
0.0
 30
0.0
  9
$PLIMCHECK
 70
0
  9
$PEXTMIN
 10
1e+20
 20
1e+20
 30
1e+20
  9
$PEXTMAX
 10
-1e+20
 20
-1e+20
 30
-1e+20
  9
$PLIMMIN
 10
0.0
 20
0.0
  9
$PLIMMAX
 10
420.0
 20
297.0
  9
$UNITMODE
 70
0
  9
$VISRETAIN
 70
1
  9
$PLINEGEN
 70
0
  9
$PSLTSCALE
 70
1
  9
$TREEDEPTH
 70
3020
  9
$CMLSTYLE
  2
Standard
  9
$CMLJUST
 70
0
  9
$CMLSCALE
 40
20.0
  9
$PROXYGRAPHICS
 70
1
  9
$MEASUREMENT
 70
1
  9
$CELWEIGHT
370
-1
  9
$ENDCAPS
280
0
  9
$JOINSTYLE
280
0
  9
$LWDISPLAY
290
0
  9
$INSUNITS
 70
4
  9
$HYPERLINKBASE
  1

  9
$STYLESHEET
  1

  9
$XEDIT
290
1
  9
$CEPSNTYPE
380
0
  9
$PSTYLEMODE
290
1
  9
$FINGERPRINTGUID
  2
{0482E695-DEFE-4BBC-996A-E18105C62C8B}
  9
$VERSIONGUID
  2
{15AC1761-1971-49C8-8CDD-4DE3C67EB3CB}
  9
$EXTNAMES
290
1
  9
$PSVPSCALE
 40
0.0
  9
$OLESTARTUP
290
0
  9
$SORTENTS
280
127
  9
$INDEXCTL
280
0
  9
$HIDETEXT
280
1
  9
$XCLIPFRAME
280
1
  9
$HALOGAP
280
0
  9
$OBSCOLOR
 70
257
  9
$OBSLTYPE
280
0
  9
$INTERSECTIONDISPLAY
280
0
  9
$INTERSECTIONCOLOR
 70
257
  9
$DIMASSOC
280
2
  9
$PROJECTNAME
  1

  9
$CAMERADISPLAY
290
0
  9
$LENSLENGTH
 40
50.0
  9
$CAMERAHEIGHT
 40
0.0
  9
$STEPSPERSEC
 40
24.0
  9
$STEPSIZE
 40
100.0
  9
$3DDWFPREC
 40
2.0
  9
$PSOLWIDTH
 40
0.005
  9
$PSOLHEIGHT
 40
0.08
  9
$LOFTANG1
 40
1.570796326795
  9
$LOFTANG2
 40
1.570796326795
  9
$LOFTMAG1
 40
0.0
  9
$LOFTMAG2
 40
0.0
  9
$LOFTPARAM
 70
7
  9
$LOFTNORMALS
280
1
  9
$LATITUDE
 40
37.795
  9
$LONGITUDE
 40
-122.394
  9
$NORTHDIRECTION
 40
0.0
  9
$TIMEZONE
 70
-8000
  9
$LIGHTGLYPHDISPLAY
280
1
  9
$TILEMODELIGHTSYNCH
280
1
  9
$CMATERIAL
347
20
  9
$SOLIDHIST
280
0
  9
$SHOWHIST
280
1
  9
$DWFFRAME
280
2
  9
$DGNFRAME
280
2
  9
$REALWORLDSCALE
290
1
  9
$INTERFERECOLOR
 62
256
  9
$CSHADOW
280
0
  9
$SHADOWPLANELOCATION
 40
0.0
  0
ENDSEC
  0
SECTION
  2
CLASSES
  0
CLASS
  1
ACDBDICTIONARYWDFLT
  2
AcDbDictionaryWithDefault
  3
ObjectDBX Classes
 90
0
 91
0
280
0
281
0
  0
CLASS
  1
SUN
  2
AcDbSun
  3
SCENEOE
 90
1153
 91
0
280
0
281
0
  0
CLASS
  1
VISUALSTYLE
  2
AcDbVisualStyle
  3
ObjectDBX Classes
 90
4095
 91
0
280
0
281
0
  0
CLASS
  1
MATERIAL
  2
AcDbMaterial
  3
ObjectDBX Classes
 90
1153
 91
0
280
0
281
0
  0
CLASS
  1
SCALE
  2
AcDbScale
  3
ObjectDBX Classes
 90
1153
 91
0
280
0
281
0
  0
CLASS
  1
TABLESTYLE
  2
AcDbTableStyle
  3
ObjectDBX Classes
 90
4095
 91
0
280
0
281
0
  0
CLASS
  1
MLEADERSTYLE
  2
AcDbMLeaderStyle
  3
ACDB_MLEADERSTYLE_CLASS
 90
4095
 91
0
280
0
281
0
  0
CLASS
  1
DICTIONARYVAR
  2
AcDbDictionaryVar
  3
ObjectDBX Classes
 90
0
 91
0
280
0
281
0
  0
CLASS
  1
CELLSTYLEMAP
  2
AcDbCellStyleMap
  3
ObjectDBX Classes
 90
1152
 91
0
280
0
281
0
  0
CLASS
  1
MENTALRAYRENDERSETTINGS
  2
AcDbMentalRayRenderSettings
  3
SCENEOE
 90
1024
 91
0
280
0
281
0
  0
CLASS
  1
ACDBDETAILVIEWSTYLE
  2
AcDbDetailViewStyle
  3
ObjectDBX Classes
 90
1025
 91
0
280
0
281
0
  0
CLASS
  1
ACDBSECTIONVIEWSTYLE
  2
AcDbSectionViewStyle
  3
ObjectDBX Classes
 90
1025
 91
0
280
0
281
0
  0
CLASS
  1
RASTERVARIABLES
  2
AcDbRasterVariables
  3
ISM
 90
0
 91
0
280
0
281
0
  0
CLASS
  1
ACDBPLACEHOLDER
  2
AcDbPlaceHolder
  3
ObjectDBX Classes
 90
0
 91
0
280
0
281
0
  0
CLASS
  1
LAYOUT
  2
AcDbLayout
  3
ObjectDBX Classes
 90
0
 91
0
280
0
281
0
  0
ENDSEC
  0
SECTION
  2
TABLES
  0
TABLE
  2
VPORT
  5
8
330
0
100
AcDbSymbolTable
 70
1
  0
VPORT
  5
23
330
8
100
AcDbSymbolTableRecord
100
AcDbViewportTableRecord
  2
*Active
 70
0
 10
0.0
 20
0.0
 11
1.0
 21
1.0
 12
0.0
 22
0.0
 13
0.0
 23
0.0
 14
0.5
 24
0.5
 15
0.5
 25
0.5
 16
0.0
 26
0.0
 36
1.0
 17
0.0
 27
0.0
 37
0.0
 40
1000.0
 41
1.34
 42
50.0
 43
0.0
 44
0.0
 50
0.0
 51
0.0
 71
0
 72
1000
 73
1
 74
3
 75
0
 76
0
 77
0
 78
0
281
0
 65
0
146
0.0
  0
ENDTAB
  0
TABLE
  2
LTYPE
  5
2
330
0
100
AcDbSymbolTable
 70
3
  0
LTYPE
  5
24
330
2
100
AcDbSymbolTableRecord
100
AcDbLinetypeTableRecord
  2
ByBlock
 70
0
  3

 72
65
 73
0
 40
0.0
  0
LTYPE
  5
25
330
2
100
AcDbSymbolTableRecord
100
AcDbLinetypeTableRecord
  2
ByLayer
 70
0
  3

 72
65
 73
0
 40
0.0
  0
LTYPE
  5
26
330
2
100
AcDbSymbolTableRecord
100
AcDbLinetypeTableRecord
  2
Continuous
 70
0
  3

 72
65
 73
0
 40
0.0
  0
ENDTAB
  0
TABLE
  2
LAYER
  5
1
330
0
100
AcDbSymbolTable
 70
2
  0
LAYER
  5
27
330
1
100
AcDbSymbolTableRecord
100
AcDbLayerTableRecord
  2
0
 70
0
 62
7
  6
Continuous
370
-3
390
13
347
21
  0
LAYER
  5
28
330
1
100
AcDbSymbolTableRecord
100
AcDbLayerTableRecord
  2
Defpoints
 70
0
 62
7
  6
Continuous
290
0
370
-3
390
13
347
21
  0
ENDTAB
  0
TABLE
  2
STYLE
  5
5
330
0
100
AcDbSymbolTable
 70
1
  0
STYLE
  5
29
330
5
100
AcDbSymbolTableRecord
100
AcDbTextStyleTableRecord
  2
Standard
 70
0
 40
0.0
 41
1.0
 50
0.0
 71
0
 42
2.5
  3
txt
  4

  0
ENDTAB
  0
TABLE
  2
VIEW
  5
7
330
0
100
AcDbSymbolTable
 70
0
  0
ENDTAB
  0
TABLE
  2
UCS
  5
6
330
0
100
AcDbSymbolTable
 70
0
  0
ENDTAB
  0
TABLE
  2
APPID
  5
3
330
0
100
AcDbSymbolTable
 70
3
  0
APPID
  5
2A
330
3
100
AcDbSymbolTableRecord
100
AcDbRegAppTableRecord
  2
ACAD
 70
0
  0
APPID
  5
5E
330
3
100
AcDbSymbolTableRecord
100
AcDbRegAppTableRecord
  2
HATCHBACKGROUNDCOLOR
 70
0
  0
APPID
  5
5F
330
3
100
AcDbSymbolTableRecord
100
AcDbRegAppTableRecord
  2
EZDXF
 70
0
  0
ENDTAB
  0
TABLE
  2
DIMSTYLE
  5
4
330
0
100
AcDbSymbolTable
 70
1
100
AcDbDimStyleTable
  0
DIMSTYLE
105
2B
330
4
100
AcDbSymbolTableRecord
100
AcDbDimStyleTableRecord
  2
Standard
 70
0
 40
1.0
 41
2.5
 42
0.625
 43
3.75
 44
1.25
 45
0.0
 46
0.0
 47
0.0
 48
0.0
 49
2.5
140
2.5
141
2.5
142
0.0
143
0.03937007874
144
1.0
145
0.0
146
1.0
147
0.625
148
0.0
 69
0
 70
0
 71
0
 72
0
 73
0
 74
0
 75
0
 76
0
 77
1
 78
8
 79
3
170
0
171
3
172
1
173
0
174
0
175
0
176
0
177
0
178
0
179
2
271
2
272
2
273
2
274
3
275
0
276
0
277
2
278
44
279
0
280
0
281
0
282
0
283
0
284
8
285
0
286
0
288
0
289
3
290
0
371
-2
372
-2
  0
ENDTAB
  0
TABLE
  2
BLOCK_RECORD
  5
9
330
0
100
AcDbSymbolTable
 70
2
  0
BLOCK_RECORD
  5
17
330
9
100
AcDbSymbolTableRecord
100
AcDbBlockTableRecord
  2
*Model_Space
340
1A
 70
0
280
1
281
0
  0
BLOCK_RECORD
  5
1B
330
9
100
AcDbSymbolTableRecord
100
AcDbBlockTableRecord
  2
*Paper_Space
340
1E
 70
0
280
1
281
0
  0
ENDTAB
  0
ENDSEC
  0
SECTION
  2
BLOCKS
  0
BLOCK
  5
18
330
17
100
AcDbEntity
  8
0
100
AcDbBlockBegin
  2
*Model_Space
 70
0
 10
0.0
 20
0.0
 30
0.0
  3
*Model_Space
  1

  0
ENDBLK
  5
19
330
17
100
AcDbEntity
  8
0
100
AcDbBlockEnd
  0
BLOCK
  5
1C
330
1B
100
AcDbEntity
  8
0
100
AcDbBlockBegin
  2
*Paper_Space
 70
0
 10
0.0
 20
0.0
 30
0.0
  3
*Paper_Space
  1

  0
ENDBLK
  5
1D
330
1B
100
AcDbEntity
  8
0
100
AcDbBlockEnd
  0
ENDSEC
  0
SECTION
  2
ENTITIES
  0
SPLINE
  5
2F
330
17
100
AcDbEntity
  8
layer 1
 62
250
370
9
100
AcDbSpline
 70
8
 71
3
 72
32
 73
28
 74
0
 42
1e-09
 40
0.0
 40
0.0
 40
0.0
 40
0.0
 40
0.125
 40
0.125
 40
0.125
 40
0.125
 40
0.25
 40
0.25
 40
0.25
 40
0.25
 40
0.375
 40
0.375
 40
0.375
 40
0.375
 40
0.5
 40
0.5
 40
0.5
 40
0.5
 40
0.625
 40
0.625
 40
0.625
 40
0.625
 40
0.75
 40
0.75
 40
0.75
 40
0.75
 40
1.0
 40
1.0
 40
1.0
 40
1.0
 10
494.43960000000004
 20
118.50009999999975
 30
0.0
 10
494.43960000000004
 20
118.50009999999975
 30
0.0
 10
494.43960000000004
 20
143.45359999999982
 30
0.0
 10
494.43960000000004
 20
143.45359999999982
 30
0.0
 10
494.43960000000004
 20
143.45359999999982
 30
0.0
 10
498.03440000000006
 20
143.45359999999982
 30
0.0
 10
501.6299
 20
143.45359999999982
 30
0.0
 10
505.22510000000005
 20
143.45359999999982
 30
0.0
 10
505.22510000000005
 20
143.45359999999982
 30
0.0
 10
507.5504
 20
143.41589999999974
 30
0.0
 10
509.1077
 20
141.92589999999973
 30
0.0
 10
509.10360000000003
 20
139.55949999999984
 30
0.0
 10
509.10360000000003
 20
139.55949999999984
 30
0.0
 10
509.1032000000001
 20
137.5239999999999
 30
0.0
 10
509.1032000000001
 20
134.4645999999998
 30
0.0
 10
509.10360000000003
 20
132.42859999999973
 30
0.0
 10
509.10360000000003
 20
132.42859999999973
 30
0.0
 10
509.09710000000007
 20
130.55309999999986
 30
0.0
 10
507.2848000000001
 20
128.6112999999998
 30
0.0
 10
505.2753000000001
 20
128.59219999999982
 30
0.0
 10
505.2753000000001
 20
128.59219999999982
 30
0.0
 10
505.2753000000001
 20
128.59219999999982
 30
0.0
 10
494.43960000000004
 20
128.59219999999982
 30
0.0
 10
494.43960000000004
 20
128.59219999999982
 30
0.0
 10
494.43960000000004
 20
128.59219999999982
 30
0.0
 10
494.43960000000004
 20
128.59219999999982
 30
0.0
 10
509.09430000000003
 20
118.50009999999975
 30
0.0
 10
509.09430000000003
 20
118.50009999999975
 30
0.0
  0
SPLINE
  5
30
330
17
100
AcDbEntity
  8
layer 1
 62
250
370
9
100
AcDbSpline
 70
8
 71
3
 72
20
 73
16
 74
0
 42
1e-09
 40
0.0
 40
0.0
 40
0.0
 40
0.0
 40
0.2
 40
0.2
 40
0.2
 40
0.2
 40
0.4
 40
0.4
 40
0.4
 40
0.4
 40
0.6
 40
0.6
 40
0.6
 40
0.6
 40
1.0
 40
1.0
 40
1.0
 40
1.0
 10
452.92910000000006
 20
118.49789999999985
 30
0.0
 10
452.92910000000006
 20
118.49789999999985
 30
0.0
 10
452.92910000000006
 20
143.45579999999973
 30
0.0
 10
452.92910000000006
 20
143.45579999999973
 30
0.0
 10
452.92910000000006
 20
143.45579999999973
 30
0.0
 10
452.92910000000006
 20
143.45579999999973
 30
0.0
 10
461.85420000000005
 20
118.49789999999985
 30
0.0
 10
461.85420000000005
 20
118.49789999999985
 30
0.0
 10
461.85420000000005
 20
118.49789999999985
 30
0.0
 10
461.85420000000005
 20
118.49789999999985
 30
0.0
 10
470.61410000000006
 20
143.45529999999985
 30
0.0
 10
470.61410000000006
 20
143.45529999999985
 30
0.0
 10
470.61410000000006
 20
143.45529999999985
 30
0.0
 10
470.61410000000006
 20
143.45529999999985
 30
0.0
 10
470.61410000000006
 20
118.49789999999985
 30
0.0
 10
470.61410000000006
 20
118.49789999999985
 30
0.0
  0
SPLINE
  5
31
330
17
100
AcDbEntity
  8
layer 1
 62
250
370
9
100
AcDbSpline
 70
11
 71
3
 72
28
 73
24
 74
0
 42
1e-09
 40
0.0
 40
0.0
 40
0.0
 40
0.0
 40
0.1428571428571428
 40
0.1428571428571428
 40
0.1428571428571428
 40
0.1428571428571428
 40
0.2857142857142857
 40
0.2857142857142857
 40
0.2857142857142857
 40
0.2857142857142857
 40
0.4285714285714285
 40
0.4285714285714285
 40
0.4285714285714285
 40
0.4285714285714285
 40
0.5714285714285714
 40
0.5714285714285714
 40
0.5714285714285714
 40
0.5714285714285714
 40
0.7142857142857143
 40
0.7142857142857143
 40
0.7142857142857143
 40
0.7142857142857143
 40
1.0
 40
1.0
 40
1.0
 40
1.0
 10
434.37930000000006
 20
118.52819999999974
 30
0.0
 10
436.71110000000004
 20
118.52859999999987
 30
0.0
 10
441.66130000000004
 20
118.50459999999975
 30
0.0
 10
443.99280000000005
 20
118.50429999999983
 30
0.0
 10
443.99280000000005
 20
118.50429999999983
 30
0.0
 10
445.91780000000006
 20
118.39889999999991
 30
0.0
 10
449.23640000000006
 20
121.94049999999993
 30
0.0
 10
449.22520000000003
 20
123.9577999999999
 30
0.0
 10
449.22520000000003
 20
123.9577999999999
 30
0.0
 10
449.2248000000001
 20
129.72789999999986
 30
0.0
 10
449.2248000000001
 20
131.89759999999978
 30
0.0
 10
449.22520000000003
 20
137.6668999999997
 30
0.0
 10
449.22520000000003
 20
137.6668999999997
 30
0.0
 10
449.22090000000003
 20
139.80499999999984
 30
0.0
 10
445.8464
 20
143.4650999999999
 30
0.0
 10
443.6940000000001
 20
143.45159999999987
 30
0.0
 10
443.6940000000001
 20
143.45159999999987
 30
0.0
 10
441.36830000000003
 20
143.45159999999987
 30
0.0
 10
436.64400000000006
 20
143.45159999999987
 30
0.0
 10
434.31790000000007
 20
143.45159999999987
 30
0.0
 10
434.31790000000007
 20
143.45159999999987
 30
0.0
 10
434.3183
 20
137.70469999999978
 30
0.0
 10
434.37960000000004
 20
124.27549999999974
 30
0.0
 10
434.37930000000006
 20
118.52819999999974
 30
0.0
  0
SPLINE
  5
32
330
17
100
AcDbEntity
  8
layer 1
 62
250
370
9
100
AcDbSpline
 70
24
 71
3
 72
8
 73
4
 74
0
 42
1e-09
 40
0.0
 40
0.0
 40
0.0
 40
0.0
 40
1.0
 40
1.0
 40
1.0
 40
1.0
 10
478.18750000000006
 20
143.45359999999982
 30
0.0
 10
478.18750000000006
 20
143.45359999999982
 30
0.0
 10
485.35560000000004
 20
143.45359999999982
 30
0.0
 10
485.35560000000004
 20
143.45359999999982
 30
0.0
  0
SPLINE
  5
33
330
17
100
AcDbEntity
  8
layer 1
 62
250
370
9
100
AcDbSpline
 70
24
 71
3
 72
8
 73
4
 74
0
 42
1e-09
 40
0.0
 40
0.0
 40
0.0
 40
0.0
 40
1.0
 40
1.0
 40
1.0
 40
1.0
 10
478.18750000000006
 20
118.50009999999975
 30
0.0
 10
478.18750000000006
 20
118.50009999999975
 30
0.0
 10
485.35560000000004
 20
118.50009999999975
 30
0.0
 10
485.35560000000004
 20
118.50009999999975
 30
0.0
  0
SPLINE
  5
34
330
17
100
AcDbEntity
  8
layer 1
 62
250
370
9
100
AcDbSpline
 70
24
 71
3
 72
8
 73
4
 74
0
 42
1e-09
 40
0.0
 40
0.0
 40
0.0
 40
0.0
 40
1.0
 40
1.0
 40
1.0
 40
1.0
 10
481.77150000000006
 20
143.45359999999982
 30
0.0
 10
481.77150000000006
 20
143.45359999999982
 30
0.0
 10
481.77150000000006
 20
118.50009999999975
 30
0.0
 10
481.77150000000006
 20
118.50009999999975
 30
0.0
  0
SPLINE
  5
35
330
17
100
AcDbEntity
  8
layer 1
 62
250
370
9
100
AcDbSpline
 70
8
 71
3
 72
12
 73
8
 74
0
 42
1e-09
 40
0.0
 40
0.0
 40
0.0
 40
0.0
 40
0.3333333333333333
 40
0.3333333333333333
 40
0.3333333333333333
 40
0.3333333333333333
 40
1.0
 40
1.0
 40
1.0
 40
1.0
 10
414.3011
 20
118.50009999999975
 30
0.0
 10
414.3011
 20
118.50009999999975
 30
0.0
 10
421.67210000000006
 20
143.45359999999982
 30
0.0
 10
421.67210000000006
 20
143.45359999999982
 30
0.0
 10
421.67210000000006
 20
143.45359999999982
 30
0.0
 10
421.67210000000006
 20
143.45359999999982
 30
0.0
 10
429.2420000000001
 20
118.50009999999975
 30
0.0
 10
429.2420000000001
 20
118.50009999999975
 30
0.0
  0
SPLINE
  5
36
330
17
100
AcDbEntity
  8
layer 1
 62
250
370
9
100
AcDbSpline
 70
24
 71
3
 72
8
 73
4
 74
0
 42
1e-09
 40
0.0
 40
0.0
 40
0.0
 40
0.0
 40
1.0
 40
1.0
 40
1.0
 40
1.0
 10
417.0237000000001
 20
127.7494999999999
 30
0.0
 10
417.0237000000001
 20
127.7494999999999
 30
0.0
 10
426.5194
 20
127.7494999999999
 30
0.0
 10
426.5194
 20
127.7494999999999
 30
0.0
  0
SPLINE
  5
37
330
17
100
AcDbEntity
  8
layer 1
 62
250
370
9
100
AcDbSpline
 70
8
 71
3
 72
12
 73
8
 74
0
 42
1e-09
 40
0.0
 40
0.0
 40
0.0
 40
0.0
 40
0.3333333333333333
 40
0.3333333333333333
 40
0.3333333333333333
 40
0.3333333333333333
 40
1.0
 40
1.0
 40
1.0
 40
1.0
 10
548.2461000000001
 20
118.49999999999977
 30
0.0
 10
548.2461000000001
 20
118.49999999999977
 30
0.0
 10
535.297
 20
118.49999999999977
 30
0.0
 10
535.297
 20
118.49999999999977
 30
0.0
 10
535.297
 20
118.49999999999977
 30
0.0
 10
535.297
 20
118.49999999999977
 30
0.0
 10
535.297
 20
143.45359999999982
 30
0.0
 10
535.297
 20
143.45359999999982
 30
0.0
  0
SPLINE
  5
38
330
17
100
AcDbEntity
  8
layer 1
 62
250
370
9
100
AcDbSpline
 70
8
 71
3
 72
12
 73
8
 74
0
 42
1e-09
 40
0.0
 40
0.0
 40
0.0
 40
0.0
 40
0.3333333333333333
 40
0.3333333333333333
 40
0.3333333333333333
 40
0.3333333333333333
 40
1.0
 40
1.0
 40
1.0
 40
1.0
 10
514.3011
 20
118.50009999999975
 30
0.0
 10
514.3011
 20
118.50009999999975
 30
0.0
 10
521.6721
 20
143.45359999999982
 30
0.0
 10
521.6721
 20
143.45359999999982
 30
0.0
 10
521.6721
 20
143.45359999999982
 30
0.0
 10
521.6721
 20
143.45359999999982
 30
0.0
 10
529.2420000000001
 20
118.50009999999975
 30
0.0
 10
529.2420000000001
 20
118.50009999999975
 30
0.0
  0
SPLINE
  5
39
330
17
100
AcDbEntity
  8
layer 1
 62
250
370
9
100
AcDbSpline
 70
24
 71
3
 72
8
 73
4
 74
0
 42
1e-09
 40
0.0
 40
0.0
 40
0.0
 40
0.0
 40
1.0
 40
1.0
 40
1.0
 40
1.0
 10
517.0237000000001
 20
127.7494999999999
 30
0.0
 10
517.0237000000001
 20
127.7494999999999
 30
0.0
 10
526.5194
 20
127.7494999999999
 30
0.0
 10
526.5194
 20
127.7494999999999
 30
0.0
  0
SPLINE
  5
3A
330
17
100
AcDbEntity
  8
layer 1
 62
250
370
9
100
AcDbSpline
 70
24
 71
3
 72
8
 73
4
 74
0
 42
1e-09
 40
0.0
 40
0.0
 40
0.0
 40
0.0
 40
1.0
 40
1.0
 40
1.0
 40
1.0
 10
571.5492
 20
135.2112999999997
 30
0.0
 10
571.5492
 20
135.2112999999997
 30
0.0
 10
571.5492
 20
117.5465999999999
 30
0.0
 10
571.5492
 20
117.5465999999999
 30
0.0
  0
SPLINE
  5
3B
330
17
100
AcDbEntity
  8
layer 1
 62
250
370
9
100
AcDbSpline
 70
8
 71
3
 72
12
 73
8
 74
0
 42
1e-09
 40
0.0
 40
0.0
 40
0.0
 40
0.0
 40
0.3333333333333333
 40
0.3333333333333333
 40
0.3333333333333333
 40
0.3333333333333333
 40
1.0
 40
1.0
 40
1.0
 40
1.0
 10
574.4933000000001
 20
124.45019999999977
 30
0.0
 10
574.4933000000001
 20
124.45019999999977
 30
0.0
 10
559.6716
 20
124.45019999999977
 30
0.0
 10
559.6716
 20
124.45019999999977
 30
0.0
 10
559.6716
 20
124.45019999999977
 30
0.0
 10
559.6716
 20
124.45019999999977
 30
0.0
 10
571.5492
 20
142.5206999999998
 30
0.0
 10
571.5492
 20
142.5206999999998
 30
0.0
  0
SPLINE
  5
3C
330
17
100
AcDbEntity
  8
layer 1
 62
250
370
9
100
AcDbSpline
 70
11
 71
3
 72
36
 73
32
 74
0
 42
1e-09
 40
0.0
 40
0.0
 40
0.0
 40
0.0
 40
0.1111111111111111
 40
0.1111111111111111
 40
0.1111111111111111
 40
0.1111111111111111
 40
0.2222222222222222
 40
0.2222222222222222
 40
0.2222222222222222
 40
0.2222222222222222
 40
0.3333333333333333
 40
0.3333333333333333
 40
0.3333333333333333
 40
0.3333333333333333
 40
0.4444444444444444
 40
0.4444444444444444
 40
0.4444444444444444
 40
0.4444444444444444
 40
0.5555555555555556
 40
0.5555555555555556
 40
0.5555555555555556
 40
0.5555555555555556
 40
0.6666666666666666
 40
0.6666666666666666
 40
0.6666666666666666
 40
0.6666666666666666
 40
0.7777777777777778
 40
0.7777777777777778
 40
0.7777777777777778
 40
0.7777777777777778
 40
1.0
 40
1.0
 40
1.0
 40
1.0
 10
603.5018
 20
142.53289999999993
 30
0.0
 10
605.8679000000001
 20
142.53289999999993
 30
0.0
 10
608.2344
 20
142.53289999999993
 30
0.0
 10
610.6009
 20
142.53289999999993
 30
0.0
 10
610.6009
 20
142.53289999999993
 30
0.0
 10
612.5814
 20
142.56849999999986
 30
0.0
 10
614.6074000000001
 20
141.0741999999998
 30
0.0
 10
614.6345
 20
138.6320999999998
 30
0.0
 10
614.6345
 20
138.6320999999998
 30
0.0
 10
614.6341
 20
132.87469999999985
 30
0.0
 10
614.6341
 20
127.11689999999976
 30
0.0
 10
614.6345
 20
121.35869999999977
 30
0.0
 10
614.6345
 20
121.35869999999977
 30
0.0
 10
614.4924000000001
 20
119.03109999999992
 30
0.0
 10
612.7860000000001
 20
117.5487999999998
 30
0.0
 10
610.6009
 20
117.53799999999978
 30
0.0
 10
610.6009
 20
117.53799999999978
 30
0.0
 10
608.2285
 20
117.53839999999991
 30
0.0
 10
605.8561000000001
 20
117.53839999999991
 30
0.0
 10
603.4841
 20
117.53799999999978
 30
0.0
 10
603.4841
 20
117.53799999999978
 30
0.0
 10
601.5256
 20
117.43239999999992
 30
0.0
 10
599.5192000000001
 20
119.32029999999986
 30
0.0
 10
599.5306
 20
121.34129999999982
 30
0.0
 10
599.5306
 20
121.34129999999982
 30
0.0
 10
599.5310000000001
 20
127.12189999999987
 30
0.0
 10
599.5310000000001
 20
132.90219999999977
 30
0.0
 10
599.5306
 20
138.6819999999998
 30
0.0
 10
599.5306
 20
138.6819999999998
 30
0.0
 10
599.5349000000001
 20
140.82399999999984
 30
0.0
 10
601.312
 20
142.54649999999992
 30
0.0
 10
603.5018
 20
142.53289999999993
 30
0.0
  0
SPLINE
  5
3D
330
17
100
AcDbEntity
  8
layer 1
 62
250
370
9
100
AcDbSpline
 70
24
 71
3
 72
8
 73
4
 74
0
 42
1e-09
 40
0.0
 40
0.0
 40
0.0
 40
0.0
 40
1.0
 40
1.0
 40
1.0
 40
1.0
 10
587.0825000000001
 20
142.5206999999998
 30
0.0
 10
587.0825000000001
 20
142.5206999999998
 30
0.0
 10
587.0825000000001
 20
117.5465999999999
 30
0.0
 10
587.0825000000001
 20
117.5465999999999
 30
0.0
  0
SPLINE
  5
3E
330
17
100
AcDbEntity
  8
layer 1
 62
250
370
9
100
AcDbSpline
 70
11
 71
3
 72
36
 73
32
 74
0
 42
1e-09
 40
0.0
 40
0.0
 40
0.0
 40
0.0
 40
0.1111111111111111
 40
0.1111111111111111
 40
0.1111111111111111
 40
0.1111111111111111
 40
0.2222222222222222
 40
0.2222222222222222
 40
0.2222222222222222
 40
0.2222222222222222
 40
0.3333333333333333
 40
0.3333333333333333
 40
0.3333333333333333
 40
0.3333333333333333
 40
0.4444444444444444
 40
0.4444444444444444
 40
0.4444444444444444
 40
0.4444444444444444
 40
0.5555555555555556
 40
0.5555555555555556
 40
0.5555555555555556
 40
0.5555555555555556
 40
0.6666666666666666
 40
0.6666666666666666
 40
0.6666666666666666
 40
0.6666666666666666
 40
0.7777777777777778
 40
0.7777777777777778
 40
0.7777777777777778
 40
0.7777777777777778
 40
1.0
 40
1.0
 40
1.0
 40
1.0
 10
691.1153
 20
141.89379999999983
 30
0.0
 10
693.441
 20
141.89379999999983
 30
0.0
 10
695.7671
 20
141.89379999999983
 30
0.0
 10
698.0932
 20
141.89379999999983
 30
0.0
 10
698.0932
 20
141.89379999999983
 30
0.0
 10
700.0398
 20
141.92939999999976
 30
0.0
 10
702.0312
 20
140.43779999999992
 30
0.0
 10
702.0579
 20
138.00019999999972
 30
0.0
 10
702.0579
 20
138.00019999999972
 30
0.0
 10
702.0575000000001
 20
132.25329999999985
 30
0.0
 10
702.0575000000001
 20
126.50599999999986
 30
0.0
 10
702.0579
 20
120.75829999999974
 30
0.0
 10
702.0579
 20
120.75829999999974
 30
0.0
 10
701.9181000000001
 20
118.43489999999974
 30
0.0
 10
700.2409
 20
116.95529999999985
 30
0.0
 10
698.0932
 20
116.94449999999983
 30
0.0
 10
698.0932
 20
116.94449999999983
 30
0.0
 10
695.7613000000001
 20
116.94489999999973
 30
0.0
 10
693.4294
 20
116.94489999999973
 30
0.0
 10
691.0979
 20
116.94449999999983
 30
0.0
 10
691.0979
 20
116.94449999999983
 30
0.0
 10
689.1729
 20
116.83909999999992
 30
0.0
 10
687.2008000000001
 20
118.7235999999998
 30
0.0
 10
687.212
 20
120.74089999999978
 30
0.0
 10
687.212
 20
120.74089999999978
 30
0.0
 10
687.2123
 20
126.51099999999974
 30
0.0
 10
687.2123
 20
132.2806999999998
 30
0.0
 10
687.212
 20
138.04999999999973
 30
0.0
 10
687.212
 20
138.04999999999973
 30
0.0
 10
687.2162000000001
 20
140.18809999999985
 30
0.0
 10
688.9629
 20
141.90729999999985
 30
0.0
 10
691.1153
 20
141.89379999999983
 30
0.0
  0
SPLINE
  5
3F
330
17
100
AcDbEntity
  8
layer 1
 62
250
370
9
100
AcDbSpline
 70
8
 71
3
 72
12
 73
8
 74
0
 42
1e-09
 40
0.0
 40
0.0
 40
0.0
 40
0.0
 40
0.3333333333333333
 40
0.3333333333333333
 40
0.3333333333333333
 40
0.3333333333333333
 40
1.0
 40
1.0
 40
1.0
 40
1.0
 10
681.9566
 20
141.89409999999975
 30
0.0
 10
681.9566
 20
141.89409999999975
 30
0.0
 10
674.6342000000001
 20
129.9953999999998
 30
0.0
 10
674.6342000000001
 20
129.9953999999998
 30
0.0
 10
674.6342000000001
 20
129.9953999999998
 30
0.0
 10
674.6342000000001
 20
129.9953999999998
 30
0.0
 10
674.6349
 20
116.94049999999993
 30
0.0
 10
674.6349
 20
116.94049999999993
 30
0.0
  0
SPLINE
  5
40
330
17
100
AcDbEntity
  8
layer 1
 62
250
370
9
100
AcDbSpline
 70
24
 71
3
 72
8
 73
4
 74
0
 42
1e-09
 40
0.0
 40
0.0
 40
0.0
 40
0.0
 40
1.0
 40
1.0
 40
1.0
 40
1.0
 10
674.6342000000001
 20
129.9953999999998
 30
0.0
 10
674.6342000000001
 20
129.9953999999998
 30
0.0
 10
667.3133
 20
141.89409999999975
 30
0.0
 10
667.3133
 20
141.89409999999975
 30
0.0
  0
SPLINE
  5
41
330
17
100
AcDbEntity
  8
layer 1
 62
250
370
9
100
AcDbSpline
 70
8
 71
3
 72
28
 73
24
 74
0
 42
1e-09
 40
0.0
 40
0.0
 40
0.0
 40
0.0
 40
0.1428571428571428
 40
0.1428571428571428
 40
0.1428571428571428
 40
0.1428571428571428
 40
0.2857142857142857
 40
0.2857142857142857
 40
0.2857142857142857
 40
0.2857142857142857
 40
0.4285714285714285
 40
0.4285714285714285
 40
0.4285714285714285
 40
0.4285714285714285
 40
0.5714285714285714
 40
0.5714285714285714
 40
0.5714285714285714
 40
0.5714285714285714
 40
0.7142857142857143
 40
0.7142857142857143
 40
0.7142857142857143
 40
0.7142857142857143
 40
1.0
 40
1.0
 40
1.0
 40
1.0
 10
627.3028
 20
116.94049999999993
 30
0.0
 10
627.3028
 20
116.94049999999993
 30
0.0
 10
627.3028
 20
141.89409999999975
 30
0.0
 10
627.3028
 20
141.89409999999975
 30
0.0
 10
627.3028
 20
141.89409999999975
 30
0.0
 10
630.8978000000001
 20
141.89409999999975
 30
0.0
 10
634.4931
 20
141.89409999999975
 30
0.0
 10
638.0885000000001
 20
141.89409999999975
 30
0.0
 10
638.0885000000001
 20
141.89409999999975
 30
0.0
 10
640.4137000000001
 20
141.85619999999972
 30
0.0
 10
641.9711000000001
 20
140.36609999999973
 30
0.0
 10
641.9669
 20
137.99999999999977
 30
0.0
 10
641.9669
 20
137.99999999999977
 30
0.0
 10
641.9665
 20
135.96429999999987
 30
0.0
 10
641.9665
 20
132.90499999999975
 30
0.0
 10
641.9669
 20
130.86899999999991
 30
0.0
 10
641.9669
 20
130.86899999999991
 30
0.0
 10
641.9604
 20
128.9935999999998
 30
0.0
 10
640.1482000000001
 20
127.05169999999976
 30
0.0
 10
638.1386
 20
127.03259999999977
 30
0.0
 10
638.1386
 20
127.03259999999977
 30
0.0
 10
638.1386
 20
127.03259999999977
 30
0.0
 10
627.3028
 20
127.03259999999977
 30
0.0
 10
627.3028
 20
127.03259999999977
 30
0.0
  0
SPLINE
  5
42
330
17
100
AcDbEntity
  8
layer 1
 62
250
370
9
100
AcDbSpline
 70
8
 71
3
 72
12
 73
8
 74
0
 42
1e-09
 40
0.0
 40
0.0
 40
0.0
 40
0.0
 40
0.3333333333333333
 40
0.3333333333333333
 40
0.3333333333333333
 40
0.3333333333333333
 40
1.0
 40
1.0
 40
1.0
 40
1.0
 10
647.1645000000001
 20
116.9405999999999
 30
0.0
 10
647.1645000000001
 20
116.9405999999999
 30
0.0
 10
654.5355000000001
 20
141.89409999999975
 30
0.0
 10
654.5355000000001
 20
141.89409999999975
 30
0.0
 10
654.5355000000001
 20
141.89409999999975
 30
0.0
 10
654.5355000000001
 20
141.89409999999975
 30
0.0
 10
662.1054
 20
116.9405999999999
 30
0.0
 10
662.1054
 20
116.9405999999999
 30
0.0
  0
SPLINE
  5
43
330
17
100
AcDbEntity
  8
layer 1
 62
250
370
9
100
AcDbSpline
 70
24
 71
3
 72
8
 73
4
 74
0
 42
1e-09
 40
0.0
 40
0.0
 40
0.0
 40
0.0
 40
1.0
 40
1.0
 40
1.0
 40
1.0
 10
649.8871
 20
126.18999999999983
 30
0.0
 10
649.8871
 20
126.18999999999983
 30
0.0
 10
659.3828000000001
 20
126.18999999999983
 30
0.0
 10
659.3828000000001
 20
126.18999999999983
 30
0.0
  0
SPLINE
  5
44
330
17
100
AcDbEntity
  8
layer 1
 62
250
370
9
100
AcDbSpline
 70
8
 71
3
 72
12
 73
8
 74
0
 42
1e-09
 40
0.0
 40
0.0
 40
0.0
 40
0.0
 40
0.3333333333333333
 40
0.3333333333333333
 40
0.3333333333333333
 40
0.3333333333333333
 40
1.0
 40
1.0
 40
1.0
 40
1.0
 10
721.1094
 20
116.94049999999993
 30
0.0
 10
721.1094
 20
116.94049999999993
 30
0.0
 10
708.1603
 20
116.94049999999993
 30
0.0
 10
708.1603
 20
116.94049999999993
 30
0.0
 10
708.1603
 20
116.94049999999993
 30
0.0
 10
708.1603
 20
116.94049999999993
 30
0.0
 10
708.1603
 20
141.89409999999975
 30
0.0
 10
708.1603
 20
141.89409999999975
 30
0.0
  0
SPLINE
  5
45
330
17
100
AcDbEntity
  8
layer 1
 62
242
370
9
100
AcDbSpline
 70
11
 71
3
 72
444
 73
440
 74
0
 42
1e-09
 40
0.0
 40
0.0
 40
0.0
 40
0.0
 40
0.009009009009009
 40
0.009009009009009
 40
0.009009009009009
 40
0.009009009009009
 40
0.018018018018018
 40
0.018018018018018
 40
0.018018018018018
 40
0.018018018018018
 40
0.027027027027027
 40
0.027027027027027
 40
0.027027027027027
 40
0.027027027027027
 40
0.036036036036036
 40
0.036036036036036
 40
0.036036036036036
 40
0.036036036036036
 40
0.045045045045045
 40
0.045045045045045
 40
0.045045045045045
 40
0.045045045045045
 40
0.0540540540540541
 40
0.0540540540540541
 40
0.0540540540540541
 40
0.0540540540540541
 40
0.0630630630630631
 40
0.0630630630630631
 40
0.0630630630630631
 40
0.0630630630630631
 40
0.0720720720720721
 40
0.0720720720720721
 40
0.0720720720720721
 40
0.0720720720720721
 40
0.0810810810810811
 40
0.0810810810810811
 40
0.0810810810810811
 40
0.0810810810810811
 40
0.0900900900900901
 40
0.0900900900900901
 40
0.0900900900900901
 40
0.0900900900900901
 40
0.0990990990990991
 40
0.0990990990990991
 40
0.0990990990990991
 40
0.0990990990990991
 40
0.1081081081081081
 40
0.1081081081081081
 40
0.1081081081081081
 40
0.1081081081081081
 40
0.1171171171171171
 40
0.1171171171171171
 40
0.1171171171171171
 40
0.1171171171171171
 40
0.1261261261261261
 40
0.1261261261261261
 40
0.1261261261261261
 40
0.1261261261261261
 40
0.1351351351351351
 40
0.1351351351351351
 40
0.1351351351351351
 40
0.1351351351351351
 40
0.1441441441441441
 40
0.1441441441441441
 40
0.1441441441441441
 40
0.1441441441441441
 40
0.1531531531531531
 40
0.1531531531531531
 40
0.1531531531531531
 40
0.1531531531531531
 40
0.1621621621621622
 40
0.1621621621621622
 40
0.1621621621621622
 40
0.1621621621621622
 40
0.1711711711711712
 40
0.1711711711711712
 40
0.1711711711711712
 40
0.1711711711711712
 40
0.1801801801801802
 40
0.1801801801801802
 40
0.1801801801801802
 40
0.1801801801801802
 40
0.1891891891891892
 40
0.1891891891891892
 40
0.1891891891891892
 40
0.1891891891891892
 40
0.1981981981981982
 40
0.1981981981981982
 40
0.1981981981981982
 40
0.1981981981981982
 40
0.2072072072072072
 40
0.2072072072072072
 40
0.2072072072072072
 40
0.2072072072072072
 40
0.2162162162162162
 40
0.2162162162162162
 40
0.2162162162162162
 40
0.2162162162162162
 40
0.2252252252252252
 40
0.2252252252252252
 40
0.2252252252252252
 40
0.2252252252252252
 40
0.2342342342342342
 40
0.2342342342342342
 40
0.2342342342342342
 40
0.2342342342342342
 40
0.2432432432432433
 40
0.2432432432432433
 40
0.2432432432432433
 40
0.2432432432432433
 40
0.2522522522522522
 40
0.2522522522522522
 40
0.2522522522522522
 40
0.2522522522522522
 40
0.2612612612612613
 40
0.2612612612612613
 40
0.2612612612612613
 40
0.2612612612612613
 40
0.2702702702702703
 40
0.2702702702702703
 40
0.2702702702702703
 40
0.2702702702702703
 40
0.2792792792792793
 40
0.2792792792792793
 40
0.2792792792792793
 40
0.2792792792792793
 40
0.2882882882882883
 40
0.2882882882882883
 40
0.2882882882882883
 40
0.2882882882882883
 40
0.2972972972972973
 40
0.2972972972972973
 40
0.2972972972972973
 40
0.2972972972972973
 40
0.3063063063063063
 40
0.3063063063063063
 40
0.3063063063063063
 40
0.3063063063063063
 40
0.3153153153153153
 40
0.3153153153153153
 40
0.3153153153153153
 40
0.3153153153153153
 40
0.3243243243243243
 40
0.3243243243243243
 40
0.3243243243243243
 40
0.3243243243243243
 40
0.3333333333333333
 40
0.3333333333333333
 40
0.3333333333333333
 40
0.3333333333333333
 40
0.3423423423423423
 40
0.3423423423423423
 40
0.3423423423423423
 40
0.3423423423423423
 40
0.3513513513513514
 40
0.3513513513513514
 40
0.3513513513513514
 40
0.3513513513513514
 40
0.3603603603603603
 40
0.3603603603603603
 40
0.3603603603603603
 40
0.3603603603603603
 40
0.3693693693693694
 40
0.3693693693693694
 40
0.3693693693693694
 40
0.3693693693693694
 40
0.3783783783783784
 40
0.3783783783783784
 40
0.3783783783783784
 40
0.3783783783783784
 40
0.3873873873873874
 40
0.3873873873873874
 40
0.3873873873873874
 40
0.3873873873873874
 40
0.3963963963963964
 40
0.3963963963963964
 40
0.3963963963963964
 40
0.3963963963963964
 40
0.4054054054054054
 40
0.4054054054054054
 40
0.4054054054054054
 40
0.4054054054054054
 40
0.4144144144144144
 40
0.4144144144144144
 40
0.4144144144144144
 40
0.4144144144144144
 40
0.4234234234234234
 40
0.4234234234234234
 40
0.4234234234234234
 40
0.4234234234234234
 40
0.4324324324324325
 40
0.4324324324324325
 40
0.4324324324324325
 40
0.4324324324324325
 40
0.4414414414414414
 40
0.4414414414414414
 40
0.4414414414414414
 40
0.4414414414414414
 40
0.4504504504504505
 40
0.4504504504504505
 40
0.4504504504504505
 40
0.4504504504504505
 40
0.4594594594594595
 40
0.4594594594594595
 40
0.4594594594594595
 40
0.4594594594594595
 40
0.4684684684684685
 40
0.4684684684684685
 40
0.4684684684684685
 40
0.4684684684684685
 40
0.4774774774774775
 40
0.4774774774774775
 40
0.4774774774774775
 40
0.4774774774774775
 40
0.4864864864864865
 40
0.4864864864864865
 40
0.4864864864864865
 40
0.4864864864864865
 40
0.4954954954954955
 40
0.4954954954954955
 40
0.4954954954954955
 40
0.4954954954954955
 40
0.5045045045045045
 40
0.5045045045045045
 40
0.5045045045045045
 40
0.5045045045045045
 40
0.5135135135135135
 40
0.5135135135135135
 40
0.5135135135135135
 40
0.5135135135135135
 40
0.5225225225225225
 40
0.5225225225225225
 40
0.5225225225225225
 40
0.5225225225225225
 40
0.5315315315315315
 40
0.5315315315315315
 40
0.5315315315315315
 40
0.5315315315315315
 40
0.5405405405405406
 40
0.5405405405405406
 40
0.5405405405405406
 40
0.5405405405405406
 40
0.5495495495495496
 40
0.5495495495495496
 40
0.5495495495495496
 40
0.5495495495495496
 40
0.5585585585585585
 40
0.5585585585585585
 40
0.5585585585585585
 40
0.5585585585585585
 40
0.5675675675675675
 40
0.5675675675675675
 40
0.5675675675675675
 40
0.5675675675675675
 40
0.5765765765765766
 40
0.5765765765765766
 40
0.5765765765765766
 40
0.5765765765765766
 40
0.5855855855855856
 40
0.5855855855855856
 40
0.5855855855855856
 40
0.5855855855855856
 40
0.5945945945945946
 40
0.5945945945945946
 40
0.5945945945945946
 40
0.5945945945945946
 40
0.6036036036036037
 40
0.6036036036036037
 40
0.6036036036036037
 40
0.6036036036036037
 40
0.6126126126126126
 40
0.6126126126126126
 40
0.6126126126126126
 40
0.6126126126126126
 40
0.6216216216216216
 40
0.6216216216216216
 40
0.6216216216216216
 40
0.6216216216216216
 40
0.6306306306306306
 40
0.6306306306306306
 40
0.6306306306306306
 40
0.6306306306306306
 40
0.6396396396396397
 40
0.6396396396396397
 40
0.6396396396396397
 40
0.6396396396396397
 40
0.6486486486486487
 40
0.6486486486486487
 40
0.6486486486486487
 40
0.6486486486486487
 40
0.6576576576576577
 40
0.6576576576576577
 40
0.6576576576576577
 40
0.6576576576576577
 40
0.6666666666666666
 40
0.6666666666666666
 40
0.6666666666666666
 40
0.6666666666666666
 40
0.6756756756756757
 40
0.6756756756756757
 40
0.6756756756756757
 40
0.6756756756756757
 40
0.6846846846846847
 40
0.6846846846846847
 40
0.6846846846846847
 40
0.6846846846846847
 40
0.6936936936936937
 40
0.6936936936936937
 40
0.6936936936936937
 40
0.6936936936936937
 40
0.7027027027027027
 40
0.7027027027027027
 40
0.7027027027027027
 40
0.7027027027027027
 40
0.7117117117117117
 40
0.7117117117117117
 40
0.7117117117117117
 40
0.7117117117117117
 40
0.7207207207207207
 40
0.7207207207207207
 40
0.7207207207207207
 40
0.7207207207207207
 40
0.7297297297297297
 40
0.7297297297297297
 40
0.7297297297297297
 40
0.7297297297297297
 40
0.7387387387387387
 40
0.7387387387387387
 40
0.7387387387387387
 40
0.7387387387387387
 40
0.7477477477477478
 40
0.7477477477477478
 40
0.7477477477477478
 40
0.7477477477477478
 40
0.7567567567567568
 40
0.7567567567567568
 40
0.7567567567567568
 40
0.7567567567567568
 40
0.7657657657657657
 40
0.7657657657657657
 40
0.7657657657657657
 40
0.7657657657657657
 40
0.7747747747747747
 40
0.7747747747747747
 40
0.7747747747747747
 40
0.7747747747747747
 40
0.7837837837837838
 40
0.7837837837837838
 40
0.7837837837837838
 40
0.7837837837837838
 40
0.7927927927927928
 40
0.7927927927927928
 40
0.7927927927927928
 40
0.7927927927927928
 40
0.8018018018018018
 40
0.8018018018018018
 40
0.8018018018018018
 40
0.8018018018018018
 40
0.8108108108108109
 40
0.8108108108108109
 40
0.8108108108108109
 40
0.8108108108108109
 40
0.8198198198198198
 40
0.8198198198198198
 40
0.8198198198198198
 40
0.8198198198198198
 40
0.8288288288288288
 40
0.8288288288288288
 40
0.8288288288288288
 40
0.8288288288288288
 40
0.8378378378378378
 40
0.8378378378378378
 40
0.8378378378378378
 40
0.8378378378378378
 40
0.8468468468468469
 40
0.8468468468468469
 40
0.8468468468468469
 40
0.8468468468468469
 40
0.8558558558558559
 40
0.8558558558558559
 40
0.8558558558558559
 40
0.8558558558558559
 40
0.8648648648648649
 40
0.8648648648648649
 40
0.8648648648648649
 40
0.8648648648648649
 40
0.8738738738738738
 40
0.8738738738738738
 40
0.8738738738738738
 40
0.8738738738738738
 40
0.8828828828828829
 40
0.8828828828828829
 40
0.8828828828828829
 40
0.8828828828828829
 40
0.8918918918918919
 40
0.8918918918918919
 40
0.8918918918918919
 40
0.8918918918918919
 40
0.9009009009009009
 40
0.9009009009009009
 40
0.9009009009009009
 40
0.9009009009009009
 40
0.9099099099099099
 40
0.9099099099099099
 40
0.9099099099099099
 40
0.9099099099099099
 40
0.918918918918919
 40
0.918918918918919
 40
0.918918918918919
 40
0.918918918918919
 40
0.9279279279279279
 40
0.9279279279279279
 40
0.9279279279279279
 40
0.9279279279279279
 40
0.9369369369369369
 40
0.9369369369369369
 40
0.9369369369369369
 40
0.9369369369369369
 40
0.9459459459459459
 40
0.9459459459459459
 40
0.9459459459459459
 40
0.9459459459459459
 40
0.954954954954955
 40
0.954954954954955
 40
0.954954954954955
 40
0.954954954954955
 40
0.963963963963964
 40
0.963963963963964
 40
0.963963963963964
 40
0.963963963963964
 40
0.972972972972973
 40
0.972972972972973
 40
0.972972972972973
 40
0.972972972972973
 40
0.9819819819819819
 40
0.9819819819819819
 40
0.9819819819819819
 40
0.9819819819819819
 40
1.0
 40
1.0
 40
1.0
 40
1.0
 10
1049.9988
 20
273.6597999999999
 30
0.0
 10
1049.9988
 20
273.6597999999999
 30
0.0
 10
1051.086
 20
272.9336999999998
 30
0.0
 10
1051.086
 20
272.9336999999998
 30
0.0
 10
1051.086
 20
272.9336999999998
 30
0.0
 10
1051.086
 20
272.9336999999998
 30
0.0
 10
1052.0698000000002
 20
272.0700999999999
 30
0.0
 10
1052.0698000000002
 20
272.0700999999999
 30
0.0
 10
1052.0698000000002
 20
272.0700999999999
 30
0.0
 10
1052.0698000000002
 20
272.0700999999999
 30
0.0
 10
1052.9328
 20
271.0868999999998
 30
0.0
 10
1052.9328
 20
271.0868999999998
 30
0.0
 10
1052.9328
 20
271.0868999999998
 30
0.0
 10
1052.9328
 20
271.0868999999998
 30
0.0
 10
1053.6589
 20
269.99969999999985
 30
0.0
 10
1053.6589
 20
269.99969999999985
 30
0.0
 10
1053.6589
 20
269.99969999999985
 30
0.0
 10
1053.6589
 20
269.99969999999985
 30
0.0
 10
1054.2376
 20
268.82699999999977
 30
0.0
 10
1054.2376
 20
268.82699999999977
 30
0.0
 10
1054.2376
 20
268.82699999999977
 30
0.0
 10
1054.2376
 20
268.82699999999977
 30
0.0
 10
1054.6578
 20
267.58759999999984
 30
0.0
 10
1054.6578
 20
267.58759999999984
 30
0.0
 10
1054.6578
 20
267.58759999999984
 30
0.0
 10
1054.6578
 20
267.58759999999984
 30
0.0
 10
1054.9133000000002
 20
266.3060999999998
 30
0.0
 10
1054.9133000000002
 20
266.3060999999998
 30
0.0
 10
1054.9133000000002
 20
266.3060999999998
 30
0.0
 10
1054.9133000000002
 20
266.3060999999998
 30
0.0
 10
1054.9978
 20
264.9995999999999
 30
0.0
 10
1054.9978
 20
264.9995999999999
 30
0.0
 10
1054.9978
 20
264.9995999999999
 30
0.0
 10
1054.9978
 20
264.9995999999999
 30
0.0
 10
1054.9978
 20
69.99929999999972
 30
0.0
 10
1054.9978
 20
69.99929999999972
 30
0.0
 10
1054.9978
 20
69.99929999999972
 30
0.0
 10
1054.9978
 20
69.99929999999972
 30
0.0
 10
974.9994
 20
-2.2737367544323206e-13
 30
0.0
 10
974.9994
 20
-2.2737367544323206e-13
 30
0.0
 10
974.9994
 20
-2.2737367544323206e-13
 30
0.0
 10
974.9994
 20
-2.2737367544323206e-13
 30
0.0
 10
79.99840000000006
 20
-2.2737367544323206e-13
 30
0.0
 10
79.99840000000006
 20
-2.2737367544323206e-13
 30
0.0
 10
79.99840000000006
 20
-2.2737367544323206e-13
 30
0.0
 10
79.99840000000006
 20
-2.2737367544323206e-13
 30
0.0
 10
0.0
 20
69.99929999999972
 30
0.0
 10
0.0
 20
69.99929999999972
 30
0.0
 10
0.0
 20
69.99929999999972
 30
0.0
 10
0.0
 20
69.99929999999972
 30
0.0
 10
0.0
 20
264.9995999999999
 30
0.0
 10
0.0
 20
264.9995999999999
 30
0.0
 10
0.0
 20
264.9995999999999
 30
0.0
 10
0.0
 20
264.9995999999999
 30
0.0
 10
0.08390000000008513
 20
266.3060999999998
 30
0.0
 10
0.08390000000008513
 20
266.3060999999998
 30
0.0
 10
0.08390000000008513
 20
266.3060999999998
 30
0.0
 10
0.08390000000008513
 20
266.3060999999998
 30
0.0
 10
0.34000000000003183
 20
267.58759999999984
 30
0.0
 10
0.34000000000003183
 20
267.58759999999984
 30
0.0
 10
0.34000000000003183
 20
267.58759999999984
 30
0.0
 10
0.34000000000003183
 20
267.58759999999984
 30
0.0
 10
0.7602000000000544
 20
268.82699999999977
 30
0.0
 10
0.7602000000000544
 20
268.82699999999977
 30
0.0
 10
0.7602000000000544
 20
268.82699999999977
 30
0.0
 10
0.7602000000000544
 20
268.82699999999977
 30
0.0
 10
1.3389000000000806
 20
269.99969999999985
 30
0.0
 10
1.3389000000000806
 20
269.99969999999985
 30
0.0
 10
1.3389000000000806
 20
269.99969999999985
 30
0.0
 10
1.3389000000000806
 20
269.99969999999985
 30
0.0
 10
2.0645000000000664
 20
271.0868999999998
 30
0.0
 10
2.0645000000000664
 20
271.0868999999998
 30
0.0
 10
2.0645000000000664
 20
271.0868999999998
 30
0.0
 10
2.0645000000000664
 20
271.0868999999998
 30
0.0
 10
2.9279999999999973
 20
272.0700999999999
 30
0.0
 10
2.9279999999999973
 20
272.0700999999999
 30
0.0
 10
2.9279999999999973
 20
272.0700999999999
 30
0.0
 10
2.9279999999999973
 20
272.0700999999999
 30
0.0
 10
3.9118000000000848
 20
272.9336999999998
 30
0.0
 10
3.9118000000000848
 20
272.9336999999998
 30
0.0
 10
3.9118000000000848
 20
272.9336999999998
 30
0.0
 10
3.9118000000000848
 20
272.9336999999998
 30
0.0
 10
4.9985000000000355
 20
273.6597999999999
 30
0.0
 10
4.9985000000000355
 20
273.6597999999999
 30
0.0
 10
4.9985000000000355
 20
273.6597999999999
 30
0.0
 10
4.9985000000000355
 20
273.6597999999999
 30
0.0
 10
6.171199999999999
 20
274.23799999999983
 30
0.0
 10
6.171199999999999
 20
274.23799999999983
 30
0.0
 10
6.171199999999999
 20
274.23799999999983
 30
0.0
 10
6.171199999999999
 20
274.23799999999983
 30
0.0
 10
7.411100000000033
 20
274.6586999999997
 30
0.0
 10
7.411100000000033
 20
274.6586999999997
 30
0.0
 10
7.411100000000033
 20
274.6586999999997
 30
0.0
 10
7.411100000000033
 20
274.6586999999997
 30
0.0
 10
8.694299999999998
 20
274.9141999999997
 30
0.0
 10
8.694299999999998
 20
274.9141999999997
 30
0.0
 10
8.694299999999998
 20
274.9141999999997
 30
0.0
 10
8.694299999999998
 20
274.9141999999997
 30
0.0
 10
9.999099999999999
 20
275.0002999999999
 30
0.0
 10
9.999099999999999
 20
275.0002999999999
 30
0.0
 10
9.999099999999999
 20
275.0002999999999
 30
0.0
 10
9.999099999999999
 20
275.0002999999999
 30
0.0
 10
49.99890000000005
 20
275.0002999999999
 30
0.0
 10
49.99890000000005
 20
275.0002999999999
 30
0.0
 10
49.99890000000005
 20
275.0002999999999
 30
0.0
 10
49.99890000000005
 20
275.0002999999999
 30
0.0
 10
52.61020000000008
 20
275.17029999999977
 30
0.0
 10
52.61020000000008
 20
275.17029999999977
 30
0.0
 10
52.61020000000008
 20
275.17029999999977
 30
0.0
 10
52.61020000000008
 20
275.17029999999977
 30
0.0
 10
55.175500000000056
 20
275.68039999999974
 30
0.0
 10
55.175500000000056
 20
275.68039999999974
 30
0.0
 10
55.175500000000056
 20
275.68039999999974
 30
0.0
 10
55.175500000000056
 20
275.68039999999974
 30
0.0
 10
57.65250000000003
 20
276.52279999999973
 30
0.0
 10
57.65250000000003
 20
276.52279999999973
 30
0.0
 10
57.65250000000003
 20
276.52279999999973
 30
0.0
 10
57.65250000000003
 20
276.52279999999973
 30
0.0
 10
59.99800000000005
 20
277.67819999999983
 30
0.0
 10
59.99800000000005
 20
277.67819999999983
 30
0.0
 10
59.99800000000005
 20
277.67819999999983
 30
0.0
 10
59.99800000000005
 20
277.67819999999983
 30
0.0
 10
62.17350000000005
 20
279.13199999999983
 30
0.0
 10
62.17350000000005
 20
279.13199999999983
 30
0.0
 10
62.17350000000005
 20
279.13199999999983
 30
0.0
 10
62.17350000000005
 20
279.13199999999983
 30
0.0
 10
64.14100000000008
 20
280.8585999999998
 30
0.0
 10
64.14100000000008
 20
280.8585999999998
 30
0.0
 10
64.14100000000008
 20
280.8585999999998
 30
0.0
 10
64.14100000000008
 20
280.8585999999998
 30
0.0
 10
65.86600000000004
 20
282.82399999999984
 30
0.0
 10
65.86600000000004
 20
282.82399999999984
 30
0.0
 10
65.86600000000004
 20
282.82399999999984
 30
0.0
 10
65.86600000000004
 20
282.82399999999984
 30
0.0
 10
67.31920000000002
 20
284.9994999999999
 30
0.0
 10
67.31920000000002
 20
284.9994999999999
 30
0.0
 10
67.31920000000002
 20
284.9994999999999
 30
0.0
 10
67.31920000000002
 20
284.9994999999999
 30
0.0
 10
68.47680000000003
 20
287.3470999999997
 30
0.0
 10
68.47680000000003
 20
287.3470999999997
 30
0.0
 10
68.47680000000003
 20
287.3470999999997
 30
0.0
 10
68.47680000000003
 20
287.3470999999997
 30
0.0
 10
69.31710000000004
 20
289.8240999999998
 30
0.0
 10
69.31710000000004
 20
289.8240999999998
 30
0.0
 10
69.31710000000004
 20
289.8240999999998
 30
0.0
 10
69.31710000000004
 20
289.8240999999998
 30
0.0
 10
69.82710000000003
 20
292.3893999999998
 30
0.0
 10
69.82710000000003
 20
292.3893999999998
 30
0.0
 10
69.82710000000003
 20
292.3893999999998
 30
0.0
 10
69.82710000000003
 20
292.3893999999998
 30
0.0
 10
69.99930000000006
 20
294.9985999999999
 30
0.0
 10
69.99930000000006
 20
294.9985999999999
 30
0.0
 10
69.99930000000006
 20
294.9985999999999
 30
0.0
 10
69.99930000000006
 20
294.9985999999999
 30
0.0
 10
69.99930000000006
 20
1709.9995999999999
 30
0.0
 10
69.99930000000006
 20
1709.9995999999999
 30
0.0
 10
69.99930000000006
 20
1709.9995999999999
 30
0.0
 10
69.99930000000006
 20
1709.9995999999999
 30
0.0
 10
69.82930000000005
 20
1712.6011999999998
 30
0.0
 10
69.82930000000005
 20
1712.6011999999998
 30
0.0
 10
69.82930000000005
 20
1712.6011999999998
 30
0.0
 10
69.82930000000005
 20
1712.6011999999998
 30
0.0
 10
69.32090000000005
 20
1715.1583999999998
 30
0.0
 10
69.32090000000005
 20
1715.1583999999998
 30
0.0
 10
69.32090000000005
 20
1715.1583999999998
 30
0.0
 10
69.32090000000005
 20
1715.1583999999998
 30
0.0
 10
68.48650000000004
 20
1717.6299999999999
 30
0.0
 10
68.48650000000004
 20
1717.6299999999999
 30
0.0
 10
68.48650000000004
 20
1717.6299999999999
 30
0.0
 10
68.48650000000004
 20
1717.6299999999999
 30
0.0
 10
67.33650000000006
 20
1719.9700999999998
 30
0.0
 10
67.33650000000006
 20
1719.9700999999998
 30
0.0
 10
67.33650000000006
 20
1719.9700999999998
 30
0.0
 10
67.33650000000006
 20
1719.9700999999998
 30
0.0
 10
65.89040000000006
 20
1722.1417999999999
 30
0.0
 10
65.89040000000006
 20
1722.1417999999999
 30
0.0
 10
65.89040000000006
 20
1722.1417999999999
 30
0.0
 10
65.89040000000006
 20
1722.1417999999999
 30
0.0
 10
64.17570000000006
 20
1724.1049999999998
 30
0.0
 10
64.17570000000006
 20
1724.1049999999998
 30
0.0
 10
64.17570000000006
 20
1724.1049999999998
 30
0.0
 10
64.17570000000006
 20
1724.1049999999998
 30
0.0
 10
62.21950000000004
 20
1725.83
 30
0.0
 10
62.21950000000004
 20
1725.83
 30
0.0
 10
62.21950000000004
 20
1725.83
 30
0.0
 10
62.21950000000004
 20
1725.83
 30
0.0
 10
60.057600000000036
 20
1727.2852999999998
 30
0.0
 10
60.057600000000036
 20
1727.2852999999998
 30
0.0
 10
60.057600000000036
 20
1727.2852999999998
 30
0.0
 10
60.057600000000036
 20
1727.2852999999998
 30
0.0
 10
57.72130000000004
 20
1728.4488999999999
 30
0.0
 10
57.72130000000004
 20
1728.4488999999999
 30
0.0
 10
57.72130000000004
 20
1728.4488999999999
 30
0.0
 10
57.72130000000004
 20
1728.4488999999999
 30
0.0
 10
55.25560000000007
 20
1729.2966999999999
 30
0.0
 10
55.25560000000007
 20
1729.2966999999999
 30
0.0
 10
55.25560000000007
 20
1729.2966999999999
 30
0.0
 10
55.25560000000007
 20
1729.2966999999999
 30
0.0
 10
52.70010000000002
 20
1729.8159999999998
 30
0.0
 10
52.70010000000002
 20
1729.8159999999998
 30
0.0
 10
52.70010000000002
 20
1729.8159999999998
 30
0.0
 10
52.70010000000002
 20
1729.8159999999998
 30
0.0
 10
50.09850000000006
 20
1729.9995
 30
0.0
 10
50.09850000000006
 20
1729.9995
 30
0.0
 10
50.09850000000006
 20
1729.9995
 30
0.0
 10
50.09850000000006
 20
1729.9995
 30
0.0
 10
9.999099999999999
 20
1729.9995
 30
0.0
 10
9.999099999999999
 20
1729.9995
 30
0.0
 10
9.999099999999999
 20
1729.9995
 30
0.0
 10
9.999099999999999
 20
1729.9995
 30
0.0
 10
8.694299999999998
 20
1730.0855999999999
 30
0.0
 10
8.694299999999998
 20
1730.0855999999999
 30
0.0
 10
8.694299999999998
 20
1730.0855999999999
 30
0.0
 10
8.694299999999998
 20
1730.0855999999999
 30
0.0
 10
7.411100000000033
 20
1730.3394999999998
 30
0.0
 10
7.411100000000033
 20
1730.3394999999998
 30
0.0
 10
7.411100000000033
 20
1730.3394999999998
 30
0.0
 10
7.411100000000033
 20
1730.3394999999998
 30
0.0
 10
6.171199999999999
 20
1730.7596999999998
 30
0.0
 10
6.171199999999999
 20
1730.7596999999998
 30
0.0
 10
6.171199999999999
 20
1730.7596999999998
 30
0.0
 10
6.171199999999999
 20
1730.7596999999998
 30
0.0
 10
4.9985000000000355
 20
1731.3384999999998
 30
0.0
 10
4.9985000000000355
 20
1731.3384999999998
 30
0.0
 10
4.9985000000000355
 20
1731.3384999999998
 30
0.0
 10
4.9985000000000355
 20
1731.3384999999998
 30
0.0
 10
3.9118000000000848
 20
1732.0661999999998
 30
0.0
 10
3.9118000000000848
 20
1732.0661999999998
 30
0.0
 10
3.9118000000000848
 20
1732.0661999999998
 30
0.0
 10
3.9118000000000848
 20
1732.0661999999998
 30
0.0
 10
2.9279999999999973
 20
1732.9275999999998
 30
0.0
 10
2.9279999999999973
 20
1732.9275999999998
 30
0.0
 10
2.9279999999999973
 20
1732.9275999999998
 30
0.0
 10
2.9279999999999973
 20
1732.9275999999998
 30
0.0
 10
2.0645000000000664
 20
1733.9113999999997
 30
0.0
 10
2.0645000000000664
 20
1733.9113999999997
 30
0.0
 10
2.0645000000000664
 20
1733.9113999999997
 30
0.0
 10
2.0645000000000664
 20
1733.9113999999997
 30
0.0
 10
1.3389000000000806
 20
1734.9979999999998
 30
0.0
 10
1.3389000000000806
 20
1734.9979999999998
 30
0.0
 10
1.3389000000000806
 20
1734.9979999999998
 30
0.0
 10
1.3389000000000806
 20
1734.9979999999998
 30
0.0
 10
0.7602000000000544
 20
1736.1728999999998
 30
0.0
 10
0.7602000000000544
 20
1736.1728999999998
 30
0.0
 10
0.7602000000000544
 20
1736.1728999999998
 30
0.0
 10
0.7602000000000544
 20
1736.1728999999998
 30
0.0
 10
0.34000000000003183
 20
1737.4105999999997
 30
0.0
 10
0.34000000000003183
 20
1737.4105999999997
 30
0.0
 10
0.34000000000003183
 20
1737.4105999999997
 30
0.0
 10
0.34000000000003183
 20
1737.4105999999997
 30
0.0
 10
0.08390000000008513
 20
1738.6942999999999
 30
0.0
 10
0.08390000000008513
 20
1738.6942999999999
 30
0.0
 10
0.08390000000008513
 20
1738.6942999999999
 30
0.0
 10
0.08390000000008513
 20
1738.6942999999999
 30
0.0
 10
0.0
 20
1739.9986999999999
 30
0.0
 10
0.0
 20
1739.9986999999999
 30
0.0
 10
0.0
 20
1739.9986999999999
 30
0.0
 10
0.0
 20
1739.9986999999999
 30
0.0
 10
0.0
 20
1999.9997999999998
 30
0.0
 10
0.0
 20
1999.9997999999998
 30
0.0
 10
0.0
 20
1999.9997999999998
 30
0.0
 10
0.0
 20
1999.9997999999998
 30
0.0
 10
1054.9978
 20
1999.9997999999998
 30
0.0
 10
1054.9978
 20
1999.9997999999998
 30
0.0
 10
1054.9978
 20
1999.9997999999998
 30
0.0
 10
1054.9978
 20
1999.9997999999998
 30
0.0
 10
1054.9978
 20
1739.9986999999999
 30
0.0
 10
1054.9978
 20
1739.9986999999999
 30
0.0
 10
1054.9978
 20
1739.9986999999999
 30
0.0
 10
1054.9978
 20
1739.9986999999999
 30
0.0
 10
1054.9133000000002
 20
1738.6942999999999
 30
0.0
 10
1054.9133000000002
 20
1738.6942999999999
 30
0.0
 10
1054.9133000000002
 20
1738.6942999999999
 30
0.0
 10
1054.9133000000002
 20
1738.6942999999999
 30
0.0
 10
1054.6578
 20
1737.4105999999997
 30
0.0
 10
1054.6578
 20
1737.4105999999997
 30
0.0
 10
1054.6578
 20
1737.4105999999997
 30
0.0
 10
1054.6578
 20
1737.4105999999997
 30
0.0
 10
1054.2376
 20
1736.1728999999998
 30
0.0
 10
1054.2376
 20
1736.1728999999998
 30
0.0
 10
1054.2376
 20
1736.1728999999998
 30
0.0
 10
1054.2376
 20
1736.1728999999998
 30
0.0
 10
1053.6589
 20
1734.9979999999998
 30
0.0
 10
1053.6589
 20
1734.9979999999998
 30
0.0
 10
1053.6589
 20
1734.9979999999998
 30
0.0
 10
1053.6589
 20
1734.9979999999998
 30
0.0
 10
1052.9328
 20
1733.9113999999997
 30
0.0
 10
1052.9328
 20
1733.9113999999997
 30
0.0
 10
1052.9328
 20
1733.9113999999997
 30
0.0
 10
1052.9328
 20
1733.9113999999997
 30
0.0
 10
1052.0698000000002
 20
1732.9275999999998
 30
0.0
 10
1052.0698000000002
 20
1732.9275999999998
 30
0.0
 10
1052.0698000000002
 20
1732.9275999999998
 30
0.0
 10
1052.0698000000002
 20
1732.9275999999998
 30
0.0
 10
1051.086
 20
1732.0661999999998
 30
0.0
 10
1051.086
 20
1732.0661999999998
 30
0.0
 10
1051.086
 20
1732.0661999999998
 30
0.0
 10
1051.086
 20
1732.0661999999998
 30
0.0
 10
1049.9988
 20
1731.3384999999998
 30
0.0
 10
1049.9988
 20
1731.3384999999998
 30
0.0
 10
1049.9988
 20
1731.3384999999998
 30
0.0
 10
1049.9988
 20
1731.3384999999998
 30
0.0
 10
1048.8244
 20
1730.7596999999998
 30
0.0
 10
1048.8244
 20
1730.7596999999998
 30
0.0
 10
1048.8244
 20
1730.7596999999998
 30
0.0
 10
1048.8244
 20
1730.7596999999998
 30
0.0
 10
1047.5867
 20
1730.3394999999998
 30
0.0
 10
1047.5867
 20
1730.3394999999998
 30
0.0
 10
1047.5867
 20
1730.3394999999998
 30
0.0
 10
1047.5867
 20
1730.3394999999998
 30
0.0
 10
1046.3029999999999
 20
1730.0855999999999
 30
0.0
 10
1046.3029999999999
 20
1730.0855999999999
 30
0.0
 10
1046.3029999999999
 20
1730.0855999999999
 30
0.0
 10
1046.3029999999999
 20
1730.0855999999999
 30
0.0
 10
1044.9987
 20
1729.9995
 30
0.0
 10
1044.9987
 20
1729.9995
 30
0.0
 10
1044.9987
 20
1729.9995
 30
0.0
 10
1044.9987
 20
1729.9995
 30
0.0
 10
1004.8988
 20
1729.9995
 30
0.0
 10
1004.8988
 20
1729.9995
 30
0.0
 10
1004.8988
 20
1729.9995
 30
0.0
 10
1004.8988
 20
1729.9995
 30
0.0
 10
1002.2977000000001
 20
1729.8159999999998
 30
0.0
 10
1002.2977000000001
 20
1729.8159999999998
 30
0.0
 10
1002.2977000000001
 20
1729.8159999999998
 30
0.0
 10
1002.2977000000001
 20
1729.8159999999998
 30
0.0
 10
999.7416000000001
 20
1729.2966999999999
 30
0.0
 10
999.7416000000001
 20
1729.2966999999999
 30
0.0
 10
999.7416000000001
 20
1729.2966999999999
 30
0.0
 10
999.7416000000001
 20
1729.2966999999999
 30
0.0
 10
997.2760000000001
 20
1728.4488999999999
 30
0.0
 10
997.2760000000001
 20
1728.4488999999999
 30
0.0
 10
997.2760000000001
 20
1728.4488999999999
 30
0.0
 10
997.2760000000001
 20
1728.4488999999999
 30
0.0
 10
994.9402
 20
1727.2852999999998
 30
0.0
 10
994.9402
 20
1727.2852999999998
 30
0.0
 10
994.9402
 20
1727.2852999999998
 30
0.0
 10
994.9402
 20
1727.2852999999998
 30
0.0
 10
992.7778000000001
 20
1725.83
 30
0.0
 10
992.7778000000001
 20
1725.83
 30
0.0
 10
992.7778000000001
 20
1725.83
 30
0.0
 10
992.7778000000001
 20
1725.83
 30
0.0
 10
990.82
 20
1724.1049999999998
 30
0.0
 10
990.82
 20
1724.1049999999998
 30
0.0
 10
990.82
 20
1724.1049999999998
 30
0.0
 10
990.82
 20
1724.1049999999998
 30
0.0
 10
989.1069
 20
1722.1417999999999
 30
0.0
 10
989.1069
 20
1722.1417999999999
 30
0.0
 10
989.1069
 20
1722.1417999999999
 30
0.0
 10
989.1069
 20
1722.1417999999999
 30
0.0
 10
987.6607000000001
 20
1719.9700999999998
 30
0.0
 10
987.6607000000001
 20
1719.9700999999998
 30
0.0
 10
987.6607000000001
 20
1719.9700999999998
 30
0.0
 10
987.6607000000001
 20
1719.9700999999998
 30
0.0
 10
986.5113000000001
 20
1717.6299999999999
 30
0.0
 10
986.5113000000001
 20
1717.6299999999999
 30
0.0
 10
986.5113000000001
 20
1717.6299999999999
 30
0.0
 10
986.5113000000001
 20
1717.6299999999999
 30
0.0
 10
985.6764000000001
 20
1715.1583999999998
 30
0.0
 10
985.6764000000001
 20
1715.1583999999998
 30
0.0
 10
985.6764000000001
 20
1715.1583999999998
 30
0.0
 10
985.6764000000001
 20
1715.1583999999998
 30
0.0
 10
985.1685
 20
1712.6011999999998
 30
0.0
 10
985.1685
 20
1712.6011999999998
 30
0.0
 10
985.1685
 20
1712.6011999999998
 30
0.0
 10
985.1685
 20
1712.6011999999998
 30
0.0
 10
984.9985
 20
1709.9995999999999
 30
0.0
 10
984.9985
 20
1709.9995999999999
 30
0.0
 10
984.9985
 20
1709.9995999999999
 30
0.0
 10
984.9985
 20
1709.9995999999999
 30
0.0
 10
984.9985
 20
294.9985999999999
 30
0.0
 10
984.9985
 20
294.9985999999999
 30
0.0
 10
984.9985
 20
294.9985999999999
 30
0.0
 10
984.9985
 20
294.9985999999999
 30
0.0
 10
985.1701
 20
292.3893999999998
 30
0.0
 10
985.1701
 20
292.3893999999998
 30
0.0
 10
985.1701
 20
292.3893999999998
 30
0.0
 10
985.1701
 20
292.3893999999998
 30
0.0
 10
985.6802
 20
289.8240999999998
 30
0.0
 10
985.6802
 20
289.8240999999998
 30
0.0
 10
985.6802
 20
289.8240999999998
 30
0.0
 10
985.6802
 20
289.8240999999998
 30
0.0
 10
986.5205000000001
 20
287.3470999999997
 30
0.0
 10
986.5205000000001
 20
287.3470999999997
 30
0.0
 10
986.5205000000001
 20
287.3470999999997
 30
0.0
 10
986.5205000000001
 20
287.3470999999997
 30
0.0
 10
987.6780000000001
 20
284.9994999999999
 30
0.0
 10
987.6780000000001
 20
284.9994999999999
 30
0.0
 10
987.6780000000001
 20
284.9994999999999
 30
0.0
 10
987.6780000000001
 20
284.9994999999999
 30
0.0
 10
989.1318000000001
 20
282.82399999999984
 30
0.0
 10
989.1318000000001
 20
282.82399999999984
 30
0.0
 10
989.1318000000001
 20
282.82399999999984
 30
0.0
 10
989.1318000000001
 20
282.82399999999984
 30
0.0
 10
990.8562000000001
 20
280.8585999999998
 30
0.0
 10
990.8562000000001
 20
280.8585999999998
 30
0.0
 10
990.8562000000001
 20
280.8585999999998
 30
0.0
 10
990.8562000000001
 20
280.8585999999998
 30
0.0
 10
992.8238000000001
 20
279.13199999999983
 30
0.0
 10
992.8238000000001
 20
279.13199999999983
 30
0.0
 10
992.8238000000001
 20
279.13199999999983
 30
0.0
 10
992.8238000000001
 20
279.13199999999983
 30
0.0
 10
994.9971
 20
277.67819999999983
 30
0.0
 10
994.9971
 20
277.67819999999983
 30
0.0
 10
994.9971
 20
277.67819999999983
 30
0.0
 10
994.9971
 20
277.67819999999983
 30
0.0
 10
997.3447000000001
 20
276.52279999999973
 30
0.0
 10
997.3447000000001
 20
276.52279999999973
 30
0.0
 10
997.3447000000001
 20
276.52279999999973
 30
0.0
 10
997.3447000000001
 20
276.52279999999973
 30
0.0
 10
999.8223
 20
275.68039999999974
 30
0.0
 10
999.8223
 20
275.68039999999974
 30
0.0
 10
999.8223
 20
275.68039999999974
 30
0.0
 10
999.8223
 20
275.68039999999974
 30
0.0
 10
1002.3871
 20
275.17029999999977
 30
0.0
 10
1002.3871
 20
275.17029999999977
 30
0.0
 10
1002.3871
 20
275.17029999999977
 30
0.0
 10
1002.3871
 20
275.17029999999977
 30
0.0
 10
1004.9984000000001
 20
275.0002999999999
 30
0.0
 10
1004.9984000000001
 20
275.0002999999999
 30
0.0
 10
1004.9984000000001
 20
275.0002999999999
 30
0.0
 10
1004.9984000000001
 20
275.0002999999999
 30
0.0
 10
1044.9987
 20
275.0002999999999
 30
0.0
 10
1044.9987
 20
275.0002999999999
 30
0.0
 10
1044.9987
 20
275.0002999999999
 30
0.0
 10
1044.9987
 20
275.0002999999999
 30
0.0
 10
1046.3029999999999
 20
274.9141999999997
 30
0.0
 10
1046.3029999999999
 20
274.9141999999997
 30
0.0
 10
1046.3029999999999
 20
274.9141999999997
 30
0.0
 10
1046.3029999999999
 20
274.9141999999997
 30
0.0
 10
1047.5867
 20
274.6586999999997
 30
0.0
 10
1047.5867
 20
274.6586999999997
 30
0.0
 10
1047.5867
 20
274.6586999999997
 30
0.0
 10
1047.5867
 20
274.6586999999997
 30
0.0
 10
1048.8244
 20
274.23799999999983
 30
0.0
 10
1048.8244
 20
274.23799999999983
 30
0.0
 10
1048.8244
 20
274.23799999999983
 30
0.0
 10
1048.8244
 20
274.23799999999983
 30
0.0
 10
1049.9988
 20
273.6597999999999
 30
0.0
 10
1049.9988
 20
273.6597999999999
 30
0.0
  0
SPLINE
  5
46
330
17
100
AcDbEntity
  8
layer 1
 62
250
370
9
100
AcDbSpline
 70
8
 71
3
 72
32
 73
28
 74
0
 42
1e-09
 40
0.0
 40
0.0
 40
0.0
 40
0.0
 40
0.125
 40
0.125
 40
0.125
 40
0.125
 40
0.25
 40
0.25
 40
0.25
 40
0.25
 40
0.375
 40
0.375
 40
0.375
 40
0.375
 40
0.5
 40
0.5
 40
0.5
 40
0.5
 40
0.625
 40
0.625
 40
0.625
 40
0.625
 40
0.75
 40
0.75
 40
0.75
 40
0.75
 40
1.0
 40
1.0
 40
1.0
 40
1.0
 10
1195.9274000000003
 20
1869.2585000000001
 30
0.0
 10
1195.9274000000003
 20
1869.2585000000001
 30
0.0
 10
1195.9274000000003
 20
1894.2120000000002
 30
0.0
 10
1195.9274000000003
 20
1894.2120000000002
 30
0.0
 10
1195.9274000000003
 20
1894.2120000000002
 30
0.0
 10
1199.5222
 20
1894.2120000000002
 30
0.0
 10
1203.1177000000002
 20
1894.2120000000002
 30
0.0
 10
1206.7129000000002
 20
1894.2120000000002
 30
0.0
 10
1206.7129000000002
 20
1894.2120000000002
 30
0.0
 10
1209.0382000000002
 20
1894.1743000000001
 30
0.0
 10
1210.5955000000001
 20
1892.6843000000001
 30
0.0
 10
1210.5914000000002
 20
1890.3179
 30
0.0
 10
1210.5914000000002
 20
1890.3179
 30
0.0
 10
1210.5910000000001
 20
1888.2824
 30
0.0
 10
1210.5910000000001
 20
1885.2230000000002
 30
0.0
 10
1210.5914000000002
 20
1883.1870000000001
 30
0.0
 10
1210.5914000000002
 20
1883.1870000000001
 30
0.0
 10
1210.5849
 20
1881.3115000000003
 30
0.0
 10
1208.7726000000002
 20
1879.3697000000002
 30
0.0
 10
1206.7631000000001
 20
1879.3506000000002
 30
0.0
 10
1206.7631000000001
 20
1879.3506000000002
 30
0.0
 10
1206.7631000000001
 20
1879.3506000000002
 30
0.0
 10
1195.9274000000003
 20
1879.3506000000002
 30
0.0
 10
1195.9274000000003
 20
1879.3506000000002
 30
0.0
 10
1195.9274000000003
 20
1879.3506000000002
 30
0.0
 10
1195.9274000000003
 20
1879.3506000000002
 30
0.0
 10
1210.5821
 20
1869.2585000000001
 30
0.0
 10
1210.5821
 20
1869.2585000000001
 30
0.0
  0
SPLINE
  5
47
330
17
100
AcDbEntity
  8
layer 1
 62
250
370
9
100
AcDbSpline
 70
8
 71
3
 72
20
 73
16
 74
0
 42
1e-09
 40
0.0
 40
0.0
 40
0.0
 40
0.0
 40
0.2
 40
0.2
 40
0.2
 40
0.2
 40
0.4
 40
0.4
 40
0.4
 40
0.4
 40
0.6
 40
0.6
 40
0.6
 40
0.6
 40
1.0
 40
1.0
 40
1.0
 40
1.0
 10
1154.4169000000002
 20
1869.2563
 30
0.0
 10
1154.4169000000002
 20
1869.2563
 30
0.0
 10
1154.4169000000002
 20
1894.2142000000001
 30
0.0
 10
1154.4169000000002
 20
1894.2142000000001
 30
0.0
 10
1154.4169000000002
 20
1894.2142000000001
 30
0.0
 10
1154.4169000000002
 20
1894.2142000000001
 30
0.0
 10
1163.342
 20
1869.2563
 30
0.0
 10
1163.342
 20
1869.2563
 30
0.0
 10
1163.342
 20
1869.2563
 30
0.0
 10
1163.342
 20
1869.2563
 30
0.0
 10
1172.1019000000001
 20
1894.2137000000002
 30
0.0
 10
1172.1019000000001
 20
1894.2137000000002
 30
0.0
 10
1172.1019000000001
 20
1894.2137000000002
 30
0.0
 10
1172.1019000000001
 20
1894.2137000000002
 30
0.0
 10
1172.1019000000001
 20
1869.2563
 30
0.0
 10
1172.1019000000001
 20
1869.2563
 30
0.0
  0
SPLINE
  5
48
330
17
100
AcDbEntity
  8
layer 1
 62
250
370
9
100
AcDbSpline
 70
11
 71
3
 72
28
 73
24
 74
0
 42
1e-09
 40
0.0
 40
0.0
 40
0.0
 40
0.0
 40
0.1428571428571428
 40
0.1428571428571428
 40
0.1428571428571428
 40
0.1428571428571428
 40
0.2857142857142857
 40
0.2857142857142857
 40
0.2857142857142857
 40
0.2857142857142857
 40
0.4285714285714285
 40
0.4285714285714285
 40
0.4285714285714285
 40
0.4285714285714285
 40
0.5714285714285714
 40
0.5714285714285714
 40
0.5714285714285714
 40
0.5714285714285714
 40
0.7142857142857143
 40
0.7142857142857143
 40
0.7142857142857143
 40
0.7142857142857143
 40
1.0
 40
1.0
 40
1.0
 40
1.0
 10
1135.8671000000002
 20
1869.2866000000001
 30
0.0
 10
1138.1989
 20
1869.2870000000003
 30
0.0
 10
1143.1491
 20
1869.2630000000001
 30
0.0
 10
1145.4806
 20
1869.2627000000002
 30
0.0
 10
1145.4806
 20
1869.2627000000002
 30
0.0
 10
1147.4056000000003
 20
1869.1573000000003
 30
0.0
 10
1150.7242
 20
1872.6989000000003
 30
0.0
 10
1150.7130000000002
 20
1874.7162000000003
 30
0.0
 10
1150.7130000000002
 20
1874.7162000000003
 30
0.0
 10
1150.7126
 20
1880.4863
 30
0.0
 10
1150.7126
 20
1882.6560000000002
 30
0.0
 10
1150.7130000000002
 20
1888.4253000000003
 30
0.0
 10
1150.7130000000002
 20
1888.4253000000003
 30
0.0
 10
1150.7087000000001
 20
1890.5634000000002
 30
0.0
 10
1147.3342000000002
 20
1894.2235
 30
0.0
 10
1145.1818
 20
1894.21
 30
0.0
 10
1145.1818
 20
1894.21
 30
0.0
 10
1142.8561000000002
 20
1894.21
 30
0.0
 10
1138.1318
 20
1894.21
 30
0.0
 10
1135.8057000000001
 20
1894.21
 30
0.0
 10
1135.8057000000001
 20
1894.21
 30
0.0
 10
1135.8061000000002
 20
1888.4631000000002
 30
0.0
 10
1135.8674
 20
1875.0339000000001
 30
0.0
 10
1135.8671000000002
 20
1869.2866000000001
 30
0.0
  0
SPLINE
  5
49
330
17
100
AcDbEntity
  8
layer 1
 62
250
370
9
100
AcDbSpline
 70
24
 71
3
 72
8
 73
4
 74
0
 42
1e-09
 40
0.0
 40
0.0
 40
0.0
 40
0.0
 40
1.0
 40
1.0
 40
1.0
 40
1.0
 10
1179.6753
 20
1894.2120000000002
 30
0.0
 10
1179.6753
 20
1894.2120000000002
 30
0.0
 10
1186.8434000000002
 20
1894.2120000000002
 30
0.0
 10
1186.8434000000002
 20
1894.2120000000002
 30
0.0
  0
SPLINE
  5
4A
330
17
100
AcDbEntity
  8
layer 1
 62
250
370
9
100
AcDbSpline
 70
24
 71
3
 72
8
 73
4
 74
0
 42
1e-09
 40
0.0
 40
0.0
 40
0.0
 40
0.0
 40
1.0
 40
1.0
 40
1.0
 40
1.0
 10
1179.6753
 20
1869.2585000000001
 30
0.0
 10
1179.6753
 20
1869.2585000000001
 30
0.0
 10
1186.8434000000002
 20
1869.2585000000001
 30
0.0
 10
1186.8434000000002
 20
1869.2585000000001
 30
0.0
  0
SPLINE
  5
4B
330
17
100
AcDbEntity
  8
layer 1
 62
250
370
9
100
AcDbSpline
 70
24
 71
3
 72
8
 73
4
 74
0
 42
1e-09
 40
0.0
 40
0.0
 40
0.0
 40
0.0
 40
1.0
 40
1.0
 40
1.0
 40
1.0
 10
1183.2593000000002
 20
1894.2120000000002
 30
0.0
 10
1183.2593000000002
 20
1894.2120000000002
 30
0.0
 10
1183.2593000000002
 20
1869.2585000000001
 30
0.0
 10
1183.2593000000002
 20
1869.2585000000001
 30
0.0
  0
SPLINE
  5
4C
330
17
100
AcDbEntity
  8
layer 1
 62
250
370
9
100
AcDbSpline
 70
8
 71
3
 72
12
 73
8
 74
0
 42
1e-09
 40
0.0
 40
0.0
 40
0.0
 40
0.0
 40
0.3333333333333333
 40
0.3333333333333333
 40
0.3333333333333333
 40
0.3333333333333333
 40
1.0
 40
1.0
 40
1.0
 40
1.0
 10
1115.7889000000002
 20
1869.2585000000001
 30
0.0
 10
1115.7889000000002
 20
1869.2585000000001
 30
0.0
 10
1123.1599
 20
1894.2120000000002
 30
0.0
 10
1123.1599
 20
1894.2120000000002
 30
0.0
 10
1123.1599
 20
1894.2120000000002
 30
0.0
 10
1123.1599
 20
1894.2120000000002
 30
0.0
 10
1130.7298
 20
1869.2585000000001
 30
0.0
 10
1130.7298
 20
1869.2585000000001
 30
0.0
  0
SPLINE
  5
4D
330
17
100
AcDbEntity
  8
layer 1
 62
250
370
9
100
AcDbSpline
 70
24
 71
3
 72
8
 73
4
 74
0
 42
1e-09
 40
0.0
 40
0.0
 40
0.0
 40
0.0
 40
1.0
 40
1.0
 40
1.0
 40
1.0
 10
1118.5115
 20
1878.5079
 30
0.0
 10
1118.5115
 20
1878.5079
 30
0.0
 10
1128.0072000000002
 20
1878.5079
 30
0.0
 10
1128.0072000000002
 20
1878.5079
 30
0.0
  0
SPLINE
  5
4E
330
17
100
AcDbEntity
  8
layer 1
 62
250
370
9
100
AcDbSpline
 70
8
 71
3
 72
12
 73
8
 74
0
 42
1e-09
 40
0.0
 40
0.0
 40
0.0
 40
0.0
 40
0.3333333333333333
 40
0.3333333333333333
 40
0.3333333333333333
 40
0.3333333333333333
 40
1.0
 40
1.0
 40
1.0
 40
1.0
 10
1249.7339000000002
 20
1869.2584000000002
 30
0.0
 10
1249.7339000000002
 20
1869.2584000000002
 30
0.0
 10
1236.7848000000001
 20
1869.2584000000002
 30
0.0
 10
1236.7848000000001
 20
1869.2584000000002
 30
0.0
 10
1236.7848000000001
 20
1869.2584000000002
 30
0.0
 10
1236.7848000000001
 20
1869.2584000000002
 30
0.0
 10
1236.7848000000001
 20
1894.2120000000002
 30
0.0
 10
1236.7848000000001
 20
1894.2120000000002
 30
0.0
  0
SPLINE
  5
4F
330
17
100
AcDbEntity
  8
layer 1
 62
250
370
9
100
AcDbSpline
 70
8
 71
3
 72
12
 73
8
 74
0
 42
1e-09
 40
0.0
 40
0.0
 40
0.0
 40
0.0
 40
0.3333333333333333
 40
0.3333333333333333
 40
0.3333333333333333
 40
0.3333333333333333
 40
1.0
 40
1.0
 40
1.0
 40
1.0
 10
1215.7889000000002
 20
1869.2585000000001
 30
0.0
 10
1215.7889000000002
 20
1869.2585000000001
 30
0.0
 10
1223.1599
 20
1894.2120000000002
 30
0.0
 10
1223.1599
 20
1894.2120000000002
 30
0.0
 10
1223.1599
 20
1894.2120000000002
 30
0.0
 10
1223.1599
 20
1894.2120000000002
 30
0.0
 10
1230.7298
 20
1869.2585000000001
 30
0.0
 10
1230.7298
 20
1869.2585000000001
 30
0.0
  0
SPLINE
  5
50
330
17
100
AcDbEntity
  8
layer 1
 62
250
370
9
100
AcDbSpline
 70
24
 71
3
 72
8
 73
4
 74
0
 42
1e-09
 40
0.0
 40
0.0
 40
0.0
 40
0.0
 40
1.0
 40
1.0
 40
1.0
 40
1.0
 10
1218.5115
 20
1878.5079
 30
0.0
 10
1218.5115
 20
1878.5079
 30
0.0
 10
1228.0072000000002
 20
1878.5079
 30
0.0
 10
1228.0072000000002
 20
1878.5079
 30
0.0
  0
SPLINE
  5
51
330
17
100
AcDbEntity
  8
layer 1
 62
250
370
9
100
AcDbSpline
 70
8
 71
3
 72
52
 73
48
 74
0
 42
1e-09
 40
0.0
 40
0.0
 40
0.0
 40
0.0
 40
0.0769230769230769
 40
0.0769230769230769
 40
0.0769230769230769
 40
0.0769230769230769
 40
0.1538461538461539
 40
0.1538461538461539
 40
0.1538461538461539
 40
0.1538461538461539
 40
0.2307692307692308
 40
0.2307692307692308
 40
0.2307692307692308
 40
0.2307692307692308
 40
0.3076923076923077
 40
0.3076923076923077
 40
0.3076923076923077
 40
0.3076923076923077
 40
0.3846153846153846
 40
0.3846153846153846
 40
0.3846153846153846
 40
0.3846153846153846
 40
0.4615384615384616
 40
0.4615384615384616
 40
0.4615384615384616
 40
0.4615384615384616
 40
0.5384615384615384
 40
0.5384615384615384
 40
0.5384615384615384
 40
0.5384615384615384
 40
0.6153846153846154
 40
0.6153846153846154
 40
0.6153846153846154
 40
0.6153846153846154
 40
0.6923076923076923
 40
0.6923076923076923
 40
0.6923076923076923
 40
0.6923076923076923
 40
0.7692307692307693
 40
0.7692307692307693
 40
0.7692307692307693
 40
0.7692307692307693
 40
0.8461538461538461
 40
0.8461538461538461
 40
0.8461538461538461
 40
0.8461538461538461
 40
1.0
 40
1.0
 40
1.0
 40
1.0
 10
1261.6978000000001
 20
1887.7933000000003
 30
0.0
 10
1261.6978000000001
 20
1887.7933000000003
 30
0.0
 10
1261.6978000000001
 20
1889.6505000000002
 30
0.0
 10
1261.6978000000001
 20
1889.6505000000002
 30
0.0
 10
1261.6978000000001
 20
1889.6505000000002
 30
0.0
 10
1261.6835
 20
1891.3924000000002
 30
0.0
 10
1264.3480000000002
 20
1893.5105000000003
 30
0.0
 10
1266.4071000000001
 20
1893.4878000000003
 30
0.0
 10
1266.4071000000001
 20
1893.4878000000003
 30
0.0
 10
1268.4712000000002
 20
1893.4878000000003
 30
0.0
 10
1270.5352000000003
 20
1893.4878000000003
 30
0.0
 10
1272.5989000000002
 20
1893.4878000000003
 30
0.0
 10
1272.5989000000002
 20
1893.4878000000003
 30
0.0
 10
1274.7934000000002
 20
1893.4966000000002
 30
0.0
 10
1276.3917000000001
 20
1891.6498000000001
 30
0.0
 10
1276.4361000000001
 20
1889.7377000000001
 30
0.0
 10
1276.4361000000001
 20
1889.7377000000001
 30
0.0
 10
1276.4357000000002
 20
1888.3026000000002
 30
0.0
 10
1276.4357000000002
 20
1886.8675000000003
 30
0.0
 10
1276.4361000000001
 20
1885.4320000000002
 30
0.0
 10
1276.4361000000001
 20
1885.4320000000002
 30
0.0
 10
1276.3875000000003
 20
1883.7785000000001
 30
0.0
 10
1274.7849
 20
1881.5485000000003
 30
0.0
 10
1272.5866
 20
1881.5585
 30
0.0
 10
1272.5866
 20
1881.5585
 30
0.0
 10
1274.7903000000001
 20
1881.5473000000002
 30
0.0
 10
1276.3983000000003
 20
1879.7441000000003
 30
0.0
 10
1276.4523000000002
 20
1877.6846
 30
0.0
 10
1276.4523000000002
 20
1877.6846
 30
0.0
 10
1276.4519000000003
 20
1875.8999000000003
 30
0.0
 10
1276.4519000000003
 20
1874.1152000000002
 30
0.0
 10
1276.4523000000002
 20
1872.3301000000001
 30
0.0
 10
1276.4523000000002
 20
1872.3301000000001
 30
0.0
 10
1276.4624000000001
 20
1870.2687
 30
0.0
 10
1274.4075000000003
 20
1868.5056000000002
 30
0.0
 10
1272.5866
 20
1868.5137000000002
 30
0.0
 10
1272.5866
 20
1868.5137000000002
 30
0.0
 10
1270.5213
 20
1868.5140000000001
 30
0.0
 10
1268.4561
 20
1868.5140000000001
 30
0.0
 10
1266.3905000000002
 20
1868.5137000000002
 30
0.0
 10
1266.3905000000002
 20
1868.5137000000002
 30
0.0
 10
1264.2219000000002
 20
1868.5252
 30
0.0
 10
1261.6909
 20
1870.9254
 30
0.0
 10
1261.6723000000002
 20
1872.3872000000001
 30
0.0
 10
1261.6723000000002
 20
1872.3872000000001
 30
0.0
 10
1261.6723000000002
 20
1872.3872000000001
 30
0.0
 10
1261.6723000000002
 20
1874.2958000000003
 30
0.0
 10
1261.6723000000002
 20
1874.2958000000003
 30
0.0
  0
SPLINE
  5
52
330
17
100
AcDbEntity
  8
layer 1
 62
250
370
9
100
AcDbSpline
 70
24
 71
3
 72
8
 73
4
 74
0
 42
1e-09
 40
0.0
 40
0.0
 40
0.0
 40
0.0
 40
1.0
 40
1.0
 40
1.0
 40
1.0
 10
1266.4075000000003
 20
1881.5481000000002
 30
0.0
 10
1266.4075000000003
 20
1881.5481000000002
 30
0.0
 10
1272.6039
 20
1881.5481000000002
 30
0.0
 10
1272.6039
 20
1881.5481000000002
 30
0.0
  0
SPLINE
  5
53
330
17
100
AcDbEntity
  8
layer 1
 62
250
370
9
100
AcDbSpline
 70
8
 71
3
 72
40
 73
36
 74
0
 42
1e-09
 40
0.0
 40
0.0
 40
0.0
 40
0.0
 40
0.1
 40
0.1
 40
0.1
 40
0.1
 40
0.2
 40
0.2
 40
0.2
 40
0.2
 40
0.3
 40
0.3
 40
0.3
 40
0.3
 40
0.4
 40
0.4
 40
0.4
 40
0.4
 40
0.5
 40
0.5
 40
0.5
 40
0.5
 40
0.6
 40
0.6
 40
0.6
 40
0.6
 40
0.7
 40
0.7
 40
0.7
 40
0.7
 40
0.8
 40
0.8
 40
0.8
 40
0.8
 40
1.0
 40
1.0
 40
1.0
 40
1.0
 10
1314.0844000000002
 20
1893.4197000000001
 30
0.0
 10
1314.0844000000002
 20
1893.4197000000001
 30
0.0
 10
1301.2327000000002
 20
1893.4197000000001
 30
0.0
 10
1301.2327000000002
 20
1893.4197000000001
 30
0.0
 10
1301.2327000000002
 20
1893.4197000000001
 30
0.0
 10
1301.2330000000002
 20
1889.1891
 30
0.0
 10
1301.2330000000002
 20
1884.9582
 30
0.0
 10
1301.2327000000002
 20
1880.7270000000003
 30
0.0
 10
1301.2327000000002
 20
1880.7270000000003
 30
0.0
 10
1301.2324
 20
1884.0371
 30
0.0
 10
1302.8634000000002
 20
1885.1089000000002
 30
0.0
 10
1305.6754
 20
1885.1694000000002
 30
0.0
 10
1305.6754
 20
1885.1694000000002
 30
0.0
 10
1308.1150000000002
 20
1885.1697000000001
 30
0.0
 10
1310.5545000000002
 20
1885.1697000000001
 30
0.0
 10
1312.9937000000002
 20
1885.1694000000002
 30
0.0
 10
1312.9937000000002
 20
1885.1694000000002
 30
0.0
 10
1314.6435000000001
 20
1885.1762000000003
 30
0.0
 10
1316.1184000000003
 20
1882.7957000000001
 30
0.0
 10
1316.1469000000002
 20
1880.7270000000003
 30
0.0
 10
1316.1469000000002
 20
1880.7270000000003
 30
0.0
 10
1316.1466000000003
 20
1878.1397000000002
 30
0.0
 10
1316.1466000000003
 20
1875.5521000000003
 30
0.0
 10
1316.1469000000002
 20
1872.9644000000003
 30
0.0
 10
1316.1469000000002
 20
1872.9644000000003
 30
0.0
 10
1316.1931000000002
 20
1871.005
 30
0.0
 10
1314.6937000000003
 20
1868.5687000000003
 30
0.0
 10
1313.0678000000003
 20
1868.5102000000002
 30
0.0
 10
1313.0678000000003
 20
1868.5102000000002
 30
0.0
 10
1311.1113000000003
 20
1868.5105000000003
 30
0.0
 10
1306.2163000000003
 20
1868.5105000000003
 30
0.0
 10
1304.2593000000002
 20
1868.5102000000002
 30
0.0
 10
1304.2593000000002
 20
1868.5102000000002
 30
0.0
 10
1302.4138000000003
 20
1868.5014
 30
0.0
 10
1301.3067
 20
1870.4662000000003
 30
0.0
 10
1301.2859
 20
1873.0173000000002
 30
0.0
  0
SPLINE
  5
54
330
17
100
AcDbEntity
  8
layer 1
 62
250
370
9
100
AcDbSpline
 70
8
 71
3
 72
52
 73
48
 74
0
 42
1e-09
 40
0.0
 40
0.0
 40
0.0
 40
0.0
 40
0.0769230769230769
 40
0.0769230769230769
 40
0.0769230769230769
 40
0.0769230769230769
 40
0.1538461538461539
 40
0.1538461538461539
 40
0.1538461538461539
 40
0.1538461538461539
 40
0.2307692307692308
 40
0.2307692307692308
 40
0.2307692307692308
 40
0.2307692307692308
 40
0.3076923076923077
 40
0.3076923076923077
 40
0.3076923076923077
 40
0.3076923076923077
 40
0.3846153846153846
 40
0.3846153846153846
 40
0.3846153846153846
 40
0.3846153846153846
 40
0.4615384615384616
 40
0.4615384615384616
 40
0.4615384615384616
 40
0.4615384615384616
 40
0.5384615384615384
 40
0.5384615384615384
 40
0.5384615384615384
 40
0.5384615384615384
 40
0.6153846153846154
 40
0.6153846153846154
 40
0.6153846153846154
 40
0.6153846153846154
 40
0.6923076923076923
 40
0.6923076923076923
 40
0.6923076923076923
 40
0.6923076923076923
 40
0.7692307692307693
 40
0.7692307692307693
 40
0.7692307692307693
 40
0.7692307692307693
 40
0.8461538461538461
 40
0.8461538461538461
 40
0.8461538461538461
 40
0.8461538461538461
 40
1.0
 40
1.0
 40
1.0
 40
1.0
 10
1281.6978000000001
 20
1887.7933000000003
 30
0.0
 10
1281.6978000000001
 20
1887.7933000000003
 30
0.0
 10
1281.6978000000001
 20
1889.6505000000002
 30
0.0
 10
1281.6978000000001
 20
1889.6505000000002
 30
0.0
 10
1281.6978000000001
 20
1889.6505000000002
 30
0.0
 10
1281.6835
 20
1891.3924000000002
 30
0.0
 10
1284.3480000000002
 20
1893.5105000000003
 30
0.0
 10
1286.4071000000001
 20
1893.4878000000003
 30
0.0
 10
1286.4071000000001
 20
1893.4878000000003
 30
0.0
 10
1288.4712000000002
 20
1893.4878000000003
 30
0.0
 10
1290.5352000000003
 20
1893.4878000000003
 30
0.0
 10
1292.5989000000002
 20
1893.4878000000003
 30
0.0
 10
1292.5989000000002
 20
1893.4878000000003
 30
0.0
 10
1294.7934000000002
 20
1893.4966000000002
 30
0.0
 10
1296.3917000000001
 20
1891.6498000000001
 30
0.0
 10
1296.4361000000001
 20
1889.7377000000001
 30
0.0
 10
1296.4361000000001
 20
1889.7377000000001
 30
0.0
 10
1296.4357000000002
 20
1888.3026000000002
 30
0.0
 10
1296.4357000000002
 20
1886.8675000000003
 30
0.0
 10
1296.4361000000001
 20
1885.4320000000002
 30
0.0
 10
1296.4361000000001
 20
1885.4320000000002
 30
0.0
 10
1296.3875000000003
 20
1883.7785000000001
 30
0.0
 10
1294.7849
 20
1881.5485000000003
 30
0.0
 10
1292.5866
 20
1881.5585
 30
0.0
 10
1292.5866
 20
1881.5585
 30
0.0
 10
1294.7903000000001
 20
1881.5473000000002
 30
0.0
 10
1296.3983000000003
 20
1879.7441000000003
 30
0.0
 10
1296.4523000000002
 20
1877.6846
 30
0.0
 10
1296.4523000000002
 20
1877.6846
 30
0.0
 10
1296.4519000000003
 20
1875.8999000000003
 30
0.0
 10
1296.4519000000003
 20
1874.1152000000002
 30
0.0
 10
1296.4523000000002
 20
1872.3301000000001
 30
0.0
 10
1296.4523000000002
 20
1872.3301000000001
 30
0.0
 10
1296.4624000000001
 20
1870.2687
 30
0.0
 10
1294.4075000000003
 20
1868.5056000000002
 30
0.0
 10
1292.5866
 20
1868.5137000000002
 30
0.0
 10
1292.5866
 20
1868.5137000000002
 30
0.0
 10
1290.5213
 20
1868.5140000000001
 30
0.0
 10
1288.4561
 20
1868.5140000000001
 30
0.0
 10
1286.3905000000002
 20
1868.5137000000002
 30
0.0
 10
1286.3905000000002
 20
1868.5137000000002
 30
0.0
 10
1284.2219000000002
 20
1868.5252
 30
0.0
 10
1281.6909
 20
1870.9254
 30
0.0
 10
1281.6723000000002
 20
1872.3872000000001
 30
0.0
 10
1281.6723000000002
 20
1872.3872000000001
 30
0.0
 10
1281.6723000000002
 20
1872.3872000000001
 30
0.0
 10
1281.6723000000002
 20
1874.2958000000003
 30
0.0
 10
1281.6723000000002
 20
1874.2958000000003
 30
0.0
  0
SPLINE
  5
55
330
17
100
AcDbEntity
  8
layer 1
 62
250
370
9
100
AcDbSpline
 70
24
 71
3
 72
8
 73
4
 74
0
 42
1e-09
 40
0.0
 40
0.0
 40
0.0
 40
0.0
 40
1.0
 40
1.0
 40
1.0
 40
1.0
 10
1286.4075000000003
 20
1881.5481000000002
 30
0.0
 10
1286.4075000000003
 20
1881.5481000000002
 30
0.0
 10
1292.6039
 20
1881.5481000000002
 30
0.0
 10
1292.6039
 20
1881.5481000000002
 30
0.0
  0
SPLINE
  5
56
330
17
100
AcDbEntity
  8
layer 1
 62
242
370
9
100
AcDbSpline
 70
11
 71
3
 72
20
 73
16
 74
0
 42
1e-09
 40
0.0
 40
0.0
 40
0.0
 40
0.0
 40
0.2
 40
0.2
 40
0.2
 40
0.2
 40
0.4
 40
0.4
 40
0.4
 40
0.4
 40
0.6
 40
0.6
 40
0.6
 40
0.6
 40
1.0
 40
1.0
 40
1.0
 40
1.0
 10
1027.2372000000003
 20
2194.9986
 30
0.0
 10
1027.2372000000003
 20
2194.9986
 30
0.0
 10
1388.7569
 20
2194.9986
 30
0.0
 10
1388.7569
 20
2194.9986
 30
0.0
 10
1388.7569
 20
2194.9986
 30
0.0
 10
1388.7569
 20
2194.9986
 30
0.0
 10
1568.9376000000002
 20
1809.9990000000003
 30
0.0
 10
1568.9376000000002
 20
1809.9990000000003
 30
0.0
 10
1568.9376000000002
 20
1809.9990000000003
 30
0.0
 10
1568.9376000000002
 20
1809.9990000000003
 30
0.0
 10
847.0578000000002
 20
1809.9990000000003
 30
0.0
 10
847.0578000000002
 20
1809.9990000000003
 30
0.0
 10
847.0578000000002
 20
1809.9990000000003
 30
0.0
 10
847.0578000000002
 20
1809.9990000000003
 30
0.0
 10
1027.2372000000003
 20
2194.9986
 30
0.0
 10
1027.2372000000003
 20
2194.9986
 30
0.0
  0
SPLINE
  5
57
330
17
100
AcDbEntity
  8
layer 1
 62
250
370
9
100
AcDbSpline
 70
8
 71
3
 72
32
 73
28
 74
0
 42
1e-09
 40
0.0
 40
0.0
 40
0.0
 40
0.0
 40
0.125
 40
0.125
 40
0.125
 40
0.125
 40
0.25
 40
0.25
 40
0.25
 40
0.25
 40
0.375
 40
0.375
 40
0.375
 40
0.375
 40
0.5
 40
0.5
 40
0.5
 40
0.5
 40
0.625
 40
0.625
 40
0.625
 40
0.625
 40
0.75
 40
0.75
 40
0.75
 40
0.75
 40
1.0
 40
1.0
 40
1.0
 40
1.0
 10
1071.8528479682504
 20
1247.7585639129786
 30
0.0
 10
1071.8528479682504
 20
1247.7585639129786
 30
0.0
 10
1096.8063479682505
 20
1247.7585639129786
 30
0.0
 10
1096.8063479682505
 20
1247.7585639129786
 30
0.0
 10
1096.8063479682505
 20
1247.7585639129786
 30
0.0
 10
1096.8063479682505
 20
1244.1637639129785
 30
0.0
 10
1096.8063479682505
 20
1240.5682639129786
 30
0.0
 10
1096.8063479682505
 20
1236.9730639129787
 30
0.0
 10
1096.8063479682505
 20
1236.9730639129787
 30
0.0
 10
1096.7686479682504
 20
1234.6477639129787
 30
0.0
 10
1095.2786479682504
 20
1233.0904639129785
 30
0.0
 10
1092.9122479682503
 20
1233.0945639129786
 30
0.0
 10
1092.9122479682503
 20
1233.0945639129786
 30
0.0
 10
1090.8767479682504
 20
1233.0949639129785
 30
0.0
 10
1087.8173479682505
 20
1233.0949639129785
 30
0.0
 10
1085.7813479682504
 20
1233.0945639129786
 30
0.0
 10
1085.7813479682504
 20
1233.0945639129786
 30
0.0
 10
1083.9058479682503
 20
1233.1010639129786
 30
0.0
 10
1081.9640479682505
 20
1234.9133639129786
 30
0.0
 10
1081.9449479682505
 20
1236.9228639129785
 30
0.0
 10
1081.9449479682505
 20
1236.9228639129785
 30
0.0
 10
1081.9449479682505
 20
1236.9228639129785
 30
0.0
 10
1081.9449479682505
 20
1247.7585639129786
 30
0.0
 10
1081.9449479682505
 20
1247.7585639129786
 30
0.0
 10
1081.9449479682505
 20
1247.7585639129786
 30
0.0
 10
1081.9449479682505
 20
1247.7585639129786
 30
0.0
 10
1071.8528479682504
 20
1233.1038639129786
 30
0.0
 10
1071.8528479682504
 20
1233.1038639129786
 30
0.0
  0
SPLINE
  5
58
330
17
100
AcDbEntity
  8
layer 1
 62
250
370
9
100
AcDbSpline
 70
8
 71
3
 72
32
 73
28
 74
0
 42
1e-09
 40
0.0
 40
0.0
 40
0.0
 40
0.0
 40
0.125
 40
0.125
 40
0.125
 40
0.125
 40
0.25
 40
0.25
 40
0.25
 40
0.25
 40
0.375
 40
0.375
 40
0.375
 40
0.375
 40
0.5
 40
0.5
 40
0.5
 40
0.5
 40
0.625
 40
0.625
 40
0.625
 40
0.625
 40
0.75
 40
0.75
 40
0.75
 40
0.75
 40
1.0
 40
1.0
 40
1.0
 40
1.0
 10
1075.6923479682505
 20
1252.9129639129785
 30
0.0
 10
1073.3689479682505
 20
1253.0527639129787
 30
0.0
 10
1071.8893479682504
 20
1254.7299639129785
 30
0.0
 10
1071.8785479682504
 20
1256.8776639129785
 30
0.0
 10
1071.8785479682504
 20
1256.8776639129785
 30
0.0
 10
1071.8789479682505
 20
1259.2095639129786
 30
0.0
 10
1071.8789479682505
 20
1261.5414639129785
 30
0.0
 10
1071.8785479682504
 20
1263.8729639129785
 30
0.0
 10
1071.8785479682504
 20
1263.8729639129785
 30
0.0
 10
1071.7731479682504
 20
1265.7979639129785
 30
0.0
 10
1073.6576479682503
 20
1267.7700639129787
 30
0.0
 10
1075.6749479682505
 20
1267.7588639129785
 30
0.0
 10
1075.6749479682505
 20
1267.7588639129785
 30
0.0
 10
1081.4450479682505
 20
1267.7584639129786
 30
0.0
 10
1087.2147479682505
 20
1267.7584639129786
 30
0.0
 10
1092.9840479682505
 20
1267.7588639129785
 30
0.0
 10
1092.9840479682505
 20
1267.7588639129785
 30
0.0
 10
1095.1221479682504
 20
1267.7546639129787
 30
0.0
 10
1096.8413479682504
 20
1266.0079639129785
 30
0.0
 10
1096.8278479682504
 20
1263.8555639129786
 30
0.0
 10
1096.8278479682504
 20
1263.8555639129786
 30
0.0
 10
1096.8278479682504
 20
1261.5298639129785
 30
0.0
 10
1096.8278479682504
 20
1259.2037639129785
 30
0.0
 10
1096.8278479682504
 20
1256.8776639129785
 30
0.0
 10
1096.8278479682504
 20
1256.8776639129785
 30
0.0
 10
1096.8633479682505
 20
1254.9310639129785
 30
0.0
 10
1095.3718479682504
 20
1252.9396639129786
 30
0.0
 10
1092.9342479682505
 20
1252.9129639129785
 30
0.0
  0
SPLINE
  5
59
330
17
100
AcDbEntity
  8
layer 1
 62
250
370
9
100
AcDbSpline
 70
8
 71
3
 72
12
 73
8
 74
0
 42
1e-09
 40
0.0
 40
0.0
 40
0.0
 40
0.0
 40
0.3333333333333333
 40
0.3333333333333333
 40
0.3333333333333333
 40
0.3333333333333333
 40
1.0
 40
1.0
 40
1.0
 40
1.0
 10
1071.8527479682505
 20
1213.9519639129785
 30
0.0
 10
1071.8527479682505
 20
1213.9519639129785
 30
0.0
 10
1071.8527479682505
 20
1226.9010639129785
 30
0.0
 10
1071.8527479682505
 20
1226.9010639129785
 30
0.0
 10
1071.8527479682505
 20
1226.9010639129785
 30
0.0
 10
1071.8527479682505
 20
1226.9010639129785
 30
0.0
 10
1096.8063479682505
 20
1226.9010639129785
 30
0.0
 10
1096.8063479682505
 20
1226.9010639129785
 30
0.0
  0
SPLINE
  5
5A
330
17
100
AcDbEntity
  8
layer 1
 62
250
370
9
100
AcDbSpline
 70
8
 71
3
 72
48
 73
44
 74
0
 42
1e-09
 40
0.0
 40
0.0
 40
0.0
 40
0.0
 40
0.0833333333333333
 40
0.0833333333333333
 40
0.0833333333333333
 40
0.0833333333333333
 40
0.1666666666666667
 40
0.1666666666666667
 40
0.1666666666666667
 40
0.1666666666666667
 40
0.25
 40
0.25
 40
0.25
 40
0.25
 40
0.3333333333333333
 40
0.3333333333333333
 40
0.3333333333333333
 40
0.3333333333333333
 40
0.4166666666666667
 40
0.4166666666666667
 40
0.4166666666666667
 40
0.4166666666666667
 40
0.5
 40
0.5
 40
0.5
 40
0.5
 40
0.5833333333333334
 40
0.5833333333333334
 40
0.5833333333333334
 40
0.5833333333333334
 40
0.6666666666666666
 40
0.6666666666666666
 40
0.6666666666666666
 40
0.6666666666666666
 40
0.75
 40
0.75
 40
0.75
 40
0.75
 40
0.8333333333333334
 40
0.8333333333333334
 40
0.8333333333333334
 40
0.8333333333333334
 40
1.0
 40
1.0
 40
1.0
 40
1.0
 10
1074.7888479682504
 20
1202.3309639129786
 30
0.0
 10
1073.4493479682503
 20
1202.3068639129785
 30
0.0
 10
1071.7960479682504
 20
1200.9506639129786
 30
0.0
 10
1071.8304479682504
 20
1199.3787639129787
 30
0.0
 10
1071.8304479682504
 20
1199.3787639129787
 30
0.0
 10
1071.8307479682505
 20
1196.3939639129785
 30
0.0
 10
1071.8307479682505
 20
1193.4087639129787
 30
0.0
 10
1071.8304479682504
 20
1190.4233639129786
 30
0.0
 10
1071.8304479682504
 20
1190.4233639129786
 30
0.0
 10
1071.8154479682505
 20
1189.2042639129786
 30
0.0
 10
1073.2530479682505
 20
1187.4760639129786
 30
0.0
 10
1074.7888479682504
 20
1187.4710639129787
 30
0.0
 10
1074.7888479682504
 20
1187.4710639129787
 30
0.0
 10
1081.1492479682504
 20
1187.4713639129786
 30
0.0
 10
1087.5100479682503
 20
1187.4713639129786
 30
0.0
 10
1093.8708479682505
 20
1187.4710639129787
 30
0.0
 10
1093.8708479682505
 20
1187.4710639129787
 30
0.0
 10
1095.0337479682505
 20
1187.4757639129787
 30
0.0
 10
1096.8048479682504
 20
1189.2042639129786
 30
0.0
 10
1096.8292479682505
 20
1190.4233639129786
 30
0.0
 10
1096.8292479682505
 20
1190.4233639129786
 30
0.0
 10
1096.8289479682505
 20
1193.4087639129787
 30
0.0
 10
1096.8289479682505
 20
1196.3939639129785
 30
0.0
 10
1096.8292479682505
 20
1199.3787639129787
 30
0.0
 10
1096.8292479682505
 20
1199.3787639129787
 30
0.0
 10
1096.7854479682505
 20
1200.6568639129787
 30
0.0
 10
1095.1709479682504
 20
1202.3265639129786
 30
0.0
 10
1093.8708479682505
 20
1202.3309639129786
 30
0.0
 10
1093.8708479682505
 20
1202.3309639129786
 30
0.0
 10
1090.2874479682505
 20
1202.3309639129786
 30
0.0
 10
1086.7044479682504
 20
1202.3309639129786
 30
0.0
 10
1083.1216479682505
 20
1202.3309639129786
 30
0.0
 10
1083.1216479682505
 20
1202.3309639129786
 30
0.0
 10
1081.6434479682505
 20
1202.2924639129785
 30
0.0
 10
1080.2105479682505
 20
1200.7097639129786
 30
0.0
 10
1080.2126479682504
 20
1199.3787639129787
 30
0.0
 10
1080.2126479682504
 20
1199.3787639129787
 30
0.0
 10
1080.2123479682505
 20
1196.3939639129785
 30
0.0
 10
1080.2123479682505
 20
1193.4087639129787
 30
0.0
 10
1080.2126479682504
 20
1190.4233639129786
 30
0.0
 10
1080.2126479682504
 20
1190.4233639129786
 30
0.0
 10
1080.2076479682505
 20
1189.0938639129786
 30
0.0
 10
1081.7148479682505
 20
1187.4508639129785
 30
0.0
 10
1083.1434479682505
 20
1187.4925639129785
 30
0.0
  0
SPLINE
  5
5B
330
17
100
AcDbEntity
  8
layer 2
 62
230
370
200
100
AcDbSpline
 70
11
 71
3
 72
92
 73
88
 74
0
 42
1e-09
 40
0.0
 40
0.0
 40
0.0
 40
0.0
 40
0.0434782608695652
 40
0.0434782608695652
 40
0.0434782608695652
 40
0.0434782608695652
 40
0.0869565217391304
 40
0.0869565217391304
 40
0.0869565217391304
 40
0.0869565217391304
 40
0.1304347826086956
 40
0.1304347826086956
 40
0.1304347826086956
 40
0.1304347826086956
 40
0.1739130434782609
 40
0.1739130434782609
 40
0.1739130434782609
 40
0.1739130434782609
 40
0.2173913043478261
 40
0.2173913043478261
 40
0.2173913043478261
 40
0.2173913043478261
 40
0.2608695652173913
 40
0.2608695652173913
 40
0.2608695652173913
 40
0.2608695652173913
 40
0.3043478260869565
 40
0.3043478260869565
 40
0.3043478260869565
 40
0.3043478260869565
 40
0.3478260869565217
 40
0.3478260869565217
 40
0.3478260869565217
 40
0.3478260869565217
 40
0.391304347826087
 40
0.391304347826087
 40
0.391304347826087
 40
0.391304347826087
 40
0.4347826086956522
 40
0.4347826086956522
 40
0.4347826086956522
 40
0.4347826086956522
 40
0.4782608695652174
 40
0.4782608695652174
 40
0.4782608695652174
 40
0.4782608695652174
 40
0.5217391304347826
 40
0.5217391304347826
 40
0.5217391304347826
 40
0.5217391304347826
 40
0.5652173913043478
 40
0.5652173913043478
 40
0.5652173913043478
 40
0.5652173913043478
 40
0.6086956521739131
 40
0.6086956521739131
 40
0.6086956521739131
 40
0.6086956521739131
 40
0.6521739130434783
 40
0.6521739130434783
 40
0.6521739130434783
 40
0.6521739130434783
 40
0.6956521739130435
 40
0.6956521739130435
 40
0.6956521739130435
 40
0.6956521739130435
 40
0.7391304347826086
 40
0.7391304347826086
 40
0.7391304347826086
 40
0.7391304347826086
 40
0.782608695652174
 40
0.782608695652174
 40
0.782608695652174
 40
0.782608695652174
 40
0.8260869565217391
 40
0.8260869565217391
 40
0.8260869565217391
 40
0.8260869565217391
 40
0.8695652173913043
 40
0.8695652173913043
 40
0.8695652173913043
 40
0.8695652173913043
 40
0.9130434782608695
 40
0.9130434782608695
 40
0.9130434782608695
 40
0.9130434782608695
 40
1.0
 40
1.0
 40
1.0
 40
1.0
 10
1057.9978479682504
 20
1441.9402639129787
 30
0.0
 10
1057.9978479682504
 20
1441.9402639129787
 30
0.0
 10
1294.8665479682504
 20
1457.3499639129786
 30
0.0
 10
1294.8665479682504
 20
1457.3499639129786
 30
0.0
 10
1294.8665479682504
 20
1457.3499639129786
 30
0.0
 10
1296.9246479682504
 20
1457.4840639129786
 30
0.0
 10
1298.5227479682505
 20
1455.5857639129786
 30
0.0
 10
1298.0373479682505
 20
1453.5815639129785
 30
0.0
 10
1298.0373479682505
 20
1453.5815639129785
 30
0.0
 10
1295.0048479682505
 20
1441.0654639129787
 30
0.0
 10
1285.8894479682504
 20
1402.9519639129785
 30
0.0
 10
1283.9989479682504
 20
1389.3394639129785
 30
0.0
 10
1283.9989479682504
 20
1389.3394639129785
 30
0.0
 10
1281.7227479682504
 20
1372.9517639129785
 30
0.0
 10
1277.1709479682504
 20
1367.0342639129785
 30
0.0
 10
1295.3791479682504
 20
1357.0196639129786
 30
0.0
 10
1295.3791479682504
 20
1357.0196639129786
 30
0.0
 10
1307.8466479682504
 20
1350.1626639129786
 30
0.0
 10
1319.4604479682505
 20
1345.8665639129786
 30
0.0
 10
1325.5444479682503
 20
1343.8391639129786
 30
0.0
 10
1325.5444479682503
 20
1343.8391639129786
 30
0.0
 10
1328.4591479682504
 20
1342.8679639129787
 30
0.0
 10
1330.9522479682505
 20
1340.9325639129786
 30
0.0
 10
1332.6134479682505
 20
1338.3484639129786
 30
0.0
 10
1332.6134479682505
 20
1338.3484639129786
 30
0.0
 10
1335.7101479682503
 20
1333.5316639129785
 30
0.0
 10
1335.4402479682506
 20
1327.2670639129785
 30
0.0
 10
1331.8888479682505
 20
1322.7751639129785
 30
0.0
 10
1331.8888479682505
 20
1322.7751639129785
 30
0.0
 10
1326.4504479682505
 20
1315.8970639129786
 30
0.0
 10
1319.1613479682505
 20
1304.2796639129785
 30
0.0
 10
1317.2291479682503
 20
1289.6492639129785
 30
0.0
 10
1317.2291479682503
 20
1289.6492639129785
 30
0.0
 10
1314.0425479682503
 20
1265.5231639129786
 30
0.0
 10
1315.4081479682504
 20
1197.2424639129786
 30
0.0
 10
1319.5049479682505
 20
1177.2134639129786
 30
0.0
 10
1319.5049479682505
 20
1177.2134639129786
 30
0.0
 10
1322.2439479682505
 20
1163.8223639129785
 30
0.0
 10
1330.8837479682504
 20
1147.9897639129786
 30
0.0
 10
1337.3981479682504
 20
1137.4695639129786
 30
0.0
 10
1337.3981479682504
 20
1137.4695639129786
 30
0.0
 10
1340.8871479682505
 20
1131.8353639129787
 30
0.0
 10
1338.1376479682503
 20
1124.4220639129785
 30
0.0
 10
1331.8253479682505
 20
1122.4048639129785
 30
0.0
 10
1331.8253479682505
 20
1122.4048639129785
 30
0.0
 10
1318.9203479682503
 20
1118.2822639129786
 30
0.0
 10
1308.9279479682505
 20
1115.5997639129787
 30
0.0
 10
1302.6622479682503
 20
1112.1189639129786
 30
0.0
 10
1302.6622479682503
 20
1112.1189639129786
 30
0.0
 10
1294.4686479682505
 20
1107.5670639129787
 30
0.0
 10
1287.1855479682504
 20
1100.2835639129787
 30
0.0
 10
1289.0062479682504
 20
1085.7166639129787
 30
0.0
 10
1289.0062479682504
 20
1085.7166639129787
 30
0.0
 10
1290.5658479682504
 20
1073.2413639129786
 30
0.0
 10
1302.1419479682504
 20
1027.7108639129785
 30
0.0
 10
1305.4333479682505
 20
1014.0375639129786
 30
0.0
 10
1305.4333479682505
 20
1014.0375639129786
 30
0.0
 10
1305.9046479682504
 20
1012.0792639129786
 30
0.0
 10
1304.3908479682505
 20
1010.2084639129787
 30
0.0
 10
1302.3772479682505
 20
1010.2652639129785
 30
0.0
 10
1302.3772479682505
 20
1010.2652639129785
 30
0.0
 10
1264.1209479682504
 20
1011.3412639129785
 30
0.0
 10
1094.2824479682504
 20
1015.6952639129786
 30
0.0
 10
1065.8905479682505
 20
1016.4226639129786
 30
0.0
 10
1065.8905479682505
 20
1016.4226639129786
 30
0.0
 10
1063.6599479682504
 20
1016.4797639129786
 30
0.0
 10
1061.8914479682505
 20
1018.3174639129786
 30
0.0
 10
1061.9203479682503
 20
1020.5487639129785
 30
0.0
 10
1061.9203479682503
 20
1020.5487639129785
 30
0.0
 10
1062.1196479682505
 20
1035.8144639129787
 30
0.0
 10
1062.5017479682504
 20
1090.6375639129785
 30
0.0
 10
1058.2169479682505
 20
1117.1262639129786
 30
0.0
 10
1058.2169479682505
 20
1117.1262639129786
 30
0.0
 10
1053.2095479682505
 20
1148.0803639129786
 30
0.0
 10
1045.9261479682505
 20
1205.6307639129786
 30
0.0
 10
1045.9261479682505
 20
1235.8044639129787
 30
0.0
 10
1045.9261479682505
 20
1235.8044639129787
 30
0.0
 10
1045.9261479682505
 20
1286.9180639129786
 30
0.0
 10
1053.6646479682504
 20
1304.2158639129786
 30
0.0
 10
1054.5751479682503
 20
1335.1699639129786
 30
0.0
 10
1054.5751479682503
 20
1335.1699639129786
 30
0.0
 10
1055.3618479682505
 20
1361.9196639129786
 30
0.0
 10
1054.4488479682504
 20
1421.9847639129787
 30
0.0
 10
1054.1864479682504
 20
1437.8071639129787
 30
0.0
 10
1054.1864479682504
 20
1437.8071639129787
 30
0.0
 10
1054.1500479682504
 20
1439.9816639129785
 30
0.0
 10
1055.8275479682504
 20
1441.7991639129787
 30
0.0
 10
1057.9978479682504
 20
1441.9402639129787
 30
0.0
  0
SPLINE
  5
5C
330
17
100
AcDbEntity
  8
layer 3
 62
142
370
200
100
AcDbSpline
 70
8
 71
3
 72
16
 73
12
 74
0
 42
1e-09
 40
0.0
 40
0.0
 40
0.0
 40
0.0
 40
0.25
 40
0.25
 40
0.25
 40
0.25
 40
0.5
 40
0.5
 40
0.5
 40
0.5
 40
1.0
 40
1.0
 40
1.0
 40
1.0
 10
1051.6278479682503
 20
1304.9167639129787
 30
0.0
 10
1088.5262479682503
 20
1307.7982639129787
 30
0.0
 10
1133.9869479682504
 20
1301.0252639129785
 30
0.0
 10
1169.8507479682505
 20
1304.9167639129787
 30
0.0
 10
1169.8507479682505
 20
1304.9167639129787
 30
0.0
 10
1205.7144479682504
 20
1308.8086639129785
 30
0.0
 10
1238.1703479682503
 20
1303.1041639129787
 30
0.0
 10
1269.9380479682504
 20
1304.6648639129787
 30
0.0
 10
1269.9380479682504
 20
1304.6648639129787
 30
0.0
 10
1301.7052479682504
 20
1306.2255639129787
 30
0.0
 10
1310.0022479682505
 20
1306.8549639129785
 30
0.0
 10
1324.2791479682505
 20
1311.1464639129786
 30
0.0
  0
SPLINE
  5
5D
330
17
100
AcDbEntity
  8
layer 3
 62
142
370
200
100
AcDbSpline
 70
8
 71
3
 72
16
 73
12
 74
0
 42
1e-09
 40
0.0
 40
0.0
 40
0.0
 40
0.0
 40
0.25
 40
0.25
 40
0.25
 40
0.25
 40
0.5
 40
0.5
 40
0.5
 40
0.5
 40
1.0
 40
1.0
 40
1.0
 40
1.0
 10
1055.2179479682504
 20
1159.4105639129787
 30
0.0
 10
1069.1407479682505
 20
1162.0372639129787
 30
0.0
 10
1076.7589479682504
 20
1165.4525639129786
 30
0.0
 10
1102.5029479682505
 20
1161.5119639129787
 30
0.0
 10
1102.5029479682505
 20
1161.5119639129787
 30
0.0
 10
1128.2472479682503
 20
1157.5714639129785
 30
0.0
 10
1160.3457479682504
 20
1153.4425639129786
 30
0.0
 10
1211.5740479682504
 20
1154.1848639129787
 30
0.0
 10
1211.5740479682504
 20
1154.1848639129787
 30
0.0
 10
1262.8023479682504
 20
1154.9274639129785
 30
0.0
 10
1277.5455479682505
 20
1154.3061639129785
 30
0.0
 10
1324.2791479682505
 20
1158.7000639129785
 30
0.0
  0
ENDSEC
  0
SECTION
  2
OBJECTS
  0
DICTIONARY
  5
A
330
0
100
AcDbDictionary
281
1
  3
ACAD_COLOR
350
B
  3
ACAD_GROUP
350
C
  3
ACAD_LAYOUT
350
D
  3
ACAD_MATERIAL
350
E
  3
ACAD_MLEADERSTYLE
350
F
  3
ACAD_MLINESTYLE
350
10
  3
ACAD_PLOTSETTINGS
350
11
  3
ACAD_PLOTSTYLENAME
350
12
  3
ACAD_SCALELIST
350
14
  3
ACAD_TABLESTYLE
350
15
  3
ACAD_VISUALSTYLE
350
16
  3
EZDXF_META
350
2D
  0
DICTIONARY
  5
B
330
A
100
AcDbDictionary
281
1
  0
DICTIONARY
  5
C
330
A
100
AcDbDictionary
281
1
  0
DICTIONARY
  5
D
330
A
100
AcDbDictionary
281
1
  3
Model
350
1A
  3
Layout1
350
1E
  0
DICTIONARY
  5
E
330
A
100
AcDbDictionary
281
1
  3
ByBlock
350
1F
  3
ByLayer
350
20
  3
Global
350
21
  0
DICTIONARY
  5
F
330
A
100
AcDbDictionary
281
1
  3
Standard
350
2C
  0
DICTIONARY
  5
10
330
A
100
AcDbDictionary
281
1
  3
Standard
350
22
  0
DICTIONARY
  5
11
330
A
100
AcDbDictionary
281
1
  0
ACDBDICTIONARYWDFLT
  5
12
330
A
100
AcDbDictionary
281
1
  3
Normal
350
13
100
AcDbDictionaryWithDefault
340
13
  0
ACDBPLACEHOLDER
  5
13
330
12
  0
DICTIONARY
  5
14
330
A
100
AcDbDictionary
281
1
  0
DICTIONARY
  5
15
330
A
100
AcDbDictionary
281
1
  0
DICTIONARY
  5
16
330
A
100
AcDbDictionary
281
1
  0
LAYOUT
  5
1A
330
D
100
AcDbPlotSettings
  1

  4
A3
  6

 40
7.5
 41
20.0
 42
7.5
 43
20.0
 44
420.0
 45
297.0
 46
0.0
 47
0.0
 48
0.0
 49
0.0
140
0.0
141
0.0
142
1.0
143
1.0
 70
1024
 72
1
 73
0
 74
5
  7

 75
16
 76
0
 77
2
 78
300
147
1.0
148
0.0
149
0.0
100
AcDbLayout
  1
Model
 70
1
 71
0
 10
0.0
 20
0.0
 11
420.0
 21
297.0
 12
0.0
 22
0.0
 32
0.0
 14
1e+20
 24
1e+20
 34
1e+20
 15
-1e+20
 25
-1e+20
 35
-1e+20
146
0.0
 13
0.0
 23
0.0
 33
0.0
 16
1.0
 26
0.0
 36
0.0
 17
0.0
 27
1.0
 37
0.0
 76
1
330
17
  0
LAYOUT
  5
1E
330
D
100
AcDbPlotSettings
  1

  4
A3
  6

 40
7.5
 41
20.0
 42
7.5
 43
20.0
 44
420.0
 45
297.0
 46
0.0
 47
0.0
 48
0.0
 49
0.0
140
0.0
141
0.0
142
1.0
143
1.0
 70
0
 72
1
 73
0
 74
5
  7

 75
16
 76
0
 77
2
 78
300
147
1.0
148
0.0
149
0.0
100
AcDbLayout
  1
Layout1
 70
1
 71
1
 10
0.0
 20
0.0
 11
420.0
 21
297.0
 12
0.0
 22
0.0
 32
0.0
 14
1e+20
 24
1e+20
 34
1e+20
 15
-1e+20
 25
-1e+20
 35
-1e+20
146
0.0
 13
0.0
 23
0.0
 33
0.0
 16
1.0
 26
0.0
 36
0.0
 17
0.0
 27
1.0
 37
0.0
 76
1
330
1B
  0
MATERIAL
  5
1F
102
{ACAD_REACTORS
330
E
102
}
330
E
100
AcDbMaterial
  1
ByBlock
  2

 70
0
 40
1.0
 71
1
 41
1.0
 91
-1023410177
 42
1.0
 72
1
  3

 73
1
 74
1
 75
1
 44
0.5
 73
0
 45
1.0
 46
1.0
 77
1
  4

 78
1
 79
1
170
1
 48
1.0
171
1
  6

172
1
173
1
174
1
140
1.0
141
1.0
175
1
  7

176
1
177
1
178
1
143
1.0
179
1
  8

270
1
271
1
272
1
145
1.0
146
1.0
273
1
  9

274
1
275
1
276
1
 42
1.0
 72
1
  3

 73
1
 74
1
 75
1
 94
63
  0
MATERIAL
  5
20
102
{ACAD_REACTORS
330
E
102
}
330
E
100
AcDbMaterial
  1
ByLayer
  2

 70
0
 40
1.0
 71
1
 41
1.0
 91
-1023410177
 42
1.0
 72
1
  3

 73
1
 74
1
 75
1
 44
0.5
 73
0
 45
1.0
 46
1.0
 77
1
  4

 78
1
 79
1
170
1
 48
1.0
171
1
  6

172
1
173
1
174
1
140
1.0
141
1.0
175
1
  7

176
1
177
1
178
1
143
1.0
179
1
  8

270
1
271
1
272
1
145
1.0
146
1.0
273
1
  9

274
1
275
1
276
1
 42
1.0
 72
1
  3

 73
1
 74
1
 75
1
 94
63
  0
MATERIAL
  5
21
102
{ACAD_REACTORS
330
E
102
}
330
E
100
AcDbMaterial
  1
Global
  2

 70
0
 40
1.0
 71
1
 41
1.0
 91
-1023410177
 42
1.0
 72
1
  3

 73
1
 74
1
 75
1
 44
0.5
 73
0
 45
1.0
 46
1.0
 77
1
  4

 78
1
 79
1
170
1
 48
1.0
171
1
  6

172
1
173
1
174
1
140
1.0
141
1.0
175
1
  7

176
1
177
1
178
1
143
1.0
179
1
  8

270
1
271
1
272
1
145
1.0
146
1.0
273
1
  9

274
1
275
1
276
1
 42
1.0
 72
1
  3

 73
1
 74
1
 75
1
 94
63
  0
MLINESTYLE
  5
22
102
{ACAD_REACTORS
330
10
102
}
330
10
100
AcDbMlineStyle
  2
Standard
 70
0
  3

 62
256
 51
90.0
 52
90.0
 71
2
 49
0.5
 62
256
  6
BYLAYER
 49
-0.5
 62
256
  6
BYLAYER
  0
MLEADERSTYLE
  5
2C
102
{ACAD_REACTORS
330
F
102
}
330
F
100
AcDbMLeaderStyle
179
2
170
2
171
1
172
0
 90
2
 40
0.0
 41
0.0
173
1
 91
-1056964608
 92
-2
290
1
 42
2.0
291
1
 43
8.0
  3
Standard
 44
4.0
300

342
29
174
1
175
1
176
0
178
1
 93
-1056964608
 45
4.0
292
0
297
0
 46
4.0
 94
-1056964608
 47
1.0
 49
1.0
140
1.0
294
1
141
0.0
177
0
142
1.0
295
0
296
0
143
3.75
271
0
272
9
273
9
  0
DICTIONARY
  5
2D
330
A
100
AcDbDictionary
280
1
281
1
  3
CREATED_BY_EZDXF
350
2E
  3
WRITTEN_BY_EZDXF
350
60
  0
DICTIONARYVAR
  5
2E
330
2D
100
DictionaryVariables
280
0
  1
1.4.2 @ 2025-08-23T13:52:24.725292+00:00
  0
DICTIONARYVAR
  5
60
330
2D
100
DictionaryVariables
280
0
  1
1.4.2 @ 2025-08-23T13:52:24.730656+00:00
  0
ENDSEC
  0
EOF
