  0
SECTION
  2
HEADER
  9
$ACADVER
  1
AC1024
  9
$ACADMAINTVER
 70
6
  9
$DWGCODEPAGE
  3
ANSI_1252
  9
$LASTSAVEDBY
  1
ezdxf
  9
$INSBASE
 10
0.0
 20
0.0
 30
0.0
  9
$EXTMIN
 10
1e+20
 20
1e+20
 30
1e+20
  9
$EXTMAX
 10
-1e+20
 20
-1e+20
 30
-1e+20
  9
$LIMMIN
 10
0.0
 20
0.0
  9
$LIMMAX
 10
420.0
 20
297.0
  9
$ORTHOMODE
 70
0
  9
$REGENMODE
 70
1
  9
$FILLMODE
 70
1
  9
$QTEXTMODE
 70
0
  9
$MIRRTEXT
 70
1
  9
$LTSCALE
 40
1.0
  9
$ATTMODE
 70
1
  9
$TEXTSIZE
 40
2.5
  9
$TRACEWID
 40
1.0
  9
$TEXTSTYLE
  7
Standard
  9
$CLAYER
  8
0
  9
$CELTYPE
  6
ByLayer
  9
$CECOLOR
 62
256
  9
$CELTSCALE
 40
1.0
  9
$DISPSILH
 70
0
  9
$DIMSCALE
 40
1.0
  9
$DIMASZ
 40
2.5
  9
$DIMEXO
 40
0.625
  9
$DIMDLI
 40
3.75
  9
$DIMRND
 40
0.0
  9
$DIMDLE
 40
0.0
  9
$DIMEXE
 40
1.25
  9
$DIMTP
 40
0.0
  9
$DIMTM
 40
0.0
  9
$DIMTXT
 40
2.5
  9
$DIMCEN
 40
2.5
  9
$DIMTSZ
 40
0.0
  9
$DIMTOL
 70
0
  9
$DIMLIM
 70
0
  9
$DIMTIH
 70
0
  9
$DIMTOH
 70
0
  9
$DIMSE1
 70
0
  9
$DIMSE2
 70
0
  9
$DIMTAD
 70
1
  9
$DIMZIN
 70
8
  9
$DIMBLK
  1

  9
$DIMASO
 70
1
  9
$DIMSHO
 70
1
  9
$DIMPOST
  1

  9
$DIMAPOST
  1

  9
$DIMALT
 70
0
  9
$DIMALTD
 70
3
  9
$DIMALTF
 40
0.03937007874
  9
$DIMLFAC
 40
1.0
  9
$DIMTOFL
 70
1
  9
$DIMTVP
 40
0.0
  9
$DIMTIX
 70
0
  9
$DIMSOXD
 70
0
  9
$DIMSAH
 70
0
  9
$DIMBLK1
  1

  9
$DIMBLK2
  1

  9
$DIMSTYLE
  2
ISO-25
  9
$DIMCLRD
 70
0
  9
$DIMCLRE
 70
0
  9
$DIMCLRT
 70
0
  9
$DIMTFAC
 40
1.0
  9
$DIMGAP
 40
0.625
  9
$DIMJUST
 70
0
  9
$DIMSD1
 70
0
  9
$DIMSD2
 70
0
  9
$DIMTOLJ
 70
0
  9
$DIMTZIN
 70
8
  9
$DIMALTZ
 70
0
  9
$DIMALTTZ
 70
0
  9
$DIMUPT
 70
0
  9
$DIMDEC
 70
2
  9
$DIMTDEC
 70
2
  9
$DIMALTU
 70
2
  9
$DIMALTTD
 70
3
  9
$DIMTXSTY
  7
Standard
  9
$DIMAUNIT
 70
0
  9
$DIMADEC
 70
0
  9
$DIMALTRND
 40
0.0
  9
$DIMAZIN
 70
0
  9
$DIMDSEP
 70
44
  9
$DIMATFIT
 70
3
  9
$DIMFRAC
 70
0
  9
$DIMLDRBLK
  1

  9
$DIMLUNIT
 70
2
  9
$DIMLWD
 70
-2
  9
$DIMLWE
 70
-2
  9
$DIMTMOVE
 70
0
  9
$DIMFXL
 40
1.0
  9
$DIMFXLON
 70
0
  9
$DIMJOGANG
 40
0.785398163397
  9
$DIMTFILL
 70
0
  9
$DIMTFILLCLR
 70
0
  9
$DIMARCSYM
 70
0
  9
$DIMLTYPE
  6

  9
$DIMLTEX1
  6

  9
$DIMLTEX2
  6

  9
$DIMTXTDIRECTION
 70
0
  9
$LUNITS
 70
2
  9
$LUPREC
 70
4
  9
$SKETCHINC
 40
1.0
  9
$FILLETRAD
 40
10.0
  9
$AUNITS
 70
0
  9
$AUPREC
 70
2
  9
$MENU
  1
.
  9
$ELEVATION
 40
0.0
  9
$PELEVATION
 40
0.0
  9
$THICKNESS
 40
0.0
  9
$LIMCHECK
 70
0
  9
$CHAMFERA
 40
0.0
  9
$CHAMFERB
 40
0.0
  9
$CHAMFERC
 40
0.0
  9
$CHAMFERD
 40
0.0
  9
$SKPOLY
 70
0
  9
$TDCREATE
 40
2460911.676585648
  9
$TDUCREATE
 40
2458532.153996898
  9
$TDUPDATE
 40
2460911.676585648
  9
$TDUUPDATE
 40
2458532.1544311
  9
$TDINDWG
 40
0.0
  9
$TDUSRTIMER
 40
0.0
  9
$USRTIMER
 70
1
  9
$ANGBASE
 50
0.0
  9
$ANGDIR
 70
0
  9
$PDMODE
 70
0
  9
$PDSIZE
 40
0.0
  9
$PLINEWID
 40
0.0
  9
$SPLFRAME
 70
0
  9
$SPLINETYPE
 70
6
  9
$SPLINESEGS
 70
8
  9
$HANDSEED
  5
3F
  9
$SURFTAB1
 70
6
  9
$SURFTAB2
 70
6
  9
$SURFTYPE
 70
6
  9
$SURFU
 70
6
  9
$SURFV
 70
6
  9
$UCSBASE
  2

  9
$UCSNAME
  2

  9
$UCSORG
 10
0.0
 20
0.0
 30
0.0
  9
$UCSXDIR
 10
1.0
 20
0.0
 30
0.0
  9
$UCSYDIR
 10
0.0
 20
1.0
 30
0.0
  9
$UCSORTHOREF
  2

  9
$UCSORTHOVIEW
 70
0
  9
$UCSORGTOP
 10
0.0
 20
0.0
 30
0.0
  9
$UCSORGBOTTOM
 10
0.0
 20
0.0
 30
0.0
  9
$UCSORGLEFT
 10
0.0
 20
0.0
 30
0.0
  9
$UCSORGRIGHT
 10
0.0
 20
0.0
 30
0.0
  9
$UCSORGFRONT
 10
0.0
 20
0.0
 30
0.0
  9
$UCSORGBACK
 10
0.0
 20
0.0
 30
0.0
  9
$PUCSBASE
  2

  9
$PUCSNAME
  2

  9
$PUCSORG
 10
0.0
 20
0.0
 30
0.0
  9
$PUCSXDIR
 10
1.0
 20
0.0
 30
0.0
  9
$PUCSYDIR
 10
0.0
 20
1.0
 30
0.0
  9
$PUCSORTHOREF
  2

  9
$PUCSORTHOVIEW
 70
0
  9
$PUCSORGTOP
 10
0.0
 20
0.0
 30
0.0
  9
$PUCSORGBOTTOM
 10
0.0
 20
0.0
 30
0.0
  9
$PUCSORGLEFT
 10
0.0
 20
0.0
 30
0.0
  9
$PUCSORGRIGHT
 10
0.0
 20
0.0
 30
0.0
  9
$PUCSORGFRONT
 10
0.0
 20
0.0
 30
0.0
  9
$PUCSORGBACK
 10
0.0
 20
0.0
 30
0.0
  9
$USERI1
 70
0
  9
$USERI2
 70
0
  9
$USERI3
 70
0
  9
$USERI4
 70
0
  9
$USERI5
 70
0
  9
$USERR1
 40
0.0
  9
$USERR2
 40
0.0
  9
$USERR3
 40
0.0
  9
$USERR4
 40
0.0
  9
$USERR5
 40
0.0
  9
$WORLDVIEW
 70
1
  9
$SHADEDGE
 70
3
  9
$SHADEDIF
 70
70
  9
$TILEMODE
 70
1
  9
$MAXACTVP
 70
64
  9
$PINSBASE
 10
0.0
 20
0.0
 30
0.0
  9
$PLIMCHECK
 70
0
  9
$PEXTMIN
 10
1e+20
 20
1e+20
 30
1e+20
  9
$PEXTMAX
 10
-1e+20
 20
-1e+20
 30
-1e+20
  9
$PLIMMIN
 10
0.0
 20
0.0
  9
$PLIMMAX
 10
420.0
 20
297.0
  9
$UNITMODE
 70
0
  9
$VISRETAIN
 70
1
  9
$PLINEGEN
 70
0
  9
$PSLTSCALE
 70
1
  9
$TREEDEPTH
 70
3020
  9
$CMLSTYLE
  2
Standard
  9
$CMLJUST
 70
0
  9
$CMLSCALE
 40
20.0
  9
$PROXYGRAPHICS
 70
1
  9
$MEASUREMENT
 70
1
  9
$CELWEIGHT
370
-1
  9
$ENDCAPS
280
0
  9
$JOINSTYLE
280
0
  9
$LWDISPLAY
290
0
  9
$INSUNITS
 70
4
  9
$HYPERLINKBASE
  1

  9
$STYLESHEET
  1

  9
$XEDIT
290
1
  9
$CEPSNTYPE
380
0
  9
$PSTYLEMODE
290
1
  9
$FINGERPRINTGUID
  2
{F4BE5C18-48DF-408A-8346-41A0A97BC830}
  9
$VERSIONGUID
  2
{D5FCC85C-C1F6-4EA1-B9FA-1B4F55FCE1FE}
  9
$EXTNAMES
290
1
  9
$PSVPSCALE
 40
0.0
  9
$OLESTARTUP
290
0
  9
$SORTENTS
280
127
  9
$INDEXCTL
280
0
  9
$HIDETEXT
280
1
  9
$XCLIPFRAME
280
1
  9
$HALOGAP
280
0
  9
$OBSCOLOR
 70
257
  9
$OBSLTYPE
280
0
  9
$INTERSECTIONDISPLAY
280
0
  9
$INTERSECTIONCOLOR
 70
257
  9
$DIMASSOC
280
2
  9
$PROJECTNAME
  1

  9
$CAMERADISPLAY
290
0
  9
$LENSLENGTH
 40
50.0
  9
$CAMERAHEIGHT
 40
0.0
  9
$STEPSPERSEC
 40
24.0
  9
$STEPSIZE
 40
100.0
  9
$3DDWFPREC
 40
2.0
  9
$PSOLWIDTH
 40
0.005
  9
$PSOLHEIGHT
 40
0.08
  9
$LOFTANG1
 40
1.570796326795
  9
$LOFTANG2
 40
1.570796326795
  9
$LOFTMAG1
 40
0.0
  9
$LOFTMAG2
 40
0.0
  9
$LOFTPARAM
 70
7
  9
$LOFTNORMALS
280
1
  9
$LATITUDE
 40
37.795
  9
$LONGITUDE
 40
-122.394
  9
$NORTHDIRECTION
 40
0.0
  9
$TIMEZONE
 70
-8000
  9
$LIGHTGLYPHDISPLAY
280
1
  9
$TILEMODELIGHTSYNCH
280
1
  9
$CMATERIAL
347
20
  9
$SOLIDHIST
280
0
  9
$SHOWHIST
280
1
  9
$DWFFRAME
280
2
  9
$DGNFRAME
280
2
  9
$REALWORLDSCALE
290
1
  9
$INTERFERECOLOR
 62
256
  9
$CSHADOW
280
0
  9
$SHADOWPLANELOCATION
 40
0.0
  0
ENDSEC
  0
SECTION
  2
CLASSES
  0
CLASS
  1
ACDBDICTIONARYWDFLT
  2
AcDbDictionaryWithDefault
  3
ObjectDBX Classes
 90
0
 91
0
280
0
281
0
  0
CLASS
  1
SUN
  2
AcDbSun
  3
SCENEOE
 90
1153
 91
0
280
0
281
0
  0
CLASS
  1
VISUALSTYLE
  2
AcDbVisualStyle
  3
ObjectDBX Classes
 90
4095
 91
0
280
0
281
0
  0
CLASS
  1
MATERIAL
  2
AcDbMaterial
  3
ObjectDBX Classes
 90
1153
 91
0
280
0
281
0
  0
CLASS
  1
SCALE
  2
AcDbScale
  3
ObjectDBX Classes
 90
1153
 91
0
280
0
281
0
  0
CLASS
  1
TABLESTYLE
  2
AcDbTableStyle
  3
ObjectDBX Classes
 90
4095
 91
0
280
0
281
0
  0
CLASS
  1
MLEADERSTYLE
  2
AcDbMLeaderStyle
  3
ACDB_MLEADERSTYLE_CLASS
 90
4095
 91
0
280
0
281
0
  0
CLASS
  1
DICTIONARYVAR
  2
AcDbDictionaryVar
  3
ObjectDBX Classes
 90
0
 91
0
280
0
281
0
  0
CLASS
  1
CELLSTYLEMAP
  2
AcDbCellStyleMap
  3
ObjectDBX Classes
 90
1152
 91
0
280
0
281
0
  0
CLASS
  1
MENTALRAYRENDERSETTINGS
  2
AcDbMentalRayRenderSettings
  3
SCENEOE
 90
1024
 91
0
280
0
281
0
  0
CLASS
  1
ACDBDETAILVIEWSTYLE
  2
AcDbDetailViewStyle
  3
ObjectDBX Classes
 90
1025
 91
0
280
0
281
0
  0
CLASS
  1
ACDBSECTIONVIEWSTYLE
  2
AcDbSectionViewStyle
  3
ObjectDBX Classes
 90
1025
 91
0
280
0
281
0
  0
CLASS
  1
RASTERVARIABLES
  2
AcDbRasterVariables
  3
ISM
 90
0
 91
0
280
0
281
0
  0
CLASS
  1
LAYOUT
  2
AcDbLayout
  3
ObjectDBX Classes
 90
0
 91
0
280
0
281
0
  0
CLASS
  1
ACDBPLACEHOLDER
  2
AcDbPlaceHolder
  3
ObjectDBX Classes
 90
0
 91
0
280
0
281
0
  0
ENDSEC
  0
SECTION
  2
TABLES
  0
TABLE
  2
VPORT
  5
8
330
0
100
AcDbSymbolTable
 70
1
  0
VPORT
  5
23
330
8
100
AcDbSymbolTableRecord
100
AcDbViewportTableRecord
  2
*Active
 70
0
 10
0.0
 20
0.0
 11
1.0
 21
1.0
 12
0.0
 22
0.0
 13
0.0
 23
0.0
 14
0.5
 24
0.5
 15
0.5
 25
0.5
 16
0.0
 26
0.0
 36
1.0
 17
0.0
 27
0.0
 37
0.0
 40
1000.0
 41
1.34
 42
50.0
 43
0.0
 44
0.0
 50
0.0
 51
0.0
 71
0
 72
1000
 73
1
 74
3
 75
0
 76
0
 77
0
 78
0
281
0
 65
0
146
0.0
  0
ENDTAB
  0
TABLE
  2
LTYPE
  5
2
330
0
100
AcDbSymbolTable
 70
3
  0
LTYPE
  5
24
330
2
100
AcDbSymbolTableRecord
100
AcDbLinetypeTableRecord
  2
ByBlock
 70
0
  3

 72
65
 73
0
 40
0.0
  0
LTYPE
  5
25
330
2
100
AcDbSymbolTableRecord
100
AcDbLinetypeTableRecord
  2
ByLayer
 70
0
  3

 72
65
 73
0
 40
0.0
  0
LTYPE
  5
26
330
2
100
AcDbSymbolTableRecord
100
AcDbLinetypeTableRecord
  2
Continuous
 70
0
  3

 72
65
 73
0
 40
0.0
  0
ENDTAB
  0
TABLE
  2
LAYER
  5
1
330
0
100
AcDbSymbolTable
 70
2
  0
LAYER
  5
27
330
1
100
AcDbSymbolTableRecord
100
AcDbLayerTableRecord
  2
0
 70
0
 62
7
  6
Continuous
370
-3
390
13
347
21
  0
LAYER
  5
28
330
1
100
AcDbSymbolTableRecord
100
AcDbLayerTableRecord
  2
Defpoints
 70
0
 62
7
  6
Continuous
290
0
370
-3
390
13
347
21
  0
ENDTAB
  0
TABLE
  2
STYLE
  5
5
330
0
100
AcDbSymbolTable
 70
1
  0
STYLE
  5
29
330
5
100
AcDbSymbolTableRecord
100
AcDbTextStyleTableRecord
  2
Standard
 70
0
 40
0.0
 41
1.0
 50
0.0
 71
0
 42
2.5
  3
txt
  4

  0
ENDTAB
  0
TABLE
  2
VIEW
  5
7
330
0
100
AcDbSymbolTable
 70
0
  0
ENDTAB
  0
TABLE
  2
UCS
  5
6
330
0
100
AcDbSymbolTable
 70
0
  0
ENDTAB
  0
TABLE
  2
APPID
  5
3
330
0
100
AcDbSymbolTable
 70
3
  0
APPID
  5
2A
330
3
100
AcDbSymbolTableRecord
100
AcDbRegAppTableRecord
  2
ACAD
 70
0
  0
APPID
  5
3C
330
3
100
AcDbSymbolTableRecord
100
AcDbRegAppTableRecord
  2
HATCHBACKGROUNDCOLOR
 70
0
  0
APPID
  5
3D
330
3
100
AcDbSymbolTableRecord
100
AcDbRegAppTableRecord
  2
EZDXF
 70
0
  0
ENDTAB
  0
TABLE
  2
DIMSTYLE
  5
4
330
0
100
AcDbSymbolTable
 70
1
100
AcDbDimStyleTable
  0
DIMSTYLE
105
2B
330
4
100
AcDbSymbolTableRecord
100
AcDbDimStyleTableRecord
  2
Standard
 70
0
 40
1.0
 41
2.5
 42
0.625
 43
3.75
 44
1.25
 45
0.0
 46
0.0
 47
0.0
 48
0.0
 49
2.5
140
2.5
141
2.5
142
0.0
143
0.03937007874
144
1.0
145
0.0
146
1.0
147
0.625
148
0.0
 69
0
 70
0
 71
0
 72
0
 73
0
 74
0
 75
0
 76
0
 77
1
 78
8
 79
3
170
0
171
3
172
1
173
0
174
0
175
0
176
0
177
0
178
0
179
2
271
2
272
2
273
2
274
3
275
0
276
0
277
2
278
44
279
0
280
0
281
0
282
0
283
0
284
8
285
0
286
0
288
0
289
3
290
0
371
-2
372
-2
  0
ENDTAB
  0
TABLE
  2
BLOCK_RECORD
  5
9
330
0
100
AcDbSymbolTable
 70
2
  0
BLOCK_RECORD
  5
17
330
9
100
AcDbSymbolTableRecord
100
AcDbBlockTableRecord
  2
*Model_Space
340
1A
 70
0
280
1
281
0
  0
BLOCK_RECORD
  5
1B
330
9
100
AcDbSymbolTableRecord
100
AcDbBlockTableRecord
  2
*Paper_Space
340
1E
 70
0
280
1
281
0
  0
ENDTAB
  0
ENDSEC
  0
SECTION
  2
BLOCKS
  0
BLOCK
  5
18
330
17
100
AcDbEntity
  8
0
100
AcDbBlockBegin
  2
*Model_Space
 70
0
 10
0.0
 20
0.0
 30
0.0
  3
*Model_Space
  1

  0
ENDBLK
  5
19
330
17
100
AcDbEntity
  8
0
100
AcDbBlockEnd
  0
BLOCK
  5
1C
330
1B
100
AcDbEntity
  8
0
100
AcDbBlockBegin
  2
*Paper_Space
 70
0
 10
0.0
 20
0.0
 30
0.0
  3
*Paper_Space
  1

  0
ENDBLK
  5
1D
330
1B
100
AcDbEntity
  8
0
100
AcDbBlockEnd
  0
ENDSEC
  0
SECTION
  2
ENTITIES
  0
SPLINE
  5
2F
330
17
100
AcDbEntity
  8
layer 1
 62
250
370
9
100
AcDbSpline
 70
24
 71
3
 72
8
 73
4
 74
0
 42
1e-09
 40
0.0
 40
0.0
 40
0.0
 40
0.0
 40
1.0
 40
1.0
 40
1.0
 40
1.0
 10
1855.1330203458804
 20
699.8888270981082
 30
0.0
 10
1855.1330203458804
 20
699.8888270981082
 30
0.0
 10
1867.4973203458803
 20
679.3445270981082
 30
0.0
 10
1867.4973203458803
 20
679.3445270981082
 30
0.0
  0
SPLINE
  5
30
330
17
100
AcDbEntity
  8
layer 1
 62
250
370
9
100
AcDbSpline
 70
24
 71
3
 72
8
 73
4
 74
0
 42
1e-09
 40
0.0
 40
0.0
 40
0.0
 40
0.0
 40
1.0
 40
1.0
 40
1.0
 40
1.0
 10
1837.4031203458803
 20
699.8888270981082
 30
0.0
 10
1837.4031203458803
 20
699.8888270981082
 30
0.0
 10
1849.7674203458805
 20
679.3445270981082
 30
0.0
 10
1849.7674203458805
 20
679.3445270981082
 30
0.0
  0
SPLINE
  5
31
330
17
100
AcDbEntity
  8
layer 1
 62
250
370
9
100
AcDbSpline
 70
8
 71
3
 72
32
 73
28
 74
0
 42
1e-09
 40
0.0
 40
0.0
 40
0.0
 40
0.0
 40
0.125
 40
0.125
 40
0.125
 40
0.125
 40
0.25
 40
0.25
 40
0.25
 40
0.25
 40
0.375
 40
0.375
 40
0.375
 40
0.375
 40
0.5
 40
0.5
 40
0.5
 40
0.5
 40
0.625
 40
0.625
 40
0.625
 40
0.625
 40
0.75
 40
0.75
 40
0.75
 40
0.75
 40
1.0
 40
1.0
 40
1.0
 40
1.0
 10
1284.4227203458804
 20
496.0021270981082
 30
0.0
 10
1284.2975203458805
 20
493.9211270981082
 30
0.0
 10
1282.7953203458806
 20
492.5959270981082
 30
0.0
 10
1280.8716203458803
 20
492.5862270981081
 30
0.0
 10
1280.8716203458803
 20
492.5862270981081
 30
0.0
 10
1278.7830203458802
 20
492.58652709810815
 30
0.0
 10
1276.6944203458804
 20
492.58652709810815
 30
0.0
 10
1274.6061203458803
 20
492.5862270981081
 30
0.0
 10
1274.6061203458803
 20
492.5862270981081
 30
0.0
 10
1272.8819203458804
 20
492.49182709810816
 30
0.0
 10
1271.1155203458804
 20
494.1797270981082
 30
0.0
 10
1271.1255203458804
 20
495.9865270981081
 30
0.0
 10
1271.1255203458804
 20
495.9865270981081
 30
0.0
 10
1271.1259203458803
 20
501.1547270981082
 30
0.0
 10
1271.1259203458803
 20
506.32242709810816
 30
0.0
 10
1271.1255203458804
 20
511.4898270981082
 30
0.0
 10
1271.1255203458804
 20
511.4898270981082
 30
0.0
 10
1271.1293203458804
 20
513.4049270981081
 30
0.0
 10
1272.6938203458803
 20
514.9448270981081
 30
0.0
 10
1274.6217203458805
 20
514.9327270981081
 30
0.0
 10
1274.6217203458805
 20
514.9327270981081
 30
0.0
 10
1276.7047203458806
 20
514.9327270981081
 30
0.0
 10
1278.7882203458803
 20
514.9327270981081
 30
0.0
 10
1280.8716203458803
 20
514.9327270981081
 30
0.0
 10
1280.8716203458803
 20
514.9327270981081
 30
0.0
 10
1282.6151203458803
 20
514.9645270981082
 30
0.0
 10
1284.3988203458803
 20
513.6286270981082
 30
0.0
 10
1284.4227203458804
 20
511.44522709810815
 30
0.0
  0
SPLINE
  5
32
330
17
100
AcDbEntity
  8
layer 1
 62
250
370
9
100
AcDbSpline
 70
8
 71
3
 72
52
 73
48
 74
0
 42
1e-09
 40
0.0
 40
0.0
 40
0.0
 40
0.0
 40
0.0769230769230769
 40
0.0769230769230769
 40
0.0769230769230769
 40
0.0769230769230769
 40
0.1538461538461539
 40
0.1538461538461539
 40
0.1538461538461539
 40
0.1538461538461539
 40
0.2307692307692308
 40
0.2307692307692308
 40
0.2307692307692308
 40
0.2307692307692308
 40
0.3076923076923077
 40
0.3076923076923077
 40
0.3076923076923077
 40
0.3076923076923077
 40
0.3846153846153846
 40
0.3846153846153846
 40
0.3846153846153846
 40
0.3846153846153846
 40
0.4615384615384616
 40
0.4615384615384616
 40
0.4615384615384616
 40
0.4615384615384616
 40
0.5384615384615384
 40
0.5384615384615384
 40
0.5384615384615384
 40
0.5384615384615384
 40
0.6153846153846154
 40
0.6153846153846154
 40
0.6153846153846154
 40
0.6153846153846154
 40
0.6923076923076923
 40
0.6923076923076923
 40
0.6923076923076923
 40
0.6923076923076923
 40
0.7692307692307693
 40
0.7692307692307693
 40
0.7692307692307693
 40
0.7692307692307693
 40
0.8461538461538461
 40
0.8461538461538461
 40
0.8461538461538461
 40
0.8461538461538461
 40
1.0
 40
1.0
 40
1.0
 40
1.0
 10
1531.6274203458804
 20
499.23242709810813
 30
0.0
 10
1531.6274203458804
 20
499.23242709810813
 30
0.0
 10
1531.6274203458804
 20
501.08962709810817
 30
0.0
 10
1531.6274203458804
 20
501.08962709810817
 30
0.0
 10
1531.6274203458804
 20
501.08962709810817
 30
0.0
 10
1531.6131203458804
 20
502.83152709810815
 30
0.0
 10
1534.2776203458802
 20
504.9496270981082
 30
0.0
 10
1536.3367203458804
 20
504.9269270981082
 30
0.0
 10
1536.3367203458804
 20
504.9269270981082
 30
0.0
 10
1538.4008203458802
 20
504.9269270981082
 30
0.0
 10
1540.4648203458805
 20
504.9269270981082
 30
0.0
 10
1542.5285203458802
 20
504.9269270981082
 30
0.0
 10
1542.5285203458802
 20
504.9269270981082
 30
0.0
 10
1544.7230203458803
 20
504.93572709810815
 30
0.0
 10
1546.3213203458804
 20
503.0889270981081
 30
0.0
 10
1546.3657203458804
 20
501.1768270981081
 30
0.0
 10
1546.3657203458804
 20
501.1768270981081
 30
0.0
 10
1546.3653203458803
 20
499.7417270981082
 30
0.0
 10
1546.3653203458803
 20
498.30662709810815
 30
0.0
 10
1546.3657203458804
 20
496.8711270981081
 30
0.0
 10
1546.3657203458804
 20
496.8711270981081
 30
0.0
 10
1546.3171203458805
 20
495.2176270981082
 30
0.0
 10
1544.7145203458804
 20
492.9876270981082
 30
0.0
 10
1542.5162203458804
 20
492.9976270981082
 30
0.0
 10
1542.5162203458804
 20
492.9976270981082
 30
0.0
 10
1544.7199203458804
 20
492.98642709810815
 30
0.0
 10
1546.3279203458806
 20
491.1832270981082
 30
0.0
 10
1546.3819203458804
 20
489.12372709810813
 30
0.0
 10
1546.3819203458804
 20
489.12372709810813
 30
0.0
 10
1546.3815203458803
 20
487.3390270981082
 30
0.0
 10
1546.3815203458803
 20
485.55432709810816
 30
0.0
 10
1546.3819203458804
 20
483.7692270981081
 30
0.0
 10
1546.3819203458804
 20
483.7692270981081
 30
0.0
 10
1546.3920203458804
 20
481.70782709810817
 30
0.0
 10
1544.3371203458805
 20
479.94472709810816
 30
0.0
 10
1542.5162203458804
 20
479.9528270981082
 30
0.0
 10
1542.5162203458804
 20
479.9528270981082
 30
0.0
 10
1540.4509203458804
 20
479.9531270981082
 30
0.0
 10
1538.3857203458804
 20
479.9531270981082
 30
0.0
 10
1536.3201203458802
 20
479.9528270981082
 30
0.0
 10
1536.3201203458802
 20
479.9528270981082
 30
0.0
 10
1534.1515203458803
 20
479.96432709810813
 30
0.0
 10
1531.6205203458803
 20
482.36452709810817
 30
0.0
 10
1531.6019203458804
 20
483.8263270981082
 30
0.0
 10
1531.6019203458804
 20
483.8263270981082
 30
0.0
 10
1531.6019203458804
 20
483.8263270981082
 30
0.0
 10
1531.6019203458804
 20
485.7349270981082
 30
0.0
 10
1531.6019203458804
 20
485.7349270981082
 30
0.0
  0
SPLINE
  5
33
330
17
100
AcDbEntity
  8
layer 1
 62
250
370
9
100
AcDbSpline
 70
24
 71
3
 72
8
 73
4
 74
0
 42
1e-09
 40
0.0
 40
0.0
 40
0.0
 40
0.0
 40
1.0
 40
1.0
 40
1.0
 40
1.0
 10
1536.3371203458805
 20
492.9872270981082
 30
0.0
 10
1536.3371203458805
 20
492.9872270981082
 30
0.0
 10
1542.5335203458803
 20
492.9872270981082
 30
0.0
 10
1542.5335203458803
 20
492.9872270981082
 30
0.0
  0
SPLINE
  5
34
330
17
100
AcDbEntity
  8
layer 1
 62
250
370
9
100
AcDbSpline
 70
11
 71
3
 72
36
 73
32
 74
0
 42
1e-09
 40
0.0
 40
0.0
 40
0.0
 40
0.0
 40
0.1111111111111111
 40
0.1111111111111111
 40
0.1111111111111111
 40
0.1111111111111111
 40
0.2222222222222222
 40
0.2222222222222222
 40
0.2222222222222222
 40
0.2222222222222222
 40
0.3333333333333333
 40
0.3333333333333333
 40
0.3333333333333333
 40
0.3333333333333333
 40
0.4444444444444444
 40
0.4444444444444444
 40
0.4444444444444444
 40
0.4444444444444444
 40
0.5555555555555556
 40
0.5555555555555556
 40
0.5555555555555556
 40
0.5555555555555556
 40
0.6666666666666666
 40
0.6666666666666666
 40
0.6666666666666666
 40
0.6666666666666666
 40
0.7777777777777778
 40
0.7777777777777778
 40
0.7777777777777778
 40
0.7777777777777778
 40
1.0
 40
1.0
 40
1.0
 40
1.0
 10
1575.4113203458805
 20
504.9392270981082
 30
0.0
 10
1577.7774203458803
 20
504.9392270981082
 30
0.0
 10
1580.1439203458804
 20
504.9392270981082
 30
0.0
 10
1582.5104203458804
 20
504.9392270981082
 30
0.0
 10
1582.5104203458804
 20
504.9392270981082
 30
0.0
 10
1584.4909203458803
 20
504.9748270981081
 30
0.0
 10
1586.5169203458804
 20
503.48052709810815
 30
0.0
 10
1586.5440203458804
 20
501.0384270981082
 30
0.0
 10
1586.5440203458804
 20
501.0384270981082
 30
0.0
 10
1586.5436203458803
 20
495.2810270981082
 30
0.0
 10
1586.5436203458803
 20
489.5232270981081
 30
0.0
 10
1586.5440203458804
 20
483.76502709810813
 30
0.0
 10
1586.5440203458804
 20
483.76502709810813
 30
0.0
 10
1586.4019203458804
 20
481.4374270981082
 30
0.0
 10
1584.6955203458804
 20
479.95512709810816
 30
0.0
 10
1582.5104203458804
 20
479.94432709810815
 30
0.0
 10
1582.5104203458804
 20
479.94432709810815
 30
0.0
 10
1580.1380203458802
 20
479.94472709810816
 30
0.0
 10
1577.7656203458805
 20
479.94472709810816
 30
0.0
 10
1575.3936203458804
 20
479.94432709810815
 30
0.0
 10
1575.3936203458804
 20
479.94432709810815
 30
0.0
 10
1573.4351203458805
 20
479.83872709810817
 30
0.0
 10
1571.4287203458803
 20
481.7266270981081
 30
0.0
 10
1571.4401203458804
 20
483.7476270981082
 30
0.0
 10
1571.4401203458804
 20
483.7476270981082
 30
0.0
 10
1571.4405203458805
 20
489.5282270981081
 30
0.0
 10
1571.4405203458805
 20
495.30852709810813
 30
0.0
 10
1571.4401203458804
 20
501.08832709810815
 30
0.0
 10
1571.4401203458804
 20
501.08832709810815
 30
0.0
 10
1571.4444203458804
 20
503.2303270981082
 30
0.0
 10
1573.2215203458804
 20
504.9528270981082
 30
0.0
 10
1575.4113203458805
 20
504.9392270981082
 30
0.0
  0
SPLINE
  5
35
330
17
100
AcDbEntity
  8
layer 1
 62
250
370
9
100
AcDbSpline
 70
11
 71
3
 72
36
 73
32
 74
0
 42
1e-09
 40
0.0
 40
0.0
 40
0.0
 40
0.0
 40
0.1111111111111111
 40
0.1111111111111111
 40
0.1111111111111111
 40
0.1111111111111111
 40
0.2222222222222222
 40
0.2222222222222222
 40
0.2222222222222222
 40
0.2222222222222222
 40
0.3333333333333333
 40
0.3333333333333333
 40
0.3333333333333333
 40
0.3333333333333333
 40
0.4444444444444444
 40
0.4444444444444444
 40
0.4444444444444444
 40
0.4444444444444444
 40
0.5555555555555556
 40
0.5555555555555556
 40
0.5555555555555556
 40
0.5555555555555556
 40
0.6666666666666666
 40
0.6666666666666666
 40
0.6666666666666666
 40
0.6666666666666666
 40
0.7777777777777778
 40
0.7777777777777778
 40
0.7777777777777778
 40
0.7777777777777778
 40
1.0
 40
1.0
 40
1.0
 40
1.0
 10
1555.4113203458805
 20
504.9392270981082
 30
0.0
 10
1557.7774203458803
 20
504.9392270981082
 30
0.0
 10
1560.1439203458804
 20
504.9392270981082
 30
0.0
 10
1562.5104203458804
 20
504.9392270981082
 30
0.0
 10
1562.5104203458804
 20
504.9392270981082
 30
0.0
 10
1564.4909203458803
 20
504.9748270981081
 30
0.0
 10
1566.5169203458804
 20
503.48052709810815
 30
0.0
 10
1566.5440203458804
 20
501.0384270981082
 30
0.0
 10
1566.5440203458804
 20
501.0384270981082
 30
0.0
 10
1566.5436203458803
 20
495.2810270981082
 30
0.0
 10
1566.5436203458803
 20
489.5232270981081
 30
0.0
 10
1566.5440203458804
 20
483.76502709810813
 30
0.0
 10
1566.5440203458804
 20
483.76502709810813
 30
0.0
 10
1566.4019203458804
 20
481.4374270981082
 30
0.0
 10
1564.6955203458804
 20
479.95512709810816
 30
0.0
 10
1562.5104203458804
 20
479.94432709810815
 30
0.0
 10
1562.5104203458804
 20
479.94432709810815
 30
0.0
 10
1560.1380203458802
 20
479.94472709810816
 30
0.0
 10
1557.7656203458805
 20
479.94472709810816
 30
0.0
 10
1555.3936203458804
 20
479.94432709810815
 30
0.0
 10
1555.3936203458804
 20
479.94432709810815
 30
0.0
 10
1553.4351203458805
 20
479.83872709810817
 30
0.0
 10
1551.4287203458803
 20
481.7266270981081
 30
0.0
 10
1551.4401203458804
 20
483.7476270981082
 30
0.0
 10
1551.4401203458804
 20
483.7476270981082
 30
0.0
 10
1551.4405203458805
 20
489.5282270981081
 30
0.0
 10
1551.4405203458805
 20
495.30852709810813
 30
0.0
 10
1551.4401203458804
 20
501.08832709810815
 30
0.0
 10
1551.4401203458804
 20
501.08832709810815
 30
0.0
 10
1551.4444203458804
 20
503.2303270981082
 30
0.0
 10
1553.2215203458804
 20
504.9528270981082
 30
0.0
 10
1555.4113203458805
 20
504.9392270981082
 30
0.0
  0
SPLINE
  5
36
330
17
100
AcDbEntity
  8
layer 2
 62
142
370
158
100
AcDbSpline
 70
8
 71
3
 72
16
 73
12
 74
0
 42
1e-09
 40
0.0
 40
0.0
 40
0.0
 40
0.0
 40
0.25
 40
0.25
 40
0.25
 40
0.25
 40
0.5
 40
0.5
 40
0.5
 40
0.5
 40
1.0
 40
1.0
 40
1.0
 40
1.0
 10
1719.7037203458804
 20
941.1024270981083
 30
0.0
 10
1719.8948203458804
 20
880.7728270981081
 30
0.0
 10
1718.5567203458804
 20
818.9748270981081
 30
0.0
 10
1720.2218203458804
 20
758.8126270981081
 30
0.0
 10
1720.2218203458804
 20
758.8126270981081
 30
0.0
 10
1720.9737203458803
 20
731.6449270981082
 30
0.0
 10
1734.2200203458804
 20
731.3636270981082
 30
0.0
 10
1756.9829203458803
 20
730.0392270981082
 30
0.0
 10
1756.9829203458803
 20
730.0392270981082
 30
0.0
 10
1784.2538203458803
 20
728.4526270981081
 30
0.0
 10
1810.7745203458803
 20
729.0219270981081
 30
0.0
 10
1838.0392203458805
 20
729.5016270981082
 30
0.0
  0
SPLINE
  5
37
330
17
100
AcDbEntity
  8
layer 2
 62
142
370
158
100
AcDbSpline
 70
8
 71
3
 72
24
 73
20
 74
0
 42
1e-09
 40
0.0
 40
0.0
 40
0.0
 40
0.0
 40
0.1666666666666667
 40
0.1666666666666667
 40
0.1666666666666667
 40
0.1666666666666667
 40
0.3333333333333333
 40
0.3333333333333333
 40
0.3333333333333333
 40
0.3333333333333333
 40
0.5
 40
0.5
 40
0.5
 40
0.5
 40
0.6666666666666666
 40
0.6666666666666666
 40
0.6666666666666666
 40
0.6666666666666666
 40
1.0
 40
1.0
 40
1.0
 40
1.0
 10
1837.7081203458804
 20
749.1725270981082
 30
0.0
 10
1837.7081203458804
 20
749.1725270981082
 30
0.0
 10
1841.2805203458804
 20
455.85602709810814
 30
0.0
 10
1841.2805203458804
 20
455.85602709810814
 30
0.0
 10
1841.2805203458804
 20
455.85602709810814
 30
0.0
 10
1842.1272203458805
 20
441.11872709810814
 30
0.0
 10
1851.5258203458804
 20
319.17082709810813
 30
0.0
 10
1847.5722203458804
 20
313.8656270981082
 30
0.0
 10
1847.5722203458804
 20
313.8656270981082
 30
0.0
 10
1843.7352203458804
 20
308.71702709810813
 30
0.0
 10
1833.4688203458804
 20
308.0927270981081
 30
0.0
 10
1827.9021203458803
 20
310.34872709810816
 30
0.0
 10
1827.9021203458803
 20
310.34872709810816
 30
0.0
 10
1807.0099203458803
 20
318.8158270981082
 30
0.0
 10
1797.7117203458804
 20
330.52202709810814
 30
0.0
 10
1782.6507203458805
 20
345.89672709810816
 30
0.0
 10
1782.6507203458805
 20
345.89672709810816
 30
0.0
 10
1746.7520203458803
 20
382.54332709810814
 30
0.0
 10
1710.8976203458803
 20
419.21172709810816
 30
0.0
 10
1674.7894203458804
 20
455.65212709810817
 30
0.0
  0
SPLINE
  5
38
330
17
100
AcDbEntity
  8
layer 2
 62
142
370
158
100
AcDbSpline
 70
8
 71
3
 72
36
 73
32
 74
0
 42
1e-09
 40
0.0
 40
0.0
 40
0.0
 40
0.0
 40
0.1111111111111111
 40
0.1111111111111111
 40
0.1111111111111111
 40
0.1111111111111111
 40
0.2222222222222222
 40
0.2222222222222222
 40
0.2222222222222222
 40
0.2222222222222222
 40
0.3333333333333333
 40
0.3333333333333333
 40
0.3333333333333333
 40
0.3333333333333333
 40
0.4444444444444444
 40
0.4444444444444444
 40
0.4444444444444444
 40
0.4444444444444444
 40
0.5555555555555556
 40
0.5555555555555556
 40
0.5555555555555556
 40
0.5555555555555556
 40
0.6666666666666666
 40
0.6666666666666666
 40
0.6666666666666666
 40
0.6666666666666666
 40
0.7777777777777778
 40
0.7777777777777778
 40
0.7777777777777778
 40
0.7777777777777778
 40
1.0
 40
1.0
 40
1.0
 40
1.0
 10
1667.5650203458804
 20
457.36372709810814
 30
0.0
 10
1652.3216203458805
 20
464.5957270981081
 30
0.0
 10
1650.4363203458804
 20
462.7836270981081
 30
0.0
 10
1634.1545203458804
 20
462.4007270981082
 30
0.0
 10
1634.1545203458804
 20
462.4007270981082
 30
0.0
 10
1591.0404203458804
 20
461.3869270981081
 30
0.0
 10
1404.1139203458804
 20
450.46792709810813
 30
0.0
 10
1374.4198203458805
 20
460.2406270981081
 30
0.0
 10
1374.4198203458805
 20
460.2406270981081
 30
0.0
 10
1359.4136203458804
 20
466.16262709810815
 30
0.0
 10
1358.9996203458804
 20
478.21552709810817
 30
0.0
 10
1359.1586203458805
 20
492.2345270981082
 30
0.0
 10
1359.1586203458805
 20
492.2345270981082
 30
0.0
 10
1360.0958203458804
 20
560.6434270981082
 30
0.0
 10
1362.2500203458803
 20
629.1199270981082
 30
0.0
 10
1363.1868203458803
 20
697.5808270981081
 30
0.0
 10
1363.1868203458803
 20
697.5808270981081
 30
0.0
 10
1363.2533203458804
 20
702.4792270981081
 30
0.0
 10
1362.2213203458805
 20
714.4904270981082
 30
0.0
 10
1365.9082203458804
 20
717.7881270981081
 30
0.0
 10
1365.9082203458804
 20
717.7881270981081
 30
0.0
 10
1376.6258203458804
 20
725.0574270981082
 30
0.0
 10
1407.0098203458804
 20
714.4677270981082
 30
0.0
 10
1420.2783203458803
 20
732.9389270981081
 30
0.0
 10
1420.2783203458803
 20
732.9389270981081
 30
0.0
 10
1431.9419203458804
 20
749.9270270981082
 30
0.0
 10
1431.8736203458802
 20
772.7470270981081
 30
0.0
 10
1433.6700203458804
 20
792.7237270981082
 30
0.0
 10
1433.6700203458804
 20
792.7237270981082
 30
0.0
 10
1437.8251203458804
 20
838.9263270981081
 30
0.0
 10
1435.0553203458803
 20
895.2443270981081
 30
0.0
 10
1435.3439203458804
 20
942.3737270981081
 30
0.0
  0
SPLINE
  5
39
330
17
100
AcDbEntity
  8
layer 2
 62
142
370
158
100
AcDbSpline
 70
8
 71
3
 72
20
 73
16
 74
0
 42
1e-09
 40
0.0
 40
0.0
 40
0.0
 40
0.0
 40
0.2
 40
0.2
 40
0.2
 40
0.2
 40
0.4
 40
0.4
 40
0.4
 40
0.4
 40
0.6
 40
0.6
 40
0.6
 40
0.6
 40
1.0
 40
1.0
 40
1.0
 40
1.0
 10
1314.1634203458802
 20
775.8690270981082
 30
0.0
 10
1314.1254203458802
 20
688.4721270981081
 30
0.0
 10
1314.0375203458802
 20
601.1223270981081
 30
0.0
 10
1313.7729203458803
 20
513.7252270981081
 30
0.0
 10
1313.7729203458803
 20
513.7252270981081
 30
0.0
 10
1313.7396203458804
 20
502.74412709810815
 30
0.0
 10
1313.7785203458802
 20
491.7733270981082
 30
0.0
 10
1313.9574203458803
 20
480.79342709810817
 30
0.0
 10
1313.9574203458803
 20
480.79342709810817
 30
0.0
 10
1314.1881203458804
 20
467.2288270981081
 30
0.0
 10
1318.6813203458805
 20
447.5989270981081
 30
0.0
 10
1327.3842203458803
 20
437.01952709810814
 30
0.0
 10
1327.3842203458803
 20
437.01952709810814
 30
0.0
 10
1335.0183203458805
 20
427.7394270981082
 30
0.0
 10
1341.2843203458804
 20
423.83022709810814
 30
0.0
 10
1351.6368203458806
 20
418.1355270981081
 30
0.0
  0
SPLINE
  5
3A
330
17
100
AcDbEntity
  8
layer 2
 62
142
370
158
100
AcDbSpline
 70
24
 71
3
 72
8
 73
4
 74
0
 42
1e-09
 40
0.0
 40
0.0
 40
0.0
 40
0.0
 40
1.0
 40
1.0
 40
1.0
 40
1.0
 10
1208.2035203458804
 20
368.7501270981082
 30
0.0
 10
1208.2035203458804
 20
368.7501270981082
 30
0.0
 10
1338.5072203458803
 20
369.09912709810817
 30
0.0
 10
1338.5072203458803
 20
369.09912709810817
 30
0.0
  0
SPLINE
  5
3B
330
17
100
AcDbEntity
  8
layer 3
 62
242
370
158
100
AcDbSpline
 70
11
 71
3
 72
232
 73
228
 74
0
 42
1e-09
 40
0.0
 40
0.0
 40
0.0
 40
0.0
 40
0.0172413793103448
 40
0.0172413793103448
 40
0.0172413793103448
 40
0.0172413793103448
 40
0.0344827586206897
 40
0.0344827586206897
 40
0.0344827586206897
 40
0.0344827586206897
 40
0.0517241379310345
 40
0.0517241379310345
 40
0.0517241379310345
 40
0.0517241379310345
 40
0.0689655172413793
 40
0.0689655172413793
 40
0.0689655172413793
 40
0.0689655172413793
 40
0.0862068965517241
 40
0.0862068965517241
 40
0.0862068965517241
 40
0.0862068965517241
 40
0.103448275862069
 40
0.103448275862069
 40
0.103448275862069
 40
0.103448275862069
 40
0.1206896551724138
 40
0.1206896551724138
 40
0.1206896551724138
 40
0.1206896551724138
 40
0.1379310344827586
 40
0.1379310344827586
 40
0.1379310344827586
 40
0.1379310344827586
 40
0.1551724137931035
 40
0.1551724137931035
 40
0.1551724137931035
 40
0.1551724137931035
 40
0.1724137931034483
 40
0.1724137931034483
 40
0.1724137931034483
 40
0.1724137931034483
 40
0.1896551724137931
 40
0.1896551724137931
 40
0.1896551724137931
 40
0.1896551724137931
 40
0.2068965517241379
 40
0.2068965517241379
 40
0.2068965517241379
 40
0.2068965517241379
 40
0.2241379310344828
 40
0.2241379310344828
 40
0.2241379310344828
 40
0.2241379310344828
 40
0.2413793103448276
 40
0.2413793103448276
 40
0.2413793103448276
 40
0.2413793103448276
 40
0.2586206896551724
 40
0.2586206896551724
 40
0.2586206896551724
 40
0.2586206896551724
 40
0.2758620689655172
 40
0.2758620689655172
 40
0.2758620689655172
 40
0.2758620689655172
 40
0.293103448275862
 40
0.293103448275862
 40
0.293103448275862
 40
0.293103448275862
 40
0.3103448275862069
 40
0.3103448275862069
 40
0.3103448275862069
 40
0.3103448275862069
 40
0.3275862068965517
 40
0.3275862068965517
 40
0.3275862068965517
 40
0.3275862068965517
 40
0.3448275862068966
 40
0.3448275862068966
 40
0.3448275862068966
 40
0.3448275862068966
 40
0.3620689655172414
 40
0.3620689655172414
 40
0.3620689655172414
 40
0.3620689655172414
 40
0.3793103448275862
 40
0.3793103448275862
 40
0.3793103448275862
 40
0.3793103448275862
 40
0.396551724137931
 40
0.396551724137931
 40
0.396551724137931
 40
0.396551724137931
 40
0.4137931034482759
 40
0.4137931034482759
 40
0.4137931034482759
 40
0.4137931034482759
 40
0.4310344827586207
 40
0.4310344827586207
 40
0.4310344827586207
 40
0.4310344827586207
 40
0.4482758620689655
 40
0.4482758620689655
 40
0.4482758620689655
 40
0.4482758620689655
 40
0.4655172413793103
 40
0.4655172413793103
 40
0.4655172413793103
 40
0.4655172413793103
 40
0.4827586206896552
 40
0.4827586206896552
 40
0.4827586206896552
 40
0.4827586206896552
 40
0.5
 40
0.5
 40
0.5
 40
0.5
 40
0.5172413793103449
 40
0.5172413793103449
 40
0.5172413793103449
 40
0.5172413793103449
 40
0.5344827586206896
 40
0.5344827586206896
 40
0.5344827586206896
 40
0.5344827586206896
 40
0.5517241379310345
 40
0.5517241379310345
 40
0.5517241379310345
 40
0.5517241379310345
 40
0.5689655172413793
 40
0.5689655172413793
 40
0.5689655172413793
 40
0.5689655172413793
 40
0.5862068965517241
 40
0.5862068965517241
 40
0.5862068965517241
 40
0.5862068965517241
 40
0.603448275862069
 40
0.603448275862069
 40
0.603448275862069
 40
0.603448275862069
 40
0.6206896551724138
 40
0.6206896551724138
 40
0.6206896551724138
 40
0.6206896551724138
 40
0.6379310344827587
 40
0.6379310344827587
 40
0.6379310344827587
 40
0.6379310344827587
 40
0.6551724137931034
 40
0.6551724137931034
 40
0.6551724137931034
 40
0.6551724137931034
 40
0.6724137931034483
 40
0.6724137931034483
 40
0.6724137931034483
 40
0.6724137931034483
 40
0.6896551724137931
 40
0.6896551724137931
 40
0.6896551724137931
 40
0.6896551724137931
 40
0.7068965517241379
 40
0.7068965517241379
 40
0.7068965517241379
 40
0.7068965517241379
 40
0.7241379310344828
 40
0.7241379310344828
 40
0.7241379310344828
 40
0.7241379310344828
 40
0.7413793103448276
 40
0.7413793103448276
 40
0.7413793103448276
 40
0.7413793103448276
 40
0.7586206896551724
 40
0.7586206896551724
 40
0.7586206896551724
 40
0.7586206896551724
 40
0.7758620689655172
 40
0.7758620689655172
 40
0.7758620689655172
 40
0.7758620689655172
 40
0.7931034482758621
 40
0.7931034482758621
 40
0.7931034482758621
 40
0.7931034482758621
 40
0.8103448275862069
 40
0.8103448275862069
 40
0.8103448275862069
 40
0.8103448275862069
 40
0.8275862068965517
 40
0.8275862068965517
 40
0.8275862068965517
 40
0.8275862068965517
 40
0.8448275862068966
 40
0.8448275862068966
 40
0.8448275862068966
 40
0.8448275862068966
 40
0.8620689655172413
 40
0.8620689655172413
 40
0.8620689655172413
 40
0.8620689655172413
 40
0.8793103448275862
 40
0.8793103448275862
 40
0.8793103448275862
 40
0.8793103448275862
 40
0.896551724137931
 40
0.896551724137931
 40
0.896551724137931
 40
0.896551724137931
 40
0.9137931034482759
 40
0.9137931034482759
 40
0.9137931034482759
 40
0.9137931034482759
 40
0.9310344827586207
 40
0.9310344827586207
 40
0.9310344827586207
 40
0.9310344827586207
 40
0.9482758620689655
 40
0.9482758620689655
 40
0.9482758620689655
 40
0.9482758620689655
 40
0.9655172413793104
 40
0.9655172413793104
 40
0.9655172413793104
 40
0.9655172413793104
 40
1.0
 40
1.0
 40
1.0
 40
1.0
 10
1211.9994203458805
 20
310.55642709810814
 30
0.0
 10
1213.6932203458805
 20
309.1147270981082
 30
0.0
 10
1216.7229203458805
 20
308.74962709810814
 30
0.0
 10
1222.1781203458804
 20
308.82842709810814
 30
0.0
 10
1222.1781203458804
 20
308.82842709810814
 30
0.0
 10
1246.9484203458805
 20
309.18612709810816
 30
0.0
 10
1318.0657203458804
 20
304.47402709810814
 30
0.0
 10
1337.9428203458804
 20
309.9485270981082
 30
0.0
 10
1337.9428203458804
 20
309.9485270981082
 30
0.0
 10
1346.0469203458804
 20
312.2619270981082
 30
0.0
 10
1350.6372203458805
 20
313.75892709810813
 30
0.0
 10
1348.7837203458803
 20
323.31642709810814
 30
0.0
 10
1348.7837203458803
 20
323.31642709810814
 30
0.0
 10
1345.8713203458803
 20
338.33432709810813
 30
0.0
 10
1339.3519203458804
 20
353.42432709810817
 30
0.0
 10
1338.5072203458803
 20
369.09912709810817
 30
0.0
 10
1338.5072203458803
 20
369.09912709810817
 30
0.0
 10
1338.8818203458804
 20
375.71732709810817
 30
0.0
 10
1342.6660203458805
 20
380.66652709810813
 30
0.0
 10
1342.7932203458804
 20
390.29852709810814
 30
0.0
 10
1342.7932203458804
 20
390.29852709810814
 30
0.0
 10
1342.8763203458802
 20
396.59532709810816
 30
0.0
 10
1340.9721203458803
 20
414.27982709810817
 30
0.0
 10
1346.9917203458804
 20
417.8982270981082
 30
0.0
 10
1346.9917203458804
 20
417.8982270981082
 30
0.0
 10
1353.1022203458804
 20
420.4136270981082
 30
0.0
 10
1358.4087203458803
 20
413.55282709810814
 30
0.0
 10
1360.6453203458805
 20
408.73642709810815
 30
0.0
 10
1360.6453203458805
 20
408.73642709810815
 30
0.0
 10
1368.4223203458805
 20
389.1919270981082
 30
0.0
 10
1369.3248203458804
 20
351.25432709810815
 30
0.0
 10
1371.1683203458804
 20
329.24882709810817
 30
0.0
 10
1371.1683203458804
 20
329.24882709810817
 30
0.0
 10
1371.4404203458803
 20
326.00112709810816
 30
0.0
 10
1371.1129203458804
 20
317.39532709810817
 30
0.0
 10
1375.9322203458805
 20
317.41602709810815
 30
0.0
 10
1375.9322203458805
 20
317.41602709810815
 30
0.0
 10
1430.7805203458804
 20
317.65152709810815
 30
0.0
 10
1485.5647203458802
 20
318.49292709810817
 30
0.0
 10
1540.4044203458802
 20
319.52082709810816
 30
0.0
 10
1540.4044203458802
 20
319.52082709810816
 30
0.0
 10
1561.9322203458805
 20
319.92432709810817
 30
0.0
 10
1584.7099203458804
 20
319.95992709810815
 30
0.0
 10
1606.1511203458804
 20
321.12792709810816
 30
0.0
 10
1606.1511203458804
 20
321.12792709810816
 30
0.0
 10
1610.3450203458804
 20
321.36862709810816
 30
0.0
 10
1611.8061203458803
 20
324.30642709810814
 30
0.0
 10
1615.0874203458804
 20
332.3785270981082
 30
0.0
 10
1615.0874203458804
 20
332.3785270981082
 30
0.0
 10
1627.0038203458803
 20
361.69302709810813
 30
0.0
 10
1639.2739203458805
 20
390.61092709810816
 30
0.0
 10
1651.4922203458805
 20
419.78322709810817
 30
0.0
 10
1651.4922203458805
 20
419.78322709810817
 30
0.0
 10
1654.3513203458804
 20
426.5365270981082
 30
0.0
 10
1658.0336203458805
 20
434.06712709810813
 30
0.0
 10
1660.3245203458805
 20
440.9056270981082
 30
0.0
 10
1660.3245203458805
 20
440.9056270981082
 30
0.0
 10
1661.6519203458804
 20
444.8680270981082
 30
0.0
 10
1660.6575203458804
 20
449.9163270981081
 30
0.0
 10
1661.7437203458803
 20
453.0769270981082
 30
0.0
 10
1661.7437203458803
 20
453.0769270981082
 30
0.0
 10
1663.4994203458805
 20
458.1860270981082
 30
0.0
 10
1671.2042203458805
 20
458.54662709810816
 30
0.0
 10
1674.7894203458804
 20
455.65212709810817
 30
0.0
 10
1674.7894203458804
 20
455.65212709810817
 30
0.0
 10
1678.5646203458805
 20
452.60422709810814
 30
0.0
 10
1676.8386203458804
 20
447.8459270981082
 30
0.0
 10
1674.2711203458803
 20
444.4599270981082
 30
0.0
 10
1674.2711203458803
 20
444.4599270981082
 30
0.0
 10
1673.2044203458804
 20
443.0532270981082
 30
0.0
 10
1671.4724203458804
 20
442.43032709810814
 30
0.0
 10
1670.7564203458805
 20
441.3951270981081
 30
0.0
 10
1670.7564203458805
 20
441.3951270981081
 30
0.0
 10
1667.3421203458804
 20
436.45832709810816
 30
0.0
 10
1658.2772203458803
 20
408.40422709810815
 30
0.0
 10
1655.3831203458803
 20
400.56142709810814
 30
0.0
 10
1655.3831203458803
 20
400.56142709810814
 30
0.0
 10
1652.9047203458804
 20
393.90062709810815
 30
0.0
 10
1648.2057203458803
 20
385.75052709810814
 30
0.0
 10
1651.1956203458803
 20
378.69362709810815
 30
0.0
 10
1651.1956203458803
 20
378.69362709810815
 30
0.0
 10
1655.7577203458804
 20
367.92622709810814
 30
0.0
 10
1680.5162203458804
 20
351.22922709810814
 30
0.0
 10
1688.5649203458804
 20
338.54962709810815
 30
0.0
 10
1688.5649203458804
 20
338.54962709810815
 30
0.0
 10
1692.6785203458803
 20
330.14562709810815
 30
0.0
 10
1681.6502203458804
 20
293.51612709810814
 30
0.0
 10
1682.8930203458804
 20
278.48062709810813
 30
0.0
 10
1682.8930203458804
 20
278.48062709810813
 30
0.0
 10
1684.2812203458805
 20
270.84792709810813
 30
0.0
 10
1694.6376203458804
 20
256.32052709810813
 30
0.0
 10
1700.2649203458805
 20
251.64462709810817
 30
0.0
 10
1700.2649203458805
 20
251.64462709810817
 30
0.0
 10
1706.9164203458804
 20
246.11752709810816
 30
0.0
 10
1714.7350203458805
 20
252.50132709810816
 30
0.0
 10
1721.0644203458803
 20
256.3493270981082
 30
0.0
 10
1721.0644203458803
 20
256.3493270981082
 30
0.0
 10
1744.4711203458803
 20
270.45262709810817
 30
0.0
 10
1768.5103203458805
 20
284.3219270981082
 30
0.0
 10
1792.1629203458804
 20
298.0549270981082
 30
0.0
 10
1792.1629203458804
 20
298.0549270981082
 30
0.0
 10
1811.0177203458804
 20
308.99802709810814
 30
0.0
 10
1806.6396203458803
 20
309.90812709810814
 30
0.0
 10
1827.1893203458803
 20
303.6446270981082
 30
0.0
 10
1827.1893203458803
 20
303.6446270981082
 30
0.0
 10
1844.8723203458803
 20
298.30292709810817
 30
0.0
 10
1856.9883203458803
 20
301.77512709810816
 30
0.0
 10
1857.2901203458805
 20
322.34102709810816
 30
0.0
 10
1857.2901203458805
 20
322.34102709810816
 30
0.0
 10
1856.7162203458804
 20
337.82152709810816
 30
0.0
 10
1855.9350203458803
 20
353.34262709810815
 30
0.0
 10
1855.3554203458805
 20
368.84782709810816
 30
0.0
 10
1855.3554203458805
 20
368.84782709810816
 30
0.0
 10
1854.9821203458805
 20
378.82222709810816
 30
0.0
 10
1854.6088203458803
 20
388.79662709810816
 30
0.0
 10
1854.2355203458803
 20
398.77102709810816
 30
0.0
 10
1854.2355203458803
 20
398.77102709810816
 30
0.0
 10
1851.9958203458805
 20
458.6099270981082
 30
0.0
 10
1849.9128203458804
 20
518.4965270981081
 30
0.0
 10
1847.5090203458803
 20
578.3239270981081
 30
0.0
 10
1847.5090203458803
 20
578.3239270981081
 30
0.0
 10
1846.9713203458805
 20
591.7075270981081
 30
0.0
 10
1845.0482203458805
 20
596.3506270981081
 30
0.0
 10
1852.0365203458805
 20
608.4282270981082
 30
0.0
 10
1852.0365203458805
 20
608.4282270981082
 30
0.0
 10
1858.3826203458805
 20
619.3958270981082
 30
0.0
 10
1864.4449203458803
 20
622.7077270981082
 30
0.0
 10
1865.1455203458804
 20
635.8305270981082
 30
0.0
 10
1865.1455203458804
 20
635.8305270981082
 30
0.0
 10
1865.6367203458803
 20
654.2650270981081
 30
0.0
 10
1865.7531203458805
 20
673.0076270981082
 30
0.0
 10
1866.1246203458804
 20
691.4941270981082
 30
0.0
 10
1866.1246203458804
 20
691.4941270981082
 30
0.0
 10
1866.1649203458803
 20
693.4986270981082
 30
0.0
 10
1866.2052203458804
 20
695.5031270981082
 30
0.0
 10
1866.2455203458803
 20
697.5076270981082
 30
0.0
 10
1866.2455203458803
 20
697.5076270981082
 30
0.0
 10
1866.4988203458804
 20
709.6040270981082
 30
0.0
 10
1866.7948203458805
 20
721.8358270981082
 30
0.0
 10
1867.2129203458803
 20
733.9244270981081
 30
0.0
 10
1867.2129203458803
 20
733.9244270981081
 30
0.0
 10
1867.7056203458803
 20
745.3058270981081
 30
0.0
 10
1869.6723203458805
 20
749.0919270981082
 30
0.0
 10
1856.9358203458805
 20
749.1180270981082
 30
0.0
 10
1856.9358203458805
 20
749.1180270981082
 30
0.0
 10
1841.3212203458804
 20
749.1500270981081
 30
0.0
 10
1823.8912203458804
 20
749.5247270981082
 30
0.0
 10
1808.4839203458805
 20
747.9154270981081
 30
0.0
 10
1808.4839203458805
 20
747.9154270981081
 30
0.0
 10
1795.4566203458803
 20
746.3006270981082
 30
0.0
 10
1784.1178203458803
 20
745.1819270981082
 30
0.0
 10
1771.0065203458803
 20
744.3445270981082
 30
0.0
 10
1771.0065203458803
 20
744.3445270981082
 30
0.0
 10
1758.4955203458803
 20
743.5681270981081
 30
0.0
 10
1755.9245203458804
 20
742.3957270981082
 30
0.0
 10
1756.0752203458803
 20
754.9939270981082
 30
0.0
 10
1756.0752203458803
 20
754.9939270981082
 30
0.0
 10
1756.7166203458805
 20
808.6450270981081
 30
0.0
 10
1756.8126203458805
 20
862.4355270981082
 30
0.0
 10
1757.1414203458803
 20
916.1034270981081
 30
0.0
 10
1757.1414203458803
 20
916.1034270981081
 30
0.0
 10
1757.1720203458804
 20
921.0917270981082
 30
0.0
 10
1758.3460203458803
 20
935.3273270981082
 30
0.0
 10
1756.2277203458805
 20
938.9874270981082
 30
0.0
 10
1756.2277203458805
 20
938.9874270981082
 30
0.0
 10
1753.8426203458803
 20
943.1085270981081
 30
0.0
 10
1742.2337203458803
 20
941.6393270981081
 30
0.0
 10
1737.7749203458804
 20
941.5930270981081
 30
0.0
 10
1737.7749203458804
 20
941.5930270981081
 30
0.0
 10
1705.9226203458804
 20
941.261727098108
 30
0.0
 10
1673.5167203458805
 20
941.7520270981082
 30
0.0
 10
1641.6039203458804
 20
941.8465270981081
 30
0.0
 10
1641.6039203458804
 20
941.8465270981081
 30
0.0
 10
1571.4438203458803
 20
942.051627098108
 30
0.0
 10
1501.2861203458804
 20
941.9487270981082
 30
0.0
 10
1431.1264203458804
 20
942.4002270981081
 30
0.0
 10
1431.1264203458804
 20
942.4002270981081
 30
0.0
 10
1423.7378203458804
 20
942.4477270981082
 30
0.0
 10
1410.1915203458802
 20
943.9627270981081
 30
0.0
 10
1404.6277203458803
 20
939.3581270981082
 30
0.0
 10
1404.6277203458803
 20
939.3581270981082
 30
0.0
 10
1390.9345203458804
 20
928.0254270981081
 30
0.0
 10
1408.4073203458804
 20
772.2231270981082
 30
0.0
 10
1400.2108203458804
 20
742.0559270981081
 30
0.0
 10
1400.2108203458804
 20
742.0559270981081
 30
0.0
 10
1396.8024203458804
 20
729.5109270981081
 30
0.0
 10
1356.0335203458803
 20
725.1380270981082
 30
0.0
 10
1346.4480203458804
 20
735.5503270981081
 30
0.0
 10
1346.4480203458804
 20
735.5503270981081
 30
0.0
 10
1339.6260203458805
 20
742.9609270981082
 30
0.0
 10
1342.3301203458805
 20
757.2300270981082
 30
0.0
 10
1341.9944203458804
 20
766.5357270981082
 30
0.0
 10
1341.9944203458804
 20
766.5357270981082
 30
0.0
 10
1341.7736203458803
 20
772.6563270981081
 30
0.0
 10
1341.6783203458804
 20
775.4120270981082
 30
0.0
 10
1335.2254203458804
 20
775.7057270981081
 30
0.0
 10
1335.2254203458804
 20
775.7057270981081
 30
0.0
 10
1330.2666203458803
 20
775.9041270981081
 30
0.0
 10
1298.5768203458804
 20
776.9778270981082
 30
0.0
 10
1295.5090203458803
 20
775.5501270981082
 30
0.0
 10
1295.5090203458803
 20
775.5501270981082
 30
0.0
 10
1293.9126203458804
 20
774.8071270981081
 30
0.0
 10
1292.6921203458805
 20
773.5044270981082
 30
0.0
 10
1292.1389203458803
 20
771.2929270981082
 30
0.0
 10
1292.1389203458803
 20
771.2929270981082
 30
0.0
 10
1290.3019203458803
 20
763.9500270981082
 30
0.0
 10
1292.3184203458804
 20
737.7267270981082
 30
0.0
 10
1292.4817203458804
 20
728.0548270981081
 30
0.0
 10
1292.4817203458804
 20
728.0548270981081
 30
0.0
 10
1292.8246203458802
 20
707.7135270981081
 30
0.0
 10
1292.7734203458804
 20
686.5544270981081
 30
0.0
 10
1293.5900203458805
 20
666.3195270981082
 30
0.0
 10
1293.5900203458805
 20
666.3195270981082
 30
0.0
 10
1293.9129203458804
 20
658.3200270981082
 30
0.0
 10
1293.4010203458804
 20
645.5028270981081
 30
0.0
 10
1286.8112203458804
 20
639.8719270981081
 30
0.0
 10
1286.8112203458804
 20
639.8719270981081
 30
0.0
 10
1277.7907203458803
 20
632.1639270981082
 30
0.0
 10
1225.2056203458803
 20
627.8670270981081
 30
0.0
 10
1211.2860203458804
 20
627.0675270981081
 30
0.0
 10
1211.2860203458804
 20
627.0675270981081
 30
0.0
 10
1205.5192203458805
 20
626.7363270981082
 30
0.0
 10
1201.9808203458804
 20
626.7097270981081
 30
0.0
 10
1200.0565203458805
 20
624.9302270981082
 30
0.0
 10
1200.0565203458805
 20
624.9302270981082
 30
0.0
 10
1198.1322203458803
 20
623.1507270981082
 30
0.0
 10
1211.9994203458805
 20
310.55642709810814
 30
0.0
 10
1211.9994203458805
 20
310.55642709810814
 30
0.0
  0
ENDSEC
  0
SECTION
  2
OBJECTS
  0
DICTIONARY
  5
A
330
0
100
AcDbDictionary
281
1
  3
ACAD_COLOR
350
B
  3
ACAD_GROUP
350
C
  3
ACAD_LAYOUT
350
D
  3
ACAD_MATERIAL
350
E
  3
ACAD_MLEADERSTYLE
350
F
  3
ACAD_MLINESTYLE
350
10
  3
ACAD_PLOTSETTINGS
350
11
  3
ACAD_PLOTSTYLENAME
350
12
  3
ACAD_SCALELIST
350
14
  3
ACAD_TABLESTYLE
350
15
  3
ACAD_VISUALSTYLE
350
16
  3
EZDXF_META
350
2D
  0
DICTIONARY
  5
B
330
A
100
AcDbDictionary
281
1
  0
DICTIONARY
  5
C
330
A
100
AcDbDictionary
281
1
  0
DICTIONARY
  5
D
330
A
100
AcDbDictionary
281
1
  3
Model
350
1A
  3
Layout1
350
1E
  0
DICTIONARY
  5
E
330
A
100
AcDbDictionary
281
1
  3
ByBlock
350
1F
  3
ByLayer
350
20
  3
Global
350
21
  0
DICTIONARY
  5
F
330
A
100
AcDbDictionary
281
1
  3
Standard
350
2C
  0
DICTIONARY
  5
10
330
A
100
AcDbDictionary
281
1
  3
Standard
350
22
  0
DICTIONARY
  5
11
330
A
100
AcDbDictionary
281
1
  0
ACDBDICTIONARYWDFLT
  5
12
330
A
100
AcDbDictionary
281
1
  3
Normal
350
13
100
AcDbDictionaryWithDefault
340
13
  0
ACDBPLACEHOLDER
  5
13
330
12
  0
DICTIONARY
  5
14
330
A
100
AcDbDictionary
281
1
  0
DICTIONARY
  5
15
330
A
100
AcDbDictionary
281
1
  0
DICTIONARY
  5
16
330
A
100
AcDbDictionary
281
1
  0
LAYOUT
  5
1A
330
D
100
AcDbPlotSettings
  1

  4
A3
  6

 40
7.5
 41
20.0
 42
7.5
 43
20.0
 44
420.0
 45
297.0
 46
0.0
 47
0.0
 48
0.0
 49
0.0
140
0.0
141
0.0
142
1.0
143
1.0
 70
1024
 72
1
 73
0
 74
5
  7

 75
16
 76
0
 77
2
 78
300
147
1.0
148
0.0
149
0.0
100
AcDbLayout
  1
Model
 70
1
 71
0
 10
0.0
 20
0.0
 11
420.0
 21
297.0
 12
0.0
 22
0.0
 32
0.0
 14
1e+20
 24
1e+20
 34
1e+20
 15
-1e+20
 25
-1e+20
 35
-1e+20
146
0.0
 13
0.0
 23
0.0
 33
0.0
 16
1.0
 26
0.0
 36
0.0
 17
0.0
 27
1.0
 37
0.0
 76
1
330
17
  0
LAYOUT
  5
1E
330
D
100
AcDbPlotSettings
  1

  4
A3
  6

 40
7.5
 41
20.0
 42
7.5
 43
20.0
 44
420.0
 45
297.0
 46
0.0
 47
0.0
 48
0.0
 49
0.0
140
0.0
141
0.0
142
1.0
143
1.0
 70
0
 72
1
 73
0
 74
5
  7

 75
16
 76
0
 77
2
 78
300
147
1.0
148
0.0
149
0.0
100
AcDbLayout
  1
Layout1
 70
1
 71
1
 10
0.0
 20
0.0
 11
420.0
 21
297.0
 12
0.0
 22
0.0
 32
0.0
 14
1e+20
 24
1e+20
 34
1e+20
 15
-1e+20
 25
-1e+20
 35
-1e+20
146
0.0
 13
0.0
 23
0.0
 33
0.0
 16
1.0
 26
0.0
 36
0.0
 17
0.0
 27
1.0
 37
0.0
 76
1
330
1B
  0
MATERIAL
  5
1F
102
{ACAD_REACTORS
330
E
102
}
330
E
100
AcDbMaterial
  1
ByBlock
  2

 70
0
 40
1.0
 71
1
 41
1.0
 91
-1023410177
 42
1.0
 72
1
  3

 73
1
 74
1
 75
1
 44
0.5
 73
0
 45
1.0
 46
1.0
 77
1
  4

 78
1
 79
1
170
1
 48
1.0
171
1
  6

172
1
173
1
174
1
140
1.0
141
1.0
175
1
  7

176
1
177
1
178
1
143
1.0
179
1
  8

270
1
271
1
272
1
145
1.0
146
1.0
273
1
  9

274
1
275
1
276
1
 42
1.0
 72
1
  3

 73
1
 74
1
 75
1
 94
63
  0
MATERIAL
  5
20
102
{ACAD_REACTORS
330
E
102
}
330
E
100
AcDbMaterial
  1
ByLayer
  2

 70
0
 40
1.0
 71
1
 41
1.0
 91
-1023410177
 42
1.0
 72
1
  3

 73
1
 74
1
 75
1
 44
0.5
 73
0
 45
1.0
 46
1.0
 77
1
  4

 78
1
 79
1
170
1
 48
1.0
171
1
  6

172
1
173
1
174
1
140
1.0
141
1.0
175
1
  7

176
1
177
1
178
1
143
1.0
179
1
  8

270
1
271
1
272
1
145
1.0
146
1.0
273
1
  9

274
1
275
1
276
1
 42
1.0
 72
1
  3

 73
1
 74
1
 75
1
 94
63
  0
MATERIAL
  5
21
102
{ACAD_REACTORS
330
E
102
}
330
E
100
AcDbMaterial
  1
Global
  2

 70
0
 40
1.0
 71
1
 41
1.0
 91
-1023410177
 42
1.0
 72
1
  3

 73
1
 74
1
 75
1
 44
0.5
 73
0
 45
1.0
 46
1.0
 77
1
  4

 78
1
 79
1
170
1
 48
1.0
171
1
  6

172
1
173
1
174
1
140
1.0
141
1.0
175
1
  7

176
1
177
1
178
1
143
1.0
179
1
  8

270
1
271
1
272
1
145
1.0
146
1.0
273
1
  9

274
1
275
1
276
1
 42
1.0
 72
1
  3

 73
1
 74
1
 75
1
 94
63
  0
MLINESTYLE
  5
22
102
{ACAD_REACTORS
330
10
102
}
330
10
100
AcDbMlineStyle
  2
Standard
 70
0
  3

 62
256
 51
90.0
 52
90.0
 71
2
 49
0.5
 62
256
  6
BYLAYER
 49
-0.5
 62
256
  6
BYLAYER
  0
MLEADERSTYLE
  5
2C
102
{ACAD_REACTORS
330
F
102
}
330
F
100
AcDbMLeaderStyle
179
2
170
2
171
1
172
0
 90
2
 40
0.0
 41
0.0
173
1
 91
-1056964608
 92
-2
290
1
 42
2.0
291
1
 43
8.0
  3
Standard
 44
4.0
300

342
29
174
1
175
1
176
0
178
1
 93
-1056964608
 45
4.0
292
0
297
0
 46
4.0
 94
-1056964608
 47
1.0
 49
1.0
140
1.0
294
1
141
0.0
177
0
142
1.0
295
0
296
0
143
3.75
271
0
272
9
273
9
  0
DICTIONARY
  5
2D
330
A
100
AcDbDictionary
280
1
281
1
  3
CREATED_BY_EZDXF
350
2E
  3
WRITTEN_BY_EZDXF
350
3E
  0
DICTIONARYVAR
  5
2E
330
2D
100
DictionaryVariables
280
0
  1
1.4.2 @ 2025-08-23T13:14:17.010986+00:00
  0
DICTIONARYVAR
  5
3E
330
2D
100
DictionaryVariables
280
0
  1
1.4.2 @ 2025-08-23T13:14:17.013296+00:00
  0
ENDSEC
  0
EOF
