  0
SECTION
  2
HEADER
  9
$ACADVER
  1
AC1024
  9
$ACADMAINTVER
 70
6
  9
$DWGCODEPAGE
  3
ANSI_1252
  9
$LASTSAVEDBY
  1
ezdxf
  9
$INSBASE
 10
0.0
 20
0.0
 30
0.0
  9
$EXTMIN
 10
1e+20
 20
1e+20
 30
1e+20
  9
$EXTMAX
 10
-1e+20
 20
-1e+20
 30
-1e+20
  9
$LIMMIN
 10
0.0
 20
0.0
  9
$LIMMAX
 10
420.0
 20
297.0
  9
$ORTHOMODE
 70
0
  9
$REGENMODE
 70
1
  9
$FILLMODE
 70
1
  9
$QTEXTMODE
 70
0
  9
$MIRRTEXT
 70
1
  9
$LTSCALE
 40
1.0
  9
$ATTMODE
 70
1
  9
$TEXTSIZE
 40
2.5
  9
$TRACEWID
 40
1.0
  9
$TEXTSTYLE
  7
Standard
  9
$CLAYER
  8
0
  9
$CELTYPE
  6
ByLayer
  9
$CECOLOR
 62
256
  9
$CELTSCALE
 40
1.0
  9
$DISPSILH
 70
0
  9
$DIMSCALE
 40
1.0
  9
$DIMASZ
 40
2.5
  9
$DIMEXO
 40
0.625
  9
$DIMDLI
 40
3.75
  9
$DIMRND
 40
0.0
  9
$DIMDLE
 40
0.0
  9
$DIMEXE
 40
1.25
  9
$DIMTP
 40
0.0
  9
$DIMTM
 40
0.0
  9
$DIMTXT
 40
2.5
  9
$DIMCEN
 40
2.5
  9
$DIMTSZ
 40
0.0
  9
$DIMTOL
 70
0
  9
$DIMLIM
 70
0
  9
$DIMTIH
 70
0
  9
$DIMTOH
 70
0
  9
$DIMSE1
 70
0
  9
$DIMSE2
 70
0
  9
$DIMTAD
 70
1
  9
$DIMZIN
 70
8
  9
$DIMBLK
  1

  9
$DIMASO
 70
1
  9
$DIMSHO
 70
1
  9
$DIMPOST
  1

  9
$DIMAPOST
  1

  9
$DIMALT
 70
0
  9
$DIMALTD
 70
3
  9
$DIMALTF
 40
0.03937007874
  9
$DIMLFAC
 40
1.0
  9
$DIMTOFL
 70
1
  9
$DIMTVP
 40
0.0
  9
$DIMTIX
 70
0
  9
$DIMSOXD
 70
0
  9
$DIMSAH
 70
0
  9
$DIMBLK1
  1

  9
$DIMBLK2
  1

  9
$DIMSTYLE
  2
ISO-25
  9
$DIMCLRD
 70
0
  9
$DIMCLRE
 70
0
  9
$DIMCLRT
 70
0
  9
$DIMTFAC
 40
1.0
  9
$DIMGAP
 40
0.625
  9
$DIMJUST
 70
0
  9
$DIMSD1
 70
0
  9
$DIMSD2
 70
0
  9
$DIMTOLJ
 70
0
  9
$DIMTZIN
 70
8
  9
$DIMALTZ
 70
0
  9
$DIMALTTZ
 70
0
  9
$DIMUPT
 70
0
  9
$DIMDEC
 70
2
  9
$DIMTDEC
 70
2
  9
$DIMALTU
 70
2
  9
$DIMALTTD
 70
3
  9
$DIMTXSTY
  7
Standard
  9
$DIMAUNIT
 70
0
  9
$DIMADEC
 70
0
  9
$DIMALTRND
 40
0.0
  9
$DIMAZIN
 70
0
  9
$DIMDSEP
 70
44
  9
$DIMATFIT
 70
3
  9
$DIMFRAC
 70
0
  9
$DIMLDRBLK
  1

  9
$DIMLUNIT
 70
2
  9
$DIMLWD
 70
-2
  9
$DIMLWE
 70
-2
  9
$DIMTMOVE
 70
0
  9
$DIMFXL
 40
1.0
  9
$DIMFXLON
 70
0
  9
$DIMJOGANG
 40
0.785398163397
  9
$DIMTFILL
 70
0
  9
$DIMTFILLCLR
 70
0
  9
$DIMARCSYM
 70
0
  9
$DIMLTYPE
  6

  9
$DIMLTEX1
  6

  9
$DIMLTEX2
  6

  9
$DIMTXTDIRECTION
 70
0
  9
$LUNITS
 70
2
  9
$LUPREC
 70
4
  9
$SKETCHINC
 40
1.0
  9
$FILLETRAD
 40
10.0
  9
$AUNITS
 70
0
  9
$AUPREC
 70
2
  9
$MENU
  1
.
  9
$ELEVATION
 40
0.0
  9
$PELEVATION
 40
0.0
  9
$THICKNESS
 40
0.0
  9
$LIMCHECK
 70
0
  9
$CHAMFERA
 40
0.0
  9
$CHAMFERB
 40
0.0
  9
$CHAMFERC
 40
0.0
  9
$CHAMFERD
 40
0.0
  9
$SKPOLY
 70
0
  9
$TDCREATE
 40
2460908.9789351854
  9
$TDUCREATE
 40
2458532.153996898
  9
$TDUPDATE
 40
2460908.9789351854
  9
$TDUUPDATE
 40
2458532.1544311
  9
$TDINDWG
 40
0.0
  9
$TDUSRTIMER
 40
0.0
  9
$USRTIMER
 70
1
  9
$ANGBASE
 50
0.0
  9
$ANGDIR
 70
0
  9
$PDMODE
 70
0
  9
$PDSIZE
 40
0.0
  9
$PLINEWID
 40
0.0
  9
$SPLFRAME
 70
0
  9
$SPLINETYPE
 70
6
  9
$SPLINESEGS
 70
8
  9
$HANDSEED
  5
7B
  9
$SURFTAB1
 70
6
  9
$SURFTAB2
 70
6
  9
$SURFTYPE
 70
6
  9
$SURFU
 70
6
  9
$SURFV
 70
6
  9
$UCSBASE
  2

  9
$UCSNAME
  2

  9
$UCSORG
 10
0.0
 20
0.0
 30
0.0
  9
$UCSXDIR
 10
1.0
 20
0.0
 30
0.0
  9
$UCSYDIR
 10
0.0
 20
1.0
 30
0.0
  9
$UCSORTHOREF
  2

  9
$UCSORTHOVIEW
 70
0
  9
$UCSORGTOP
 10
0.0
 20
0.0
 30
0.0
  9
$UCSORGBOTTOM
 10
0.0
 20
0.0
 30
0.0
  9
$UCSORGLEFT
 10
0.0
 20
0.0
 30
0.0
  9
$UCSORGRIGHT
 10
0.0
 20
0.0
 30
0.0
  9
$UCSORGFRONT
 10
0.0
 20
0.0
 30
0.0
  9
$UCSORGBACK
 10
0.0
 20
0.0
 30
0.0
  9
$PUCSBASE
  2

  9
$PUCSNAME
  2

  9
$PUCSORG
 10
0.0
 20
0.0
 30
0.0
  9
$PUCSXDIR
 10
1.0
 20
0.0
 30
0.0
  9
$PUCSYDIR
 10
0.0
 20
1.0
 30
0.0
  9
$PUCSORTHOREF
  2

  9
$PUCSORTHOVIEW
 70
0
  9
$PUCSORGTOP
 10
0.0
 20
0.0
 30
0.0
  9
$PUCSORGBOTTOM
 10
0.0
 20
0.0
 30
0.0
  9
$PUCSORGLEFT
 10
0.0
 20
0.0
 30
0.0
  9
$PUCSORGRIGHT
 10
0.0
 20
0.0
 30
0.0
  9
$PUCSORGFRONT
 10
0.0
 20
0.0
 30
0.0
  9
$PUCSORGBACK
 10
0.0
 20
0.0
 30
0.0
  9
$USERI1
 70
0
  9
$USERI2
 70
0
  9
$USERI3
 70
0
  9
$USERI4
 70
0
  9
$USERI5
 70
0
  9
$USERR1
 40
0.0
  9
$USERR2
 40
0.0
  9
$USERR3
 40
0.0
  9
$USERR4
 40
0.0
  9
$USERR5
 40
0.0
  9
$WORLDVIEW
 70
1
  9
$SHADEDGE
 70
3
  9
$SHADEDIF
 70
70
  9
$TILEMODE
 70
1
  9
$MAXACTVP
 70
64
  9
$PINSBASE
 10
0.0
 20
0.0
 30
0.0
  9
$PLIMCHECK
 70
0
  9
$PEXTMIN
 10
1e+20
 20
1e+20
 30
1e+20
  9
$PEXTMAX
 10
-1e+20
 20
-1e+20
 30
-1e+20
  9
$PLIMMIN
 10
0.0
 20
0.0
  9
$PLIMMAX
 10
420.0
 20
297.0
  9
$UNITMODE
 70
0
  9
$VISRETAIN
 70
1
  9
$PLINEGEN
 70
0
  9
$PSLTSCALE
 70
1
  9
$TREEDEPTH
 70
3020
  9
$CMLSTYLE
  2
Standard
  9
$CMLJUST
 70
0
  9
$CMLSCALE
 40
20.0
  9
$PROXYGRAPHICS
 70
1
  9
$MEASUREMENT
 70
1
  9
$CELWEIGHT
370
-1
  9
$ENDCAPS
280
0
  9
$JOINSTYLE
280
0
  9
$LWDISPLAY
290
0
  9
$INSUNITS
 70
4
  9
$HYPERLINKBASE
  1

  9
$STYLESHEET
  1

  9
$XEDIT
290
1
  9
$CEPSNTYPE
380
0
  9
$PSTYLEMODE
290
1
  9
$FINGERPRINTGUID
  2
{73124E44-22B4-4BAB-9484-BE74E2827B03}
  9
$VERSIONGUID
  2
{FCC02C42-F9DA-4E9E-90B5-9F3ACC586B8D}
  9
$EXTNAMES
290
1
  9
$PSVPSCALE
 40
0.0
  9
$OLESTARTUP
290
0
  9
$SORTENTS
280
127
  9
$INDEXCTL
280
0
  9
$HIDETEXT
280
1
  9
$XCLIPFRAME
280
1
  9
$HALOGAP
280
0
  9
$OBSCOLOR
 70
257
  9
$OBSLTYPE
280
0
  9
$INTERSECTIONDISPLAY
280
0
  9
$INTERSECTIONCOLOR
 70
257
  9
$DIMASSOC
280
2
  9
$PROJECTNAME
  1

  9
$CAMERADISPLAY
290
0
  9
$LENSLENGTH
 40
50.0
  9
$CAMERAHEIGHT
 40
0.0
  9
$STEPSPERSEC
 40
24.0
  9
$STEPSIZE
 40
100.0
  9
$3DDWFPREC
 40
2.0
  9
$PSOLWIDTH
 40
0.005
  9
$PSOLHEIGHT
 40
0.08
  9
$LOFTANG1
 40
1.570796326795
  9
$LOFTANG2
 40
1.570796326795
  9
$LOFTMAG1
 40
0.0
  9
$LOFTMAG2
 40
0.0
  9
$LOFTPARAM
 70
7
  9
$LOFTNORMALS
280
1
  9
$LATITUDE
 40
37.795
  9
$LONGITUDE
 40
-122.394
  9
$NORTHDIRECTION
 40
0.0
  9
$TIMEZONE
 70
-8000
  9
$LIGHTGLYPHDISPLAY
280
1
  9
$TILEMODELIGHTSYNCH
280
1
  9
$CMATERIAL
347
20
  9
$SOLIDHIST
280
0
  9
$SHOWHIST
280
1
  9
$DWFFRAME
280
2
  9
$DGNFRAME
280
2
  9
$REALWORLDSCALE
290
1
  9
$INTERFERECOLOR
 62
256
  9
$CSHADOW
280
0
  9
$SHADOWPLANELOCATION
 40
0.0
  0
ENDSEC
  0
SECTION
  2
CLASSES
  0
CLASS
  1
ACDBDICTIONARYWDFLT
  2
AcDbDictionaryWithDefault
  3
ObjectDBX Classes
 90
0
 91
0
280
0
281
0
  0
CLASS
  1
SUN
  2
AcDbSun
  3
SCENEOE
 90
1153
 91
0
280
0
281
0
  0
CLASS
  1
VISUALSTYLE
  2
AcDbVisualStyle
  3
ObjectDBX Classes
 90
4095
 91
0
280
0
281
0
  0
CLASS
  1
MATERIAL
  2
AcDbMaterial
  3
ObjectDBX Classes
 90
1153
 91
0
280
0
281
0
  0
CLASS
  1
SCALE
  2
AcDbScale
  3
ObjectDBX Classes
 90
1153
 91
0
280
0
281
0
  0
CLASS
  1
TABLESTYLE
  2
AcDbTableStyle
  3
ObjectDBX Classes
 90
4095
 91
0
280
0
281
0
  0
CLASS
  1
MLEADERSTYLE
  2
AcDbMLeaderStyle
  3
ACDB_MLEADERSTYLE_CLASS
 90
4095
 91
0
280
0
281
0
  0
CLASS
  1
DICTIONARYVAR
  2
AcDbDictionaryVar
  3
ObjectDBX Classes
 90
0
 91
0
280
0
281
0
  0
CLASS
  1
CELLSTYLEMAP
  2
AcDbCellStyleMap
  3
ObjectDBX Classes
 90
1152
 91
0
280
0
281
0
  0
CLASS
  1
MENTALRAYRENDERSETTINGS
  2
AcDbMentalRayRenderSettings
  3
SCENEOE
 90
1024
 91
0
280
0
281
0
  0
CLASS
  1
ACDBDETAILVIEWSTYLE
  2
AcDbDetailViewStyle
  3
ObjectDBX Classes
 90
1025
 91
0
280
0
281
0
  0
CLASS
  1
ACDBSECTIONVIEWSTYLE
  2
AcDbSectionViewStyle
  3
ObjectDBX Classes
 90
1025
 91
0
280
0
281
0
  0
CLASS
  1
RASTERVARIABLES
  2
AcDbRasterVariables
  3
ISM
 90
0
 91
0
280
0
281
0
  0
CLASS
  1
ACDBPLACEHOLDER
  2
AcDbPlaceHolder
  3
ObjectDBX Classes
 90
0
 91
0
280
0
281
0
  0
CLASS
  1
LAYOUT
  2
AcDbLayout
  3
ObjectDBX Classes
 90
0
 91
0
280
0
281
0
  0
ENDSEC
  0
SECTION
  2
TABLES
  0
TABLE
  2
VPORT
  5
8
330
0
100
AcDbSymbolTable
 70
1
  0
VPORT
  5
23
330
8
100
AcDbSymbolTableRecord
100
AcDbViewportTableRecord
  2
*Active
 70
0
 10
0.0
 20
0.0
 11
1.0
 21
1.0
 12
0.0
 22
0.0
 13
0.0
 23
0.0
 14
0.5
 24
0.5
 15
0.5
 25
0.5
 16
0.0
 26
0.0
 36
1.0
 17
0.0
 27
0.0
 37
0.0
 40
1000.0
 41
1.34
 42
50.0
 43
0.0
 44
0.0
 50
0.0
 51
0.0
 71
0
 72
1000
 73
1
 74
3
 75
0
 76
0
 77
0
 78
0
281
0
 65
0
146
0.0
  0
ENDTAB
  0
TABLE
  2
LTYPE
  5
2
330
0
100
AcDbSymbolTable
 70
3
  0
LTYPE
  5
24
330
2
100
AcDbSymbolTableRecord
100
AcDbLinetypeTableRecord
  2
ByBlock
 70
0
  3

 72
65
 73
0
 40
0.0
  0
LTYPE
  5
25
330
2
100
AcDbSymbolTableRecord
100
AcDbLinetypeTableRecord
  2
ByLayer
 70
0
  3

 72
65
 73
0
 40
0.0
  0
LTYPE
  5
26
330
2
100
AcDbSymbolTableRecord
100
AcDbLinetypeTableRecord
  2
Continuous
 70
0
  3

 72
65
 73
0
 40
0.0
  0
ENDTAB
  0
TABLE
  2
LAYER
  5
1
330
0
100
AcDbSymbolTable
 70
10
  0
LAYER
  5
27
330
1
100
AcDbSymbolTableRecord
100
AcDbLayerTableRecord
  2
0
 70
0
 62
7
  6
Continuous
370
-3
390
13
347
21
  0
LAYER
  5
28
330
1
100
AcDbSymbolTableRecord
100
AcDbLayerTableRecord
  2
Defpoints
 70
0
 62
7
  6
Continuous
290
0
370
-3
390
13
347
21
  0
LAYER
  5
2F
330
1
100
AcDbSymbolTableRecord
100
AcDbLayerTableRecord
  2
_home_sasha_proj_2025_eva_layout_dxf_samples_TOYOTA_COROLLA_VERSO_1_layer 1
 70
0
 62
7
  6
Continuous
370
-3
390
13
347
21
  0
LAYER
  5
30
330
1
100
AcDbSymbolTableRecord
100
AcDbLayerTableRecord
  2
_home_sasha_proj_2025_eva_layout_dxf_samples_TOYOTA_COROLLA_VERSO_1_layer 2
 70
0
 62
7
  6
Continuous
370
-3
390
13
347
21
  0
LAYER
  5
31
330
1
100
AcDbSymbolTableRecord
100
AcDbLayerTableRecord
  2
_home_sasha_proj_2025_eva_layout_dxf_samples_TOYOTA_COROLLA_VERSO_1_layer 3
 70
0
 62
7
  6
Continuous
370
-3
390
13
347
21
  0
LAYER
  5
32
330
1
100
AcDbSymbolTableRecord
100
AcDbLayerTableRecord
  2
_home_sasha_proj_2025_eva_layout_dxf_samples_Лодка_Азимут_Эверест_385_1_layer 1
 70
0
 62
7
  6
Continuous
370
-3
390
13
347
21
  0
LAYER
  5
33
330
1
100
AcDbSymbolTableRecord
100
AcDbLayerTableRecord
  2
_home_sasha_proj_2025_eva_layout_dxf_samples_Лодка_АГУЛ_270_1_layer 1
 70
0
 62
7
  6
Continuous
370
-3
390
13
347
21
  0
LAYER
  5
34
330
1
100
AcDbSymbolTableRecord
100
AcDbLayerTableRecord
  2
_home_sasha_proj_2025_eva_layout_dxf_samples_ДЕКА_KUGOO_M4_PRO_JILONG_1_layer 1
 70
0
 62
7
  6
Continuous
370
-3
390
13
347
21
  0
LAYER
  5
35
330
1
100
AcDbSymbolTableRecord
100
AcDbLayerTableRecord
  2
_home_sasha_proj_2025_eva_layout_dxf_samples_ДЕКА_KUGOO_M4_PRO_JILONG_1_layer 2
 70
0
 62
7
  6
Continuous
370
-3
390
13
347
21
  0
LAYER
  5
36
330
1
100
AcDbSymbolTableRecord
100
AcDbLayerTableRecord
  2
_home_sasha_proj_2025_eva_layout_dxf_samples_ДЕКА_KUGOO_M4_PRO_JILONG_1_layer 3
 70
0
 62
7
  6
Continuous
370
-3
390
13
347
21
  0
ENDTAB
  0
TABLE
  2
STYLE
  5
5
330
0
100
AcDbSymbolTable
 70
1
  0
STYLE
  5
29
330
5
100
AcDbSymbolTableRecord
100
AcDbTextStyleTableRecord
  2
Standard
 70
0
 40
0.0
 41
1.0
 50
0.0
 71
0
 42
2.5
  3
txt
  4

  0
ENDTAB
  0
TABLE
  2
VIEW
  5
7
330
0
100
AcDbSymbolTable
 70
0
  0
ENDTAB
  0
TABLE
  2
UCS
  5
6
330
0
100
AcDbSymbolTable
 70
0
  0
ENDTAB
  0
TABLE
  2
APPID
  5
3
330
0
100
AcDbSymbolTable
 70
3
  0
APPID
  5
2A
330
3
100
AcDbSymbolTableRecord
100
AcDbRegAppTableRecord
  2
ACAD
 70
0
  0
APPID
  5
78
330
3
100
AcDbSymbolTableRecord
100
AcDbRegAppTableRecord
  2
HATCHBACKGROUNDCOLOR
 70
0
  0
APPID
  5
79
330
3
100
AcDbSymbolTableRecord
100
AcDbRegAppTableRecord
  2
EZDXF
 70
0
  0
ENDTAB
  0
TABLE
  2
DIMSTYLE
  5
4
330
0
100
AcDbSymbolTable
 70
1
100
AcDbDimStyleTable
  0
DIMSTYLE
105
2B
330
4
100
AcDbSymbolTableRecord
100
AcDbDimStyleTableRecord
  2
Standard
 70
0
 40
1.0
 41
2.5
 42
0.625
 43
3.75
 44
1.25
 45
0.0
 46
0.0
 47
0.0
 48
0.0
 49
2.5
140
2.5
141
2.5
142
0.0
143
0.03937007874
144
1.0
145
0.0
146
1.0
147
0.625
148
0.0
 69
0
 70
0
 71
0
 72
0
 73
0
 74
0
 75
0
 76
0
 77
1
 78
8
 79
3
170
0
171
3
172
1
173
0
174
0
175
0
176
0
177
0
178
0
179
2
271
2
272
2
273
2
274
3
275
0
276
0
277
2
278
44
279
0
280
0
281
0
282
0
283
0
284
8
285
0
286
0
288
0
289
3
290
0
371
-2
372
-2
  0
ENDTAB
  0
TABLE
  2
BLOCK_RECORD
  5
9
330
0
100
AcDbSymbolTable
 70
2
  0
BLOCK_RECORD
  5
17
330
9
100
AcDbSymbolTableRecord
100
AcDbBlockTableRecord
  2
*Model_Space
340
1A
 70
0
280
1
281
0
  0
BLOCK_RECORD
  5
1B
330
9
100
AcDbSymbolTableRecord
100
AcDbBlockTableRecord
  2
*Paper_Space
340
1E
 70
0
280
1
281
0
  0
ENDTAB
  0
ENDSEC
  0
SECTION
  2
BLOCKS
  0
BLOCK
  5
18
330
17
100
AcDbEntity
  8
0
100
AcDbBlockBegin
  2
*Model_Space
 70
0
 10
0.0
 20
0.0
 30
0.0
  3
*Model_Space
  1

  0
ENDBLK
  5
19
330
17
100
AcDbEntity
  8
0
100
AcDbBlockEnd
  0
BLOCK
  5
1C
330
1B
100
AcDbEntity
  8
0
100
AcDbBlockBegin
  2
*Paper_Space
 70
0
 10
0.0
 20
0.0
 30
0.0
  3
*Paper_Space
  1

  0
ENDBLK
  5
1D
330
1B
100
AcDbEntity
  8
0
100
AcDbBlockEnd
  0
ENDSEC
  0
SECTION
  2
ENTITIES
  0
SPLINE
  5
37
330
17
100
AcDbEntity
  8
_home_sasha_proj_2025_eva_layout_dxf_samples_TOYOTA_COROLLA_VERSO_1_layer 2
 62
140
370
158
100
AcDbSpline
 70
8
 71
3
 72
44
 73
40
 74
0
 42
1e-09
 40
0.0
 40
0.0
 40
0.0
 40
0.0
 40
0.0909090909090909
 40
0.0909090909090909
 40
0.0909090909090909
 40
0.0909090909090909
 40
0.1818181818181818
 40
0.1818181818181818
 40
0.1818181818181818
 40
0.1818181818181818
 40
0.2727272727272727
 40
0.2727272727272727
 40
0.2727272727272727
 40
0.2727272727272727
 40
0.3636363636363636
 40
0.3636363636363636
 40
0.3636363636363636
 40
0.3636363636363636
 40
0.4545454545454545
 40
0.4545454545454545
 40
0.4545454545454545
 40
0.4545454545454545
 40
0.5454545454545454
 40
0.5454545454545454
 40
0.5454545454545454
 40
0.5454545454545454
 40
0.6363636363636364
 40
0.6363636363636364
 40
0.6363636363636364
 40
0.6363636363636364
 40
0.7272727272727273
 40
0.7272727272727273
 40
0.7272727272727273
 40
0.7272727272727273
 40
0.8181818181818182
 40
0.8181818181818182
 40
0.8181818181818182
 40
0.8181818181818182
 40
1.0
 40
1.0
 40
1.0
 40
1.0
 10
515.502896152565
 20
820.5381510263106
 30
0.0
 10
524.8666961525648
 20
771.1323510263106
 30
0.0
 10
534.094296152565
 20
721.6607510263105
 30
0.0
 10
543.570796152565
 20
672.2820510263106
 30
0.0
 10
543.570796152565
 20
672.2820510263106
 30
0.0
 10
544.436696152565
 20
667.7701510263106
 30
0.0
 10
546.9441961525649
 20
658.3757510263106
 30
0.0
 10
551.9568961525649
 20
656.8677510263105
 30
0.0
 10
551.9568961525649
 20
656.8677510263105
 30
0.0
 10
558.140596152565
 20
655.0073510263106
 30
0.0
 10
578.9455961525648
 20
654.8870510263106
 30
0.0
 10
585.6779961525649
 20
654.6303510263106
 30
0.0
 10
585.6779961525649
 20
654.6303510263106
 30
0.0
 10
615.2461961525648
 20
653.5157510263106
 30
0.0
 10
644.9253961525649
 20
652.8710510263106
 30
0.0
 10
674.463796152565
 20
651.5785510263106
 30
0.0
 10
674.463796152565
 20
651.5785510263106
 30
0.0
 10
687.6571961525649
 20
651.0012510263106
 30
0.0
 10
693.0757961525649
 20
648.2983510263106
 30
0.0
 10
698.6645961525649
 20
635.8421510263106
 30
0.0
 10
698.6645961525649
 20
635.8421510263106
 30
0.0
 10
705.1727961525648
 20
621.3365510263105
 30
0.0
 10
701.5523961525648
 20
598.0247510263106
 30
0.0
 10
699.9888961525648
 20
582.5931510263106
 30
0.0
 10
699.9888961525648
 20
582.5931510263106
 30
0.0
 10
694.2742961525648
 20
523.7692510263106
 30
0.0
 10
688.2741961525649
 20
464.86945102631057
 30
0.0
 10
682.7276961525649
 20
406.0468510263106
 30
0.0
 10
682.7276961525649
 20
406.0468510263106
 30
0.0
 10
680.7532961525649
 20
385.1078510263106
 30
0.0
 10
680.1461961525649
 20
367.3297510263106
 30
0.0
 10
680.1463961525649
 20
346.3301510263106
 30
0.0
 10
680.1463961525649
 20
346.3301510263106
 30
0.0
 10
680.146996152565
 20
300.89985102631056
 30
0.0
 10
679.342496152565
 20
255.4676510263106
 30
0.0
 10
678.910496152565
 20
210.03975102631057
 30
0.0
 10
678.910496152565
 20
210.03975102631057
 30
0.0
 10
678.8780961525649
 20
206.54835102631057
 30
0.0
 10
678.8455961525649
 20
203.05695102631057
 30
0.0
 10
678.8130961525649
 20
199.56555102631057
 30
0.0
  0
SPLINE
  5
38
330
17
100
AcDbEntity
  8
_home_sasha_proj_2025_eva_layout_dxf_samples_TOYOTA_COROLLA_VERSO_1_layer 2
 62
140
370
158
100
AcDbSpline
 70
8
 71
3
 72
36
 73
32
 74
0
 42
1e-09
 40
0.0
 40
0.0
 40
0.0
 40
0.0
 40
0.1111111111111111
 40
0.1111111111111111
 40
0.1111111111111111
 40
0.1111111111111111
 40
0.2222222222222222
 40
0.2222222222222222
 40
0.2222222222222222
 40
0.2222222222222222
 40
0.3333333333333333
 40
0.3333333333333333
 40
0.3333333333333333
 40
0.3333333333333333
 40
0.4444444444444444
 40
0.4444444444444444
 40
0.4444444444444444
 40
0.4444444444444444
 40
0.5555555555555556
 40
0.5555555555555556
 40
0.5555555555555556
 40
0.5555555555555556
 40
0.6666666666666666
 40
0.6666666666666666
 40
0.6666666666666666
 40
0.6666666666666666
 40
0.7777777777777778
 40
0.7777777777777778
 40
0.7777777777777778
 40
0.7777777777777778
 40
1.0
 40
1.0
 40
1.0
 40
1.0
 10
652.0568961525648
 20
180.4617510263106
 30
0.0
 10
638.3564961525649
 20
180.6688510263106
 30
0.0
 10
611.2385961525649
 20
182.57695102631058
 30
0.0
 10
599.1225961525649
 20
179.59585102631058
 30
0.0
 10
599.1225961525649
 20
179.59585102631058
 30
0.0
 10
588.0603961525649
 20
176.7562510263106
 30
0.0
 10
583.0773961525649
 20
174.29965102631058
 30
0.0
 10
571.0107961525648
 20
172.94995102631057
 30
0.0
 10
571.0107961525648
 20
172.94995102631057
 30
0.0
 10
546.5397961525648
 20
170.2126510263106
 30
0.0
 10
520.436696152565
 20
171.20275102631058
 30
0.0
 10
495.69049615256495
 20
171.22565102631057
 30
0.0
 10
495.69049615256495
 20
171.22565102631057
 30
0.0
 10
421.32849615256487
 20
171.2945510263106
 30
0.0
 10
346.9410961525648
 20
171.5567510263106
 30
0.0
 10
272.58399615256485
 20
171.52655102631059
 30
0.0
 10
272.58399615256485
 20
171.52655102631059
 30
0.0
 10
264.285396152565
 20
171.5232510263106
 30
0.0
 10
262.426796152565
 20
171.45325102631057
 30
0.0
 10
254.45499615256495
 20
169.4324510263106
 30
0.0
 10
254.45499615256495
 20
169.4324510263106
 30
0.0
 10
245.97309615256495
 20
167.28235102631058
 30
0.0
 10
208.64099615256487
 20
168.54525102631058
 30
0.0
 10
197.2322961525649
 20
168.6141510263106
 30
0.0
 10
197.2322961525649
 20
168.6141510263106
 30
0.0
 10
184.759096152565
 20
168.66335102631058
 30
0.0
 10
172.2857961525649
 20
168.7124510263106
 30
0.0
 10
159.81259615256488
 20
168.76165102631057
 30
0.0
 10
159.81259615256488
 20
168.76165102631057
 30
0.0
 10
159.81259615256488
 20
168.76165102631057
 30
0.0
 10
156.81899615256486
 20
168.7734510263106
 30
0.0
 10
156.81899615256486
 20
168.7734510263106
 30
0.0
  0
SPLINE
  5
39
330
17
100
AcDbEntity
  8
_home_sasha_proj_2025_eva_layout_dxf_samples_TOYOTA_COROLLA_VERSO_1_layer 2
 62
140
370
158
100
AcDbSpline
 70
8
 71
3
 72
24
 73
20
 74
0
 42
1e-09
 40
0.0
 40
0.0
 40
0.0
 40
0.0
 40
0.1666666666666667
 40
0.1666666666666667
 40
0.1666666666666667
 40
0.1666666666666667
 40
0.3333333333333333
 40
0.3333333333333333
 40
0.3333333333333333
 40
0.3333333333333333
 40
0.5
 40
0.5
 40
0.5
 40
0.5
 40
0.6666666666666666
 40
0.6666666666666666
 40
0.6666666666666666
 40
0.6666666666666666
 40
1.0
 40
1.0
 40
1.0
 40
1.0
 10
144.66499615256487
 20
171.97215102631057
 30
0.0
 10
145.95569615256488
 20
198.3913510263106
 30
0.0
 10
146.5538961525649
 20
217.84805102631057
 30
0.0
 10
151.9895961525649
 20
244.14005102631057
 30
0.0
 10
151.9895961525649
 20
244.14005102631057
 30
0.0
 10
158.07009615256493
 20
273.7751510263106
 30
0.0
 10
162.73809615256494
 20
299.79615102631055
 30
0.0
 10
171.99969615256487
 20
328.88645102631057
 30
0.0
 10
171.99969615256487
 20
328.88645102631057
 30
0.0
 10
178.0275961525649
 20
347.81965102631057
 30
0.0
 10
177.37219615256492
 20
352.64825102631056
 30
0.0
 10
178.02439615256492
 20
371.8634510263106
 30
0.0
 10
178.02439615256492
 20
371.8634510263106
 30
0.0
 10
181.0878961525649
 20
462.12425102631056
 30
0.0
 10
183.81689615256482
 20
552.3960510263106
 30
0.0
 10
186.7313961525649
 20
642.6616510263106
 30
0.0
 10
186.7313961525649
 20
642.6616510263106
 30
0.0
 10
186.7313961525649
 20
642.6616510263106
 30
0.0
 10
188.96739615256502
 20
742.5424510263106
 30
0.0
 10
188.96739615256502
 20
742.5424510263106
 30
0.0
  0
SPLINE
  5
3A
330
17
100
AcDbEntity
  8
_home_sasha_proj_2025_eva_layout_dxf_samples_TOYOTA_COROLLA_VERSO_1_layer 2
 62
140
370
158
100
AcDbSpline
 70
8
 71
3
 72
28
 73
24
 74
0
 42
1e-09
 40
0.0
 40
0.0
 40
0.0
 40
0.0
 40
0.1428571428571428
 40
0.1428571428571428
 40
0.1428571428571428
 40
0.1428571428571428
 40
0.2857142857142857
 40
0.2857142857142857
 40
0.2857142857142857
 40
0.2857142857142857
 40
0.4285714285714285
 40
0.4285714285714285
 40
0.4285714285714285
 40
0.4285714285714285
 40
0.5714285714285714
 40
0.5714285714285714
 40
0.5714285714285714
 40
0.5714285714285714
 40
0.7142857142857143
 40
0.7142857142857143
 40
0.7142857142857143
 40
0.7142857142857143
 40
1.0
 40
1.0
 40
1.0
 40
1.0
 10
186.61119615256484
 20
638.9442510263106
 30
0.0
 10
206.70179615256484
 20
639.5603510263106
 30
0.0
 10
226.79239615256483
 20
640.1763510263106
 30
0.0
 10
246.88299615256483
 20
640.7924510263106
 30
0.0
 10
246.88299615256483
 20
640.7924510263106
 30
0.0
 10
255.9497961525649
 20
641.0183510263106
 30
0.0
 10
295.789896152565
 20
640.6858510263106
 30
0.0
 10
301.072596152565
 20
644.1456510263106
 30
0.0
 10
301.072596152565
 20
644.1456510263106
 30
0.0
 10
310.05679615256486
 20
652.8998510263106
 30
0.0
 10
314.57819615256494
 20
674.3714510263106
 30
0.0
 10
321.93189615256483
 20
677.4113510263106
 30
0.0
 10
321.93189615256483
 20
677.4113510263106
 30
0.0
 10
325.1592961525648
 20
678.7455510263106
 30
0.0
 10
370.24339615256486
 20
678.3505510263105
 30
0.0
 10
377.8492961525649
 20
678.3866510263106
 30
0.0
 10
377.8492961525649
 20
678.3866510263106
 30
0.0
 10
404.3784961525648
 20
678.5447510263106
 30
0.0
 10
430.9084961525648
 20
678.5399510263106
 30
0.0
 10
457.4378961525649
 20
678.6732510263106
 30
0.0
 10
457.4378961525649
 20
678.6732510263106
 30
0.0
 10
485.72859615256493
 20
678.8222510263106
 30
0.0
 10
514.0194961525649
 20
678.9639510263106
 30
0.0
 10
542.3103961525649
 20
679.0947510263106
 30
0.0
  0
SPLINE
  5
3B
330
17
100
AcDbEntity
  8
_home_sasha_proj_2025_eva_layout_dxf_samples_TOYOTA_COROLLA_VERSO_1_layer 2
 62
140
370
158
100
AcDbSpline
 70
8
 71
3
 72
16
 73
12
 74
0
 42
1e-09
 40
0.0
 40
0.0
 40
0.0
 40
0.0
 40
0.25
 40
0.25
 40
0.25
 40
0.25
 40
0.5
 40
0.5
 40
0.5
 40
0.5
 40
1.0
 40
1.0
 40
1.0
 40
1.0
 10
263.5719961525649
 20
745.7802510263106
 30
0.0
 10
302.2090961525648
 20
749.9276510263106
 30
0.0
 10
298.65969615256495
 20
739.5943510263106
 30
0.0
 10
306.641396152565
 20
706.2822510263106
 30
0.0
 10
306.641396152565
 20
706.2822510263106
 30
0.0
 10
309.3609961525649
 20
694.9316510263105
 30
0.0
 10
313.20269615256484
 20
688.1606510263106
 30
0.0
 10
318.2114961525649
 20
677.9036510263106
 30
0.0
 10
318.2114961525649
 20
677.9036510263106
 30
0.0
 10
318.2114961525649
 20
677.9036510263106
 30
0.0
 10
318.9840961525649
 20
676.3215510263105
 30
0.0
 10
318.9840961525649
 20
676.3215510263105
 30
0.0
  0
SPLINE
  5
3C
330
17
100
AcDbEntity
  8
_home_sasha_proj_2025_eva_layout_dxf_samples_TOYOTA_COROLLA_VERSO_1_layer 2
 62
140
370
158
100
AcDbSpline
 70
8
 71
3
 72
12
 73
8
 74
0
 42
1e-09
 40
0.0
 40
0.0
 40
0.0
 40
0.0
 40
0.3333333333333333
 40
0.3333333333333333
 40
0.3333333333333333
 40
0.3333333333333333
 40
1.0
 40
1.0
 40
1.0
 40
1.0
 10
188.46069615256488
 20
719.9108510263106
 30
0.0
 10
220.5747961525649
 20
720.0971510263106
 30
0.0
 10
252.7517961525648
 20
719.9817510263106
 30
0.0
 10
284.856996152565
 20
720.4301510263106
 30
0.0
 10
284.856996152565
 20
720.4301510263106
 30
0.0
 10
292.2299961525648
 20
720.5331510263106
 30
0.0
 10
298.227396152565
 20
720.6825510263105
 30
0.0
 10
301.4278961525649
 20
728.4098510263105
 30
0.0
  0
SPLINE
  5
3D
330
17
100
AcDbEntity
  8
_home_sasha_proj_2025_eva_layout_dxf_samples_TOYOTA_COROLLA_VERSO_1_layer 2
 62
140
370
158
100
AcDbSpline
 70
24
 71
3
 72
8
 73
4
 74
0
 42
1e-09
 40
0.0
 40
0.0
 40
0.0
 40
0.0
 40
1.0
 40
1.0
 40
1.0
 40
1.0
 10
294.02959615256486
 20
720.9832510263105
 30
0.0
 10
294.02959615256486
 20
720.9832510263105
 30
0.0
 10
302.750896152565
 20
644.6458510263105
 30
0.0
 10
302.750896152565
 20
644.6458510263105
 30
0.0
  0
SPLINE
  5
3E
330
17
100
AcDbEntity
  8
_home_sasha_proj_2025_eva_layout_dxf_samples_TOYOTA_COROLLA_VERSO_1_layer 2
 62
140
370
158
100
AcDbSpline
 70
8
 71
3
 72
20
 73
16
 74
0
 42
1e-09
 40
0.0
 40
0.0
 40
0.0
 40
0.0
 40
0.2
 40
0.2
 40
0.2
 40
0.2
 40
0.4
 40
0.4
 40
0.4
 40
0.4
 40
0.6
 40
0.6
 40
0.6
 40
0.6
 40
1.0
 40
1.0
 40
1.0
 40
1.0
 10
264.58359615256495
 20
171.43375102631057
 30
0.0
 10
263.3989961525649
 20
196.13425102631058
 30
0.0
 10
262.1869961525649
 20
195.14375102631058
 30
0.0
 10
252.25249615256485
 20
217.66755102631058
 30
0.0
 10
252.25249615256485
 20
217.66755102631058
 30
0.0
 10
245.99789615256486
 20
231.84825102631058
 30
0.0
 10
239.890496152565
 20
246.1034510263106
 30
0.0
 10
233.75919615256498
 20
260.3383510263106
 30
0.0
 10
233.75919615256498
 20
260.3383510263106
 30
0.0
 10
217.98809615256482
 20
286.1440510263106
 30
0.0
 10
202.36609615256498
 20
313.09165102631056
 30
0.0
 10
186.02159615256483
 20
338.4110510263106
 30
0.0
 10
186.02159615256483
 20
338.4110510263106
 30
0.0
 10
183.20309615256485
 20
342.7772510263106
 30
0.0
 10
180.56619615256488
 20
346.25695102631056
 30
0.0
 10
177.28289615256494
 20
350.26325102631057
 30
0.0
  0
SPLINE
  5
3F
330
17
100
AcDbEntity
  8
_home_sasha_proj_2025_eva_layout_dxf_samples_TOYOTA_COROLLA_VERSO_1_layer 2
 62
140
370
158
100
AcDbSpline
 70
8
 71
3
 72
16
 73
12
 74
0
 42
1e-09
 40
0.0
 40
0.0
 40
0.0
 40
0.0
 40
0.25
 40
0.25
 40
0.25
 40
0.25
 40
0.5
 40
0.5
 40
0.5
 40
0.5
 40
1.0
 40
1.0
 40
1.0
 40
1.0
 10
698.3483961525649
 20
673.3993510263106
 30
0.0
 10
660.6410961525648
 20
676.9162510263105
 30
0.0
 10
622.951096152565
 20
680.4934510263106
 30
0.0
 10
585.251896152565
 20
684.0884510263106
 30
0.0
 10
585.251896152565
 20
684.0884510263106
 30
0.0
 10
574.7839961525649
 20
685.0866510263106
 30
0.0
 10
573.4019961525648
 20
681.3342510263105
 30
0.0
 10
566.537196152565
 20
673.6012510263106
 30
0.0
 10
566.537196152565
 20
673.6012510263106
 30
0.0
 10
561.6207961525649
 20
668.0631510263106
 30
0.0
 10
556.683196152565
 20
662.5426510263106
 30
0.0
 10
551.7525961525648
 20
657.0170510263106
 30
0.0
  0
SPLINE
  5
40
330
17
100
AcDbEntity
  8
_home_sasha_proj_2025_eva_layout_dxf_samples_TOYOTA_COROLLA_VERSO_1_layer 2
 62
140
370
158
100
AcDbSpline
 70
8
 71
3
 72
24
 73
20
 74
0
 42
1e-09
 40
0.0
 40
0.0
 40
0.0
 40
0.0
 40
0.1666666666666667
 40
0.1666666666666667
 40
0.1666666666666667
 40
0.1666666666666667
 40
0.3333333333333333
 40
0.3333333333333333
 40
0.3333333333333333
 40
0.3333333333333333
 40
0.5
 40
0.5
 40
0.5
 40
0.5
 40
0.6666666666666666
 40
0.6666666666666666
 40
0.6666666666666666
 40
0.6666666666666666
 40
1.0
 40
1.0
 40
1.0
 40
1.0
 10
579.439396152565
 20
684.1834510263105
 30
0.0
 10
580.9137961525648
 20
712.6393510263106
 30
0.0
 10
582.3881961525649
 20
741.0951510263105
 30
0.0
 10
583.862596152565
 20
769.5510510263106
 30
0.0
 10
583.862596152565
 20
769.5510510263106
 30
0.0
 10
583.862596152565
 20
769.5510510263106
 30
0.0
 10
584.2504961525649
 20
777.0394510263105
 30
0.0
 10
584.2504961525649
 20
777.0394510263105
 30
0.0
 10
584.2504961525649
 20
777.0394510263105
 30
0.0
 10
585.5995961525648
 20
803.1973510263106
 30
0.0
 10
586.3657961525648
 20
830.2678510263106
 30
0.0
 10
588.3630961525648
 20
856.2793510263106
 30
0.0
 10
588.3630961525648
 20
856.2793510263106
 30
0.0
 10
589.446596152565
 20
870.3910510263106
 30
0.0
 10
593.8086961525648
 20
887.9976510263106
 30
0.0
 10
596.5592961525649
 20
902.2914510263106
 30
0.0
 10
596.5592961525649
 20
902.2914510263106
 30
0.0
 10
597.3176961525648
 20
906.2325510263106
 30
0.0
 10
598.076096152565
 20
910.1737510263106
 30
0.0
 10
598.834496152565
 20
914.1148510263106
 30
0.0
  0
ELLIPSE
  5
41
330
17
100
AcDbEntity
  8
_home_sasha_proj_2025_eva_layout_dxf_samples_TOYOTA_COROLLA_VERSO_1_layer 2
 62
142
370
200
100
AcDbEllipse
 10
263.6790278729436
 20
194.78012237613814
 30
0.0
 11
0.0
 21
10.0
 31
0.0
 40
1.0
 41
0.0
 42
6.283185307179586
  0
ELLIPSE
  5
42
330
17
100
AcDbEntity
  8
_home_sasha_proj_2025_eva_layout_dxf_samples_TOYOTA_COROLLA_VERSO_1_layer 2
 62
142
370
200
100
AcDbEllipse
 10
512.4539278729437
 20
195.04452237613816
 30
0.0
 11
0.0
 21
10.0
 31
0.0
 40
1.0
 41
0.0
 42
6.283185307179586
  0
SPLINE
  5
43
330
17
100
AcDbEntity
  8
_home_sasha_proj_2025_eva_layout_dxf_samples_TOYOTA_COROLLA_VERSO_1_layer 3
 62
242
370
158
100
AcDbSpline
 70
11
 71
3
 72
176
 73
172
 74
0
 42
1e-09
 40
0.0
 40
0.0
 40
0.0
 40
0.0
 40
0.0227272727272727
 40
0.0227272727272727
 40
0.0227272727272727
 40
0.0227272727272727
 40
0.0454545454545455
 40
0.0454545454545455
 40
0.0454545454545455
 40
0.0454545454545455
 40
0.0681818181818182
 40
0.0681818181818182
 40
0.0681818181818182
 40
0.0681818181818182
 40
0.0909090909090909
 40
0.0909090909090909
 40
0.0909090909090909
 40
0.0909090909090909
 40
0.1136363636363636
 40
0.1136363636363636
 40
0.1136363636363636
 40
0.1136363636363636
 40
0.1363636363636364
 40
0.1363636363636364
 40
0.1363636363636364
 40
0.1363636363636364
 40
0.1590909090909091
 40
0.1590909090909091
 40
0.1590909090909091
 40
0.1590909090909091
 40
0.1818181818181818
 40
0.1818181818181818
 40
0.1818181818181818
 40
0.1818181818181818
 40
0.2045454545454546
 40
0.2045454545454546
 40
0.2045454545454546
 40
0.2045454545454546
 40
0.2272727272727273
 40
0.2272727272727273
 40
0.2272727272727273
 40
0.2272727272727273
 40
0.25
 40
0.25
 40
0.25
 40
0.25
 40
0.2727272727272727
 40
0.2727272727272727
 40
0.2727272727272727
 40
0.2727272727272727
 40
0.2954545454545455
 40
0.2954545454545455
 40
0.2954545454545455
 40
0.2954545454545455
 40
0.3181818181818182
 40
0.3181818181818182
 40
0.3181818181818182
 40
0.3181818181818182
 40
0.3409090909090909
 40
0.3409090909090909
 40
0.3409090909090909
 40
0.3409090909090909
 40
0.3636363636363636
 40
0.3636363636363636
 40
0.3636363636363636
 40
0.3636363636363636
 40
0.3863636363636364
 40
0.3863636363636364
 40
0.3863636363636364
 40
0.3863636363636364
 40
0.4090909090909091
 40
0.4090909090909091
 40
0.4090909090909091
 40
0.4090909090909091
 40
0.4318181818181818
 40
0.4318181818181818
 40
0.4318181818181818
 40
0.4318181818181818
 40
0.4545454545454545
 40
0.4545454545454545
 40
0.4545454545454545
 40
0.4545454545454545
 40
0.4772727272727273
 40
0.4772727272727273
 40
0.4772727272727273
 40
0.4772727272727273
 40
0.5
 40
0.5
 40
0.5
 40
0.5
 40
0.5227272727272727
 40
0.5227272727272727
 40
0.5227272727272727
 40
0.5227272727272727
 40
0.5454545454545454
 40
0.5454545454545454
 40
0.5454545454545454
 40
0.5454545454545454
 40
0.5681818181818182
 40
0.5681818181818182
 40
0.5681818181818182
 40
0.5681818181818182
 40
0.5909090909090909
 40
0.5909090909090909
 40
0.5909090909090909
 40
0.5909090909090909
 40
0.6136363636363636
 40
0.6136363636363636
 40
0.6136363636363636
 40
0.6136363636363636
 40
0.6363636363636364
 40
0.6363636363636364
 40
0.6363636363636364
 40
0.6363636363636364
 40
0.6590909090909091
 40
0.6590909090909091
 40
0.6590909090909091
 40
0.6590909090909091
 40
0.6818181818181818
 40
0.6818181818181818
 40
0.6818181818181818
 40
0.6818181818181818
 40
0.7045454545454546
 40
0.7045454545454546
 40
0.7045454545454546
 40
0.7045454545454546
 40
0.7272727272727273
 40
0.7272727272727273
 40
0.7272727272727273
 40
0.7272727272727273
 40
0.75
 40
0.75
 40
0.75
 40
0.75
 40
0.7727272727272727
 40
0.7727272727272727
 40
0.7727272727272727
 40
0.7727272727272727
 40
0.7954545454545454
 40
0.7954545454545454
 40
0.7954545454545454
 40
0.7954545454545454
 40
0.8181818181818182
 40
0.8181818181818182
 40
0.8181818181818182
 40
0.8181818181818182
 40
0.8409090909090909
 40
0.8409090909090909
 40
0.8409090909090909
 40
0.8409090909090909
 40
0.8636363636363636
 40
0.8636363636363636
 40
0.8636363636363636
 40
0.8636363636363636
 40
0.8863636363636364
 40
0.8863636363636364
 40
0.8863636363636364
 40
0.8863636363636364
 40
0.9090909090909091
 40
0.9090909090909091
 40
0.9090909090909091
 40
0.9090909090909091
 40
0.9318181818181818
 40
0.9318181818181818
 40
0.9318181818181818
 40
0.9318181818181818
 40
0.9545454545454546
 40
0.9545454545454546
 40
0.9545454545454546
 40
0.9545454545454546
 40
1.0
 40
1.0
 40
1.0
 40
1.0
 10
640.0111961525649
 20
135.23375102631059
 30
0.0
 10
649.2616961525648
 20
137.98265102631058
 30
0.0
 10
647.363496152565
 20
151.36935102631057
 30
0.0
 10
646.651496152565
 20
158.73335102631057
 30
0.0
 10
646.651496152565
 20
158.73335102631057
 30
0.0
 10
644.9310961525648
 20
176.52465102631058
 30
0.0
 10
644.385096152565
 20
177.98325102631057
 30
0.0
 10
660.6129961525648
 20
183.81335102631058
 30
0.0
 10
660.6129961525648
 20
183.81335102631058
 30
0.0
 10
683.6372961525649
 20
192.07755102631057
 30
0.0
 10
662.8988961525649
 20
204.66435102631058
 30
0.0
 10
706.041696152565
 20
201.79845102631057
 30
0.0
 10
706.041696152565
 20
201.79845102631057
 30
0.0
 10
721.6453961525649
 20
200.7509510263106
 30
0.0
 10
726.4876961525649
 20
196.5814510263106
 30
0.0
 10
728.5087961525649
 20
214.19755102631058
 30
0.0
 10
728.5087961525649
 20
214.19755102631058
 30
0.0
 10
730.5111961525649
 20
250.98565102631056
 30
0.0
 10
731.3847961525648
 20
288.16115102631056
 30
0.0
 10
732.9323961525649
 20
325.0145510263106
 30
0.0
 10
732.9323961525649
 20
325.0145510263106
 30
0.0
 10
736.0684961525649
 20
399.5426510263106
 30
0.0
 10
738.4290961525649
 20
474.09935102631056
 30
0.0
 10
741.9463961525648
 20
548.6118510263105
 30
0.0
 10
741.9463961525648
 20
548.6118510263105
 30
0.0
 10
742.8400961525649
 20
567.4951510263106
 30
0.0
 10
746.847196152565
 20
578.4506510263105
 30
0.0
 10
736.4282961525648
 20
595.6242510263106
 30
0.0
 10
736.4282961525648
 20
595.6242510263106
 30
0.0
 10
721.701296152565
 20
618.9396510263106
 30
0.0
 10
714.6844961525649
 20
620.7278510263105
 30
0.0
 10
705.3472961525649
 20
649.6033510263106
 30
0.0
 10
705.3472961525649
 20
649.6033510263106
 30
0.0
 10
691.3710961525649
 20
696.8434510263106
 30
0.0
 10
676.7697961525648
 20
745.1654510263106
 30
0.0
 10
675.7671961525648
 20
794.7661510263106
 30
0.0
 10
675.7671961525648
 20
794.7661510263106
 30
0.0
 10
675.855996152565
 20
818.4037510263106
 30
0.0
 10
675.0233961525648
 20
842.7182510263106
 30
0.0
 10
675.909696152565
 20
866.2060510263105
 30
0.0
 10
675.909696152565
 20
866.2060510263105
 30
0.0
 10
676.710396152565
 20
881.2159510263106
 30
0.0
 10
683.231896152565
 20
888.9058510263105
 30
0.0
 10
684.5403961525649
 20
900.5640510263106
 30
0.0
 10
684.5403961525649
 20
900.5640510263106
 30
0.0
 10
684.9120961525648
 20
906.0961510263106
 30
0.0
 10
681.271896152565
 20
909.8053510263106
 30
0.0
 10
676.0274961525649
 20
912.3473510263105
 30
0.0
 10
676.0274961525649
 20
912.3473510263105
 30
0.0
 10
667.3829961525648
 20
916.5375510263106
 30
0.0
 10
630.811596152565
 20
921.6024510263106
 30
0.0
 10
620.3455961525649
 20
921.3739510263106
 30
0.0
 10
620.3455961525649
 20
921.3739510263106
 30
0.0
 10
610.1027961525649
 20
921.1503510263105
 30
0.0
 10
600.5927961525649
 20
918.1571510263105
 30
0.0
 10
591.752796152565
 20
907.3051510263106
 30
0.0
 10
591.752796152565
 20
907.3051510263106
 30
0.0
 10
574.7515961525648
 20
886.4343510263105
 30
0.0
 10
559.2722961525649
 20
863.0655510263106
 30
0.0
 10
543.1707961525649
 20
841.3335510263106
 30
0.0
 10
543.1707961525649
 20
841.3335510263106
 30
0.0
 10
538.4106961525649
 20
834.9498510263106
 30
0.0
 10
528.153996152565
 20
818.7531510263105
 30
0.0
 10
519.892496152565
 20
818.9794510263106
 30
0.0
 10
519.892496152565
 20
818.9794510263106
 30
0.0
 10
511.1272961525649
 20
819.2194510263106
 30
0.0
 10
511.63349615256493
 20
832.9702510263106
 30
0.0
 10
490.30959615256484
 20
834.9289510263105
 30
0.0
 10
490.30959615256484
 20
834.9289510263105
 30
0.0
 10
464.36839615256486
 20
835.2606510263106
 30
0.0
 10
437.73079615256484
 20
835.0106510263106
 30
0.0
 10
411.77869615256486
 20
834.5531510263106
 30
0.0
 10
411.77869615256486
 20
834.5531510263106
 30
0.0
 10
399.806296152565
 20
834.3300510263106
 30
0.0
 10
390.078796152565
 20
832.6493510263106
 30
0.0
 10
388.3667961525648
 20
847.2684510263106
 30
0.0
 10
388.3667961525648
 20
847.2684510263106
 30
0.0
 10
385.8427961525649
 20
868.8221510263106
 30
0.0
 10
397.625896152565
 20
891.9083510263106
 30
0.0
 10
364.5270961525648
 20
892.7867510263105
 30
0.0
 10
364.5270961525648
 20
892.7867510263105
 30
0.0
 10
336.31459615256495
 20
891.6092510263106
 30
0.0
 10
307.396896152565
 20
890.9838510263106
 30
0.0
 10
279.32049615256483
 20
888.9376510263106
 30
0.0
 10
279.32049615256483
 20
888.9376510263106
 30
0.0
 10
258.0503961525649
 20
887.1843510263105
 30
0.0
 10
250.30489615256488
 20
885.1682510263106
 30
0.0
 10
252.3237961525649
 20
862.4968510263105
 30
0.0
 10
252.3237961525649
 20
862.4968510263105
 30
0.0
 10
255.76509615256487
 20
830.3935510263105
 30
0.0
 10
262.29909615256497
 20
797.2169510263105
 30
0.0
 10
267.37439615256494
 20
765.1946510263106
 30
0.0
 10
267.37439615256494
 20
765.1946510263106
 30
0.0
 10
268.5365961525649
 20
757.6242510263106
 30
0.0
 10
270.830796152565
 20
750.6819510263106
 30
0.0
 10
263.5719961525649
 20
745.7802510263106
 30
0.0
 10
263.5719961525649
 20
745.7802510263106
 30
0.0
 10
254.147696152565
 20
741.2683510263106
 30
0.0
 10
200.55279615256495
 20
738.7536510263105
 30
0.0
 10
190.62799615256495
 20
741.6928510263106
 30
0.0
 10
190.62799615256495
 20
741.6928510263106
 30
0.0
 10
184.52659615256493
 20
743.4997510263106
 30
0.0
 10
179.79049615256486
 20
759.5268510263106
 30
0.0
 10
177.96529615256486
 20
765.0982510263105
 30
0.0
 10
177.96529615256486
 20
765.0982510263105
 30
0.0
 10
171.6806961525649
 20
784.2823510263106
 30
0.0
 10
166.17139615256485
 20
797.4165510263106
 30
0.0
 10
155.39479615256494
 20
814.6853510263106
 30
0.0
 10
155.39479615256494
 20
814.6853510263106
 30
0.0
 10
150.48349615256495
 20
822.4788510263106
 30
0.0
 10
134.01819615256488
 20
845.3187510263106
 30
0.0
 10
124.95829615256491
 20
846.9666510263106
 30
0.0
 10
124.95829615256491
 20
846.9666510263106
 30
0.0
 10
114.35569615256486
 20
848.8951510263106
 30
0.0
 10
114.17689615256495
 20
835.9879510263106
 30
0.0
 10
114.09899615256495
 20
828.8771510263106
 30
0.0
 10
114.09899615256495
 20
828.8771510263106
 30
0.0
 10
113.6299961525649
 20
786.0988510263106
 30
0.0
 10
114.43639615256495
 20
743.3453510263106
 30
0.0
 10
113.88419615256487
 20
700.5371510263105
 30
0.0
 10
113.88419615256487
 20
700.5371510263105
 30
0.0
 10
113.79309615256489
 20
693.4703510263106
 30
0.0
 10
112.04819615256486
 20
680.0686510263106
 30
0.0
 10
117.01029615256493
 20
675.0731510263106
 30
0.0
 10
117.01029615256493
 20
675.0731510263106
 30
0.0
 10
125.83059615256491
 20
666.1935510263106
 30
0.0
 10
164.85909615256492
 20
660.4806510263106
 30
0.0
 10
173.05269615256486
 20
648.3819510263106
 30
0.0
 10
173.05269615256486
 20
648.3819510263106
 30
0.0
 10
174.93909615256496
 20
645.5965510263106
 30
0.0
 10
175.19829615256492
 20
642.9990510263106
 30
0.0
 10
173.4478961525649
 20
641.4712510263106
 30
0.0
 10
173.4478961525649
 20
641.4712510263106
 30
0.0
 10
166.94829615256492
 20
635.7979510263106
 30
0.0
 10
139.22949615256493
 20
637.6186510263105
 30
0.0
 10
135.0995961525649
 20
637.6083510263106
 30
0.0
 10
135.0995961525649
 20
637.6083510263106
 30
0.0
 10
117.4116961525649
 20
637.5640510263106
 30
0.0
 10
111.07389615256488
 20
641.0174510263106
 30
0.0
 10
110.40959615256486
 20
621.1228510263106
 30
0.0
 10
110.40959615256486
 20
621.1228510263106
 30
0.0
 10
108.44549615256494
 20
505.51575102631057
 30
0.0
 10
106.4433961525649
 20
390.04475102631056
 30
0.0
 10
106.5538961525649
 20
274.42225102631056
 30
0.0
 10
106.5538961525649
 20
274.42225102631056
 30
0.0
 10
106.5656961525649
 20
264.4144510263106
 30
0.0
 10
106.5624961525649
 20
254.41495102631058
 30
0.0
 10
106.51709615256493
 20
244.40725102631058
 30
0.0
 10
106.51709615256493
 20
244.40725102631058
 30
0.0
 10
106.46729615256493
 20
233.42195102631058
 30
0.0
 10
111.94859615256496
 20
179.4975510263106
 30
0.0
 10
117.8088961525649
 20
171.4529510263106
 30
0.0
 10
117.8088961525649
 20
171.4529510263106
 30
0.0
 10
120.28099615256485
 20
168.0593510263106
 30
0.0
 10
124.31369615256494
 20
170.48075102631057
 30
0.0
 10
129.22079615256496
 20
170.68975102631057
 30
0.0
 10
129.22079615256496
 20
170.68975102631057
 30
0.0
 10
146.11839615256486
 20
171.40965102631057
 30
0.0
 10
147.3736961525649
 20
174.3493510263106
 30
0.0
 10
163.23029615256496
 20
165.38755102631058
 30
0.0
 10
163.23029615256496
 20
165.38755102631058
 30
0.0
 10
189.63749615256484
 20
149.59795102631057
 30
0.0
 10
194.9265961525648
 20
140.85345102631058
 30
0.0
 10
227.72139615256492
 20
136.3186510263106
 30
0.0
 10
227.72139615256492
 20
136.3186510263106
 30
0.0
 10
246.19769615256496
 20
134.01835102631057
 30
0.0
 10
268.0333961525648
 20
131.3597510263106
 30
0.0
 10
286.4940961525649
 20
131.15035102631057
 30
0.0
 10
286.4940961525649
 20
131.15035102631057
 30
0.0
 10
304.954796152565
 20
130.9409510263106
 30
0.0
 10
640.0111961525649
 20
135.23375102631059
 30
0.0
 10
640.0111961525649
 20
135.23375102631059
 30
0.0
  0
SPLINE
  5
44
330
17
100
AcDbEntity
  8
_home_sasha_proj_2025_eva_layout_dxf_samples_TOYOTA_COROLLA_VERSO_1_layer 3
 62
250
370
9
100
AcDbSpline
 70
8
 71
3
 72
44
 73
40
 74
0
 42
1e-09
 40
0.0
 40
0.0
 40
0.0
 40
0.0
 40
0.0909090909090909
 40
0.0909090909090909
 40
0.0909090909090909
 40
0.0909090909090909
 40
0.1818181818181818
 40
0.1818181818181818
 40
0.1818181818181818
 40
0.1818181818181818
 40
0.2727272727272727
 40
0.2727272727272727
 40
0.2727272727272727
 40
0.2727272727272727
 40
0.3636363636363636
 40
0.3636363636363636
 40
0.3636363636363636
 40
0.3636363636363636
 40
0.4545454545454545
 40
0.4545454545454545
 40
0.4545454545454545
 40
0.4545454545454545
 40
0.5454545454545454
 40
0.5454545454545454
 40
0.5454545454545454
 40
0.5454545454545454
 40
0.6363636363636364
 40
0.6363636363636364
 40
0.6363636363636364
 40
0.6363636363636364
 40
0.7272727272727273
 40
0.7272727272727273
 40
0.7272727272727273
 40
0.7272727272727273
 40
0.8181818181818182
 40
0.8181818181818182
 40
0.8181818181818182
 40
0.8181818181818182
 40
1.0
 40
1.0
 40
1.0
 40
1.0
 10
236.264596152565
 20
677.9136510263106
 30
0.0
 10
239.523596152565
 20
677.9140510263106
 30
0.0
 10
242.78299615256492
 20
677.9140510263106
 30
0.0
 10
246.042696152565
 20
677.9136510263106
 30
0.0
 10
246.042696152565
 20
677.9136510263106
 30
0.0
 10
247.81199615256492
 20
677.8981510263105
 30
0.0
 10
249.5348961525649
 20
676.3431510263106
 30
0.0
 10
249.5348961525649
 20
674.5073510263106
 30
0.0
 10
249.5348961525649
 20
674.5073510263106
 30
0.0
 10
249.53459615256497
 20
673.4965510263106
 30
0.0
 10
249.53459615256497
 20
670.7652510263106
 30
0.0
 10
249.5348961525649
 20
669.7541510263106
 30
0.0
 10
249.5348961525649
 20
669.7541510263106
 30
0.0
 10
249.550796152565
 20
668.0900510263106
 30
0.0
 10
248.169496152565
 20
666.2862510263105
 30
0.0
 10
246.0900961525649
 20
666.3014510263106
 30
0.0
 10
246.0900961525649
 20
666.3014510263106
 30
0.0
 10
242.83009615256492
 20
666.3017510263106
 30
0.0
 10
239.57039615256485
 20
666.3017510263106
 30
0.0
 10
236.31109615256491
 20
666.3014510263106
 30
0.0
 10
236.31109615256491
 20
666.3014510263106
 30
0.0
 10
236.31109615256491
 20
673.7518510263105
 30
0.0
 10
236.31109615256491
 20
681.2019510263106
 30
0.0
 10
236.31109615256491
 20
688.6517510263105
 30
0.0
 10
236.31109615256491
 20
688.6517510263105
 30
0.0
 10
238.43719615256487
 20
688.6517510263105
 30
0.0
 10
240.56359615256497
 20
688.6517510263105
 30
0.0
 10
242.69009615256482
 20
688.6517510263105
 30
0.0
 10
242.69009615256482
 20
688.6517510263105
 30
0.0
 10
244.1955961525648
 20
688.6675510263105
 30
0.0
 10
246.07359615256496
 20
686.9563510263106
 30
0.0
 10
246.08949615256483
 20
685.1986510263106
 30
0.0
 10
246.08949615256483
 20
685.1986510263106
 30
0.0
 10
246.08909615256493
 20
683.3480510263106
 30
0.0
 10
246.08909615256493
 20
683.2173510263106
 30
0.0
 10
246.08949615256483
 20
681.3664510263105
 30
0.0
 10
246.08949615256483
 20
681.3664510263105
 30
0.0
 10
246.10489615256483
 20
679.5158510263105
 30
0.0
 10
244.44399615256498
 20
677.8981510263105
 30
0.0
 10
242.6435961525649
 20
677.9136510263106
 30
0.0
  0
SPLINE
  5
45
330
17
100
AcDbEntity
  8
_home_sasha_proj_2025_eva_layout_dxf_samples_TOYOTA_COROLLA_VERSO_1_layer 3
 62
250
370
9
100
AcDbSpline
 70
8
 71
3
 72
44
 73
40
 74
0
 42
1e-09
 40
0.0
 40
0.0
 40
0.0
 40
0.0
 40
0.0909090909090909
 40
0.0909090909090909
 40
0.0909090909090909
 40
0.0909090909090909
 40
0.1818181818181818
 40
0.1818181818181818
 40
0.1818181818181818
 40
0.1818181818181818
 40
0.2727272727272727
 40
0.2727272727272727
 40
0.2727272727272727
 40
0.2727272727272727
 40
0.3636363636363636
 40
0.3636363636363636
 40
0.3636363636363636
 40
0.3636363636363636
 40
0.4545454545454545
 40
0.4545454545454545
 40
0.4545454545454545
 40
0.4545454545454545
 40
0.5454545454545454
 40
0.5454545454545454
 40
0.5454545454545454
 40
0.5454545454545454
 40
0.6363636363636364
 40
0.6363636363636364
 40
0.6363636363636364
 40
0.6363636363636364
 40
0.7272727272727273
 40
0.7272727272727273
 40
0.7272727272727273
 40
0.7272727272727273
 40
0.8181818181818182
 40
0.8181818181818182
 40
0.8181818181818182
 40
0.8181818181818182
 40
1.0
 40
1.0
 40
1.0
 40
1.0
 10
609.882496152565
 20
667.2676510263105
 30
0.0
 10
613.141496152565
 20
667.2680510263106
 30
0.0
 10
616.4008961525649
 20
667.2680510263106
 30
0.0
 10
619.660596152565
 20
667.2676510263105
 30
0.0
 10
619.660596152565
 20
667.2676510263105
 30
0.0
 10
621.4298961525649
 20
667.2521510263106
 30
0.0
 10
623.1527961525649
 20
665.6971510263106
 30
0.0
 10
623.1527961525649
 20
663.8613510263106
 30
0.0
 10
623.1527961525649
 20
663.8613510263106
 30
0.0
 10
623.1524961525649
 20
662.8505510263105
 30
0.0
 10
623.1524961525649
 20
660.1192510263106
 30
0.0
 10
623.1527961525649
 20
659.1081510263106
 30
0.0
 10
623.1527961525649
 20
659.1081510263106
 30
0.0
 10
623.168696152565
 20
657.4440510263106
 30
0.0
 10
621.787396152565
 20
655.6402510263106
 30
0.0
 10
619.7079961525649
 20
655.6554510263106
 30
0.0
 10
619.7079961525649
 20
655.6554510263106
 30
0.0
 10
616.4479961525649
 20
655.6557510263106
 30
0.0
 10
613.1882961525648
 20
655.6557510263106
 30
0.0
 10
609.9289961525649
 20
655.6554510263106
 30
0.0
 10
609.9289961525649
 20
655.6554510263106
 30
0.0
 10
609.9289961525649
 20
663.1058510263106
 30
0.0
 10
609.9289961525649
 20
670.5559510263106
 30
0.0
 10
609.9289961525649
 20
678.0057510263106
 30
0.0
 10
609.9289961525649
 20
678.0057510263106
 30
0.0
 10
612.0550961525648
 20
678.0057510263106
 30
0.0
 10
614.1814961525649
 20
678.0057510263106
 30
0.0
 10
616.307996152565
 20
678.0057510263106
 30
0.0
 10
616.307996152565
 20
678.0057510263106
 30
0.0
 10
617.813496152565
 20
678.0215510263106
 30
0.0
 10
619.6914961525649
 20
676.3103510263106
 30
0.0
 10
619.7073961525648
 20
674.5526510263106
 30
0.0
 10
619.7073961525648
 20
674.5526510263106
 30
0.0
 10
619.7069961525649
 20
672.7020510263105
 30
0.0
 10
619.7069961525649
 20
672.5713510263106
 30
0.0
 10
619.7073961525648
 20
670.7204510263106
 30
0.0
 10
619.7073961525648
 20
670.7204510263106
 30
0.0
 10
619.7227961525648
 20
668.8698510263106
 30
0.0
 10
618.0618961525649
 20
667.2521510263106
 30
0.0
 10
616.2614961525649
 20
667.2676510263105
 30
0.0
  0
SPLINE
  5
46
330
17
100
AcDbEntity
  8
_home_sasha_proj_2025_eva_layout_dxf_samples_TOYOTA_COROLLA_VERSO_1_layer 3
 62
250
370
9
100
AcDbSpline
 70
8
 71
3
 72
44
 73
40
 74
0
 42
1e-09
 40
0.0
 40
0.0
 40
0.0
 40
0.0
 40
0.0909090909090909
 40
0.0909090909090909
 40
0.0909090909090909
 40
0.0909090909090909
 40
0.1818181818181818
 40
0.1818181818181818
 40
0.1818181818181818
 40
0.1818181818181818
 40
0.2727272727272727
 40
0.2727272727272727
 40
0.2727272727272727
 40
0.2727272727272727
 40
0.3636363636363636
 40
0.3636363636363636
 40
0.3636363636363636
 40
0.3636363636363636
 40
0.4545454545454545
 40
0.4545454545454545
 40
0.4545454545454545
 40
0.4545454545454545
 40
0.5454545454545454
 40
0.5454545454545454
 40
0.5454545454545454
 40
0.5454545454545454
 40
0.6363636363636364
 40
0.6363636363636364
 40
0.6363636363636364
 40
0.6363636363636364
 40
0.7272727272727273
 40
0.7272727272727273
 40
0.7272727272727273
 40
0.7272727272727273
 40
0.8181818181818182
 40
0.8181818181818182
 40
0.8181818181818182
 40
0.8181818181818182
 40
1.0
 40
1.0
 40
1.0
 40
1.0
 10
190.50959615256488
 20
230.7971510263106
 30
0.0
 10
193.7685961525649
 20
230.79755102631057
 30
0.0
 10
197.0279961525648
 20
230.79755102631057
 30
0.0
 10
200.28769615256488
 20
230.7971510263106
 30
0.0
 10
200.28769615256488
 20
230.7971510263106
 30
0.0
 10
202.0569961525648
 20
230.78165102631058
 30
0.0
 10
203.77989615256502
 20
229.22665102631058
 30
0.0
 10
203.77989615256502
 20
227.39085102631057
 30
0.0
 10
203.77989615256502
 20
227.39085102631057
 30
0.0
 10
203.77959615256486
 20
226.38005102631058
 30
0.0
 10
203.77959615256486
 20
223.64875102631058
 30
0.0
 10
203.77989615256502
 20
222.63765102631058
 30
0.0
 10
203.77989615256502
 20
222.63765102631058
 30
0.0
 10
203.7957961525649
 20
220.9735510263106
 30
0.0
 10
202.41449615256488
 20
219.1697510263106
 30
0.0
 10
200.3350961525648
 20
219.18495102631059
 30
0.0
 10
200.3350961525648
 20
219.18495102631059
 30
0.0
 10
197.0750961525648
 20
219.1852510263106
 30
0.0
 10
193.81539615256497
 20
219.1852510263106
 30
0.0
 10
190.5560961525648
 20
219.18495102631059
 30
0.0
 10
190.5560961525648
 20
219.18495102631059
 30
0.0
 10
190.5560961525648
 20
226.6353510263106
 30
0.0
 10
190.5560961525648
 20
234.08545102631058
 30
0.0
 10
190.5560961525648
 20
241.53525102631056
 30
0.0
 10
190.5560961525648
 20
241.53525102631056
 30
0.0
 10
192.68219615256498
 20
241.53525102631056
 30
0.0
 10
194.80859615256486
 20
241.53525102631056
 30
0.0
 10
196.93509615256494
 20
241.53525102631056
 30
0.0
 10
196.93509615256494
 20
241.53525102631056
 30
0.0
 10
198.44059615256492
 20
241.55105102631057
 30
0.0
 10
200.31859615256485
 20
239.83985102631058
 30
0.0
 10
200.33449615256495
 20
238.08215102631058
 30
0.0
 10
200.33449615256495
 20
238.08215102631058
 30
0.0
 10
200.33409615256483
 20
236.23155102631057
 30
0.0
 10
200.33409615256483
 20
236.10085102631058
 30
0.0
 10
200.33449615256495
 20
234.24995102631058
 30
0.0
 10
200.33449615256495
 20
234.24995102631058
 30
0.0
 10
200.34989615256495
 20
232.39935102631057
 30
0.0
 10
198.68899615256487
 20
230.78165102631058
 30
0.0
 10
196.88859615256501
 20
230.7971510263106
 30
0.0
  0
SPLINE
  5
47
330
17
100
AcDbEntity
  8
_home_sasha_proj_2025_eva_layout_dxf_samples_TOYOTA_COROLLA_VERSO_1_layer 3
 62
250
370
9
100
AcDbSpline
 70
8
 71
3
 72
12
 73
8
 74
0
 42
1e-09
 40
0.0
 40
0.0
 40
0.0
 40
0.0
 40
0.3333333333333333
 40
0.3333333333333333
 40
0.3333333333333333
 40
0.3333333333333333
 40
1.0
 40
1.0
 40
1.0
 40
1.0
 10
299.61299615256485
 20
266.8435510263106
 30
0.0
 10
299.61299615256485
 20
266.8435510263106
 30
0.0
 10
286.6638961525648
 20
266.8435510263106
 30
0.0
 10
286.6638961525648
 20
266.8435510263106
 30
0.0
 10
286.6638961525648
 20
266.8435510263106
 30
0.0
 10
286.6638961525648
 20
266.8435510263106
 30
0.0
 10
286.6638961525648
 20
291.7971510263106
 30
0.0
 10
286.6638961525648
 20
291.7971510263106
 30
0.0
  0
SPLINE
  5
48
330
17
100
AcDbEntity
  8
_home_sasha_proj_2025_eva_layout_dxf_samples_TOYOTA_COROLLA_VERSO_1_layer 3
 62
250
370
9
100
AcDbSpline
 70
24
 71
3
 72
8
 73
4
 74
0
 42
1e-09
 40
0.0
 40
0.0
 40
0.0
 40
0.0
 40
1.0
 40
1.0
 40
1.0
 40
1.0
 10
421.78469615256495
 20
338.5654510263106
 30
0.0
 10
421.78469615256495
 20
338.5654510263106
 30
0.0
 10
421.78469615256495
 20
314.58755102631056
 30
0.0
 10
421.78469615256495
 20
314.58755102631056
 30
0.0
  0
SPLINE
  5
49
330
17
100
AcDbEntity
  8
_home_sasha_proj_2025_eva_layout_dxf_samples_TOYOTA_COROLLA_VERSO_1_layer 3
 62
250
370
9
100
AcDbSpline
 70
24
 71
3
 72
8
 73
4
 74
0
 42
1e-09
 40
0.0
 40
0.0
 40
0.0
 40
0.0
 40
1.0
 40
1.0
 40
1.0
 40
1.0
 10
409.7957961525649
 20
326.57645102631056
 30
0.0
 10
409.7957961525649
 20
326.57645102631056
 30
0.0
 10
433.773696152565
 20
326.57645102631056
 30
0.0
 10
433.773696152565
 20
326.57645102631056
 30
0.0
  0
SPLINE
  5
4A
330
17
100
AcDbEntity
  8
_home_sasha_proj_2025_eva_layout_dxf_samples_TOYOTA_COROLLA_VERSO_1_layer 3
 62
250
370
9
100
AcDbSpline
 70
8
 71
3
 72
32
 73
28
 74
0
 42
1e-09
 40
0.0
 40
0.0
 40
0.0
 40
0.0
 40
0.125
 40
0.125
 40
0.125
 40
0.125
 40
0.25
 40
0.25
 40
0.25
 40
0.25
 40
0.375
 40
0.375
 40
0.375
 40
0.375
 40
0.5
 40
0.5
 40
0.5
 40
0.5
 40
0.625
 40
0.625
 40
0.625
 40
0.625
 40
0.75
 40
0.75
 40
0.75
 40
0.75
 40
1.0
 40
1.0
 40
1.0
 40
1.0
 10
389.2802961525649
 20
200.85785102631058
 30
0.0
 10
389.2802961525649
 20
200.85785102631058
 30
0.0
 10
389.2802961525649
 20
225.81135102631058
 30
0.0
 10
389.2802961525649
 20
225.81135102631058
 30
0.0
 10
389.2802961525649
 20
225.81135102631058
 30
0.0
 10
392.875096152565
 20
225.81135102631058
 30
0.0
 10
396.4705961525649
 20
225.81135102631058
 30
0.0
 10
400.0657961525649
 20
225.81135102631058
 30
0.0
 10
400.0657961525649
 20
225.81135102631058
 30
0.0
 10
402.39109615256484
 20
225.77365102631057
 30
0.0
 10
403.948396152565
 20
224.2836510263106
 30
0.0
 10
403.9442961525649
 20
221.9172510263106
 30
0.0
 10
403.9442961525649
 20
221.9172510263106
 30
0.0
 10
403.943896152565
 20
219.88175102631058
 30
0.0
 10
403.943896152565
 20
216.82235102631057
 30
0.0
 10
403.9442961525649
 20
214.78635102631057
 30
0.0
 10
403.9442961525649
 20
214.78635102631057
 30
0.0
 10
403.93779615256494
 20
212.91085102631058
 30
0.0
 10
402.1254961525649
 20
210.96905102631058
 30
0.0
 10
400.115996152565
 20
210.94995102631057
 30
0.0
 10
400.115996152565
 20
210.94995102631057
 30
0.0
 10
400.115996152565
 20
210.94995102631057
 30
0.0
 10
389.2802961525649
 20
210.94995102631057
 30
0.0
 10
389.2802961525649
 20
210.94995102631057
 30
0.0
 10
389.2802961525649
 20
210.94995102631057
 30
0.0
 10
389.2802961525649
 20
210.94995102631057
 30
0.0
 10
403.93499615256496
 20
200.85785102631058
 30
0.0
 10
403.93499615256496
 20
200.85785102631058
 30
0.0
  0
SPLINE
  5
4B
330
17
100
AcDbEntity
  8
_home_sasha_proj_2025_eva_layout_dxf_samples_TOYOTA_COROLLA_VERSO_1_layer 3
 62
250
370
9
100
AcDbSpline
 70
8
 71
3
 72
32
 73
28
 74
0
 42
1e-09
 40
0.0
 40
0.0
 40
0.0
 40
0.0
 40
0.125
 40
0.125
 40
0.125
 40
0.125
 40
0.25
 40
0.25
 40
0.25
 40
0.25
 40
0.375
 40
0.375
 40
0.375
 40
0.375
 40
0.5
 40
0.5
 40
0.5
 40
0.5
 40
0.625
 40
0.625
 40
0.625
 40
0.625
 40
0.75
 40
0.75
 40
0.75
 40
0.75
 40
1.0
 40
1.0
 40
1.0
 40
1.0
 10
384.035396152565
 20
204.6755510263106
 30
0.0
 10
383.89559615256485
 20
202.3521510263106
 30
0.0
 10
382.218396152565
 20
200.8725510263106
 30
0.0
 10
380.070696152565
 20
200.86175102631057
 30
0.0
 10
380.070696152565
 20
200.86175102631057
 30
0.0
 10
377.7387961525649
 20
200.86215102631058
 30
0.0
 10
375.40689615256497
 20
200.86215102631058
 30
0.0
 10
373.07539615256496
 20
200.86175102631057
 30
0.0
 10
373.07539615256496
 20
200.86175102631057
 30
0.0
 10
371.150396152565
 20
200.75635102631057
 30
0.0
 10
369.1782961525648
 20
202.64085102631057
 30
0.0
 10
369.18949615256497
 20
204.65815102631058
 30
0.0
 10
369.18949615256497
 20
204.65815102631058
 30
0.0
 10
369.18989615256487
 20
210.4282510263106
 30
0.0
 10
369.18989615256487
 20
216.1979510263106
 30
0.0
 10
369.18949615256497
 20
221.96725102631058
 30
0.0
 10
369.18949615256497
 20
221.96725102631058
 30
0.0
 10
369.1936961525648
 20
224.1053510263106
 30
0.0
 10
370.940396152565
 20
225.8245510263106
 30
0.0
 10
373.0927961525649
 20
225.8110510263106
 30
0.0
 10
373.0927961525649
 20
225.8110510263106
 30
0.0
 10
375.418496152565
 20
225.8110510263106
 30
0.0
 10
377.744596152565
 20
225.8110510263106
 30
0.0
 10
380.070696152565
 20
225.8110510263106
 30
0.0
 10
380.070696152565
 20
225.8110510263106
 30
0.0
 10
382.017296152565
 20
225.84655102631058
 30
0.0
 10
384.0086961525649
 20
224.35505102631058
 30
0.0
 10
384.035396152565
 20
221.91745102631057
 30
0.0
  0
SPLINE
  5
4C
330
17
100
AcDbEntity
  8
_home_sasha_proj_2025_eva_layout_dxf_samples_TOYOTA_COROLLA_VERSO_1_layer 3
 62
250
370
9
100
AcDbSpline
 70
8
 71
3
 72
12
 73
8
 74
0
 42
1e-09
 40
0.0
 40
0.0
 40
0.0
 40
0.0
 40
0.3333333333333333
 40
0.3333333333333333
 40
0.3333333333333333
 40
0.3333333333333333
 40
1.0
 40
1.0
 40
1.0
 40
1.0
 10
423.0868961525648
 20
200.85775102631058
 30
0.0
 10
423.0868961525648
 20
200.85775102631058
 30
0.0
 10
410.137796152565
 20
200.85775102631058
 30
0.0
 10
410.137796152565
 20
200.85775102631058
 30
0.0
 10
410.137796152565
 20
200.85775102631058
 30
0.0
 10
410.137796152565
 20
200.85775102631058
 30
0.0
 10
410.137796152565
 20
225.81135102631058
 30
0.0
 10
410.137796152565
 20
225.81135102631058
 30
0.0
  0
SPLINE
  5
4D
330
17
100
AcDbEntity
  8
_home_sasha_proj_2025_eva_layout_dxf_samples_TOYOTA_COROLLA_VERSO_1_layer 3
 62
250
370
9
100
AcDbSpline
 70
24
 71
3
 72
8
 73
4
 74
0
 42
1e-09
 40
0.0
 40
0.0
 40
0.0
 40
0.0
 40
1.0
 40
1.0
 40
1.0
 40
1.0
 10
453.9342961525649
 20
225.81135102631058
 30
0.0
 10
453.9342961525649
 20
225.81135102631058
 30
0.0
 10
446.612496152565
 20
200.85775102631058
 30
0.0
 10
446.612496152565
 20
200.85775102631058
 30
0.0
  0
SPLINE
  5
4E
330
17
100
AcDbEntity
  8
_home_sasha_proj_2025_eva_layout_dxf_samples_TOYOTA_COROLLA_VERSO_1_layer 3
 62
250
370
9
100
AcDbSpline
 70
24
 71
3
 72
8
 73
4
 74
0
 42
1e-09
 40
0.0
 40
0.0
 40
0.0
 40
0.0
 40
1.0
 40
1.0
 40
1.0
 40
1.0
 10
446.612396152565
 20
200.85775102631058
 30
0.0
 10
446.612396152565
 20
200.85775102631058
 30
0.0
 10
439.29059615256483
 20
225.81135102631058
 30
0.0
 10
439.29059615256483
 20
225.81135102631058
 30
0.0
  0
SPLINE
  5
4F
330
17
100
AcDbEntity
  8
_home_sasha_proj_2025_eva_layout_dxf_samples_TOYOTA_COROLLA_VERSO_1_layer 3
 62
250
370
9
100
AcDbSpline
 70
8
 71
3
 72
32
 73
28
 74
0
 42
1e-09
 40
0.0
 40
0.0
 40
0.0
 40
0.0
 40
0.125
 40
0.125
 40
0.125
 40
0.125
 40
0.25
 40
0.25
 40
0.25
 40
0.25
 40
0.375
 40
0.375
 40
0.375
 40
0.375
 40
0.5
 40
0.5
 40
0.5
 40
0.5
 40
0.625
 40
0.625
 40
0.625
 40
0.625
 40
0.75
 40
0.75
 40
0.75
 40
0.75
 40
1.0
 40
1.0
 40
1.0
 40
1.0
 10
459.2803961525649
 20
200.85785102631058
 30
0.0
 10
459.2803961525649
 20
200.85785102631058
 30
0.0
 10
459.2803961525649
 20
225.81135102631058
 30
0.0
 10
459.2803961525649
 20
225.81135102631058
 30
0.0
 10
459.2803961525649
 20
225.81135102631058
 30
0.0
 10
462.87519615256497
 20
225.81135102631058
 30
0.0
 10
466.47069615256487
 20
225.81135102631058
 30
0.0
 10
470.06589615256485
 20
225.81135102631058
 30
0.0
 10
470.06589615256485
 20
225.81135102631058
 30
0.0
 10
472.3911961525648
 20
225.77365102631057
 30
0.0
 10
473.948496152565
 20
224.2836510263106
 30
0.0
 10
473.9443961525649
 20
221.9172510263106
 30
0.0
 10
473.9443961525649
 20
221.9172510263106
 30
0.0
 10
473.943996152565
 20
219.88175102631058
 30
0.0
 10
473.943996152565
 20
216.82235102631057
 30
0.0
 10
473.9443961525649
 20
214.78635102631057
 30
0.0
 10
473.9443961525649
 20
214.78635102631057
 30
0.0
 10
473.9378961525649
 20
212.91085102631058
 30
0.0
 10
472.12559615256487
 20
210.96905102631058
 30
0.0
 10
470.116096152565
 20
210.94995102631057
 30
0.0
 10
470.116096152565
 20
210.94995102631057
 30
0.0
 10
470.116096152565
 20
210.94995102631057
 30
0.0
 10
459.2803961525649
 20
210.94995102631057
 30
0.0
 10
459.2803961525649
 20
210.94995102631057
 30
0.0
 10
459.2803961525649
 20
210.94995102631057
 30
0.0
 10
459.2803961525649
 20
210.94995102631057
 30
0.0
 10
473.93509615256494
 20
200.85785102631058
 30
0.0
 10
473.93509615256494
 20
200.85785102631058
 30
0.0
  0
SPLINE
  5
50
330
17
100
AcDbEntity
  8
_home_sasha_proj_2025_eva_layout_dxf_samples_TOYOTA_COROLLA_VERSO_1_layer 3
 62
250
370
9
100
AcDbSpline
 70
8
 71
3
 72
16
 73
12
 74
0
 42
1e-09
 40
0.0
 40
0.0
 40
0.0
 40
0.0
 40
0.25
 40
0.25
 40
0.25
 40
0.25
 40
0.5
 40
0.5
 40
0.5
 40
0.5
 40
1.0
 40
1.0
 40
1.0
 40
1.0
 10
486.612496152565
 20
213.33455102631058
 30
0.0
 10
482.364196152565
 20
214.8049510263106
 30
0.0
 10
477.4560961525649
 20
216.60075102631058
 30
0.0
 10
479.461196152565
 20
222.1210510263106
 30
0.0
 10
479.461196152565
 20
222.1210510263106
 30
0.0
 10
480.964696152565
 20
226.26095102631058
 30
0.0
 10
486.1782961525648
 20
225.87245102631059
 30
0.0
 10
489.78189615256497
 20
225.27135102631058
 30
0.0
 10
489.78189615256497
 20
225.27135102631058
 30
0.0
 10
492.64249615256495
 20
224.79415102631057
 30
0.0
 10
493.5071961525648
 20
223.58095102631057
 30
0.0
 10
493.8177961525648
 20
221.4968510263106
 30
0.0
  0
SPLINE
  5
51
330
17
100
AcDbEntity
  8
_home_sasha_proj_2025_eva_layout_dxf_samples_TOYOTA_COROLLA_VERSO_1_layer 3
 62
250
370
9
100
AcDbSpline
 70
8
 71
3
 72
16
 73
12
 74
0
 42
1e-09
 40
0.0
 40
0.0
 40
0.0
 40
0.0
 40
0.25
 40
0.25
 40
0.25
 40
0.25
 40
0.5
 40
0.5
 40
0.5
 40
0.5
 40
1.0
 40
1.0
 40
1.0
 40
1.0
 10
486.612496152565
 20
213.33445102631057
 30
0.0
 10
490.63109615256485
 20
211.6877510263106
 30
0.0
 10
495.66059615256495
 20
209.79945102631058
 30
0.0
 10
493.8265961525649
 20
204.43915102631058
 30
0.0
 10
493.8265961525649
 20
204.43915102631058
 30
0.0
 10
492.3667961525648
 20
200.17275102631058
 30
0.0
 10
487.4559961525649
 20
200.42945102631057
 30
0.0
 10
483.72989615256483
 20
200.98415102631057
 30
0.0
 10
483.72989615256483
 20
200.98415102631057
 30
0.0
 10
480.97989615256483
 20
201.3939510263106
 30
0.0
 10
479.7589961525648
 20
202.60745102631057
 30
0.0
 10
479.3809961525649
 20
204.71965102631057
 30
0.0
  0
SPLINE
  5
52
330
17
100
AcDbEntity
  8
_home_sasha_proj_2025_eva_layout_dxf_samples_Лодка_Азимут_Эверест_385_1_layer 1
 62
250
370
9
100
AcDbSpline
 70
8
 71
3
 72
20
 73
16
 74
0
 42
1e-09
 40
0.0
 40
0.0
 40
0.0
 40
0.0
 40
0.2
 40
0.2
 40
0.2
 40
0.2
 40
0.4
 40
0.4
 40
0.4
 40
0.4
 40
0.6
 40
0.6
 40
0.6
 40
0.6
 40
1.0
 40
1.0
 40
1.0
 40
1.0
 10
1077.3428592921166
 20
226.5076870000002
 30
0.0
 10
1077.3428592921166
 20
226.5076870000002
 30
0.0
 10
1077.3428592921166
 20
251.4655870000002
 30
0.0
 10
1077.3428592921166
 20
251.4655870000002
 30
0.0
 10
1077.3428592921166
 20
251.4655870000002
 30
0.0
 10
1077.3428592921166
 20
251.4655870000002
 30
0.0
 10
1086.2679592921165
 20
226.5076870000002
 30
0.0
 10
1086.2679592921165
 20
226.5076870000002
 30
0.0
 10
1086.2679592921165
 20
226.5076870000002
 30
0.0
 10
1086.2679592921165
 20
226.5076870000002
 30
0.0
 10
1095.0278592921165
 20
251.4650870000002
 30
0.0
 10
1095.0278592921165
 20
251.4650870000002
 30
0.0
 10
1095.0278592921165
 20
251.4650870000002
 30
0.0
 10
1095.0278592921165
 20
251.4650870000002
 30
0.0
 10
1095.0278592921165
 20
226.5076870000002
 30
0.0
 10
1095.0278592921165
 20
226.5076870000002
 30
0.0
  0
SPLINE
  5
53
330
17
100
AcDbEntity
  8
_home_sasha_proj_2025_eva_layout_dxf_samples_Лодка_Азимут_Эверест_385_1_layer 1
 62
250
370
9
100
AcDbSpline
 70
24
 71
3
 72
8
 73
4
 74
0
 42
1e-09
 40
0.0
 40
0.0
 40
0.0
 40
0.0
 40
1.0
 40
1.0
 40
1.0
 40
1.0
 10
1062.6012592921165
 20
251.46338700000018
 30
0.0
 10
1062.6012592921165
 20
251.46338700000018
 30
0.0
 10
1069.7693592921164
 20
251.46338700000018
 30
0.0
 10
1069.7693592921164
 20
251.46338700000018
 30
0.0
  0
SPLINE
  5
54
330
17
100
AcDbEntity
  8
_home_sasha_proj_2025_eva_layout_dxf_samples_Лодка_Азимут_Эверест_385_1_layer 1
 62
250
370
9
100
AcDbSpline
 70
24
 71
3
 72
8
 73
4
 74
0
 42
1e-09
 40
0.0
 40
0.0
 40
0.0
 40
0.0
 40
1.0
 40
1.0
 40
1.0
 40
1.0
 10
1062.6012592921165
 20
226.50988700000022
 30
0.0
 10
1062.6012592921165
 20
226.50988700000022
 30
0.0
 10
1069.7693592921164
 20
226.50988700000022
 30
0.0
 10
1069.7693592921164
 20
226.50988700000022
 30
0.0
  0
SPLINE
  5
55
330
17
100
AcDbEntity
  8
_home_sasha_proj_2025_eva_layout_dxf_samples_Лодка_Азимут_Эверест_385_1_layer 1
 62
250
370
9
100
AcDbSpline
 70
24
 71
3
 72
8
 73
4
 74
0
 42
1e-09
 40
0.0
 40
0.0
 40
0.0
 40
0.0
 40
1.0
 40
1.0
 40
1.0
 40
1.0
 10
1066.1852592921166
 20
251.46338700000018
 30
0.0
 10
1066.1852592921166
 20
251.46338700000018
 30
0.0
 10
1066.1852592921166
 20
226.50988700000022
 30
0.0
 10
1066.1852592921166
 20
226.50988700000022
 30
0.0
  0
SPLINE
  5
56
330
17
100
AcDbEntity
  8
_home_sasha_proj_2025_eva_layout_dxf_samples_Лодка_Азимут_Эверест_385_1_layer 1
 62
250
370
9
100
AcDbSpline
 70
8
 71
3
 72
16
 73
12
 74
0
 42
1e-09
 40
0.0
 40
0.0
 40
0.0
 40
0.0
 40
0.25
 40
0.25
 40
0.25
 40
0.25
 40
0.5
 40
0.5
 40
0.5
 40
0.5
 40
1.0
 40
1.0
 40
1.0
 40
1.0
 10
1053.4826592921165
 20
226.50788700000015
 30
0.0
 10
1053.4826592921165
 20
226.50788700000015
 30
0.0
 10
1038.8636592921166
 20
226.50788700000015
 30
0.0
 10
1038.8636592921166
 20
226.50788700000015
 30
0.0
 10
1038.8636592921166
 20
226.50788700000015
 30
0.0
 10
1038.8636592921166
 20
226.50788700000015
 30
0.0
 10
1053.5069592921166
 20
251.46528700000016
 30
0.0
 10
1053.5069592921166
 20
251.46528700000016
 30
0.0
 10
1053.5069592921166
 20
251.46528700000016
 30
0.0
 10
1053.5069592921166
 20
251.46528700000016
 30
0.0
 10
1038.8636592921166
 20
251.46528700000016
 30
0.0
 10
1038.8636592921166
 20
251.46528700000016
 30
0.0
  0
SPLINE
  5
57
330
17
100
AcDbEntity
  8
_home_sasha_proj_2025_eva_layout_dxf_samples_Лодка_Азимут_Эверест_385_1_layer 1
 62
250
370
9
100
AcDbSpline
 70
8
 71
3
 72
12
 73
8
 74
0
 42
1e-09
 40
0.0
 40
0.0
 40
0.0
 40
0.0
 40
0.3333333333333333
 40
0.3333333333333333
 40
0.3333333333333333
 40
0.3333333333333333
 40
1.0
 40
1.0
 40
1.0
 40
1.0
 10
1018.7148592921166
 20
226.50988700000022
 30
0.0
 10
1018.7148592921166
 20
226.50988700000022
 30
0.0
 10
1026.0858592921165
 20
251.46338700000018
 30
0.0
 10
1026.0858592921165
 20
251.46338700000018
 30
0.0
 10
1026.0858592921165
 20
251.46338700000018
 30
0.0
 10
1026.0858592921165
 20
251.46338700000018
 30
0.0
 10
1033.6557592921165
 20
226.50988700000022
 30
0.0
 10
1033.6557592921165
 20
226.50988700000022
 30
0.0
  0
SPLINE
  5
58
330
17
100
AcDbEntity
  8
_home_sasha_proj_2025_eva_layout_dxf_samples_Лодка_Азимут_Эверест_385_1_layer 1
 62
250
370
9
100
AcDbSpline
 70
24
 71
3
 72
8
 73
4
 74
0
 42
1e-09
 40
0.0
 40
0.0
 40
0.0
 40
0.0
 40
1.0
 40
1.0
 40
1.0
 40
1.0
 10
1021.4374592921165
 20
235.75928700000014
 30
0.0
 10
1021.4374592921165
 20
235.75928700000014
 30
0.0
 10
1030.9331592921164
 20
235.75928700000014
 30
0.0
 10
1030.9331592921164
 20
235.75928700000014
 30
0.0
  0
SPLINE
  5
59
330
17
100
AcDbEntity
  8
_home_sasha_proj_2025_eva_layout_dxf_samples_Лодка_Азимут_Эверест_385_1_layer 1
 62
250
370
9
100
AcDbSpline
 70
8
 71
3
 72
24
 73
20
 74
0
 42
1e-09
 40
0.0
 40
0.0
 40
0.0
 40
0.0
 40
0.1666666666666667
 40
0.1666666666666667
 40
0.1666666666666667
 40
0.1666666666666667
 40
0.3333333333333333
 40
0.3333333333333333
 40
0.3333333333333333
 40
0.3333333333333333
 40
0.5
 40
0.5
 40
0.5
 40
0.5
 40
0.6666666666666666
 40
0.6666666666666666
 40
0.6666666666666666
 40
0.6666666666666666
 40
1.0
 40
1.0
 40
1.0
 40
1.0
 10
1115.5125592921165
 20
251.46758700000015
 30
0.0
 10
1115.5121592921166
 20
245.92808700000018
 30
0.0
 10
1115.6079592921164
 20
235.72628700000024
 30
0.0
 10
1115.6083592921166
 20
230.18588700000015
 30
0.0
 10
1115.6083592921166
 20
230.18588700000015
 30
0.0
 10
1115.4685592921164
 20
227.94638700000013
 30
0.0
 10
1113.7913592921166
 20
226.52018700000013
 30
0.0
 10
1111.6436592921166
 20
226.50968700000016
 30
0.0
 10
1111.6436592921166
 20
226.50968700000016
 30
0.0
 10
1109.3117592921164
 20
226.51008700000017
 30
0.0
 10
1106.9798592921165
 20
226.51008700000017
 30
0.0
 10
1104.6483592921165
 20
226.50968700000016
 30
0.0
 10
1104.6483592921165
 20
226.50968700000016
 30
0.0
 10
1102.7233592921166
 20
226.40818700000017
 30
0.0
 10
1100.7512592921166
 20
228.2246870000002
 30
0.0
 10
1100.7624592921165
 20
230.16918700000014
 30
0.0
 10
1100.7624592921165
 20
230.16918700000014
 30
0.0
 10
1100.7627592921165
 20
235.73108700000017
 30
0.0
 10
1100.8581592921166
 20
245.90648700000014
 30
0.0
 10
1100.8577592921165
 20
251.46758700000015
 30
0.0
  0
SPLINE
  5
5A
330
17
100
AcDbEntity
  8
_home_sasha_proj_2025_eva_layout_dxf_samples_Лодка_Азимут_Эверест_385_1_layer 1
 62
250
370
9
100
AcDbSpline
 70
24
 71
3
 72
8
 73
4
 74
0
 42
1e-09
 40
0.0
 40
0.0
 40
0.0
 40
0.0
 40
1.0
 40
1.0
 40
1.0
 40
1.0
 10
1119.6917592921166
 20
251.43988700000017
 30
0.0
 10
1119.6917592921166
 20
251.43988700000017
 30
0.0
 10
1136.6789592921166
 20
251.43988700000017
 30
0.0
 10
1136.6789592921166
 20
251.43988700000017
 30
0.0
  0
SPLINE
  5
5B
330
17
100
AcDbEntity
  8
_home_sasha_proj_2025_eva_layout_dxf_samples_Лодка_Азимут_Эверест_385_1_layer 1
 62
250
370
9
100
AcDbSpline
 70
24
 71
3
 72
8
 73
4
 74
0
 42
1e-09
 40
0.0
 40
0.0
 40
0.0
 40
0.0
 40
1.0
 40
1.0
 40
1.0
 40
1.0
 10
1128.1855592921165
 20
226.50988700000022
 30
0.0
 10
1128.1855592921165
 20
226.50988700000022
 30
0.0
 10
1128.1855592921165
 20
251.46338700000018
 30
0.0
 10
1128.1855592921165
 20
251.46338700000018
 30
0.0
  0
SPLINE
  5
5C
330
17
100
AcDbEntity
  8
_home_sasha_proj_2025_eva_layout_dxf_samples_Лодка_Азимут_Эверест_385_1_layer 1
 62
250
370
9
100
AcDbSpline
 70
8
 71
3
 72
52
 73
48
 74
0
 42
1e-09
 40
0.0
 40
0.0
 40
0.0
 40
0.0
 40
0.0769230769230769
 40
0.0769230769230769
 40
0.0769230769230769
 40
0.0769230769230769
 40
0.1538461538461539
 40
0.1538461538461539
 40
0.1538461538461539
 40
0.1538461538461539
 40
0.2307692307692308
 40
0.2307692307692308
 40
0.2307692307692308
 40
0.2307692307692308
 40
0.3076923076923077
 40
0.3076923076923077
 40
0.3076923076923077
 40
0.3076923076923077
 40
0.3846153846153846
 40
0.3846153846153846
 40
0.3846153846153846
 40
0.3846153846153846
 40
0.4615384615384616
 40
0.4615384615384616
 40
0.4615384615384616
 40
0.4615384615384616
 40
0.5384615384615384
 40
0.5384615384615384
 40
0.5384615384615384
 40
0.5384615384615384
 40
0.6153846153846154
 40
0.6153846153846154
 40
0.6153846153846154
 40
0.6153846153846154
 40
0.6923076923076923
 40
0.6923076923076923
 40
0.6923076923076923
 40
0.6923076923076923
 40
0.7692307692307693
 40
0.7692307692307693
 40
0.7692307692307693
 40
0.7692307692307693
 40
0.8461538461538461
 40
0.8461538461538461
 40
0.8461538461538461
 40
0.8461538461538461
 40
1.0
 40
1.0
 40
1.0
 40
1.0
 10
1298.7079592921166
 20
246.5348870000002
 30
0.0
 10
1298.7079592921166
 20
246.5348870000002
 30
0.0
 10
1298.7079592921166
 20
248.39208700000023
 30
0.0
 10
1298.7079592921166
 20
248.39208700000023
 30
0.0
 10
1298.7079592921166
 20
248.39208700000023
 30
0.0
 10
1298.6936592921165
 20
250.13398700000022
 30
0.0
 10
1301.3581592921164
 20
252.25208700000013
 30
0.0
 10
1303.4172592921166
 20
252.22938700000014
 30
0.0
 10
1303.4172592921166
 20
252.22938700000014
 30
0.0
 10
1305.4813592921164
 20
252.22938700000014
 30
0.0
 10
1307.5453592921165
 20
252.22938700000014
 30
0.0
 10
1309.6090592921164
 20
252.22938700000014
 30
0.0
 10
1309.6090592921164
 20
252.22938700000014
 30
0.0
 10
1311.8035592921165
 20
252.2381870000002
 30
0.0
 10
1313.4018592921166
 20
250.39138700000018
 30
0.0
 10
1313.4462592921166
 20
248.47928700000017
 30
0.0
 10
1313.4462592921166
 20
248.47928700000017
 30
0.0
 10
1313.4458592921164
 20
247.04418700000014
 30
0.0
 10
1313.4458592921164
 20
245.60908700000022
 30
0.0
 10
1313.4462592921166
 20
244.17358700000017
 30
0.0
 10
1313.4462592921166
 20
244.17358700000017
 30
0.0
 10
1313.3976592921165
 20
242.52008700000016
 30
0.0
 10
1311.7950592921165
 20
240.29008700000014
 30
0.0
 10
1309.5967592921165
 20
240.30008700000013
 30
0.0
 10
1309.5967592921165
 20
240.30008700000013
 30
0.0
 10
1311.8004592921166
 20
240.28888700000022
 30
0.0
 10
1313.4084592921165
 20
238.48568700000015
 30
0.0
 10
1313.4624592921166
 20
236.4261870000002
 30
0.0
 10
1313.4624592921166
 20
236.4261870000002
 30
0.0
 10
1313.4620592921165
 20
234.64148700000015
 30
0.0
 10
1313.4620592921165
 20
232.85678700000022
 30
0.0
 10
1313.4624592921166
 20
231.07168700000017
 30
0.0
 10
1313.4624592921166
 20
231.07168700000017
 30
0.0
 10
1313.4725592921166
 20
229.01028700000023
 30
0.0
 10
1311.4176592921165
 20
227.24718700000022
 30
0.0
 10
1309.5967592921165
 20
227.25528700000024
 30
0.0
 10
1309.5967592921165
 20
227.25528700000024
 30
0.0
 10
1307.5314592921166
 20
227.25558700000016
 30
0.0
 10
1305.4662592921165
 20
227.25558700000016
 30
0.0
 10
1303.4006592921164
 20
227.25528700000024
 30
0.0
 10
1303.4006592921164
 20
227.25528700000024
 30
0.0
 10
1301.2320592921164
 20
227.2667870000002
 30
0.0
 10
1298.7010592921165
 20
229.66698700000023
 30
0.0
 10
1298.6824592921166
 20
231.12878700000016
 30
0.0
 10
1298.6824592921166
 20
231.12878700000016
 30
0.0
 10
1298.6824592921166
 20
231.12878700000016
 30
0.0
 10
1298.6824592921166
 20
233.03738700000014
 30
0.0
 10
1298.6824592921166
 20
233.03738700000014
 30
0.0
  0
SPLINE
  5
5D
330
17
100
AcDbEntity
  8
_home_sasha_proj_2025_eva_layout_dxf_samples_Лодка_Азимут_Эверест_385_1_layer 1
 62
250
370
9
100
AcDbSpline
 70
24
 71
3
 72
8
 73
4
 74
0
 42
1e-09
 40
0.0
 40
0.0
 40
0.0
 40
0.0
 40
1.0
 40
1.0
 40
1.0
 40
1.0
 10
1303.4176592921165
 20
240.28968700000013
 30
0.0
 10
1303.4176592921165
 20
240.28968700000013
 30
0.0
 10
1309.6140592921165
 20
240.28968700000013
 30
0.0
 10
1309.6140592921165
 20
240.28968700000013
 30
0.0
  0
SPLINE
  5
5E
330
17
100
AcDbEntity
  8
_home_sasha_proj_2025_eva_layout_dxf_samples_Лодка_Азимут_Эверест_385_1_layer 1
 62
250
370
9
100
AcDbSpline
 70
11
 71
3
 72
36
 73
32
 74
0
 42
1e-09
 40
0.0
 40
0.0
 40
0.0
 40
0.0
 40
0.1111111111111111
 40
0.1111111111111111
 40
0.1111111111111111
 40
0.1111111111111111
 40
0.2222222222222222
 40
0.2222222222222222
 40
0.2222222222222222
 40
0.2222222222222222
 40
0.3333333333333333
 40
0.3333333333333333
 40
0.3333333333333333
 40
0.3333333333333333
 40
0.4444444444444444
 40
0.4444444444444444
 40
0.4444444444444444
 40
0.4444444444444444
 40
0.5555555555555556
 40
0.5555555555555556
 40
0.5555555555555556
 40
0.5555555555555556
 40
0.6666666666666666
 40
0.6666666666666666
 40
0.6666666666666666
 40
0.6666666666666666
 40
0.7777777777777778
 40
0.7777777777777778
 40
0.7777777777777778
 40
0.7777777777777778
 40
1.0
 40
1.0
 40
1.0
 40
1.0
 10
1317.5988592921165
 20
238.23628700000023
 30
0.0
 10
1317.5988592921165
 20
235.06548700000013
 30
0.0
 10
1317.5988592921165
 20
233.36338700000016
 30
0.0
 10
1317.5988592921165
 20
230.1919870000002
 30
0.0
 10
1317.5988592921165
 20
230.1919870000002
 30
0.0
 10
1317.5903592921165
 20
228.9700870000002
 30
0.0
 10
1319.2882592921164
 20
227.27738700000015
 30
0.0
 10
1320.5408592921165
 20
227.26888700000023
 30
0.0
 10
1320.5408592921165
 20
227.26888700000023
 30
0.0
 10
1323.5239592921166
 20
227.26918700000016
 30
0.0
 10
1326.5072592921165
 20
227.26918700000016
 30
0.0
 10
1329.4906592921166
 20
227.26888700000023
 30
0.0
 10
1329.4906592921166
 20
227.26888700000023
 30
0.0
 10
1330.8139592921166
 20
227.28058700000014
 30
0.0
 10
1332.4343592921166
 20
228.9021870000002
 30
0.0
 10
1332.4232592921164
 20
230.20138700000024
 30
0.0
 10
1332.4232592921164
 20
230.20138700000024
 30
0.0
 10
1332.4229592921165
 20
233.3695870000002
 30
0.0
 10
1332.4229592921165
 20
235.0683870000002
 30
0.0
 10
1332.4232592921164
 20
238.23628700000023
 30
0.0
 10
1332.4232592921164
 20
238.23628700000023
 30
0.0
 10
1332.3535592921166
 20
239.61668700000024
 30
0.0
 10
1330.7757592921166
 20
241.19528700000018
 30
0.0
 10
1329.4703592921164
 20
241.18918700000023
 30
0.0
 10
1329.4703592921164
 20
241.18918700000023
 30
0.0
 10
1326.4937592921165
 20
241.1888870000002
 30
0.0
 10
1323.5171592921165
 20
241.1888870000002
 30
0.0
 10
1320.5408592921165
 20
241.18918700000023
 30
0.0
 10
1320.5408592921165
 20
241.18918700000023
 30
0.0
 10
1319.4613592921164
 20
241.19558700000022
 30
0.0
 10
1317.6150592921165
 20
239.61668700000024
 30
0.0
 10
1317.5988592921165
 20
238.23628700000023
 30
0.0
  0
SPLINE
  5
5F
330
17
100
AcDbEntity
  8
_home_sasha_proj_2025_eva_layout_dxf_samples_Лодка_Азимут_Эверест_385_1_layer 1
 62
250
370
9
100
AcDbSpline
 70
11
 71
3
 72
36
 73
32
 74
0
 42
1e-09
 40
0.0
 40
0.0
 40
0.0
 40
0.0
 40
0.1111111111111111
 40
0.1111111111111111
 40
0.1111111111111111
 40
0.1111111111111111
 40
0.2222222222222222
 40
0.2222222222222222
 40
0.2222222222222222
 40
0.2222222222222222
 40
0.3333333333333333
 40
0.3333333333333333
 40
0.3333333333333333
 40
0.3333333333333333
 40
0.4444444444444444
 40
0.4444444444444444
 40
0.4444444444444444
 40
0.4444444444444444
 40
0.5555555555555556
 40
0.5555555555555556
 40
0.5555555555555556
 40
0.5555555555555556
 40
0.6666666666666666
 40
0.6666666666666666
 40
0.6666666666666666
 40
0.6666666666666666
 40
0.7777777777777778
 40
0.7777777777777778
 40
0.7777777777777778
 40
0.7777777777777778
 40
1.0
 40
1.0
 40
1.0
 40
1.0
 10
1319.0576592921166
 20
250.7544870000002
 30
0.0
 10
1319.0576592921166
 20
248.54148700000013
 30
0.0
 10
1319.0576592921166
 20
244.8591870000002
 30
0.0
 10
1319.0576592921166
 20
242.6458870000002
 30
0.0
 10
1319.0576592921166
 20
242.6458870000002
 30
0.0
 10
1319.0726592921164
 20
242.13848700000023
 30
0.0
 10
1319.8800592921166
 20
241.20708700000017
 30
0.0
 10
1320.5801592921166
 20
241.2082870000002
 30
0.0
 10
1320.5801592921166
 20
241.2082870000002
 30
0.0
 10
1323.5500592921164
 20
241.20848700000016
 30
0.0
 10
1326.5202592921164
 20
241.1235870000002
 30
0.0
 10
1329.4906592921166
 20
241.12328700000018
 30
0.0
 10
1329.4906592921166
 20
241.12328700000018
 30
0.0
 10
1330.2877592921166
 20
241.12748700000014
 30
0.0
 10
1331.0084592921166
 20
241.91778700000015
 30
0.0
 10
1331.0058592921166
 20
242.63848700000023
 30
0.0
 10
1331.0058592921166
 20
242.63848700000023
 30
0.0
 10
1331.0055592921165
 20
244.85448700000023
 30
0.0
 10
1331.0055592921165
 20
248.53918700000014
 30
0.0
 10
1331.0058592921166
 20
250.7544870000002
 30
0.0
 10
1331.0058592921166
 20
250.7544870000002
 30
0.0
 10
1330.9873592921165
 20
251.46528700000016
 30
0.0
 10
1330.3759592921165
 20
252.22568700000016
 30
0.0
 10
1329.5420592921166
 20
252.2182870000002
 30
0.0
 10
1329.5420592921166
 20
252.2182870000002
 30
0.0
 10
1326.5249592921166
 20
252.21798700000016
 30
0.0
 10
1323.5080592921165
 20
252.21798700000016
 30
0.0
 10
1320.4914592921166
 20
252.2182870000002
 30
0.0
 10
1320.4914592921166
 20
252.2182870000002
 30
0.0
 10
1319.8650592921165
 20
252.22588700000023
 30
0.0
 10
1319.0409592921164
 20
251.51488700000021
 30
0.0
 10
1319.0576592921166
 20
250.7544870000002
 30
0.0
  0
SPLINE
  5
60
330
17
100
AcDbEntity
  8
_home_sasha_proj_2025_eva_layout_dxf_samples_Лодка_Азимут_Эверест_385_1_layer 1
 62
250
370
9
100
AcDbSpline
 70
8
 71
3
 72
32
 73
28
 74
0
 42
1e-09
 40
0.0
 40
0.0
 40
0.0
 40
0.0
 40
0.125
 40
0.125
 40
0.125
 40
0.125
 40
0.25
 40
0.25
 40
0.25
 40
0.25
 40
0.375
 40
0.375
 40
0.375
 40
0.375
 40
0.5
 40
0.5
 40
0.5
 40
0.5
 40
0.625
 40
0.625
 40
0.625
 40
0.625
 40
0.75
 40
0.75
 40
0.75
 40
0.75
 40
1.0
 40
1.0
 40
1.0
 40
1.0
 10
1212.8532592921165
 20
226.50988700000022
 30
0.0
 10
1212.8532592921165
 20
226.50988700000022
 30
0.0
 10
1212.8532592921165
 20
251.46338700000018
 30
0.0
 10
1212.8532592921165
 20
251.46338700000018
 30
0.0
 10
1212.8532592921165
 20
251.46338700000018
 30
0.0
 10
1216.4480592921166
 20
251.46338700000018
 30
0.0
 10
1220.0435592921165
 20
251.46338700000018
 30
0.0
 10
1223.6387592921164
 20
251.46338700000018
 30
0.0
 10
1223.6387592921164
 20
251.46338700000018
 30
0.0
 10
1225.9640592921164
 20
251.4256870000002
 30
0.0
 10
1227.5213592921166
 20
249.9356870000002
 30
0.0
 10
1227.5172592921165
 20
247.5692870000002
 30
0.0
 10
1227.5172592921165
 20
247.5692870000002
 30
0.0
 10
1227.5168592921166
 20
245.53378700000013
 30
0.0
 10
1227.5168592921166
 20
242.47438700000015
 30
0.0
 10
1227.5172592921165
 20
240.4383870000002
 30
0.0
 10
1227.5172592921165
 20
240.4383870000002
 30
0.0
 10
1227.5107592921165
 20
238.56288700000022
 30
0.0
 10
1225.6984592921165
 20
236.62108700000016
 30
0.0
 10
1223.6889592921166
 20
236.60198700000018
 30
0.0
 10
1223.6889592921166
 20
236.60198700000018
 30
0.0
 10
1223.6889592921166
 20
236.60198700000018
 30
0.0
 10
1212.8532592921165
 20
236.60198700000018
 30
0.0
 10
1212.8532592921165
 20
236.60198700000018
 30
0.0
 10
1212.8532592921165
 20
236.60198700000018
 30
0.0
 10
1212.8532592921165
 20
236.60198700000018
 30
0.0
 10
1227.5079592921165
 20
226.50988700000022
 30
0.0
 10
1227.5079592921165
 20
226.50988700000022
 30
0.0
  0
SPLINE
  5
61
330
17
100
AcDbEntity
  8
_home_sasha_proj_2025_eva_layout_dxf_samples_Лодка_Азимут_Эверест_385_1_layer 1
 62
250
370
9
100
AcDbSpline
 70
8
 71
3
 72
16
 73
12
 74
0
 42
1e-09
 40
0.0
 40
0.0
 40
0.0
 40
0.0
 40
0.25
 40
0.25
 40
0.25
 40
0.25
 40
0.5
 40
0.5
 40
0.5
 40
0.5
 40
1.0
 40
1.0
 40
1.0
 40
1.0
 10
1163.6263592921166
 20
251.46338700000018
 30
0.0
 10
1163.6263592921166
 20
251.46338700000018
 30
0.0
 10
1150.7524592921166
 20
251.46338700000018
 30
0.0
 10
1150.7524592921166
 20
251.46338700000018
 30
0.0
 10
1150.7524592921166
 20
251.46338700000018
 30
0.0
 10
1150.7524592921166
 20
251.46338700000018
 30
0.0
 10
1150.7524592921166
 20
226.50978700000013
 30
0.0
 10
1150.7524592921166
 20
226.50978700000013
 30
0.0
 10
1150.7524592921166
 20
226.50978700000013
 30
0.0
 10
1150.7524592921166
 20
226.50978700000013
 30
0.0
 10
1165.6182592921166
 20
226.50978700000013
 30
0.0
 10
1165.6182592921166
 20
226.50978700000013
 30
0.0
  0
SPLINE
  5
62
330
17
100
AcDbEntity
  8
_home_sasha_proj_2025_eva_layout_dxf_samples_Лодка_Азимут_Эверест_385_1_layer 1
 62
250
370
9
100
AcDbSpline
 70
24
 71
3
 72
8
 73
4
 74
0
 42
1e-09
 40
0.0
 40
0.0
 40
0.0
 40
0.0
 40
1.0
 40
1.0
 40
1.0
 40
1.0
 10
1150.7524592921166
 20
239.58368700000022
 30
0.0
 10
1150.7524592921166
 20
239.58368700000022
 30
0.0
 10
1157.9205592921164
 20
239.58368700000022
 30
0.0
 10
1157.9205592921164
 20
239.58368700000022
 30
0.0
  0
SPLINE
  5
63
330
17
100
AcDbEntity
  8
_home_sasha_proj_2025_eva_layout_dxf_samples_Лодка_Азимут_Эверест_385_1_layer 1
 62
250
370
9
100
AcDbSpline
 70
24
 71
3
 72
8
 73
4
 74
0
 42
1e-09
 40
0.0
 40
0.0
 40
0.0
 40
0.0
 40
1.0
 40
1.0
 40
1.0
 40
1.0
 10
1267.8484592921166
 20
252.21088700000024
 30
0.0
 10
1267.8484592921166
 20
252.21088700000024
 30
0.0
 10
1284.8356592921166
 20
252.21088700000024
 30
0.0
 10
1284.8356592921166
 20
252.21088700000024
 30
0.0
  0
SPLINE
  5
64
330
17
100
AcDbEntity
  8
_home_sasha_proj_2025_eva_layout_dxf_samples_Лодка_Азимут_Эверест_385_1_layer 1
 62
250
370
9
100
AcDbSpline
 70
24
 71
3
 72
8
 73
4
 74
0
 42
1e-09
 40
0.0
 40
0.0
 40
0.0
 40
0.0
 40
1.0
 40
1.0
 40
1.0
 40
1.0
 10
1276.3422592921165
 20
227.28088700000018
 30
0.0
 10
1276.3422592921165
 20
227.28088700000018
 30
0.0
 10
1276.3422592921165
 20
252.23438700000014
 30
0.0
 10
1276.3422592921165
 20
252.23438700000014
 30
0.0
  0
SPLINE
  5
65
330
17
100
AcDbEntity
  8
_home_sasha_proj_2025_eva_layout_dxf_samples_Лодка_Азимут_Эверест_385_1_layer 1
 62
250
370
9
100
AcDbSpline
 70
8
 71
3
 72
16
 73
12
 74
0
 42
1e-09
 40
0.0
 40
0.0
 40
0.0
 40
0.0
 40
0.25
 40
0.25
 40
0.25
 40
0.25
 40
0.5
 40
0.5
 40
0.5
 40
0.5
 40
1.0
 40
1.0
 40
1.0
 40
1.0
 10
1256.3420592921166
 20
239.75758700000023
 30
0.0
 10
1252.0937592921166
 20
241.22798700000016
 30
0.0
 10
1247.1856592921165
 20
243.02378700000014
 30
0.0
 10
1249.1907592921166
 20
248.54408700000016
 30
0.0
 10
1249.1907592921166
 20
248.54408700000016
 30
0.0
 10
1250.6942592921166
 20
252.68398700000017
 30
0.0
 10
1255.9078592921164
 20
252.29548700000015
 30
0.0
 10
1259.5114592921166
 20
251.69438700000018
 30
0.0
 10
1259.5114592921166
 20
251.69438700000018
 30
0.0
 10
1262.3720592921165
 20
251.21718700000014
 30
0.0
 10
1263.2367592921164
 20
250.00398700000022
 30
0.0
 10
1263.5473592921164
 20
247.9198870000002
 30
0.0
  0
SPLINE
  5
66
330
17
100
AcDbEntity
  8
_home_sasha_proj_2025_eva_layout_dxf_samples_Лодка_Азимут_Эверест_385_1_layer 1
 62
250
370
9
100
AcDbSpline
 70
8
 71
3
 72
16
 73
12
 74
0
 42
1e-09
 40
0.0
 40
0.0
 40
0.0
 40
0.0
 40
0.25
 40
0.25
 40
0.25
 40
0.25
 40
0.5
 40
0.5
 40
0.5
 40
0.5
 40
1.0
 40
1.0
 40
1.0
 40
1.0
 10
1256.3420592921166
 20
239.75748700000014
 30
0.0
 10
1260.3606592921165
 20
238.11078700000013
 30
0.0
 10
1265.3901592921166
 20
236.22248700000017
 30
0.0
 10
1263.5561592921165
 20
230.86218700000023
 30
0.0
 10
1263.5561592921165
 20
230.86218700000023
 30
0.0
 10
1262.0963592921166
 20
226.59578700000014
 30
0.0
 10
1257.1855592921165
 20
226.85248700000017
 30
0.0
 10
1253.4594592921164
 20
227.4071870000002
 30
0.0
 10
1253.4594592921164
 20
227.4071870000002
 30
0.0
 10
1250.7094592921164
 20
227.8169870000002
 30
0.0
 10
1249.4885592921164
 20
229.03048700000016
 30
0.0
 10
1249.1105592921165
 20
231.1426870000002
 30
0.0
  0
SPLINE
  5
67
330
17
100
AcDbEntity
  8
_home_sasha_proj_2025_eva_layout_dxf_samples_Лодка_Азимут_Эверест_385_1_layer 1
 62
250
370
9
100
AcDbSpline
 70
24
 71
3
 72
8
 73
4
 74
0
 42
1e-09
 40
0.0
 40
0.0
 40
0.0
 40
0.0
 40
1.0
 40
1.0
 40
1.0
 40
1.0
 10
1185.5072592921165
 20
251.46338700000018
 30
0.0
 10
1185.5072592921165
 20
251.46338700000018
 30
0.0
 10
1178.1854592921165
 20
226.50978700000013
 30
0.0
 10
1178.1854592921165
 20
226.50978700000013
 30
0.0
  0
SPLINE
  5
68
330
17
100
AcDbEntity
  8
_home_sasha_proj_2025_eva_layout_dxf_samples_Лодка_Азимут_Эверест_385_1_layer 1
 62
250
370
9
100
AcDbSpline
 70
24
 71
3
 72
8
 73
4
 74
0
 42
1e-09
 40
0.0
 40
0.0
 40
0.0
 40
0.0
 40
1.0
 40
1.0
 40
1.0
 40
1.0
 10
1178.1853592921166
 20
226.50978700000013
 30
0.0
 10
1178.1853592921166
 20
226.50978700000013
 30
0.0
 10
1170.8635592921166
 20
251.46338700000018
 30
0.0
 10
1170.8635592921166
 20
251.46338700000018
 30
0.0
  0
SPLINE
  5
69
330
17
100
AcDbEntity
  8
_home_sasha_proj_2025_eva_layout_dxf_samples_Лодка_Азимут_Эверест_385_1_layer 1
 62
250
370
9
100
AcDbSpline
 70
8
 71
3
 72
16
 73
12
 74
0
 42
1e-09
 40
0.0
 40
0.0
 40
0.0
 40
0.0
 40
0.25
 40
0.25
 40
0.25
 40
0.25
 40
0.5
 40
0.5
 40
0.5
 40
0.5
 40
1.0
 40
1.0
 40
1.0
 40
1.0
 10
1205.6263592921166
 20
251.46338700000018
 30
0.0
 10
1205.6263592921166
 20
251.46338700000018
 30
0.0
 10
1192.7524592921166
 20
251.46338700000018
 30
0.0
 10
1192.7524592921166
 20
251.46338700000018
 30
0.0
 10
1192.7524592921166
 20
251.46338700000018
 30
0.0
 10
1192.7524592921166
 20
251.46338700000018
 30
0.0
 10
1192.7524592921166
 20
226.50978700000013
 30
0.0
 10
1192.7524592921166
 20
226.50978700000013
 30
0.0
 10
1192.7524592921166
 20
226.50978700000013
 30
0.0
 10
1192.7524592921166
 20
226.50978700000013
 30
0.0
 10
1207.6182592921166
 20
226.50978700000013
 30
0.0
 10
1207.6182592921166
 20
226.50978700000013
 30
0.0
  0
SPLINE
  5
6A
330
17
100
AcDbEntity
  8
_home_sasha_proj_2025_eva_layout_dxf_samples_Лодка_Азимут_Эверест_385_1_layer 1
 62
250
370
9
100
AcDbSpline
 70
24
 71
3
 72
8
 73
4
 74
0
 42
1e-09
 40
0.0
 40
0.0
 40
0.0
 40
0.0
 40
1.0
 40
1.0
 40
1.0
 40
1.0
 10
1192.7524592921166
 20
239.58368700000022
 30
0.0
 10
1192.7524592921166
 20
239.58368700000022
 30
0.0
 10
1199.9205592921164
 20
239.58368700000022
 30
0.0
 10
1199.9205592921164
 20
239.58368700000022
 30
0.0
  0
SPLINE
  5
6B
330
17
100
AcDbEntity
  8
_home_sasha_proj_2025_eva_layout_dxf_samples_Лодка_Азимут_Эверест_385_1_layer 1
 62
250
370
9
100
AcDbSpline
 70
8
 71
3
 72
16
 73
12
 74
0
 42
1e-09
 40
0.0
 40
0.0
 40
0.0
 40
0.0
 40
0.25
 40
0.25
 40
0.25
 40
0.25
 40
0.5
 40
0.5
 40
0.5
 40
0.5
 40
1.0
 40
1.0
 40
1.0
 40
1.0
 10
1245.6263592921166
 20
251.46338700000018
 30
0.0
 10
1245.6263592921166
 20
251.46338700000018
 30
0.0
 10
1232.7524592921166
 20
251.46338700000018
 30
0.0
 10
1232.7524592921166
 20
251.46338700000018
 30
0.0
 10
1232.7524592921166
 20
251.46338700000018
 30
0.0
 10
1232.7524592921166
 20
251.46338700000018
 30
0.0
 10
1232.7524592921166
 20
226.50978700000013
 30
0.0
 10
1232.7524592921166
 20
226.50978700000013
 30
0.0
 10
1232.7524592921166
 20
226.50978700000013
 30
0.0
 10
1232.7524592921166
 20
226.50978700000013
 30
0.0
 10
1247.6182592921166
 20
226.50978700000013
 30
0.0
 10
1247.6182592921166
 20
226.50978700000013
 30
0.0
  0
SPLINE
  5
6C
330
17
100
AcDbEntity
  8
_home_sasha_proj_2025_eva_layout_dxf_samples_Лодка_Азимут_Эверест_385_1_layer 1
 62
250
370
9
100
AcDbSpline
 70
24
 71
3
 72
8
 73
4
 74
0
 42
1e-09
 40
0.0
 40
0.0
 40
0.0
 40
0.0
 40
1.0
 40
1.0
 40
1.0
 40
1.0
 10
1232.7524592921166
 20
239.58368700000022
 30
0.0
 10
1232.7524592921166
 20
239.58368700000022
 30
0.0
 10
1239.9205592921164
 20
239.58368700000022
 30
0.0
 10
1239.9205592921164
 20
239.58368700000022
 30
0.0
  0
SPLINE
  5
6D
330
17
100
AcDbEntity
  8
_home_sasha_proj_2025_eva_layout_dxf_samples_Лодка_Азимут_Эверест_385_1_layer 1
 62
250
370
9
100
AcDbSpline
 70
8
 71
3
 72
40
 73
36
 74
0
 42
1e-09
 40
0.0
 40
0.0
 40
0.0
 40
0.0
 40
0.1
 40
0.1
 40
0.1
 40
0.1
 40
0.2
 40
0.2
 40
0.2
 40
0.2
 40
0.3
 40
0.3
 40
0.3
 40
0.3
 40
0.4
 40
0.4
 40
0.4
 40
0.4
 40
0.5
 40
0.5
 40
0.5
 40
0.5
 40
0.6
 40
0.6
 40
0.6
 40
0.6
 40
0.7
 40
0.7
 40
0.7
 40
0.7
 40
0.8
 40
0.8
 40
0.8
 40
0.8
 40
1.0
 40
1.0
 40
1.0
 40
1.0
 10
1350.4051592921164
 20
252.1983870000002
 30
0.0
 10
1350.4051592921164
 20
252.1983870000002
 30
0.0
 10
1337.5534592921165
 20
252.1983870000002
 30
0.0
 10
1337.5534592921165
 20
252.1983870000002
 30
0.0
 10
1337.5534592921165
 20
252.1983870000002
 30
0.0
 10
1337.5537592921164
 20
247.96778700000021
 30
0.0
 10
1337.5537592921164
 20
243.7368870000002
 30
0.0
 10
1337.5534592921165
 20
239.50568700000014
 30
0.0
 10
1337.5534592921165
 20
239.50568700000014
 30
0.0
 10
1337.5531592921166
 20
242.81578700000017
 30
0.0
 10
1339.1841592921164
 20
243.88758700000022
 30
0.0
 10
1341.9961592921165
 20
243.94808700000016
 30
0.0
 10
1341.9961592921165
 20
243.94808700000016
 30
0.0
 10
1344.4357592921165
 20
243.9483870000002
 30
0.0
 10
1346.8752592921164
 20
243.9483870000002
 30
0.0
 10
1349.3144592921165
 20
243.94808700000016
 30
0.0
 10
1349.3144592921165
 20
243.94808700000016
 30
0.0
 10
1350.9642592921166
 20
243.95488700000016
 30
0.0
 10
1352.4391592921165
 20
241.57438700000017
 30
0.0
 10
1352.4676592921164
 20
239.50568700000014
 30
0.0
 10
1352.4676592921164
 20
239.50568700000014
 30
0.0
 10
1352.4673592921165
 20
236.91838700000022
 30
0.0
 10
1352.4673592921165
 20
234.33078700000016
 30
0.0
 10
1352.4676592921164
 20
231.74308700000023
 30
0.0
 10
1352.4676592921164
 20
231.74308700000023
 30
0.0
 10
1352.5138592921166
 20
229.78368700000016
 30
0.0
 10
1351.0144592921165
 20
227.3473870000002
 30
0.0
 10
1349.3885592921165
 20
227.28888700000022
 30
0.0
 10
1349.3885592921165
 20
227.28888700000022
 30
0.0
 10
1347.4320592921165
 20
227.28918700000014
 30
0.0
 10
1342.5370592921165
 20
227.28918700000014
 30
0.0
 10
1340.5800592921164
 20
227.28888700000022
 30
0.0
 10
1340.5800592921164
 20
227.28888700000022
 30
0.0
 10
1338.7345592921165
 20
227.28008700000015
 30
0.0
 10
1337.6274592921166
 20
229.24488700000023
 30
0.0
 10
1337.6066592921165
 20
231.79598700000014
 30
0.0
  0
SPLINE
  5
6E
330
17
100
AcDbEntity
  8
_home_sasha_proj_2025_eva_layout_dxf_samples_Лодка_Азимут_Эверест_385_1_layer 1
 62
242
370
9
100
AcDbSpline
 70
11
 71
3
 72
356
 73
352
 74
0
 42
1e-09
 40
0.0
 40
0.0
 40
0.0
 40
0.0
 40
0.0112359550561798
 40
0.0112359550561798
 40
0.0112359550561798
 40
0.0112359550561798
 40
0.0224719101123595
 40
0.0224719101123595
 40
0.0224719101123595
 40
0.0224719101123595
 40
0.0337078651685393
 40
0.0337078651685393
 40
0.0337078651685393
 40
0.0337078651685393
 40
0.0449438202247191
 40
0.0449438202247191
 40
0.0449438202247191
 40
0.0449438202247191
 40
0.0561797752808989
 40
0.0561797752808989
 40
0.0561797752808989
 40
0.0561797752808989
 40
0.0674157303370786
 40
0.0674157303370786
 40
0.0674157303370786
 40
0.0674157303370786
 40
0.0786516853932584
 40
0.0786516853932584
 40
0.0786516853932584
 40
0.0786516853932584
 40
0.0898876404494382
 40
0.0898876404494382
 40
0.0898876404494382
 40
0.0898876404494382
 40
0.101123595505618
 40
0.101123595505618
 40
0.101123595505618
 40
0.101123595505618
 40
0.1123595505617977
 40
0.1123595505617977
 40
0.1123595505617977
 40
0.1123595505617977
 40
0.1235955056179775
 40
0.1235955056179775
 40
0.1235955056179775
 40
0.1235955056179775
 40
0.1348314606741573
 40
0.1348314606741573
 40
0.1348314606741573
 40
0.1348314606741573
 40
0.1460674157303371
 40
0.1460674157303371
 40
0.1460674157303371
 40
0.1460674157303371
 40
0.1573033707865168
 40
0.1573033707865168
 40
0.1573033707865168
 40
0.1573033707865168
 40
0.1685393258426966
 40
0.1685393258426966
 40
0.1685393258426966
 40
0.1685393258426966
 40
0.1797752808988764
 40
0.1797752808988764
 40
0.1797752808988764
 40
0.1797752808988764
 40
0.1910112359550562
 40
0.1910112359550562
 40
0.1910112359550562
 40
0.1910112359550562
 40
0.2022471910112359
 40
0.2022471910112359
 40
0.2022471910112359
 40
0.2022471910112359
 40
0.2134831460674157
 40
0.2134831460674157
 40
0.2134831460674157
 40
0.2134831460674157
 40
0.2247191011235955
 40
0.2247191011235955
 40
0.2247191011235955
 40
0.2247191011235955
 40
0.2359550561797753
 40
0.2359550561797753
 40
0.2359550561797753
 40
0.2359550561797753
 40
0.247191011235955
 40
0.247191011235955
 40
0.247191011235955
 40
0.247191011235955
 40
0.2584269662921349
 40
0.2584269662921349
 40
0.2584269662921349
 40
0.2584269662921349
 40
0.2696629213483146
 40
0.2696629213483146
 40
0.2696629213483146
 40
0.2696629213483146
 40
0.2808988764044944
 40
0.2808988764044944
 40
0.2808988764044944
 40
0.2808988764044944
 40
0.2921348314606741
 40
0.2921348314606741
 40
0.2921348314606741
 40
0.2921348314606741
 40
0.303370786516854
 40
0.303370786516854
 40
0.303370786516854
 40
0.303370786516854
 40
0.3146067415730337
 40
0.3146067415730337
 40
0.3146067415730337
 40
0.3146067415730337
 40
0.3258426966292135
 40
0.3258426966292135
 40
0.3258426966292135
 40
0.3258426966292135
 40
0.3370786516853932
 40
0.3370786516853932
 40
0.3370786516853932
 40
0.3370786516853932
 40
0.3483146067415731
 40
0.3483146067415731
 40
0.3483146067415731
 40
0.3483146067415731
 40
0.3595505617977528
 40
0.3595505617977528
 40
0.3595505617977528
 40
0.3595505617977528
 40
0.3707865168539326
 40
0.3707865168539326
 40
0.3707865168539326
 40
0.3707865168539326
 40
0.3820224719101123
 40
0.3820224719101123
 40
0.3820224719101123
 40
0.3820224719101123
 40
0.3932584269662922
 40
0.3932584269662922
 40
0.3932584269662922
 40
0.3932584269662922
 40
0.4044943820224719
 40
0.4044943820224719
 40
0.4044943820224719
 40
0.4044943820224719
 40
0.4157303370786517
 40
0.4157303370786517
 40
0.4157303370786517
 40
0.4157303370786517
 40
0.4269662921348314
 40
0.4269662921348314
 40
0.4269662921348314
 40
0.4269662921348314
 40
0.4382022471910113
 40
0.4382022471910113
 40
0.4382022471910113
 40
0.4382022471910113
 40
0.449438202247191
 40
0.449438202247191
 40
0.449438202247191
 40
0.449438202247191
 40
0.4606741573033708
 40
0.4606741573033708
 40
0.4606741573033708
 40
0.4606741573033708
 40
0.4719101123595505
 40
0.4719101123595505
 40
0.4719101123595505
 40
0.4719101123595505
 40
0.4831460674157304
 40
0.4831460674157304
 40
0.4831460674157304
 40
0.4831460674157304
 40
0.4943820224719101
 40
0.4943820224719101
 40
0.4943820224719101
 40
0.4943820224719101
 40
0.5056179775280899
 40
0.5056179775280899
 40
0.5056179775280899
 40
0.5056179775280899
 40
0.5168539325842697
 40
0.5168539325842697
 40
0.5168539325842697
 40
0.5168539325842697
 40
0.5280898876404494
 40
0.5280898876404494
 40
0.5280898876404494
 40
0.5280898876404494
 40
0.5393258426966292
 40
0.5393258426966292
 40
0.5393258426966292
 40
0.5393258426966292
 40
0.550561797752809
 40
0.550561797752809
 40
0.550561797752809
 40
0.550561797752809
 40
0.5617977528089888
 40
0.5617977528089888
 40
0.5617977528089888
 40
0.5617977528089888
 40
0.5730337078651685
 40
0.5730337078651685
 40
0.5730337078651685
 40
0.5730337078651685
 40
0.5842696629213483
 40
0.5842696629213483
 40
0.5842696629213483
 40
0.5842696629213483
 40
0.5955056179775281
 40
0.5955056179775281
 40
0.5955056179775281
 40
0.5955056179775281
 40
0.6067415730337079
 40
0.6067415730337079
 40
0.6067415730337079
 40
0.6067415730337079
 40
0.6179775280898876
 40
0.6179775280898876
 40
0.6179775280898876
 40
0.6179775280898876
 40
0.6292134831460674
 40
0.6292134831460674
 40
0.6292134831460674
 40
0.6292134831460674
 40
0.6404494382022472
 40
0.6404494382022472
 40
0.6404494382022472
 40
0.6404494382022472
 40
0.651685393258427
 40
0.651685393258427
 40
0.651685393258427
 40
0.651685393258427
 40
0.6629213483146067
 40
0.6629213483146067
 40
0.6629213483146067
 40
0.6629213483146067
 40
0.6741573033707865
 40
0.6741573033707865
 40
0.6741573033707865
 40
0.6741573033707865
 40
0.6853932584269663
 40
0.6853932584269663
 40
0.6853932584269663
 40
0.6853932584269663
 40
0.6966292134831461
 40
0.6966292134831461
 40
0.6966292134831461
 40
0.6966292134831461
 40
0.7078651685393258
 40
0.7078651685393258
 40
0.7078651685393258
 40
0.7078651685393258
 40
0.7191011235955056
 40
0.7191011235955056
 40
0.7191011235955056
 40
0.7191011235955056
 40
0.7303370786516854
 40
0.7303370786516854
 40
0.7303370786516854
 40
0.7303370786516854
 40
0.7415730337078652
 40
0.7415730337078652
 40
0.7415730337078652
 40
0.7415730337078652
 40
0.7528089887640449
 40
0.7528089887640449
 40
0.7528089887640449
 40
0.7528089887640449
 40
0.7640449438202247
 40
0.7640449438202247
 40
0.7640449438202247
 40
0.7640449438202247
 40
0.7752808988764045
 40
0.7752808988764045
 40
0.7752808988764045
 40
0.7752808988764045
 40
0.7865168539325843
 40
0.7865168539325843
 40
0.7865168539325843
 40
0.7865168539325843
 40
0.797752808988764
 40
0.797752808988764
 40
0.797752808988764
 40
0.797752808988764
 40
0.8089887640449438
 40
0.8089887640449438
 40
0.8089887640449438
 40
0.8089887640449438
 40
0.8202247191011236
 40
0.8202247191011236
 40
0.8202247191011236
 40
0.8202247191011236
 40
0.8314606741573034
 40
0.8314606741573034
 40
0.8314606741573034
 40
0.8314606741573034
 40
0.8426966292134831
 40
0.8426966292134831
 40
0.8426966292134831
 40
0.8426966292134831
 40
0.8539325842696629
 40
0.8539325842696629
 40
0.8539325842696629
 40
0.8539325842696629
 40
0.8651685393258427
 40
0.8651685393258427
 40
0.8651685393258427
 40
0.8651685393258427
 40
0.8764044943820225
 40
0.8764044943820225
 40
0.8764044943820225
 40
0.8764044943820225
 40
0.8876404494382022
 40
0.8876404494382022
 40
0.8876404494382022
 40
0.8876404494382022
 40
0.898876404494382
 40
0.898876404494382
 40
0.898876404494382
 40
0.898876404494382
 40
0.9101123595505618
 40
0.9101123595505618
 40
0.9101123595505618
 40
0.9101123595505618
 40
0.9213483146067416
 40
0.9213483146067416
 40
0.9213483146067416
 40
0.9213483146067416
 40
0.9325842696629213
 40
0.9325842696629213
 40
0.9325842696629213
 40
0.9325842696629213
 40
0.9438202247191011
 40
0.9438202247191011
 40
0.9438202247191011
 40
0.9438202247191011
 40
0.9550561797752809
 40
0.9550561797752809
 40
0.9550561797752809
 40
0.9550561797752809
 40
0.9662921348314607
 40
0.9662921348314607
 40
0.9662921348314607
 40
0.9662921348314607
 40
0.9775280898876404
 40
0.9775280898876404
 40
0.9775280898876404
 40
0.9775280898876404
 40
1.0
 40
1.0
 40
1.0
 40
1.0
 10
1038.6239592921165
 20
975.8862870000003
 30
0.0
 10
1038.6239592921165
 20
975.8862870000003
 30
0.0
 10
1298.0587592921165
 20
975.8862870000003
 30
0.0
 10
1298.0587592921165
 20
975.8862870000003
 30
0.0
 10
1298.0587592921165
 20
975.8862870000003
 30
0.0
 10
1298.0587592921165
 20
975.8862870000003
 30
0.0
 10
1302.8038592921166
 20
975.7200870000001
 30
0.0
 10
1302.8038592921166
 20
975.7200870000001
 30
0.0
 10
1302.8038592921166
 20
975.7200870000001
 30
0.0
 10
1302.8038592921166
 20
975.7200870000001
 30
0.0
 10
1307.5255592921164
 20
975.2228870000004
 30
0.0
 10
1307.5255592921164
 20
975.2228870000004
 30
0.0
 10
1307.5255592921164
 20
975.2228870000004
 30
0.0
 10
1307.5255592921164
 20
975.2228870000004
 30
0.0
 10
1312.2006592921166
 20
974.3988870000003
 30
0.0
 10
1312.2006592921166
 20
974.3988870000003
 30
0.0
 10
1312.2006592921166
 20
974.3988870000003
 30
0.0
 10
1312.2006592921166
 20
974.3988870000003
 30
0.0
 10
1316.8063592921164
 20
973.2509870000004
 30
0.0
 10
1316.8063592921164
 20
973.2509870000004
 30
0.0
 10
1316.8063592921164
 20
973.2509870000004
 30
0.0
 10
1316.8063592921164
 20
973.2509870000004
 30
0.0
 10
1321.3203592921166
 20
971.7827870000003
 30
0.0
 10
1321.3203592921166
 20
971.7827870000003
 30
0.0
 10
1321.3203592921166
 20
971.7827870000003
 30
0.0
 10
1321.3203592921166
 20
971.7827870000003
 30
0.0
 10
1325.7223592921166
 20
970.0039870000003
 30
0.0
 10
1325.7223592921166
 20
970.0039870000003
 30
0.0
 10
1325.7223592921166
 20
970.0039870000003
 30
0.0
 10
1325.7223592921166
 20
970.0039870000003
 30
0.0
 10
1329.9894592921164
 20
967.9210870000002
 30
0.0
 10
1329.9894592921164
 20
967.9210870000002
 30
0.0
 10
1329.9894592921164
 20
967.9210870000002
 30
0.0
 10
1329.9894592921164
 20
967.9210870000002
 30
0.0
 10
1334.1000592921166
 20
965.5487870000002
 30
0.0
 10
1334.1000592921166
 20
965.5487870000002
 30
0.0
 10
1334.1000592921166
 20
965.5487870000002
 30
0.0
 10
1334.1000592921166
 20
965.5487870000002
 30
0.0
 10
1338.0347592921166
 20
962.8921870000001
 30
0.0
 10
1338.0347592921166
 20
962.8921870000001
 30
0.0
 10
1338.0347592921166
 20
962.8921870000001
 30
0.0
 10
1338.0347592921166
 20
962.8921870000001
 30
0.0
 10
1341.7748592921166
 20
959.9690870000002
 30
0.0
 10
1341.7748592921166
 20
959.9690870000002
 30
0.0
 10
1341.7748592921166
 20
959.9690870000002
 30
0.0
 10
1341.7748592921166
 20
959.9690870000002
 30
0.0
 10
1345.3025592921165
 20
956.7919870000003
 30
0.0
 10
1345.3025592921165
 20
956.7919870000003
 30
0.0
 10
1345.3025592921165
 20
956.7919870000003
 30
0.0
 10
1345.3025592921165
 20
956.7919870000003
 30
0.0
 10
1348.5992592921166
 20
953.3772870000003
 30
0.0
 10
1348.5992592921166
 20
953.3772870000003
 30
0.0
 10
1348.5992592921166
 20
953.3772870000003
 30
0.0
 10
1348.5992592921166
 20
953.3772870000003
 30
0.0
 10
1383.9928592921165
 20
914.0499870000003
 30
0.0
 10
1383.9928592921165
 20
914.0499870000003
 30
0.0
 10
1383.9928592921165
 20
914.0499870000003
 30
0.0
 10
1383.9928592921165
 20
914.0499870000003
 30
0.0
 10
1389.6121592921165
 20
907.6658870000003
 30
0.0
 10
1389.6121592921165
 20
907.6658870000003
 30
0.0
 10
1389.6121592921165
 20
907.6658870000003
 30
0.0
 10
1389.6121592921165
 20
907.6658870000003
 30
0.0
 10
1395.0864592921166
 20
901.1546870000002
 30
0.0
 10
1395.0864592921166
 20
901.1546870000002
 30
0.0
 10
1395.0864592921166
 20
901.1546870000002
 30
0.0
 10
1395.0864592921166
 20
901.1546870000002
 30
0.0
 10
1400.4128592921165
 20
894.5233870000002
 30
0.0
 10
1400.4128592921165
 20
894.5233870000002
 30
0.0
 10
1400.4128592921165
 20
894.5233870000002
 30
0.0
 10
1400.4128592921165
 20
894.5233870000002
 30
0.0
 10
1405.5901592921166
 20
887.7744870000001
 30
0.0
 10
1405.5901592921166
 20
887.7744870000001
 30
0.0
 10
1405.5901592921166
 20
887.7744870000001
 30
0.0
 10
1405.5901592921166
 20
887.7744870000001
 30
0.0
 10
1410.6139592921165
 20
880.9110870000002
 30
0.0
 10
1410.6139592921165
 20
880.9110870000002
 30
0.0
 10
1410.6139592921165
 20
880.9110870000002
 30
0.0
 10
1410.6139592921165
 20
880.9110870000002
 30
0.0
 10
1415.4821592921166
 20
873.9365870000001
 30
0.0
 10
1415.4821592921166
 20
873.9365870000001
 30
0.0
 10
1415.4821592921166
 20
873.9365870000001
 30
0.0
 10
1415.4821592921166
 20
873.9365870000001
 30
0.0
 10
1420.1932592921166
 20
866.8547870000002
 30
0.0
 10
1420.1932592921166
 20
866.8547870000002
 30
0.0
 10
1420.1932592921166
 20
866.8547870000002
 30
0.0
 10
1420.1932592921166
 20
866.8547870000002
 30
0.0
 10
1424.7452592921165
 20
859.6694870000003
 30
0.0
 10
1424.7452592921165
 20
859.6694870000003
 30
0.0
 10
1424.7452592921165
 20
859.6694870000003
 30
0.0
 10
1424.7452592921165
 20
859.6694870000003
 30
0.0
 10
1429.1325592921166
 20
852.3838870000002
 30
0.0
 10
1429.1325592921166
 20
852.3838870000002
 30
0.0
 10
1429.1325592921166
 20
852.3838870000002
 30
0.0
 10
1429.1325592921166
 20
852.3838870000002
 30
0.0
 10
1433.3571592921166
 20
845.0004870000002
 30
0.0
 10
1433.3571592921166
 20
845.0004870000002
 30
0.0
 10
1433.3571592921166
 20
845.0004870000002
 30
0.0
 10
1433.3571592921166
 20
845.0004870000002
 30
0.0
 10
1437.4154592921166
 20
837.5253870000001
 30
0.0
 10
1437.4154592921166
 20
837.5253870000001
 30
0.0
 10
1437.4154592921166
 20
837.5253870000001
 30
0.0
 10
1437.4154592921166
 20
837.5253870000001
 30
0.0
 10
1441.3040592921166
 20
829.9610870000001
 30
0.0
 10
1441.3040592921166
 20
829.9610870000001
 30
0.0
 10
1441.3040592921166
 20
829.9610870000001
 30
0.0
 10
1441.3040592921166
 20
829.9610870000001
 30
0.0
 10
1468.3412592921165
 20
775.8861870000003
 30
0.0
 10
1468.3412592921165
 20
775.8861870000003
 30
0.0
 10
1468.3412592921165
 20
775.8861870000003
 30
0.0
 10
1468.3412592921165
 20
775.8861870000003
 30
0.0
 10
1503.3421592921165
 20
675.8871870000003
 30
0.0
 10
1503.3421592921165
 20
675.8871870000003
 30
0.0
 10
1503.3421592921165
 20
675.8871870000003
 30
0.0
 10
1503.3421592921165
 20
675.8871870000003
 30
0.0
 10
1518.3420592921166
 20
625.8863870000002
 30
0.0
 10
1518.3420592921166
 20
625.8863870000002
 30
0.0
 10
1518.3420592921166
 20
625.8863870000002
 30
0.0
 10
1518.3420592921166
 20
625.8863870000002
 30
0.0
 10
1520.7964592921167
 20
617.5496870000002
 30
0.0
 10
1520.7964592921167
 20
617.5496870000002
 30
0.0
 10
1520.7964592921167
 20
617.5496870000002
 30
0.0
 10
1520.7964592921167
 20
617.5496870000002
 30
0.0
 10
1523.1707592921166
 20
609.1917870000002
 30
0.0
 10
1523.1707592921166
 20
609.1917870000002
 30
0.0
 10
1523.1707592921166
 20
609.1917870000002
 30
0.0
 10
1523.1707592921166
 20
609.1917870000002
 30
0.0
 10
1525.4629592921165
 20
600.8084870000002
 30
0.0
 10
1525.4629592921165
 20
600.8084870000002
 30
0.0
 10
1525.4629592921165
 20
600.8084870000002
 30
0.0
 10
1525.4629592921165
 20
600.8084870000002
 30
0.0
 10
1527.6710592921165
 20
592.4038870000002
 30
0.0
 10
1527.6710592921165
 20
592.4038870000002
 30
0.0
 10
1527.6710592921165
 20
592.4038870000002
 30
0.0
 10
1527.6710592921165
 20
592.4038870000002
 30
0.0
 10
1529.7984592921166
 20
583.9779870000002
 30
0.0
 10
1529.7984592921166
 20
583.9779870000002
 30
0.0
 10
1529.7984592921166
 20
583.9779870000002
 30
0.0
 10
1529.7984592921166
 20
583.9779870000002
 30
0.0
 10
1531.8403592921165
 20
575.5302870000003
 30
0.0
 10
1531.8403592921165
 20
575.5302870000003
 30
0.0
 10
1531.8403592921165
 20
575.5302870000003
 30
0.0
 10
1531.8403592921165
 20
575.5302870000003
 30
0.0
 10
1533.7995592921166
 20
567.0648870000002
 30
0.0
 10
1533.7995592921166
 20
567.0648870000002
 30
0.0
 10
1533.7995592921166
 20
567.0648870000002
 30
0.0
 10
1533.7995592921166
 20
567.0648870000002
 30
0.0
 10
1535.6752592921166
 20
558.5797870000001
 30
0.0
 10
1535.6752592921166
 20
558.5797870000001
 30
0.0
 10
1535.6752592921166
 20
558.5797870000001
 30
0.0
 10
1535.6752592921166
 20
558.5797870000001
 30
0.0
 10
1537.4682592921165
 20
550.0768870000002
 30
0.0
 10
1537.4682592921165
 20
550.0768870000002
 30
0.0
 10
1537.4682592921165
 20
550.0768870000002
 30
0.0
 10
1537.4682592921165
 20
550.0768870000002
 30
0.0
 10
1539.1756592921165
 20
541.5556870000003
 30
0.0
 10
1539.1756592921165
 20
541.5556870000003
 30
0.0
 10
1539.1756592921165
 20
541.5556870000003
 30
0.0
 10
1539.1756592921165
 20
541.5556870000003
 30
0.0
 10
1540.8008592921165
 20
533.0188870000002
 30
0.0
 10
1540.8008592921165
 20
533.0188870000002
 30
0.0
 10
1540.8008592921165
 20
533.0188870000002
 30
0.0
 10
1540.8008592921165
 20
533.0188870000002
 30
0.0
 10
1542.3399592921164
 20
524.4657870000001
 30
0.0
 10
1542.3399592921164
 20
524.4657870000001
 30
0.0
 10
1542.3399592921164
 20
524.4657870000001
 30
0.0
 10
1542.3399592921164
 20
524.4657870000001
 30
0.0
 10
1568.3407592921164
 20
375.88598700000017
 30
0.0
 10
1568.3407592921164
 20
375.88598700000017
 30
0.0
 10
1568.3407592921164
 20
375.88598700000017
 30
0.0
 10
1568.3407592921164
 20
375.88598700000017
 30
0.0
 10
1588.3412592921165
 20
175.8858870000002
 30
0.0
 10
1588.3412592921165
 20
175.8858870000002
 30
0.0
 10
1588.3412592921165
 20
175.8858870000002
 30
0.0
 10
1588.3412592921165
 20
175.8858870000002
 30
0.0
 10
1590.5918592921166
 20
130.88608700000015
 30
0.0
 10
1590.5918592921166
 20
130.88608700000015
 30
0.0
 10
1590.5918592921166
 20
130.88608700000015
 30
0.0
 10
1590.5918592921166
 20
130.88608700000015
 30
0.0
 10
746.0923592921165
 20
130.88608700000015
 30
0.0
 10
746.0923592921165
 20
130.88608700000015
 30
0.0
 10
746.0923592921165
 20
130.88608700000015
 30
0.0
 10
746.0923592921165
 20
130.88608700000015
 30
0.0
 10
748.3414592921165
 20
175.8858870000002
 30
0.0
 10
748.3414592921165
 20
175.8858870000002
 30
0.0
 10
748.3414592921165
 20
175.8858870000002
 30
0.0
 10
748.3414592921165
 20
175.8858870000002
 30
0.0
 10
768.3423592921165
 20
375.88598700000017
 30
0.0
 10
768.3423592921165
 20
375.88598700000017
 30
0.0
 10
768.3423592921165
 20
375.88598700000017
 30
0.0
 10
768.3423592921165
 20
375.88598700000017
 30
0.0
 10
794.3446592921166
 20
524.4657870000001
 30
0.0
 10
794.3446592921166
 20
524.4657870000001
 30
0.0
 10
794.3446592921166
 20
524.4657870000001
 30
0.0
 10
794.3446592921166
 20
524.4657870000001
 30
0.0
 10
795.8837592921166
 20
533.0188870000002
 30
0.0
 10
795.8837592921166
 20
533.0188870000002
 30
0.0
 10
795.8837592921166
 20
533.0188870000002
 30
0.0
 10
795.8837592921166
 20
533.0188870000002
 30
0.0
 10
797.5090592921165
 20
541.5556870000003
 30
0.0
 10
797.5090592921165
 20
541.5556870000003
 30
0.0
 10
797.5090592921165
 20
541.5556870000003
 30
0.0
 10
797.5090592921165
 20
541.5556870000003
 30
0.0
 10
799.2164592921165
 20
550.0768870000002
 30
0.0
 10
799.2164592921165
 20
550.0768870000002
 30
0.0
 10
799.2164592921165
 20
550.0768870000002
 30
0.0
 10
799.2164592921165
 20
550.0768870000002
 30
0.0
 10
801.0094592921165
 20
558.5797870000001
 30
0.0
 10
801.0094592921165
 20
558.5797870000001
 30
0.0
 10
801.0094592921165
 20
558.5797870000001
 30
0.0
 10
801.0094592921165
 20
558.5797870000001
 30
0.0
 10
802.8850592921165
 20
567.0648870000002
 30
0.0
 10
802.8850592921165
 20
567.0648870000002
 30
0.0
 10
802.8850592921165
 20
567.0648870000002
 30
0.0
 10
802.8850592921165
 20
567.0648870000002
 30
0.0
 10
804.8443592921165
 20
575.5302870000003
 30
0.0
 10
804.8443592921165
 20
575.5302870000003
 30
0.0
 10
804.8443592921165
 20
575.5302870000003
 30
0.0
 10
804.8443592921165
 20
575.5302870000003
 30
0.0
 10
806.8861592921165
 20
583.9779870000002
 30
0.0
 10
806.8861592921165
 20
583.9779870000002
 30
0.0
 10
806.8861592921165
 20
583.9779870000002
 30
0.0
 10
806.8861592921165
 20
583.9779870000002
 30
0.0
 10
809.0116592921165
 20
592.4038870000002
 30
0.0
 10
809.0116592921165
 20
592.4038870000002
 30
0.0
 10
809.0116592921165
 20
592.4038870000002
 30
0.0
 10
809.0116592921165
 20
592.4038870000002
 30
0.0
 10
811.2217592921165
 20
600.8084870000002
 30
0.0
 10
811.2217592921165
 20
600.8084870000002
 30
0.0
 10
811.2217592921165
 20
600.8084870000002
 30
0.0
 10
811.2217592921165
 20
600.8084870000002
 30
0.0
 10
813.5119592921164
 20
609.1917870000002
 30
0.0
 10
813.5119592921164
 20
609.1917870000002
 30
0.0
 10
813.5119592921164
 20
609.1917870000002
 30
0.0
 10
813.5119592921164
 20
609.1917870000002
 30
0.0
 10
815.8862592921165
 20
617.5496870000002
 30
0.0
 10
815.8862592921165
 20
617.5496870000002
 30
0.0
 10
815.8862592921165
 20
617.5496870000002
 30
0.0
 10
815.8862592921165
 20
617.5496870000002
 30
0.0
 10
818.3426592921165
 20
625.8863870000002
 30
0.0
 10
818.3426592921165
 20
625.8863870000002
 30
0.0
 10
818.3426592921165
 20
625.8863870000002
 30
0.0
 10
818.3426592921165
 20
625.8863870000002
 30
0.0
 10
833.3425592921164
 20
675.8871870000003
 30
0.0
 10
833.3425592921164
 20
675.8871870000003
 30
0.0
 10
833.3425592921164
 20
675.8871870000003
 30
0.0
 10
833.3425592921164
 20
675.8871870000003
 30
0.0
 10
868.3429592921166
 20
775.8861870000003
 30
0.0
 10
868.3429592921166
 20
775.8861870000003
 30
0.0
 10
868.3429592921166
 20
775.8861870000003
 30
0.0
 10
868.3429592921166
 20
775.8861870000003
 30
0.0
 10
895.3785592921165
 20
829.9610870000001
 30
0.0
 10
895.3785592921165
 20
829.9610870000001
 30
0.0
 10
895.3785592921165
 20
829.9610870000001
 30
0.0
 10
895.3785592921165
 20
829.9610870000001
 30
0.0
 10
899.2691592921165
 20
837.5253870000001
 30
0.0
 10
899.2691592921165
 20
837.5253870000001
 30
0.0
 10
899.2691592921165
 20
837.5253870000001
 30
0.0
 10
899.2691592921165
 20
837.5253870000001
 30
0.0
 10
903.3255592921165
 20
845.0004870000002
 30
0.0
 10
903.3255592921165
 20
845.0004870000002
 30
0.0
 10
903.3255592921165
 20
845.0004870000002
 30
0.0
 10
903.3255592921165
 20
845.0004870000002
 30
0.0
 10
907.5501592921165
 20
852.3838870000002
 30
0.0
 10
907.5501592921165
 20
852.3838870000002
 30
0.0
 10
907.5501592921165
 20
852.3838870000002
 30
0.0
 10
907.5501592921165
 20
852.3838870000002
 30
0.0
 10
911.9395592921165
 20
859.6694870000003
 30
0.0
 10
911.9395592921165
 20
859.6694870000003
 30
0.0
 10
911.9395592921165
 20
859.6694870000003
 30
0.0
 10
911.9395592921165
 20
859.6694870000003
 30
0.0
 10
916.4894592921165
 20
866.8547870000002
 30
0.0
 10
916.4894592921165
 20
866.8547870000002
 30
0.0
 10
916.4894592921165
 20
866.8547870000002
 30
0.0
 10
916.4894592921165
 20
866.8547870000002
 30
0.0
 10
921.2024592921165
 20
873.9365870000001
 30
0.0
 10
921.2024592921165
 20
873.9365870000001
 30
0.0
 10
921.2024592921165
 20
873.9365870000001
 30
0.0
 10
921.2024592921165
 20
873.9365870000001
 30
0.0
 10
926.0707592921165
 20
880.9110870000002
 30
0.0
 10
926.0707592921165
 20
880.9110870000002
 30
0.0
 10
926.0707592921165
 20
880.9110870000002
 30
0.0
 10
926.0707592921165
 20
880.9110870000002
 30
0.0
 10
931.0944592921165
 20
887.7744870000001
 30
0.0
 10
931.0944592921165
 20
887.7744870000001
 30
0.0
 10
931.0944592921165
 20
887.7744870000001
 30
0.0
 10
931.0944592921165
 20
887.7744870000001
 30
0.0
 10
936.2718592921165
 20
894.5233870000002
 30
0.0
 10
936.2718592921165
 20
894.5233870000002
 30
0.0
 10
936.2718592921165
 20
894.5233870000002
 30
0.0
 10
936.2718592921165
 20
894.5233870000002
 30
0.0
 10
941.5976592921165
 20
901.1546870000002
 30
0.0
 10
941.5976592921165
 20
901.1546870000002
 30
0.0
 10
941.5976592921165
 20
901.1546870000002
 30
0.0
 10
941.5976592921165
 20
901.1546870000002
 30
0.0
 10
947.0720592921166
 20
907.6658870000003
 30
0.0
 10
947.0720592921166
 20
907.6658870000003
 30
0.0
 10
947.0720592921166
 20
907.6658870000003
 30
0.0
 10
947.0720592921166
 20
907.6658870000003
 30
0.0
 10
952.6913592921165
 20
914.0499870000003
 30
0.0
 10
952.6913592921165
 20
914.0499870000003
 30
0.0
 10
952.6913592921165
 20
914.0499870000003
 30
0.0
 10
952.6913592921165
 20
914.0499870000003
 30
0.0
 10
988.0833592921165
 20
953.3772870000003
 30
0.0
 10
988.0833592921165
 20
953.3772870000003
 30
0.0
 10
988.0833592921165
 20
953.3772870000003
 30
0.0
 10
988.0833592921165
 20
953.3772870000003
 30
0.0
 10
991.3800592921166
 20
956.7919870000003
 30
0.0
 10
991.3800592921166
 20
956.7919870000003
 30
0.0
 10
991.3800592921166
 20
956.7919870000003
 30
0.0
 10
991.3800592921166
 20
956.7919870000003
 30
0.0
 10
994.9078592921165
 20
959.9690870000002
 30
0.0
 10
994.9078592921165
 20
959.9690870000002
 30
0.0
 10
994.9078592921165
 20
959.9690870000002
 30
0.0
 10
994.9078592921165
 20
959.9690870000002
 30
0.0
 10
998.6479592921165
 20
962.8921870000001
 30
0.0
 10
998.6479592921165
 20
962.8921870000001
 30
0.0
 10
998.6479592921165
 20
962.8921870000001
 30
0.0
 10
998.6479592921165
 20
962.8921870000001
 30
0.0
 10
1002.5847592921166
 20
965.5487870000002
 30
0.0
 10
1002.5847592921166
 20
965.5487870000002
 30
0.0
 10
1002.5847592921166
 20
965.5487870000002
 30
0.0
 10
1002.5847592921166
 20
965.5487870000002
 30
0.0
 10
1006.6946592921165
 20
967.9210870000002
 30
0.0
 10
1006.6946592921165
 20
967.9210870000002
 30
0.0
 10
1006.6946592921165
 20
967.9210870000002
 30
0.0
 10
1006.6946592921165
 20
967.9210870000002
 30
0.0
 10
1010.9608592921165
 20
970.0039870000003
 30
0.0
 10
1010.9608592921165
 20
970.0039870000003
 30
0.0
 10
1010.9608592921165
 20
970.0039870000003
 30
0.0
 10
1010.9608592921165
 20
970.0039870000003
 30
0.0
 10
1015.3623592921165
 20
971.7827870000003
 30
0.0
 10
1015.3623592921165
 20
971.7827870000003
 30
0.0
 10
1015.3623592921165
 20
971.7827870000003
 30
0.0
 10
1015.3623592921165
 20
971.7827870000003
 30
0.0
 10
1019.8782592921166
 20
973.2509870000004
 30
0.0
 10
1019.8782592921166
 20
973.2509870000004
 30
0.0
 10
1019.8782592921166
 20
973.2509870000004
 30
0.0
 10
1019.8782592921166
 20
973.2509870000004
 30
0.0
 10
1024.4840592921164
 20
974.3988870000003
 30
0.0
 10
1024.4840592921164
 20
974.3988870000003
 30
0.0
 10
1024.4840592921164
 20
974.3988870000003
 30
0.0
 10
1024.4840592921164
 20
974.3988870000003
 30
0.0
 10
1029.1591592921166
 20
975.2228870000004
 30
0.0
 10
1029.1591592921166
 20
975.2228870000004
 30
0.0
 10
1029.1591592921166
 20
975.2228870000004
 30
0.0
 10
1029.1591592921166
 20
975.2228870000004
 30
0.0
 10
1033.8808592921166
 20
975.7200870000001
 30
0.0
 10
1033.8808592921166
 20
975.7200870000001
 30
0.0
 10
1033.8808592921166
 20
975.7200870000001
 30
0.0
 10
1033.8808592921166
 20
975.7200870000001
 30
0.0
 10
1038.6239592921165
 20
975.8862870000003
 30
0.0
 10
1038.6239592921165
 20
975.8862870000003
 30
0.0
  0
SPLINE
  5
6F
330
17
100
AcDbEntity
  8
_home_sasha_proj_2025_eva_layout_dxf_samples_ДЕКА_KUGOO_M4_PRO_JILONG_1_layer 2
 62
242
370
158
100
AcDbSpline
 70
11
 71
3
 72
168
 73
164
 74
0
 42
1e-09
 40
0.0
 40
0.0
 40
0.0
 40
0.0
 40
0.0238095238095238
 40
0.0238095238095238
 40
0.0238095238095238
 40
0.0238095238095238
 40
0.0476190476190476
 40
0.0476190476190476
 40
0.0476190476190476
 40
0.0476190476190476
 40
0.0714285714285714
 40
0.0714285714285714
 40
0.0714285714285714
 40
0.0714285714285714
 40
0.0952380952380952
 40
0.0952380952380952
 40
0.0952380952380952
 40
0.0952380952380952
 40
0.119047619047619
 40
0.119047619047619
 40
0.119047619047619
 40
0.119047619047619
 40
0.1428571428571428
 40
0.1428571428571428
 40
0.1428571428571428
 40
0.1428571428571428
 40
0.1666666666666667
 40
0.1666666666666667
 40
0.1666666666666667
 40
0.1666666666666667
 40
0.1904761904761905
 40
0.1904761904761905
 40
0.1904761904761905
 40
0.1904761904761905
 40
0.2142857142857143
 40
0.2142857142857143
 40
0.2142857142857143
 40
0.2142857142857143
 40
0.2380952380952381
 40
0.2380952380952381
 40
0.2380952380952381
 40
0.2380952380952381
 40
0.2619047619047619
 40
0.2619047619047619
 40
0.2619047619047619
 40
0.2619047619047619
 40
0.2857142857142857
 40
0.2857142857142857
 40
0.2857142857142857
 40
0.2857142857142857
 40
0.3095238095238095
 40
0.3095238095238095
 40
0.3095238095238095
 40
0.3095238095238095
 40
0.3333333333333333
 40
0.3333333333333333
 40
0.3333333333333333
 40
0.3333333333333333
 40
0.3571428571428572
 40
0.3571428571428572
 40
0.3571428571428572
 40
0.3571428571428572
 40
0.3809523809523809
 40
0.3809523809523809
 40
0.3809523809523809
 40
0.3809523809523809
 40
0.4047619047619048
 40
0.4047619047619048
 40
0.4047619047619048
 40
0.4047619047619048
 40
0.4285714285714285
 40
0.4285714285714285
 40
0.4285714285714285
 40
0.4285714285714285
 40
0.4523809523809524
 40
0.4523809523809524
 40
0.4523809523809524
 40
0.4523809523809524
 40
0.4761904761904762
 40
0.4761904761904762
 40
0.4761904761904762
 40
0.4761904761904762
 40
0.5
 40
0.5
 40
0.5
 40
0.5
 40
0.5238095238095238
 40
0.5238095238095238
 40
0.5238095238095238
 40
0.5238095238095238
 40
0.5476190476190477
 40
0.5476190476190477
 40
0.5476190476190477
 40
0.5476190476190477
 40
0.5714285714285714
 40
0.5714285714285714
 40
0.5714285714285714
 40
0.5714285714285714
 40
0.5952380952380952
 40
0.5952380952380952
 40
0.5952380952380952
 40
0.5952380952380952
 40
0.6190476190476191
 40
0.6190476190476191
 40
0.6190476190476191
 40
0.6190476190476191
 40
0.6428571428571429
 40
0.6428571428571429
 40
0.6428571428571429
 40
0.6428571428571429
 40
0.6666666666666666
 40
0.6666666666666666
 40
0.6666666666666666
 40
0.6666666666666666
 40
0.6904761904761905
 40
0.6904761904761905
 40
0.6904761904761905
 40
0.6904761904761905
 40
0.7142857142857143
 40
0.7142857142857143
 40
0.7142857142857143
 40
0.7142857142857143
 40
0.7380952380952381
 40
0.7380952380952381
 40
0.7380952380952381
 40
0.7380952380952381
 40
0.7619047619047619
 40
0.7619047619047619
 40
0.7619047619047619
 40
0.7619047619047619
 40
0.7857142857142857
 40
0.7857142857142857
 40
0.7857142857142857
 40
0.7857142857142857
 40
0.8095238095238095
 40
0.8095238095238095
 40
0.8095238095238095
 40
0.8095238095238095
 40
0.8333333333333334
 40
0.8333333333333334
 40
0.8333333333333334
 40
0.8333333333333334
 40
0.8571428571428571
 40
0.8571428571428571
 40
0.8571428571428571
 40
0.8571428571428571
 40
0.8809523809523809
 40
0.8809523809523809
 40
0.8809523809523809
 40
0.8809523809523809
 40
0.9047619047619048
 40
0.9047619047619048
 40
0.9047619047619048
 40
0.9047619047619048
 40
0.9285714285714286
 40
0.9285714285714286
 40
0.9285714285714286
 40
0.9285714285714286
 40
0.9523809523809523
 40
0.9523809523809523
 40
0.9523809523809523
 40
0.9523809523809523
 40
1.0
 40
1.0
 40
1.0
 40
1.0
 10
1849.8141289944804
 20
571.2231637355618
 30
0.0
 10
1849.8141289944804
 20
571.2231637355618
 30
0.0
 10
1832.4808289944801
 20
571.1134637355618
 30
0.0
 10
1832.4808289944801
 20
571.1134637355618
 30
0.0
 10
1832.4808289944801
 20
571.1134637355618
 30
0.0
 10
1827.9997289944802
 20
571.0850637355618
 30
0.0
 10
1824.45202899448
 20
567.4499637355618
 30
0.0
 10
1824.5328289944803
 20
562.9694637355618
 30
0.0
 10
1824.5328289944803
 20
562.9694637355618
 30
0.0
 10
1824.6389289944802
 20
557.0800637355618
 30
0.0
 10
1824.56912899448
 20
526.7253637355618
 30
0.0
 10
1825.8373289944805
 20
523.5297637355618
 30
0.0
 10
1825.8373289944805
 20
523.5297637355618
 30
0.0
 10
1828.0159289944802
 20
518.0399637355617
 30
0.0
 10
1830.6883289944801
 20
517.7309637355618
 30
0.0
 10
1831.48032899448
 20
509.83536373556177
 30
0.0
 10
1831.48032899448
 20
509.83536373556177
 30
0.0
 10
1831.9260289944802
 20
505.3913637355618
 30
0.0
 10
1831.9373289944804
 20
497.67526373556177
 30
0.0
 10
1825.8747289944802
 20
497.6066637355618
 30
0.0
 10
1825.8747289944802
 20
497.6066637355618
 30
0.0
 10
1817.3248289944802
 20
497.5098637355618
 30
0.0
 10
1773.2551289944802
 20
496.3497637355618
 30
0.0
 10
1769.1626289944804
 20
498.5860637355618
 30
0.0
 10
1769.1626289944804
 20
498.5860637355618
 30
0.0
 10
1766.0816289944803
 20
501.2252637355618
 30
0.0
 10
1767.6219289944804
 20
514.0932637355618
 30
0.0
 10
1769.9024289944803
 20
517.8000637355618
 30
0.0
 10
1769.9024289944803
 20
517.8000637355618
 30
0.0
 10
1773.6578289944803
 20
523.9042637355618
 30
0.0
 10
1775.11702899448
 20
520.3994637355618
 30
0.0
 10
1774.9416289944804
 20
529.8138637355619
 30
0.0
 10
1774.9416289944804
 20
529.8138637355619
 30
0.0
 10
1774.7987289944801
 20
537.4826637355618
 30
0.0
 10
1775.8359289944804
 20
546.2110637355618
 30
0.0
 10
1775.70112899448
 20
553.8799637355618
 30
0.0
 10
1775.70112899448
 20
553.8799637355618
 30
0.0
 10
1775.6553289944802
 20
556.4904637355618
 30
0.0
 10
1774.5774289944804
 20
557.8031637355618
 30
0.0
 10
1773.36162899448
 20
558.9338637355618
 30
0.0
 10
1773.36162899448
 20
558.9338637355618
 30
0.0
 10
1771.2187289944802
 20
560.9266637355618
 30
0.0
 10
1766.8235289944803
 20
559.1476637355618
 30
0.0
 10
1765.07632899448
 20
560.6764637355618
 30
0.0
 10
1765.07632899448
 20
560.6764637355618
 30
0.0
 10
1763.7203289944803
 20
561.8628637355619
 30
0.0
 10
1763.26722899448
 20
563.6094637355618
 30
0.0
 10
1763.1297289944803
 20
564.5722637355618
 30
0.0
 10
1763.1297289944803
 20
564.5722637355618
 30
0.0
 10
1762.8323289944803
 20
566.6550637355617
 30
0.0
 10
1762.3720289944802
 20
569.9252637355618
 30
0.0
 10
1761.2686289944802
 20
570.9612637355617
 30
0.0
 10
1761.2686289944802
 20
570.9612637355617
 30
0.0
 10
1760.69662899448
 20
571.4982637355617
 30
0.0
 10
1747.9407289944804
 20
571.5797637355618
 30
0.0
 10
1746.4727289944801
 20
571.5185637355619
 30
0.0
 10
1746.4727289944801
 20
571.5185637355619
 30
0.0
 10
1741.3741289944803
 20
571.3072637355617
 30
0.0
 10
1738.1111289944804
 20
572.5726637355617
 30
0.0
 10
1738.0286289944804
 20
567.9947637355617
 30
0.0
 10
1738.0286289944804
 20
567.9947637355617
 30
0.0
 10
1737.9561289944802
 20
563.9723637355618
 30
0.0
 10
1738.12222899448
 20
556.8844637355618
 30
0.0
 10
1738.1309289944804
 20
555.9822637355618
 30
0.0
 10
1738.1309289944804
 20
555.9822637355618
 30
0.0
 10
1738.1905289944805
 20
549.8487637355618
 30
0.0
 10
1738.4307289944802
 20
542.7624637355618
 30
0.0
 10
1737.3592289944802
 20
541.9551637355619
 30
0.0
 10
1737.3592289944802
 20
541.9551637355619
 30
0.0
 10
1734.6372289944804
 20
539.9043637355618
 30
0.0
 10
1726.7976289944802
 20
543.3814637355617
 30
0.0
 10
1723.8775289944804
 20
541.6981637355618
 30
0.0
 10
1723.8775289944804
 20
541.6981637355618
 30
0.0
 10
1722.5942289944803
 20
540.9582637355618
 30
0.0
 10
1721.3705289944803
 20
530.9461637355619
 30
0.0
 10
1721.0098289944801
 20
529.1968637355618
 30
0.0
 10
1721.0098289944801
 20
529.1968637355618
 30
0.0
 10
1717.0344289944803
 20
509.9213637355618
 30
0.0
 10
1713.2680289944803
 20
490.1059637355618
 30
0.0
 10
1710.39152899448
 20
470.6445637355618
 30
0.0
 10
1710.39152899448
 20
470.6445637355618
 30
0.0
 10
1709.7893289944802
 20
466.5305637355618
 30
0.0
 10
1705.81802899448
 20
440.4125637355618
 30
0.0
 10
1705.7287289944804
 20
438.5965637355618
 30
0.0
 10
1705.7287289944804
 20
438.5965637355618
 30
0.0
 10
1705.4217289944802
 20
432.3554637355618
 30
0.0
 10
1704.4903289944803
 20
418.32156373556177
 30
0.0
 10
1704.4772289944801
 20
412.9727637355618
 30
0.0
 10
1704.4772289944801
 20
412.9727637355618
 30
0.0
 10
1704.4772289944801
 20
412.9727637355618
 30
0.0
 10
1703.7947289944802
 20
149.09386373556185
 30
0.0
 10
1703.7947289944802
 20
149.09386373556185
 30
0.0
 10
1703.7947289944802
 20
149.09386373556185
 30
0.0
 10
1703.7829289944805
 20
144.54916373556182
 30
0.0
 10
1700.1223289944803
 20
143.14496373556176
 30
0.0
 10
1700.8074289944805
 20
138.2140637355618
 30
0.0
 10
1700.8074289944805
 20
138.2140637355618
 30
0.0
 10
1700.8074289944805
 20
138.2140637355618
 30
0.0
 10
1719.03002899448
 20
7.05166373556176
 30
0.0
 10
1719.03002899448
 20
7.05166373556176
 30
0.0
 10
1719.03002899448
 20
7.05166373556176
 30
0.0
 10
1719.58062899448
 20
3.08876373556177
 30
0.0
 10
1722.9015289944803
 20
0.1785637355618519
 30
0.0
 10
1726.9024289944803
 20
0.15276373556184808
 30
0.0
 10
1726.9024289944803
 20
0.15276373556184808
 30
0.0
 10
1726.9024289944803
 20
0.15276373556184808
 30
0.0
 10
1764.32092899448
 20
-0.08813626443816247
 30
0.0
 10
1764.32092899448
 20
-0.08813626443816247
 30
0.0
 10
1764.32092899448
 20
-0.08813626443816247
 30
0.0
 10
1771.9623289944805
 20
-0.13733626443820413
 30
0.0
 10
1769.0186289944802
 20
6.177163735561749
 30
0.0
 10
1776.6064289944804
 20
6.108563735561802
 30
0.0
 10
1776.6064289944804
 20
6.108563735561802
 30
0.0
 10
1781.9744289944804
 20
6.055763735561754
 30
0.0
 10
1819.38682899448
 20
5.978763735561756
 30
0.0
 10
1821.3256289944804
 20
5.390863735561766
 30
0.0
 10
1821.3256289944804
 20
5.390863735561766
 30
0.0
 10
1824.2616289944801
 20
4.500763735561804
 30
0.0
 10
1825.7843289944801
 20
0.20996373556181425
 30
0.0
 10
1827.0269289944802
 20
-0.45593626443815083
 30
0.0
 10
1827.0269289944802
 20
-0.45593626443815083
 30
0.0
 10
1828.9420289944803
 20
-1.4822362644382565
 30
0.0
 10
1868.3471289944803
 20
-1.2920362644382521
 30
0.0
 10
1873.8884289944801
 20
-1.334836264438195
 30
0.0
 10
1873.8884289944801
 20
-1.334836264438195
 30
0.0
 10
1877.9889289944801
 20
-1.3665362644381958
 30
0.0
 10
1881.4184289944803
 20
1.6608637355617475
 30
0.0
 10
1881.89582899448
 20
5.733563735561802
 30
0.0
 10
1881.89582899448
 20
5.733563735561802
 30
0.0
 10
1881.89582899448
 20
5.733563735561802
 30
0.0
 10
1897.41402899448
 20
138.12676373556178
 30
0.0
 10
1897.41402899448
 20
138.12676373556178
 30
0.0
 10
1897.41402899448
 20
138.12676373556178
 30
0.0
 10
1898.0874289944802
 20
143.87116373556182
 30
0.0
 10
1893.59162899448
 20
144.24286373556185
 30
0.0
 10
1893.5112289944802
 20
149.56126373556185
 30
0.0
 10
1893.5112289944802
 20
149.56126373556185
 30
0.0
 10
1893.5112289944802
 20
149.56126373556185
 30
0.0
 10
1889.5319289944803
 20
412.6383637355618
 30
0.0
 10
1889.5319289944803
 20
412.6383637355618
 30
0.0
 10
1889.5319289944803
 20
412.6383637355618
 30
0.0
 10
1889.4256289944803
 20
419.60796373556184
 30
0.0
 10
1884.7439289944803
 20
478.9682637355618
 30
0.0
 10
1883.97652899448
 20
483.6263637355618
 30
0.0
 10
1883.97652899448
 20
483.6263637355618
 30
0.0
 10
1883.19412899448
 20
488.3751637355618
 30
0.0
 10
1878.0759289944801
 20
520.3508637355618
 30
0.0
 10
1877.5755289944802
 20
522.2269637355619
 30
0.0
 10
1877.5755289944802
 20
522.2269637355619
 30
0.0
 10
1873.30162899448
 20
538.2506637355618
 30
0.0
 10
1874.1425289944802
 20
544.2141637355618
 30
0.0
 10
1862.96192899448
 20
543.5689637355617
 30
0.0
 10
1862.96192899448
 20
543.5689637355617
 30
0.0
 10
1860.9435289944802
 20
543.4524637355619
 30
0.0
 10
1858.49002899448
 20
543.7860637355618
 30
0.0
 10
1857.9382289944804
 20
546.0339637355619
 30
0.0
 10
1857.9382289944804
 20
546.0339637355619
 30
0.0
 10
1857.9382289944804
 20
546.0339637355619
 30
0.0
 10
1857.8646289944802
 20
563.2575637355618
 30
0.0
 10
1857.8646289944802
 20
563.2575637355618
 30
0.0
 10
1857.8646289944802
 20
563.2575637355618
 30
0.0
 10
1857.8456289944804
 20
567.7084637355617
 30
0.0
 10
1854.2650289944802
 20
571.2513637355619
 30
0.0
 10
1849.8141289944804
 20
571.2231637355618
 30
0.0
  0
SPLINE
  5
70
330
17
100
AcDbEntity
  8
_home_sasha_proj_2025_eva_layout_dxf_samples_ДЕКА_KUGOO_M4_PRO_JILONG_1_layer 3
 62
142
370
158
100
AcDbSpline
 70
24
 71
3
 72
8
 73
4
 74
0
 42
1e-09
 40
0.0
 40
0.0
 40
0.0
 40
0.0
 40
1.0
 40
1.0
 40
1.0
 40
1.0
 10
1891.9659289944805
 20
101.58706373556186
 30
0.0
 10
1891.9659289944805
 20
101.58706373556186
 30
0.0
 10
1849.63252899448
 20
101.58706373556186
 30
0.0
 10
1849.63252899448
 20
101.58706373556186
 30
0.0
  0
SPLINE
  5
71
330
17
100
AcDbEntity
  8
_home_sasha_proj_2025_eva_layout_dxf_samples_ДЕКА_KUGOO_M4_PRO_JILONG_1_layer 3
 62
142
370
158
100
AcDbSpline
 70
24
 71
3
 72
8
 73
4
 74
0
 42
1e-09
 40
0.0
 40
0.0
 40
0.0
 40
0.0
 40
1.0
 40
1.0
 40
1.0
 40
1.0
 10
1894.7176289944803
 20
128.8920637355618
 30
0.0
 10
1894.7176289944803
 20
128.8920637355618
 30
0.0
 10
1850.47922899448
 20
128.68036373556185
 30
0.0
 10
1850.47922899448
 20
128.68036373556185
 30
0.0
  0
SPLINE
  5
72
330
17
100
AcDbEntity
  8
_home_sasha_proj_2025_eva_layout_dxf_samples_ДЕКА_KUGOO_M4_PRO_JILONG_1_layer 3
 62
142
370
158
100
AcDbSpline
 70
24
 71
3
 72
8
 73
4
 74
0
 42
1e-09
 40
0.0
 40
0.0
 40
0.0
 40
0.0
 40
1.0
 40
1.0
 40
1.0
 40
1.0
 10
1707.6040289944801
 20
100.95206373556175
 30
0.0
 10
1707.6040289944801
 20
100.95206373556175
 30
0.0
 10
1747.1857289944803
 20
101.16376373556182
 30
0.0
 10
1747.1857289944803
 20
101.16376373556182
 30
0.0
  0
SPLINE
  5
73
330
17
100
AcDbEntity
  8
_home_sasha_proj_2025_eva_layout_dxf_samples_ДЕКА_KUGOO_M4_PRO_JILONG_1_layer 3
 62
142
370
158
100
AcDbSpline
 70
24
 71
3
 72
8
 73
4
 74
0
 42
1e-09
 40
0.0
 40
0.0
 40
0.0
 40
0.0
 40
1.0
 40
1.0
 40
1.0
 40
1.0
 10
1703.3707289944803
 20
128.46876373556177
 30
0.0
 10
1703.3707289944803
 20
128.46876373556177
 30
0.0
 10
1748.6674289944801
 20
128.68046373556183
 30
0.0
 10
1748.6674289944801
 20
128.68046373556183
 30
0.0
  0
SPLINE
  5
74
330
17
100
AcDbEntity
  8
_home_sasha_proj_2025_eva_layout_dxf_samples_ДЕКА_KUGOO_M4_PRO_JILONG_1_layer 3
 62
142
370
158
100
AcDbSpline
 70
24
 71
3
 72
8
 73
4
 74
0
 42
1e-09
 40
0.0
 40
0.0
 40
0.0
 40
0.0
 40
1.0
 40
1.0
 40
1.0
 40
1.0
 10
1889.5319289944803
 20
412.6383637355618
 30
0.0
 10
1889.5319289944803
 20
412.6383637355618
 30
0.0
 10
1855.5595289944802
 20
412.3141637355618
 30
0.0
 10
1855.5595289944802
 20
412.3141637355618
 30
0.0
  0
SPLINE
  5
75
330
17
100
AcDbEntity
  8
_home_sasha_proj_2025_eva_layout_dxf_samples_ДЕКА_KUGOO_M4_PRO_JILONG_1_layer 3
 62
142
370
158
100
AcDbSpline
 70
24
 71
3
 72
8
 73
4
 74
0
 42
1e-09
 40
0.0
 40
0.0
 40
0.0
 40
0.0
 40
1.0
 40
1.0
 40
1.0
 40
1.0
 10
1887.9445289944804
 20
389.87746373556183
 30
0.0
 10
1887.9445289944804
 20
389.87746373556183
 30
0.0
 10
1855.1362289944802
 20
390.0891637355618
 30
0.0
 10
1855.1362289944802
 20
390.0891637355618
 30
0.0
  0
SPLINE
  5
76
330
17
100
AcDbEntity
  8
_home_sasha_proj_2025_eva_layout_dxf_samples_ДЕКА_KUGOO_M4_PRO_JILONG_1_layer 3
 62
142
370
158
100
AcDbSpline
 70
24
 71
3
 72
8
 73
4
 74
0
 42
1e-09
 40
0.0
 40
0.0
 40
0.0
 40
0.0
 40
1.0
 40
1.0
 40
1.0
 40
1.0
 10
1706.1228289944804
 20
411.3616637355618
 30
0.0
 10
1706.1228289944804
 20
411.3616637355618
 30
0.0
 10
1737.1320289944804
 20
411.14996373556176
 30
0.0
 10
1737.1320289944804
 20
411.14996373556176
 30
0.0
  0
SPLINE
  5
77
330
17
100
AcDbEntity
  8
_home_sasha_proj_2025_eva_layout_dxf_samples_ДЕКА_KUGOO_M4_PRO_JILONG_1_layer 3
 62
142
370
158
100
AcDbSpline
 70
24
 71
3
 72
8
 73
4
 74
0
 42
1e-09
 40
0.0
 40
0.0
 40
0.0
 40
0.0
 40
1.0
 40
1.0
 40
1.0
 40
1.0
 10
1706.2286289944802
 20
388.1841637355618
 30
0.0
 10
1706.2286289944802
 20
388.1841637355618
 30
0.0
 10
1737.5553289944803
 20
388.8191637355618
 30
0.0
 10
1737.5553289944803
 20
388.8191637355618
 30
0.0
  0
ENDSEC
  0
SECTION
  2
OBJECTS
  0
DICTIONARY
  5
A
330
0
100
AcDbDictionary
281
1
  3
ACAD_COLOR
350
B
  3
ACAD_GROUP
350
C
  3
ACAD_LAYOUT
350
D
  3
ACAD_MATERIAL
350
E
  3
ACAD_MLEADERSTYLE
350
F
  3
ACAD_MLINESTYLE
350
10
  3
ACAD_PLOTSETTINGS
350
11
  3
ACAD_PLOTSTYLENAME
350
12
  3
ACAD_SCALELIST
350
14
  3
ACAD_TABLESTYLE
350
15
  3
ACAD_VISUALSTYLE
350
16
  3
EZDXF_META
350
2D
  0
DICTIONARY
  5
B
330
A
100
AcDbDictionary
281
1
  0
DICTIONARY
  5
C
330
A
100
AcDbDictionary
281
1
  0
DICTIONARY
  5
D
330
A
100
AcDbDictionary
281
1
  3
Model
350
1A
  3
Layout1
350
1E
  0
DICTIONARY
  5
E
330
A
100
AcDbDictionary
281
1
  3
ByBlock
350
1F
  3
ByLayer
350
20
  3
Global
350
21
  0
DICTIONARY
  5
F
330
A
100
AcDbDictionary
281
1
  3
Standard
350
2C
  0
DICTIONARY
  5
10
330
A
100
AcDbDictionary
281
1
  3
Standard
350
22
  0
DICTIONARY
  5
11
330
A
100
AcDbDictionary
281
1
  0
ACDBDICTIONARYWDFLT
  5
12
330
A
100
AcDbDictionary
281
1
  3
Normal
350
13
100
AcDbDictionaryWithDefault
340
13
  0
ACDBPLACEHOLDER
  5
13
330
12
  0
DICTIONARY
  5
14
330
A
100
AcDbDictionary
281
1
  0
DICTIONARY
  5
15
330
A
100
AcDbDictionary
281
1
  0
DICTIONARY
  5
16
330
A
100
AcDbDictionary
281
1
  0
LAYOUT
  5
1A
330
D
100
AcDbPlotSettings
  1

  4
A3
  6

 40
7.5
 41
20.0
 42
7.5
 43
20.0
 44
420.0
 45
297.0
 46
0.0
 47
0.0
 48
0.0
 49
0.0
140
0.0
141
0.0
142
1.0
143
1.0
 70
1024
 72
1
 73
0
 74
5
  7

 75
16
 76
0
 77
2
 78
300
147
1.0
148
0.0
149
0.0
100
AcDbLayout
  1
Model
 70
1
 71
0
 10
0.0
 20
0.0
 11
420.0
 21
297.0
 12
0.0
 22
0.0
 32
0.0
 14
1e+20
 24
1e+20
 34
1e+20
 15
-1e+20
 25
-1e+20
 35
-1e+20
146
0.0
 13
0.0
 23
0.0
 33
0.0
 16
1.0
 26
0.0
 36
0.0
 17
0.0
 27
1.0
 37
0.0
 76
1
330
17
  0
LAYOUT
  5
1E
330
D
100
AcDbPlotSettings
  1

  4
A3
  6

 40
7.5
 41
20.0
 42
7.5
 43
20.0
 44
420.0
 45
297.0
 46
0.0
 47
0.0
 48
0.0
 49
0.0
140
0.0
141
0.0
142
1.0
143
1.0
 70
0
 72
1
 73
0
 74
5
  7

 75
16
 76
0
 77
2
 78
300
147
1.0
148
0.0
149
0.0
100
AcDbLayout
  1
Layout1
 70
1
 71
1
 10
0.0
 20
0.0
 11
420.0
 21
297.0
 12
0.0
 22
0.0
 32
0.0
 14
1e+20
 24
1e+20
 34
1e+20
 15
-1e+20
 25
-1e+20
 35
-1e+20
146
0.0
 13
0.0
 23
0.0
 33
0.0
 16
1.0
 26
0.0
 36
0.0
 17
0.0
 27
1.0
 37
0.0
 76
1
330
1B
  0
MATERIAL
  5
1F
102
{ACAD_REACTORS
330
E
102
}
330
E
100
AcDbMaterial
  1
ByBlock
  2

 70
0
 40
1.0
 71
1
 41
1.0
 91
-1023410177
 42
1.0
 72
1
  3

 73
1
 74
1
 75
1
 44
0.5
 73
0
 45
1.0
 46
1.0
 77
1
  4

 78
1
 79
1
170
1
 48
1.0
171
1
  6

172
1
173
1
174
1
140
1.0
141
1.0
175
1
  7

176
1
177
1
178
1
143
1.0
179
1
  8

270
1
271
1
272
1
145
1.0
146
1.0
273
1
  9

274
1
275
1
276
1
 42
1.0
 72
1
  3

 73
1
 74
1
 75
1
 94
63
  0
MATERIAL
  5
20
102
{ACAD_REACTORS
330
E
102
}
330
E
100
AcDbMaterial
  1
ByLayer
  2

 70
0
 40
1.0
 71
1
 41
1.0
 91
-1023410177
 42
1.0
 72
1
  3

 73
1
 74
1
 75
1
 44
0.5
 73
0
 45
1.0
 46
1.0
 77
1
  4

 78
1
 79
1
170
1
 48
1.0
171
1
  6

172
1
173
1
174
1
140
1.0
141
1.0
175
1
  7

176
1
177
1
178
1
143
1.0
179
1
  8

270
1
271
1
272
1
145
1.0
146
1.0
273
1
  9

274
1
275
1
276
1
 42
1.0
 72
1
  3

 73
1
 74
1
 75
1
 94
63
  0
MATERIAL
  5
21
102
{ACAD_REACTORS
330
E
102
}
330
E
100
AcDbMaterial
  1
Global
  2

 70
0
 40
1.0
 71
1
 41
1.0
 91
-1023410177
 42
1.0
 72
1
  3

 73
1
 74
1
 75
1
 44
0.5
 73
0
 45
1.0
 46
1.0
 77
1
  4

 78
1
 79
1
170
1
 48
1.0
171
1
  6

172
1
173
1
174
1
140
1.0
141
1.0
175
1
  7

176
1
177
1
178
1
143
1.0
179
1
  8

270
1
271
1
272
1
145
1.0
146
1.0
273
1
  9

274
1
275
1
276
1
 42
1.0
 72
1
  3

 73
1
 74
1
 75
1
 94
63
  0
MLINESTYLE
  5
22
102
{ACAD_REACTORS
330
10
102
}
330
10
100
AcDbMlineStyle
  2
Standard
 70
0
  3

 62
256
 51
90.0
 52
90.0
 71
2
 49
0.5
 62
256
  6
BYLAYER
 49
-0.5
 62
256
  6
BYLAYER
  0
MLEADERSTYLE
  5
2C
102
{ACAD_REACTORS
330
F
102
}
330
F
100
AcDbMLeaderStyle
179
2
170
2
171
1
172
0
 90
2
 40
0.0
 41
0.0
173
1
 91
-1056964608
 92
-2
290
1
 42
2.0
291
1
 43
8.0
  3
Standard
 44
4.0
300

342
29
174
1
175
1
176
0
178
1
 93
-1056964608
 45
4.0
292
0
297
0
 46
4.0
 94
-1056964608
 47
1.0
 49
1.0
140
1.0
294
1
141
0.0
177
0
142
1.0
295
0
296
0
143
3.75
271
0
272
9
273
9
  0
DICTIONARY
  5
2D
330
A
100
AcDbDictionary
280
1
281
1
  3
CREATED_BY_EZDXF
350
2E
  3
WRITTEN_BY_EZDXF
350
7A
  0
DICTIONARYVAR
  5
2E
330
2D
100
DictionaryVariables
280
0
  1
1.4.2 @ 2025-08-20T20:29:40.217226+00:00
  0
DICTIONARYVAR
  5
7A
330
2D
100
DictionaryVariables
280
0
  1
1.4.2 @ 2025-08-20T20:29:40.224421+00:00
  0
ENDSEC
  0
EOF
