  0
SECTION
  2
HEADER
  9
$ACADVER
  1
AC1024
  9
$ACADMAINTVER
 70
6
  9
$DWGCODEPAGE
  3
ANSI_1252
  9
$LASTSAVEDBY
  1
ezdxf
  9
$INSBASE
 10
0.0
 20
0.0
 30
0.0
  9
$EXTMIN
 10
1e+20
 20
1e+20
 30
1e+20
  9
$EXTMAX
 10
-1e+20
 20
-1e+20
 30
-1e+20
  9
$LIMMIN
 10
0.0
 20
0.0
  9
$LIMMAX
 10
420.0
 20
297.0
  9
$ORTHOMODE
 70
0
  9
$REGENMODE
 70
1
  9
$FILLMODE
 70
1
  9
$QTEXTMODE
 70
0
  9
$MIRRTEXT
 70
1
  9
$LTSCALE
 40
1.0
  9
$ATTMODE
 70
1
  9
$TEXTSIZE
 40
2.5
  9
$TRACEWID
 40
1.0
  9
$TEXTSTYLE
  7
Standard
  9
$CLAYER
  8
0
  9
$CELTYPE
  6
ByLayer
  9
$CECOLOR
 62
256
  9
$CELTSCALE
 40
1.0
  9
$DISPSILH
 70
0
  9
$DIMSCALE
 40
1.0
  9
$DIMASZ
 40
2.5
  9
$DIMEXO
 40
0.625
  9
$DIMDLI
 40
3.75
  9
$DIMRND
 40
0.0
  9
$DIMDLE
 40
0.0
  9
$DIMEXE
 40
1.25
  9
$DIMTP
 40
0.0
  9
$DIMTM
 40
0.0
  9
$DIMTXT
 40
2.5
  9
$DIMCEN
 40
2.5
  9
$DIMTSZ
 40
0.0
  9
$DIMTOL
 70
0
  9
$DIMLIM
 70
0
  9
$DIMTIH
 70
0
  9
$DIMTOH
 70
0
  9
$DIMSE1
 70
0
  9
$DIMSE2
 70
0
  9
$DIMTAD
 70
1
  9
$DIMZIN
 70
8
  9
$DIMBLK
  1

  9
$DIMASO
 70
1
  9
$DIMSHO
 70
1
  9
$DIMPOST
  1

  9
$DIMAPOST
  1

  9
$DIMALT
 70
0
  9
$DIMALTD
 70
3
  9
$DIMALTF
 40
0.03937007874
  9
$DIMLFAC
 40
1.0
  9
$DIMTOFL
 70
1
  9
$DIMTVP
 40
0.0
  9
$DIMTIX
 70
0
  9
$DIMSOXD
 70
0
  9
$DIMSAH
 70
0
  9
$DIMBLK1
  1

  9
$DIMBLK2
  1

  9
$DIMSTYLE
  2
ISO-25
  9
$DIMCLRD
 70
0
  9
$DIMCLRE
 70
0
  9
$DIMCLRT
 70
0
  9
$DIMTFAC
 40
1.0
  9
$DIMGAP
 40
0.625
  9
$DIMJUST
 70
0
  9
$DIMSD1
 70
0
  9
$DIMSD2
 70
0
  9
$DIMTOLJ
 70
0
  9
$DIMTZIN
 70
8
  9
$DIMALTZ
 70
0
  9
$DIMALTTZ
 70
0
  9
$DIMUPT
 70
0
  9
$DIMDEC
 70
2
  9
$DIMTDEC
 70
2
  9
$DIMALTU
 70
2
  9
$DIMALTTD
 70
3
  9
$DIMTXSTY
  7
Standard
  9
$DIMAUNIT
 70
0
  9
$DIMADEC
 70
0
  9
$DIMALTRND
 40
0.0
  9
$DIMAZIN
 70
0
  9
$DIMDSEP
 70
44
  9
$DIMATFIT
 70
3
  9
$DIMFRAC
 70
0
  9
$DIMLDRBLK
  1

  9
$DIMLUNIT
 70
2
  9
$DIMLWD
 70
-2
  9
$DIMLWE
 70
-2
  9
$DIMTMOVE
 70
0
  9
$DIMFXL
 40
1.0
  9
$DIMFXLON
 70
0
  9
$DIMJOGANG
 40
0.785398163397
  9
$DIMTFILL
 70
0
  9
$DIMTFILLCLR
 70
0
  9
$DIMARCSYM
 70
0
  9
$DIMLTYPE
  6

  9
$DIMLTEX1
  6

  9
$DIMLTEX2
  6

  9
$DIMTXTDIRECTION
 70
0
  9
$LUNITS
 70
2
  9
$LUPREC
 70
4
  9
$SKETCHINC
 40
1.0
  9
$FILLETRAD
 40
10.0
  9
$AUNITS
 70
0
  9
$AUPREC
 70
2
  9
$MENU
  1
.
  9
$ELEVATION
 40
0.0
  9
$PELEVATION
 40
0.0
  9
$THICKNESS
 40
0.0
  9
$LIMCHECK
 70
0
  9
$CHAMFERA
 40
0.0
  9
$CHAMFERB
 40
0.0
  9
$CHAMFERC
 40
0.0
  9
$CHAMFERD
 40
0.0
  9
$SKPOLY
 70
0
  9
$TDCREATE
 40
2460903.397175926
  9
$TDUCREATE
 40
2458532.153996898
  9
$TDUPDATE
 40
2460903.397175926
  9
$TDUUPDATE
 40
2458532.1544311
  9
$TDINDWG
 40
0.0
  9
$TDUSRTIMER
 40
0.0
  9
$USRTIMER
 70
1
  9
$ANGBASE
 50
0.0
  9
$ANGDIR
 70
0
  9
$PDMODE
 70
0
  9
$PDSIZE
 40
0.0
  9
$PLINEWID
 40
0.0
  9
$SPLFRAME
 70
0
  9
$SPLINETYPE
 70
6
  9
$SPLINESEGS
 70
8
  9
$HANDSEED
  5
8C
  9
$SURFTAB1
 70
6
  9
$SURFTAB2
 70
6
  9
$SURFTYPE
 70
6
  9
$SURFU
 70
6
  9
$SURFV
 70
6
  9
$UCSBASE
  2

  9
$UCSNAME
  2

  9
$UCSORG
 10
0.0
 20
0.0
 30
0.0
  9
$UCSXDIR
 10
1.0
 20
0.0
 30
0.0
  9
$UCSYDIR
 10
0.0
 20
1.0
 30
0.0
  9
$UCSORTHOREF
  2

  9
$UCSORTHOVIEW
 70
0
  9
$UCSORGTOP
 10
0.0
 20
0.0
 30
0.0
  9
$UCSORGBOTTOM
 10
0.0
 20
0.0
 30
0.0
  9
$UCSORGLEFT
 10
0.0
 20
0.0
 30
0.0
  9
$UCSORGRIGHT
 10
0.0
 20
0.0
 30
0.0
  9
$UCSORGFRONT
 10
0.0
 20
0.0
 30
0.0
  9
$UCSORGBACK
 10
0.0
 20
0.0
 30
0.0
  9
$PUCSBASE
  2

  9
$PUCSNAME
  2

  9
$PUCSORG
 10
0.0
 20
0.0
 30
0.0
  9
$PUCSXDIR
 10
1.0
 20
0.0
 30
0.0
  9
$PUCSYDIR
 10
0.0
 20
1.0
 30
0.0
  9
$PUCSORTHOREF
  2

  9
$PUCSORTHOVIEW
 70
0
  9
$PUCSORGTOP
 10
0.0
 20
0.0
 30
0.0
  9
$PUCSORGBOTTOM
 10
0.0
 20
0.0
 30
0.0
  9
$PUCSORGLEFT
 10
0.0
 20
0.0
 30
0.0
  9
$PUCSORGRIGHT
 10
0.0
 20
0.0
 30
0.0
  9
$PUCSORGFRONT
 10
0.0
 20
0.0
 30
0.0
  9
$PUCSORGBACK
 10
0.0
 20
0.0
 30
0.0
  9
$USERI1
 70
0
  9
$USERI2
 70
0
  9
$USERI3
 70
0
  9
$USERI4
 70
0
  9
$USERI5
 70
0
  9
$USERR1
 40
0.0
  9
$USERR2
 40
0.0
  9
$USERR3
 40
0.0
  9
$USERR4
 40
0.0
  9
$USERR5
 40
0.0
  9
$WORLDVIEW
 70
1
  9
$SHADEDGE
 70
3
  9
$SHADEDIF
 70
70
  9
$TILEMODE
 70
1
  9
$MAXACTVP
 70
64
  9
$PINSBASE
 10
0.0
 20
0.0
 30
0.0
  9
$PLIMCHECK
 70
0
  9
$PEXTMIN
 10
1e+20
 20
1e+20
 30
1e+20
  9
$PEXTMAX
 10
-1e+20
 20
-1e+20
 30
-1e+20
  9
$PLIMMIN
 10
0.0
 20
0.0
  9
$PLIMMAX
 10
420.0
 20
297.0
  9
$UNITMODE
 70
0
  9
$VISRETAIN
 70
1
  9
$PLINEGEN
 70
0
  9
$PSLTSCALE
 70
1
  9
$TREEDEPTH
 70
3020
  9
$CMLSTYLE
  2
Standard
  9
$CMLJUST
 70
0
  9
$CMLSCALE
 40
20.0
  9
$PROXYGRAPHICS
 70
1
  9
$MEASUREMENT
 70
1
  9
$CELWEIGHT
370
-1
  9
$ENDCAPS
280
0
  9
$JOINSTYLE
280
0
  9
$LWDISPLAY
290
0
  9
$INSUNITS
 70
4
  9
$HYPERLINKBASE
  1

  9
$STYLESHEET
  1

  9
$XEDIT
290
1
  9
$CEPSNTYPE
380
0
  9
$PSTYLEMODE
290
1
  9
$FINGERPRINTGUID
  2
{8F1B6002-5C9B-49A2-9AC2-73DD171A8CDC}
  9
$VERSIONGUID
  2
{1086450F-D21D-4726-9697-8C37B9F065CB}
  9
$EXTNAMES
290
1
  9
$PSVPSCALE
 40
0.0
  9
$OLESTARTUP
290
0
  9
$SORTENTS
280
127
  9
$INDEXCTL
280
0
  9
$HIDETEXT
280
1
  9
$XCLIPFRAME
280
1
  9
$HALOGAP
280
0
  9
$OBSCOLOR
 70
257
  9
$OBSLTYPE
280
0
  9
$INTERSECTIONDISPLAY
280
0
  9
$INTERSECTIONCOLOR
 70
257
  9
$DIMASSOC
280
2
  9
$PROJECTNAME
  1

  9
$CAMERADISPLAY
290
0
  9
$LENSLENGTH
 40
50.0
  9
$CAMERAHEIGHT
 40
0.0
  9
$STEPSPERSEC
 40
24.0
  9
$STEPSIZE
 40
100.0
  9
$3DDWFPREC
 40
2.0
  9
$PSOLWIDTH
 40
0.005
  9
$PSOLHEIGHT
 40
0.08
  9
$LOFTANG1
 40
1.570796326795
  9
$LOFTANG2
 40
1.570796326795
  9
$LOFTMAG1
 40
0.0
  9
$LOFTMAG2
 40
0.0
  9
$LOFTPARAM
 70
7
  9
$LOFTNORMALS
280
1
  9
$LATITUDE
 40
37.795
  9
$LONGITUDE
 40
-122.394
  9
$NORTHDIRECTION
 40
0.0
  9
$TIMEZONE
 70
-8000
  9
$LIGHTGLYPHDISPLAY
280
1
  9
$TILEMODELIGHTSYNCH
280
1
  9
$CMATERIAL
347
20
  9
$SOLIDHIST
280
0
  9
$SHOWHIST
280
1
  9
$DWFFRAME
280
2
  9
$DGNFRAME
280
2
  9
$REALWORLDSCALE
290
1
  9
$INTERFERECOLOR
 62
256
  9
$CSHADOW
280
0
  9
$SHADOWPLANELOCATION
 40
0.0
  0
ENDSEC
  0
SECTION
  2
CLASSES
  0
CLASS
  1
ACDBDICTIONARYWDFLT
  2
AcDbDictionaryWithDefault
  3
ObjectDBX Classes
 90
0
 91
0
280
0
281
0
  0
CLASS
  1
SUN
  2
AcDbSun
  3
SCENEOE
 90
1153
 91
0
280
0
281
0
  0
CLASS
  1
VISUALSTYLE
  2
AcDbVisualStyle
  3
ObjectDBX Classes
 90
4095
 91
0
280
0
281
0
  0
CLASS
  1
MATERIAL
  2
AcDbMaterial
  3
ObjectDBX Classes
 90
1153
 91
0
280
0
281
0
  0
CLASS
  1
SCALE
  2
AcDbScale
  3
ObjectDBX Classes
 90
1153
 91
0
280
0
281
0
  0
CLASS
  1
TABLESTYLE
  2
AcDbTableStyle
  3
ObjectDBX Classes
 90
4095
 91
0
280
0
281
0
  0
CLASS
  1
MLEADERSTYLE
  2
AcDbMLeaderStyle
  3
ACDB_MLEADERSTYLE_CLASS
 90
4095
 91
0
280
0
281
0
  0
CLASS
  1
DICTIONARYVAR
  2
AcDbDictionaryVar
  3
ObjectDBX Classes
 90
0
 91
0
280
0
281
0
  0
CLASS
  1
CELLSTYLEMAP
  2
AcDbCellStyleMap
  3
ObjectDBX Classes
 90
1152
 91
0
280
0
281
0
  0
CLASS
  1
MENTALRAYRENDERSETTINGS
  2
AcDbMentalRayRenderSettings
  3
SCENEOE
 90
1024
 91
0
280
0
281
0
  0
CLASS
  1
ACDBDETAILVIEWSTYLE
  2
AcDbDetailViewStyle
  3
ObjectDBX Classes
 90
1025
 91
0
280
0
281
0
  0
CLASS
  1
ACDBSECTIONVIEWSTYLE
  2
AcDbSectionViewStyle
  3
ObjectDBX Classes
 90
1025
 91
0
280
0
281
0
  0
CLASS
  1
RASTERVARIABLES
  2
AcDbRasterVariables
  3
ISM
 90
0
 91
0
280
0
281
0
  0
CLASS
  1
IMAGE
  2
AcDbRasterImage
  3
ISM
 90
2175
 91
0
280
0
281
1
  0
CLASS
  1
IMAGEDEF
  2
AcDbRasterImageDef
  3
ISM
 90
0
 91
0
280
0
281
0
  0
CLASS
  1
IMAGEDEF_REACTOR
  2
AcDbRasterImageDefReactor
  3
ISM
 90
1
 91
0
280
0
281
0
  0
CLASS
  1
ACDBPLACEHOLDER
  2
AcDbPlaceHolder
  3
ObjectDBX Classes
 90
0
 91
0
280
0
281
0
  0
CLASS
  1
LAYOUT
  2
AcDbLayout
  3
ObjectDBX Classes
 90
0
 91
0
280
0
281
0
  0
ENDSEC
  0
SECTION
  2
TABLES
  0
TABLE
  2
VPORT
  5
8
330
0
100
AcDbSymbolTable
 70
1
  0
VPORT
  5
23
330
8
100
AcDbSymbolTableRecord
100
AcDbViewportTableRecord
  2
*Active
 70
0
 10
0.0
 20
0.0
 11
1.0
 21
1.0
 12
0.0
 22
0.0
 13
0.0
 23
0.0
 14
0.5
 24
0.5
 15
0.5
 25
0.5
 16
0.0
 26
0.0
 36
1.0
 17
0.0
 27
0.0
 37
0.0
 40
1000.0
 41
1.34
 42
50.0
 43
0.0
 44
0.0
 50
0.0
 51
0.0
 71
0
 72
1000
 73
1
 74
3
 75
0
 76
0
 77
0
 78
0
281
0
 65
0
146
0.0
  0
ENDTAB
  0
TABLE
  2
LTYPE
  5
2
330
0
100
AcDbSymbolTable
 70
3
  0
LTYPE
  5
24
330
2
100
AcDbSymbolTableRecord
100
AcDbLinetypeTableRecord
  2
ByBlock
 70
0
  3

 72
65
 73
0
 40
0.0
  0
LTYPE
  5
25
330
2
100
AcDbSymbolTableRecord
100
AcDbLinetypeTableRecord
  2
ByLayer
 70
0
  3

 72
65
 73
0
 40
0.0
  0
LTYPE
  5
26
330
2
100
AcDbSymbolTableRecord
100
AcDbLinetypeTableRecord
  2
Continuous
 70
0
  3

 72
65
 73
0
 40
0.0
  0
ENDTAB
  0
TABLE
  2
LAYER
  5
1
330
0
100
AcDbSymbolTable
 70
2
  0
LAYER
  5
27
330
1
100
AcDbSymbolTableRecord
100
AcDbLayerTableRecord
  2
0
 70
0
 62
7
  6
Continuous
370
-3
390
13
347
21
  0
LAYER
  5
28
330
1
100
AcDbSymbolTableRecord
100
AcDbLayerTableRecord
  2
Defpoints
 70
0
 62
7
  6
Continuous
290
0
370
-3
390
13
347
21
  0
ENDTAB
  0
TABLE
  2
STYLE
  5
5
330
0
100
AcDbSymbolTable
 70
1
  0
STYLE
  5
29
330
5
100
AcDbSymbolTableRecord
100
AcDbTextStyleTableRecord
  2
Standard
 70
0
 40
0.0
 41
1.0
 50
0.0
 71
0
 42
2.5
  3
txt
  4

  0
ENDTAB
  0
TABLE
  2
VIEW
  5
7
330
0
100
AcDbSymbolTable
 70
0
  0
ENDTAB
  0
TABLE
  2
UCS
  5
6
330
0
100
AcDbSymbolTable
 70
0
  0
ENDTAB
  0
TABLE
  2
APPID
  5
3
330
0
100
AcDbSymbolTable
 70
3
  0
APPID
  5
2A
330
3
100
AcDbSymbolTableRecord
100
AcDbRegAppTableRecord
  2
ACAD
 70
0
  0
APPID
  5
89
330
3
100
AcDbSymbolTableRecord
100
AcDbRegAppTableRecord
  2
HATCHBACKGROUNDCOLOR
 70
0
  0
APPID
  5
8A
330
3
100
AcDbSymbolTableRecord
100
AcDbRegAppTableRecord
  2
EZDXF
 70
0
  0
ENDTAB
  0
TABLE
  2
DIMSTYLE
  5
4
330
0
100
AcDbSymbolTable
 70
1
100
AcDbDimStyleTable
  0
DIMSTYLE
105
2B
330
4
100
AcDbSymbolTableRecord
100
AcDbDimStyleTableRecord
  2
Standard
 70
0
 40
1.0
 41
2.5
 42
0.625
 43
3.75
 44
1.25
 45
0.0
 46
0.0
 47
0.0
 48
0.0
 49
2.5
140
2.5
141
2.5
142
0.0
143
0.03937007874
144
1.0
145
0.0
146
1.0
147
0.625
148
0.0
 69
0
 70
0
 71
0
 72
0
 73
0
 74
0
 75
0
 76
0
 77
1
 78
8
 79
3
170
0
171
3
172
1
173
0
174
0
175
0
176
0
177
0
178
0
179
2
271
2
272
2
273
2
274
3
275
0
276
0
277
2
278
44
279
0
280
0
281
0
282
0
283
0
284
8
285
0
286
0
288
0
289
3
290
0
371
-2
372
-2
  0
ENDTAB
  0
TABLE
  2
BLOCK_RECORD
  5
9
330
0
100
AcDbSymbolTable
 70
2
  0
BLOCK_RECORD
  5
17
330
9
100
AcDbSymbolTableRecord
100
AcDbBlockTableRecord
  2
*Model_Space
340
1A
 70
0
280
1
281
0
  0
BLOCK_RECORD
  5
1B
330
9
100
AcDbSymbolTableRecord
100
AcDbBlockTableRecord
  2
*Paper_Space
340
1E
 70
0
280
1
281
0
  0
ENDTAB
  0
ENDSEC
  0
SECTION
  2
BLOCKS
  0
BLOCK
  5
18
330
17
100
AcDbEntity
  8
0
100
AcDbBlockBegin
  2
*Model_Space
 70
0
 10
0.0
 20
0.0
 30
0.0
  3
*Model_Space
  1

  0
ENDBLK
  5
19
330
17
100
AcDbEntity
  8
0
100
AcDbBlockEnd
  0
BLOCK
  5
1C
330
1B
100
AcDbEntity
  8
0
100
AcDbBlockBegin
  2
*Paper_Space
 70
0
 10
0.0
 20
0.0
 30
0.0
  3
*Paper_Space
  1

  0
ENDBLK
  5
1D
330
1B
100
AcDbEntity
  8
0
100
AcDbBlockEnd
  0
ENDSEC
  0
SECTION
  2
ENTITIES
  0
LWPOLYLINE
  5
2F
330
17
100
AcDbEntity
  8
SHEET_BOUNDARY
 62
1
100
AcDbPolyline
 90
5
 70
0
 10
0.0
 20
0.0
 10
4000.0
 20
0.0
 10
4000.0
 20
3000.0
 10
0.0
 20
3000.0
 10
0.0
 20
0.0
  0
LWPOLYLINE
  5
30
330
17
100
AcDbEntity
  8
200_140_1_black_SHEET_BOUNDARY
 62
1
100
AcDbPolyline
 90
5
 70
0
 10
251.68588895447402
 20
0.0
 10
1651.6858889544742
 20
0.0
 10
1651.6858889544742
 20
2000.0
 10
251.68588895447402
 20
2000.0
 10
251.68588895447402
 20
0.0
  0
SPLINE
  5
31
330
17
100
AcDbEntity
  8
200_140_1_black_Лодка Азимут Эверест 385 _2_layer 1
 62
250
370
9
100
AcDbSpline
 70
8
 71
3
 72
20
 73
16
 74
0
 42
1e-09
 40
0.0
 40
0.0
 40
0.0
 40
0.0
 40
0.2
 40
0.2
 40
0.2
 40
0.2
 40
0.4
 40
0.4
 40
0.4
 40
0.4
 40
0.6
 40
0.6
 40
0.6
 40
0.6
 40
1.0
 40
1.0
 40
1.0
 40
1.0
 10
1055.4446889544743
 20
1545.0151000000005
 30
0.0
 10
1055.4446889544743
 20
1545.0151000000005
 30
0.0
 10
1055.4446889544743
 20
1569.9730000000004
 30
0.0
 10
1055.4446889544743
 20
1569.9730000000004
 30
0.0
 10
1055.4446889544743
 20
1569.9730000000004
 30
0.0
 10
1055.4446889544743
 20
1569.9730000000004
 30
0.0
 10
1064.3697889544742
 20
1545.0151000000005
 30
0.0
 10
1064.3697889544742
 20
1545.0151000000005
 30
0.0
 10
1064.3697889544742
 20
1545.0151000000005
 30
0.0
 10
1064.3697889544742
 20
1545.0151000000005
 30
0.0
 10
1073.1296889544742
 20
1569.9725000000005
 30
0.0
 10
1073.1296889544742
 20
1569.9725000000005
 30
0.0
 10
1073.1296889544742
 20
1569.9725000000005
 30
0.0
 10
1073.1296889544742
 20
1569.9725000000005
 30
0.0
 10
1073.1296889544742
 20
1545.0151000000005
 30
0.0
 10
1073.1296889544742
 20
1545.0151000000005
 30
0.0
  0
SPLINE
  5
32
330
17
100
AcDbEntity
  8
200_140_1_black_Лодка Азимут Эверест 385 _2_layer 1
 62
250
370
9
100
AcDbSpline
 70
24
 71
3
 72
8
 73
4
 74
0
 42
1e-09
 40
0.0
 40
0.0
 40
0.0
 40
0.0
 40
1.0
 40
1.0
 40
1.0
 40
1.0
 10
1040.7030889544742
 20
1569.9708000000005
 30
0.0
 10
1040.7030889544742
 20
1569.9708000000005
 30
0.0
 10
1047.8711889544743
 20
1569.9708000000005
 30
0.0
 10
1047.8711889544743
 20
1569.9708000000005
 30
0.0
  0
SPLINE
  5
33
330
17
100
AcDbEntity
  8
200_140_1_black_Лодка Азимут Эверест 385 _2_layer 1
 62
250
370
9
100
AcDbSpline
 70
24
 71
3
 72
8
 73
4
 74
0
 42
1e-09
 40
0.0
 40
0.0
 40
0.0
 40
0.0
 40
1.0
 40
1.0
 40
1.0
 40
1.0
 10
1040.7030889544742
 20
1545.0173000000004
 30
0.0
 10
1040.7030889544742
 20
1545.0173000000004
 30
0.0
 10
1047.8711889544743
 20
1545.0173000000004
 30
0.0
 10
1047.8711889544743
 20
1545.0173000000004
 30
0.0
  0
SPLINE
  5
34
330
17
100
AcDbEntity
  8
200_140_1_black_Лодка Азимут Эверест 385 _2_layer 1
 62
250
370
9
100
AcDbSpline
 70
24
 71
3
 72
8
 73
4
 74
0
 42
1e-09
 40
0.0
 40
0.0
 40
0.0
 40
0.0
 40
1.0
 40
1.0
 40
1.0
 40
1.0
 10
1044.2870889544743
 20
1569.9708000000005
 30
0.0
 10
1044.2870889544743
 20
1569.9708000000005
 30
0.0
 10
1044.2870889544743
 20
1545.0173000000004
 30
0.0
 10
1044.2870889544743
 20
1545.0173000000004
 30
0.0
  0
SPLINE
  5
35
330
17
100
AcDbEntity
  8
200_140_1_black_Лодка Азимут Эверест 385 _2_layer 1
 62
250
370
9
100
AcDbSpline
 70
8
 71
3
 72
16
 73
12
 74
0
 42
1e-09
 40
0.0
 40
0.0
 40
0.0
 40
0.0
 40
0.25
 40
0.25
 40
0.25
 40
0.25
 40
0.5
 40
0.5
 40
0.5
 40
0.5
 40
1.0
 40
1.0
 40
1.0
 40
1.0
 10
1031.5844889544742
 20
1545.0153000000005
 30
0.0
 10
1031.5844889544742
 20
1545.0153000000005
 30
0.0
 10
1016.9654889544743
 20
1545.0153000000005
 30
0.0
 10
1016.9654889544743
 20
1545.0153000000005
 30
0.0
 10
1016.9654889544743
 20
1545.0153000000005
 30
0.0
 10
1016.9654889544743
 20
1545.0153000000005
 30
0.0
 10
1031.6087889544742
 20
1569.9727000000005
 30
0.0
 10
1031.6087889544742
 20
1569.9727000000005
 30
0.0
 10
1031.6087889544742
 20
1569.9727000000005
 30
0.0
 10
1031.6087889544742
 20
1569.9727000000005
 30
0.0
 10
1016.9654889544743
 20
1569.9727000000005
 30
0.0
 10
1016.9654889544743
 20
1569.9727000000005
 30
0.0
  0
SPLINE
  5
36
330
17
100
AcDbEntity
  8
200_140_1_black_Лодка Азимут Эверест 385 _2_layer 1
 62
250
370
9
100
AcDbSpline
 70
8
 71
3
 72
12
 73
8
 74
0
 42
1e-09
 40
0.0
 40
0.0
 40
0.0
 40
0.0
 40
0.3333333333333333
 40
0.3333333333333333
 40
0.3333333333333333
 40
0.3333333333333333
 40
1.0
 40
1.0
 40
1.0
 40
1.0
 10
996.8166889544741
 20
1545.0173000000004
 30
0.0
 10
996.8166889544741
 20
1545.0173000000004
 30
0.0
 10
1004.1876889544742
 20
1569.9708000000005
 30
0.0
 10
1004.1876889544742
 20
1569.9708000000005
 30
0.0
 10
1004.1876889544742
 20
1569.9708000000005
 30
0.0
 10
1004.1876889544742
 20
1569.9708000000005
 30
0.0
 10
1011.7575889544742
 20
1545.0173000000004
 30
0.0
 10
1011.7575889544742
 20
1545.0173000000004
 30
0.0
  0
SPLINE
  5
37
330
17
100
AcDbEntity
  8
200_140_1_black_Лодка Азимут Эверест 385 _2_layer 1
 62
250
370
9
100
AcDbSpline
 70
24
 71
3
 72
8
 73
4
 74
0
 42
1e-09
 40
0.0
 40
0.0
 40
0.0
 40
0.0
 40
1.0
 40
1.0
 40
1.0
 40
1.0
 10
999.5392889544742
 20
1554.2667000000006
 30
0.0
 10
999.5392889544742
 20
1554.2667000000006
 30
0.0
 10
1009.0349889544741
 20
1554.2667000000006
 30
0.0
 10
1009.0349889544741
 20
1554.2667000000006
 30
0.0
  0
SPLINE
  5
38
330
17
100
AcDbEntity
  8
200_140_1_black_Лодка Азимут Эверест 385 _2_layer 1
 62
250
370
9
100
AcDbSpline
 70
8
 71
3
 72
24
 73
20
 74
0
 42
1e-09
 40
0.0
 40
0.0
 40
0.0
 40
0.0
 40
0.1666666666666667
 40
0.1666666666666667
 40
0.1666666666666667
 40
0.1666666666666667
 40
0.3333333333333333
 40
0.3333333333333333
 40
0.3333333333333333
 40
0.3333333333333333
 40
0.5
 40
0.5
 40
0.5
 40
0.5
 40
0.6666666666666666
 40
0.6666666666666666
 40
0.6666666666666666
 40
0.6666666666666666
 40
1.0
 40
1.0
 40
1.0
 40
1.0
 10
1093.6143889544742
 20
1569.9750000000006
 30
0.0
 10
1093.6139889544743
 20
1564.4355000000005
 30
0.0
 10
1093.709788954474
 20
1554.2337000000005
 30
0.0
 10
1093.7101889544742
 20
1548.6933000000006
 30
0.0
 10
1093.7101889544742
 20
1548.6933000000006
 30
0.0
 10
1093.5703889544743
 20
1546.4538000000005
 30
0.0
 10
1091.8931889544742
 20
1545.0276000000006
 30
0.0
 10
1089.7454889544742
 20
1545.0171000000005
 30
0.0
 10
1089.7454889544742
 20
1545.0171000000005
 30
0.0
 10
1087.413588954474
 20
1545.0175000000006
 30
0.0
 10
1085.0816889544742
 20
1545.0175000000006
 30
0.0
 10
1082.7501889544742
 20
1545.0171000000005
 30
0.0
 10
1082.7501889544742
 20
1545.0171000000005
 30
0.0
 10
1080.8251889544742
 20
1544.9156000000005
 30
0.0
 10
1078.8530889544743
 20
1546.7321000000004
 30
0.0
 10
1078.8642889544742
 20
1548.6766000000005
 30
0.0
 10
1078.8642889544742
 20
1548.6766000000005
 30
0.0
 10
1078.8645889544741
 20
1554.2385000000006
 30
0.0
 10
1078.9599889544743
 20
1564.4139000000005
 30
0.0
 10
1078.9595889544742
 20
1569.9750000000006
 30
0.0
  0
SPLINE
  5
39
330
17
100
AcDbEntity
  8
200_140_1_black_Лодка Азимут Эверест 385 _2_layer 1
 62
250
370
9
100
AcDbSpline
 70
24
 71
3
 72
8
 73
4
 74
0
 42
1e-09
 40
0.0
 40
0.0
 40
0.0
 40
0.0
 40
1.0
 40
1.0
 40
1.0
 40
1.0
 10
1097.7935889544742
 20
1569.9473000000005
 30
0.0
 10
1097.7935889544742
 20
1569.9473000000005
 30
0.0
 10
1114.7807889544742
 20
1569.9473000000005
 30
0.0
 10
1114.7807889544742
 20
1569.9473000000005
 30
0.0
  0
SPLINE
  5
3A
330
17
100
AcDbEntity
  8
200_140_1_black_Лодка Азимут Эверест 385 _2_layer 1
 62
250
370
9
100
AcDbSpline
 70
24
 71
3
 72
8
 73
4
 74
0
 42
1e-09
 40
0.0
 40
0.0
 40
0.0
 40
0.0
 40
1.0
 40
1.0
 40
1.0
 40
1.0
 10
1106.2873889544742
 20
1545.0173000000004
 30
0.0
 10
1106.2873889544742
 20
1545.0173000000004
 30
0.0
 10
1106.2873889544742
 20
1569.9708000000005
 30
0.0
 10
1106.2873889544742
 20
1569.9708000000005
 30
0.0
  0
SPLINE
  5
3B
330
17
100
AcDbEntity
  8
200_140_1_black_Лодка Азимут Эверест 385 _2_layer 1
 62
250
370
9
100
AcDbSpline
 70
8
 71
3
 72
52
 73
48
 74
0
 42
1e-09
 40
0.0
 40
0.0
 40
0.0
 40
0.0
 40
0.0769230769230769
 40
0.0769230769230769
 40
0.0769230769230769
 40
0.0769230769230769
 40
0.1538461538461539
 40
0.1538461538461539
 40
0.1538461538461539
 40
0.1538461538461539
 40
0.2307692307692308
 40
0.2307692307692308
 40
0.2307692307692308
 40
0.2307692307692308
 40
0.3076923076923077
 40
0.3076923076923077
 40
0.3076923076923077
 40
0.3076923076923077
 40
0.3846153846153846
 40
0.3846153846153846
 40
0.3846153846153846
 40
0.3846153846153846
 40
0.4615384615384616
 40
0.4615384615384616
 40
0.4615384615384616
 40
0.4615384615384616
 40
0.5384615384615384
 40
0.5384615384615384
 40
0.5384615384615384
 40
0.5384615384615384
 40
0.6153846153846154
 40
0.6153846153846154
 40
0.6153846153846154
 40
0.6153846153846154
 40
0.6923076923076923
 40
0.6923076923076923
 40
0.6923076923076923
 40
0.6923076923076923
 40
0.7692307692307693
 40
0.7692307692307693
 40
0.7692307692307693
 40
0.7692307692307693
 40
0.8461538461538461
 40
0.8461538461538461
 40
0.8461538461538461
 40
0.8461538461538461
 40
1.0
 40
1.0
 40
1.0
 40
1.0
 10
1276.8097889544745
 20
1565.0423000000005
 30
0.0
 10
1276.8097889544745
 20
1565.0423000000005
 30
0.0
 10
1276.8097889544745
 20
1566.8995000000004
 30
0.0
 10
1276.8097889544745
 20
1566.8995000000004
 30
0.0
 10
1276.8097889544745
 20
1566.8995000000004
 30
0.0
 10
1276.7954889544744
 20
1568.6414000000004
 30
0.0
 10
1279.4599889544743
 20
1570.7595000000006
 30
0.0
 10
1281.5190889544745
 20
1570.7368000000006
 30
0.0
 10
1281.5190889544745
 20
1570.7368000000006
 30
0.0
 10
1283.5831889544743
 20
1570.7368000000006
 30
0.0
 10
1285.6471889544744
 20
1570.7368000000006
 30
0.0
 10
1287.7108889544743
 20
1570.7368000000006
 30
0.0
 10
1287.7108889544743
 20
1570.7368000000006
 30
0.0
 10
1289.9053889544743
 20
1570.7456000000004
 30
0.0
 10
1291.5036889544745
 20
1568.8988000000004
 30
0.0
 10
1291.5480889544745
 20
1566.9867000000006
 30
0.0
 10
1291.5480889544745
 20
1566.9867000000006
 30
0.0
 10
1291.5476889544743
 20
1565.5516000000005
 30
0.0
 10
1291.5476889544743
 20
1564.1165000000005
 30
0.0
 10
1291.5480889544745
 20
1562.6810000000005
 30
0.0
 10
1291.5480889544745
 20
1562.6810000000005
 30
0.0
 10
1291.4994889544744
 20
1561.0275000000006
 30
0.0
 10
1289.8968889544744
 20
1558.7975000000006
 30
0.0
 10
1287.6985889544744
 20
1558.8075000000006
 30
0.0
 10
1287.6985889544744
 20
1558.8075000000006
 30
0.0
 10
1289.9022889544744
 20
1558.7963000000004
 30
0.0
 10
1291.5102889544744
 20
1556.9931000000006
 30
0.0
 10
1291.5642889544745
 20
1554.9336000000005
 30
0.0
 10
1291.5642889544745
 20
1554.9336000000005
 30
0.0
 10
1291.5638889544744
 20
1553.1489000000006
 30
0.0
 10
1291.5638889544744
 20
1551.3642000000004
 30
0.0
 10
1291.5642889544745
 20
1549.5791000000006
 30
0.0
 10
1291.5642889544745
 20
1549.5791000000006
 30
0.0
 10
1291.5743889544744
 20
1547.5177000000006
 30
0.0
 10
1289.5194889544744
 20
1545.7546000000004
 30
0.0
 10
1287.6985889544744
 20
1545.7627000000005
 30
0.0
 10
1287.6985889544744
 20
1545.7627000000005
 30
0.0
 10
1285.6332889544744
 20
1545.7630000000006
 30
0.0
 10
1283.5680889544744
 20
1545.7630000000006
 30
0.0
 10
1281.5024889544743
 20
1545.7627000000005
 30
0.0
 10
1281.5024889544743
 20
1545.7627000000005
 30
0.0
 10
1279.3338889544743
 20
1545.7742000000005
 30
0.0
 10
1276.8028889544744
 20
1548.1744000000006
 30
0.0
 10
1276.7842889544745
 20
1549.6362000000006
 30
0.0
 10
1276.7842889544745
 20
1549.6362000000006
 30
0.0
 10
1276.7842889544745
 20
1549.6362000000006
 30
0.0
 10
1276.7842889544745
 20
1551.5448000000006
 30
0.0
 10
1276.7842889544745
 20
1551.5448000000006
 30
0.0
  0
SPLINE
  5
3C
330
17
100
AcDbEntity
  8
200_140_1_black_Лодка Азимут Эверест 385 _2_layer 1
 62
250
370
9
100
AcDbSpline
 70
24
 71
3
 72
8
 73
4
 74
0
 42
1e-09
 40
0.0
 40
0.0
 40
0.0
 40
0.0
 40
1.0
 40
1.0
 40
1.0
 40
1.0
 10
1281.5194889544744
 20
1558.7971000000005
 30
0.0
 10
1281.5194889544744
 20
1558.7971000000005
 30
0.0
 10
1287.7158889544744
 20
1558.7971000000005
 30
0.0
 10
1287.7158889544744
 20
1558.7971000000005
 30
0.0
  0
SPLINE
  5
3D
330
17
100
AcDbEntity
  8
200_140_1_black_Лодка Азимут Эверест 385 _2_layer 1
 62
250
370
9
100
AcDbSpline
 70
11
 71
3
 72
36
 73
32
 74
0
 42
1e-09
 40
0.0
 40
0.0
 40
0.0
 40
0.0
 40
0.1111111111111111
 40
0.1111111111111111
 40
0.1111111111111111
 40
0.1111111111111111
 40
0.2222222222222222
 40
0.2222222222222222
 40
0.2222222222222222
 40
0.2222222222222222
 40
0.3333333333333333
 40
0.3333333333333333
 40
0.3333333333333333
 40
0.3333333333333333
 40
0.4444444444444444
 40
0.4444444444444444
 40
0.4444444444444444
 40
0.4444444444444444
 40
0.5555555555555556
 40
0.5555555555555556
 40
0.5555555555555556
 40
0.5555555555555556
 40
0.6666666666666666
 40
0.6666666666666666
 40
0.6666666666666666
 40
0.6666666666666666
 40
0.7777777777777778
 40
0.7777777777777778
 40
0.7777777777777778
 40
0.7777777777777778
 40
1.0
 40
1.0
 40
1.0
 40
1.0
 10
1295.7006889544743
 20
1556.7437000000004
 30
0.0
 10
1295.7006889544743
 20
1553.5729000000006
 30
0.0
 10
1295.7006889544743
 20
1551.8708000000006
 30
0.0
 10
1295.7006889544743
 20
1548.6994000000004
 30
0.0
 10
1295.7006889544743
 20
1548.6994000000004
 30
0.0
 10
1295.6921889544744
 20
1547.4775000000004
 30
0.0
 10
1297.3900889544743
 20
1545.7848000000006
 30
0.0
 10
1298.6426889544744
 20
1545.7763000000004
 30
0.0
 10
1298.6426889544744
 20
1545.7763000000004
 30
0.0
 10
1301.6257889544745
 20
1545.7766000000006
 30
0.0
 10
1304.6090889544744
 20
1545.7766000000006
 30
0.0
 10
1307.5924889544744
 20
1545.7763000000004
 30
0.0
 10
1307.5924889544744
 20
1545.7763000000004
 30
0.0
 10
1308.9157889544745
 20
1545.7880000000005
 30
0.0
 10
1310.5361889544745
 20
1547.4096000000004
 30
0.0
 10
1310.5250889544743
 20
1548.7088000000006
 30
0.0
 10
1310.5250889544743
 20
1548.7088000000006
 30
0.0
 10
1310.5247889544744
 20
1551.8770000000004
 30
0.0
 10
1310.5247889544744
 20
1553.5758000000005
 30
0.0
 10
1310.5250889544743
 20
1556.7437000000004
 30
0.0
 10
1310.5250889544743
 20
1556.7437000000004
 30
0.0
 10
1310.4553889544743
 20
1558.1241000000005
 30
0.0
 10
1308.8775889544745
 20
1559.7027000000005
 30
0.0
 10
1307.5721889544743
 20
1559.6966000000004
 30
0.0
 10
1307.5721889544743
 20
1559.6966000000004
 30
0.0
 10
1304.5955889544744
 20
1559.6963000000005
 30
0.0
 10
1301.6189889544744
 20
1559.6963000000005
 30
0.0
 10
1298.6426889544744
 20
1559.6966000000004
 30
0.0
 10
1298.6426889544744
 20
1559.6966000000004
 30
0.0
 10
1297.5631889544743
 20
1559.7030000000004
 30
0.0
 10
1295.7168889544744
 20
1558.1241000000005
 30
0.0
 10
1295.7006889544743
 20
1556.7437000000004
 30
0.0
  0
SPLINE
  5
3E
330
17
100
AcDbEntity
  8
200_140_1_black_Лодка Азимут Эверест 385 _2_layer 1
 62
250
370
9
100
AcDbSpline
 70
11
 71
3
 72
36
 73
32
 74
0
 42
1e-09
 40
0.0
 40
0.0
 40
0.0
 40
0.0
 40
0.1111111111111111
 40
0.1111111111111111
 40
0.1111111111111111
 40
0.1111111111111111
 40
0.2222222222222222
 40
0.2222222222222222
 40
0.2222222222222222
 40
0.2222222222222222
 40
0.3333333333333333
 40
0.3333333333333333
 40
0.3333333333333333
 40
0.3333333333333333
 40
0.4444444444444444
 40
0.4444444444444444
 40
0.4444444444444444
 40
0.4444444444444444
 40
0.5555555555555556
 40
0.5555555555555556
 40
0.5555555555555556
 40
0.5555555555555556
 40
0.6666666666666666
 40
0.6666666666666666
 40
0.6666666666666666
 40
0.6666666666666666
 40
0.7777777777777778
 40
0.7777777777777778
 40
0.7777777777777778
 40
0.7777777777777778
 40
1.0
 40
1.0
 40
1.0
 40
1.0
 10
1297.1594889544745
 20
1569.2619000000004
 30
0.0
 10
1297.1594889544745
 20
1567.0489000000005
 30
0.0
 10
1297.1594889544745
 20
1563.3666000000005
 30
0.0
 10
1297.1594889544745
 20
1561.1533000000004
 30
0.0
 10
1297.1594889544745
 20
1561.1533000000004
 30
0.0
 10
1297.1744889544743
 20
1560.6459000000004
 30
0.0
 10
1297.9818889544745
 20
1559.7145000000005
 30
0.0
 10
1298.6819889544745
 20
1559.7157000000004
 30
0.0
 10
1298.6819889544745
 20
1559.7157000000004
 30
0.0
 10
1301.6518889544743
 20
1559.7159000000006
 30
0.0
 10
1304.6220889544743
 20
1559.6310000000005
 30
0.0
 10
1307.5924889544744
 20
1559.6307000000006
 30
0.0
 10
1307.5924889544744
 20
1559.6307000000006
 30
0.0
 10
1308.3895889544744
 20
1559.6349000000005
 30
0.0
 10
1309.1102889544743
 20
1560.4252000000006
 30
0.0
 10
1309.1076889544745
 20
1561.1459000000004
 30
0.0
 10
1309.1076889544745
 20
1561.1459000000004
 30
0.0
 10
1309.1073889544743
 20
1563.3619000000006
 30
0.0
 10
1309.1073889544743
 20
1567.0466000000006
 30
0.0
 10
1309.1076889544745
 20
1569.2619000000004
 30
0.0
 10
1309.1076889544745
 20
1569.2619000000004
 30
0.0
 10
1309.0891889544744
 20
1569.9727000000005
 30
0.0
 10
1308.4777889544744
 20
1570.7331000000006
 30
0.0
 10
1307.6438889544745
 20
1570.7257000000004
 30
0.0
 10
1307.6438889544745
 20
1570.7257000000004
 30
0.0
 10
1304.6267889544745
 20
1570.7254000000005
 30
0.0
 10
1301.6098889544744
 20
1570.7254000000005
 30
0.0
 10
1298.5932889544745
 20
1570.7257000000004
 30
0.0
 10
1298.5932889544745
 20
1570.7257000000004
 30
0.0
 10
1297.9668889544744
 20
1570.7333000000006
 30
0.0
 10
1297.1427889544743
 20
1570.0223000000005
 30
0.0
 10
1297.1594889544745
 20
1569.2619000000004
 30
0.0
  0
SPLINE
  5
3F
330
17
100
AcDbEntity
  8
200_140_1_black_Лодка Азимут Эверест 385 _2_layer 1
 62
250
370
9
100
AcDbSpline
 70
8
 71
3
 72
32
 73
28
 74
0
 42
1e-09
 40
0.0
 40
0.0
 40
0.0
 40
0.0
 40
0.125
 40
0.125
 40
0.125
 40
0.125
 40
0.25
 40
0.25
 40
0.25
 40
0.25
 40
0.375
 40
0.375
 40
0.375
 40
0.375
 40
0.5
 40
0.5
 40
0.5
 40
0.5
 40
0.625
 40
0.625
 40
0.625
 40
0.625
 40
0.75
 40
0.75
 40
0.75
 40
0.75
 40
1.0
 40
1.0
 40
1.0
 40
1.0
 10
1190.9550889544744
 20
1545.0173000000004
 30
0.0
 10
1190.9550889544744
 20
1545.0173000000004
 30
0.0
 10
1190.9550889544744
 20
1569.9708000000005
 30
0.0
 10
1190.9550889544744
 20
1569.9708000000005
 30
0.0
 10
1190.9550889544744
 20
1569.9708000000005
 30
0.0
 10
1194.5498889544745
 20
1569.9708000000005
 30
0.0
 10
1198.1453889544744
 20
1569.9708000000005
 30
0.0
 10
1201.7405889544743
 20
1569.9708000000005
 30
0.0
 10
1201.7405889544743
 20
1569.9708000000005
 30
0.0
 10
1204.0658889544743
 20
1569.9331000000004
 30
0.0
 10
1205.6231889544745
 20
1568.4431000000004
 30
0.0
 10
1205.6190889544744
 20
1566.0767000000005
 30
0.0
 10
1205.6190889544744
 20
1566.0767000000005
 30
0.0
 10
1205.6186889544745
 20
1564.0412000000006
 30
0.0
 10
1205.6186889544745
 20
1560.9818000000005
 30
0.0
 10
1205.6190889544744
 20
1558.9458000000004
 30
0.0
 10
1205.6190889544744
 20
1558.9458000000004
 30
0.0
 10
1205.6125889544744
 20
1557.0703000000005
 30
0.0
 10
1203.8002889544744
 20
1555.1285000000005
 30
0.0
 10
1201.7907889544745
 20
1555.1094000000005
 30
0.0
 10
1201.7907889544745
 20
1555.1094000000005
 30
0.0
 10
1201.7907889544745
 20
1555.1094000000005
 30
0.0
 10
1190.9550889544744
 20
1555.1094000000005
 30
0.0
 10
1190.9550889544744
 20
1555.1094000000005
 30
0.0
 10
1190.9550889544744
 20
1555.1094000000005
 30
0.0
 10
1190.9550889544744
 20
1555.1094000000005
 30
0.0
 10
1205.6097889544744
 20
1545.0173000000004
 30
0.0
 10
1205.6097889544744
 20
1545.0173000000004
 30
0.0
  0
SPLINE
  5
40
330
17
100
AcDbEntity
  8
200_140_1_black_Лодка Азимут Эверест 385 _2_layer 1
 62
250
370
9
100
AcDbSpline
 70
8
 71
3
 72
16
 73
12
 74
0
 42
1e-09
 40
0.0
 40
0.0
 40
0.0
 40
0.0
 40
0.25
 40
0.25
 40
0.25
 40
0.25
 40
0.5
 40
0.5
 40
0.5
 40
0.5
 40
1.0
 40
1.0
 40
1.0
 40
1.0
 10
1141.7281889544743
 20
1569.9708000000005
 30
0.0
 10
1141.7281889544743
 20
1569.9708000000005
 30
0.0
 10
1128.8542889544742
 20
1569.9708000000005
 30
0.0
 10
1128.8542889544742
 20
1569.9708000000005
 30
0.0
 10
1128.8542889544742
 20
1569.9708000000005
 30
0.0
 10
1128.8542889544742
 20
1569.9708000000005
 30
0.0
 10
1128.8542889544742
 20
1545.0172000000005
 30
0.0
 10
1128.8542889544742
 20
1545.0172000000005
 30
0.0
 10
1128.8542889544742
 20
1545.0172000000005
 30
0.0
 10
1128.8542889544742
 20
1545.0172000000005
 30
0.0
 10
1143.7200889544742
 20
1545.0172000000005
 30
0.0
 10
1143.7200889544742
 20
1545.0172000000005
 30
0.0
  0
SPLINE
  5
41
330
17
100
AcDbEntity
  8
200_140_1_black_Лодка Азимут Эверест 385 _2_layer 1
 62
250
370
9
100
AcDbSpline
 70
24
 71
3
 72
8
 73
4
 74
0
 42
1e-09
 40
0.0
 40
0.0
 40
0.0
 40
0.0
 40
1.0
 40
1.0
 40
1.0
 40
1.0
 10
1128.8542889544742
 20
1558.0911000000006
 30
0.0
 10
1128.8542889544742
 20
1558.0911000000006
 30
0.0
 10
1136.0223889544743
 20
1558.0911000000006
 30
0.0
 10
1136.0223889544743
 20
1558.0911000000006
 30
0.0
  0
SPLINE
  5
42
330
17
100
AcDbEntity
  8
200_140_1_black_Лодка Азимут Эверест 385 _2_layer 1
 62
250
370
9
100
AcDbSpline
 70
24
 71
3
 72
8
 73
4
 74
0
 42
1e-09
 40
0.0
 40
0.0
 40
0.0
 40
0.0
 40
1.0
 40
1.0
 40
1.0
 40
1.0
 10
1245.9502889544744
 20
1570.7183000000005
 30
0.0
 10
1245.9502889544744
 20
1570.7183000000005
 30
0.0
 10
1262.9374889544745
 20
1570.7183000000005
 30
0.0
 10
1262.9374889544745
 20
1570.7183000000005
 30
0.0
  0
SPLINE
  5
43
330
17
100
AcDbEntity
  8
200_140_1_black_Лодка Азимут Эверест 385 _2_layer 1
 62
250
370
9
100
AcDbSpline
 70
24
 71
3
 72
8
 73
4
 74
0
 42
1e-09
 40
0.0
 40
0.0
 40
0.0
 40
0.0
 40
1.0
 40
1.0
 40
1.0
 40
1.0
 10
1254.4440889544744
 20
1545.7883000000004
 30
0.0
 10
1254.4440889544744
 20
1545.7883000000004
 30
0.0
 10
1254.4440889544744
 20
1570.7418000000005
 30
0.0
 10
1254.4440889544744
 20
1570.7418000000005
 30
0.0
  0
SPLINE
  5
44
330
17
100
AcDbEntity
  8
200_140_1_black_Лодка Азимут Эверест 385 _2_layer 1
 62
250
370
9
100
AcDbSpline
 70
8
 71
3
 72
16
 73
12
 74
0
 42
1e-09
 40
0.0
 40
0.0
 40
0.0
 40
0.0
 40
0.25
 40
0.25
 40
0.25
 40
0.25
 40
0.5
 40
0.5
 40
0.5
 40
0.5
 40
1.0
 40
1.0
 40
1.0
 40
1.0
 10
1234.4438889544745
 20
1558.2650000000006
 30
0.0
 10
1230.1955889544745
 20
1559.7354000000005
 30
0.0
 10
1225.2874889544744
 20
1561.5312000000006
 30
0.0
 10
1227.2925889544745
 20
1567.0515000000005
 30
0.0
 10
1227.2925889544745
 20
1567.0515000000005
 30
0.0
 10
1228.7960889544745
 20
1571.1914000000006
 30
0.0
 10
1234.0096889544743
 20
1570.8029000000006
 30
0.0
 10
1237.6132889544745
 20
1570.2018000000005
 30
0.0
 10
1237.6132889544745
 20
1570.2018000000005
 30
0.0
 10
1240.4738889544744
 20
1569.7246000000005
 30
0.0
 10
1241.3385889544743
 20
1568.5114000000005
 30
0.0
 10
1241.6491889544743
 20
1566.4273000000005
 30
0.0
  0
SPLINE
  5
45
330
17
100
AcDbEntity
  8
200_140_1_black_Лодка Азимут Эверест 385 _2_layer 1
 62
250
370
9
100
AcDbSpline
 70
8
 71
3
 72
16
 73
12
 74
0
 42
1e-09
 40
0.0
 40
0.0
 40
0.0
 40
0.0
 40
0.25
 40
0.25
 40
0.25
 40
0.25
 40
0.5
 40
0.5
 40
0.5
 40
0.5
 40
1.0
 40
1.0
 40
1.0
 40
1.0
 10
1234.4438889544745
 20
1558.2649000000006
 30
0.0
 10
1238.4624889544743
 20
1556.6182000000006
 30
0.0
 10
1243.4919889544744
 20
1554.7299000000005
 30
0.0
 10
1241.6579889544744
 20
1549.3696000000004
 30
0.0
 10
1241.6579889544744
 20
1549.3696000000004
 30
0.0
 10
1240.1981889544743
 20
1545.1032000000005
 30
0.0
 10
1235.2873889544744
 20
1545.3599000000006
 30
0.0
 10
1231.5612889544743
 20
1545.9146000000005
 30
0.0
 10
1231.5612889544743
 20
1545.9146000000005
 30
0.0
 10
1228.8112889544743
 20
1546.3244000000004
 30
0.0
 10
1227.5903889544743
 20
1547.5379000000005
 30
0.0
 10
1227.2123889544744
 20
1549.6501000000005
 30
0.0
  0
SPLINE
  5
46
330
17
100
AcDbEntity
  8
200_140_1_black_Лодка Азимут Эверест 385 _2_layer 1
 62
250
370
9
100
AcDbSpline
 70
24
 71
3
 72
8
 73
4
 74
0
 42
1e-09
 40
0.0
 40
0.0
 40
0.0
 40
0.0
 40
1.0
 40
1.0
 40
1.0
 40
1.0
 10
1163.6090889544744
 20
1569.9708000000005
 30
0.0
 10
1163.6090889544744
 20
1569.9708000000005
 30
0.0
 10
1156.2872889544744
 20
1545.0172000000005
 30
0.0
 10
1156.2872889544744
 20
1545.0172000000005
 30
0.0
  0
SPLINE
  5
47
330
17
100
AcDbEntity
  8
200_140_1_black_Лодка Азимут Эверест 385 _2_layer 1
 62
250
370
9
100
AcDbSpline
 70
24
 71
3
 72
8
 73
4
 74
0
 42
1e-09
 40
0.0
 40
0.0
 40
0.0
 40
0.0
 40
1.0
 40
1.0
 40
1.0
 40
1.0
 10
1156.2871889544745
 20
1545.0172000000005
 30
0.0
 10
1156.2871889544745
 20
1545.0172000000005
 30
0.0
 10
1148.9653889544743
 20
1569.9708000000005
 30
0.0
 10
1148.9653889544743
 20
1569.9708000000005
 30
0.0
  0
SPLINE
  5
48
330
17
100
AcDbEntity
  8
200_140_1_black_Лодка Азимут Эверест 385 _2_layer 1
 62
250
370
9
100
AcDbSpline
 70
8
 71
3
 72
16
 73
12
 74
0
 42
1e-09
 40
0.0
 40
0.0
 40
0.0
 40
0.0
 40
0.25
 40
0.25
 40
0.25
 40
0.25
 40
0.5
 40
0.5
 40
0.5
 40
0.5
 40
1.0
 40
1.0
 40
1.0
 40
1.0
 10
1183.7281889544745
 20
1569.9708000000005
 30
0.0
 10
1183.7281889544745
 20
1569.9708000000005
 30
0.0
 10
1170.8542889544744
 20
1569.9708000000005
 30
0.0
 10
1170.8542889544744
 20
1569.9708000000005
 30
0.0
 10
1170.8542889544744
 20
1569.9708000000005
 30
0.0
 10
1170.8542889544744
 20
1569.9708000000005
 30
0.0
 10
1170.8542889544744
 20
1545.0172000000005
 30
0.0
 10
1170.8542889544744
 20
1545.0172000000005
 30
0.0
 10
1170.8542889544744
 20
1545.0172000000005
 30
0.0
 10
1170.8542889544744
 20
1545.0172000000005
 30
0.0
 10
1185.7200889544745
 20
1545.0172000000005
 30
0.0
 10
1185.7200889544745
 20
1545.0172000000005
 30
0.0
  0
SPLINE
  5
49
330
17
100
AcDbEntity
  8
200_140_1_black_Лодка Азимут Эверест 385 _2_layer 1
 62
250
370
9
100
AcDbSpline
 70
24
 71
3
 72
8
 73
4
 74
0
 42
1e-09
 40
0.0
 40
0.0
 40
0.0
 40
0.0
 40
1.0
 40
1.0
 40
1.0
 40
1.0
 10
1170.8542889544744
 20
1558.0911000000006
 30
0.0
 10
1170.8542889544744
 20
1558.0911000000006
 30
0.0
 10
1178.0223889544743
 20
1558.0911000000006
 30
0.0
 10
1178.0223889544743
 20
1558.0911000000006
 30
0.0
  0
SPLINE
  5
4A
330
17
100
AcDbEntity
  8
200_140_1_black_Лодка Азимут Эверест 385 _2_layer 1
 62
250
370
9
100
AcDbSpline
 70
8
 71
3
 72
16
 73
12
 74
0
 42
1e-09
 40
0.0
 40
0.0
 40
0.0
 40
0.0
 40
0.25
 40
0.25
 40
0.25
 40
0.25
 40
0.5
 40
0.5
 40
0.5
 40
0.5
 40
1.0
 40
1.0
 40
1.0
 40
1.0
 10
1223.7281889544745
 20
1569.9708000000005
 30
0.0
 10
1223.7281889544745
 20
1569.9708000000005
 30
0.0
 10
1210.8542889544744
 20
1569.9708000000005
 30
0.0
 10
1210.8542889544744
 20
1569.9708000000005
 30
0.0
 10
1210.8542889544744
 20
1569.9708000000005
 30
0.0
 10
1210.8542889544744
 20
1569.9708000000005
 30
0.0
 10
1210.8542889544744
 20
1545.0172000000005
 30
0.0
 10
1210.8542889544744
 20
1545.0172000000005
 30
0.0
 10
1210.8542889544744
 20
1545.0172000000005
 30
0.0
 10
1210.8542889544744
 20
1545.0172000000005
 30
0.0
 10
1225.7200889544745
 20
1545.0172000000005
 30
0.0
 10
1225.7200889544745
 20
1545.0172000000005
 30
0.0
  0
SPLINE
  5
4B
330
17
100
AcDbEntity
  8
200_140_1_black_Лодка Азимут Эверест 385 _2_layer 1
 62
250
370
9
100
AcDbSpline
 70
24
 71
3
 72
8
 73
4
 74
0
 42
1e-09
 40
0.0
 40
0.0
 40
0.0
 40
0.0
 40
1.0
 40
1.0
 40
1.0
 40
1.0
 10
1210.8542889544744
 20
1558.0911000000006
 30
0.0
 10
1210.8542889544744
 20
1558.0911000000006
 30
0.0
 10
1218.0223889544743
 20
1558.0911000000006
 30
0.0
 10
1218.0223889544743
 20
1558.0911000000006
 30
0.0
  0
SPLINE
  5
4C
330
17
100
AcDbEntity
  8
200_140_1_black_Лодка Азимут Эверест 385 _2_layer 1
 62
250
370
9
100
AcDbSpline
 70
8
 71
3
 72
40
 73
36
 74
0
 42
1e-09
 40
0.0
 40
0.0
 40
0.0
 40
0.0
 40
0.1
 40
0.1
 40
0.1
 40
0.1
 40
0.2
 40
0.2
 40
0.2
 40
0.2
 40
0.3
 40
0.3
 40
0.3
 40
0.3
 40
0.4
 40
0.4
 40
0.4
 40
0.4
 40
0.5
 40
0.5
 40
0.5
 40
0.5
 40
0.6
 40
0.6
 40
0.6
 40
0.6
 40
0.7
 40
0.7
 40
0.7
 40
0.7
 40
0.8
 40
0.8
 40
0.8
 40
0.8
 40
1.0
 40
1.0
 40
1.0
 40
1.0
 10
1328.5069889544743
 20
1570.7058000000004
 30
0.0
 10
1328.5069889544743
 20
1570.7058000000004
 30
0.0
 10
1315.6552889544744
 20
1570.7058000000004
 30
0.0
 10
1315.6552889544744
 20
1570.7058000000004
 30
0.0
 10
1315.6552889544744
 20
1570.7058000000004
 30
0.0
 10
1315.6555889544743
 20
1566.4752000000005
 30
0.0
 10
1315.6555889544743
 20
1562.2443000000005
 30
0.0
 10
1315.6552889544744
 20
1558.0131000000006
 30
0.0
 10
1315.6552889544744
 20
1558.0131000000006
 30
0.0
 10
1315.6549889544744
 20
1561.3232000000005
 30
0.0
 10
1317.2859889544743
 20
1562.3950000000004
 30
0.0
 10
1320.0979889544744
 20
1562.4555000000005
 30
0.0
 10
1320.0979889544744
 20
1562.4555000000005
 30
0.0
 10
1322.5375889544744
 20
1562.4558000000004
 30
0.0
 10
1324.9770889544743
 20
1562.4558000000004
 30
0.0
 10
1327.4162889544743
 20
1562.4555000000005
 30
0.0
 10
1327.4162889544743
 20
1562.4555000000005
 30
0.0
 10
1329.0660889544745
 20
1562.4623000000006
 30
0.0
 10
1330.5409889544744
 20
1560.0818000000006
 30
0.0
 10
1330.5694889544743
 20
1558.0131000000006
 30
0.0
 10
1330.5694889544743
 20
1558.0131000000006
 30
0.0
 10
1330.5691889544744
 20
1555.4258000000004
 30
0.0
 10
1330.5691889544744
 20
1552.8382000000006
 30
0.0
 10
1330.5694889544743
 20
1550.2505000000006
 30
0.0
 10
1330.5694889544743
 20
1550.2505000000006
 30
0.0
 10
1330.6156889544743
 20
1548.2911000000006
 30
0.0
 10
1329.1162889544744
 20
1545.8548000000005
 30
0.0
 10
1327.4903889544744
 20
1545.7963000000004
 30
0.0
 10
1327.4903889544744
 20
1545.7963000000004
 30
0.0
 10
1325.5338889544744
 20
1545.7966000000006
 30
0.0
 10
1320.6388889544744
 20
1545.7966000000006
 30
0.0
 10
1318.6818889544743
 20
1545.7963000000004
 30
0.0
 10
1318.6818889544743
 20
1545.7963000000004
 30
0.0
 10
1316.8363889544744
 20
1545.7875000000006
 30
0.0
 10
1315.7292889544744
 20
1547.7523000000006
 30
0.0
 10
1315.7084889544744
 20
1550.3034000000005
 30
0.0
  0
SPLINE
  5
4D
330
17
100
AcDbEntity
  8
200_140_1_black_Лодка Азимут Эверест 385 _2_layer 1
 62
242
370
9
100
AcDbSpline
 70
11
 71
3
 72
44
 73
40
 74
0
 42
1e-09
 40
0.0
 40
0.0
 40
0.0
 40
0.0
 40
0.0909090909090909
 40
0.0909090909090909
 40
0.0909090909090909
 40
0.0909090909090909
 40
0.1818181818181818
 40
0.1818181818181818
 40
0.1818181818181818
 40
0.1818181818181818
 40
0.2727272727272727
 40
0.2727272727272727
 40
0.2727272727272727
 40
0.2727272727272727
 40
0.3636363636363636
 40
0.3636363636363636
 40
0.3636363636363636
 40
0.3636363636363636
 40
0.4545454545454545
 40
0.4545454545454545
 40
0.4545454545454545
 40
0.4545454545454545
 40
0.5454545454545454
 40
0.5454545454545454
 40
0.5454545454545454
 40
0.5454545454545454
 40
0.6363636363636364
 40
0.6363636363636364
 40
0.6363636363636364
 40
0.6363636363636364
 40
0.7272727272727273
 40
0.7272727272727273
 40
0.7272727272727273
 40
0.7272727272727273
 40
0.8181818181818182
 40
0.8181818181818182
 40
0.8181818181818182
 40
0.8181818181818182
 40
1.0
 40
1.0
 40
1.0
 40
1.0
 10
1556.6852889544743
 20
3074.9985000000006
 30
0.0
 10
1556.6852889544743
 20
3074.9985000000006
 30
0.0
 10
1556.6852889544743
 20
1424.9990000000005
 30
0.0
 10
1556.6852889544743
 20
1424.9990000000005
 30
0.0
 10
1556.6852889544743
 20
1424.9990000000005
 30
0.0
 10
1556.6852889544743
 20
1424.9990000000005
 30
0.0
 10
686.6856889544742
 20
1424.9990000000005
 30
0.0
 10
686.6856889544742
 20
1424.9990000000005
 30
0.0
 10
686.6856889544742
 20
1424.9990000000005
 30
0.0
 10
686.6856889544742
 20
1424.9990000000005
 30
0.0
 10
686.6856889544742
 20
3074.9985000000006
 30
0.0
 10
686.6856889544742
 20
3074.9985000000006
 30
0.0
 10
686.6856889544742
 20
3074.9985000000006
 30
0.0
 10
686.6856889544742
 20
3074.9985000000006
 30
0.0
 10
691.6860889544743
 20
3174.9975000000004
 30
0.0
 10
691.6860889544743
 20
3174.9975000000004
 30
0.0
 10
691.6860889544743
 20
3174.9975000000004
 30
0.0
 10
691.6860889544743
 20
3174.9975000000004
 30
0.0
 10
691.6860889544743
 20
3274.9965
 30
0.0
 10
691.6860889544743
 20
3274.9965
 30
0.0
 10
691.6860889544743
 20
3274.9965
 30
0.0
 10
691.6860889544743
 20
3274.9965
 30
0.0
 10
699.1860889544743
 20
3424.9979000000003
 30
0.0
 10
699.1860889544743
 20
3424.9979000000003
 30
0.0
 10
699.1860889544743
 20
3424.9979000000003
 30
0.0
 10
699.1860889544743
 20
3424.9979000000003
 30
0.0
 10
1544.1863889544743
 20
3424.9979000000003
 30
0.0
 10
1544.1863889544743
 20
3424.9979000000003
 30
0.0
 10
1544.1863889544743
 20
3424.9979000000003
 30
0.0
 10
1544.1863889544743
 20
3424.9979000000003
 30
0.0
 10
1551.6862889544743
 20
3274.9965
 30
0.0
 10
1551.6862889544743
 20
3274.9965
 30
0.0
 10
1551.6862889544743
 20
3274.9965
 30
0.0
 10
1551.6862889544743
 20
3274.9965
 30
0.0
 10
1551.6862889544743
 20
3174.9975000000004
 30
0.0
 10
1551.6862889544743
 20
3174.9975000000004
 30
0.0
 10
1551.6862889544743
 20
3174.9975000000004
 30
0.0
 10
1551.6862889544743
 20
3174.9975000000004
 30
0.0
 10
1556.6852889544743
 20
3074.9985000000006
 30
0.0
 10
1556.6852889544743
 20
3074.9985000000006
 30
0.0
  0
SPLINE
  5
4E
330
17
100
AcDbEntity
  8
200_140_1_black_Лодка АГУЛ 270_2_layer 1
 62
250
370
9
100
AcDbSpline
 70
8
 71
3
 72
12
 73
8
 74
0
 42
1e-09
 40
0.0
 40
0.0
 40
0.0
 40
0.0
 40
0.3333333333333333
 40
0.3333333333333333
 40
0.3333333333333333
 40
0.3333333333333333
 40
1.0
 40
1.0
 40
1.0
 40
1.0
 10
1617.3981889544743
 20
1180.8674999999998
 30
0.0
 10
1617.3981889544743
 20
1180.8674999999998
 30
0.0
 10
1624.7691889544744
 20
1205.821
 30
0.0
 10
1624.7691889544744
 20
1205.821
 30
0.0
 10
1624.7691889544744
 20
1205.821
 30
0.0
 10
1624.7691889544744
 20
1205.821
 30
0.0
 10
1632.3390889544744
 20
1180.8674999999998
 30
0.0
 10
1632.3390889544744
 20
1180.8674999999998
 30
0.0
  0
SPLINE
  5
4F
330
17
100
AcDbEntity
  8
200_140_1_black_Лодка АГУЛ 270_2_layer 1
 62
250
370
9
100
AcDbSpline
 70
24
 71
3
 72
8
 73
4
 74
0
 42
1e-09
 40
0.0
 40
0.0
 40
0.0
 40
0.0
 40
1.0
 40
1.0
 40
1.0
 40
1.0
 10
1620.1207889544744
 20
1190.1168999999998
 30
0.0
 10
1620.1207889544744
 20
1190.1168999999998
 30
0.0
 10
1629.6164889544743
 20
1190.1168999999998
 30
0.0
 10
1629.6164889544743
 20
1190.1168999999998
 30
0.0
  0
SPLINE
  5
50
330
17
100
AcDbEntity
  8
200_140_1_black_Лодка АГУЛ 270_2_layer 1
 62
250
370
9
100
AcDbSpline
 70
8
 71
3
 72
40
 73
36
 74
0
 42
1e-09
 40
0.0
 40
0.0
 40
0.0
 40
0.0
 40
0.1
 40
0.1
 40
0.1
 40
0.1
 40
0.2
 40
0.2
 40
0.2
 40
0.2
 40
0.3
 40
0.3
 40
0.3
 40
0.3
 40
0.4
 40
0.4
 40
0.4
 40
0.4
 40
0.5
 40
0.5
 40
0.5
 40
0.5
 40
0.6
 40
0.6
 40
0.6
 40
0.6
 40
0.7
 40
0.7
 40
0.7
 40
0.7
 40
0.8
 40
0.8
 40
0.8
 40
0.8
 40
1.0
 40
1.0
 40
1.0
 40
1.0
 10
1645.1235889544744
 20
1191.8531999999998
 30
0.0
 10
1645.1235889544744
 20
1191.8531999999998
 30
0.0
 10
1652.2916889544745
 20
1191.8531999999998
 30
0.0
 10
1652.2916889544745
 20
1191.8531999999998
 30
0.0
 10
1652.2916889544745
 20
1191.8531999999998
 30
0.0
 10
1652.2916889544745
 20
1191.8531999999998
 30
0.0
 10
1652.2916889544745
 20
1184.6850999999997
 30
0.0
 10
1652.2916889544745
 20
1184.6850999999997
 30
0.0
 10
1652.2916889544745
 20
1184.6850999999997
 30
0.0
 10
1652.1519889544743
 20
1182.3616999999997
 30
0.0
 10
1650.4747889544744
 20
1180.8820999999998
 30
0.0
 10
1648.3269889544745
 20
1180.8712999999998
 30
0.0
 10
1648.3269889544745
 20
1180.8712999999998
 30
0.0
 10
1645.9951889544743
 20
1180.8716999999997
 30
0.0
 10
1643.6631889544744
 20
1180.8716999999997
 30
0.0
 10
1641.3316889544744
 20
1180.8712999999998
 30
0.0
 10
1641.3316889544744
 20
1180.8712999999998
 30
0.0
 10
1639.4067889544745
 20
1180.7658999999999
 30
0.0
 10
1637.4345889544743
 20
1182.6503999999998
 30
0.0
 10
1637.4457889544744
 20
1184.6676999999997
 30
0.0
 10
1637.4457889544744
 20
1184.6676999999997
 30
0.0
 10
1637.4461889544743
 20
1190.4377999999997
 30
0.0
 10
1637.4461889544743
 20
1196.2074999999998
 30
0.0
 10
1637.4457889544744
 20
1201.9768
 30
0.0
 10
1637.4457889544744
 20
1201.9768
 30
0.0
 10
1637.4499889544745
 20
1204.1148999999998
 30
0.0
 10
1639.1967889544744
 20
1205.8340999999998
 30
0.0
 10
1641.3490889544744
 20
1205.8206999999998
 30
0.0
 10
1641.3490889544744
 20
1205.8206999999998
 30
0.0
 10
1643.6747889544745
 20
1205.8206999999998
 30
0.0
 10
1646.0008889544742
 20
1205.8206999999998
 30
0.0
 10
1648.3269889544745
 20
1205.8206999999998
 30
0.0
 10
1648.3269889544745
 20
1205.8206999999998
 30
0.0
 10
1650.2736889544744
 20
1205.8560999999997
 30
0.0
 10
1652.2650889544743
 20
1204.3645999999999
 30
0.0
 10
1652.2916889544745
 20
1201.9269
 30
0.0
  0
SPLINE
  5
51
330
17
100
AcDbEntity
  8
200_140_1_black_Лодка АГУЛ 270_2_layer 1
 62
250
370
9
100
AcDbSpline
 70
8
 71
3
 72
12
 73
8
 74
0
 42
1e-09
 40
0.0
 40
0.0
 40
0.0
 40
0.0
 40
0.3333333333333333
 40
0.3333333333333333
 40
0.3333333333333333
 40
0.3333333333333333
 40
1.0
 40
1.0
 40
1.0
 40
1.0
 10
1691.3431889544745
 20
1180.8673999999999
 30
0.0
 10
1691.3431889544745
 20
1180.8673999999999
 30
0.0
 10
1678.3940889544745
 20
1180.8673999999999
 30
0.0
 10
1678.3940889544745
 20
1180.8673999999999
 30
0.0
 10
1678.3940889544745
 20
1180.8673999999999
 30
0.0
 10
1678.3940889544745
 20
1180.8673999999999
 30
0.0
 10
1678.3940889544745
 20
1205.821
 30
0.0
 10
1678.3940889544745
 20
1205.821
 30
0.0
  0
SPLINE
  5
52
330
17
100
AcDbEntity
  8
200_140_1_black_Лодка АГУЛ 270_2_layer 1
 62
250
370
9
100
AcDbSpline
 70
8
 71
3
 72
24
 73
20
 74
0
 42
1e-09
 40
0.0
 40
0.0
 40
0.0
 40
0.0
 40
0.1666666666666667
 40
0.1666666666666667
 40
0.1666666666666667
 40
0.1666666666666667
 40
0.3333333333333333
 40
0.3333333333333333
 40
0.3333333333333333
 40
0.3333333333333333
 40
0.5
 40
0.5
 40
0.5
 40
0.5
 40
0.6666666666666666
 40
0.6666666666666666
 40
0.6666666666666666
 40
0.6666666666666666
 40
1.0
 40
1.0
 40
1.0
 40
1.0
 10
1672.1958889544744
 20
1205.8251999999998
 30
0.0
 10
1672.1954889544745
 20
1200.2857
 30
0.0
 10
1672.2912889544743
 20
1190.0838999999996
 30
0.0
 10
1672.2916889544745
 20
1184.5434999999998
 30
0.0
 10
1672.2916889544745
 20
1184.5434999999998
 30
0.0
 10
1672.1518889544743
 20
1182.3039999999999
 30
0.0
 10
1670.4746889544745
 20
1180.8777999999998
 30
0.0
 10
1668.3269889544745
 20
1180.8673
 30
0.0
 10
1668.3269889544745
 20
1180.8673
 30
0.0
 10
1665.9950889544743
 20
1180.8676999999998
 30
0.0
 10
1663.6631889544744
 20
1180.8676999999998
 30
0.0
 10
1661.3316889544744
 20
1180.8673
 30
0.0
 10
1661.3316889544744
 20
1180.8673
 30
0.0
 10
1659.4066889544742
 20
1180.7658
 30
0.0
 10
1657.4345889544743
 20
1182.5822999999998
 30
0.0
 10
1657.4457889544744
 20
1184.5267999999999
 30
0.0
 10
1657.4457889544744
 20
1184.5267999999999
 30
0.0
 10
1657.4460889544744
 20
1190.0886999999998
 30
0.0
 10
1657.5414889544745
 20
1200.2640999999999
 30
0.0
 10
1657.5410889544744
 20
1205.8251999999998
 30
0.0
  0
SPLINE
  5
53
330
17
100
AcDbEntity
  8
200_140_1_black_Лодка АГУЛ 270_2_layer 1
 62
250
370
9
100
AcDbSpline
 70
8
 71
3
 72
32
 73
28
 74
0
 42
1e-09
 40
0.0
 40
0.0
 40
0.0
 40
0.0
 40
0.125
 40
0.125
 40
0.125
 40
0.125
 40
0.25
 40
0.25
 40
0.25
 40
0.25
 40
0.375
 40
0.375
 40
0.375
 40
0.375
 40
0.5
 40
0.5
 40
0.5
 40
0.5
 40
0.625
 40
0.625
 40
0.625
 40
0.625
 40
0.75
 40
0.75
 40
0.75
 40
0.75
 40
1.0
 40
1.0
 40
1.0
 40
1.0
 10
1719.1348889544743
 20
1180.9138999999998
 30
0.0
 10
1714.2204889544744
 20
1180.9141999999997
 30
0.0
 10
1709.3060889544745
 20
1180.9141999999997
 30
0.0
 10
1704.3919889544743
 20
1180.9138999999998
 30
0.0
 10
1704.3919889544743
 20
1180.9138999999998
 30
0.0
 10
1704.3919889544743
 20
1190.8462
 30
0.0
 10
1719.0429889544744
 20
1193.4873999999998
 30
0.0
 10
1719.1348889544743
 20
1197.7976999999998
 30
0.0
 10
1719.1348889544743
 20
1197.7976999999998
 30
0.0
 10
1719.1345889544743
 20
1199.2217999999998
 30
0.0
 10
1719.1345889544743
 20
1200.6454999999996
 30
0.0
 10
1719.1348889544743
 20
1202.0687999999998
 30
0.0
 10
1719.1348889544743
 20
1202.0687999999998
 30
0.0
 10
1719.1179889544744
 20
1204.1458999999998
 30
0.0
 10
1716.9951889544743
 20
1205.8707
 30
0.0
 10
1715.3241889544743
 20
1205.888
 30
0.0
 10
1715.3241889544743
 20
1205.888
 30
0.0
 10
1713.2509889544745
 20
1205.8875999999998
 30
0.0
 10
1711.1780889544743
 20
1205.8875999999998
 30
0.0
 10
1709.1056889544743
 20
1205.888
 30
0.0
 10
1709.1056889544743
 20
1205.888
 30
0.0
 10
1707.2835889544745
 20
1205.9044999999996
 30
0.0
 10
1704.4588889544743
 20
1204.1123999999998
 30
0.0
 10
1704.3919889544743
 20
1202.0187999999998
 30
0.0
 10
1704.3919889544743
 20
1202.0187999999998
 30
0.0
 10
1704.3919889544743
 20
1202.0187999999998
 30
0.0
 10
1704.3919889544743
 20
1199.964
 30
0.0
 10
1704.3919889544743
 20
1199.964
 30
0.0
  0
SPLINE
  5
54
330
17
100
AcDbEntity
  8
200_140_1_black_Лодка АГУЛ 270_2_layer 1
 62
250
370
9
100
AcDbSpline
 70
8
 71
3
 72
16
 73
12
 74
0
 42
1e-09
 40
0.0
 40
0.0
 40
0.0
 40
0.0
 40
0.25
 40
0.25
 40
0.25
 40
0.25
 40
0.5
 40
0.5
 40
0.5
 40
0.5
 40
1.0
 40
1.0
 40
1.0
 40
1.0
 10
1724.3553889544744
 20
1205.8802999999998
 30
0.0
 10
1724.3553889544744
 20
1205.8802999999998
 30
0.0
 10
1739.1714889544744
 20
1205.8802999999998
 30
0.0
 10
1739.1714889544744
 20
1205.8802999999998
 30
0.0
 10
1739.1714889544744
 20
1205.8802999999998
 30
0.0
 10
1739.1711889544745
 20
1204.6306999999997
 30
0.0
 10
1739.1711889544745
 20
1203.3810999999998
 30
0.0
 10
1739.1714889544744
 20
1202.1312999999998
 30
0.0
 10
1739.1714889544744
 20
1202.1312999999998
 30
0.0
 10
1735.1770889544744
 20
1196.1342
 30
0.0
 10
1730.2618889544744
 20
1188.3005999999998
 30
0.0
 10
1730.2618889544744
 20
1180.9217999999998
 30
0.0
  0
SPLINE
  5
55
330
17
100
AcDbEntity
  8
200_140_1_black_Лодка АГУЛ 270_2_layer 1
 62
250
370
9
100
AcDbSpline
 70
11
 71
3
 72
36
 73
32
 74
0
 42
1e-09
 40
0.0
 40
0.0
 40
0.0
 40
0.0
 40
0.1111111111111111
 40
0.1111111111111111
 40
0.1111111111111111
 40
0.1111111111111111
 40
0.2222222222222222
 40
0.2222222222222222
 40
0.2222222222222222
 40
0.2222222222222222
 40
0.3333333333333333
 40
0.3333333333333333
 40
0.3333333333333333
 40
0.3333333333333333
 40
0.4444444444444444
 40
0.4444444444444444
 40
0.4444444444444444
 40
0.4444444444444444
 40
0.5555555555555556
 40
0.5555555555555556
 40
0.5555555555555556
 40
0.5555555555555556
 40
0.6666666666666666
 40
0.6666666666666666
 40
0.6666666666666666
 40
0.6666666666666666
 40
0.7777777777777778
 40
0.7777777777777778
 40
0.7777777777777778
 40
0.7777777777777778
 40
1.0
 40
1.0
 40
1.0
 40
1.0
 10
1748.1827889544743
 20
1205.9002999999998
 30
0.0
 10
1750.5488889544745
 20
1205.9002999999998
 30
0.0
 10
1752.9153889544743
 20
1205.9002999999998
 30
0.0
 10
1755.2818889544744
 20
1205.9002999999998
 30
0.0
 10
1755.2818889544744
 20
1205.9002999999998
 30
0.0
 10
1757.2623889544743
 20
1205.9359
 30
0.0
 10
1759.2883889544744
 20
1204.4415999999997
 30
0.0
 10
1759.3154889544744
 20
1201.9995
 30
0.0
 10
1759.3154889544744
 20
1201.9995
 30
0.0
 10
1759.3150889544745
 20
1196.2421
 30
0.0
 10
1759.3150889544745
 20
1190.4842999999998
 30
0.0
 10
1759.3154889544744
 20
1184.7260999999999
 30
0.0
 10
1759.3154889544744
 20
1184.7260999999999
 30
0.0
 10
1759.1733889544744
 20
1182.3984999999998
 30
0.0
 10
1757.4669889544743
 20
1180.9162
 30
0.0
 10
1755.2818889544744
 20
1180.9053999999999
 30
0.0
 10
1755.2818889544744
 20
1180.9053999999999
 30
0.0
 10
1752.9094889544745
 20
1180.9057999999998
 30
0.0
 10
1750.5370889544743
 20
1180.9057999999998
 30
0.0
 10
1748.1650889544744
 20
1180.9053999999999
 30
0.0
 10
1748.1650889544744
 20
1180.9053999999999
 30
0.0
 10
1746.2065889544745
 20
1180.7997999999998
 30
0.0
 10
1744.2001889544745
 20
1182.6876999999997
 30
0.0
 10
1744.2115889544743
 20
1184.7087
 30
0.0
 10
1744.2115889544743
 20
1184.7087
 30
0.0
 10
1744.2119889544742
 20
1190.4892999999997
 30
0.0
 10
1744.2119889544742
 20
1196.2695999999996
 30
0.0
 10
1744.2115889544743
 20
1202.0493999999999
 30
0.0
 10
1744.2115889544743
 20
1202.0493999999999
 30
0.0
 10
1744.2158889544744
 20
1204.1913999999997
 30
0.0
 10
1745.9929889544744
 20
1205.9138999999998
 30
0.0
 10
1748.1827889544743
 20
1205.9002999999998
 30
0.0
  0
SPLINE
  5
56
330
17
100
AcDbEntity
  8
200_140_1_black_Лодка АГУЛ 270_2_layer 1
 62
242
370
9
100
AcDbSpline
 70
11
 71
3
 72
252
 73
248
 74
0
 42
1e-09
 40
0.0
 40
0.0
 40
0.0
 40
0.0
 40
0.0158730158730159
 40
0.0158730158730159
 40
0.0158730158730159
 40
0.0158730158730159
 40
0.0317460317460317
 40
0.0317460317460317
 40
0.0317460317460317
 40
0.0317460317460317
 40
0.0476190476190476
 40
0.0476190476190476
 40
0.0476190476190476
 40
0.0476190476190476
 40
0.0634920634920635
 40
0.0634920634920635
 40
0.0634920634920635
 40
0.0634920634920635
 40
0.0793650793650794
 40
0.0793650793650794
 40
0.0793650793650794
 40
0.0793650793650794
 40
0.0952380952380952
 40
0.0952380952380952
 40
0.0952380952380952
 40
0.0952380952380952
 40
0.1111111111111111
 40
0.1111111111111111
 40
0.1111111111111111
 40
0.1111111111111111
 40
0.126984126984127
 40
0.126984126984127
 40
0.126984126984127
 40
0.126984126984127
 40
0.1428571428571428
 40
0.1428571428571428
 40
0.1428571428571428
 40
0.1428571428571428
 40
0.1587301587301587
 40
0.1587301587301587
 40
0.1587301587301587
 40
0.1587301587301587
 40
0.1746031746031746
 40
0.1746031746031746
 40
0.1746031746031746
 40
0.1746031746031746
 40
0.1904761904761905
 40
0.1904761904761905
 40
0.1904761904761905
 40
0.1904761904761905
 40
0.2063492063492063
 40
0.2063492063492063
 40
0.2063492063492063
 40
0.2063492063492063
 40
0.2222222222222222
 40
0.2222222222222222
 40
0.2222222222222222
 40
0.2222222222222222
 40
0.2380952380952381
 40
0.2380952380952381
 40
0.2380952380952381
 40
0.2380952380952381
 40
0.253968253968254
 40
0.253968253968254
 40
0.253968253968254
 40
0.253968253968254
 40
0.2698412698412698
 40
0.2698412698412698
 40
0.2698412698412698
 40
0.2698412698412698
 40
0.2857142857142857
 40
0.2857142857142857
 40
0.2857142857142857
 40
0.2857142857142857
 40
0.3015873015873016
 40
0.3015873015873016
 40
0.3015873015873016
 40
0.3015873015873016
 40
0.3174603174603174
 40
0.3174603174603174
 40
0.3174603174603174
 40
0.3174603174603174
 40
0.3333333333333333
 40
0.3333333333333333
 40
0.3333333333333333
 40
0.3333333333333333
 40
0.3492063492063492
 40
0.3492063492063492
 40
0.3492063492063492
 40
0.3492063492063492
 40
0.3650793650793651
 40
0.3650793650793651
 40
0.3650793650793651
 40
0.3650793650793651
 40
0.3809523809523809
 40
0.3809523809523809
 40
0.3809523809523809
 40
0.3809523809523809
 40
0.3968253968253968
 40
0.3968253968253968
 40
0.3968253968253968
 40
0.3968253968253968
 40
0.4126984126984127
 40
0.4126984126984127
 40
0.4126984126984127
 40
0.4126984126984127
 40
0.4285714285714285
 40
0.4285714285714285
 40
0.4285714285714285
 40
0.4285714285714285
 40
0.4444444444444444
 40
0.4444444444444444
 40
0.4444444444444444
 40
0.4444444444444444
 40
0.4603174603174603
 40
0.4603174603174603
 40
0.4603174603174603
 40
0.4603174603174603
 40
0.4761904761904762
 40
0.4761904761904762
 40
0.4761904761904762
 40
0.4761904761904762
 40
0.492063492063492
 40
0.492063492063492
 40
0.492063492063492
 40
0.492063492063492
 40
0.5079365079365079
 40
0.5079365079365079
 40
0.5079365079365079
 40
0.5079365079365079
 40
0.5238095238095238
 40
0.5238095238095238
 40
0.5238095238095238
 40
0.5238095238095238
 40
0.5396825396825397
 40
0.5396825396825397
 40
0.5396825396825397
 40
0.5396825396825397
 40
0.5555555555555556
 40
0.5555555555555556
 40
0.5555555555555556
 40
0.5555555555555556
 40
0.5714285714285714
 40
0.5714285714285714
 40
0.5714285714285714
 40
0.5714285714285714
 40
0.5873015873015873
 40
0.5873015873015873
 40
0.5873015873015873
 40
0.5873015873015873
 40
0.6031746031746031
 40
0.6031746031746031
 40
0.6031746031746031
 40
0.6031746031746031
 40
0.6190476190476191
 40
0.6190476190476191
 40
0.6190476190476191
 40
0.6190476190476191
 40
0.6349206349206349
 40
0.6349206349206349
 40
0.6349206349206349
 40
0.6349206349206349
 40
0.6507936507936508
 40
0.6507936507936508
 40
0.6507936507936508
 40
0.6507936507936508
 40
0.6666666666666666
 40
0.6666666666666666
 40
0.6666666666666666
 40
0.6666666666666666
 40
0.6825396825396826
 40
0.6825396825396826
 40
0.6825396825396826
 40
0.6825396825396826
 40
0.6984126984126984
 40
0.6984126984126984
 40
0.6984126984126984
 40
0.6984126984126984
 40
0.7142857142857143
 40
0.7142857142857143
 40
0.7142857142857143
 40
0.7142857142857143
 40
0.7301587301587301
 40
0.7301587301587301
 40
0.7301587301587301
 40
0.7301587301587301
 40
0.746031746031746
 40
0.746031746031746
 40
0.746031746031746
 40
0.746031746031746
 40
0.7619047619047619
 40
0.7619047619047619
 40
0.7619047619047619
 40
0.7619047619047619
 40
0.7777777777777778
 40
0.7777777777777778
 40
0.7777777777777778
 40
0.7777777777777778
 40
0.7936507936507936
 40
0.7936507936507936
 40
0.7936507936507936
 40
0.7936507936507936
 40
0.8095238095238095
 40
0.8095238095238095
 40
0.8095238095238095
 40
0.8095238095238095
 40
0.8253968253968254
 40
0.8253968253968254
 40
0.8253968253968254
 40
0.8253968253968254
 40
0.8412698412698413
 40
0.8412698412698413
 40
0.8412698412698413
 40
0.8412698412698413
 40
0.8571428571428571
 40
0.8571428571428571
 40
0.8571428571428571
 40
0.8571428571428571
 40
0.873015873015873
 40
0.873015873015873
 40
0.873015873015873
 40
0.873015873015873
 40
0.8888888888888888
 40
0.8888888888888888
 40
0.8888888888888888
 40
0.8888888888888888
 40
0.9047619047619048
 40
0.9047619047619048
 40
0.9047619047619048
 40
0.9047619047619048
 40
0.9206349206349206
 40
0.9206349206349206
 40
0.9206349206349206
 40
0.9206349206349206
 40
0.9365079365079365
 40
0.9365079365079365
 40
0.9365079365079365
 40
0.9365079365079365
 40
0.9523809523809523
 40
0.9523809523809523
 40
0.9523809523809523
 40
0.9523809523809523
 40
0.9682539682539683
 40
0.9682539682539683
 40
0.9682539682539683
 40
0.9682539682539683
 40
1.0
 40
1.0
 40
1.0
 40
1.0
 10
2006.6841889544744
 20
2504.9984999999997
 30
0.0
 10
2006.6841889544744
 20
2504.9984999999997
 30
0.0
 10
2006.6841889544744
 20
1631.5798999999997
 30
0.0
 10
2006.6841889544744
 20
1631.5798999999997
 30
0.0
 10
2006.6841889544744
 20
1631.5798999999997
 30
0.0
 10
2006.6841889544744
 20
1631.5798999999997
 30
0.0
 10
2006.6455889544743
 20
1628.8429999999998
 30
0.0
 10
2006.6455889544743
 20
1628.8429999999998
 30
0.0
 10
2006.6455889544743
 20
1628.8429999999998
 30
0.0
 10
2006.6455889544743
 20
1628.8429999999998
 30
0.0
 10
2006.5306889544745
 20
1626.1082999999999
 30
0.0
 10
2006.5306889544745
 20
1626.1082999999999
 30
0.0
 10
2006.5306889544745
 20
1626.1082999999999
 30
0.0
 10
2006.5306889544745
 20
1626.1082999999999
 30
0.0
 10
2006.3386889544745
 20
1623.3781999999997
 30
0.0
 10
2006.3386889544745
 20
1623.3781999999997
 30
0.0
 10
2006.3386889544745
 20
1623.3781999999997
 30
0.0
 10
2006.3386889544745
 20
1623.3781999999997
 30
0.0
 10
2006.0713889544745
 20
1620.6535
 30
0.0
 10
2006.0713889544745
 20
1620.6535
 30
0.0
 10
2006.0713889544745
 20
1620.6535
 30
0.0
 10
2006.0713889544745
 20
1620.6535
 30
0.0
 10
2005.7259889544744
 20
1617.9382999999998
 30
0.0
 10
2005.7259889544744
 20
1617.9382999999998
 30
0.0
 10
2005.7259889544744
 20
1617.9382999999998
 30
0.0
 10
2005.7259889544744
 20
1617.9382999999998
 30
0.0
 10
2005.3051889544745
 20
1615.2333999999998
 30
0.0
 10
2005.3051889544745
 20
1615.2333999999998
 30
0.0
 10
2005.3051889544745
 20
1615.2333999999998
 30
0.0
 10
2005.3051889544745
 20
1615.2333999999998
 30
0.0
 10
2004.8087889544745
 20
1612.5412999999999
 30
0.0
 10
2004.8087889544745
 20
1612.5412999999999
 30
0.0
 10
2004.8087889544745
 20
1612.5412999999999
 30
0.0
 10
2004.8087889544745
 20
1612.5412999999999
 30
0.0
 10
2004.2377889544744
 20
1609.8648999999998
 30
0.0
 10
2004.2377889544744
 20
1609.8648999999998
 30
0.0
 10
2004.2377889544744
 20
1609.8648999999998
 30
0.0
 10
2004.2377889544744
 20
1609.8648999999998
 30
0.0
 10
2003.5908889544744
 20
1607.2056999999998
 30
0.0
 10
2003.5908889544744
 20
1607.2056999999998
 30
0.0
 10
2003.5908889544744
 20
1607.2056999999998
 30
0.0
 10
2003.5908889544744
 20
1607.2056999999998
 30
0.0
 10
2002.8697889544744
 20
1604.5641999999998
 30
0.0
 10
2002.8697889544744
 20
1604.5641999999998
 30
0.0
 10
2002.8697889544744
 20
1604.5641999999998
 30
0.0
 10
2002.8697889544744
 20
1604.5641999999998
 30
0.0
 10
2002.0749889544745
 20
1601.9456999999998
 30
0.0
 10
2002.0749889544745
 20
1601.9456999999998
 30
0.0
 10
2002.0749889544745
 20
1601.9456999999998
 30
0.0
 10
2002.0749889544745
 20
1601.9456999999998
 30
0.0
 10
2001.2069889544744
 20
1599.3491999999997
 30
0.0
 10
2001.2069889544744
 20
1599.3491999999997
 30
0.0
 10
2001.2069889544744
 20
1599.3491999999997
 30
0.0
 10
2001.2069889544744
 20
1599.3491999999997
 30
0.0
 10
1989.1843889544743
 20
1564.9989999999998
 30
0.0
 10
1989.1843889544743
 20
1564.9989999999998
 30
0.0
 10
1989.1843889544743
 20
1564.9989999999998
 30
0.0
 10
1989.1843889544743
 20
1564.9989999999998
 30
0.0
 10
1886.6845889544743
 20
1304.9988999999998
 30
0.0
 10
1886.6845889544743
 20
1304.9988999999998
 30
0.0
 10
1886.6845889544743
 20
1304.9988999999998
 30
0.0
 10
1886.6845889544743
 20
1304.9988999999998
 30
0.0
 10
1856.5134889544743
 20
1229.5706999999998
 30
0.0
 10
1856.5134889544743
 20
1229.5706999999998
 30
0.0
 10
1856.5134889544743
 20
1229.5706999999998
 30
0.0
 10
1856.5134889544743
 20
1229.5706999999998
 30
0.0
 10
1832.2619889544744
 20
1182.8107999999997
 30
0.0
 10
1832.2619889544744
 20
1182.8107999999997
 30
0.0
 10
1832.2619889544744
 20
1182.8107999999997
 30
0.0
 10
1832.2619889544744
 20
1182.8107999999997
 30
0.0
 10
1787.2207889544743
 20
1113.5168999999999
 30
0.0
 10
1787.2207889544743
 20
1113.5168999999999
 30
0.0
 10
1787.2207889544743
 20
1113.5168999999999
 30
0.0
 10
1787.2207889544743
 20
1113.5168999999999
 30
0.0
 10
1786.3228889544744
 20
1112.2529999999997
 30
0.0
 10
1786.3228889544744
 20
1112.2529999999997
 30
0.0
 10
1786.3228889544744
 20
1112.2529999999997
 30
0.0
 10
1786.3228889544744
 20
1112.2529999999997
 30
0.0
 10
1785.3233889544745
 20
1111.0670999999998
 30
0.0
 10
1785.3233889544745
 20
1111.0670999999998
 30
0.0
 10
1785.3233889544745
 20
1111.0670999999998
 30
0.0
 10
1785.3233889544745
 20
1111.0670999999998
 30
0.0
 10
1784.2284889544744
 20
1109.9690999999998
 30
0.0
 10
1784.2284889544744
 20
1109.9690999999998
 30
0.0
 10
1784.2284889544744
 20
1109.9690999999998
 30
0.0
 10
1784.2284889544744
 20
1109.9690999999998
 30
0.0
 10
1783.0469889544743
 20
1108.9648999999997
 30
0.0
 10
1783.0469889544743
 20
1108.9648999999997
 30
0.0
 10
1783.0469889544743
 20
1108.9648999999997
 30
0.0
 10
1783.0469889544743
 20
1108.9648999999997
 30
0.0
 10
1781.7864889544744
 20
1108.0616999999997
 30
0.0
 10
1781.7864889544744
 20
1108.0616999999997
 30
0.0
 10
1781.7864889544744
 20
1108.0616999999997
 30
0.0
 10
1781.7864889544744
 20
1108.0616999999997
 30
0.0
 10
1780.4548889544744
 20
1107.2659999999998
 30
0.0
 10
1780.4548889544744
 20
1107.2659999999998
 30
0.0
 10
1780.4548889544744
 20
1107.2659999999998
 30
0.0
 10
1780.4548889544744
 20
1107.2659999999998
 30
0.0
 10
1779.0616889544744
 20
1106.5830999999998
 30
0.0
 10
1779.0616889544744
 20
1106.5830999999998
 30
0.0
 10
1779.0616889544744
 20
1106.5830999999998
 30
0.0
 10
1779.0616889544744
 20
1106.5830999999998
 30
0.0
 10
1777.6181889544744
 20
1106.0185999999999
 30
0.0
 10
1777.6181889544744
 20
1106.0185999999999
 30
0.0
 10
1777.6181889544744
 20
1106.0185999999999
 30
0.0
 10
1777.6181889544744
 20
1106.0185999999999
 30
0.0
 10
1776.1318889544743
 20
1105.5748999999998
 30
0.0
 10
1776.1318889544743
 20
1105.5748999999998
 30
0.0
 10
1776.1318889544743
 20
1105.5748999999998
 30
0.0
 10
1776.1318889544743
 20
1105.5748999999998
 30
0.0
 10
1774.6137889544743
 20
1105.2558999999999
 30
0.0
 10
1774.6137889544743
 20
1105.2558999999999
 30
0.0
 10
1774.6137889544743
 20
1105.2558999999999
 30
0.0
 10
1774.6137889544743
 20
1105.2558999999999
 30
0.0
 10
1773.0749889544745
 20
1105.0641999999998
 30
0.0
 10
1773.0749889544745
 20
1105.0641999999998
 30
0.0
 10
1773.0749889544745
 20
1105.0641999999998
 30
0.0
 10
1773.0749889544745
 20
1105.0641999999998
 30
0.0
 10
1771.5251889544743
 20
1104.9995
 30
0.0
 10
1771.5251889544743
 20
1104.9995
 30
0.0
 10
1771.5251889544743
 20
1104.9995
 30
0.0
 10
1771.5251889544743
 20
1104.9995
 30
0.0
 10
1591.8441889544742
 20
1104.9995
 30
0.0
 10
1591.8441889544742
 20
1104.9995
 30
0.0
 10
1591.8441889544742
 20
1104.9995
 30
0.0
 10
1591.8441889544742
 20
1104.9995
 30
0.0
 10
1590.2943889544745
 20
1105.0641999999998
 30
0.0
 10
1590.2943889544745
 20
1105.0641999999998
 30
0.0
 10
1590.2943889544745
 20
1105.0641999999998
 30
0.0
 10
1590.2943889544745
 20
1105.0641999999998
 30
0.0
 10
1588.7555889544744
 20
1105.2558999999999
 30
0.0
 10
1588.7555889544744
 20
1105.2558999999999
 30
0.0
 10
1588.7555889544744
 20
1105.2558999999999
 30
0.0
 10
1588.7555889544744
 20
1105.2558999999999
 30
0.0
 10
1587.2374889544744
 20
1105.5748999999998
 30
0.0
 10
1587.2374889544744
 20
1105.5748999999998
 30
0.0
 10
1587.2374889544744
 20
1105.5748999999998
 30
0.0
 10
1587.2374889544744
 20
1105.5748999999998
 30
0.0
 10
1585.7511889544744
 20
1106.0185999999999
 30
0.0
 10
1585.7511889544744
 20
1106.0185999999999
 30
0.0
 10
1585.7511889544744
 20
1106.0185999999999
 30
0.0
 10
1585.7511889544744
 20
1106.0185999999999
 30
0.0
 10
1584.3076889544743
 20
1106.5830999999998
 30
0.0
 10
1584.3076889544743
 20
1106.5830999999998
 30
0.0
 10
1584.3076889544743
 20
1106.5830999999998
 30
0.0
 10
1584.3076889544743
 20
1106.5830999999998
 30
0.0
 10
1582.9144889544743
 20
1107.2659999999998
 30
0.0
 10
1582.9144889544743
 20
1107.2659999999998
 30
0.0
 10
1582.9144889544743
 20
1107.2659999999998
 30
0.0
 10
1582.9144889544743
 20
1107.2659999999998
 30
0.0
 10
1581.5840889544743
 20
1108.0616999999997
 30
0.0
 10
1581.5840889544743
 20
1108.0616999999997
 30
0.0
 10
1581.5840889544743
 20
1108.0616999999997
 30
0.0
 10
1581.5840889544743
 20
1108.0616999999997
 30
0.0
 10
1580.3223889544743
 20
1108.9648999999997
 30
0.0
 10
1580.3223889544743
 20
1108.9648999999997
 30
0.0
 10
1580.3223889544743
 20
1108.9648999999997
 30
0.0
 10
1580.3223889544743
 20
1108.9648999999997
 30
0.0
 10
1579.1408889544743
 20
1109.9690999999998
 30
0.0
 10
1579.1408889544743
 20
1109.9690999999998
 30
0.0
 10
1579.1408889544743
 20
1109.9690999999998
 30
0.0
 10
1579.1408889544743
 20
1109.9690999999998
 30
0.0
 10
1578.0459889544743
 20
1111.0670999999998
 30
0.0
 10
1578.0459889544743
 20
1111.0670999999998
 30
0.0
 10
1578.0459889544743
 20
1111.0670999999998
 30
0.0
 10
1578.0459889544743
 20
1111.0670999999998
 30
0.0
 10
1577.0464889544744
 20
1112.2529999999997
 30
0.0
 10
1577.0464889544744
 20
1112.2529999999997
 30
0.0
 10
1577.0464889544744
 20
1112.2529999999997
 30
0.0
 10
1577.0464889544744
 20
1112.2529999999997
 30
0.0
 10
1576.1485889544745
 20
1113.5168999999999
 30
0.0
 10
1576.1485889544745
 20
1113.5168999999999
 30
0.0
 10
1576.1485889544745
 20
1113.5168999999999
 30
0.0
 10
1576.1485889544745
 20
1113.5168999999999
 30
0.0
 10
1531.1073889544743
 20
1182.8107999999997
 30
0.0
 10
1531.1073889544743
 20
1182.8107999999997
 30
0.0
 10
1531.1073889544743
 20
1182.8107999999997
 30
0.0
 10
1531.1073889544743
 20
1182.8107999999997
 30
0.0
 10
1506.8558889544743
 20
1229.5706999999998
 30
0.0
 10
1506.8558889544743
 20
1229.5706999999998
 30
0.0
 10
1506.8558889544743
 20
1229.5706999999998
 30
0.0
 10
1506.8558889544743
 20
1229.5706999999998
 30
0.0
 10
1476.6847889544745
 20
1304.9988999999998
 30
0.0
 10
1476.6847889544745
 20
1304.9988999999998
 30
0.0
 10
1476.6847889544745
 20
1304.9988999999998
 30
0.0
 10
1476.6847889544745
 20
1304.9988999999998
 30
0.0
 10
1374.1849889544744
 20
1564.9989999999998
 30
0.0
 10
1374.1849889544744
 20
1564.9989999999998
 30
0.0
 10
1374.1849889544744
 20
1564.9989999999998
 30
0.0
 10
1374.1849889544744
 20
1564.9989999999998
 30
0.0
 10
1362.1623889544744
 20
1599.3491999999997
 30
0.0
 10
1362.1623889544744
 20
1599.3491999999997
 30
0.0
 10
1362.1623889544744
 20
1599.3491999999997
 30
0.0
 10
1362.1623889544744
 20
1599.3491999999997
 30
0.0
 10
1361.2942889544743
 20
1601.9456999999998
 30
0.0
 10
1361.2942889544743
 20
1601.9456999999998
 30
0.0
 10
1361.2942889544743
 20
1601.9456999999998
 30
0.0
 10
1361.2942889544743
 20
1601.9456999999998
 30
0.0
 10
1360.4995889544743
 20
1604.5641999999998
 30
0.0
 10
1360.4995889544743
 20
1604.5641999999998
 30
0.0
 10
1360.4995889544743
 20
1604.5641999999998
 30
0.0
 10
1360.4995889544743
 20
1604.5641999999998
 30
0.0
 10
1359.7785889544743
 20
1607.2056999999998
 30
0.0
 10
1359.7785889544743
 20
1607.2056999999998
 30
0.0
 10
1359.7785889544743
 20
1607.2056999999998
 30
0.0
 10
1359.7785889544743
 20
1607.2056999999998
 30
0.0
 10
1359.1315889544744
 20
1609.8648999999998
 30
0.0
 10
1359.1315889544744
 20
1609.8648999999998
 30
0.0
 10
1359.1315889544744
 20
1609.8648999999998
 30
0.0
 10
1359.1315889544744
 20
1609.8648999999998
 30
0.0
 10
1358.5605889544745
 20
1612.5412999999999
 30
0.0
 10
1358.5605889544745
 20
1612.5412999999999
 30
0.0
 10
1358.5605889544745
 20
1612.5412999999999
 30
0.0
 10
1358.5605889544745
 20
1612.5412999999999
 30
0.0
 10
1358.0640889544743
 20
1615.2333999999998
 30
0.0
 10
1358.0640889544743
 20
1615.2333999999998
 30
0.0
 10
1358.0640889544743
 20
1615.2333999999998
 30
0.0
 10
1358.0640889544743
 20
1615.2333999999998
 30
0.0
 10
1357.6433889544744
 20
1617.9382999999998
 30
0.0
 10
1357.6433889544744
 20
1617.9382999999998
 30
0.0
 10
1357.6433889544744
 20
1617.9382999999998
 30
0.0
 10
1357.6433889544744
 20
1617.9382999999998
 30
0.0
 10
1357.2978889544743
 20
1620.6535
 30
0.0
 10
1357.2978889544743
 20
1620.6535
 30
0.0
 10
1357.2978889544743
 20
1620.6535
 30
0.0
 10
1357.2978889544743
 20
1620.6535
 30
0.0
 10
1357.0306889544745
 20
1623.3781999999997
 30
0.0
 10
1357.0306889544745
 20
1623.3781999999997
 30
0.0
 10
1357.0306889544745
 20
1623.3781999999997
 30
0.0
 10
1357.0306889544745
 20
1623.3781999999997
 30
0.0
 10
1356.8386889544745
 20
1626.1082999999999
 30
0.0
 10
1356.8386889544745
 20
1626.1082999999999
 30
0.0
 10
1356.8386889544745
 20
1626.1082999999999
 30
0.0
 10
1356.8386889544745
 20
1626.1082999999999
 30
0.0
 10
1356.7236889544743
 20
1628.8429999999998
 30
0.0
 10
1356.7236889544743
 20
1628.8429999999998
 30
0.0
 10
1356.7236889544743
 20
1628.8429999999998
 30
0.0
 10
1356.7236889544743
 20
1628.8429999999998
 30
0.0
 10
1356.6852889544743
 20
1631.5798999999997
 30
0.0
 10
1356.6852889544743
 20
1631.5798999999997
 30
0.0
 10
1356.6852889544743
 20
1631.5798999999997
 30
0.0
 10
1356.6852889544743
 20
1631.5798999999997
 30
0.0
 10
1356.6852889544743
 20
2504.9984999999997
 30
0.0
 10
1356.6852889544743
 20
2504.9984999999997
 30
0.0
 10
1356.6852889544743
 20
2504.9984999999997
 30
0.0
 10
1356.6852889544743
 20
2504.9984999999997
 30
0.0
 10
2006.6841889544744
 20
2504.9984999999997
 30
0.0
 10
2006.6841889544744
 20
2504.9984999999997
 30
0.0
  0
IMAGE
  5
57
330
17
100
AcDbEntity
  8
200_140_1_black_TOYOTA COROLLA VERSO_2_layer 1
 62
0
 92
140
310
8C000000010000008400000006000000050000002D431CEBE2D48940C2D32B6599DE82C00000000000000000D0AF357875739940C2D32B6599DE82C00000000000000000D0AF3578757399409032D59EEE6B924000000000000000002D431CEBE2D489409032D59EEE6B924000000000000000002D431CEBE2D48940C2D32B
310
6599DE82C00000000000000000
100
AcDbRasterImage
 90
0
 10
46.6108000000001
 20
610.8767952666697
 30
0.0
 11
0.01754749483532376
 21
0.0
 31
0.0
 12
0.0
 22
0.01754749483532375
 32
0.0
 13
45719.0
 23
101599.0
340
71
 70
3
280
1
281
50
282
50
283
0
360
58
 71
1
 91
2
 14
826.6108
 24
-603.8249
 14
1461.6106
 24
807.2859
290
0
  0
SPLINE
  5
59
330
17
100
AcDbEntity
  8
200_140_1_black_TOYOTA COROLLA VERSO_2_layer 2
 62
142
370
158
100
AcDbSpline
 70
8
 71
3
 72
36
 73
32
 74
0
 42
1e-09
 40
0.0
 40
0.0
 40
0.0
 40
0.0
 40
0.1111111111111111
 40
0.1111111111111111
 40
0.1111111111111111
 40
0.1111111111111111
 40
0.2222222222222222
 40
0.2222222222222222
 40
0.2222222222222222
 40
0.2222222222222222
 40
0.3333333333333333
 40
0.3333333333333333
 40
0.3333333333333333
 40
0.3333333333333333
 40
0.4444444444444444
 40
0.4444444444444444
 40
0.4444444444444444
 40
0.4444444444444444
 40
0.5555555555555556
 40
0.5555555555555556
 40
0.5555555555555556
 40
0.5555555555555556
 40
0.6666666666666666
 40
0.6666666666666666
 40
0.6666666666666666
 40
0.6666666666666666
 40
0.7777777777777778
 40
0.7777777777777778
 40
0.7777777777777778
 40
0.7777777777777778
 40
1.0
 40
1.0
 40
1.0
 40
1.0
 10
655.2619
 20
2032.8143952666696
 30
0.0
 10
655.2619
 20
2032.8143952666696
 30
0.0
 10
662.9757999999999
 20
1816.6773952666697
 30
0.0
 10
662.9757999999999
 20
1816.6773952666697
 30
0.0
 10
662.9757999999999
 20
1816.6773952666697
 30
0.0
 10
665.1806999999999
 20
1796.8072952666696
 30
0.0
 10
667.3856000000001
 20
1776.9370952666698
 30
0.0
 10
669.5905
 20
1757.0669952666697
 30
0.0
 10
669.5905
 20
1757.0669952666697
 30
0.0
 10
679.5125
 20
1667.6513952666696
 30
0.0
 10
689.4345000000001
 20
1578.2357952666698
 30
0.0
 10
699.3566000000001
 20
1488.8200952666698
 30
0.0
 10
699.3566000000001
 20
1488.8200952666698
 30
0.0
 10
699.8705
 20
1484.1883952666697
 30
0.0
 10
700.9253000000001
 20
1469.5977952666697
 30
0.0
 10
702.4567
 20
1466.2429952666696
 30
0.0
 10
702.4567
 20
1466.2429952666696
 30
0.0
 10
710.8688
 20
1447.8147952666698
 30
0.0
 10
720.1503
 20
1432.9850952666698
 30
0.0
 10
726.0269000000001
 20
1413.0557952666697
 30
0.0
 10
726.0269000000001
 20
1413.0557952666697
 30
0.0
 10
734.354
 20
1384.8160952666697
 30
0.0
 10
736.5536
 20
1345.8282952666696
 30
0.0
 10
738.04
 20
1316.0434952666697
 30
0.0
 10
738.04
 20
1316.0434952666697
 30
0.0
 10
738.1384
 20
1314.0328952666696
 30
0.0
 10
738.2420999999999
 20
1312.0232952666697
 30
0.0
 10
738.3489
 20
1310.0130952666698
 30
0.0
 10
738.3489
 20
1310.0130952666698
 30
0.0
 10
738.6043999999999
 20
1305.4682952666697
 30
0.0
 10
738.8598999999999
 20
1300.9233952666696
 30
0.0
 10
739.1153999999999
 20
1296.3785952666697
 30
0.0
  0
SPLINE
  5
5A
330
17
100
AcDbEntity
  8
200_140_1_black_TOYOTA COROLLA VERSO_2_layer 2
 62
142
370
158
100
AcDbSpline
 70
8
 71
3
 72
24
 73
20
 74
0
 42
1e-09
 40
0.0
 40
0.0
 40
0.0
 40
0.0
 40
0.1666666666666667
 40
0.1666666666666667
 40
0.1666666666666667
 40
0.1666666666666667
 40
0.3333333333333333
 40
0.3333333333333333
 40
0.3333333333333333
 40
0.3333333333333333
 40
0.5
 40
0.5
 40
0.5
 40
0.5
 40
0.6666666666666666
 40
0.6666666666666666
 40
0.6666666666666666
 40
0.6666666666666666
 40
1.0
 40
1.0
 40
1.0
 40
1.0
 10
701.6717000000001
 20
1467.9564952666697
 30
0.0
 10
696.7615000000001
 20
1460.1858952666696
 30
0.0
 10
689.8261
 20
1450.5227952666696
 30
0.0
 10
686.376
 20
1442.2715952666697
 30
0.0
 10
686.376
 20
1442.2715952666697
 30
0.0
 10
675.8136999999999
 20
1417.0111952666698
 30
0.0
 10
664.6976999999999
 20
1390.3148952666697
 30
0.0
 10
655.2153000000001
 20
1364.6999952666697
 30
0.0
 10
655.2153000000001
 20
1364.6999952666697
 30
0.0
 10
651.7461000000001
 20
1355.3285952666697
 30
0.0
 10
648.8423
 20
1345.7496952666697
 30
0.0
 10
645.9196999999999
 20
1336.1970952666697
 30
0.0
 10
645.9196999999999
 20
1336.1970952666697
 30
0.0
 10
645.9196999999999
 20
1336.1970952666697
 30
0.0
 10
645.5083
 20
1334.8527952666698
 30
0.0
 10
645.5083
 20
1334.8527952666698
 30
0.0
 10
645.5083
 20
1334.8527952666698
 30
0.0
 10
641.0537999999999
 20
1320.3031952666697
 30
0.0
 10
639.1362999999999
 20
1307.5092952666696
 30
0.0
 10
637.8382999999999
 20
1292.4166952666696
 30
0.0
  0
SPLINE
  5
5B
330
17
100
AcDbEntity
  8
200_140_1_black_TOYOTA COROLLA VERSO_2_layer 2
 62
142
370
158
100
AcDbSpline
 70
8
 71
3
 72
48
 73
44
 74
0
 42
1e-09
 40
0.0
 40
0.0
 40
0.0
 40
0.0
 40
0.0833333333333333
 40
0.0833333333333333
 40
0.0833333333333333
 40
0.0833333333333333
 40
0.1666666666666667
 40
0.1666666666666667
 40
0.1666666666666667
 40
0.1666666666666667
 40
0.25
 40
0.25
 40
0.25
 40
0.25
 40
0.3333333333333333
 40
0.3333333333333333
 40
0.3333333333333333
 40
0.3333333333333333
 40
0.4166666666666667
 40
0.4166666666666667
 40
0.4166666666666667
 40
0.4166666666666667
 40
0.5
 40
0.5
 40
0.5
 40
0.5
 40
0.5833333333333334
 40
0.5833333333333334
 40
0.5833333333333334
 40
0.5833333333333334
 40
0.6666666666666666
 40
0.6666666666666666
 40
0.6666666666666666
 40
0.6666666666666666
 40
0.75
 40
0.75
 40
0.75
 40
0.75
 40
0.8333333333333334
 40
0.8333333333333334
 40
0.8333333333333334
 40
0.8333333333333334
 40
1.0
 40
1.0
 40
1.0
 40
1.0
 10
722.1762000000001
 20
1291.7429952666696
 30
0.0
 10
675.8617999999999
 20
1292.1409952666697
 30
0.0
 10
630.6025
 20
1293.2566952666698
 30
0.0
 10
584.2429
 20
1291.3229952666697
 30
0.0
 10
584.2429
 20
1291.3229952666697
 30
0.0
 10
529.1777
 20
1289.0261952666697
 30
0.0
 10
474.0866000000001
 20
1287.3596952666696
 30
0.0
 10
419.0048999999999
 20
1285.5031952666698
 30
0.0
 10
419.0048999999999
 20
1285.5031952666698
 30
0.0
 10
408.9946
 20
1285.1658952666696
 30
0.0
 10
398.9843000000001
 20
1284.8285952666697
 30
0.0
 10
388.97389999999996
 20
1284.4911952666696
 30
0.0
 10
388.97389999999996
 20
1284.4911952666696
 30
0.0
 10
363.38100000000014
 20
1283.6198952666696
 30
0.0
 10
337.11899999999997
 20
1282.0379952666697
 30
0.0
 10
311.62470000000013
 20
1281.6295952666696
 30
0.0
 10
311.62470000000013
 20
1281.6295952666696
 30
0.0
 10
299.4648
 20
1281.4347952666697
 30
0.0
 10
299.4555000000001
 20
1282.1633952666696
 30
0.0
 10
289.43840000000006
 20
1287.0128952666696
 30
0.0
 10
289.43840000000006
 20
1287.0128952666696
 30
0.0
 10
276.68149999999997
 20
1293.1886952666696
 30
0.0
 10
251.89190000000013
 20
1288.7180952666697
 30
0.0
 10
237.5695
 20
1287.8336952666696
 30
0.0
 10
237.5695
 20
1287.8336952666696
 30
0.0
 10
229.79090000000002
 20
1287.3533952666696
 30
0.0
 10
217.9966
 20
1286.5253952666696
 30
0.0
 10
210.5763
 20
1288.1998952666697
 30
0.0
 10
210.5763
 20
1288.1998952666697
 30
0.0
 10
200.65570000000008
 20
1292.4341952666696
 30
0.0
 10
201.30790000000007
 20
1307.3577952666697
 30
0.0
 10
200.8350000000001
 20
1316.3439952666697
 30
0.0
 10
200.8350000000001
 20
1316.3439952666697
 30
0.0
 10
200.8350000000001
 20
1316.3439952666697
 30
0.0
 10
200.76490000000007
 20
1317.6771952666697
 30
0.0
 10
200.76490000000007
 20
1317.6771952666697
 30
0.0
 10
200.76490000000007
 20
1317.6771952666697
 30
0.0
 10
196.42540000000002
 20
1386.7498952666697
 30
0.0
 10
191.35650000000004
 20
1455.7816952666697
 30
0.0
 10
186.63950000000006
 20
1524.8298952666696
 30
0.0
 10
186.63950000000006
 20
1524.8298952666696
 30
0.0
 10
180.59780000000006
 20
1613.3236952666698
 30
0.0
 10
174.54500000000002
 20
1701.8166952666697
 30
0.0
 10
168.483
 20
1790.3089952666696
 30
0.0
  0
SPLINE
  5
5C
330
17
100
AcDbEntity
  8
200_140_1_black_TOYOTA COROLLA VERSO_2_layer 2
 62
250
370
9
100
AcDbSpline
 70
8
 71
3
 72
44
 73
40
 74
0
 42
1e-09
 40
0.0
 40
0.0
 40
0.0
 40
0.0
 40
0.0909090909090909
 40
0.0909090909090909
 40
0.0909090909090909
 40
0.0909090909090909
 40
0.1818181818181818
 40
0.1818181818181818
 40
0.1818181818181818
 40
0.1818181818181818
 40
0.2727272727272727
 40
0.2727272727272727
 40
0.2727272727272727
 40
0.2727272727272727
 40
0.3636363636363636
 40
0.3636363636363636
 40
0.3636363636363636
 40
0.3636363636363636
 40
0.4545454545454545
 40
0.4545454545454545
 40
0.4545454545454545
 40
0.4545454545454545
 40
0.5454545454545454
 40
0.5454545454545454
 40
0.5454545454545454
 40
0.5454545454545454
 40
0.6363636363636364
 40
0.6363636363636364
 40
0.6363636363636364
 40
0.6363636363636364
 40
0.7272727272727273
 40
0.7272727272727273
 40
0.7272727272727273
 40
0.7272727272727273
 40
0.8181818181818182
 40
0.8181818181818182
 40
0.8181818181818182
 40
0.8181818181818182
 40
1.0
 40
1.0
 40
1.0
 40
1.0
 10
686.7319
 20
1358.1560952666696
 30
0.0
 10
689.9909
 20
1358.1564952666697
 30
0.0
 10
693.2502999999999
 20
1358.1564952666697
 30
0.0
 10
696.51
 20
1358.1560952666696
 30
0.0
 10
696.51
 20
1358.1560952666696
 30
0.0
 10
698.2792999999999
 20
1358.1405952666696
 30
0.0
 10
700.0021999999999
 20
1356.5855952666698
 30
0.0
 10
700.0021999999999
 20
1354.7497952666697
 30
0.0
 10
700.0021999999999
 20
1354.7497952666697
 30
0.0
 10
700.0019
 20
1353.7389952666697
 30
0.0
 10
700.0019
 20
1351.0076952666698
 30
0.0
 10
700.0021999999999
 20
1349.9965952666696
 30
0.0
 10
700.0021999999999
 20
1349.9965952666696
 30
0.0
 10
700.0181
 20
1348.3324952666696
 30
0.0
 10
698.6368
 20
1346.5286952666697
 30
0.0
 10
696.5573999999999
 20
1346.5438952666696
 30
0.0
 10
696.5573999999999
 20
1346.5438952666696
 30
0.0
 10
693.2973999999999
 20
1346.5441952666697
 30
0.0
 10
690.0377000000001
 20
1346.5441952666697
 30
0.0
 10
686.7783999999999
 20
1346.5438952666696
 30
0.0
 10
686.7783999999999
 20
1346.5438952666696
 30
0.0
 10
686.7783999999999
 20
1353.9942952666697
 30
0.0
 10
686.7783999999999
 20
1361.4443952666697
 30
0.0
 10
686.7783999999999
 20
1368.8941952666696
 30
0.0
 10
686.7783999999999
 20
1368.8941952666696
 30
0.0
 10
688.9045000000001
 20
1368.8941952666696
 30
0.0
 10
691.0309
 20
1368.8941952666696
 30
0.0
 10
693.1574
 20
1368.8941952666696
 30
0.0
 10
693.1574
 20
1368.8941952666696
 30
0.0
 10
694.6629
 20
1368.9099952666697
 30
0.0
 10
696.5409
 20
1367.1987952666695
 30
0.0
 10
696.5568000000001
 20
1365.4410952666697
 30
0.0
 10
696.5568000000001
 20
1365.4410952666697
 30
0.0
 10
696.5563999999999
 20
1363.5904952666697
 30
0.0
 10
696.5563999999999
 20
1363.4597952666697
 30
0.0
 10
696.5568000000001
 20
1361.6088952666696
 30
0.0
 10
696.5568000000001
 20
1361.6088952666696
 30
0.0
 10
696.5722000000001
 20
1359.7582952666696
 30
0.0
 10
694.9113
 20
1358.1405952666696
 30
0.0
 10
693.1108999999999
 20
1358.1560952666696
 30
0.0
  0
SPLINE
  5
5D
330
17
100
AcDbEntity
  8
200_140_1_black_TOYOTA COROLLA VERSO_2_layer 2
 62
250
370
9
100
AcDbSpline
 70
8
 71
3
 72
32
 73
28
 74
0
 42
1e-09
 40
0.0
 40
0.0
 40
0.0
 40
0.0
 40
0.125
 40
0.125
 40
0.125
 40
0.125
 40
0.25
 40
0.25
 40
0.25
 40
0.25
 40
0.375
 40
0.375
 40
0.375
 40
0.375
 40
0.5
 40
0.5
 40
0.5
 40
0.5
 40
0.625
 40
0.625
 40
0.625
 40
0.625
 40
0.75
 40
0.75
 40
0.75
 40
0.75
 40
1.0
 40
1.0
 40
1.0
 40
1.0
 10
426.47029999999995
 20
1328.5226952666696
 30
0.0
 10
426.47029999999995
 20
1328.5226952666696
 30
0.0
 10
426.47029999999995
 20
1353.4761952666697
 30
0.0
 10
426.47029999999995
 20
1353.4761952666697
 30
0.0
 10
426.47029999999995
 20
1353.4761952666697
 30
0.0
 10
430.06510000000003
 20
1353.4761952666697
 30
0.0
 10
433.66059999999993
 20
1353.4761952666697
 30
0.0
 10
437.2557999999999
 20
1353.4761952666697
 30
0.0
 10
437.2557999999999
 20
1353.4761952666697
 30
0.0
 10
439.5811000000001
 20
1353.4384952666696
 30
0.0
 10
441.13840000000005
 20
1351.9484952666696
 30
0.0
 10
441.13429999999994
 20
1349.5820952666697
 30
0.0
 10
441.13429999999994
 20
1349.5820952666697
 30
0.0
 10
441.13390000000004
 20
1347.5465952666696
 30
0.0
 10
441.13390000000004
 20
1344.4871952666697
 30
0.0
 10
441.13429999999994
 20
1342.4511952666696
 30
0.0
 10
441.13429999999994
 20
1342.4511952666696
 30
0.0
 10
441.1278
 20
1340.5756952666698
 30
0.0
 10
439.31549999999993
 20
1338.6338952666697
 30
0.0
 10
437.30600000000004
 20
1338.6147952666697
 30
0.0
 10
437.30600000000004
 20
1338.6147952666697
 30
0.0
 10
437.30600000000004
 20
1338.6147952666697
 30
0.0
 10
426.47029999999995
 20
1338.6147952666697
 30
0.0
 10
426.47029999999995
 20
1338.6147952666697
 30
0.0
 10
426.47029999999995
 20
1338.6147952666697
 30
0.0
 10
426.47029999999995
 20
1338.6147952666697
 30
0.0
 10
441.125
 20
1328.5226952666696
 30
0.0
 10
441.125
 20
1328.5226952666696
 30
0.0
  0
SPLINE
  5
5E
330
17
100
AcDbEntity
  8
200_140_1_black_TOYOTA COROLLA VERSO_2_layer 2
 62
250
370
9
100
AcDbSpline
 70
8
 71
3
 72
32
 73
28
 74
0
 42
1e-09
 40
0.0
 40
0.0
 40
0.0
 40
0.0
 40
0.125
 40
0.125
 40
0.125
 40
0.125
 40
0.25
 40
0.25
 40
0.25
 40
0.25
 40
0.375
 40
0.375
 40
0.375
 40
0.375
 40
0.5
 40
0.5
 40
0.5
 40
0.5
 40
0.625
 40
0.625
 40
0.625
 40
0.625
 40
0.75
 40
0.75
 40
0.75
 40
0.75
 40
1.0
 40
1.0
 40
1.0
 40
1.0
 10
421.22540000000004
 20
1332.3403952666697
 30
0.0
 10
421.0856000000001
 20
1330.0169952666697
 30
0.0
 10
419.40840000000003
 20
1328.5373952666696
 30
0.0
 10
417.26070000000004
 20
1328.5265952666696
 30
0.0
 10
417.26070000000004
 20
1328.5265952666696
 30
0.0
 10
414.9287999999999
 20
1328.5269952666697
 30
0.0
 10
412.5969
 20
1328.5269952666697
 30
0.0
 10
410.2654
 20
1328.5265952666696
 30
0.0
 10
410.2654
 20
1328.5265952666696
 30
0.0
 10
408.34040000000005
 20
1328.4211952666697
 30
0.0
 10
406.3683000000001
 20
1330.3056952666698
 30
0.0
 10
406.3795
 20
1332.3229952666697
 30
0.0
 10
406.3795
 20
1332.3229952666697
 30
0.0
 10
406.3798999999999
 20
1338.0930952666697
 30
0.0
 10
406.3798999999999
 20
1343.8627952666698
 30
0.0
 10
406.3795
 20
1349.6320952666697
 30
0.0
 10
406.3795
 20
1349.6320952666697
 30
0.0
 10
406.3837000000001
 20
1351.7701952666696
 30
0.0
 10
408.1304
 20
1353.4893952666696
 30
0.0
 10
410.28279999999995
 20
1353.4758952666698
 30
0.0
 10
410.28279999999995
 20
1353.4758952666698
 30
0.0
 10
412.60850000000005
 20
1353.4758952666698
 30
0.0
 10
414.93460000000005
 20
1353.4758952666698
 30
0.0
 10
417.26070000000004
 20
1353.4758952666698
 30
0.0
 10
417.26070000000004
 20
1353.4758952666698
 30
0.0
 10
419.20730000000003
 20
1353.5113952666698
 30
0.0
 10
421.1986999999999
 20
1352.0198952666697
 30
0.0
 10
421.22540000000004
 20
1349.5822952666697
 30
0.0
  0
SPLINE
  5
5F
330
17
100
AcDbEntity
  8
200_140_1_black_TOYOTA COROLLA VERSO_2_layer 2
 62
250
370
9
100
AcDbSpline
 70
8
 71
3
 72
12
 73
8
 74
0
 42
1e-09
 40
0.0
 40
0.0
 40
0.0
 40
0.0
 40
0.3333333333333333
 40
0.3333333333333333
 40
0.3333333333333333
 40
0.3333333333333333
 40
1.0
 40
1.0
 40
1.0
 40
1.0
 10
460.27690000000007
 20
1328.5225952666697
 30
0.0
 10
460.27690000000007
 20
1328.5225952666697
 30
0.0
 10
447.3278
 20
1328.5225952666697
 30
0.0
 10
447.3278
 20
1328.5225952666697
 30
0.0
 10
447.3278
 20
1328.5225952666697
 30
0.0
 10
447.3278
 20
1328.5225952666697
 30
0.0
 10
447.3278
 20
1353.4761952666697
 30
0.0
 10
447.3278
 20
1353.4761952666697
 30
0.0
  0
SPLINE
  5
60
330
17
100
AcDbEntity
  8
200_140_1_black_TOYOTA COROLLA VERSO_2_layer 2
 62
250
370
9
100
AcDbSpline
 70
24
 71
3
 72
8
 73
4
 74
0
 42
1e-09
 40
0.0
 40
0.0
 40
0.0
 40
0.0
 40
1.0
 40
1.0
 40
1.0
 40
1.0
 10
491.12429999999995
 20
1353.4761952666697
 30
0.0
 10
491.12429999999995
 20
1353.4761952666697
 30
0.0
 10
483.8025
 20
1328.5225952666697
 30
0.0
 10
483.8025
 20
1328.5225952666697
 30
0.0
  0
SPLINE
  5
61
330
17
100
AcDbEntity
  8
200_140_1_black_TOYOTA COROLLA VERSO_2_layer 2
 62
250
370
9
100
AcDbSpline
 70
24
 71
3
 72
8
 73
4
 74
0
 42
1e-09
 40
0.0
 40
0.0
 40
0.0
 40
0.0
 40
1.0
 40
1.0
 40
1.0
 40
1.0
 10
483.80240000000003
 20
1328.5225952666697
 30
0.0
 10
483.80240000000003
 20
1328.5225952666697
 30
0.0
 10
476.4806000000001
 20
1353.4761952666697
 30
0.0
 10
476.4806000000001
 20
1353.4761952666697
 30
0.0
  0
SPLINE
  5
62
330
17
100
AcDbEntity
  8
200_140_1_black_TOYOTA COROLLA VERSO_2_layer 2
 62
250
370
9
100
AcDbSpline
 70
8
 71
3
 72
32
 73
28
 74
0
 42
1e-09
 40
0.0
 40
0.0
 40
0.0
 40
0.0
 40
0.125
 40
0.125
 40
0.125
 40
0.125
 40
0.25
 40
0.25
 40
0.25
 40
0.25
 40
0.375
 40
0.375
 40
0.375
 40
0.375
 40
0.5
 40
0.5
 40
0.5
 40
0.5
 40
0.625
 40
0.625
 40
0.625
 40
0.625
 40
0.75
 40
0.75
 40
0.75
 40
0.75
 40
1.0
 40
1.0
 40
1.0
 40
1.0
 10
496.4703999999999
 20
1328.5226952666696
 30
0.0
 10
496.4703999999999
 20
1328.5226952666696
 30
0.0
 10
496.4703999999999
 20
1353.4761952666697
 30
0.0
 10
496.4703999999999
 20
1353.4761952666697
 30
0.0
 10
496.4703999999999
 20
1353.4761952666697
 30
0.0
 10
500.0652
 20
1353.4761952666697
 30
0.0
 10
503.6606999999999
 20
1353.4761952666697
 30
0.0
 10
507.2559000000001
 20
1353.4761952666697
 30
0.0
 10
507.2559000000001
 20
1353.4761952666697
 30
0.0
 10
509.5812000000001
 20
1353.4384952666696
 30
0.0
 10
511.1385
 20
1351.9484952666696
 30
0.0
 10
511.1343999999999
 20
1349.5820952666697
 30
0.0
 10
511.1343999999999
 20
1349.5820952666697
 30
0.0
 10
511.134
 20
1347.5465952666696
 30
0.0
 10
511.134
 20
1344.4871952666697
 30
0.0
 10
511.1343999999999
 20
1342.4511952666696
 30
0.0
 10
511.1343999999999
 20
1342.4511952666696
 30
0.0
 10
511.12789999999995
 20
1340.5756952666698
 30
0.0
 10
509.3155999999999
 20
1338.6338952666697
 30
0.0
 10
507.3061
 20
1338.6147952666697
 30
0.0
 10
507.3061
 20
1338.6147952666697
 30
0.0
 10
507.3061
 20
1338.6147952666697
 30
0.0
 10
496.4703999999999
 20
1338.6147952666697
 30
0.0
 10
496.4703999999999
 20
1338.6147952666697
 30
0.0
 10
496.4703999999999
 20
1338.6147952666697
 30
0.0
 10
496.4703999999999
 20
1338.6147952666697
 30
0.0
 10
511.1251
 20
1328.5226952666696
 30
0.0
 10
511.1251
 20
1328.5226952666696
 30
0.0
  0
SPLINE
  5
63
330
17
100
AcDbEntity
  8
200_140_1_black_TOYOTA COROLLA VERSO_2_layer 2
 62
250
370
9
100
AcDbSpline
 70
8
 71
3
 72
16
 73
12
 74
0
 42
1e-09
 40
0.0
 40
0.0
 40
0.0
 40
0.0
 40
0.25
 40
0.25
 40
0.25
 40
0.25
 40
0.5
 40
0.5
 40
0.5
 40
0.5
 40
1.0
 40
1.0
 40
1.0
 40
1.0
 10
523.8025
 20
1340.9993952666696
 30
0.0
 10
519.5542
 20
1342.4697952666697
 30
0.0
 10
514.6460999999999
 20
1344.2655952666696
 30
0.0
 10
516.6512
 20
1349.7858952666697
 30
0.0
 10
516.6512
 20
1349.7858952666697
 30
0.0
 10
518.1547
 20
1353.9257952666696
 30
0.0
 10
523.3683000000001
 20
1353.5372952666696
 30
0.0
 10
526.9719
 20
1352.9361952666698
 30
0.0
 10
526.9719
 20
1352.9361952666698
 30
0.0
 10
529.8325
 20
1352.4589952666697
 30
0.0
 10
530.6972000000001
 20
1351.2457952666696
 30
0.0
 10
531.0078000000001
 20
1349.1616952666698
 30
0.0
  0
SPLINE
  5
64
330
17
100
AcDbEntity
  8
200_140_1_black_TOYOTA COROLLA VERSO_2_layer 2
 62
250
370
9
100
AcDbSpline
 70
8
 71
3
 72
16
 73
12
 74
0
 42
1e-09
 40
0.0
 40
0.0
 40
0.0
 40
0.0
 40
0.25
 40
0.25
 40
0.25
 40
0.25
 40
0.5
 40
0.5
 40
0.5
 40
0.5
 40
1.0
 40
1.0
 40
1.0
 40
1.0
 10
523.8025
 20
1340.9992952666696
 30
0.0
 10
527.8210999999999
 20
1339.3525952666696
 30
0.0
 10
532.8506
 20
1337.4642952666698
 30
0.0
 10
531.0165999999999
 20
1332.1039952666697
 30
0.0
 10
531.0165999999999
 20
1332.1039952666697
 30
0.0
 10
529.5568000000001
 20
1327.8375952666697
 30
0.0
 10
524.646
 20
1328.0942952666696
 30
0.0
 10
520.9199000000001
 20
1328.6489952666698
 30
0.0
 10
520.9199000000001
 20
1328.6489952666698
 30
0.0
 10
518.1699000000001
 20
1329.0587952666697
 30
0.0
 10
516.9490000000001
 20
1330.2722952666697
 30
0.0
 10
516.5709999999999
 20
1332.3844952666698
 30
0.0
  0
SPLINE
  5
65
330
17
100
AcDbEntity
  8
200_140_1_black_TOYOTA COROLLA VERSO_2_layer 3
 62
242
370
158
100
AcDbSpline
 70
11
 71
3
 72
132
 73
128
 74
0
 42
1e-09
 40
0.0
 40
0.0
 40
0.0
 40
0.0
 40
0.0303030303030303
 40
0.0303030303030303
 40
0.0303030303030303
 40
0.0303030303030303
 40
0.0606060606060606
 40
0.0606060606060606
 40
0.0606060606060606
 40
0.0606060606060606
 40
0.0909090909090909
 40
0.0909090909090909
 40
0.0909090909090909
 40
0.0909090909090909
 40
0.1212121212121212
 40
0.1212121212121212
 40
0.1212121212121212
 40
0.1212121212121212
 40
0.1515151515151515
 40
0.1515151515151515
 40
0.1515151515151515
 40
0.1515151515151515
 40
0.1818181818181818
 40
0.1818181818181818
 40
0.1818181818181818
 40
0.1818181818181818
 40
0.2121212121212121
 40
0.2121212121212121
 40
0.2121212121212121
 40
0.2121212121212121
 40
0.2424242424242424
 40
0.2424242424242424
 40
0.2424242424242424
 40
0.2424242424242424
 40
0.2727272727272727
 40
0.2727272727272727
 40
0.2727272727272727
 40
0.2727272727272727
 40
0.303030303030303
 40
0.303030303030303
 40
0.303030303030303
 40
0.303030303030303
 40
0.3333333333333333
 40
0.3333333333333333
 40
0.3333333333333333
 40
0.3333333333333333
 40
0.3636363636363636
 40
0.3636363636363636
 40
0.3636363636363636
 40
0.3636363636363636
 40
0.3939393939393939
 40
0.3939393939393939
 40
0.3939393939393939
 40
0.3939393939393939
 40
0.4242424242424243
 40
0.4242424242424243
 40
0.4242424242424243
 40
0.4242424242424243
 40
0.4545454545454545
 40
0.4545454545454545
 40
0.4545454545454545
 40
0.4545454545454545
 40
0.4848484848484849
 40
0.4848484848484849
 40
0.4848484848484849
 40
0.4848484848484849
 40
0.5151515151515151
 40
0.5151515151515151
 40
0.5151515151515151
 40
0.5151515151515151
 40
0.5454545454545454
 40
0.5454545454545454
 40
0.5454545454545454
 40
0.5454545454545454
 40
0.5757575757575758
 40
0.5757575757575758
 40
0.5757575757575758
 40
0.5757575757575758
 40
0.6060606060606061
 40
0.6060606060606061
 40
0.6060606060606061
 40
0.6060606060606061
 40
0.6363636363636364
 40
0.6363636363636364
 40
0.6363636363636364
 40
0.6363636363636364
 40
0.6666666666666666
 40
0.6666666666666666
 40
0.6666666666666666
 40
0.6666666666666666
 40
0.696969696969697
 40
0.696969696969697
 40
0.696969696969697
 40
0.696969696969697
 40
0.7272727272727273
 40
0.7272727272727273
 40
0.7272727272727273
 40
0.7272727272727273
 40
0.7575757575757576
 40
0.7575757575757576
 40
0.7575757575757576
 40
0.7575757575757576
 40
0.7878787878787878
 40
0.7878787878787878
 40
0.7878787878787878
 40
0.7878787878787878
 40
0.8181818181818182
 40
0.8181818181818182
 40
0.8181818181818182
 40
0.8181818181818182
 40
0.8484848484848485
 40
0.8484848484848485
 40
0.8484848484848485
 40
0.8484848484848485
 40
0.8787878787878788
 40
0.8787878787878788
 40
0.8787878787878788
 40
0.8787878787878788
 40
0.9090909090909091
 40
0.9090909090909091
 40
0.9090909090909091
 40
0.9090909090909091
 40
0.9393939393939394
 40
0.9393939393939394
 40
0.9393939393939394
 40
0.9393939393939394
 40
1.0
 40
1.0
 40
1.0
 40
1.0
 10
638.3215
 20
1247.7412952666696
 30
0.0
 10
645.5054
 20
1248.8355952666698
 30
0.0
 10
652.4204
 20
1250.6362952666698
 30
0.0
 10
658.6241
 20
1253.7213952666698
 30
0.0
 10
658.6241
 20
1253.7213952666698
 30
0.0
 10
672.5811000000001
 20
1260.9850952666698
 30
0.0
 10
687.0482
 20
1269.5945952666698
 30
0.0
 10
700.7
 20
1277.5406952666697
 30
0.0
 10
700.7
 20
1277.5406952666697
 30
0.0
 10
733.9839999999999
 20
1296.9216952666698
 30
0.0
 10
723.9881
 20
1297.7323952666698
 30
0.0
 10
763.4870000000001
 20
1295.7668952666697
 30
0.0
 10
763.4870000000001
 20
1295.7668952666697
 30
0.0
 10
781.1706999999999
 20
1294.9665952666696
 30
0.0
 10
784.9621999999999
 20
1294.1475952666697
 30
0.0
 10
783.3477
 20
1312.0739952666697
 30
0.0
 10
783.3477
 20
1312.0739952666697
 30
0.0
 10
769.3492000000001
 20
1467.5014952666697
 30
0.0
 10
756.3685
 20
1623.0277952666697
 30
0.0
 10
743.7095999999999
 20
1778.5714952666697
 30
0.0
 10
743.7095999999999
 20
1778.5714952666697
 30
0.0
 10
743.1407999999999
 20
1785.6388952666696
 30
0.0
 10
743.2159999999999
 20
1804.5350952666697
 30
0.0
 10
738.8983000000001
 20
1809.1610952666697
 30
0.0
 10
738.8983000000001
 20
1809.1610952666697
 30
0.0
 10
733.2224000000001
 20
1815.2423952666697
 30
0.0
 10
702.1108999999999
 20
1808.8265952666698
 30
0.0
 10
693.4694
 20
1807.8012952666697
 30
0.0
 10
693.4694
 20
1807.8012952666697
 30
0.0
 10
687.4175
 20
1807.2656952666696
 30
0.0
 10
673.4867999999999
 20
1807.1176952666697
 30
0.0
 10
676.6042
 20
1817.1306952666696
 30
0.0
 10
676.6042
 20
1817.1306952666696
 30
0.0
 10
678.4114
 20
1822.9352952666698
 30
0.0
 10
704.4847
 20
1840.6458952666696
 30
0.0
 10
710.8078
 20
1845.1706952666698
 30
0.0
 10
710.8078
 20
1845.1706952666698
 30
0.0
 10
722.1687999999999
 20
1853.3743952666696
 30
0.0
 10
727.1266
 20
1854.1798952666697
 30
0.0
 10
725.8674000000001
 20
1869.4296952666696
 30
0.0
 10
725.8674000000001
 20
1869.4296952666696
 30
0.0
 10
723.2420999999999
 20
1894.6758952666696
 30
0.0
 10
720.0089
 20
1923.2975952666698
 30
0.0
 10
713.8109999999999
 20
1947.7976952666697
 30
0.0
 10
713.8109999999999
 20
1947.7976952666697
 30
0.0
 10
707.2244000000001
 20
1973.4206952666698
 30
0.0
 10
683.249
 20
2014.4194952666696
 30
0.0
 10
661.1609000000001
 20
2029.2076952666696
 30
0.0
 10
661.1609000000001
 20
2029.2076952666696
 30
0.0
 10
631.3199
 20
2046.9493952666696
 30
0.0
 10
574.2893999999999
 20
2055.8960952666694
 30
0.0
 10
539.5800999999999
 20
2055.5382952666696
 30
0.0
 10
539.5800999999999
 20
2055.5382952666696
 30
0.0
 10
429.41599999999994
 20
2052.6316952666693
 30
0.0
 10
332.3830000000001
 20
2041.4053952666698
 30
0.0
 10
223.9278000000001
 20
2024.9022952666696
 30
0.0
 10
223.9278000000001
 20
2024.9022952666696
 30
0.0
 10
201.80810000000002
 20
2021.6146952666697
 30
0.0
 10
188.8915
 20
2020.3010952666696
 30
0.0
 10
193.3634
 20
1994.3131952666697
 30
0.0
 10
193.3634
 20
1994.3131952666697
 30
0.0
 10
196.16520000000008
 20
1978.2352952666697
 30
0.0
 10
199.3544000000001
 20
1962.4447952666696
 30
0.0
 10
202.5958000000001
 20
1946.4620952666696
 30
0.0
 10
202.5958000000001
 20
1946.4620952666696
 30
0.0
 10
205.14190000000002
 20
1933.9077952666696
 30
0.0
 10
205.9649
 20
1915.1911952666696
 30
0.0
 10
205.5053000000001
 20
1902.2722952666697
 30
0.0
 10
205.5053000000001
 20
1902.2722952666697
 30
0.0
 10
204.67110000000008
 20
1878.8296952666697
 30
0.0
 10
194.54680000000002
 20
1850.9028952666697
 30
0.0
 10
186.7172000000001
 20
1828.6457952666697
 30
0.0
 10
186.7172000000001
 20
1828.6457952666697
 30
0.0
 10
178.51710000000008
 20
1805.4034952666698
 30
0.0
 10
159.37380000000002
 20
1779.3791952666697
 30
0.0
 10
156.11500000000007
 20
1756.6148952666697
 30
0.0
 10
156.11500000000007
 20
1756.6148952666697
 30
0.0
 10
155.34840000000003
 20
1747.4852952666697
 30
0.0
 10
156.02490000000006
 20
1735.7904952666697
 30
0.0
 10
155.81300000000005
 20
1726.2855952666696
 30
0.0
 10
155.81300000000005
 20
1726.2855952666696
 30
0.0
 10
153.4327
 20
1681.8897952666698
 30
0.0
 10
131.16450000000003
 20
1690.8511952666697
 30
0.0
 10
126.12510000000003
 20
1680.3331952666697
 30
0.0
 10
126.12510000000003
 20
1680.3331952666697
 30
0.0
 10
122.27170000000007
 20
1672.2905952666697
 30
0.0
 10
131.4318
 20
1603.7305952666698
 30
0.0
 10
132.90750000000008
 20
1589.6543952666698
 30
0.0
 10
132.90750000000008
 20
1589.6543952666698
 30
0.0
 10
138.6221000000001
 20
1525.8819952666697
 30
0.0
 10
142.5927000000001
 20
1461.4673952666697
 30
0.0
 10
147.4020000000001
 20
1397.5681952666696
 30
0.0
 10
147.4020000000001
 20
1397.5681952666696
 30
0.0
 10
149.67760000000004
 20
1367.5385952666697
 30
0.0
 10
152.1705
 20
1338.3938952666697
 30
0.0
 10
153.62000000000006
 20
1308.2501952666696
 30
0.0
 10
153.62000000000006
 20
1308.2501952666696
 30
0.0
 10
153.86880000000002
 20
1303.0761952666696
 30
0.0
 10
154.09100000000007
 20
1287.9672952666697
 30
0.0
 10
159.5808
 20
1285.5571952666696
 30
0.0
 10
159.5808
 20
1285.5571952666696
 30
0.0
 10
169.3391000000001
 20
1281.2731952666697
 30
0.0
 10
189.6347
 20
1296.8377952666697
 30
0.0
 10
200.0315000000001
 20
1284.4856952666696
 30
0.0
 10
200.0315000000001
 20
1284.4856952666696
 30
0.0
 10
207.89860000000004
 20
1273.5220952666696
 30
0.0
 10
191.49400000000009
 20
1248.4817952666697
 30
0.0
 10
202.61060000000003
 20
1241.3471952666696
 30
0.0
 10
202.61060000000003
 20
1241.3471952666696
 30
0.0
 10
205.52590000000004
 20
1239.8766952666697
 30
0.0
 10
209.79250000000008
 20
1239.6029952666697
 30
0.0
 10
212.99600000000004
 20
1239.3529952666697
 30
0.0
 10
212.99600000000004
 20
1239.3529952666697
 30
0.0
 10
236.1882000000001
 20
1237.9316952666697
 30
0.0
 10
258.4147000000001
 20
1242.0213952666697
 30
0.0
 10
282.54770000000013
 20
1239.1393952666697
 30
0.0
 10
282.54770000000013
 20
1239.1393952666697
 30
0.0
 10
286.85020000000014
 20
1238.6255952666697
 30
0.0
 10
290.9183000000001
 20
1237.9244952666697
 30
0.0
 10
295.16000000000014
 20
1237.0521952666697
 30
0.0
 10
295.16000000000014
 20
1237.0521952666697
 30
0.0
 10
301.46160000000015
 20
1235.7105952666698
 30
0.0
 10
306.7905000000001
 20
1235.0051952666697
 30
0.0
 10
311.87290000000013
 20
1234.7166952666696
 30
0.0
 10
311.87290000000013
 20
1234.7166952666696
 30
0.0
 10
316.95530000000014
 20
1234.4281952666697
 30
0.0
 10
638.3215
 20
1247.7412952666696
 30
0.0
 10
638.3215
 20
1247.7412952666696
 30
0.0
  0
IMAGE
  5
66
330
17
100
AcDbEntity
  8
200_140_1_black_ДЕКА KUGOO M4 PRO JILONG_1_layer 1
 62
0
 92
140
310
8C00000001000000840000000600000005000000454772F90FF36540F831E6AE251E69C00000000000000000B4CAEAE1FC718940F831E6AE251E69C00000000000000000B4CAEAE1FC71894088AB3F11AD4F90400000000000000000454772F90FF3654088AB3F11AD4F90400000000000000000454772F90FF36540F831E6
310
AE251E69C00000000000000000
100
AcDbRasterImage
 90
0
 10
-2065.3398416245227
 20
767.3249532396487
 30
0.0
 11
8.504491660745509e-19
 21
0.01388888888888889
 31
0.0
 12
-0.01388888888888889
 22
8.504491660745509e-19
 32
0.0
 13
45983.0
 23
89630.0
340
71
 70
3
280
1
281
50
282
50
283
0
360
67
 71
1
 91
2
 14
175.5957
 24
-200.9421
 14
814.2618
 24
1043.9316
290
0
  0
IMAGE
  5
68
330
17
100
AcDbEntity
  8
200_140_1_black_ДЕКА KUGOO M4 PRO JILONG_1_layer 1
 62
0
 92
140
310
8C00000001000000840000000600000005000000A52C431CEBE87640C520B072683D7B4000000000000000008C2405C703788240C520B072683D7B4000000000000000008C2405C7037882408C92CC39DA417D400000000000000000A52C431CEBE876408C92CC39DA417D400000000000000000A52C431CEBE87640C520B0
310
72683D7B400000000000000000
100
AcDbRasterImage
 90
0
 10
-2702.1199416245227
 20
958.2866532396486
 30
0.0
 11
8.504491660745509e-19
 21
0.01388888888888889
 31
0.0
 12
-0.01388888888888889
 22
8.504491660745509e-19
 32
0.0
 13
16160.0
 23
2324.0
340
74
 70
3
280
1
281
50
282
50
283
0
360
69
 71
1
 91
2
 14
366.5574
 24
435.838
 14
591.0065
 24
468.1172
290
0
  0
IMAGE
  5
6A
330
17
100
AcDbEntity
  8
200_140_1_black_ДЕКА KUGOO M4 PRO JILONG_1_layer 1
 62
0
 92
140
310
8C00000001000000840000000600000005000000A52C431CEBE87640C0EC9E3C2C92774000000000000000001A083E55E7558240C0EC9E3C2C92774000000000000000001A083E55E7558240875EBB039E9679400000000000000000A52C431CEBE87640875EBB039E9679400000000000000000A52C431CEBE87640C0EC9E
310
3C2C9277400000000000000000
100
AcDbRasterImage
 90
0
 10
-2643.417741624523
 20
958.2866532396486
 30
0.0
 11
8.504491660745509e-19
 21
0.01388888888888889
 31
0.0
 12
-0.01388888888888889
 22
8.504491660745509e-19
 32
0.0
 13
15853.0
 23
2324.0
340
77
 70
3
280
1
281
50
282
50
283
0
360
6B
 71
1
 91
2
 14
366.5574
 24
377.1358
 14
586.7497
 24
409.415
290
0
  0
IMAGE
  5
6C
330
17
100
AcDbEntity
  8
200_140_1_black_ДЕКА KUGOO M4 PRO JILONG_1_layer 1
 62
0
 92
140
310
8C00000001000000840000000600000005000000A52C431CEBE87640BBB88D06F0E6734000000000000000008C2405C703FB8440BBB88D06F0E6734000000000000000008C2405C703FB8440822AAACD61EB75400000000000000000A52C431CEBE87640822AAACD61EB75400000000000000000A52C431CEBE87640BBB88D
310
06F0E673400000000000000000
100
AcDbRasterImage
 90
0
 10
-2584.7155416245223
 20
958.2866532396486
 30
0.0
 11
8.504491660745509e-19
 21
0.01388888888888889
 31
0.0
 12
-0.01388888888888889
 22
8.504491660745509e-19
 32
0.0
 13
21947.0
 23
2324.0
340
7A
 70
3
280
1
281
50
282
50
283
0
360
6D
 71
1
 91
2
 14
366.5574
 24
318.4336
 14
671.3812
 24
350.7128
290
0
  0
LWPOLYLINE
  5
70
330
17
100
AcDbEntity
  8
200_140_1_black
100
AcDbPolyline
 90
191
 70
0
 10
99.20471778640794
 20
0.0
 10
99.20471778640794
 20
977.432261652744
 10
86.81765365608521
 20
976.9720463999247
 10
68.70464151734785
 20
977.0087996362879
 10
65.97039089727068
 20
977.2463589479464
 10
63.10039202642474
 20
977.7018803892704
 10
60.5176050044129
 20
978.5808707060933
 10
57.47379870789891
 20
987.9765873388756
 10
59.82048337176505
 20
1001.1798451936852
 10
58.48444449399639
 20
1012.5878843955538
 10
48.28395049140792
 20
1016.3841406044282
 10
36.461213204709225
 20
1013.8764864367981
 10
26.59628179302443
 20
1013.4325710077992
 10
23.498166168162726
 20
1018.0085796983797
 10
22.24097419747578
 20
1025.2933840104713
 10
21.897254281410724
 20
1031.3219540493214
 10
20.517212580915967
 20
1054.8773784233185
 10
18.809666994119794
 20
1078.2378075792806
 10
16.995470237370085
 20
1101.7332675554603
 10
13.349175995759595
 20
1152.2080260167204
 10
9.69121458759571
 20
1202.7508604308555
 10
5.569142036547078
 20
1253.1589781337375
 10
2.990874766781843
 20
1275.2147696895724
 10
0.0
 20
1305.7581921349818
 10
0.22242919825136198
 20
1324.6430388871963
 10
7.638675936384246
 20
1329.9425458991243
 10
17.607280697608473
 20
1337.7644016918025
 10
23.62604364601195
 20
1360.8683107516053
 10
23.62771373090476
 20
1368.7978428637052
 10
23.570925376002094
 20
1377.0452611400951
 10
23.864116857598773
 20
1384.7775552490511
 10
29.823840166676433
 20
1403.4033793963863
 10
33.63395211703434
 20
1411.049210896534
 10
33.61407897840172
 20
1411.3393433671906
 10
33.727596127209935
 20
1411.2371282942718
 10
39.43188086862369
 20
1422.6840360308324
 10
47.98849334043331
 20
1441.5610720216985
 10
54.42548129697752
 20
1460.3002106559352
 10
60.038988498061
 20
1480.2402610267281
 10
62.799559637007405
 20
1499.6024366235617
 10
62.81197717448518
 20
1510.960972271359
 10
62.073159195786644
 20
1523.2712923494084
 10
60.50593776427823
 20
1534.4382131934467
 10
57.974175603882514
 20
1547.0012195609775
 10
55.52856824402829
 20
1559.5472332191205
 10
53.227836831118736
 20
1572.1602720917099
 10
54.032795255258435
 20
1586.9413870187966
 10
62.54230108309207
 20
1593.4232973417852
 10
77.32241484822626
 20
1596.274320929356
 10
160.53542572874792
 20
1607.8086228146137
 10
242.04683710514573
 20
1616.036651331192
 10
326.15795778261645
 20
1620.425343100445
 10
357.93991050800355
 20
1618.27730083278
 10
392.77930736616895
 20
1611.328554797105
 10
422.002735259611
 20
1599.668360609095
 10
439.34838928097986
 20
1582.3372435497845
 10
442.12447840874313
 20
1577.917075423352
 10
442.12447840874313
 20
1665.774597608217
 10
442.124478408743
 20
1881.6708525043264
 10
442.12447840874313
 20
2086.86150848735
 10
442.12447840874313
 20
2259.935366767618
 10
442.12447840874313
 20
2379.4812285554553
 10
442.12447840874313
 20
2424.087895061191
 10
442.2596609661131
 20
2426.7913028994544
 10
442.6219502334369
 20
2434.036436177412
 10
443.14645857988273
 20
2444.525659066831
 10
443.7682983746198
 20
2456.961335739477
 10
444.4225819868162
 20
2470.045830367115
 10
445.04442178564125
 20
2482.481507121512
 10
445.568930140263
 20
2492.970730174433
 10
445.93121941985044
 20
2500.215863697644
 10
446.0664019935722
 20
2502.919271862911
 10
446.0664019935722
 20
2505.6226796544597
 10
446.0664019935722
 20
2512.867812897381
 10
446.0664019935721
 20
2523.357035763442
 10
446.0664019935722
 20
2535.7927124244097
 10
446.0664019935721
 20
2548.8772070520477
 10
446.0664019935722
 20
2561.312883818123
 10
446.0664019935721
 20
2571.8021068944017
 10
446.0664019935722
 20
2579.0472404526486
 10
446.0664019935721
 20
2581.7506486646307
 10
446.2691596062929
 20
2585.8058387671344
 10
446.8125500414942
 20
2596.6737489040415
 10
447.59924963561014
 20
2612.407887636951
 10
448.53193472507473
 20
2631.0617635274602
 10
449.5132816463223
 20
2650.688885137171
 10
450.445966735787
 20
2669.3427610276813
 10
451.23266632990294
 20
2685.0768997605896
 10
451.7760567651043
 20
2695.9448098974963
 10
451.97881437782496
 20
2699.9999999999995
 10
474.82285031965694
 20
2699.9999999999995
 10
536.0448628423734
 20
2699.9999999999995
 10
624.6797156531238
 20
2699.9999999999995
 10
729.7622724590599
 20
2699.9999999999995
 10
840.3273969673337
 20
2699.9999999999995
 10
945.4099528850937
 20
2700.0
 10
1034.0448039194926
 20
2699.9999999999995
 10
1095.26681377768
 20
2699.9999999999995
 10
1118.1108461668077
 20
2699.9999999999995
 10
1118.313601103344
 20
2695.944809352479
 10
1118.8569843062833
 20
2685.076898956688
 10
1119.6436734129206
 20
2669.342760186796
 10
1120.5763460605497
 20
2650.688884416969
 10
1121.5576798864668
 20
2631.061763021373
 10
1122.4903525279647
 20
2612.407887374174
 10
1123.2770416223386
 20
2596.673748849539
 10
1123.8204248068844
 20
2585.8058388216364
 10
1124.0231797188953
 20
2581.7506486646307
 10
1124.0231797188953
 20
2579.0472405460787
 10
1124.0231797188953
 20
2571.8021070579034
 10
1124.0231797188953
 20
2561.3128840283407
 10
1124.0231797188956
 20
2548.8772072856223
 10
1124.0231797188953
 20
2535.7927126579843
 10
1124.0231797188953
 20
2523.3570359736595
 10
1124.0231797188953
 20
2512.867813060883
 10
1124.023179718895
 20
2505.6226797478885
 10
1124.0231797188953
 20
2502.919271862911
 10
1124.0583173463694
 20
2502.216385763738
 10
1124.1583244375183
 20
2500.215863837788
 10
1124.3150923093742
 20
2497.079910563595
 10
1124.520512278968
 20
2492.970730419686
 10
1124.766475663331
 20
2488.0505278845903
 10
1125.0448737794954
 20
2482.4815074368375
 10
1125.3475979444922
 20
2476.425873554956
 10
1125.6665394753534
 20
2470.0458307174767
 10
1125.9935896891095
 20
2463.5035834029277
 10
1126.320639902793
 20
2456.9613360898384
 10
1126.639581433435
 20
2450.581293256738
 10
1126.9423055980672
 20
2444.5256593821564
 10
1127.2207037137207
 20
2438.9566389446222
 10
1127.466667097427
 20
2434.0364364226652
 10
1127.6720870662182
 20
2429.9272562948145
 10
1127.8288549371248
 20
2426.791303039598
 10
1127.9288620271793
 20
2424.790781135548
 10
1127.9639996534127
 20
2424.087895061191
 10
1127.963999653413
 20
2379.481230867865
 10
1127.9639996534124
 20
2259.935370814333
 10
1127.9639996534129
 20
2086.8615136902713
 10
1127.9639996534127
 20
1974.744553857974
 10
1360.0917888542058
 20
1974.744553857974
 10
1482.7078755547673
 20
1974.744553857974
 10
1482.7078755547673
 20
1493.1323181122518
 10
1482.702320108536
 20
1285.8158567222006
 10
1482.6781550587848
 20
1284.1024545288392
 10
1482.6259984926062
 20
1282.827708794647
 10
1482.5736769737157
 20
1281.7088107875413
 10
1482.4487016309079
 20
1279.9317525406705
 10
1482.3444788101358
 20
1278.8162601217987
 10
1482.2184502893772
 20
1277.5463904472565
 10
1482.002216915411
 20
1275.8465732585091
 10
1481.8528135564081
 20
1274.814971407732
 10
1481.6207799977158
 20
1273.3234610158443
 10
1481.3470597939718
 20
1271.839008637722
 10
1481.1472768206486
 20
1270.8160234858344
 10
1480.789809377036
 20
1269.140496575004
 10
1480.489668265611
 20
1267.900667669692
 10
1480.2198175901865
 20
1266.813569143878
 10
1479.7504440704313
 20
1265.0941818849215
 10
1479.4302246054535
 20
1264.0209441021652
 10
1479.0584063809592
 20
1262.8008060585778
 10
1478.5150057736882
 20
1261.1752995185104
 10
1475.5417926874554
 20
1252.6636582094854
 10
1468.9124043225072
 20
1233.7225958591093
 10
1412.3929310558271
 20
1090.355792204037
 10
1383.7672627074842
 20
1017.9029978708627
 10
1364.8790211628655
 20
970.6821122924187
 10
1353.4661623796721
 20
948.3599004231553
 10
1342.112558866676
 20
927.674580436023
 10
1312.7946465410569
 20
882.5702651668867
 10
1309.3943371571381
 20
877.3790479225581
 10
1308.9739402498114
 20
876.7913477126299
 10
1308.3482156925197
 20
876.0489297511572
 10
1307.9449701968872
 20
875.6181224955217
 10
1307.341230804416
 20
875.0126737303981
 10
1306.6897392054814
 20
874.4589472270973
 10
1306.2284132052764
 20
874.0910494255681
 10
1305.4392928775026
 20
873.5256123132751
 10
1304.819909505601
 20
873.1527448209247
 10
1304.2707015119065
 20
872.8348433679585
 10
1303.3638492199593
 20
872.3903347330381
 10
1302.7765326068386
 20
872.1511706831275
 10
1302.10289883089
 20
871.8902624482048
 10
1301.1724192364304
 20
871.6124895920775
 10
1300.5988510092775
 20
871.4730560953521
 10
1299.7617546242989
 20
871.2971561238035
 10
1298.913244013745
 20
871.1914507143656
 10
1298.3256326212593
 20
871.1367230125688
 10
1297.3553996371254
 20
871.0962183835372
 10
1216.8726260861376
 20
871.0950304524272
 10
1202.855029513606
 20
871.0960469604438
 10
1202.855029513606
 20
0.0
  0
IMAGE
  5
71
330
17
100
AcDbEntity
  8
200_140_1_black_ДЕКА KUGOO M4 PRO JILONG_1_layer 1
 62
0
 92
140
310
8C00000001000000840000000600000005000000A52C431CEBE876404BEA0434111A694000000000000000005296218E75AF82404BEA0434111A694000000000000000005296218E75AF82402F2393174A306D400000000000000000A52C431CEBE876402F2393174A306D400000000000000000A52C431CEBE876404BEA04
310
34111A69400000000000000000
100
AcDbRasterImage
 90
0
 10
-2467.0965416245226
 20
958.2866532396486
 30
0.0
 11
8.504491660745509e-19
 21
0.01388888888888889
 31
0.0
 12
-0.01388888888888889
 22
8.504491660745509e-19
 32
0.0
 13
16659.0
 23
2354.0
340
80
 70
3
280
1
281
50
282
50
283
0
360
72
 71
1
 91
2
 14
366.5574
 24
200.8146
 14
597.9385
 24
233.5171
290
0
  0
LWPOLYLINE
  5
75
330
17
100
AcDbEntity
  8
200_140_1_black
100
AcDbPolyline
 90
191
 70
0
 10
99.20471778640794
 20
0.0
 10
99.20471778640794
 20
977.432261652744
 10
86.81765365608521
 20
976.9720463999247
 10
68.70464151734785
 20
977.0087996362879
 10
65.97039089727068
 20
977.2463589479464
 10
63.10039202642474
 20
977.7018803892704
 10
60.5176050044129
 20
978.5808707060933
 10
57.47379870789891
 20
987.9765873388756
 10
59.82048337176505
 20
1001.1798451936852
 10
58.48444449399639
 20
1012.5878843955538
 10
48.28395049140792
 20
1016.3841406044282
 10
36.461213204709225
 20
1013.8764864367981
 10
26.59628179302443
 20
1013.4325710077992
 10
23.498166168162726
 20
1018.0085796983797
 10
22.24097419747578
 20
1025.2933840104713
 10
21.897254281410724
 20
1031.3219540493214
 10
20.517212580915967
 20
1054.8773784233185
 10
18.809666994119794
 20
1078.2378075792806
 10
16.995470237370085
 20
1101.7332675554603
 10
13.349175995759595
 20
1152.2080260167204
 10
9.69121458759571
 20
1202.7508604308555
 10
5.569142036547078
 20
1253.1589781337375
 10
2.990874766781843
 20
1275.2147696895724
 10
0.0
 20
1305.7581921349818
 10
0.22242919825136198
 20
1324.6430388871963
 10
7.638675936384246
 20
1329.9425458991243
 10
17.607280697608473
 20
1337.7644016918025
 10
23.62604364601195
 20
1360.8683107516053
 10
23.62771373090476
 20
1368.7978428637052
 10
23.570925376002094
 20
1377.0452611400951
 10
23.864116857598773
 20
1384.7775552490511
 10
29.823840166676433
 20
1403.4033793963863
 10
33.63395211703434
 20
1411.049210896534
 10
33.61407897840172
 20
1411.3393433671906
 10
33.727596127209935
 20
1411.2371282942718
 10
39.43188086862369
 20
1422.6840360308324
 10
47.98849334043331
 20
1441.5610720216985
 10
54.42548129697752
 20
1460.3002106559352
 10
60.038988498061
 20
1480.2402610267281
 10
62.799559637007405
 20
1499.6024366235617
 10
62.81197717448518
 20
1510.960972271359
 10
62.073159195786644
 20
1523.2712923494084
 10
60.50593776427823
 20
1534.4382131934467
 10
57.974175603882514
 20
1547.0012195609775
 10
55.52856824402829
 20
1559.5472332191205
 10
53.227836831118736
 20
1572.1602720917099
 10
54.032795255258435
 20
1586.9413870187966
 10
62.54230108309207
 20
1593.4232973417852
 10
77.32241484822626
 20
1596.274320929356
 10
160.53542572874792
 20
1607.8086228146137
 10
242.04683710514573
 20
1616.036651331192
 10
326.15795778261645
 20
1620.425343100445
 10
357.93991050800355
 20
1618.27730083278
 10
392.77930736616895
 20
1611.328554797105
 10
422.002735259611
 20
1599.668360609095
 10
439.34838928097986
 20
1582.3372435497845
 10
442.12447840874313
 20
1577.917075423352
 10
442.12447840874313
 20
1665.774597608217
 10
442.124478408743
 20
1881.6708525043264
 10
442.12447840874313
 20
2086.86150848735
 10
442.12447840874313
 20
2259.935366767618
 10
442.12447840874313
 20
2379.4812285554553
 10
442.12447840874313
 20
2424.087895061191
 10
442.2596609661131
 20
2426.7913028994544
 10
442.6219502334369
 20
2434.036436177412
 10
443.14645857988273
 20
2444.525659066831
 10
443.7682983746198
 20
2456.961335739477
 10
444.4225819868162
 20
2470.045830367115
 10
445.04442178564125
 20
2482.481507121512
 10
445.568930140263
 20
2492.970730174433
 10
445.93121941985044
 20
2500.215863697644
 10
446.0664019935722
 20
2502.919271862911
 10
446.0664019935722
 20
2505.6226796544597
 10
446.0664019935722
 20
2512.867812897381
 10
446.0664019935721
 20
2523.357035763442
 10
446.0664019935722
 20
2535.7927124244097
 10
446.0664019935721
 20
2548.8772070520477
 10
446.0664019935722
 20
2561.312883818123
 10
446.0664019935721
 20
2571.8021068944017
 10
446.0664019935722
 20
2579.0472404526486
 10
446.0664019935721
 20
2581.7506486646307
 10
446.2691596062929
 20
2585.8058387671344
 10
446.8125500414942
 20
2596.6737489040415
 10
447.59924963561014
 20
2612.407887636951
 10
448.53193472507473
 20
2631.0617635274602
 10
449.5132816463223
 20
2650.688885137171
 10
450.445966735787
 20
2669.3427610276813
 10
451.23266632990294
 20
2685.0768997605896
 10
451.7760567651043
 20
2695.9448098974963
 10
451.97881437782496
 20
2699.9999999999995
 10
474.82285031965694
 20
2699.9999999999995
 10
536.0448628423734
 20
2699.9999999999995
 10
624.6797156531238
 20
2699.9999999999995
 10
729.7622724590599
 20
2699.9999999999995
 10
840.3273969673337
 20
2699.9999999999995
 10
945.4099528850937
 20
2700.0
 10
1034.0448039194926
 20
2699.9999999999995
 10
1095.26681377768
 20
2699.9999999999995
 10
1118.1108461668077
 20
2699.9999999999995
 10
1118.313601103344
 20
2695.944809352479
 10
1118.8569843062833
 20
2685.076898956688
 10
1119.6436734129206
 20
2669.342760186796
 10
1120.5763460605497
 20
2650.688884416969
 10
1121.5576798864668
 20
2631.061763021373
 10
1122.4903525279647
 20
2612.407887374174
 10
1123.2770416223386
 20
2596.673748849539
 10
1123.8204248068844
 20
2585.8058388216364
 10
1124.0231797188953
 20
2581.7506486646307
 10
1124.0231797188953
 20
2579.0472405460787
 10
1124.0231797188953
 20
2571.8021070579034
 10
1124.0231797188953
 20
2561.3128840283407
 10
1124.0231797188956
 20
2548.8772072856223
 10
1124.0231797188953
 20
2535.7927126579843
 10
1124.0231797188953
 20
2523.3570359736595
 10
1124.0231797188953
 20
2512.867813060883
 10
1124.023179718895
 20
2505.6226797478885
 10
1124.0231797188953
 20
2502.919271862911
 10
1124.0583173463694
 20
2502.216385763738
 10
1124.1583244375183
 20
2500.215863837788
 10
1124.3150923093742
 20
2497.079910563595
 10
1124.520512278968
 20
2492.970730419686
 10
1124.766475663331
 20
2488.0505278845903
 10
1125.0448737794954
 20
2482.4815074368375
 10
1125.3475979444922
 20
2476.425873554956
 10
1125.6665394753534
 20
2470.0458307174767
 10
1125.9935896891095
 20
2463.5035834029277
 10
1126.320639902793
 20
2456.9613360898384
 10
1126.639581433435
 20
2450.581293256738
 10
1126.9423055980672
 20
2444.5256593821564
 10
1127.2207037137207
 20
2438.9566389446222
 10
1127.466667097427
 20
2434.0364364226652
 10
1127.6720870662182
 20
2429.9272562948145
 10
1127.8288549371248
 20
2426.791303039598
 10
1127.9288620271793
 20
2424.790781135548
 10
1127.9639996534127
 20
2424.087895061191
 10
1127.963999653413
 20
2379.481230867865
 10
1127.9639996534124
 20
2259.935370814333
 10
1127.9639996534129
 20
2086.8615136902713
 10
1127.9639996534127
 20
1974.744553857974
 10
1360.0917888542058
 20
1974.744553857974
 10
1482.7078755547673
 20
1974.744553857974
 10
1482.7078755547673
 20
1493.1323181122518
 10
1482.702320108536
 20
1285.8158567222006
 10
1482.6781550587848
 20
1284.1024545288392
 10
1482.6259984926062
 20
1282.827708794647
 10
1482.5736769737157
 20
1281.7088107875413
 10
1482.4487016309079
 20
1279.9317525406705
 10
1482.3444788101358
 20
1278.8162601217987
 10
1482.2184502893772
 20
1277.5463904472565
 10
1482.002216915411
 20
1275.8465732585091
 10
1481.8528135564081
 20
1274.814971407732
 10
1481.6207799977158
 20
1273.3234610158443
 10
1481.3470597939718
 20
1271.839008637722
 10
1481.1472768206486
 20
1270.8160234858344
 10
1480.789809377036
 20
1269.140496575004
 10
1480.489668265611
 20
1267.900667669692
 10
1480.2198175901865
 20
1266.813569143878
 10
1479.7504440704313
 20
1265.0941818849215
 10
1479.4302246054535
 20
1264.0209441021652
 10
1479.0584063809592
 20
1262.8008060585778
 10
1478.5150057736882
 20
1261.1752995185104
 10
1475.5417926874554
 20
1252.6636582094854
 10
1468.9124043225072
 20
1233.7225958591093
 10
1412.3929310558271
 20
1090.355792204037
 10
1383.7672627074842
 20
1017.9029978708627
 10
1364.8790211628655
 20
970.6821122924187
 10
1353.4661623796721
 20
948.3599004231553
 10
1342.112558866676
 20
927.674580436023
 10
1312.7946465410569
 20
882.5702651668867
 10
1309.3943371571381
 20
877.3790479225581
 10
1308.9739402498114
 20
876.7913477126299
 10
1308.3482156925197
 20
876.0489297511572
 10
1307.9449701968872
 20
875.6181224955217
 10
1307.341230804416
 20
875.0126737303981
 10
1306.6897392054814
 20
874.4589472270973
 10
1306.2284132052764
 20
874.0910494255681
 10
1305.4392928775026
 20
873.5256123132751
 10
1304.819909505601
 20
873.1527448209247
 10
1304.2707015119065
 20
872.8348433679585
 10
1303.3638492199593
 20
872.3903347330381
 10
1302.7765326068386
 20
872.1511706831275
 10
1302.10289883089
 20
871.8902624482048
 10
1301.1724192364304
 20
871.6124895920775
 10
1300.5988510092775
 20
871.4730560953521
 10
1299.7617546242989
 20
871.2971561238035
 10
1298.913244013745
 20
871.1914507143656
 10
1298.3256326212593
 20
871.1367230125688
 10
1297.3553996371254
 20
871.0962183835372
 10
1216.8726260861376
 20
871.0950304524272
 10
1202.855029513606
 20
871.0960469604438
 10
1202.855029513606
 20
0.0
  0
IMAGE
  5
76
330
17
100
AcDbEntity
  8
200_140_1_black_ДЕКА KUGOO M4 PRO JILONG_1_layer 1
 62
0
 92
140
310
8C000000010000008400000006000000050000008D28ED0DBEE87640DFE00B93A9F5824000000000000000009CE94B5CB4818740DFE00B93A9F5824000000000000000009CE94B5CB481874051FDD204C6FF834000000000000000008D28ED0DBEE8764051FDD204C6FF834000000000000000008D28ED0DBEE87640DFE00B
310
93A9F582400000000000000000
100
AcDbRasterImage
 90
0
 10
-2872.9897416245226
 20
958.2756532396486
 30
0.0
 11
8.504491660745509e-19
 21
0.01388888888888889
 31
0.0
 12
-0.01388888888888889
 22
8.504491660745509e-19
 32
0.0
 13
27768.0
 23
2395.0
340
86
 70
3
280
1
281
50
282
50
283
0
360
77
 71
1
 91
2
 14
366.5464
 24
606.7078
 14
752.2254
 24
639.9747
290
0
  0
IMAGE
  5
78
330
17
100
AcDbEntity
  8
200_140_1_black_ДЕКА KUGOO M4 PRO JILONG_1_layer 1
 62
0
 92
140
310
8C00000001000000840000000600000005000000C217265305E97640ED9E3C2C54C284400000000000000000C444218DBB778240ED9E3C2C54C284400000000000000000C444218DBB7782409849E7D6FE8F85400000000000000000C217265305E976409849E7D6FE8F85400000000000000000C217265305E97640ED9E3C
310
2C54C284400000000000000000
100
AcDbRasterImage
 90
0
 10
-2930.5730416245224
 20
958.2930532396485
 30
0.0
 11
8.504491660745509e-19
 21
0.01388888888888889
 31
0.0
 12
-0.01388888888888889
 22
8.504491660745509e-19
 32
0.0
 13
16157.0
 23
1851.0
340
89
 70
3
280
1
281
50
282
50
283
0
360
79
 71
1
 91
2
 14
366.5638
 24
664.2911
 14
590.9772
 24
690.0086
290
0
  0
IMAGE
  5
7A
330
17
100
AcDbEntity
  8
200_140_1_black_ДЕКА KUGOO M4 PRO JILONG_1_layer 1
 62
0
 92
140
310
8C000000010000008400000006000000050000002C6519E258E97640B7D100DE028886400000000000000000405DB71B57C38440B7D100DE028886400000000000000000405DB71B57C38440627CAB88AD90874000000000000000002C6519E258E97640627CAB88AD90874000000000000000002C6519E258E97640B7D100
310
DE028886400000000000000000
100
AcDbRasterImage
 90
0
 10
-2987.2833416245226
 20
958.3134532396487
 30
0.0
 11
8.504491660745509e-19
 21
0.01388888888888889
 31
0.0
 12
-0.01388888888888889
 22
8.504491660745509e-19
 32
0.0
 13
21444.0
 23
2382.0
340
8C
 70
3
280
1
281
50
282
50
283
0
360
7B
 71
1
 91
2
 14
366.5842
 24
721.0014
 14
664.428
 24
754.0919
290
0
  0
IMAGE
  5
7C
330
17
100
AcDbEntity
  8
200_140_1_black_ДЕКА KUGOO M4 PRO JILONG_1_layer 1
 62
0
 92
140
310
8C00000001000000840000000600000005000000E25817B7D1E87640454772F98F5288400000000000000000C691A59A0ACF7D40454772F98F5288400000000000000000C691A59A0ACF7D40620EE415572389400000000000000000E25817B7D1E87640620EE415572389400000000000000000E25817B7D1E87640454772
310
F98F5288400000000000000000
100
AcDbRasterImage
 90
0
 10
-3044.6022416245223
 20
958.2804532396485
 30
0.0
 11
8.504491660745509e-19
 21
0.01388888888888889
 31
0.0
 12
-0.01388888888888889
 22
8.504491660745509e-19
 32
0.0
 13
7948.0
 23
1879.0
340
8F
 70
3
280
1
281
50
282
50
283
0
360
7D
 71
1
 91
2
 14
366.5512
 24
778.3203
 14
476.9468
 24
804.4258
290
0
  0
IMAGE
  5
7E
330
17
100
AcDbEntity
  8
200_140_1_black_ДЕКА KUGOO M4 PRO JILONG_1_layer 1
 62
0
 92
140
310
8C00000001000000840000000600000005000000B30C71AC8BE87640098A1F636E1A8A4000000000000000009745FF8FC4727B40098A1F636E1A8A4000000000000000009745FF8FC4727B40098A1F636E218B400000000000000000B30C71AC8BE87640098A1F636E218B400000000000000000B30C71AC8BE87640098A1F
310
636E1A8A400000000000000000
100
AcDbRasterImage
 90
0
 10
-3101.585841624523
 20
958.2633532396487
 30
0.0
 11
8.504491660745509e-19
 21
0.01388888888888889
 31
0.0
 12
-0.01388888888888889
 22
8.504491660745509e-19
 32
0.0
 13
5230.0
 23
2367.0
340
92
 70
3
280
1
281
50
282
50
283
0
360
7F
 71
1
 91
2
 14
366.5341
 24
835.3039
 14
439.1768
 24
868.1828
290
0
  0
SPLINE
  5
80
330
17
100
AcDbEntity
  8
200_140_1_black_ДЕКА KUGOO M4 PRO JILONG_1_layer 2
 62
242
370
158
100
AcDbSpline
 70
11
 71
3
 72
168
 73
164
 74
0
 42
1e-09
 40
0.0
 40
0.0
 40
0.0
 40
0.0
 40
0.0238095238095238
 40
0.0238095238095238
 40
0.0238095238095238
 40
0.0238095238095238
 40
0.0476190476190476
 40
0.0476190476190476
 40
0.0476190476190476
 40
0.0476190476190476
 40
0.0714285714285714
 40
0.0714285714285714
 40
0.0714285714285714
 40
0.0714285714285714
 40
0.0952380952380952
 40
0.0952380952380952
 40
0.0952380952380952
 40
0.0952380952380952
 40
0.119047619047619
 40
0.119047619047619
 40
0.119047619047619
 40
0.119047619047619
 40
0.1428571428571428
 40
0.1428571428571428
 40
0.1428571428571428
 40
0.1428571428571428
 40
0.1666666666666667
 40
0.1666666666666667
 40
0.1666666666666667
 40
0.1666666666666667
 40
0.1904761904761905
 40
0.1904761904761905
 40
0.1904761904761905
 40
0.1904761904761905
 40
0.2142857142857143
 40
0.2142857142857143
 40
0.2142857142857143
 40
0.2142857142857143
 40
0.2380952380952381
 40
0.2380952380952381
 40
0.2380952380952381
 40
0.2380952380952381
 40
0.2619047619047619
 40
0.2619047619047619
 40
0.2619047619047619
 40
0.2619047619047619
 40
0.2857142857142857
 40
0.2857142857142857
 40
0.2857142857142857
 40
0.2857142857142857
 40
0.3095238095238095
 40
0.3095238095238095
 40
0.3095238095238095
 40
0.3095238095238095
 40
0.3333333333333333
 40
0.3333333333333333
 40
0.3333333333333333
 40
0.3333333333333333
 40
0.3571428571428572
 40
0.3571428571428572
 40
0.3571428571428572
 40
0.3571428571428572
 40
0.3809523809523809
 40
0.3809523809523809
 40
0.3809523809523809
 40
0.3809523809523809
 40
0.4047619047619048
 40
0.4047619047619048
 40
0.4047619047619048
 40
0.4047619047619048
 40
0.4285714285714285
 40
0.4285714285714285
 40
0.4285714285714285
 40
0.4285714285714285
 40
0.4523809523809524
 40
0.4523809523809524
 40
0.4523809523809524
 40
0.4523809523809524
 40
0.4761904761904762
 40
0.4761904761904762
 40
0.4761904761904762
 40
0.4761904761904762
 40
0.5
 40
0.5
 40
0.5
 40
0.5
 40
0.5238095238095238
 40
0.5238095238095238
 40
0.5238095238095238
 40
0.5238095238095238
 40
0.5476190476190477
 40
0.5476190476190477
 40
0.5476190476190477
 40
0.5476190476190477
 40
0.5714285714285714
 40
0.5714285714285714
 40
0.5714285714285714
 40
0.5714285714285714
 40
0.5952380952380952
 40
0.5952380952380952
 40
0.5952380952380952
 40
0.5952380952380952
 40
0.6190476190476191
 40
0.6190476190476191
 40
0.6190476190476191
 40
0.6190476190476191
 40
0.6428571428571429
 40
0.6428571428571429
 40
0.6428571428571429
 40
0.6428571428571429
 40
0.6666666666666666
 40
0.6666666666666666
 40
0.6666666666666666
 40
0.6666666666666666
 40
0.6904761904761905
 40
0.6904761904761905
 40
0.6904761904761905
 40
0.6904761904761905
 40
0.7142857142857143
 40
0.7142857142857143
 40
0.7142857142857143
 40
0.7142857142857143
 40
0.7380952380952381
 40
0.7380952380952381
 40
0.7380952380952381
 40
0.7380952380952381
 40
0.7619047619047619
 40
0.7619047619047619
 40
0.7619047619047619
 40
0.7619047619047619
 40
0.7857142857142857
 40
0.7857142857142857
 40
0.7857142857142857
 40
0.7857142857142857
 40
0.8095238095238095
 40
0.8095238095238095
 40
0.8095238095238095
 40
0.8095238095238095
 40
0.8333333333333334
 40
0.8333333333333334
 40
0.8333333333333334
 40
0.8333333333333334
 40
0.8571428571428571
 40
0.8571428571428571
 40
0.8571428571428571
 40
0.8571428571428571
 40
0.8809523809523809
 40
0.8809523809523809
 40
0.8809523809523809
 40
0.8809523809523809
 40
0.9047619047619048
 40
0.9047619047619048
 40
0.9047619047619048
 40
0.9047619047619048
 40
0.9285714285714286
 40
0.9285714285714286
 40
0.9285714285714286
 40
0.9285714285714286
 40
0.9523809523809523
 40
0.9523809523809523
 40
0.9523809523809523
 40
0.9523809523809523
 40
1.0
 40
1.0
 40
1.0
 40
1.0
 10
-1893.5858416245223
 20
2886.1490532396488
 30
0.0
 10
-1893.5858416245223
 20
2886.1490532396488
 30
0.0
 10
-1893.4761416245224
 20
2868.8157532396485
 30
0.0
 10
-1893.4761416245224
 20
2868.8157532396485
 30
0.0
 10
-1893.4761416245224
 20
2868.8157532396485
 30
0.0
 10
-1893.4477416245222
 20
2864.3346532396486
 30
0.0
 10
-1889.8126416245223
 20
2860.7869532396485
 30
0.0
 10
-1885.3321416245221
 20
2860.8677532396487
 30
0.0
 10
-1885.3321416245221
 20
2860.8677532396487
 30
0.0
 10
-1879.4427416245221
 20
2860.9738532396486
 30
0.0
 10
-1849.0880416245222
 20
2860.9040532396484
 30
0.0
 10
-1845.8924416245222
 20
2862.172253239649
 30
0.0
 10
-1845.8924416245222
 20
2862.172253239649
 30
0.0
 10
-1840.402641624522
 20
2864.3508532396486
 30
0.0
 10
-1840.0936416245222
 20
2867.0232532396485
 30
0.0
 10
-1832.198041624522
 20
2867.8152532396484
 30
0.0
 10
-1832.198041624522
 20
2867.8152532396484
 30
0.0
 10
-1827.754041624522
 20
2868.2609532396486
 30
0.0
 10
-1820.0379416245219
 20
2868.2722532396488
 30
0.0
 10
-1819.9693416245223
 20
2862.2096532396486
 30
0.0
 10
-1819.9693416245223
 20
2862.2096532396486
 30
0.0
 10
-1819.872541624522
 20
2853.6597532396486
 30
0.0
 10
-1818.712441624522
 20
2809.5900532396486
 30
0.0
 10
-1820.948741624522
 20
2805.497553239649
 30
0.0
 10
-1820.948741624522
 20
2805.497553239649
 30
0.0
 10
-1823.587941624522
 20
2802.4165532396487
 30
0.0
 10
-1836.455941624522
 20
2803.956853239649
 30
0.0
 10
-1840.1627416245224
 20
2806.2373532396487
 30
0.0
 10
-1840.1627416245224
 20
2806.2373532396487
 30
0.0
 10
-1846.2669416245221
 20
2809.9927532396487
 30
0.0
 10
-1842.7621416245224
 20
2811.4519532396484
 30
0.0
 10
-1852.176541624522
 20
2811.276553239649
 30
0.0
 10
-1852.176541624522
 20
2811.276553239649
 30
0.0
 10
-1859.845341624522
 20
2811.1336532396485
 30
0.0
 10
-1868.5737416245224
 20
2812.1708532396487
 30
0.0
 10
-1876.242641624522
 20
2812.0360532396485
 30
0.0
 10
-1876.242641624522
 20
2812.0360532396485
 30
0.0
 10
-1878.8531416245219
 20
2811.9902532396486
 30
0.0
 10
-1880.1658416245223
 20
2810.912353239649
 30
0.0
 10
-1881.296541624522
 20
2809.6965532396484
 30
0.0
 10
-1881.296541624522
 20
2809.6965532396484
 30
0.0
 10
-1883.289341624522
 20
2807.5536532396486
 30
0.0
 10
-1881.5103416245224
 20
2803.1584532396487
 30
0.0
 10
-1883.039141624522
 20
2801.4112532396484
 30
0.0
 10
-1883.039141624522
 20
2801.4112532396484
 30
0.0
 10
-1884.225541624522
 20
2800.0552532396487
 30
0.0
 10
-1885.972141624522
 20
2799.6021532396485
 30
0.0
 10
-1886.9349416245223
 20
2799.4646532396487
 30
0.0
 10
-1886.9349416245223
 20
2799.4646532396487
 30
0.0
 10
-1889.017741624522
 20
2799.1672532396487
 30
0.0
 10
-1892.2879416245219
 20
2798.7069532396486
 30
0.0
 10
-1893.323941624522
 20
2797.6035532396486
 30
0.0
 10
-1893.323941624522
 20
2797.6035532396486
 30
0.0
 10
-1893.8609416245222
 20
2797.0315532396485
 30
0.0
 10
-1893.9424416245224
 20
2784.275653239649
 30
0.0
 10
-1893.8812416245223
 20
2782.8076532396485
 30
0.0
 10
-1893.8812416245223
 20
2782.8076532396485
 30
0.0
 10
-1893.6699416245224
 20
2777.7090532396487
 30
0.0
 10
-1894.9353416245222
 20
2774.446053239649
 30
0.0
 10
-1890.3574416245224
 20
2774.363553239649
 30
0.0
 10
-1890.3574416245224
 20
2774.363553239649
 30
0.0
 10
-1886.335041624522
 20
2774.2910532396486
 30
0.0
 10
-1879.247141624522
 20
2774.4571532396485
 30
0.0
 10
-1878.344941624522
 20
2774.465853239649
 30
0.0
 10
-1878.344941624522
 20
2774.465853239649
 30
0.0
 10
-1872.2114416245222
 20
2774.525453239649
 30
0.0
 10
-1865.1251416245223
 20
2774.7656532396486
 30
0.0
 10
-1864.3178416245223
 20
2773.6941532396486
 30
0.0
 10
-1864.3178416245223
 20
2773.6941532396486
 30
0.0
 10
-1862.2670416245223
 20
2770.972153239649
 30
0.0
 10
-1865.7441416245224
 20
2763.1325532396486
 30
0.0
 10
-1864.0608416245223
 20
2760.2124532396488
 30
0.0
 10
-1864.0608416245223
 20
2760.2124532396488
 30
0.0
 10
-1863.3209416245222
 20
2758.9291532396487
 30
0.0
 10
-1853.3088416245223
 20
2757.7054532396487
 30
0.0
 10
-1851.559541624522
 20
2757.3447532396485
 30
0.0
 10
-1851.559541624522
 20
2757.3447532396485
 30
0.0
 10
-1832.2840416245222
 20
2753.3693532396487
 30
0.0
 10
-1812.4686416245222
 20
2749.6029532396487
 30
0.0
 10
-1793.007241624522
 20
2746.7264532396484
 30
0.0
 10
-1793.007241624522
 20
2746.7264532396484
 30
0.0
 10
-1788.893241624522
 20
2746.1242532396486
 30
0.0
 10
-1762.775241624522
 20
2742.1529532396485
 30
0.0
 10
-1760.959241624522
 20
2742.063653239649
 30
0.0
 10
-1760.959241624522
 20
2742.063653239649
 30
0.0
 10
-1754.718141624522
 20
2741.7566532396486
 30
0.0
 10
-1740.6842416245222
 20
2740.8252532396486
 30
0.0
 10
-1735.335441624522
 20
2740.8121532396485
 30
0.0
 10
-1735.335441624522
 20
2740.8121532396485
 30
0.0
 10
-1735.335441624522
 20
2740.8121532396485
 30
0.0
 10
-1471.4565416245223
 20
2740.1296532396486
 30
0.0
 10
-1471.4565416245223
 20
2740.1296532396486
 30
0.0
 10
-1471.4565416245223
 20
2740.1296532396486
 30
0.0
 10
-1466.9118416245221
 20
2740.117853239649
 30
0.0
 10
-1465.507641624522
 20
2736.4572532396487
 30
0.0
 10
-1460.5767416245221
 20
2737.142353239649
 30
0.0
 10
-1460.5767416245221
 20
2737.142353239649
 30
0.0
 10
-1460.5767416245221
 20
2737.142353239649
 30
0.0
 10
-1329.414341624522
 20
2755.3649532396485
 30
0.0
 10
-1329.414341624522
 20
2755.3649532396485
 30
0.0
 10
-1329.414341624522
 20
2755.3649532396485
 30
0.0
 10
-1325.451441624522
 20
2755.9155532396485
 30
0.0
 10
-1322.5412416245222
 20
2759.2364532396487
 30
0.0
 10
-1322.515441624522
 20
2763.2373532396487
 30
0.0
 10
-1322.515441624522
 20
2763.2373532396487
 30
0.0
 10
-1322.515441624522
 20
2763.2373532396487
 30
0.0
 10
-1322.274541624522
 20
2800.6558532396484
 30
0.0
 10
-1322.274541624522
 20
2800.6558532396484
 30
0.0
 10
-1322.274541624522
 20
2800.6558532396484
 30
0.0
 10
-1322.2253416245221
 20
2808.297253239649
 30
0.0
 10
-1328.539841624522
 20
2805.3535532396486
 30
0.0
 10
-1328.471241624522
 20
2812.941353239649
 30
0.0
 10
-1328.471241624522
 20
2812.941353239649
 30
0.0
 10
-1328.418441624522
 20
2818.3093532396488
 30
0.0
 10
-1328.341441624522
 20
2855.7217532396485
 30
0.0
 10
-1327.753541624522
 20
2857.660553239649
 30
0.0
 10
-1327.753541624522
 20
2857.660553239649
 30
0.0
 10
-1326.863441624522
 20
2860.5965532396485
 30
0.0
 10
-1322.572641624522
 20
2862.1192532396485
 30
0.0
 10
-1321.906741624522
 20
2863.3618532396486
 30
0.0
 10
-1321.906741624522
 20
2863.3618532396486
 30
0.0
 10
-1320.880441624522
 20
2865.2769532396487
 30
0.0
 10
-1321.070641624522
 20
2904.6820532396487
 30
0.0
 10
-1321.0278416245221
 20
2910.2233532396485
 30
0.0
 10
-1321.0278416245221
 20
2910.2233532396485
 30
0.0
 10
-1320.9961416245221
 20
2914.3238532396485
 30
0.0
 10
-1324.023541624522
 20
2917.7533532396487
 30
0.0
 10
-1328.096241624522
 20
2918.2307532396485
 30
0.0
 10
-1328.096241624522
 20
2918.2307532396485
 30
0.0
 10
-1328.096241624522
 20
2918.2307532396485
 30
0.0
 10
-1460.489441624522
 20
2933.7489532396485
 30
0.0
 10
-1460.489441624522
 20
2933.7489532396485
 30
0.0
 10
-1460.489441624522
 20
2933.7489532396485
 30
0.0
 10
-1466.233841624522
 20
2934.4223532396486
 30
0.0
 10
-1466.6055416245222
 20
2929.9265532396485
 30
0.0
 10
-1471.9239416245223
 20
2929.8461532396486
 30
0.0
 10
-1471.9239416245223
 20
2929.8461532396486
 30
0.0
 10
-1471.9239416245223
 20
2929.8461532396486
 30
0.0
 10
-1735.0010416245223
 20
2925.8668532396487
 30
0.0
 10
-1735.0010416245223
 20
2925.8668532396487
 30
0.0
 10
-1735.0010416245223
 20
2925.8668532396487
 30
0.0
 10
-1741.9706416245222
 20
2925.7605532396487
 30
0.0
 10
-1801.330941624522
 20
2921.0788532396487
 30
0.0
 10
-1805.989041624522
 20
2920.3114532396485
 30
0.0
 10
-1805.989041624522
 20
2920.3114532396485
 30
0.0
 10
-1810.737841624522
 20
2919.5290532396484
 30
0.0
 10
-1842.7135416245223
 20
2914.4108532396485
 30
0.0
 10
-1844.5896416245218
 20
2913.9104532396486
 30
0.0
 10
-1844.5896416245218
 20
2913.9104532396486
 30
0.0
 10
-1860.613341624522
 20
2909.6365532396485
 30
0.0
 10
-1866.5768416245223
 20
2910.4774532396486
 30
0.0
 10
-1865.9316416245224
 20
2899.2968532396485
 30
0.0
 10
-1865.9316416245224
 20
2899.2968532396485
 30
0.0
 10
-1865.8151416245223
 20
2897.2784532396486
 30
0.0
 10
-1866.1487416245222
 20
2894.8249532396485
 30
0.0
 10
-1868.396641624522
 20
2894.2731532396488
 30
0.0
 10
-1868.396641624522
 20
2894.2731532396488
 30
0.0
 10
-1868.396641624522
 20
2894.2731532396488
 30
0.0
 10
-1885.620241624522
 20
2894.1995532396486
 30
0.0
 10
-1885.620241624522
 20
2894.1995532396486
 30
0.0
 10
-1885.620241624522
 20
2894.1995532396486
 30
0.0
 10
-1890.0711416245222
 20
2894.180553239649
 30
0.0
 10
-1893.614041624522
 20
2890.5999532396486
 30
0.0
 10
-1893.5858416245223
 20
2886.1490532396488
 30
0.0
  0
SPLINE
  5
81
330
17
100
AcDbEntity
  8
200_140_1_black_ДЕКА KUGOO M4 PRO JILONG_1_layer 3
 62
142
370
158
100
AcDbSpline
 70
24
 71
3
 72
8
 73
4
 74
0
 42
1e-09
 40
0.0
 40
0.0
 40
0.0
 40
0.0
 40
1.0
 40
1.0
 40
1.0
 40
1.0
 10
-1423.9497416245222
 20
2928.300853239649
 30
0.0
 10
-1423.9497416245222
 20
2928.300853239649
 30
0.0
 10
-1423.9497416245222
 20
2885.9674532396484
 30
0.0
 10
-1423.9497416245222
 20
2885.9674532396484
 30
0.0
  0
SPLINE
  5
82
330
17
100
AcDbEntity
  8
200_140_1_black_ДЕКА KUGOO M4 PRO JILONG_1_layer 3
 62
142
370
158
100
AcDbSpline
 70
24
 71
3
 72
8
 73
4
 74
0
 42
1e-09
 40
0.0
 40
0.0
 40
0.0
 40
0.0
 40
1.0
 40
1.0
 40
1.0
 40
1.0
 10
-1451.254741624522
 20
2931.0525532396487
 30
0.0
 10
-1451.254741624522
 20
2931.0525532396487
 30
0.0
 10
-1451.0430416245222
 20
2886.8141532396485
 30
0.0
 10
-1451.0430416245222
 20
2886.8141532396485
 30
0.0
  0
SPLINE
  5
83
330
17
100
AcDbEntity
  8
200_140_1_black_ДЕКА KUGOO M4 PRO JILONG_1_layer 3
 62
142
370
158
100
AcDbSpline
 70
24
 71
3
 72
8
 73
4
 74
0
 42
1e-09
 40
0.0
 40
0.0
 40
0.0
 40
0.0
 40
1.0
 40
1.0
 40
1.0
 40
1.0
 10
-1423.314741624522
 20
2743.9389532396485
 30
0.0
 10
-1423.314741624522
 20
2743.9389532396485
 30
0.0
 10
-1423.5264416245222
 20
2783.5206532396487
 30
0.0
 10
-1423.5264416245222
 20
2783.5206532396487
 30
0.0
  0
SPLINE
  5
84
330
17
100
AcDbEntity
  8
200_140_1_black_ДЕКА KUGOO M4 PRO JILONG_1_layer 3
 62
142
370
158
100
AcDbSpline
 70
24
 71
3
 72
8
 73
4
 74
0
 42
1e-09
 40
0.0
 40
0.0
 40
0.0
 40
0.0
 40
1.0
 40
1.0
 40
1.0
 40
1.0
 10
-1450.831441624522
 20
2739.7056532396487
 30
0.0
 10
-1450.831441624522
 20
2739.7056532396487
 30
0.0
 10
-1451.0431416245221
 20
2785.0023532396485
 30
0.0
 10
-1451.0431416245221
 20
2785.0023532396485
 30
0.0
  0
SPLINE
  5
85
330
17
100
AcDbEntity
  8
200_140_1_black_ДЕКА KUGOO M4 PRO JILONG_1_layer 3
 62
142
370
158
100
AcDbSpline
 70
24
 71
3
 72
8
 73
4
 74
0
 42
1e-09
 40
0.0
 40
0.0
 40
0.0
 40
0.0
 40
1.0
 40
1.0
 40
1.0
 40
1.0
 10
-1735.0010416245223
 20
2925.8668532396487
 30
0.0
 10
-1735.0010416245223
 20
2925.8668532396487
 30
0.0
 10
-1734.6768416245222
 20
2891.8944532396486
 30
0.0
 10
-1734.6768416245222
 20
2891.8944532396486
 30
0.0
  0
SPLINE
  5
86
330
17
100
AcDbEntity
  8
200_140_1_black_ДЕКА KUGOO M4 PRO JILONG_1_layer 3
 62
142
370
158
100
AcDbSpline
 70
24
 71
3
 72
8
 73
4
 74
0
 42
1e-09
 40
0.0
 40
0.0
 40
0.0
 40
0.0
 40
1.0
 40
1.0
 40
1.0
 40
1.0
 10
-1712.240141624522
 20
2924.279453239649
 30
0.0
 10
-1712.240141624522
 20
2924.279453239649
 30
0.0
 10
-1712.451841624522
 20
2891.4711532396486
 30
0.0
 10
-1712.451841624522
 20
2891.4711532396486
 30
0.0
  0
SPLINE
  5
87
330
17
100
AcDbEntity
  8
200_140_1_black_ДЕКА KUGOO M4 PRO JILONG_1_layer 3
 62
142
370
158
100
AcDbSpline
 70
24
 71
3
 72
8
 73
4
 74
0
 42
1e-09
 40
0.0
 40
0.0
 40
0.0
 40
0.0
 40
1.0
 40
1.0
 40
1.0
 40
1.0
 10
-1733.7243416245221
 20
2742.457753239649
 30
0.0
 10
-1733.7243416245221
 20
2742.457753239649
 30
0.0
 10
-1733.512641624522
 20
2773.466953239649
 30
0.0
 10
-1733.512641624522
 20
2773.466953239649
 30
0.0
  0
SPLINE
  5
88
330
17
100
AcDbEntity
  8
200_140_1_black_ДЕКА KUGOO M4 PRO JILONG_1_layer 3
 62
142
370
158
100
AcDbSpline
 70
24
 71
3
 72
8
 73
4
 74
0
 42
1e-09
 40
0.0
 40
0.0
 40
0.0
 40
0.0
 40
1.0
 40
1.0
 40
1.0
 40
1.0
 10
-1710.5468416245221
 20
2742.5635532396486
 30
0.0
 10
-1710.5468416245221
 20
2742.5635532396486
 30
0.0
 10
-1711.1818416245221
 20
2773.8902532396487
 30
0.0
 10
-1711.1818416245221
 20
2773.8902532396487
 30
0.0
  0
ENDSEC
  0
SECTION
  2
OBJECTS
  0
DICTIONARY
  5
A
330
0
100
AcDbDictionary
281
1
  3
ACAD_COLOR
350
B
  3
ACAD_GROUP
350
C
  3
ACAD_LAYOUT
350
D
  3
ACAD_MATERIAL
350
E
  3
ACAD_MLEADERSTYLE
350
F
  3
ACAD_MLINESTYLE
350
10
  3
ACAD_PLOTSETTINGS
350
11
  3
ACAD_PLOTSTYLENAME
350
12
  3
ACAD_SCALELIST
350
14
  3
ACAD_TABLESTYLE
350
15
  3
ACAD_VISUALSTYLE
350
16
  3
EZDXF_META
350
2D
  0
DICTIONARY
  5
B
330
A
100
AcDbDictionary
281
1
  0
DICTIONARY
  5
C
330
A
100
AcDbDictionary
281
1
  0
DICTIONARY
  5
D
330
A
100
AcDbDictionary
281
1
  3
Model
350
1A
  3
Layout1
350
1E
  0
DICTIONARY
  5
E
330
A
100
AcDbDictionary
281
1
  3
ByBlock
350
1F
  3
ByLayer
350
20
  3
Global
350
21
  0
DICTIONARY
  5
F
330
A
100
AcDbDictionary
281
1
  3
Standard
350
2C
  0
DICTIONARY
  5
10
330
A
100
AcDbDictionary
281
1
  3
Standard
350
22
  0
DICTIONARY
  5
11
330
A
100
AcDbDictionary
281
1
  0
ACDBDICTIONARYWDFLT
  5
12
330
A
100
AcDbDictionary
281
1
  3
Normal
350
13
100
AcDbDictionaryWithDefault
340
13
  0
ACDBPLACEHOLDER
  5
13
330
12
  0
DICTIONARY
  5
14
330
A
100
AcDbDictionary
281
1
  0
DICTIONARY
  5
15
330
A
100
AcDbDictionary
281
1
  0
DICTIONARY
  5
16
330
A
100
AcDbDictionary
281
1
  0
LAYOUT
  5
1A
330
D
100
AcDbPlotSettings
  1

  4
A3
  6

 40
7.5
 41
20.0
 42
7.5
 43
20.0
 44
420.0
 45
297.0
 46
0.0
 47
0.0
 48
0.0
 49
0.0
140
0.0
141
0.0
142
1.0
143
1.0
 70
1024
 72
1
 73
0
 74
5
  7

 75
16
 76
0
 77
2
 78
300
147
1.0
148
0.0
149
0.0
100
AcDbLayout
  1
Model
 70
1
 71
0
 10
0.0
 20
0.0
 11
420.0
 21
297.0
 12
0.0
 22
0.0
 32
0.0
 14
1e+20
 24
1e+20
 34
1e+20
 15
-1e+20
 25
-1e+20
 35
-1e+20
146
0.0
 13
0.0
 23
0.0
 33
0.0
 16
1.0
 26
0.0
 36
0.0
 17
0.0
 27
1.0
 37
0.0
 76
1
330
17
  0
LAYOUT
  5
1E
330
D
100
AcDbPlotSettings
  1

  4
A3
  6

 40
7.5
 41
20.0
 42
7.5
 43
20.0
 44
420.0
 45
297.0
 46
0.0
 47
0.0
 48
0.0
 49
0.0
140
0.0
141
0.0
142
1.0
143
1.0
 70
0
 72
1
 73
0
 74
5
  7

 75
16
 76
0
 77
2
 78
300
147
1.0
148
0.0
149
0.0
100
AcDbLayout
  1
Layout1
 70
1
 71
1
 10
0.0
 20
0.0
 11
420.0
 21
297.0
 12
0.0
 22
0.0
 32
0.0
 14
1e+20
 24
1e+20
 34
1e+20
 15
-1e+20
 25
-1e+20
 35
-1e+20
146
0.0
 13
0.0
 23
0.0
 33
0.0
 16
1.0
 26
0.0
 36
0.0
 17
0.0
 27
1.0
 37
0.0
 76
1
330
1B
  0
MATERIAL
  5
1F
102
{ACAD_REACTORS
330
E
102
}
330
E
100
AcDbMaterial
  1
ByBlock
  2

 70
0
 40
1.0
 71
1
 41
1.0
 91
-1023410177
 42
1.0
 72
1
  3

 73
1
 74
1
 75
1
 44
0.5
 73
0
 45
1.0
 46
1.0
 77
1
  4

 78
1
 79
1
170
1
 48
1.0
171
1
  6

172
1
173
1
174
1
140
1.0
141
1.0
175
1
  7

176
1
177
1
178
1
143
1.0
179
1
  8

270
1
271
1
272
1
145
1.0
146
1.0
273
1
  9

274
1
275
1
276
1
 42
1.0
 72
1
  3

 73
1
 74
1
 75
1
 94
63
  0
MATERIAL
  5
20
102
{ACAD_REACTORS
330
E
102
}
330
E
100
AcDbMaterial
  1
ByLayer
  2

 70
0
 40
1.0
 71
1
 41
1.0
 91
-1023410177
 42
1.0
 72
1
  3

 73
1
 74
1
 75
1
 44
0.5
 73
0
 45
1.0
 46
1.0
 77
1
  4

 78
1
 79
1
170
1
 48
1.0
171
1
  6

172
1
173
1
174
1
140
1.0
141
1.0
175
1
  7

176
1
177
1
178
1
143
1.0
179
1
  8

270
1
271
1
272
1
145
1.0
146
1.0
273
1
  9

274
1
275
1
276
1
 42
1.0
 72
1
  3

 73
1
 74
1
 75
1
 94
63
  0
MATERIAL
  5
21
102
{ACAD_REACTORS
330
E
102
}
330
E
100
AcDbMaterial
  1
Global
  2

 70
0
 40
1.0
 71
1
 41
1.0
 91
-1023410177
 42
1.0
 72
1
  3

 73
1
 74
1
 75
1
 44
0.5
 73
0
 45
1.0
 46
1.0
 77
1
  4

 78
1
 79
1
170
1
 48
1.0
171
1
  6

172
1
173
1
174
1
140
1.0
141
1.0
175
1
  7

176
1
177
1
178
1
143
1.0
179
1
  8

270
1
271
1
272
1
145
1.0
146
1.0
273
1
  9

274
1
275
1
276
1
 42
1.0
 72
1
  3

 73
1
 74
1
 75
1
 94
63
  0
MLINESTYLE
  5
22
102
{ACAD_REACTORS
330
10
102
}
330
10
100
AcDbMlineStyle
  2
Standard
 70
0
  3

 62
256
 51
90.0
 52
90.0
 71
2
 49
0.5
 62
256
  6
BYLAYER
 49
-0.5
 62
256
  6
BYLAYER
  0
MLEADERSTYLE
  5
2C
102
{ACAD_REACTORS
330
F
102
}
330
F
100
AcDbMLeaderStyle
179
2
170
2
171
1
172
0
 90
2
 40
0.0
 41
0.0
173
1
 91
-1056964608
 92
-2
290
1
 42
2.0
291
1
 43
8.0
  3
Standard
 44
4.0
300

342
29
174
1
175
1
176
0
178
1
 93
-1056964608
 45
4.0
292
0
297
0
 46
4.0
 94
-1056964608
 47
1.0
 49
1.0
140
1.0
294
1
141
0.0
177
0
142
1.0
295
0
296
0
143
3.75
271
0
272
9
273
9
  0
DICTIONARY
  5
2D
330
A
100
AcDbDictionary
280
1
281
1
  3
CREATED_BY_EZDXF
350
2E
  3
WRITTEN_BY_EZDXF
350
8B
  0
DICTIONARYVAR
  5
2E
330
2D
100
DictionaryVariables
280
0
  1
1.4.2 @ 2025-08-15T06:31:56.860926+00:00
  0
IMAGEDEF_REACTOR
  5
58
330
57
100
AcDbRasterImageDefReactor
 90
2
330
57
  0
IMAGEDEF_REACTOR
  5
67
330
66
100
AcDbRasterImageDefReactor
 90
2
330
66
  0
IMAGEDEF_REACTOR
  5
69
330
68
100
AcDbRasterImageDefReactor
 90
2
330
68
  0
IMAGEDEF_REACTOR
  5
6B
330
6A
100
AcDbRasterImageDefReactor
 90
2
330
6A
  0
IMAGEDEF_REACTOR
  5
6D
330
6C
100
AcDbRasterImageDefReactor
 90
2
330
6C
  0
IMAGEDEF_REACTOR
  5
6F
330
6E
100
AcDbRasterImageDefReactor
 90
2
330
6E
  0
IMAGEDEF_REACTOR
  5
72
330
71
100
AcDbRasterImageDefReactor
 90
2
330
71
  0
IMAGEDEF_REACTOR
  5
74
330
73
100
AcDbRasterImageDefReactor
 90
2
330
73
  0
IMAGEDEF_REACTOR
  5
77
330
76
100
AcDbRasterImageDefReactor
 90
2
330
76
  0
IMAGEDEF_REACTOR
  5
79
330
78
100
AcDbRasterImageDefReactor
 90
2
330
78
  0
IMAGEDEF_REACTOR
  5
7B
330
7A
100
AcDbRasterImageDefReactor
 90
2
330
7A
  0
IMAGEDEF_REACTOR
  5
7D
330
7C
100
AcDbRasterImageDefReactor
 90
2
330
7C
  0
IMAGEDEF_REACTOR
  5
7F
330
7E
100
AcDbRasterImageDefReactor
 90
2
330
7E
  0
DICTIONARYVAR
  5
8B
330
2D
100
DictionaryVariables
280
0
  1
1.4.2 @ 2025-08-15T06:31:56.866967+00:00
  0
ENDSEC
  0
EOF
