  0
SECTION
  2
HEADER
  9
$ACADVER
  1
AC1024
  9
$ACADMAINTVER
 70
6
  9
$DWGCODEPAGE
  3
ANSI_1252
  9
$LASTSAVEDBY
  1
ezdxf
  9
$INSBASE
 10
0.0
 20
0.0
 30
0.0
  9
$EXTMIN
 10
1e+20
 20
1e+20
 30
1e+20
  9
$EXTMAX
 10
-1e+20
 20
-1e+20
 30
-1e+20
  9
$LIMMIN
 10
0.0
 20
0.0
  9
$LIMMAX
 10
420.0
 20
297.0
  9
$ORTHOMODE
 70
0
  9
$REGENMODE
 70
1
  9
$FILLMODE
 70
1
  9
$QTEXTMODE
 70
0
  9
$MIRRTEXT
 70
1
  9
$LTSCALE
 40
1.0
  9
$ATTMODE
 70
1
  9
$TEXTSIZE
 40
2.5
  9
$TRACEWID
 40
1.0
  9
$TEXTSTYLE
  7
Standard
  9
$CLAYER
  8
0
  9
$CELTYPE
  6
ByLayer
  9
$CECOLOR
 62
256
  9
$CELTSCALE
 40
1.0
  9
$DISPSILH
 70
0
  9
$DIMSCALE
 40
1.0
  9
$DIMASZ
 40
2.5
  9
$DIMEXO
 40
0.625
  9
$DIMDLI
 40
3.75
  9
$DIMRND
 40
0.0
  9
$DIMDLE
 40
0.0
  9
$DIMEXE
 40
1.25
  9
$DIMTP
 40
0.0
  9
$DIMTM
 40
0.0
  9
$DIMTXT
 40
2.5
  9
$DIMCEN
 40
2.5
  9
$DIMTSZ
 40
0.0
  9
$DIMTOL
 70
0
  9
$DIMLIM
 70
0
  9
$DIMTIH
 70
0
  9
$DIMTOH
 70
0
  9
$DIMSE1
 70
0
  9
$DIMSE2
 70
0
  9
$DIMTAD
 70
1
  9
$DIMZIN
 70
8
  9
$DIMBLK
  1

  9
$DIMASO
 70
1
  9
$DIMSHO
 70
1
  9
$DIMPOST
  1

  9
$DIMAPOST
  1

  9
$DIMALT
 70
0
  9
$DIMALTD
 70
3
  9
$DIMALTF
 40
0.03937007874
  9
$DIMLFAC
 40
1.0
  9
$DIMTOFL
 70
1
  9
$DIMTVP
 40
0.0
  9
$DIMTIX
 70
0
  9
$DIMSOXD
 70
0
  9
$DIMSAH
 70
0
  9
$DIMBLK1
  1

  9
$DIMBLK2
  1

  9
$DIMSTYLE
  2
ISO-25
  9
$DIMCLRD
 70
0
  9
$DIMCLRE
 70
0
  9
$DIMCLRT
 70
0
  9
$DIMTFAC
 40
1.0
  9
$DIMGAP
 40
0.625
  9
$DIMJUST
 70
0
  9
$DIMSD1
 70
0
  9
$DIMSD2
 70
0
  9
$DIMTOLJ
 70
0
  9
$DIMTZIN
 70
8
  9
$DIMALTZ
 70
0
  9
$DIMALTTZ
 70
0
  9
$DIMUPT
 70
0
  9
$DIMDEC
 70
2
  9
$DIMTDEC
 70
2
  9
$DIMALTU
 70
2
  9
$DIMALTTD
 70
3
  9
$DIMTXSTY
  7
Standard
  9
$DIMAUNIT
 70
0
  9
$DIMADEC
 70
0
  9
$DIMALTRND
 40
0.0
  9
$DIMAZIN
 70
0
  9
$DIMDSEP
 70
44
  9
$DIMATFIT
 70
3
  9
$DIMFRAC
 70
0
  9
$DIMLDRBLK
  1

  9
$DIMLUNIT
 70
2
  9
$DIMLWD
 70
-2
  9
$DIMLWE
 70
-2
  9
$DIMTMOVE
 70
0
  9
$DIMFXL
 40
1.0
  9
$DIMFXLON
 70
0
  9
$DIMJOGANG
 40
0.785398163397
  9
$DIMTFILL
 70
0
  9
$DIMTFILLCLR
 70
0
  9
$DIMARCSYM
 70
0
  9
$DIMLTYPE
  6

  9
$DIMLTEX1
  6

  9
$DIMLTEX2
  6

  9
$DIMTXTDIRECTION
 70
0
  9
$LUNITS
 70
2
  9
$LUPREC
 70
4
  9
$SKETCHINC
 40
1.0
  9
$FILLETRAD
 40
10.0
  9
$AUNITS
 70
0
  9
$AUPREC
 70
2
  9
$MENU
  1
.
  9
$ELEVATION
 40
0.0
  9
$PELEVATION
 40
0.0
  9
$THICKNESS
 40
0.0
  9
$LIMCHECK
 70
0
  9
$CHAMFERA
 40
0.0
  9
$CHAMFERB
 40
0.0
  9
$CHAMFERC
 40
0.0
  9
$CHAMFERD
 40
0.0
  9
$SKPOLY
 70
0
  9
$TDCREATE
 40
2460887.692083333
  9
$TDUCREATE
 40
2458532.153996898
  9
$TDUPDATE
 40
2460887.692083333
  9
$TDUUPDATE
 40
2458532.1544311
  9
$TDINDWG
 40
0.0
  9
$TDUSRTIMER
 40
0.0
  9
$USRTIMER
 70
1
  9
$ANGBASE
 50
0.0
  9
$ANGDIR
 70
0
  9
$PDMODE
 70
0
  9
$PDSIZE
 40
0.0
  9
$PLINEWID
 40
0.0
  9
$SPLFRAME
 70
0
  9
$SPLINETYPE
 70
6
  9
$SPLINESEGS
 70
8
  9
$HANDSEED
  5
3D
  9
$SURFTAB1
 70
6
  9
$SURFTAB2
 70
6
  9
$SURFTYPE
 70
6
  9
$SURFU
 70
6
  9
$SURFV
 70
6
  9
$UCSBASE
  2

  9
$UCSNAME
  2

  9
$UCSORG
 10
0.0
 20
0.0
 30
0.0
  9
$UCSXDIR
 10
1.0
 20
0.0
 30
0.0
  9
$UCSYDIR
 10
0.0
 20
1.0
 30
0.0
  9
$UCSORTHOREF
  2

  9
$UCSORTHOVIEW
 70
0
  9
$UCSORGTOP
 10
0.0
 20
0.0
 30
0.0
  9
$UCSORGBOTTOM
 10
0.0
 20
0.0
 30
0.0
  9
$UCSORGLEFT
 10
0.0
 20
0.0
 30
0.0
  9
$UCSORGRIGHT
 10
0.0
 20
0.0
 30
0.0
  9
$UCSORGFRONT
 10
0.0
 20
0.0
 30
0.0
  9
$UCSORGBACK
 10
0.0
 20
0.0
 30
0.0
  9
$PUCSBASE
  2

  9
$PUCSNAME
  2

  9
$PUCSORG
 10
0.0
 20
0.0
 30
0.0
  9
$PUCSXDIR
 10
1.0
 20
0.0
 30
0.0
  9
$PUCSYDIR
 10
0.0
 20
1.0
 30
0.0
  9
$PUCSORTHOREF
  2

  9
$PUCSORTHOVIEW
 70
0
  9
$PUCSORGTOP
 10
0.0
 20
0.0
 30
0.0
  9
$PUCSORGBOTTOM
 10
0.0
 20
0.0
 30
0.0
  9
$PUCSORGLEFT
 10
0.0
 20
0.0
 30
0.0
  9
$PUCSORGRIGHT
 10
0.0
 20
0.0
 30
0.0
  9
$PUCSORGFRONT
 10
0.0
 20
0.0
 30
0.0
  9
$PUCSORGBACK
 10
0.0
 20
0.0
 30
0.0
  9
$USERI1
 70
0
  9
$USERI2
 70
0
  9
$USERI3
 70
0
  9
$USERI4
 70
0
  9
$USERI5
 70
0
  9
$USERR1
 40
0.0
  9
$USERR2
 40
0.0
  9
$USERR3
 40
0.0
  9
$USERR4
 40
0.0
  9
$USERR5
 40
0.0
  9
$WORLDVIEW
 70
1
  9
$SHADEDGE
 70
3
  9
$SHADEDIF
 70
70
  9
$TILEMODE
 70
1
  9
$MAXACTVP
 70
64
  9
$PINSBASE
 10
0.0
 20
0.0
 30
0.0
  9
$PLIMCHECK
 70
0
  9
$PEXTMIN
 10
1e+20
 20
1e+20
 30
1e+20
  9
$PEXTMAX
 10
-1e+20
 20
-1e+20
 30
-1e+20
  9
$PLIMMIN
 10
0.0
 20
0.0
  9
$PLIMMAX
 10
420.0
 20
297.0
  9
$UNITMODE
 70
0
  9
$VISRETAIN
 70
1
  9
$PLINEGEN
 70
0
  9
$PSLTSCALE
 70
1
  9
$TREEDEPTH
 70
3020
  9
$CMLSTYLE
  2
Standard
  9
$CMLJUST
 70
0
  9
$CMLSCALE
 40
20.0
  9
$PROXYGRAPHICS
 70
1
  9
$MEASUREMENT
 70
1
  9
$CELWEIGHT
370
-1
  9
$ENDCAPS
280
0
  9
$JOINSTYLE
280
0
  9
$LWDISPLAY
290
0
  9
$INSUNITS
 70
4
  9
$HYPERLINKBASE
  1

  9
$STYLESHEET
  1

  9
$XEDIT
290
1
  9
$CEPSNTYPE
380
0
  9
$PSTYLEMODE
290
1
  9
$FINGERPRINTGUID
  2
{E5A81C8A-5585-40DE-84E0-ED7888CF4EFD}
  9
$VERSIONGUID
  2
{D9C865B4-3DAD-4405-B2F6-82285710F376}
  9
$EXTNAMES
290
1
  9
$PSVPSCALE
 40
0.0
  9
$OLESTARTUP
290
0
  9
$SORTENTS
280
127
  9
$INDEXCTL
280
0
  9
$HIDETEXT
280
1
  9
$XCLIPFRAME
280
1
  9
$HALOGAP
280
0
  9
$OBSCOLOR
 70
257
  9
$OBSLTYPE
280
0
  9
$INTERSECTIONDISPLAY
280
0
  9
$INTERSECTIONCOLOR
 70
257
  9
$DIMASSOC
280
2
  9
$PROJECTNAME
  1

  9
$CAMERADISPLAY
290
0
  9
$LENSLENGTH
 40
50.0
  9
$CAMERAHEIGHT
 40
0.0
  9
$STEPSPERSEC
 40
24.0
  9
$STEPSIZE
 40
100.0
  9
$3DDWFPREC
 40
2.0
  9
$PSOLWIDTH
 40
0.005
  9
$PSOLHEIGHT
 40
0.08
  9
$LOFTANG1
 40
1.570796326795
  9
$LOFTANG2
 40
1.570796326795
  9
$LOFTMAG1
 40
0.0
  9
$LOFTMAG2
 40
0.0
  9
$LOFTPARAM
 70
7
  9
$LOFTNORMALS
280
1
  9
$LATITUDE
 40
37.795
  9
$LONGITUDE
 40
-122.394
  9
$NORTHDIRECTION
 40
0.0
  9
$TIMEZONE
 70
-8000
  9
$LIGHTGLYPHDISPLAY
280
1
  9
$TILEMODELIGHTSYNCH
280
1
  9
$CMATERIAL
347
20
  9
$SOLIDHIST
280
0
  9
$SHOWHIST
280
1
  9
$DWFFRAME
280
2
  9
$DGNFRAME
280
2
  9
$REALWORLDSCALE
290
1
  9
$INTERFERECOLOR
 62
256
  9
$CSHADOW
280
0
  9
$SHADOWPLANELOCATION
 40
0.0
  0
ENDSEC
  0
SECTION
  2
CLASSES
  0
CLASS
  1
ACDBDICTIONARYWDFLT
  2
AcDbDictionaryWithDefault
  3
ObjectDBX Classes
 90
0
 91
0
280
0
281
0
  0
CLASS
  1
SUN
  2
AcDbSun
  3
SCENEOE
 90
1153
 91
0
280
0
281
0
  0
CLASS
  1
VISUALSTYLE
  2
AcDbVisualStyle
  3
ObjectDBX Classes
 90
4095
 91
0
280
0
281
0
  0
CLASS
  1
MATERIAL
  2
AcDbMaterial
  3
ObjectDBX Classes
 90
1153
 91
0
280
0
281
0
  0
CLASS
  1
SCALE
  2
AcDbScale
  3
ObjectDBX Classes
 90
1153
 91
0
280
0
281
0
  0
CLASS
  1
TABLESTYLE
  2
AcDbTableStyle
  3
ObjectDBX Classes
 90
4095
 91
0
280
0
281
0
  0
CLASS
  1
MLEADERSTYLE
  2
AcDbMLeaderStyle
  3
ACDB_MLEADERSTYLE_CLASS
 90
4095
 91
0
280
0
281
0
  0
CLASS
  1
DICTIONARYVAR
  2
AcDbDictionaryVar
  3
ObjectDBX Classes
 90
0
 91
0
280
0
281
0
  0
CLASS
  1
CELLSTYLEMAP
  2
AcDbCellStyleMap
  3
ObjectDBX Classes
 90
1152
 91
0
280
0
281
0
  0
CLASS
  1
MENTALRAYRENDERSETTINGS
  2
AcDbMentalRayRenderSettings
  3
SCENEOE
 90
1024
 91
0
280
0
281
0
  0
CLASS
  1
ACDBDETAILVIEWSTYLE
  2
AcDbDetailViewStyle
  3
ObjectDBX Classes
 90
1025
 91
0
280
0
281
0
  0
CLASS
  1
ACDBSECTIONVIEWSTYLE
  2
AcDbSectionViewStyle
  3
ObjectDBX Classes
 90
1025
 91
0
280
0
281
0
  0
CLASS
  1
RASTERVARIABLES
  2
AcDbRasterVariables
  3
ISM
 90
0
 91
0
280
0
281
0
  0
CLASS
  1
IMAGE
  2
AcDbRasterImage
  3
ISM
 90
2175
 91
0
280
0
281
1
  0
CLASS
  1
IMAGEDEF
  2
AcDbRasterImageDef
  3
ISM
 90
0
 91
0
280
0
281
0
  0
CLASS
  1
IMAGEDEF_REACTOR
  2
AcDbRasterImageDefReactor
  3
ISM
 90
1
 91
0
280
0
281
0
  0
CLASS
  1
ACDBPLACEHOLDER
  2
AcDbPlaceHolder
  3
ObjectDBX Classes
 90
0
 91
0
280
0
281
0
  0
CLASS
  1
LAYOUT
  2
AcDbLayout
  3
ObjectDBX Classes
 90
0
 91
0
280
0
281
0
  0
ENDSEC
  0
SECTION
  2
TABLES
  0
TABLE
  2
VPORT
  5
8
330
0
100
AcDbSymbolTable
 70
1
  0
VPORT
  5
23
330
8
100
AcDbSymbolTableRecord
100
AcDbViewportTableRecord
  2
*Active
 70
0
 10
0.0
 20
0.0
 11
1.0
 21
1.0
 12
0.0
 22
0.0
 13
0.0
 23
0.0
 14
0.5
 24
0.5
 15
0.5
 25
0.5
 16
0.0
 26
0.0
 36
1.0
 17
0.0
 27
0.0
 37
0.0
 40
1000.0
 41
1.34
 42
50.0
 43
0.0
 44
0.0
 50
0.0
 51
0.0
 71
0
 72
1000
 73
1
 74
3
 75
0
 76
0
 77
0
 78
0
281
0
 65
0
146
0.0
  0
ENDTAB
  0
TABLE
  2
LTYPE
  5
2
330
0
100
AcDbSymbolTable
 70
3
  0
LTYPE
  5
24
330
2
100
AcDbSymbolTableRecord
100
AcDbLinetypeTableRecord
  2
ByBlock
 70
0
  3

 72
65
 73
0
 40
0.0
  0
LTYPE
  5
25
330
2
100
AcDbSymbolTableRecord
100
AcDbLinetypeTableRecord
  2
ByLayer
 70
0
  3

 72
65
 73
0
 40
0.0
  0
LTYPE
  5
26
330
2
100
AcDbSymbolTableRecord
100
AcDbLinetypeTableRecord
  2
Continuous
 70
0
  3

 72
65
 73
0
 40
0.0
  0
ENDTAB
  0
TABLE
  2
LAYER
  5
1
330
0
100
AcDbSymbolTable
 70
2
  0
LAYER
  5
27
330
1
100
AcDbSymbolTableRecord
100
AcDbLayerTableRecord
  2
0
 70
0
 62
7
  6
Continuous
370
-3
390
13
347
21
  0
LAYER
  5
28
330
1
100
AcDbSymbolTableRecord
100
AcDbLayerTableRecord
  2
Defpoints
 70
0
 62
7
  6
Continuous
290
0
370
-3
390
13
347
21
  0
ENDTAB
  0
TABLE
  2
STYLE
  5
5
330
0
100
AcDbSymbolTable
 70
1
  0
STYLE
  5
29
330
5
100
AcDbSymbolTableRecord
100
AcDbTextStyleTableRecord
  2
Standard
 70
0
 40
0.0
 41
1.0
 50
0.0
 71
0
 42
2.5
  3
txt
  4

  0
ENDTAB
  0
TABLE
  2
VIEW
  5
7
330
0
100
AcDbSymbolTable
 70
0
  0
ENDTAB
  0
TABLE
  2
UCS
  5
6
330
0
100
AcDbSymbolTable
 70
0
  0
ENDTAB
  0
TABLE
  2
APPID
  5
3
330
0
100
AcDbSymbolTable
 70
3
  0
APPID
  5
2A
330
3
100
AcDbSymbolTableRecord
100
AcDbRegAppTableRecord
  2
ACAD
 70
0
  0
APPID
  5
3A
330
3
100
AcDbSymbolTableRecord
100
AcDbRegAppTableRecord
  2
HATCHBACKGROUNDCOLOR
 70
0
  0
APPID
  5
3B
330
3
100
AcDbSymbolTableRecord
100
AcDbRegAppTableRecord
  2
EZDXF
 70
0
  0
ENDTAB
  0
TABLE
  2
DIMSTYLE
  5
4
330
0
100
AcDbSymbolTable
 70
1
100
AcDbDimStyleTable
  0
DIMSTYLE
105
2B
330
4
100
AcDbSymbolTableRecord
100
AcDbDimStyleTableRecord
  2
Standard
 70
0
 40
1.0
 41
2.5
 42
0.625
 43
3.75
 44
1.25
 45
0.0
 46
0.0
 47
0.0
 48
0.0
 49
2.5
140
2.5
141
2.5
142
0.0
143
0.03937007874
144
1.0
145
0.0
146
1.0
147
0.625
148
0.0
 69
0
 70
0
 71
0
 72
0
 73
0
 74
0
 75
0
 76
0
 77
1
 78
8
 79
3
170
0
171
3
172
1
173
0
174
0
175
0
176
0
177
0
178
0
179
2
271
2
272
2
273
2
274
3
275
0
276
0
277
2
278
44
279
0
280
0
281
0
282
0
283
0
284
8
285
0
286
0
288
0
289
3
290
0
371
-2
372
-2
  0
ENDTAB
  0
TABLE
  2
BLOCK_RECORD
  5
9
330
0
100
AcDbSymbolTable
 70
2
  0
BLOCK_RECORD
  5
17
330
9
100
AcDbSymbolTableRecord
100
AcDbBlockTableRecord
  2
*Model_Space
340
1A
 70
0
280
1
281
0
  0
BLOCK_RECORD
  5
1B
330
9
100
AcDbSymbolTableRecord
100
AcDbBlockTableRecord
  2
*Paper_Space
340
1E
 70
0
280
1
281
0
  0
ENDTAB
  0
ENDSEC
  0
SECTION
  2
BLOCKS
  0
BLOCK
  5
18
330
17
100
AcDbEntity
  8
0
100
AcDbBlockBegin
  2
*Model_Space
 70
0
 10
0.0
 20
0.0
 30
0.0
  3
*Model_Space
  1

  0
ENDBLK
  5
19
330
17
100
AcDbEntity
  8
0
100
AcDbBlockEnd
  0
BLOCK
  5
1C
330
1B
100
AcDbEntity
  8
0
100
AcDbBlockBegin
  2
*Paper_Space
 70
0
 10
0.0
 20
0.0
 30
0.0
  3
*Paper_Space
  1

  0
ENDBLK
  5
1D
330
1B
100
AcDbEntity
  8
0
100
AcDbBlockEnd
  0
ENDSEC
  0
SECTION
  2
ENTITIES
  0
LWPOLYLINE
  5
2F
330
17
100
AcDbEntity
  8
SHEET_BOUNDARY
 62
1
100
AcDbPolyline
 90
5
 70
0
 10
0.0
 20
0.0
 10
2000.0
 20
0.0
 10
2000.0
 20
2000.0
 10
0.0
 20
2000.0
 10
0.0
 20
0.0
  0
IMAGE
  5
30
330
17
100
AcDbEntity
  8
4._layer 1
 62
0
 92
140
310
8C000000010000008400000006000000050000000EBE30992AB286C0A0B437F8C24E7CC00000000000000000205D3AD07CD66040A0B437F8C24E7CC00000000000000000205D3AD07CD660402D6894F07FD1964000000000000000000EBE30992AB286C02D6894F07FD1964000000000000000000EBE30992AB286C0A0B437
310
F8C24E7CC00000000000000000
100
AcDbRasterImage
 90
0
 10
1651.6227999999999
 20
683.2991395928054
 30
0.0
 11
1.1531184901514936e-18
 21
0.0188318540652593
 31
0.0
 12
-0.0188318540652593
 22
1.1531184901514936e-18
 32
0.0
 13
45719.0
 23
101599.0
340
71
 70
3
280
1
281
50
282
50
283
0
360
31
 71
1
 91
2
 14
-726.2708
 24
-452.9226
 14
-91.27099999999996
 24
958.1881999999999
290
0
  0
SPLINE
  5
32
330
17
100
AcDbEntity
  8
4._layer 2
 62
142
100
AcDbSpline
 70
11
 71
3
 72
52
 73
48
 74
0
 42
1e-09
 40
0.0
 40
0.0
 40
0.0
 40
0.0
 40
0.0769230769230769
 40
0.0769230769230769
 40
0.0769230769230769
 40
0.0769230769230769
 40
0.1538461538461539
 40
0.1538461538461539
 40
0.1538461538461539
 40
0.1538461538461539
 40
0.2307692307692308
 40
0.2307692307692308
 40
0.2307692307692308
 40
0.2307692307692308
 40
0.3076923076923077
 40
0.3076923076923077
 40
0.3076923076923077
 40
0.3076923076923077
 40
0.3846153846153846
 40
0.3846153846153846
 40
0.3846153846153846
 40
0.3846153846153846
 40
0.4615384615384616
 40
0.4615384615384616
 40
0.4615384615384616
 40
0.4615384615384616
 40
0.5384615384615384
 40
0.5384615384615384
 40
0.5384615384615384
 40
0.5384615384615384
 40
0.6153846153846154
 40
0.6153846153846154
 40
0.6153846153846154
 40
0.6153846153846154
 40
0.6923076923076923
 40
0.6923076923076923
 40
0.6923076923076923
 40
0.6923076923076923
 40
0.7692307692307693
 40
0.7692307692307693
 40
0.7692307692307693
 40
0.7692307692307693
 40
0.8461538461538461
 40
0.8461538461538461
 40
0.8461538461538461
 40
0.8461538461538461
 40
1.0
 40
1.0
 40
1.0
 40
1.0
 10
940.1917
 20
824.0735395928056
 30
0.0
 10
940.1917
 20
824.0735395928056
 30
0.0
 10
933.2772
 20
824.0735395928056
 30
0.0
 10
933.2772
 20
824.0735395928056
 30
0.0
 10
933.2772
 20
824.0735395928056
 30
0.0
 10
933.2772
 20
824.0735395928056
 30
0.0
 10
933.2772
 20
817.1944395928056
 30
0.0
 10
933.2772
 20
817.1944395928056
 30
0.0
 10
933.2772
 20
817.1944395928056
 30
0.0
 10
933.2772
 20
817.1944395928056
 30
0.0
 10
930.3843999999999
 20
817.1944395928056
 30
0.0
 10
930.3843999999999
 20
817.1944395928056
 30
0.0
 10
930.3843999999999
 20
817.1944395928056
 30
0.0
 10
930.3843999999999
 20
817.1944395928056
 30
0.0
 10
930.3843999999999
 20
824.0735395928056
 30
0.0
 10
930.3843999999999
 20
824.0735395928056
 30
0.0
 10
930.3843999999999
 20
824.0735395928056
 30
0.0
 10
930.3843999999999
 20
824.0735395928056
 30
0.0
 10
923.5052999999999
 20
824.0735395928056
 30
0.0
 10
923.5052999999999
 20
824.0735395928056
 30
0.0
 10
923.5052999999999
 20
824.0735395928056
 30
0.0
 10
923.5052999999999
 20
824.0735395928056
 30
0.0
 10
923.5052999999999
 20
827.0016395928055
 30
0.0
 10
923.5052999999999
 20
827.0016395928055
 30
0.0
 10
923.5052999999999
 20
827.0016395928055
 30
0.0
 10
923.5052999999999
 20
827.0016395928055
 30
0.0
 10
930.3843999999999
 20
827.0016395928055
 30
0.0
 10
930.3843999999999
 20
827.0016395928055
 30
0.0
 10
930.3843999999999
 20
827.0016395928055
 30
0.0
 10
930.3843999999999
 20
827.0016395928055
 30
0.0
 10
930.3843999999999
 20
833.8808395928055
 30
0.0
 10
930.3843999999999
 20
833.8808395928055
 30
0.0
 10
930.3843999999999
 20
833.8808395928055
 30
0.0
 10
930.3843999999999
 20
833.8808395928055
 30
0.0
 10
933.2772
 20
833.8808395928055
 30
0.0
 10
933.2772
 20
833.8808395928055
 30
0.0
 10
933.2772
 20
833.8808395928055
 30
0.0
 10
933.2772
 20
833.8808395928055
 30
0.0
 10
933.2772
 20
827.0016395928055
 30
0.0
 10
933.2772
 20
827.0016395928055
 30
0.0
 10
933.2772
 20
827.0016395928055
 30
0.0
 10
933.2772
 20
827.0016395928055
 30
0.0
 10
940.1917
 20
827.0016395928055
 30
0.0
 10
940.1917
 20
827.0016395928055
 30
0.0
 10
940.1917
 20
827.0016395928055
 30
0.0
 10
940.1917
 20
827.0016395928055
 30
0.0
 10
940.1917
 20
824.0735395928056
 30
0.0
 10
940.1917
 20
824.0735395928056
 30
0.0
  0
SPLINE
  5
33
330
17
100
AcDbEntity
  8
4._layer 2
 62
142
370
158
100
AcDbSpline
 70
8
 71
3
 72
32
 73
28
 74
0
 42
1e-09
 40
0.0
 40
0.0
 40
0.0
 40
0.0
 40
0.125
 40
0.125
 40
0.125
 40
0.125
 40
0.25
 40
0.25
 40
0.25
 40
0.25
 40
0.375
 40
0.375
 40
0.375
 40
0.375
 40
0.5
 40
0.5
 40
0.5
 40
0.5
 40
0.625
 40
0.625
 40
0.625
 40
0.625
 40
0.75
 40
0.75
 40
0.75
 40
0.75
 40
1.0
 40
1.0
 40
1.0
 40
1.0
 10
652.7121999999999
 20
1406.7269395928056
 30
0.0
 10
662.1981000000001
 20
1406.9398395928056
 30
0.0
 10
671.684
 20
1407.1527395928056
 30
0.0
 10
681.1699000000001
 20
1407.3656395928056
 30
0.0
 10
681.1699000000001
 20
1407.3656395928056
 30
0.0
 10
691.155
 20
1407.5898395928054
 30
0.0
 10
701.1402
 20
1407.8139395928056
 30
0.0
 10
711.1252999999999
 20
1408.0380395928055
 30
0.0
 10
711.1252999999999
 20
1408.0380395928055
 30
0.0
 10
758.6158
 20
1409.0155395928055
 30
0.0
 10
803.0536999999999
 20
1407.0387395928055
 30
0.0
 10
850.4138
 20
1414.2777395928056
 30
0.0
 10
850.4138
 20
1414.2777395928056
 30
0.0
 10
878.6171999999999
 20
1418.5886395928055
 30
0.0
 10
904.8661999999999
 20
1424.0203395928054
 30
0.0
 10
933.5058
 20
1426.8660395928055
 30
0.0
 10
933.5058
 20
1426.8660395928055
 30
0.0
 10
949.4798
 20
1428.4532395928054
 30
0.0
 10
967.4527
 20
1430.1693395928055
 30
0.0
 10
983.3605
 20
1430.6998395928056
 30
0.0
 10
983.3605
 20
1430.6998395928056
 30
0.0
 10
990.3919000000001
 20
1430.9343395928056
 30
0.0
 10
999.9010000000001
 20
1430.2980395928055
 30
0.0
 10
1007.113
 20
1430.1050395928055
 30
0.0
 10
1007.113
 20
1430.1050395928055
 30
0.0
 10
1020.1523
 20
1429.7560395928056
 30
0.0
 10
1033.1914000000002
 20
1429.3997395928054
 30
0.0
 10
1046.2304
 20
1429.0395395928056
 30
0.0
  0
SPLINE
  5
34
330
17
100
AcDbEntity
  8
4._layer 2
 62
142
370
158
100
AcDbSpline
 70
8
 71
3
 72
28
 73
24
 74
0
 42
1e-09
 40
0.0
 40
0.0
 40
0.0
 40
0.0
 40
0.1428571428571428
 40
0.1428571428571428
 40
0.1428571428571428
 40
0.1428571428571428
 40
0.2857142857142857
 40
0.2857142857142857
 40
0.2857142857142857
 40
0.2857142857142857
 40
0.4285714285714285
 40
0.4285714285714285
 40
0.4285714285714285
 40
0.4285714285714285
 40
0.5714285714285714
 40
0.5714285714285714
 40
0.5714285714285714
 40
0.5714285714285714
 40
0.7142857142857143
 40
0.7142857142857143
 40
0.7142857142857143
 40
0.7142857142857143
 40
1.0
 40
1.0
 40
1.0
 40
1.0
 10
1032.7496999999998
 20
805.6861395928056
 30
0.0
 10
1033.8723
 20
875.1090395928054
 30
0.0
 10
1034.9948
 20
944.5319395928054
 30
0.0
 10
1036.1174
 20
1013.9548395928055
 30
0.0
 10
1036.1174
 20
1013.9548395928055
 30
0.0
 10
1036.6019000000001
 20
1043.9215395928054
 30
0.0
 10
1037.0865
 20
1073.8883395928056
 30
0.0
 10
1037.5711000000001
 20
1103.8550395928055
 30
0.0
 10
1037.5711000000001
 20
1103.8550395928055
 30
0.0
 10
1037.7245
 20
1113.3445395928056
 30
0.0
 10
1037.878
 20
1122.8339395928056
 30
0.0
 10
1038.0313999999998
 20
1132.3234395928055
 30
0.0
 10
1038.0313999999998
 20
1132.3234395928055
 30
0.0
 10
1038.1929
 20
1142.3123395928055
 30
0.0
 10
1038.3544
 20
1152.3012395928054
 30
0.0
 10
1038.516
 20
1162.2901395928054
 30
0.0
 10
1038.516
 20
1162.2901395928054
 30
0.0
 10
1039.8081
 20
1242.1977395928054
 30
0.0
 10
1040.9499
 20
1322.1312395928055
 30
0.0
 10
1042.3310000000001
 20
1402.0333395928055
 30
0.0
 10
1042.3310000000001
 20
1402.0333395928055
 30
0.0
 10
1042.4944
 20
1411.4838395928055
 30
0.0
 10
1043.0340999999999
 20
1412.7589395928055
 30
0.0
 10
1046.0095000000001
 20
1421.6057395928055
 30
0.0
  0
SPLINE
  5
35
330
17
100
AcDbEntity
  8
4._layer 3
 62
242
370
158
100
AcDbSpline
 70
11
 71
3
 72
152
 73
148
 74
0
 42
1e-09
 40
0.0
 40
0.0
 40
0.0
 40
0.0
 40
0.0263157894736842
 40
0.0263157894736842
 40
0.0263157894736842
 40
0.0263157894736842
 40
0.0526315789473684
 40
0.0526315789473684
 40
0.0526315789473684
 40
0.0526315789473684
 40
0.0789473684210526
 40
0.0789473684210526
 40
0.0789473684210526
 40
0.0789473684210526
 40
0.1052631578947368
 40
0.1052631578947368
 40
0.1052631578947368
 40
0.1052631578947368
 40
0.131578947368421
 40
0.131578947368421
 40
0.131578947368421
 40
0.131578947368421
 40
0.1578947368421053
 40
0.1578947368421053
 40
0.1578947368421053
 40
0.1578947368421053
 40
0.1842105263157895
 40
0.1842105263157895
 40
0.1842105263157895
 40
0.1842105263157895
 40
0.2105263157894737
 40
0.2105263157894737
 40
0.2105263157894737
 40
0.2105263157894737
 40
0.2368421052631579
 40
0.2368421052631579
 40
0.2368421052631579
 40
0.2368421052631579
 40
0.2631578947368421
 40
0.2631578947368421
 40
0.2631578947368421
 40
0.2631578947368421
 40
0.2894736842105263
 40
0.2894736842105263
 40
0.2894736842105263
 40
0.2894736842105263
 40
0.3157894736842105
 40
0.3157894736842105
 40
0.3157894736842105
 40
0.3157894736842105
 40
0.3421052631578947
 40
0.3421052631578947
 40
0.3421052631578947
 40
0.3421052631578947
 40
0.3684210526315789
 40
0.3684210526315789
 40
0.3684210526315789
 40
0.3684210526315789
 40
0.3947368421052632
 40
0.3947368421052632
 40
0.3947368421052632
 40
0.3947368421052632
 40
0.4210526315789473
 40
0.4210526315789473
 40
0.4210526315789473
 40
0.4210526315789473
 40
0.4473684210526316
 40
0.4473684210526316
 40
0.4473684210526316
 40
0.4473684210526316
 40
0.4736842105263158
 40
0.4736842105263158
 40
0.4736842105263158
 40
0.4736842105263158
 40
0.5
 40
0.5
 40
0.5
 40
0.5
 40
0.5263157894736842
 40
0.5263157894736842
 40
0.5263157894736842
 40
0.5263157894736842
 40
0.5526315789473685
 40
0.5526315789473685
 40
0.5526315789473685
 40
0.5526315789473685
 40
0.5789473684210527
 40
0.5789473684210527
 40
0.5789473684210527
 40
0.5789473684210527
 40
0.6052631578947368
 40
0.6052631578947368
 40
0.6052631578947368
 40
0.6052631578947368
 40
0.631578947368421
 40
0.631578947368421
 40
0.631578947368421
 40
0.631578947368421
 40
0.6578947368421053
 40
0.6578947368421053
 40
0.6578947368421053
 40
0.6578947368421053
 40
0.6842105263157895
 40
0.6842105263157895
 40
0.6842105263157895
 40
0.6842105263157895
 40
0.7105263157894737
 40
0.7105263157894737
 40
0.7105263157894737
 40
0.7105263157894737
 40
0.7368421052631579
 40
0.7368421052631579
 40
0.7368421052631579
 40
0.7368421052631579
 40
0.7631578947368421
 40
0.7631578947368421
 40
0.7631578947368421
 40
0.7631578947368421
 40
0.7894736842105263
 40
0.7894736842105263
 40
0.7894736842105263
 40
0.7894736842105263
 40
0.8157894736842105
 40
0.8157894736842105
 40
0.8157894736842105
 40
0.8157894736842105
 40
0.8421052631578947
 40
0.8421052631578947
 40
0.8421052631578947
 40
0.8421052631578947
 40
0.868421052631579
 40
0.868421052631579
 40
0.868421052631579
 40
0.868421052631579
 40
0.8947368421052632
 40
0.8947368421052632
 40
0.8947368421052632
 40
0.8947368421052632
 40
0.9210526315789473
 40
0.9210526315789473
 40
0.9210526315789473
 40
0.9210526315789473
 40
0.9473684210526315
 40
0.9473684210526315
 40
0.9473684210526315
 40
0.9473684210526315
 40
1.0
 40
1.0
 40
1.0
 40
1.0
 10
500.0
 20
1314.0815395928055
 30
0.0
 10
499.11879999999996
 20
1328.2988395928055
 30
0.0
 10
504.97540000000004
 20
1337.7298395928055
 30
0.0
 10
519.6491
 20
1341.7470395928055
 30
0.0
 10
519.6491
 20
1341.7470395928055
 30
0.0
 10
550.6766
 20
1347.4709395928055
 30
0.0
 10
579.006
 20
1332.0450395928056
 30
0.0
 10
609.6526000000001
 20
1329.0914395928055
 30
0.0
 10
609.6526000000001
 20
1329.0914395928055
 30
0.0
 10
618.6109000000001
 20
1328.1339395928055
 30
0.0
 10
642.3554000000001
 20
1324.1691395928055
 30
0.0
 10
645.7478000000001
 20
1335.6923395928054
 30
0.0
 10
645.7478000000001
 20
1335.6923395928054
 30
0.0
 10
650.1535000000001
 20
1350.6572395928056
 30
0.0
 10
650.9676
 20
1388.7614395928056
 30
0.0
 10
652.7121999999999
 20
1406.7269395928056
 30
0.0
 10
652.7121999999999
 20
1406.7269395928056
 30
0.0
 10
653.4367
 20
1413.0190395928055
 30
0.0
 10
654.9521
 20
1423.9177395928054
 30
0.0
 10
662.7745
 20
1424.8271395928055
 30
0.0
 10
662.7745
 20
1424.8271395928055
 30
0.0
 10
678.586
 20
1426.5263395928055
 30
0.0
 10
697.9139
 20
1425.6676395928055
 30
0.0
 10
714.2002
 20
1425.8639395928055
 30
0.0
 10
714.2002
 20
1425.8639395928055
 30
0.0
 10
766.8732
 20
1426.3541395928055
 30
0.0
 10
813.2324000000001
 20
1426.5194395928056
 30
0.0
 10
865.5899999999999
 20
1435.4564395928055
 30
0.0
 10
865.5899999999999
 20
1435.4564395928055
 30
0.0
 10
900.8107
 20
1441.4849395928054
 30
0.0
 10
929.6533
 20
1447.0311395928054
 30
0.0
 10
965.8255
 20
1447.1763395928056
 30
0.0
 10
965.8255
 20
1447.1763395928056
 30
0.0
 10
975.7904000000001
 20
1447.3207395928055
 30
0.0
 10
1042.615
 20
1449.2972395928055
 30
0.0
 10
1045.9126999999999
 20
1446.6560395928054
 30
0.0
 10
1045.9126999999999
 20
1446.6560395928054
 30
0.0
 10
1053.3461
 20
1440.7025395928056
 30
0.0
 10
1036.8219
 20
1417.3677395928055
 30
0.0
 10
1053.4094
 20
1416.3953395928054
 30
0.0
 10
1053.4094
 20
1416.3953395928054
 30
0.0
 10
1058.8119000000002
 20
1416.0786395928055
 30
0.0
 10
1064.8121999999998
 20
1417.7809395928055
 30
0.0
 10
1070.1390999999999
 20
1417.3721395928055
 30
0.0
 10
1070.1390999999999
 20
1417.3721395928055
 30
0.0
 10
1072.7265
 20
1417.1736395928056
 30
0.0
 10
1075.7244
 20
1417.4874395928055
 30
0.0
 10
1077.3264
 20
1414.8918395928056
 30
0.0
 10
1077.3264
 20
1414.8918395928056
 30
0.0
 10
1080.4398999999999
 20
1409.8469395928055
 30
0.0
 10
1085.673
 20
1398.6056395928056
 30
0.0
 10
1089.8947
 20
1390.1936395928055
 30
0.0
 10
1089.8947
 20
1390.1936395928055
 30
0.0
 10
1095.7231000000002
 20
1378.5802395928056
 30
0.0
 10
1101.7197999999999
 20
1369.8273395928054
 30
0.0
 10
1102.4
 20
1362.0390395928055
 30
0.0
 10
1102.4
 20
1362.0390395928055
 30
0.0
 10
1102.6825
 20
1358.8040395928056
 30
0.0
 10
1102.7268
 20
1351.4646395928055
 30
0.0
 10
1102.5008
 20
1346.4952395928055
 30
0.0
 10
1102.5008
 20
1346.4952395928055
 30
0.0
 10
1102.3184
 20
1342.4833395928056
 30
0.0
 10
1102.7448
 20
1337.8322395928055
 30
0.0
 10
1099.7725
 20
1336.7270395928056
 30
0.0
 10
1099.7725
 20
1336.7270395928056
 30
0.0
 10
1098.8719
 20
1336.3922395928055
 30
0.0
 10
1095.7314999999999
 20
1337.2090395928055
 30
0.0
 10
1094.5434
 20
1337.4160395928054
 30
0.0
 10
1094.5434
 20
1337.4160395928054
 30
0.0
 10
1086.0152
 20
1338.9990395928055
 30
0.0
 10
1048.6626
 20
1348.8507395928054
 30
0.0
 10
1044.9247
 20
1338.6895395928054
 30
0.0
 10
1044.9247
 20
1338.6895395928054
 30
0.0
 10
1043.0795
 20
1332.5022395928056
 30
0.0
 10
1040.6511
 20
1279.8831395928055
 30
0.0
 10
1042.4011
 20
1272.3610395928056
 30
0.0
 10
1042.4011
 20
1272.3610395928056
 30
0.0
 10
1043.4825
 20
1267.7126395928055
 30
0.0
 10
1043.8975
 20
1266.5623395928055
 30
0.0
 10
1046.8175
 20
1265.4306395928056
 30
0.0
 10
1046.8175
 20
1265.4306395928056
 30
0.0
 10
1058.1879
 20
1261.0241395928056
 30
0.0
 10
1086.2995
 20
1265.5224395928055
 30
0.0
 10
1092.2817
 20
1262.4295395928054
 30
0.0
 10
1092.2817
 20
1262.4295395928054
 30
0.0
 10
1097.7168000000001
 20
1259.6194395928055
 30
0.0
 10
1096.9171999999999
 20
1254.4440395928054
 30
0.0
 10
1096.7213000000002
 20
1241.4967395928054
 30
0.0
 10
1096.7213000000002
 20
1241.4967395928054
 30
0.0
 10
1094.5947999999999
 20
1100.9797395928056
 30
0.0
 10
1094.9209999999998
 20
956.8297395928055
 30
0.0
 10
1096.9893
 20
816.1138395928056
 30
0.0
 10
1096.9893
 20
816.1138395928056
 30
0.0
 10
1096.9893
 20
816.1138395928056
 30
0.0
 10
1097.0037
 20
815.1362395928054
 30
0.0
 10
1097.0037
 20
815.1362395928054
 30
0.0
 10
1097.0037
 20
815.1362395928054
 30
0.0
 10
1097.2945
 20
796.7672395928055
 30
0.0
 10
1090.0355
 20
799.2633395928056
 30
0.0
 10
1075.4863
 20
800.5624395928055
 30
0.0
 10
1075.4863
 20
800.5624395928055
 30
0.0
 10
1028.5651
 20
805.1385395928055
 30
0.0
 10
987.5317
 20
811.9017395928056
 30
0.0
 10
939.7941999999999
 20
809.9001395928055
 30
0.0
 10
939.7941999999999
 20
809.9001395928055
 30
0.0
 10
901.3434
 20
808.2976395928056
 30
0.0
 10
862.3968
 20
807.4649395928055
 30
0.0
 10
824.0477
 20
805.3524395928056
 30
0.0
 10
824.0477
 20
805.3524395928056
 30
0.0
 10
816.249
 20
804.9228395928055
 30
0.0
 10
801.4738
 20
801.7807395928055
 30
0.0
 10
799.6128
 20
812.5954395928055
 30
0.0
 10
799.6128
 20
812.5954395928055
 30
0.0
 10
797.751
 20
824.7429395928056
 30
0.0
 10
798.7113999999999
 20
841.9990395928055
 30
0.0
 10
798.3398
 20
854.9192395928055
 30
0.0
 10
798.3398
 20
854.9192395928055
 30
0.0
 10
798.1931
 20
867.4030395928055
 30
0.0
 10
800.0317
 20
888.4035395928056
 30
0.0
 10
788.5309
 20
896.3039395928056
 30
0.0
 10
788.5309
 20
896.3039395928056
 30
0.0
 10
776.8629
 20
903.5961395928056
 30
0.0
 10
753.93
 20
900.8258395928056
 30
0.0
 10
740.0649999999999
 20
900.4158395928055
 30
0.0
 10
740.0649999999999
 20
900.4158395928055
 30
0.0
 10
721.3791
 20
899.7910395928055
 30
0.0
 10
664.2916
 20
896.0619395928055
 30
0.0
 10
650.5396
 20
905.9530395928056
 30
0.0
 10
650.5396
 20
905.9530395928056
 30
0.0
 10
638.2666
 20
917.3937395928056
 30
0.0
 10
641.7876
 20
934.1043395928056
 30
0.0
 10
642.1585
 20
949.5186395928055
 30
0.0
 10
642.1585
 20
949.5186395928055
 30
0.0
 10
642.7008
 20
958.4633395928055
 30
0.0
 10
646.5479
 20
986.9540395928055
 30
0.0
 10
636.3799
 20
990.9815395928056
 30
0.0
 10
636.3799
 20
990.9815395928056
 30
0.0
 10
604.9366
 20
997.3882395928056
 30
0.0
 10
530.2908
 20
979.5908395928055
 30
0.0
 10
514.2127
 20
985.2606395928055
 30
0.0
 10
514.2127
 20
985.2606395928055
 30
0.0
 10
509.7971
 20
986.8178395928055
 30
0.0
 10
507.5594
 20
990.3207395928056
 30
0.0
 10
507.20140000000004
 20
994.4278395928055
 30
0.0
 10
507.20140000000004
 20
994.4278395928055
 30
0.0
 10
502.087
 20
1053.1034395928054
 30
0.0
 10
504.05319999999995
 20
1248.6876395928057
 30
0.0
 10
500.0
 20
1314.0815395928055
 30
0.0
  0
SPLINE
  5
36
330
17
100
AcDbEntity
  8
4._layer 3
 62
142
100
AcDbSpline
 70
11
 71
3
 72
20
 73
16
 74
0
 42
1e-09
 40
0.0
 40
0.0
 40
0.0
 40
0.0
 40
0.2
 40
0.2
 40
0.2
 40
0.2
 40
0.4
 40
0.4
 40
0.4
 40
0.4
 40
0.6
 40
0.6
 40
0.6
 40
0.6
 40
1.0
 40
1.0
 40
1.0
 40
1.0
 10
680.6253000000002
 20
1344.5576395928056
 30
0.0
 10
680.6253000000002
 20
1344.5576395928056
 30
0.0
 10
661.7515000000001
 20
1339.2780395928055
 30
0.0
 10
661.7515000000001
 20
1339.2780395928055
 30
0.0
 10
661.7515000000001
 20
1339.2780395928055
 30
0.0
 10
661.7515000000001
 20
1339.2780395928055
 30
0.0
 10
661.7515000000001
 20
1341.0719395928054
 30
0.0
 10
661.7515000000001
 20
1341.0719395928054
 30
0.0
 10
661.7515000000001
 20
1341.0719395928054
 30
0.0
 10
661.7515000000001
 20
1341.0719395928054
 30
0.0
 10
680.6253000000002
 20
1346.3514395928055
 30
0.0
 10
680.6253000000002
 20
1346.3514395928055
 30
0.0
 10
680.6253000000002
 20
1346.3514395928055
 30
0.0
 10
680.6253000000002
 20
1346.3514395928055
 30
0.0
 10
680.6253000000002
 20
1344.5576395928056
 30
0.0
 10
680.6253000000002
 20
1344.5576395928056
 30
0.0
  0
SPLINE
  5
37
330
17
100
AcDbEntity
  8
4._layer 3
 62
142
100
AcDbSpline
 70
11
 71
3
 72
20
 73
16
 74
0
 42
1e-09
 40
0.0
 40
0.0
 40
0.0
 40
0.0
 40
0.2
 40
0.2
 40
0.2
 40
0.2
 40
0.4
 40
0.4
 40
0.4
 40
0.4
 40
0.6
 40
0.6
 40
0.6
 40
0.6
 40
1.0
 40
1.0
 40
1.0
 40
1.0
 10
680.6253000000002
 20
1358.7300395928055
 30
0.0
 10
680.6253000000002
 20
1358.7300395928055
 30
0.0
 10
661.7515000000001
 20
1353.4504395928054
 30
0.0
 10
661.7515000000001
 20
1353.4504395928054
 30
0.0
 10
661.7515000000001
 20
1353.4504395928054
 30
0.0
 10
661.7515000000001
 20
1353.4504395928054
 30
0.0
 10
661.7515000000001
 20
1355.2443395928055
 30
0.0
 10
661.7515000000001
 20
1355.2443395928055
 30
0.0
 10
661.7515000000001
 20
1355.2443395928055
 30
0.0
 10
661.7515000000001
 20
1355.2443395928055
 30
0.0
 10
680.6253000000002
 20
1360.5238395928054
 30
0.0
 10
680.6253000000002
 20
1360.5238395928054
 30
0.0
 10
680.6253000000002
 20
1360.5238395928054
 30
0.0
 10
680.6253000000002
 20
1360.5238395928054
 30
0.0
 10
680.6253000000002
 20
1358.7300395928055
 30
0.0
 10
680.6253000000002
 20
1358.7300395928055
 30
0.0
  0
SPLINE
  5
38
330
17
100
AcDbEntity
  8
4._layer 3
 62
142
100
AcDbSpline
 70
11
 71
3
 72
20
 73
16
 74
0
 42
1e-09
 40
0.0
 40
0.0
 40
0.0
 40
0.0
 40
0.2
 40
0.2
 40
0.2
 40
0.2
 40
0.4
 40
0.4
 40
0.4
 40
0.4
 40
0.6
 40
0.6
 40
0.6
 40
0.6
 40
1.0
 40
1.0
 40
1.0
 40
1.0
 10
670.4833
 20
954.1341395928056
 30
0.0
 10
670.4833
 20
954.1341395928056
 30
0.0
 10
651.6095
 20
948.8545395928055
 30
0.0
 10
651.6095
 20
948.8545395928055
 30
0.0
 10
651.6095
 20
948.8545395928055
 30
0.0
 10
651.6095
 20
948.8545395928055
 30
0.0
 10
651.6095
 20
950.6484395928055
 30
0.0
 10
651.6095
 20
950.6484395928055
 30
0.0
 10
651.6095
 20
950.6484395928055
 30
0.0
 10
651.6095
 20
950.6484395928055
 30
0.0
 10
670.4833
 20
955.9279395928055
 30
0.0
 10
670.4833
 20
955.9279395928055
 30
0.0
 10
670.4833
 20
955.9279395928055
 30
0.0
 10
670.4833
 20
955.9279395928055
 30
0.0
 10
670.4833
 20
954.1341395928056
 30
0.0
 10
670.4833
 20
954.1341395928056
 30
0.0
  0
SPLINE
  5
39
330
17
100
AcDbEntity
  8
4._layer 3
 62
142
100
AcDbSpline
 70
11
 71
3
 72
20
 73
16
 74
0
 42
1e-09
 40
0.0
 40
0.0
 40
0.0
 40
0.0
 40
0.2
 40
0.2
 40
0.2
 40
0.2
 40
0.4
 40
0.4
 40
0.4
 40
0.4
 40
0.6
 40
0.6
 40
0.6
 40
0.6
 40
1.0
 40
1.0
 40
1.0
 40
1.0
 10
670.4833
 20
968.3065395928055
 30
0.0
 10
670.4833
 20
968.3065395928055
 30
0.0
 10
651.6095
 20
963.0269395928055
 30
0.0
 10
651.6095
 20
963.0269395928055
 30
0.0
 10
651.6095
 20
963.0269395928055
 30
0.0
 10
651.6095
 20
963.0269395928055
 30
0.0
 10
651.6095
 20
964.8208395928056
 30
0.0
 10
651.6095
 20
964.8208395928056
 30
0.0
 10
651.6095
 20
964.8208395928056
 30
0.0
 10
651.6095
 20
964.8208395928056
 30
0.0
 10
670.4833
 20
970.1003395928055
 30
0.0
 10
670.4833
 20
970.1003395928055
 30
0.0
 10
670.4833
 20
970.1003395928055
 30
0.0
 10
670.4833
 20
970.1003395928055
 30
0.0
 10
670.4833
 20
968.3065395928055
 30
0.0
 10
670.4833
 20
968.3065395928055
 30
0.0
  0
ENDSEC
  0
SECTION
  2
OBJECTS
  0
DICTIONARY
  5
A
330
0
100
AcDbDictionary
281
1
  3
ACAD_COLOR
350
B
  3
ACAD_GROUP
350
C
  3
ACAD_LAYOUT
350
D
  3
ACAD_MATERIAL
350
E
  3
ACAD_MLEADERSTYLE
350
F
  3
ACAD_MLINESTYLE
350
10
  3
ACAD_PLOTSETTINGS
350
11
  3
ACAD_PLOTSTYLENAME
350
12
  3
ACAD_SCALELIST
350
14
  3
ACAD_TABLESTYLE
350
15
  3
ACAD_VISUALSTYLE
350
16
  3
EZDXF_META
350
2D
  0
DICTIONARY
  5
B
330
A
100
AcDbDictionary
281
1
  0
DICTIONARY
  5
C
330
A
100
AcDbDictionary
281
1
  0
DICTIONARY
  5
D
330
A
100
AcDbDictionary
281
1
  3
Model
350
1A
  3
Layout1
350
1E
  0
DICTIONARY
  5
E
330
A
100
AcDbDictionary
281
1
  3
ByBlock
350
1F
  3
ByLayer
350
20
  3
Global
350
21
  0
DICTIONARY
  5
F
330
A
100
AcDbDictionary
281
1
  3
Standard
350
2C
  0
DICTIONARY
  5
10
330
A
100
AcDbDictionary
281
1
  3
Standard
350
22
  0
DICTIONARY
  5
11
330
A
100
AcDbDictionary
281
1
  0
ACDBDICTIONARYWDFLT
  5
12
330
A
100
AcDbDictionary
281
1
  3
Normal
350
13
100
AcDbDictionaryWithDefault
340
13
  0
ACDBPLACEHOLDER
  5
13
330
12
  0
DICTIONARY
  5
14
330
A
100
AcDbDictionary
281
1
  0
DICTIONARY
  5
15
330
A
100
AcDbDictionary
281
1
  0
DICTIONARY
  5
16
330
A
100
AcDbDictionary
281
1
  0
LAYOUT
  5
1A
330
D
100
AcDbPlotSettings
  1

  4
A3
  6

 40
7.5
 41
20.0
 42
7.5
 43
20.0
 44
420.0
 45
297.0
 46
0.0
 47
0.0
 48
0.0
 49
0.0
140
0.0
141
0.0
142
1.0
143
1.0
 70
1024
 72
1
 73
0
 74
5
  7

 75
16
 76
0
 77
2
 78
300
147
1.0
148
0.0
149
0.0
100
AcDbLayout
  1
Model
 70
1
 71
0
 10
0.0
 20
0.0
 11
420.0
 21
297.0
 12
0.0
 22
0.0
 32
0.0
 14
1e+20
 24
1e+20
 34
1e+20
 15
-1e+20
 25
-1e+20
 35
-1e+20
146
0.0
 13
0.0
 23
0.0
 33
0.0
 16
1.0
 26
0.0
 36
0.0
 17
0.0
 27
1.0
 37
0.0
 76
1
330
17
  0
LAYOUT
  5
1E
330
D
100
AcDbPlotSettings
  1

  4
A3
  6

 40
7.5
 41
20.0
 42
7.5
 43
20.0
 44
420.0
 45
297.0
 46
0.0
 47
0.0
 48
0.0
 49
0.0
140
0.0
141
0.0
142
1.0
143
1.0
 70
0
 72
1
 73
0
 74
5
  7

 75
16
 76
0
 77
2
 78
300
147
1.0
148
0.0
149
0.0
100
AcDbLayout
  1
Layout1
 70
1
 71
1
 10
0.0
 20
0.0
 11
420.0
 21
297.0
 12
0.0
 22
0.0
 32
0.0
 14
1e+20
 24
1e+20
 34
1e+20
 15
-1e+20
 25
-1e+20
 35
-1e+20
146
0.0
 13
0.0
 23
0.0
 33
0.0
 16
1.0
 26
0.0
 36
0.0
 17
0.0
 27
1.0
 37
0.0
 76
1
330
1B
  0
MATERIAL
  5
1F
102
{ACAD_REACTORS
330
E
102
}
330
E
100
AcDbMaterial
  1
ByBlock
  2

 70
0
 40
1.0
 71
1
 41
1.0
 91
-1023410177
 42
1.0
 72
1
  3

 73
1
 74
1
 75
1
 44
0.5
 73
0
 45
1.0
 46
1.0
 77
1
  4

 78
1
 79
1
170
1
 48
1.0
171
1
  6

172
1
173
1
174
1
140
1.0
141
1.0
175
1
  7

176
1
177
1
178
1
143
1.0
179
1
  8

270
1
271
1
272
1
145
1.0
146
1.0
273
1
  9

274
1
275
1
276
1
 42
1.0
 72
1
  3

 73
1
 74
1
 75
1
 94
63
  0
MATERIAL
  5
20
102
{ACAD_REACTORS
330
E
102
}
330
E
100
AcDbMaterial
  1
ByLayer
  2

 70
0
 40
1.0
 71
1
 41
1.0
 91
-1023410177
 42
1.0
 72
1
  3

 73
1
 74
1
 75
1
 44
0.5
 73
0
 45
1.0
 46
1.0
 77
1
  4

 78
1
 79
1
170
1
 48
1.0
171
1
  6

172
1
173
1
174
1
140
1.0
141
1.0
175
1
  7

176
1
177
1
178
1
143
1.0
179
1
  8

270
1
271
1
272
1
145
1.0
146
1.0
273
1
  9

274
1
275
1
276
1
 42
1.0
 72
1
  3

 73
1
 74
1
 75
1
 94
63
  0
MATERIAL
  5
21
102
{ACAD_REACTORS
330
E
102
}
330
E
100
AcDbMaterial
  1
Global
  2

 70
0
 40
1.0
 71
1
 41
1.0
 91
-1023410177
 42
1.0
 72
1
  3

 73
1
 74
1
 75
1
 44
0.5
 73
0
 45
1.0
 46
1.0
 77
1
  4

 78
1
 79
1
170
1
 48
1.0
171
1
  6

172
1
173
1
174
1
140
1.0
141
1.0
175
1
  7

176
1
177
1
178
1
143
1.0
179
1
  8

270
1
271
1
272
1
145
1.0
146
1.0
273
1
  9

274
1
275
1
276
1
 42
1.0
 72
1
  3

 73
1
 74
1
 75
1
 94
63
  0
MLINESTYLE
  5
22
102
{ACAD_REACTORS
330
10
102
}
330
10
100
AcDbMlineStyle
  2
Standard
 70
0
  3

 62
256
 51
90.0
 52
90.0
 71
2
 49
0.5
 62
256
  6
BYLAYER
 49
-0.5
 62
256
  6
BYLAYER
  0
MLEADERSTYLE
  5
2C
102
{ACAD_REACTORS
330
F
102
}
330
F
100
AcDbMLeaderStyle
179
2
170
2
171
1
172
0
 90
2
 40
0.0
 41
0.0
173
1
 91
-1056964608
 92
-2
290
1
 42
2.0
291
1
 43
8.0
  3
Standard
 44
4.0
300

342
29
174
1
175
1
176
0
178
1
 93
-1056964608
 45
4.0
292
0
297
0
 46
4.0
 94
-1056964608
 47
1.0
 49
1.0
140
1.0
294
1
141
0.0
177
0
142
1.0
295
0
296
0
143
3.75
271
0
272
9
273
9
  0
DICTIONARY
  5
2D
330
A
100
AcDbDictionary
280
1
281
1
  3
CREATED_BY_EZDXF
350
2E
  3
WRITTEN_BY_EZDXF
350
3C
  0
DICTIONARYVAR
  5
2E
330
2D
100
DictionaryVariables
280
0
  1
1.4.2 @ 2025-07-30T13:36:36.615198+00:00
  0
IMAGEDEF_REACTOR
  5
31
330
30
100
AcDbRasterImageDefReactor
 90
2
330
30
  0
DICTIONARYVAR
  5
3C
330
2D
100
DictionaryVariables
280
0
  1
1.4.2 @ 2025-07-30T13:36:36.618318+00:00
  0
ENDSEC
  0
EOF
