  0
SECTION
  2
HEADER
  9
$ACADVER
  1
AC1024
  9
$ACADMAINTVER
 70
6
  9
$DWGCODEPAGE
  3
ANSI_1252
  9
$LASTSAVEDBY
  1
ezdxf
  9
$INSBASE
 10
0.0
 20
0.0
 30
0.0
  9
$EXTMIN
 10
1e+20
 20
1e+20
 30
1e+20
  9
$EXTMAX
 10
-1e+20
 20
-1e+20
 30
-1e+20
  9
$LIMMIN
 10
0.0
 20
0.0
  9
$LIMMAX
 10
420.0
 20
297.0
  9
$ORTHOMODE
 70
0
  9
$REGENMODE
 70
1
  9
$FILLMODE
 70
1
  9
$QTEXTMODE
 70
0
  9
$MIRRTEXT
 70
1
  9
$LTSCALE
 40
1.0
  9
$ATTMODE
 70
1
  9
$TEXTSIZE
 40
2.5
  9
$TRACEWID
 40
1.0
  9
$TEXTSTYLE
  7
Standard
  9
$CLAYER
  8
0
  9
$CELTYPE
  6
ByLayer
  9
$CECOLOR
 62
256
  9
$CELTSCALE
 40
1.0
  9
$DISPSILH
 70
0
  9
$DIMSCALE
 40
1.0
  9
$DIMASZ
 40
2.5
  9
$DIMEXO
 40
0.625
  9
$DIMDLI
 40
3.75
  9
$DIMRND
 40
0.0
  9
$DIMDLE
 40
0.0
  9
$DIMEXE
 40
1.25
  9
$DIMTP
 40
0.0
  9
$DIMTM
 40
0.0
  9
$DIMTXT
 40
2.5
  9
$DIMCEN
 40
2.5
  9
$DIMTSZ
 40
0.0
  9
$DIMTOL
 70
0
  9
$DIMLIM
 70
0
  9
$DIMTIH
 70
0
  9
$DIMTOH
 70
0
  9
$DIMSE1
 70
0
  9
$DIMSE2
 70
0
  9
$DIMTAD
 70
1
  9
$DIMZIN
 70
8
  9
$DIMBLK
  1

  9
$DIMASO
 70
1
  9
$DIMSHO
 70
1
  9
$DIMPOST
  1

  9
$DIMAPOST
  1

  9
$DIMALT
 70
0
  9
$DIMALTD
 70
3
  9
$DIMALTF
 40
0.03937007874
  9
$DIMLFAC
 40
1.0
  9
$DIMTOFL
 70
1
  9
$DIMTVP
 40
0.0
  9
$DIMTIX
 70
0
  9
$DIMSOXD
 70
0
  9
$DIMSAH
 70
0
  9
$DIMBLK1
  1

  9
$DIMBLK2
  1

  9
$DIMSTYLE
  2
ISO-25
  9
$DIMCLRD
 70
0
  9
$DIMCLRE
 70
0
  9
$DIMCLRT
 70
0
  9
$DIMTFAC
 40
1.0
  9
$DIMGAP
 40
0.625
  9
$DIMJUST
 70
0
  9
$DIMSD1
 70
0
  9
$DIMSD2
 70
0
  9
$DIMTOLJ
 70
0
  9
$DIMTZIN
 70
8
  9
$DIMALTZ
 70
0
  9
$DIMALTTZ
 70
0
  9
$DIMUPT
 70
0
  9
$DIMDEC
 70
2
  9
$DIMTDEC
 70
2
  9
$DIMALTU
 70
2
  9
$DIMALTTD
 70
3
  9
$DIMTXSTY
  7
Standard
  9
$DIMAUNIT
 70
0
  9
$DIMADEC
 70
0
  9
$DIMALTRND
 40
0.0
  9
$DIMAZIN
 70
0
  9
$DIMDSEP
 70
44
  9
$DIMATFIT
 70
3
  9
$DIMFRAC
 70
0
  9
$DIMLDRBLK
  1

  9
$DIMLUNIT
 70
2
  9
$DIMLWD
 70
-2
  9
$DIMLWE
 70
-2
  9
$DIMTMOVE
 70
0
  9
$DIMFXL
 40
1.0
  9
$DIMFXLON
 70
0
  9
$DIMJOGANG
 40
0.785398163397
  9
$DIMTFILL
 70
0
  9
$DIMTFILLCLR
 70
0
  9
$DIMARCSYM
 70
0
  9
$DIMLTYPE
  6

  9
$DIMLTEX1
  6

  9
$DIMLTEX2
  6

  9
$DIMTXTDIRECTION
 70
0
  9
$LUNITS
 70
2
  9
$LUPREC
 70
4
  9
$SKETCHINC
 40
1.0
  9
$FILLETRAD
 40
10.0
  9
$AUNITS
 70
0
  9
$AUPREC
 70
2
  9
$MENU
  1
.
  9
$ELEVATION
 40
0.0
  9
$PELEVATION
 40
0.0
  9
$THICKNESS
 40
0.0
  9
$LIMCHECK
 70
0
  9
$CHAMFERA
 40
0.0
  9
$CHAMFERB
 40
0.0
  9
$CHAMFERC
 40
0.0
  9
$CHAMFERD
 40
0.0
  9
$SKPOLY
 70
0
  9
$TDCREATE
 40
2460903.5991666666
  9
$TDUCREATE
 40
2458532.153996898
  9
$TDUPDATE
 40
2460903.5991666666
  9
$TDUUPDATE
 40
2458532.1544311
  9
$TDINDWG
 40
0.0
  9
$TDUSRTIMER
 40
0.0
  9
$USRTIMER
 70
1
  9
$ANGBASE
 50
0.0
  9
$ANGDIR
 70
0
  9
$PDMODE
 70
0
  9
$PDSIZE
 40
0.0
  9
$PLINEWID
 40
0.0
  9
$SPLFRAME
 70
0
  9
$SPLINETYPE
 70
6
  9
$SPLINESEGS
 70
8
  9
$HANDSEED
  5
6E
  9
$SURFTAB1
 70
6
  9
$SURFTAB2
 70
6
  9
$SURFTYPE
 70
6
  9
$SURFU
 70
6
  9
$SURFV
 70
6
  9
$UCSBASE
  2

  9
$UCSNAME
  2

  9
$UCSORG
 10
0.0
 20
0.0
 30
0.0
  9
$UCSXDIR
 10
1.0
 20
0.0
 30
0.0
  9
$UCSYDIR
 10
0.0
 20
1.0
 30
0.0
  9
$UCSORTHOREF
  2

  9
$UCSORTHOVIEW
 70
0
  9
$UCSORGTOP
 10
0.0
 20
0.0
 30
0.0
  9
$UCSORGBOTTOM
 10
0.0
 20
0.0
 30
0.0
  9
$UCSORGLEFT
 10
0.0
 20
0.0
 30
0.0
  9
$UCSORGRIGHT
 10
0.0
 20
0.0
 30
0.0
  9
$UCSORGFRONT
 10
0.0
 20
0.0
 30
0.0
  9
$UCSORGBACK
 10
0.0
 20
0.0
 30
0.0
  9
$PUCSBASE
  2

  9
$PUCSNAME
  2

  9
$PUCSORG
 10
0.0
 20
0.0
 30
0.0
  9
$PUCSXDIR
 10
1.0
 20
0.0
 30
0.0
  9
$PUCSYDIR
 10
0.0
 20
1.0
 30
0.0
  9
$PUCSORTHOREF
  2

  9
$PUCSORTHOVIEW
 70
0
  9
$PUCSORGTOP
 10
0.0
 20
0.0
 30
0.0
  9
$PUCSORGBOTTOM
 10
0.0
 20
0.0
 30
0.0
  9
$PUCSORGLEFT
 10
0.0
 20
0.0
 30
0.0
  9
$PUCSORGRIGHT
 10
0.0
 20
0.0
 30
0.0
  9
$PUCSORGFRONT
 10
0.0
 20
0.0
 30
0.0
  9
$PUCSORGBACK
 10
0.0
 20
0.0
 30
0.0
  9
$USERI1
 70
0
  9
$USERI2
 70
0
  9
$USERI3
 70
0
  9
$USERI4
 70
0
  9
$USERI5
 70
0
  9
$USERR1
 40
0.0
  9
$USERR2
 40
0.0
  9
$USERR3
 40
0.0
  9
$USERR4
 40
0.0
  9
$USERR5
 40
0.0
  9
$WORLDVIEW
 70
1
  9
$SHADEDGE
 70
3
  9
$SHADEDIF
 70
70
  9
$TILEMODE
 70
1
  9
$MAXACTVP
 70
64
  9
$PINSBASE
 10
0.0
 20
0.0
 30
0.0
  9
$PLIMCHECK
 70
0
  9
$PEXTMIN
 10
1e+20
 20
1e+20
 30
1e+20
  9
$PEXTMAX
 10
-1e+20
 20
-1e+20
 30
-1e+20
  9
$PLIMMIN
 10
0.0
 20
0.0
  9
$PLIMMAX
 10
420.0
 20
297.0
  9
$UNITMODE
 70
0
  9
$VISRETAIN
 70
1
  9
$PLINEGEN
 70
0
  9
$PSLTSCALE
 70
1
  9
$TREEDEPTH
 70
3020
  9
$CMLSTYLE
  2
Standard
  9
$CMLJUST
 70
0
  9
$CMLSCALE
 40
20.0
  9
$PROXYGRAPHICS
 70
1
  9
$MEASUREMENT
 70
1
  9
$CELWEIGHT
370
-1
  9
$ENDCAPS
280
0
  9
$JOINSTYLE
280
0
  9
$LWDISPLAY
290
0
  9
$INSUNITS
 70
4
  9
$HYPERLINKBASE
  1

  9
$STYLESHEET
  1

  9
$XEDIT
290
1
  9
$CEPSNTYPE
380
0
  9
$PSTYLEMODE
290
1
  9
$FINGERPRINTGUID
  2
{347B5B60-0F2D-4290-83D6-597273529902}
  9
$VERSIONGUID
  2
{F189F457-C9D6-4796-998D-D63B3A833F93}
  9
$EXTNAMES
290
1
  9
$PSVPSCALE
 40
0.0
  9
$OLESTARTUP
290
0
  9
$SORTENTS
280
127
  9
$INDEXCTL
280
0
  9
$HIDETEXT
280
1
  9
$XCLIPFRAME
280
1
  9
$HALOGAP
280
0
  9
$OBSCOLOR
 70
257
  9
$OBSLTYPE
280
0
  9
$INTERSECTIONDISPLAY
280
0
  9
$INTERSECTIONCOLOR
 70
257
  9
$DIMASSOC
280
2
  9
$PROJECTNAME
  1

  9
$CAMERADISPLAY
290
0
  9
$LENSLENGTH
 40
50.0
  9
$CAMERAHEIGHT
 40
0.0
  9
$STEPSPERSEC
 40
24.0
  9
$STEPSIZE
 40
100.0
  9
$3DDWFPREC
 40
2.0
  9
$PSOLWIDTH
 40
0.005
  9
$PSOLHEIGHT
 40
0.08
  9
$LOFTANG1
 40
1.570796326795
  9
$LOFTANG2
 40
1.570796326795
  9
$LOFTMAG1
 40
0.0
  9
$LOFTMAG2
 40
0.0
  9
$LOFTPARAM
 70
7
  9
$LOFTNORMALS
280
1
  9
$LATITUDE
 40
37.795
  9
$LONGITUDE
 40
-122.394
  9
$NORTHDIRECTION
 40
0.0
  9
$TIMEZONE
 70
-8000
  9
$LIGHTGLYPHDISPLAY
280
1
  9
$TILEMODELIGHTSYNCH
280
1
  9
$CMATERIAL
347
20
  9
$SOLIDHIST
280
0
  9
$SHOWHIST
280
1
  9
$DWFFRAME
280
2
  9
$DGNFRAME
280
2
  9
$REALWORLDSCALE
290
1
  9
$INTERFERECOLOR
 62
256
  9
$CSHADOW
280
0
  9
$SHADOWPLANELOCATION
 40
0.0
  0
ENDSEC
  0
SECTION
  2
CLASSES
  0
CLASS
  1
ACDBDICTIONARYWDFLT
  2
AcDbDictionaryWithDefault
  3
ObjectDBX Classes
 90
0
 91
0
280
0
281
0
  0
CLASS
  1
SUN
  2
AcDbSun
  3
SCENEOE
 90
1153
 91
0
280
0
281
0
  0
CLASS
  1
VISUALSTYLE
  2
AcDbVisualStyle
  3
ObjectDBX Classes
 90
4095
 91
0
280
0
281
0
  0
CLASS
  1
MATERIAL
  2
AcDbMaterial
  3
ObjectDBX Classes
 90
1153
 91
0
280
0
281
0
  0
CLASS
  1
SCALE
  2
AcDbScale
  3
ObjectDBX Classes
 90
1153
 91
0
280
0
281
0
  0
CLASS
  1
TABLESTYLE
  2
AcDbTableStyle
  3
ObjectDBX Classes
 90
4095
 91
0
280
0
281
0
  0
CLASS
  1
MLEADERSTYLE
  2
AcDbMLeaderStyle
  3
ACDB_MLEADERSTYLE_CLASS
 90
4095
 91
0
280
0
281
0
  0
CLASS
  1
DICTIONARYVAR
  2
AcDbDictionaryVar
  3
ObjectDBX Classes
 90
0
 91
0
280
0
281
0
  0
CLASS
  1
CELLSTYLEMAP
  2
AcDbCellStyleMap
  3
ObjectDBX Classes
 90
1152
 91
0
280
0
281
0
  0
CLASS
  1
MENTALRAYRENDERSETTINGS
  2
AcDbMentalRayRenderSettings
  3
SCENEOE
 90
1024
 91
0
280
0
281
0
  0
CLASS
  1
ACDBDETAILVIEWSTYLE
  2
AcDbDetailViewStyle
  3
ObjectDBX Classes
 90
1025
 91
0
280
0
281
0
  0
CLASS
  1
ACDBSECTIONVIEWSTYLE
  2
AcDbSectionViewStyle
  3
ObjectDBX Classes
 90
1025
 91
0
280
0
281
0
  0
CLASS
  1
RASTERVARIABLES
  2
AcDbRasterVariables
  3
ISM
 90
0
 91
0
280
0
281
0
  0
CLASS
  1
LAYOUT
  2
AcDbLayout
  3
ObjectDBX Classes
 90
0
 91
0
280
0
281
0
  0
CLASS
  1
ACDBPLACEHOLDER
  2
AcDbPlaceHolder
  3
ObjectDBX Classes
 90
0
 91
0
280
0
281
0
  0
ENDSEC
  0
SECTION
  2
TABLES
  0
TABLE
  2
VPORT
  5
8
330
0
100
AcDbSymbolTable
 70
1
  0
VPORT
  5
23
330
8
100
AcDbSymbolTableRecord
100
AcDbViewportTableRecord
  2
*Active
 70
0
 10
0.0
 20
0.0
 11
1.0
 21
1.0
 12
0.0
 22
0.0
 13
0.0
 23
0.0
 14
0.5
 24
0.5
 15
0.5
 25
0.5
 16
0.0
 26
0.0
 36
1.0
 17
0.0
 27
0.0
 37
0.0
 40
1000.0
 41
1.34
 42
50.0
 43
0.0
 44
0.0
 50
0.0
 51
0.0
 71
0
 72
1000
 73
1
 74
3
 75
0
 76
0
 77
0
 78
0
281
0
 65
0
146
0.0
  0
ENDTAB
  0
TABLE
  2
LTYPE
  5
2
330
0
100
AcDbSymbolTable
 70
3
  0
LTYPE
  5
24
330
2
100
AcDbSymbolTableRecord
100
AcDbLinetypeTableRecord
  2
ByBlock
 70
0
  3

 72
65
 73
0
 40
0.0
  0
LTYPE
  5
25
330
2
100
AcDbSymbolTableRecord
100
AcDbLinetypeTableRecord
  2
ByLayer
 70
0
  3

 72
65
 73
0
 40
0.0
  0
LTYPE
  5
26
330
2
100
AcDbSymbolTableRecord
100
AcDbLinetypeTableRecord
  2
Continuous
 70
0
  3

 72
65
 73
0
 40
0.0
  0
ENDTAB
  0
TABLE
  2
LAYER
  5
1
330
0
100
AcDbSymbolTable
 70
2
  0
LAYER
  5
27
330
1
100
AcDbSymbolTableRecord
100
AcDbLayerTableRecord
  2
0
 70
0
 62
7
  6
Continuous
370
-3
390
13
347
21
  0
LAYER
  5
28
330
1
100
AcDbSymbolTableRecord
100
AcDbLayerTableRecord
  2
Defpoints
 70
0
 62
7
  6
Continuous
290
0
370
-3
390
13
347
21
  0
ENDTAB
  0
TABLE
  2
STYLE
  5
5
330
0
100
AcDbSymbolTable
 70
1
  0
STYLE
  5
29
330
5
100
AcDbSymbolTableRecord
100
AcDbTextStyleTableRecord
  2
Standard
 70
0
 40
0.0
 41
1.0
 50
0.0
 71
0
 42
2.5
  3
txt
  4

  0
ENDTAB
  0
TABLE
  2
VIEW
  5
7
330
0
100
AcDbSymbolTable
 70
0
  0
ENDTAB
  0
TABLE
  2
UCS
  5
6
330
0
100
AcDbSymbolTable
 70
0
  0
ENDTAB
  0
TABLE
  2
APPID
  5
3
330
0
100
AcDbSymbolTable
 70
3
  0
APPID
  5
2A
330
3
100
AcDbSymbolTableRecord
100
AcDbRegAppTableRecord
  2
ACAD
 70
0
  0
APPID
  5
6B
330
3
100
AcDbSymbolTableRecord
100
AcDbRegAppTableRecord
  2
HATCHBACKGROUNDCOLOR
 70
0
  0
APPID
  5
6C
330
3
100
AcDbSymbolTableRecord
100
AcDbRegAppTableRecord
  2
EZDXF
 70
0
  0
ENDTAB
  0
TABLE
  2
DIMSTYLE
  5
4
330
0
100
AcDbSymbolTable
 70
1
100
AcDbDimStyleTable
  0
DIMSTYLE
105
2B
330
4
100
AcDbSymbolTableRecord
100
AcDbDimStyleTableRecord
  2
Standard
 70
0
 40
1.0
 41
2.5
 42
0.625
 43
3.75
 44
1.25
 45
0.0
 46
0.0
 47
0.0
 48
0.0
 49
2.5
140
2.5
141
2.5
142
0.0
143
0.03937007874
144
1.0
145
0.0
146
1.0
147
0.625
148
0.0
 69
0
 70
0
 71
0
 72
0
 73
0
 74
0
 75
0
 76
0
 77
1
 78
8
 79
3
170
0
171
3
172
1
173
0
174
0
175
0
176
0
177
0
178
0
179
2
271
2
272
2
273
2
274
3
275
0
276
0
277
2
278
44
279
0
280
0
281
0
282
0
283
0
284
8
285
0
286
0
288
0
289
3
290
0
371
-2
372
-2
  0
ENDTAB
  0
TABLE
  2
BLOCK_RECORD
  5
9
330
0
100
AcDbSymbolTable
 70
2
  0
BLOCK_RECORD
  5
17
330
9
100
AcDbSymbolTableRecord
100
AcDbBlockTableRecord
  2
*Model_Space
340
1A
 70
0
280
1
281
0
  0
BLOCK_RECORD
  5
1B
330
9
100
AcDbSymbolTableRecord
100
AcDbBlockTableRecord
  2
*Paper_Space
340
1E
 70
0
280
1
281
0
  0
ENDTAB
  0
ENDSEC
  0
SECTION
  2
BLOCKS
  0
BLOCK
  5
18
330
17
100
AcDbEntity
  8
0
100
AcDbBlockBegin
  2
*Model_Space
 70
0
 10
0.0
 20
0.0
 30
0.0
  3
*Model_Space
  1

  0
ENDBLK
  5
19
330
17
100
AcDbEntity
  8
0
100
AcDbBlockEnd
  0
BLOCK
  5
1C
330
1B
100
AcDbEntity
  8
0
100
AcDbBlockBegin
  2
*Paper_Space
 70
0
 10
0.0
 20
0.0
 30
0.0
  3
*Paper_Space
  1

  0
ENDBLK
  5
1D
330
1B
100
AcDbEntity
  8
0
100
AcDbBlockEnd
  0
ENDSEC
  0
SECTION
  2
ENTITIES
  0
LWPOLYLINE
  5
2F
330
17
100
AcDbEntity
  8
SHEET_BOUNDARY
 62
1
100
AcDbPolyline
 90
5
 70
0
 10
0.0
 20
0.0
 10
2000.0
 20
0.0
 10
2000.0
 20
1400.0
 10
0.0
 20
1400.0
 10
0.0
 20
0.0
  0
LWPOLYLINE
  5
30
330
17
100
AcDbEntity
  8
test_spline_SHEET_BOUNDARY
 62
1
100
AcDbPolyline
 90
5
 70
0
 10
0.0
 20
0.0
 10
1400.0
 20
0.0
 10
1400.0
 20
2000.0
 10
0.0
 20
2000.0
 10
0.0
 20
0.0
  0
SPLINE
  5
31
330
17
100
AcDbEntity
  8
test_spline_1_layer 1
 62
250
370
9
100
AcDbSpline
 70
24
 71
3
 72
8
 73
4
 74
0
 42
1e-09
 40
0.0
 40
0.0
 40
0.0
 40
0.0
 40
1.0
 40
1.0
 40
1.0
 40
1.0
 10
356.20529550045353
 20
117.84980000000002
 30
0.0
 10
356.20529550045353
 20
117.84980000000002
 30
0.0
 10
356.20529550045353
 20
93.87189999999998
 30
0.0
 10
356.20529550045353
 20
93.87189999999998
 30
0.0
  0
SPLINE
  5
32
330
17
100
AcDbEntity
  8
test_spline_1_layer 1
 62
250
370
9
100
AcDbSpline
 70
24
 71
3
 72
8
 73
4
 74
0
 42
1e-09
 40
0.0
 40
0.0
 40
0.0
 40
0.0
 40
1.0
 40
1.0
 40
1.0
 40
1.0
 10
344.2163955004537
 20
105.86079999999998
 30
0.0
 10
344.2163955004537
 20
105.86079999999998
 30
0.0
 10
368.19429550045356
 20
105.86079999999998
 30
0.0
 10
368.19429550045356
 20
105.86079999999998
 30
0.0
  0
SPLINE
  5
33
330
17
100
AcDbEntity
  8
test_spline_1_layer 1
 62
250
370
9
100
AcDbSpline
 70
24
 71
3
 72
8
 73
4
 74
0
 42
1e-09
 40
0.0
 40
0.0
 40
0.0
 40
0.0
 40
1.0
 40
1.0
 40
1.0
 40
1.0
 10
637.9004955004536
 20
616.021
 30
0.0
 10
637.9004955004536
 20
616.021
 30
0.0
 10
650.2647955004536
 20
595.4767
 30
0.0
 10
650.2647955004536
 20
595.4767
 30
0.0
  0
SPLINE
  5
34
330
17
100
AcDbEntity
  8
test_spline_1_layer 1
 62
250
370
9
100
AcDbSpline
 70
24
 71
3
 72
8
 73
4
 74
0
 42
1e-09
 40
0.0
 40
0.0
 40
0.0
 40
0.0
 40
1.0
 40
1.0
 40
1.0
 40
1.0
 10
620.1705955004536
 20
616.021
 30
0.0
 10
620.1705955004536
 20
616.021
 30
0.0
 10
632.5348955004536
 20
595.4767
 30
0.0
 10
632.5348955004536
 20
595.4767
 30
0.0
  0
SPLINE
  5
35
330
17
100
AcDbEntity
  8
test_spline_1_layer 1
 62
250
370
9
100
AcDbSpline
 70
24
 71
3
 72
8
 73
4
 74
0
 42
1e-09
 40
0.0
 40
0.0
 40
0.0
 40
0.0
 40
1.0
 40
1.0
 40
1.0
 40
1.0
 10
568.2294955004536
 20
441.08230000000003
 30
0.0
 10
568.2294955004536
 20
441.08230000000003
 30
0.0
 10
580.5937955004536
 20
420.538
 30
0.0
 10
580.5937955004536
 20
420.538
 30
0.0
  0
SPLINE
  5
36
330
17
100
AcDbEntity
  8
test_spline_1_layer 1
 62
250
370
9
100
AcDbSpline
 70
24
 71
3
 72
8
 73
4
 74
0
 42
1e-09
 40
0.0
 40
0.0
 40
0.0
 40
0.0
 40
1.0
 40
1.0
 40
1.0
 40
1.0
 10
550.4995955004536
 20
441.08230000000003
 30
0.0
 10
550.4995955004536
 20
441.08230000000003
 30
0.0
 10
562.8638955004537
 20
420.538
 30
0.0
 10
562.8638955004537
 20
420.538
 30
0.0
  0
SPLINE
  5
37
330
17
100
AcDbEntity
  8
test_spline_1_layer 1
 62
250
370
9
100
AcDbSpline
 70
24
 71
3
 72
8
 73
4
 74
0
 42
1e-09
 40
0.0
 40
0.0
 40
0.0
 40
0.0
 40
1.0
 40
1.0
 40
1.0
 40
1.0
 10
239.52429550045372
 20
505.54290000000003
 30
0.0
 10
239.52429550045372
 20
505.54290000000003
 30
0.0
 10
253.26489550045358
 20
480.58939999999996
 30
0.0
 10
253.26489550045358
 20
480.58939999999996
 30
0.0
  0
SPLINE
  5
38
330
17
100
AcDbEntity
  8
test_spline_1_layer 1
 62
250
370
9
100
AcDbSpline
 70
24
 71
3
 72
8
 73
4
 74
0
 42
1e-09
 40
0.0
 40
0.0
 40
0.0
 40
0.0
 40
1.0
 40
1.0
 40
1.0
 40
1.0
 10
251.81029550045355
 20
505.54290000000003
 30
0.0
 10
251.81029550045355
 20
505.54290000000003
 30
0.0
 10
238.0696955004537
 20
480.6471
 30
0.0
 10
238.0696955004537
 20
480.6471
 30
0.0
  0
SPLINE
  5
39
330
17
100
AcDbEntity
  8
test_spline_1_layer 1
 62
250
370
9
100
AcDbSpline
 70
24
 71
3
 72
8
 73
4
 74
0
 42
1e-09
 40
0.0
 40
0.0
 40
0.0
 40
0.0
 40
1.0
 40
1.0
 40
1.0
 40
1.0
 10
185.01999550045366
 20
504.74930000000006
 30
0.0
 10
185.01999550045366
 20
504.74930000000006
 30
0.0
 10
198.76059550045352
 20
479.7958
 30
0.0
 10
198.76059550045352
 20
479.7958
 30
0.0
  0
SPLINE
  5
3A
330
17
100
AcDbEntity
  8
test_spline_1_layer 1
 62
250
370
9
100
AcDbSpline
 70
24
 71
3
 72
8
 73
4
 74
0
 42
1e-09
 40
0.0
 40
0.0
 40
0.0
 40
0.0
 40
1.0
 40
1.0
 40
1.0
 40
1.0
 10
197.30599550045372
 20
504.74930000000006
 30
0.0
 10
197.30599550045372
 20
504.74930000000006
 30
0.0
 10
183.56539550045363
 20
479.85350000000005
 30
0.0
 10
183.56539550045363
 20
479.85350000000005
 30
0.0
  0
SPLINE
  5
3B
330
17
100
AcDbEntity
  8
test_spline_1_layer 1
 62
250
370
9
100
AcDbSpline
 70
8
 71
3
 72
52
 73
48
 74
0
 42
1e-09
 40
0.0
 40
0.0
 40
0.0
 40
0.0
 40
0.0769230769230769
 40
0.0769230769230769
 40
0.0769230769230769
 40
0.0769230769230769
 40
0.1538461538461539
 40
0.1538461538461539
 40
0.1538461538461539
 40
0.1538461538461539
 40
0.2307692307692308
 40
0.2307692307692308
 40
0.2307692307692308
 40
0.2307692307692308
 40
0.3076923076923077
 40
0.3076923076923077
 40
0.3076923076923077
 40
0.3076923076923077
 40
0.3846153846153846
 40
0.3846153846153846
 40
0.3846153846153846
 40
0.3846153846153846
 40
0.4615384615384616
 40
0.4615384615384616
 40
0.4615384615384616
 40
0.4615384615384616
 40
0.5384615384615384
 40
0.5384615384615384
 40
0.5384615384615384
 40
0.5384615384615384
 40
0.6153846153846154
 40
0.6153846153846154
 40
0.6153846153846154
 40
0.6153846153846154
 40
0.6923076923076923
 40
0.6923076923076923
 40
0.6923076923076923
 40
0.6923076923076923
 40
0.7692307692307693
 40
0.7692307692307693
 40
0.7692307692307693
 40
0.7692307692307693
 40
0.8461538461538461
 40
0.8461538461538461
 40
0.8461538461538461
 40
0.8461538461538461
 40
1.0
 40
1.0
 40
1.0
 40
1.0
 10
325.2774955004536
 20
76.36330000000004
 30
0.0
 10
325.2774955004536
 20
76.36330000000004
 30
0.0
 10
325.2774955004536
 20
78.22050000000002
 30
0.0
 10
325.2774955004536
 20
78.22050000000002
 30
0.0
 10
325.2774955004536
 20
78.22050000000002
 30
0.0
 10
325.2631955004538
 20
79.9624
 30
0.0
 10
327.92769550045364
 20
82.08050000000003
 30
0.0
 10
329.9867955004536
 20
82.05779999999999
 30
0.0
 10
329.9867955004536
 20
82.05779999999999
 30
0.0
 10
332.05089550045363
 20
82.05779999999999
 30
0.0
 10
334.1148955004537
 20
82.05779999999999
 30
0.0
 10
336.17859550045364
 20
82.05779999999999
 30
0.0
 10
336.17859550045364
 20
82.05779999999999
 30
0.0
 10
338.3730955004537
 20
82.0666
 30
0.0
 10
339.9713955004538
 20
80.21980000000002
 30
0.0
 10
340.0157955004536
 20
78.30770000000001
 30
0.0
 10
340.0157955004536
 20
78.30770000000001
 30
0.0
 10
340.0153955004537
 20
76.87260000000003
 30
0.0
 10
340.0153955004537
 20
75.4375
 30
0.0
 10
340.0157955004536
 20
74.00200000000001
 30
0.0
 10
340.0157955004536
 20
74.00200000000001
 30
0.0
 10
339.9671955004535
 20
72.3485
 30
0.0
 10
338.3645955004538
 20
70.11849999999998
 30
0.0
 10
336.16629550045377
 20
70.12850000000003
 30
0.0
 10
336.16629550045377
 20
70.12850000000003
 30
0.0
 10
338.3699955004538
 20
70.1173
 30
0.0
 10
339.9779955004535
 20
68.3141
 30
0.0
 10
340.0319955004536
 20
66.25459999999998
 30
0.0
 10
340.0319955004536
 20
66.25459999999998
 30
0.0
 10
340.0315955004537
 20
64.4699
 30
0.0
 10
340.0315955004537
 20
62.68520000000001
 30
0.0
 10
340.0319955004536
 20
60.90010000000001
 30
0.0
 10
340.0319955004536
 20
60.90010000000001
 30
0.0
 10
340.04209550045357
 20
58.83870000000002
 30
0.0
 10
337.9871955004537
 20
57.07560000000001
 30
0.0
 10
336.16629550045377
 20
57.08370000000002
 30
0.0
 10
336.16629550045377
 20
57.08370000000002
 30
0.0
 10
334.10099550045356
 20
57.084
 30
0.0
 10
332.03579550045356
 20
57.084
 30
0.0
 10
329.97019550045366
 20
57.08370000000002
 30
0.0
 10
329.97019550045366
 20
57.08370000000002
 30
0.0
 10
327.8015955004537
 20
57.095200000000034
 30
0.0
 10
325.27059550045374
 20
59.49540000000002
 30
0.0
 10
325.25199550045363
 20
60.9572
 30
0.0
 10
325.25199550045363
 20
60.9572
 30
0.0
 10
325.25199550045363
 20
60.9572
 30
0.0
 10
325.25199550045363
 20
62.865800000000036
 30
0.0
 10
325.25199550045363
 20
62.865800000000036
 30
0.0
  0
SPLINE
  5
3C
330
17
100
AcDbEntity
  8
test_spline_1_layer 1
 62
250
370
9
100
AcDbSpline
 70
24
 71
3
 72
8
 73
4
 74
0
 42
1e-09
 40
0.0
 40
0.0
 40
0.0
 40
0.0
 40
1.0
 40
1.0
 40
1.0
 40
1.0
 10
329.9871955004537
 20
70.11810000000003
 30
0.0
 10
329.9871955004537
 20
70.11810000000003
 30
0.0
 10
336.18359550045375
 20
70.11810000000003
 30
0.0
 10
336.18359550045375
 20
70.11810000000003
 30
0.0
  0
SPLINE
  5
3D
330
17
100
AcDbEntity
  8
test_spline_1_layer 1
 62
250
370
9
100
AcDbSpline
 70
11
 71
3
 72
36
 73
32
 74
0
 42
1e-09
 40
0.0
 40
0.0
 40
0.0
 40
0.0
 40
0.1111111111111111
 40
0.1111111111111111
 40
0.1111111111111111
 40
0.1111111111111111
 40
0.2222222222222222
 40
0.2222222222222222
 40
0.2222222222222222
 40
0.2222222222222222
 40
0.3333333333333333
 40
0.3333333333333333
 40
0.3333333333333333
 40
0.3333333333333333
 40
0.4444444444444444
 40
0.4444444444444444
 40
0.4444444444444444
 40
0.4444444444444444
 40
0.5555555555555556
 40
0.5555555555555556
 40
0.5555555555555556
 40
0.5555555555555556
 40
0.6666666666666666
 40
0.6666666666666666
 40
0.6666666666666666
 40
0.6666666666666666
 40
0.7777777777777778
 40
0.7777777777777778
 40
0.7777777777777778
 40
0.7777777777777778
 40
1.0
 40
1.0
 40
1.0
 40
1.0
 10
369.0613955004535
 20
82.07010000000002
 30
0.0
 10
371.4274955004537
 20
82.07010000000002
 30
0.0
 10
373.7939955004538
 20
82.07010000000002
 30
0.0
 10
376.16049550045364
 20
82.07010000000002
 30
0.0
 10
376.16049550045364
 20
82.07010000000002
 30
0.0
 10
378.1409955004535
 20
82.10570000000001
 30
0.0
 10
380.1669955004538
 20
80.6114
 30
0.0
 10
380.1940955004536
 20
78.16930000000002
 30
0.0
 10
380.1940955004536
 20
78.16930000000002
 30
0.0
 10
380.1936955004537
 20
72.4119
 30
0.0
 10
380.1936955004537
 20
66.65410000000003
 30
0.0
 10
380.1940955004536
 20
60.89589999999998
 30
0.0
 10
380.1940955004536
 20
60.89589999999998
 30
0.0
 10
380.0519955004536
 20
58.56830000000002
 30
0.0
 10
378.34559550045356
 20
57.08600000000001
 30
0.0
 10
376.16049550045364
 20
57.075199999999995
 30
0.0
 10
376.16049550045364
 20
57.075199999999995
 30
0.0
 10
373.78809550045366
 20
57.07560000000001
 30
0.0
 10
371.4156955004537
 20
57.07560000000001
 30
0.0
 10
369.0436955004536
 20
57.075199999999995
 30
0.0
 10
369.0436955004536
 20
57.075199999999995
 30
0.0
 10
367.08519550045366
 20
56.969600000000014
 30
0.0
 10
365.0787955004537
 20
58.857500000000016
 30
0.0
 10
365.09019550045355
 20
60.87850000000003
 30
0.0
 10
365.09019550045355
 20
60.87850000000003
 30
0.0
 10
365.0905955004537
 20
66.65910000000002
 30
0.0
 10
365.0905955004537
 20
72.43940000000003
 30
0.0
 10
365.09019550045355
 20
78.2192
 30
0.0
 10
365.09019550045355
 20
78.2192
 30
0.0
 10
365.0944955004536
 20
80.3612
 30
0.0
 10
366.8715955004536
 20
82.08370000000002
 30
0.0
 10
369.0613955004535
 20
82.07010000000002
 30
0.0
  0
SPLINE
  5
3E
330
17
100
AcDbEntity
  8
test_spline_1_layer 1
 62
250
370
9
100
AcDbSpline
 70
11
 71
3
 72
36
 73
32
 74
0
 42
1e-09
 40
0.0
 40
0.0
 40
0.0
 40
0.0
 40
0.1111111111111111
 40
0.1111111111111111
 40
0.1111111111111111
 40
0.1111111111111111
 40
0.2222222222222222
 40
0.2222222222222222
 40
0.2222222222222222
 40
0.2222222222222222
 40
0.3333333333333333
 40
0.3333333333333333
 40
0.3333333333333333
 40
0.3333333333333333
 40
0.4444444444444444
 40
0.4444444444444444
 40
0.4444444444444444
 40
0.4444444444444444
 40
0.5555555555555556
 40
0.5555555555555556
 40
0.5555555555555556
 40
0.5555555555555556
 40
0.6666666666666666
 40
0.6666666666666666
 40
0.6666666666666666
 40
0.6666666666666666
 40
0.7777777777777778
 40
0.7777777777777778
 40
0.7777777777777778
 40
0.7777777777777778
 40
1.0
 40
1.0
 40
1.0
 40
1.0
 10
349.0613955004535
 20
82.07010000000002
 30
0.0
 10
351.4274955004537
 20
82.07010000000002
 30
0.0
 10
353.7939955004538
 20
82.07010000000002
 30
0.0
 10
356.16049550045364
 20
82.07010000000002
 30
0.0
 10
356.16049550045364
 20
82.07010000000002
 30
0.0
 10
358.1409955004535
 20
82.10570000000001
 30
0.0
 10
360.1669955004538
 20
80.6114
 30
0.0
 10
360.1940955004536
 20
78.16930000000002
 30
0.0
 10
360.1940955004536
 20
78.16930000000002
 30
0.0
 10
360.1936955004537
 20
72.4119
 30
0.0
 10
360.1936955004537
 20
66.65410000000003
 30
0.0
 10
360.1940955004536
 20
60.89589999999998
 30
0.0
 10
360.1940955004536
 20
60.89589999999998
 30
0.0
 10
360.0519955004536
 20
58.56830000000002
 30
0.0
 10
358.34559550045356
 20
57.08600000000001
 30
0.0
 10
356.16049550045364
 20
57.075199999999995
 30
0.0
 10
356.16049550045364
 20
57.075199999999995
 30
0.0
 10
353.78809550045366
 20
57.07560000000001
 30
0.0
 10
351.4156955004537
 20
57.07560000000001
 30
0.0
 10
349.0436955004536
 20
57.075199999999995
 30
0.0
 10
349.0436955004536
 20
57.075199999999995
 30
0.0
 10
347.08519550045366
 20
56.969600000000014
 30
0.0
 10
345.0787955004537
 20
58.857500000000016
 30
0.0
 10
345.09019550045355
 20
60.87850000000003
 30
0.0
 10
345.09019550045355
 20
60.87850000000003
 30
0.0
 10
345.0905955004537
 20
66.65910000000002
 30
0.0
 10
345.0905955004537
 20
72.43940000000003
 30
0.0
 10
345.09019550045355
 20
78.2192
 30
0.0
 10
345.09019550045355
 20
78.2192
 30
0.0
 10
345.0944955004536
 20
80.3612
 30
0.0
 10
346.8715955004536
 20
82.08370000000002
 30
0.0
 10
349.0613955004535
 20
82.07010000000002
 30
0.0
  0
SPLINE
  5
3F
330
17
100
AcDbEntity
  8
test_spline_1_layer 2
 62
142
370
158
100
AcDbSpline
 70
8
 71
3
 72
24
 73
20
 74
0
 42
1e-09
 40
0.0
 40
0.0
 40
0.0
 40
0.0
 40
0.1666666666666667
 40
0.1666666666666667
 40
0.1666666666666667
 40
0.1666666666666667
 40
0.3333333333333333
 40
0.3333333333333333
 40
0.3333333333333333
 40
0.3333333333333333
 40
0.5
 40
0.5
 40
0.5
 40
0.5
 40
0.6666666666666666
 40
0.6666666666666666
 40
0.6666666666666666
 40
0.6666666666666666
 40
1.0
 40
1.0
 40
1.0
 40
1.0
 10
658.0649955004537
 20
746.1986
 30
0.0
 10
658.0649955004537
 20
746.1986
 30
0.0
 10
601.1914955004536
 20
592.2551
 30
0.0
 10
601.1914955004536
 20
592.2551
 30
0.0
 10
601.1914955004536
 20
592.2551
 30
0.0
 10
601.1914955004536
 20
592.2551
 30
0.0
 10
565.7372955004537
 20
502.2967
 30
0.0
 10
565.7372955004537
 20
502.2967
 30
0.0
 10
565.7372955004537
 20
502.2967
 30
0.0
 10
547.2412955004536
 20
460.3741
 30
0.0
 10
544.8507955004536
 20
455.7771
 30
0.0
 10
543.3420955004538
 20
408.7563
 30
0.0
 10
543.3420955004538
 20
408.7563
 30
0.0
 10
540.1018955004536
 20
307.75570000000005
 30
0.0
 10
537.9757955004536
 20
200.43830000000003
 30
0.0
 10
545.8003955004535
 20
99.68709999999999
 30
0.0
 10
545.8003955004535
 20
99.68709999999999
 30
0.0
 10
546.3381955004536
 20
92.76280000000003
 30
0.0
 10
546.8766955004537
 20
85.83850000000001
 30
0.0
 10
547.4149955004536
 20
78.9142
 30
0.0
  0
SPLINE
  5
40
330
17
100
AcDbEntity
  8
test_spline_1_layer 2
 62
142
370
158
100
AcDbSpline
 70
8
 71
3
 72
60
 73
56
 74
0
 42
1e-09
 40
0.0
 40
0.0
 40
0.0
 40
0.0
 40
0.0666666666666667
 40
0.0666666666666667
 40
0.0666666666666667
 40
0.0666666666666667
 40
0.1333333333333333
 40
0.1333333333333333
 40
0.1333333333333333
 40
0.1333333333333333
 40
0.2
 40
0.2
 40
0.2
 40
0.2
 40
0.2666666666666667
 40
0.2666666666666667
 40
0.2666666666666667
 40
0.2666666666666667
 40
0.3333333333333333
 40
0.3333333333333333
 40
0.3333333333333333
 40
0.3333333333333333
 40
0.4
 40
0.4
 40
0.4
 40
0.4
 40
0.4666666666666667
 40
0.4666666666666667
 40
0.4666666666666667
 40
0.4666666666666667
 40
0.5333333333333333
 40
0.5333333333333333
 40
0.5333333333333333
 40
0.5333333333333333
 40
0.6
 40
0.6
 40
0.6
 40
0.6
 40
0.6666666666666666
 40
0.6666666666666666
 40
0.6666666666666666
 40
0.6666666666666666
 40
0.7333333333333333
 40
0.7333333333333333
 40
0.7333333333333333
 40
0.7333333333333333
 40
0.8
 40
0.8
 40
0.8
 40
0.8
 40
0.8666666666666667
 40
0.8666666666666667
 40
0.8666666666666667
 40
0.8666666666666667
 40
1.0
 40
1.0
 40
1.0
 40
1.0
 10
532.0805955004537
 20
43.996399999999994
 30
0.0
 10
409.7819955004536
 20
42.46940000000001
 30
0.0
 10
287.5298955004537
 20
43.94890000000004
 30
0.0
 10
165.49429550045375
 20
42.38870000000003
 30
0.0
 10
165.49429550045375
 20
42.38870000000003
 30
0.0
 10
157.81029550045355
 20
42.28820000000002
 30
0.0
 10
144.42909550045374
 20
41.32760000000002
 30
0.0
 10
147.14839550045372
 20
52.564099999999996
 30
0.0
 10
147.14839550045372
 20
52.564099999999996
 30
0.0
 10
155.2204955004538
 20
75.6565
 30
0.0
 10
165.53629550045366
 20
89.95480000000003
 30
0.0
 10
169.81029550045355
 20
115.3064
 30
0.0
 10
169.81029550045355
 20
115.3064
 30
0.0
 10
175.44989550045352
 20
150.495
 30
0.0
 10
177.93809550045376
 20
189.2133
 30
0.0
 10
165.31939550045377
 20
223.1658
 30
0.0
 10
165.31939550045377
 20
223.1658
 30
0.0
 10
156.20179550045373
 20
247.69809999999995
 30
0.0
 10
148.03009550045363
 20
261.18039999999996
 30
0.0
 10
147.66579550045367
 20
288.56050000000005
 30
0.0
 10
147.66579550045367
 20
288.56050000000005
 30
0.0
 10
146.8748955004537
 20
347.9959
 30
0.0
 10
148.39219550045368
 20
391.2957
 30
0.0
 10
132.63909550045378
 20
450.00440000000003
 30
0.0
 10
132.63909550045378
 20
450.00440000000003
 30
0.0
 10
117.23839550045363
 20
506.88710000000003
 30
0.0
 10
120.75049550045355
 20
541.4515
 30
0.0
 10
121.19129550045363
 20
598.7860000000001
 30
0.0
 10
121.19129550045363
 20
598.7860000000001
 30
0.0
 10
121.48029550045362
 20
636.3813
 30
0.0
 10
125.13889550045383
 20
664.9541
 30
0.0
 10
145.8317955004536
 20
697.5576
 30
0.0
 10
145.8317955004536
 20
697.5576
 30
0.0
 10
158.4047955004537
 20
717.3675000000001
 30
0.0
 10
173.83299550045353
 20
724.7998
 30
0.0
 10
193.83589550045372
 20
735.503
 30
0.0
 10
193.83589550045372
 20
735.503
 30
0.0
 10
242.44539550045351
 20
761.5129999999999
 30
0.0
 10
316.3308955004536
 20
760.4359999999999
 30
0.0
 10
372.94839550045367
 20
766.7610999999999
 30
0.0
 10
372.94839550045367
 20
766.7610999999999
 30
0.0
 10
382.42449550045353
 20
767.8197
 30
0.0
 10
399.89469550045374
 20
769.8333
 30
0.0
 10
405.9119955004537
 20
760.5669
 30
0.0
 10
405.9119955004537
 20
760.5669
 30
0.0
 10
414.8353955004536
 20
746.8254000000001
 30
0.0
 10
422.4481955004537
 20
724.2996
 30
0.0
 10
429.95489550045363
 20
708.6702
 30
0.0
 10
429.95489550045363
 20
708.6702
 30
0.0
 10
431.78049550045375
 20
704.8692
 30
0.0
 10
438.45719550045374
 20
689.5282
 30
0.0
 10
444.32069550045367
 20
692.5476
 30
0.0
 10
444.32069550045367
 20
692.5476
 30
0.0
 10
451.4542955004538
 20
696.2211
 30
0.0
 10
467.3458955004537
 20
719.1316
 30
0.0
 10
472.4898955004537
 20
726.7674000000001
 30
0.0
  0
SPLINE
  5
41
330
17
100
AcDbEntity
  8
test_spline_1_layer 2
 62
142
370
158
100
AcDbSpline
 70
8
 71
3
 72
20
 73
16
 74
0
 42
1e-09
 40
0.0
 40
0.0
 40
0.0
 40
0.0
 40
0.2
 40
0.2
 40
0.2
 40
0.2
 40
0.4
 40
0.4
 40
0.4
 40
0.4
 40
0.6
 40
0.6
 40
0.6
 40
0.6
 40
1.0
 40
1.0
 40
1.0
 40
1.0
 10
440.5886955004537
 20
689.7524
 30
0.0
 10
443.81979550045367
 20
631.7668
 30
0.0
 10
447.0293955004538
 20
574.2482
 30
0.0
 10
449.4758955004538
 20
516.2026
 30
0.0
 10
449.4758955004538
 20
516.2026
 30
0.0
 10
450.5805955004537
 20
491.38250000000005
 30
0.0
 10
453.5057955004538
 20
468.23710000000005
 30
0.0
 10
483.1624955004538
 20
465.384
 30
0.0
 10
483.1624955004538
 20
465.384
 30
0.0
 10
498.5146955004536
 20
463.90700000000004
 30
0.0
 10
514.8907955004536
 20
464.1568
 30
0.0
 10
530.6144955004536
 20
463.0457
 30
0.0
 10
530.6144955004536
 20
463.0457
 30
0.0
 10
536.6086955004537
 20
462.62210000000005
 30
0.0
 10
542.6023955004537
 20
462.1952
 30
0.0
 10
548.5972955004536
 20
461.78190000000006
 30
0.0
  0
SPLINE
  5
42
330
17
100
AcDbEntity
  8
test_spline_1_layer 2
 62
142
370
158
100
AcDbSpline
 70
24
 71
3
 72
8
 73
4
 74
0
 42
1e-09
 40
0.0
 40
0.0
 40
0.0
 40
0.0
 40
1.0
 40
1.0
 40
1.0
 40
1.0
 10
462.2943955004537
 20
472.0358
 30
0.0
 10
462.2943955004537
 20
472.0358
 30
0.0
 10
564.7544955004537
 20
773.8316
 30
0.0
 10
564.7544955004537
 20
773.8316
 30
0.0
  0
SPLINE
  5
43
330
17
100
AcDbEntity
  8
test_spline_1_layer 3
 62
242
370
158
100
AcDbSpline
 70
11
 71
3
 72
212
 73
208
 74
0
 42
1e-09
 40
0.0
 40
0.0
 40
0.0
 40
0.0
 40
0.0188679245283019
 40
0.0188679245283019
 40
0.0188679245283019
 40
0.0188679245283019
 40
0.0377358490566038
 40
0.0377358490566038
 40
0.0377358490566038
 40
0.0377358490566038
 40
0.0566037735849057
 40
0.0566037735849057
 40
0.0566037735849057
 40
0.0566037735849057
 40
0.0754716981132075
 40
0.0754716981132075
 40
0.0754716981132075
 40
0.0754716981132075
 40
0.0943396226415094
 40
0.0943396226415094
 40
0.0943396226415094
 40
0.0943396226415094
 40
0.1132075471698113
 40
0.1132075471698113
 40
0.1132075471698113
 40
0.1132075471698113
 40
0.1320754716981132
 40
0.1320754716981132
 40
0.1320754716981132
 40
0.1320754716981132
 40
0.1509433962264151
 40
0.1509433962264151
 40
0.1509433962264151
 40
0.1509433962264151
 40
0.169811320754717
 40
0.169811320754717
 40
0.169811320754717
 40
0.169811320754717
 40
0.1886792452830189
 40
0.1886792452830189
 40
0.1886792452830189
 40
0.1886792452830189
 40
0.2075471698113208
 40
0.2075471698113208
 40
0.2075471698113208
 40
0.2075471698113208
 40
0.2264150943396226
 40
0.2264150943396226
 40
0.2264150943396226
 40
0.2264150943396226
 40
0.2452830188679245
 40
0.2452830188679245
 40
0.2452830188679245
 40
0.2452830188679245
 40
0.2641509433962264
 40
0.2641509433962264
 40
0.2641509433962264
 40
0.2641509433962264
 40
0.2830188679245283
 40
0.2830188679245283
 40
0.2830188679245283
 40
0.2830188679245283
 40
0.3018867924528302
 40
0.3018867924528302
 40
0.3018867924528302
 40
0.3018867924528302
 40
0.3207547169811321
 40
0.3207547169811321
 40
0.3207547169811321
 40
0.3207547169811321
 40
0.3396226415094339
 40
0.3396226415094339
 40
0.3396226415094339
 40
0.3396226415094339
 40
0.3584905660377358
 40
0.3584905660377358
 40
0.3584905660377358
 40
0.3584905660377358
 40
0.3773584905660378
 40
0.3773584905660378
 40
0.3773584905660378
 40
0.3773584905660378
 40
0.3962264150943396
 40
0.3962264150943396
 40
0.3962264150943396
 40
0.3962264150943396
 40
0.4150943396226415
 40
0.4150943396226415
 40
0.4150943396226415
 40
0.4150943396226415
 40
0.4339622641509434
 40
0.4339622641509434
 40
0.4339622641509434
 40
0.4339622641509434
 40
0.4528301886792453
 40
0.4528301886792453
 40
0.4528301886792453
 40
0.4528301886792453
 40
0.4716981132075472
 40
0.4716981132075472
 40
0.4716981132075472
 40
0.4716981132075472
 40
0.4905660377358491
 40
0.4905660377358491
 40
0.4905660377358491
 40
0.4905660377358491
 40
0.5094339622641509
 40
0.5094339622641509
 40
0.5094339622641509
 40
0.5094339622641509
 40
0.5283018867924528
 40
0.5283018867924528
 40
0.5283018867924528
 40
0.5283018867924528
 40
0.5471698113207547
 40
0.5471698113207547
 40
0.5471698113207547
 40
0.5471698113207547
 40
0.5660377358490566
 40
0.5660377358490566
 40
0.5660377358490566
 40
0.5660377358490566
 40
0.5849056603773585
 40
0.5849056603773585
 40
0.5849056603773585
 40
0.5849056603773585
 40
0.6037735849056604
 40
0.6037735849056604
 40
0.6037735849056604
 40
0.6037735849056604
 40
0.6226415094339622
 40
0.6226415094339622
 40
0.6226415094339622
 40
0.6226415094339622
 40
0.6415094339622641
 40
0.6415094339622641
 40
0.6415094339622641
 40
0.6415094339622641
 40
0.660377358490566
 40
0.660377358490566
 40
0.660377358490566
 40
0.660377358490566
 40
0.6792452830188679
 40
0.6792452830188679
 40
0.6792452830188679
 40
0.6792452830188679
 40
0.6981132075471698
 40
0.6981132075471698
 40
0.6981132075471698
 40
0.6981132075471698
 40
0.7169811320754716
 40
0.7169811320754716
 40
0.7169811320754716
 40
0.7169811320754716
 40
0.7358490566037735
 40
0.7358490566037735
 40
0.7358490566037735
 40
0.7358490566037735
 40
0.7547169811320755
 40
0.7547169811320755
 40
0.7547169811320755
 40
0.7547169811320755
 40
0.7735849056603774
 40
0.7735849056603774
 40
0.7735849056603774
 40
0.7735849056603774
 40
0.7924528301886793
 40
0.7924528301886793
 40
0.7924528301886793
 40
0.7924528301886793
 40
0.8113207547169812
 40
0.8113207547169812
 40
0.8113207547169812
 40
0.8113207547169812
 40
0.8301886792452831
 40
0.8301886792452831
 40
0.8301886792452831
 40
0.8301886792452831
 40
0.8490566037735849
 40
0.8490566037735849
 40
0.8490566037735849
 40
0.8490566037735849
 40
0.8679245283018868
 40
0.8679245283018868
 40
0.8679245283018868
 40
0.8679245283018868
 40
0.8867924528301887
 40
0.8867924528301887
 40
0.8867924528301887
 40
0.8867924528301887
 40
0.9056603773584906
 40
0.9056603773584906
 40
0.9056603773584906
 40
0.9056603773584906
 40
0.9245283018867925
 40
0.9245283018867925
 40
0.9245283018867925
 40
0.9245283018867925
 40
0.9433962264150944
 40
0.9433962264150944
 40
0.9433962264150944
 40
0.9433962264150944
 40
0.9622641509433962
 40
0.9622641509433962
 40
0.9622641509433962
 40
0.9622641509433962
 40
1.0
 40
1.0
 40
1.0
 40
1.0
 10
61.44599550045382
 20
710.6567
 30
0.0
 10
72.46829550045368
 20
724.5279
 30
0.0
 10
83.54119550045357
 20
740.793
 30
0.0
 10
93.96889550045375
 20
755.3208
 30
0.0
 10
93.96889550045375
 20
755.3208
 30
0.0
 10
93.96889550045375
 20
755.3208
 30
0.0
 10
95.70869550045359
 20
757.7447
 30
0.0
 10
95.70869550045359
 20
757.7447
 30
0.0
 10
95.70869550045359
 20
757.7447
 30
0.0
 10
95.70869550045359
 20
757.7447
 30
0.0
 10
118.95939550045364
 20
751.2019
 30
0.0
 10
118.95939550045364
 20
751.2019
 30
0.0
 10
118.95939550045364
 20
751.2019
 30
0.0
 10
139.37059550045365
 20
747.6279
 30
0.0
 10
143.49879550045375
 20
760.4894999999999
 30
0.0
 10
160.87549550045355
 20
767.7213999999999
 30
0.0
 10
160.87549550045355
 20
767.7213999999999
 30
0.0
 10
181.8223955004537
 20
776.3420000000001
 30
0.0
 10
197.10659550045352
 20
781.5631000000001
 30
0.0
 10
219.1136955004538
 20
787.1783
 30
0.0
 10
219.1136955004538
 20
787.1783
 30
0.0
 10
268.46019550045366
 20
799.0276000000001
 30
0.0
 10
313.3029955004538
 20
798.9321
 30
0.0
 10
363.26569550045383
 20
801.9549999999999
 30
0.0
 10
363.26569550045383
 20
801.9549999999999
 30
0.0
 10
392.96429550045355
 20
805.3684000000001
 30
0.0
 10
420.4364955004537
 20
815.2863
 30
0.0
 10
450.43129550045364
 20
818.0878
 30
0.0
 10
450.43129550045364
 20
818.0878
 30
0.0
 10
457.43029550045367
 20
818.7183
 30
0.0
 10
472.6702955004537
 20
821.4736
 30
0.0
 10
473.94039550045363
 20
811.6737
 30
0.0
 10
473.94039550045363
 20
811.6737
 30
0.0
 10
471.5379955004537
 20
788.549
 30
0.0
 10
449.8385955004535
 20
738.5622
 30
0.0
 10
450.7280955004537
 20
723.6535
 30
0.0
 10
450.7280955004537
 20
723.6535
 30
0.0
 10
451.3200955004538
 20
713.7329
 30
0.0
 10
457.8020955004538
 20
714.205
 30
0.0
 10
464.2275955004536
 20
719.0794
 30
0.0
 10
464.2275955004536
 20
719.0794
 30
0.0
 10
478.68719550045375
 20
730.0484
 30
0.0
 10
499.89999550045354
 20
759.7414000000001
 30
0.0
 10
510.76009550045364
 20
775.2814000000001
 30
0.0
 10
510.76009550045364
 20
775.2814000000001
 30
0.0
 10
513.6726955004535
 20
779.4492
 30
0.0
 10
516.5788955004537
 20
783.6202000000001
 30
0.0
 10
519.5048955004538
 20
787.7788
 30
0.0
 10
519.5048955004538
 20
787.7788
 30
0.0
 10
530.5457955004538
 20
803.4485
 30
0.0
 10
534.8117955004536
 20
797.5781
 30
0.0
 10
544.8938955004537
 20
788.5166999999999
 30
0.0
 10
544.8938955004537
 20
788.5166999999999
 30
0.0
 10
551.5549955004537
 20
782.5301
 30
0.0
 10
558.3071955004536
 20
776.6224
 30
0.0
 10
566.2980955004537
 20
773.1180999999999
 30
0.0
 10
566.2980955004537
 20
773.1180999999999
 30
0.0
 10
593.8028955004536
 20
761.0566000000001
 30
0.0
 10
647.3906955004536
 20
750.1625
 30
0.0
 10
678.9649955004536
 20
740.1779
 30
0.0
 10
678.9649955004536
 20
740.1779
 30
0.0
 10
690.3256955004538
 20
736.577
 30
0.0
 10
696.7406955004537
 20
731.806
 30
0.0
 10
695.8039955004535
 20
718.8206
 30
0.0
 10
695.8039955004535
 20
718.8206
 30
0.0
 10
693.5063955004537
 20
702.0094
 30
0.0
 10
681.2309955004537
 20
674.4092
 30
0.0
 10
674.8750955004537
 20
657.4059
 30
0.0
 10
674.8750955004537
 20
657.4059
 30
0.0
 10
653.8486955004537
 20
601.2534
 30
0.0
 10
631.3425955004536
 20
545.6051
 30
0.0
 10
611.7461955004537
 20
488.93370000000004
 30
0.0
 10
611.7461955004537
 20
488.93370000000004
 30
0.0
 10
605.2606955004537
 20
473.37710000000004
 30
0.0
 10
601.2930955004538
 20
473.96180000000004
 30
0.0
 10
585.4258955004536
 20
472.2799
 30
0.0
 10
585.4258955004536
 20
472.2799
 30
0.0
 10
579.9276955004536
 20
471.6971
 30
0.0
 10
553.6794955004536
 20
472.60699999999997
 30
0.0
 10
555.3893955004537
 20
463.5707
 30
0.0
 10
555.3893955004537
 20
463.5707
 30
0.0
 10
556.6708955004535
 20
456.7979
 30
0.0
 10
576.5039955004536
 20
455.3256
 30
0.0
 10
582.6443955004536
 20
453.6595
 30
0.0
 10
582.6443955004536
 20
453.6595
 30
0.0
 10
588.1820955004537
 20
452.15690000000006
 30
0.0
 10
594.9981955004537
 20
450.3606
 30
0.0
 10
596.1081955004536
 20
444.01869999999997
 30
0.0
 10
596.1081955004536
 20
444.01869999999997
 30
0.0
 10
595.3062955004536
 20
436.9765
 30
0.0
 10
580.8303955004537
 20
416.78330000000005
 30
0.0
 10
576.3277955004537
 20
409.65279999999996
 30
0.0
 10
576.3277955004537
 20
409.65279999999996
 30
0.0
 10
554.6250955004537
 20
373.92920000000004
 30
0.0
 10
560.1830955004536
 20
370.77290000000005
 30
0.0
 10
559.1363955004538
 20
331.08630000000005
 30
0.0
 10
559.1363955004538
 20
331.08630000000005
 30
0.0
 10
557.3612955004537
 20
263.3518
 30
0.0
 10
556.8313955004537
 20
195.23149999999998
 30
0.0
 10
554.2266955004536
 20
127.57820000000004
 30
0.0
 10
554.2266955004536
 20
127.57820000000004
 30
0.0
 10
553.2671955004537
 20
109.32589999999999
 30
0.0
 10
548.9069955004536
 20
91.29540000000003
 30
0.0
 10
546.6162955004536
 20
73.07960000000003
 30
0.0
 10
546.6162955004536
 20
73.07960000000003
 30
0.0
 10
543.7450955004535
 20
55.07900000000001
 30
0.0
 10
535.2753955004537
 20
49.363800000000026
 30
0.0
 10
525.4903955004536
 20
35.16810000000004
 30
0.0
 10
525.4903955004536
 20
35.16810000000004
 30
0.0
 10
520.3053955004536
 20
27.183600000000013
 30
0.0
 10
515.1666955004537
 20
16.647100000000023
 30
0.0
 10
509.9066955004537
 20
9.439400000000035
 30
0.0
 10
509.9066955004537
 20
9.439400000000035
 30
0.0
 10
500.7525955004537
 20
0.0
 30
0.0
 10
493.55939550045355
 20
3.838799999999992
 30
0.0
 10
481.5515955004537
 20
4.711200000000019
 30
0.0
 10
481.5515955004537
 20
4.711200000000019
 30
0.0
 10
468.4333955004538
 20
5.664300000000026
 30
0.0
 10
455.2778955004535
 20
4.789199999999994
 30
0.0
 10
442.35279550045357
 20
5.587800000000016
 30
0.0
 10
442.35279550045357
 20
5.587800000000016
 30
0.0
 10
429.1198955004536
 20
6.795600000000036
 30
0.0
 10
422.0741955004537
 20
13.908999999999992
 30
0.0
 10
409.8899955004538
 20
14.21350000000001
 30
0.0
 10
409.8899955004538
 20
14.21350000000001
 30
0.0
 10
395.1654955004535
 20
14.58140000000003
 30
0.0
 10
379.5210955004536
 20
14.127499999999998
 30
0.0
 10
364.6618955004535
 20
14.128100000000018
 30
0.0
 10
364.6618955004535
 20
14.128100000000018
 30
0.0
 10
339.5314955004535
 20
14.129000000000019
 30
0.0
 10
314.4010955004535
 20
14.127800000000036
 30
0.0
 10
289.2706955004537
 20
14.127800000000036
 30
0.0
 10
289.2706955004537
 20
14.127800000000036
 30
0.0
 10
237.05069550045368
 20
14.672799999999995
 30
0.0
 10
184.74999550045368
 20
14.51600000000002
 30
0.0
 10
132.54729550045363
 20
15.643399999999986
 30
0.0
 10
132.54729550045363
 20
15.643399999999986
 30
0.0
 10
118.7158955004536
 20
15.942099999999982
 30
0.0
 10
106.2471955004537
 20
19.212699999999984
 30
0.0
 10
98.75369550045366
 20
32.00319999999999
 30
0.0
 10
98.75369550045366
 20
32.00319999999999
 30
0.0
 10
87.47829550045367
 20
65.9357
 30
0.0
 10
100.57549550045383
 20
103.93369999999999
 30
0.0
 10
89.8466955004535
 20
136.88150000000002
 30
0.0
 10
89.8466955004535
 20
136.88150000000002
 30
0.0
 10
78.91759550045367
 20
167.4192
 30
0.0
 10
46.53679550045376
 20
169.7389
 30
0.0
 10
43.974995500453815
 20
173.92079999999999
 30
0.0
 10
43.974995500453815
 20
173.92079999999999
 30
0.0
 10
43.22009550045368
 20
175.15300000000002
 30
0.0
 10
31.21779550045369
 20
425.8053
 30
0.0
 10
29.509295500453618
 20
453.59929999999997
 30
0.0
 10
29.509295500453618
 20
453.59929999999997
 30
0.0
 10
28.24339550045363
 20
474.1902
 30
0.0
 10
34.4654955004537
 20
470.9211
 30
0.0
 10
52.48869550045379
 20
474.0212
 30
0.0
 10
52.48869550045379
 20
474.0212
 30
0.0
 10
60.495795500453596
 20
475.0168
 30
0.0
 10
99.56439550045366
 20
477.9592
 30
0.0
 10
103.4192955004537
 20
480.7332
 30
0.0
 10
103.4192955004537
 20
480.7332
 30
0.0
 10
109.11519550045364
 20
484.8319
 30
0.0
 10
105.3408955004536
 20
491.1029
 30
0.0
 10
100.69639550045372
 20
493.28499999999997
 30
0.0
 10
100.69639550045372
 20
493.28499999999997
 30
0.0
 10
91.11779550045367
 20
497.7854
 30
0.0
 10
62.37959550045366
 20
504.0453
 30
0.0
 10
50.75649550045364
 20
506.9556
 30
0.0
 10
50.75649550045364
 20
506.9556
 30
0.0
 10
47.879695500453636
 20
507.67589999999996
 30
0.0
 10
45.0587955004537
 20
508.4451
 30
0.0
 10
42.220195500453656
 20
509.3052
 30
0.0
 10
42.220195500453656
 20
509.3052
 30
0.0
 10
42.220195500453656
 20
509.3052
 30
0.0
 10
41.03629550045366
 20
509.6848
 30
0.0
 10
41.03629550045366
 20
509.6848
 30
0.0
 10
41.03629550045366
 20
509.6848
 30
0.0
 10
29.490795500453714
 20
513.4661
 30
0.0
 10
29.381895500453652
 20
517.3861
 30
0.0
 10
29.197995500453658
 20
529.6635
 30
0.0
 10
29.197995500453658
 20
529.6635
 30
0.0
 10
29.038395500453703
 20
546.5685
 30
0.0
 10
30.65059550045362
 20
566.4288
 30
0.0
 10
31.843595500453603
 20
583.3653
 30
0.0
 10
31.843595500453603
 20
583.3653
 30
0.0
 10
32.50129550045381
 20
592.7017
 30
0.0
 10
37.15969550045361
 20
659.801
 30
0.0
 10
42.0891955004538
 20
664.1455
 30
0.0
 10
42.0891955004538
 20
664.1455
 30
0.0
 10
50.345795500453505
 20
669.5603
 30
0.0
 10
99.57639550045383
 20
652.315
 30
0.0
 10
100.3726955004538
 20
663.9713
 30
0.0
 10
100.3726955004538
 20
663.9713
 30
0.0
 10
100.92869550045361
 20
672.1101
 30
0.0
 10
70.38829550045352
 20
683.6165
 30
0.0
 10
63.575395500453624
 20
686.9063
 30
0.0
 10
63.575395500453624
 20
686.9063
 30
0.0
 10
61.301095500453584
 20
688.0045
 30
0.0
 10
59.158095500453555
 20
689.1255
 30
0.0
 10
56.947395500453695
 20
690.3443
 30
0.0
 10
56.947395500453695
 20
690.3443
 30
0.0
 10
47.74999550045368
 20
695.5254
 30
0.0
 10
55.86789550045364
 20
703.8455
 30
0.0
 10
60.14429550045361
 20
709.0327
 30
0.0
 10
60.14429550045361
 20
709.0327
 30
0.0
 10
60.14429550045361
 20
709.0327
 30
0.0
 10
61.44599550045382
 20
710.6567
 30
0.0
 10
61.44599550045382
 20
710.6567
 30
0.0
  0
SPLINE
  5
44
330
17
100
AcDbEntity
  8
test_spline_2_layer 1
 62
250
370
9
100
AcDbSpline
 70
24
 71
3
 72
8
 73
4
 74
0
 42
1e-09
 40
0.0
 40
0.0
 40
0.0
 40
0.0
 40
1.0
 40
1.0
 40
1.0
 40
1.0
 10
359.6159203931484
 20
806.8565176327381
 30
0.0
 10
359.6159203931484
 20
806.8565176327381
 30
0.0
 10
371.98022039314833
 20
786.3122176327381
 30
0.0
 10
371.98022039314833
 20
786.3122176327381
 30
0.0
  0
SPLINE
  5
45
330
17
100
AcDbEntity
  8
test_spline_2_layer 1
 62
250
370
9
100
AcDbSpline
 70
24
 71
3
 72
8
 73
4
 74
0
 42
1e-09
 40
0.0
 40
0.0
 40
0.0
 40
0.0
 40
1.0
 40
1.0
 40
1.0
 40
1.0
 10
341.8860203931483
 20
806.8565176327381
 30
0.0
 10
341.8860203931483
 20
806.8565176327381
 30
0.0
 10
354.2503203931483
 20
786.3122176327381
 30
0.0
 10
354.2503203931483
 20
786.3122176327381
 30
0.0
  0
SPLINE
  5
46
330
17
100
AcDbEntity
  8
test_spline_2_layer 1
 62
250
370
9
100
AcDbSpline
 70
24
 71
3
 72
8
 73
4
 74
0
 42
1e-09
 40
0.0
 40
0.0
 40
0.0
 40
0.0
 40
1.0
 40
1.0
 40
1.0
 40
1.0
 10
355.3826203931483
 20
690.4398176327381
 30
0.0
 10
355.3826203931483
 20
690.4398176327381
 30
0.0
 10
367.74692039314846
 20
669.8955176327381
 30
0.0
 10
367.74692039314846
 20
669.8955176327381
 30
0.0
  0
SPLINE
  5
47
330
17
100
AcDbEntity
  8
test_spline_2_layer 1
 62
250
370
9
100
AcDbSpline
 70
24
 71
3
 72
8
 73
4
 74
0
 42
1e-09
 40
0.0
 40
0.0
 40
0.0
 40
0.0
 40
1.0
 40
1.0
 40
1.0
 40
1.0
 10
337.65272039314846
 20
690.4398176327381
 30
0.0
 10
337.65272039314846
 20
690.4398176327381
 30
0.0
 10
350.0170203931482
 20
669.8955176327381
 30
0.0
 10
350.0170203931482
 20
669.8955176327381
 30
0.0
  0
SPLINE
  5
48
330
17
100
AcDbEntity
  8
test_spline_2_layer 1
 62
250
370
9
100
AcDbSpline
 70
24
 71
3
 72
8
 73
4
 74
0
 42
1e-09
 40
0.0
 40
0.0
 40
0.0
 40
0.0
 40
1.0
 40
1.0
 40
1.0
 40
1.0
 10
359.6159203931484
 20
590.9564176327382
 30
0.0
 10
359.6159203931484
 20
590.9564176327382
 30
0.0
 10
371.98022039314833
 20
570.4121176327382
 30
0.0
 10
371.98022039314833
 20
570.4121176327382
 30
0.0
  0
SPLINE
  5
49
330
17
100
AcDbEntity
  8
test_spline_2_layer 1
 62
250
370
9
100
AcDbSpline
 70
24
 71
3
 72
8
 73
4
 74
0
 42
1e-09
 40
0.0
 40
0.0
 40
0.0
 40
0.0
 40
1.0
 40
1.0
 40
1.0
 40
1.0
 10
341.8860203931483
 20
590.9564176327382
 30
0.0
 10
341.8860203931483
 20
590.9564176327382
 30
0.0
 10
354.2503203931483
 20
570.4121176327382
 30
0.0
 10
354.2503203931483
 20
570.4121176327382
 30
0.0
  0
SPLINE
  5
4A
330
17
100
AcDbEntity
  8
test_spline_2_layer 1
 62
250
370
9
100
AcDbSpline
 70
8
 71
3
 72
52
 73
48
 74
0
 42
1e-09
 40
0.0
 40
0.0
 40
0.0
 40
0.0
 40
0.0769230769230769
 40
0.0769230769230769
 40
0.0769230769230769
 40
0.0769230769230769
 40
0.1538461538461539
 40
0.1538461538461539
 40
0.1538461538461539
 40
0.1538461538461539
 40
0.2307692307692308
 40
0.2307692307692308
 40
0.2307692307692308
 40
0.2307692307692308
 40
0.3076923076923077
 40
0.3076923076923077
 40
0.3076923076923077
 40
0.3076923076923077
 40
0.3846153846153846
 40
0.3846153846153846
 40
0.3846153846153846
 40
0.3846153846153846
 40
0.4615384615384616
 40
0.4615384615384616
 40
0.4615384615384616
 40
0.4615384615384616
 40
0.5384615384615384
 40
0.5384615384615384
 40
0.5384615384615384
 40
0.5384615384615384
 40
0.6153846153846154
 40
0.6153846153846154
 40
0.6153846153846154
 40
0.6153846153846154
 40
0.6923076923076923
 40
0.6923076923076923
 40
0.6923076923076923
 40
0.6923076923076923
 40
0.7692307692307693
 40
0.7692307692307693
 40
0.7692307692307693
 40
0.7692307692307693
 40
0.8461538461538461
 40
0.8461538461538461
 40
0.8461538461538461
 40
0.8461538461538461
 40
1.0
 40
1.0
 40
1.0
 40
1.0
 10
550.0186203931482
 20
218.97221763273814
 30
0.0
 10
550.0186203931482
 20
218.97221763273814
 30
0.0
 10
550.0186203931482
 20
220.82941763273814
 30
0.0
 10
550.0186203931482
 20
220.82941763273814
 30
0.0
 10
550.0186203931482
 20
220.82941763273814
 30
0.0
 10
550.0043203931484
 20
222.57131763273816
 30
0.0
 10
552.6688203931483
 20
224.68941763273816
 30
0.0
 10
554.7279203931482
 20
224.66671763273814
 30
0.0
 10
554.7279203931482
 20
224.66671763273814
 30
0.0
 10
556.7920203931483
 20
224.66671763273814
 30
0.0
 10
558.8560203931484
 20
224.66671763273814
 30
0.0
 10
560.9197203931483
 20
224.66671763273814
 30
0.0
 10
560.9197203931483
 20
224.66671763273814
 30
0.0
 10
563.1142203931483
 20
224.67551763273815
 30
0.0
 10
564.7125203931485
 20
222.82871763273815
 30
0.0
 10
564.7569203931482
 20
220.91661763273814
 30
0.0
 10
564.7569203931482
 20
220.91661763273814
 30
0.0
 10
564.7565203931483
 20
219.48151763273816
 30
0.0
 10
564.7565203931483
 20
218.04641763273816
 30
0.0
 10
564.7569203931482
 20
216.61091763273814
 30
0.0
 10
564.7569203931482
 20
216.61091763273814
 30
0.0
 10
564.7083203931484
 20
214.95741763273816
 30
0.0
 10
563.1057203931484
 20
212.72741763273814
 30
0.0
 10
560.9074203931484
 20
212.73741763273816
 30
0.0
 10
560.9074203931484
 20
212.73741763273816
 30
0.0
 10
563.1111203931484
 20
212.72621763273816
 30
0.0
 10
564.7191203931484
 20
210.92301763273815
 30
0.0
 10
564.7731203931482
 20
208.86351763273814
 30
0.0
 10
564.7731203931482
 20
208.86351763273814
 30
0.0
 10
564.7727203931483
 20
207.07881763273815
 30
0.0
 10
564.7727203931483
 20
205.29411763273814
 30
0.0
 10
564.7731203931482
 20
203.50901763273814
 30
0.0
 10
564.7731203931482
 20
203.50901763273814
 30
0.0
 10
564.7832203931482
 20
201.44761763273814
 30
0.0
 10
562.7283203931484
 20
199.68451763273814
 30
0.0
 10
560.9074203931484
 20
199.69261763273815
 30
0.0
 10
560.9074203931484
 20
199.69261763273815
 30
0.0
 10
558.8421203931482
 20
199.69291763273816
 30
0.0
 10
556.7769203931482
 20
199.69291763273816
 30
0.0
 10
554.7113203931483
 20
199.69261763273815
 30
0.0
 10
554.7113203931483
 20
199.69261763273815
 30
0.0
 10
552.5427203931483
 20
199.70411763273816
 30
0.0
 10
550.0117203931484
 20
202.10431763273814
 30
0.0
 10
549.9931203931483
 20
203.56611763273816
 30
0.0
 10
549.9931203931483
 20
203.56611763273816
 30
0.0
 10
549.9931203931483
 20
203.56611763273816
 30
0.0
 10
549.9931203931483
 20
205.47471763273813
 30
0.0
 10
549.9931203931483
 20
205.47471763273813
 30
0.0
  0
SPLINE
  5
4B
330
17
100
AcDbEntity
  8
test_spline_2_layer 1
 62
250
370
9
100
AcDbSpline
 70
24
 71
3
 72
8
 73
4
 74
0
 42
1e-09
 40
0.0
 40
0.0
 40
0.0
 40
0.0
 40
1.0
 40
1.0
 40
1.0
 40
1.0
 10
554.7283203931484
 20
212.72701763273815
 30
0.0
 10
554.7283203931484
 20
212.72701763273815
 30
0.0
 10
560.9247203931484
 20
212.72701763273815
 30
0.0
 10
560.9247203931484
 20
212.72701763273815
 30
0.0
  0
SPLINE
  5
4C
330
17
100
AcDbEntity
  8
test_spline_2_layer 1
 62
250
370
9
100
AcDbSpline
 70
11
 71
3
 72
36
 73
32
 74
0
 42
1e-09
 40
0.0
 40
0.0
 40
0.0
 40
0.0
 40
0.1111111111111111
 40
0.1111111111111111
 40
0.1111111111111111
 40
0.1111111111111111
 40
0.2222222222222222
 40
0.2222222222222222
 40
0.2222222222222222
 40
0.2222222222222222
 40
0.3333333333333333
 40
0.3333333333333333
 40
0.3333333333333333
 40
0.3333333333333333
 40
0.4444444444444444
 40
0.4444444444444444
 40
0.4444444444444444
 40
0.4444444444444444
 40
0.5555555555555556
 40
0.5555555555555556
 40
0.5555555555555556
 40
0.5555555555555556
 40
0.6666666666666666
 40
0.6666666666666666
 40
0.6666666666666666
 40
0.6666666666666666
 40
0.7777777777777778
 40
0.7777777777777778
 40
0.7777777777777778
 40
0.7777777777777778
 40
1.0
 40
1.0
 40
1.0
 40
1.0
 10
593.8025203931484
 20
224.67901763273815
 30
0.0
 10
596.1686203931483
 20
224.67901763273815
 30
0.0
 10
598.5351203931484
 20
224.67901763273815
 30
0.0
 10
600.9016203931483
 20
224.67901763273815
 30
0.0
 10
600.9016203931483
 20
224.67901763273815
 30
0.0
 10
602.8821203931484
 20
224.71461763273814
 30
0.0
 10
604.9081203931485
 20
223.22031763273816
 30
0.0
 10
604.9352203931483
 20
220.77821763273815
 30
0.0
 10
604.9352203931483
 20
220.77821763273815
 30
0.0
 10
604.9348203931484
 20
215.02081763273816
 30
0.0
 10
604.9348203931484
 20
209.26301763273815
 30
0.0
 10
604.9352203931483
 20
203.50481763273814
 30
0.0
 10
604.9352203931483
 20
203.50481763273814
 30
0.0
 10
604.7931203931482
 20
201.17721763273815
 30
0.0
 10
603.0867203931482
 20
199.69491763273814
 30
0.0
 10
600.9016203931483
 20
199.68411763273815
 30
0.0
 10
600.9016203931483
 20
199.68411763273815
 30
0.0
 10
598.5292203931483
 20
199.68451763273814
 30
0.0
 10
596.1568203931483
 20
199.68451763273814
 30
0.0
 10
593.7848203931483
 20
199.68411763273815
 30
0.0
 10
593.7848203931483
 20
199.68411763273815
 30
0.0
 10
591.8263203931483
 20
199.57851763273814
 30
0.0
 10
589.8199203931483
 20
201.46641763273814
 30
0.0
 10
589.8313203931482
 20
203.48741763273816
 30
0.0
 10
589.8313203931482
 20
203.48741763273816
 30
0.0
 10
589.8317203931483
 20
209.26801763273815
 30
0.0
 10
589.8317203931483
 20
215.04831763273816
 30
0.0
 10
589.8313203931482
 20
220.82811763273816
 30
0.0
 10
589.8313203931482
 20
220.82811763273816
 30
0.0
 10
589.8356203931482
 20
222.97011763273815
 30
0.0
 10
591.6127203931483
 20
224.69261763273815
 30
0.0
 10
593.8025203931484
 20
224.67901763273815
 30
0.0
  0
SPLINE
  5
4D
330
17
100
AcDbEntity
  8
test_spline_2_layer 1
 62
250
370
9
100
AcDbSpline
 70
11
 71
3
 72
36
 73
32
 74
0
 42
1e-09
 40
0.0
 40
0.0
 40
0.0
 40
0.0
 40
0.1111111111111111
 40
0.1111111111111111
 40
0.1111111111111111
 40
0.1111111111111111
 40
0.2222222222222222
 40
0.2222222222222222
 40
0.2222222222222222
 40
0.2222222222222222
 40
0.3333333333333333
 40
0.3333333333333333
 40
0.3333333333333333
 40
0.3333333333333333
 40
0.4444444444444444
 40
0.4444444444444444
 40
0.4444444444444444
 40
0.4444444444444444
 40
0.5555555555555556
 40
0.5555555555555556
 40
0.5555555555555556
 40
0.5555555555555556
 40
0.6666666666666666
 40
0.6666666666666666
 40
0.6666666666666666
 40
0.6666666666666666
 40
0.7777777777777778
 40
0.7777777777777778
 40
0.7777777777777778
 40
0.7777777777777778
 40
1.0
 40
1.0
 40
1.0
 40
1.0
 10
573.8025203931484
 20
224.67901763273815
 30
0.0
 10
576.1686203931483
 20
224.67901763273815
 30
0.0
 10
578.5351203931484
 20
224.67901763273815
 30
0.0
 10
580.9016203931483
 20
224.67901763273815
 30
0.0
 10
580.9016203931483
 20
224.67901763273815
 30
0.0
 10
582.8821203931484
 20
224.71461763273814
 30
0.0
 10
584.9081203931485
 20
223.22031763273816
 30
0.0
 10
584.9352203931483
 20
220.77821763273815
 30
0.0
 10
584.9352203931483
 20
220.77821763273815
 30
0.0
 10
584.9348203931484
 20
215.02081763273816
 30
0.0
 10
584.9348203931484
 20
209.26301763273815
 30
0.0
 10
584.9352203931483
 20
203.50481763273814
 30
0.0
 10
584.9352203931483
 20
203.50481763273814
 30
0.0
 10
584.7931203931482
 20
201.17721763273815
 30
0.0
 10
583.0867203931482
 20
199.69491763273814
 30
0.0
 10
580.9016203931483
 20
199.68411763273815
 30
0.0
 10
580.9016203931483
 20
199.68411763273815
 30
0.0
 10
578.5292203931483
 20
199.68451763273814
 30
0.0
 10
576.1568203931483
 20
199.68451763273814
 30
0.0
 10
573.7848203931483
 20
199.68411763273815
 30
0.0
 10
573.7848203931483
 20
199.68411763273815
 30
0.0
 10
571.8263203931483
 20
199.57851763273814
 30
0.0
 10
569.8199203931483
 20
201.46641763273814
 30
0.0
 10
569.8313203931482
 20
203.48741763273816
 30
0.0
 10
569.8313203931482
 20
203.48741763273816
 30
0.0
 10
569.8317203931483
 20
209.26801763273815
 30
0.0
 10
569.8317203931483
 20
215.04831763273816
 30
0.0
 10
569.8313203931482
 20
220.82811763273816
 30
0.0
 10
569.8313203931482
 20
220.82811763273816
 30
0.0
 10
569.8356203931482
 20
222.97011763273815
 30
0.0
 10
571.6127203931483
 20
224.69261763273815
 30
0.0
 10
573.8025203931484
 20
224.67901763273815
 30
0.0
  0
SPLINE
  5
4E
330
17
100
AcDbEntity
  8
test_spline_2_layer 2
 62
142
370
158
100
AcDbSpline
 70
8
 71
3
 72
16
 73
12
 74
0
 42
1e-09
 40
0.0
 40
0.0
 40
0.0
 40
0.0
 40
0.25
 40
0.25
 40
0.25
 40
0.25
 40
0.5
 40
0.5
 40
0.5
 40
0.5
 40
1.0
 40
1.0
 40
1.0
 40
1.0
 10
365.1274203931482
 20
890.4756176327382
 30
0.0
 10
370.7602203931483
 20
846.8800176327381
 30
0.0
 10
376.91492039314835
 20
803.0462176327383
 30
0.0
 10
382.1022203931482
 20
759.4348176327383
 30
0.0
 10
382.1022203931482
 20
759.4348176327383
 30
0.0
 10
389.9514203931483
 20
693.4458176327382
 30
0.0
 10
373.2792203931483
 20
495.98911763273816
 30
0.0
 10
366.59972039314835
 20
423.10221763273813
 30
0.0
 10
366.59972039314835
 20
423.10221763273813
 30
0.0
 10
359.89732039314845
 20
349.9668176327381
 30
0.0
 10
352.6988203931485
 20
276.87811763273817
 30
0.0
 10
345.55582039314845
 20
203.78471763273814
 30
0.0
  0
SPLINE
  5
4F
330
17
100
AcDbEntity
  8
test_spline_2_layer 2
 62
142
370
158
100
AcDbSpline
 70
8
 71
3
 72
60
 73
56
 74
0
 42
1e-09
 40
0.0
 40
0.0
 40
0.0
 40
0.0
 40
0.0666666666666667
 40
0.0666666666666667
 40
0.0666666666666667
 40
0.0666666666666667
 40
0.1333333333333333
 40
0.1333333333333333
 40
0.1333333333333333
 40
0.1333333333333333
 40
0.2
 40
0.2
 40
0.2
 40
0.2
 40
0.2666666666666667
 40
0.2666666666666667
 40
0.2666666666666667
 40
0.2666666666666667
 40
0.3333333333333333
 40
0.3333333333333333
 40
0.3333333333333333
 40
0.3333333333333333
 40
0.4
 40
0.4
 40
0.4
 40
0.4
 40
0.4666666666666667
 40
0.4666666666666667
 40
0.4666666666666667
 40
0.4666666666666667
 40
0.5333333333333333
 40
0.5333333333333333
 40
0.5333333333333333
 40
0.5333333333333333
 40
0.6
 40
0.6
 40
0.6
 40
0.6
 40
0.6666666666666666
 40
0.6666666666666666
 40
0.6666666666666666
 40
0.6666666666666666
 40
0.7333333333333333
 40
0.7333333333333333
 40
0.7333333333333333
 40
0.7333333333333333
 40
0.8
 40
0.8
 40
0.8
 40
0.8
 40
0.8666666666666667
 40
0.8666666666666667
 40
0.8666666666666667
 40
0.8666666666666667
 40
1.0
 40
1.0
 40
1.0
 40
1.0
 10
357.38142039314835
 20
167.52701763273814
 30
0.0
 10
492.0936203931483
 20
164.98971763273815
 30
0.0
 10
629.1033203931484
 20
161.77881763273814
 30
0.0
 10
763.7647203931483
 20
165.19221763273814
 30
0.0
 10
763.7647203931483
 20
165.19221763273814
 30
0.0
 10
799.2920203931483
 20
166.09281763273816
 30
0.0
 10
803.0021203931483
 20
174.61001763273813
 30
0.0
 10
785.6987203931483
 20
206.30271763273814
 30
0.0
 10
785.6987203931483
 20
206.30271763273814
 30
0.0
 10
776.3600203931483
 20
223.40751763273815
 30
0.0
 10
763.7203203931483
 20
243.15101763273816
 30
0.0
 10
758.9663203931484
 20
261.92331763273813
 30
0.0
 10
758.9663203931484
 20
261.92331763273813
 30
0.0
 10
752.8094203931485
 20
286.23571763273816
 30
0.0
 10
749.5210203931483
 20
325.7664176327381
 30
0.0
 10
751.5609203931483
 20
350.85571763273816
 30
0.0
 10
751.5609203931483
 20
350.85571763273816
 30
0.0
 10
755.2165203931484
 20
392.85571763273816
 30
0.0
 10
770.9016203931483
 20
434.1509176327381
 30
0.0
 10
778.0170203931482
 20
475.6217176327381
 30
0.0
 10
778.0170203931482
 20
475.6217176327381
 30
0.0
 10
781.9602203931483
 20
498.60411763273817
 30
0.0
 10
779.4382203931484
 20
512.6911176327382
 30
0.0
 10
776.7962203931484
 20
535.3612176327382
 30
0.0
 10
776.7962203931484
 20
535.3612176327382
 30
0.0
 10
772.2214203931483
 20
574.6160176327381
 30
0.0
 10
769.1426203931483
 20
616.7890176327381
 30
0.0
 10
767.5336203931483
 20
656.2972176327382
 30
0.0
 10
767.5336203931483
 20
656.2972176327382
 30
0.0
 10
766.2657203931483
 20
687.4298176327381
 30
0.0
 10
766.4771203931484
 20
716.8452176327382
 30
0.0
 10
767.0996203931484
 20
747.9450176327382
 30
0.0
 10
767.0996203931484
 20
747.9450176327382
 30
0.0
 10
767.9636203931484
 20
791.1159176327383
 30
0.0
 10
767.8021203931482
 20
808.0029176327382
 30
0.0
 10
737.3114203931484
 20
841.2996176327381
 30
0.0
 10
737.3114203931484
 20
841.2996176327381
 30
0.0
 10
715.7872203931483
 20
864.8045176327382
 30
0.0
 10
706.8766203931484
 20
865.9247176327383
 30
0.0
 10
675.7725203931484
 20
867.9764176327383
 30
0.0
 10
675.7725203931484
 20
867.9764176327383
 30
0.0
 10
647.9608203931482
 20
869.8110176327382
 30
0.0
 10
617.8881203931483
 20
868.6398176327382
 30
0.0
 10
589.7914203931484
 20
868.5908176327382
 30
0.0
 10
589.7914203931484
 20
868.5908176327382
 30
0.0
 10
565.9956203931483
 20
868.5493176327382
 30
0.0
 10
476.4576203931483
 20
868.8171176327382
 30
0.0
 10
462.04442039314836
 20
851.3723176327383
 30
0.0
 10
462.04442039314836
 20
851.3723176327383
 30
0.0
 10
454.7788203931484
 20
842.5784176327381
 30
0.0
 10
447.4760203931485
 20
821.0331176327381
 30
0.0
 10
441.1098203931483
 20
809.3979176327382
 30
0.0
 10
441.1098203931483
 20
809.3979176327382
 30
0.0
 10
425.61292039314844
 20
781.0749176327381
 30
0.0
 10
407.4127203931482
 20
768.9885176327382
 30
0.0
 10
383.12242039314833
 20
749.3945176327381
 30
0.0
  0
SPLINE
  5
50
330
17
100
AcDbEntity
  8
test_spline_2_layer 3
 62
242
370
158
100
AcDbSpline
 70
11
 71
3
 72
188
 73
184
 74
0
 42
1e-09
 40
0.0
 40
0.0
 40
0.0
 40
0.0
 40
0.0212765957446809
 40
0.0212765957446809
 40
0.0212765957446809
 40
0.0212765957446809
 40
0.0425531914893617
 40
0.0425531914893617
 40
0.0425531914893617
 40
0.0425531914893617
 40
0.0638297872340425
 40
0.0638297872340425
 40
0.0638297872340425
 40
0.0638297872340425
 40
0.0851063829787234
 40
0.0851063829787234
 40
0.0851063829787234
 40
0.0851063829787234
 40
0.1063829787234043
 40
0.1063829787234043
 40
0.1063829787234043
 40
0.1063829787234043
 40
0.1276595744680851
 40
0.1276595744680851
 40
0.1276595744680851
 40
0.1276595744680851
 40
0.148936170212766
 40
0.148936170212766
 40
0.148936170212766
 40
0.148936170212766
 40
0.1702127659574468
 40
0.1702127659574468
 40
0.1702127659574468
 40
0.1702127659574468
 40
0.1914893617021277
 40
0.1914893617021277
 40
0.1914893617021277
 40
0.1914893617021277
 40
0.2127659574468085
 40
0.2127659574468085
 40
0.2127659574468085
 40
0.2127659574468085
 40
0.2340425531914894
 40
0.2340425531914894
 40
0.2340425531914894
 40
0.2340425531914894
 40
0.2553191489361702
 40
0.2553191489361702
 40
0.2553191489361702
 40
0.2553191489361702
 40
0.2765957446808511
 40
0.2765957446808511
 40
0.2765957446808511
 40
0.2765957446808511
 40
0.2978723404255319
 40
0.2978723404255319
 40
0.2978723404255319
 40
0.2978723404255319
 40
0.3191489361702128
 40
0.3191489361702128
 40
0.3191489361702128
 40
0.3191489361702128
 40
0.3404255319148936
 40
0.3404255319148936
 40
0.3404255319148936
 40
0.3404255319148936
 40
0.3617021276595745
 40
0.3617021276595745
 40
0.3617021276595745
 40
0.3617021276595745
 40
0.3829787234042553
 40
0.3829787234042553
 40
0.3829787234042553
 40
0.3829787234042553
 40
0.4042553191489361
 40
0.4042553191489361
 40
0.4042553191489361
 40
0.4042553191489361
 40
0.425531914893617
 40
0.425531914893617
 40
0.425531914893617
 40
0.425531914893617
 40
0.4468085106382979
 40
0.4468085106382979
 40
0.4468085106382979
 40
0.4468085106382979
 40
0.4680851063829787
 40
0.4680851063829787
 40
0.4680851063829787
 40
0.4680851063829787
 40
0.4893617021276596
 40
0.4893617021276596
 40
0.4893617021276596
 40
0.4893617021276596
 40
0.5106382978723404
 40
0.5106382978723404
 40
0.5106382978723404
 40
0.5106382978723404
 40
0.5319148936170213
 40
0.5319148936170213
 40
0.5319148936170213
 40
0.5319148936170213
 40
0.5531914893617021
 40
0.5531914893617021
 40
0.5531914893617021
 40
0.5531914893617021
 40
0.574468085106383
 40
0.574468085106383
 40
0.574468085106383
 40
0.574468085106383
 40
0.5957446808510638
 40
0.5957446808510638
 40
0.5957446808510638
 40
0.5957446808510638
 40
0.6170212765957447
 40
0.6170212765957447
 40
0.6170212765957447
 40
0.6170212765957447
 40
0.6382978723404256
 40
0.6382978723404256
 40
0.6382978723404256
 40
0.6382978723404256
 40
0.6595744680851063
 40
0.6595744680851063
 40
0.6595744680851063
 40
0.6595744680851063
 40
0.6808510638297872
 40
0.6808510638297872
 40
0.6808510638297872
 40
0.6808510638297872
 40
0.7021276595744681
 40
0.7021276595744681
 40
0.7021276595744681
 40
0.7021276595744681
 40
0.723404255319149
 40
0.723404255319149
 40
0.723404255319149
 40
0.723404255319149
 40
0.7446808510638298
 40
0.7446808510638298
 40
0.7446808510638298
 40
0.7446808510638298
 40
0.7659574468085106
 40
0.7659574468085106
 40
0.7659574468085106
 40
0.7659574468085106
 40
0.7872340425531915
 40
0.7872340425531915
 40
0.7872340425531915
 40
0.7872340425531915
 40
0.8085106382978723
 40
0.8085106382978723
 40
0.8085106382978723
 40
0.8085106382978723
 40
0.8297872340425532
 40
0.8297872340425532
 40
0.8297872340425532
 40
0.8297872340425532
 40
0.851063829787234
 40
0.851063829787234
 40
0.851063829787234
 40
0.851063829787234
 40
0.8723404255319149
 40
0.8723404255319149
 40
0.8723404255319149
 40
0.8723404255319149
 40
0.8936170212765957
 40
0.8936170212765957
 40
0.8936170212765957
 40
0.8936170212765957
 40
0.9148936170212766
 40
0.9148936170212766
 40
0.9148936170212766
 40
0.9148936170212766
 40
0.9361702127659575
 40
0.9361702127659575
 40
0.9361702127659575
 40
0.9361702127659575
 40
0.9574468085106383
 40
0.9574468085106383
 40
0.9574468085106383
 40
0.9574468085106383
 40
1.0
 40
1.0
 40
1.0
 40
1.0
 10
536.2152203931485
 20
923.7716176327383
 30
0.0
 10
525.3876203931484
 20
925.2090176327381
 30
0.0
 10
518.9727203931484
 20
926.6417176327382
 30
0.0
 10
507.9210203931484
 20
925.7096176327382
 30
0.0
 10
507.9210203931484
 20
925.7096176327382
 30
0.0
 10
503.9074203931484
 20
925.3268176327383
 30
0.0
 10
499.8867203931484
 20
924.8637176327381
 30
0.0
 10
495.8761203931483
 20
924.4369176327382
 30
0.0
 10
495.8761203931483
 20
924.4369176327382
 30
0.0
 10
463.92262039314824
 20
921.0503176327381
 30
0.0
 10
378.1683203931482
 20
911.9649176327382
 30
0.0
 10
359.9476203931483
 20
884.6366176327383
 30
0.0
 10
359.9476203931483
 20
884.6366176327383
 30
0.0
 10
349.16942039314836
 20
868.4710176327383
 30
0.0
 10
335.69202039314837
 20
830.0375176327382
 30
0.0
 10
328.2640203931485
 20
810.3950176327382
 30
0.0
 10
328.2640203931485
 20
810.3950176327382
 30
0.0
 10
325.15082039314825
 20
802.1624176327382
 30
0.0
 10
313.62412039314836
 20
769.7979176327383
 30
0.0
 10
313.68312039314833
 20
762.9613176327382
 30
0.0
 10
313.68312039314833
 20
762.9613176327382
 30
0.0
 10
315.90492039314836
 20
759.1429176327383
 30
0.0
 10
324.3898203931483
 20
758.3791176327381
 30
0.0
 10
328.5101203931483
 20
757.6843176327382
 30
0.0
 10
328.5101203931483
 20
757.6843176327382
 30
0.0
 10
336.28042039314846
 20
756.3554176327382
 30
0.0
 10
366.9614203931483
 20
755.3171176327382
 30
0.0
 10
371.50222039314826
 20
752.1659176327382
 30
0.0
 10
371.50222039314826
 20
752.1659176327382
 30
0.0
 10
378.61962039314835
 20
747.2264176327383
 30
0.0
 10
373.5094203931483
 20
741.1505176327382
 30
0.0
 10
369.83342039314834
 20
740.2312176327382
 30
0.0
 10
369.83342039314834
 20
740.2312176327382
 30
0.0
 10
359.3712203931484
 20
737.7221176327382
 30
0.0
 10
315.8716203931483
 20
732.7174176327383
 30
0.0
 10
310.7085203931483
 20
728.3475176327381
 30
0.0
 10
310.7085203931483
 20
728.3475176327381
 30
0.0
 10
307.7824203931484
 20
725.8708176327382
 30
0.0
 10
306.7841203931482
 20
704.8588176327382
 30
0.0
 10
305.0559203931482
 20
684.4115176327382
 30
0.0
 10
305.0559203931482
 20
684.4115176327382
 30
0.0
 10
303.5685203931482
 20
666.8122176327381
 30
0.0
 10
301.0600203931483
 20
649.6307176327382
 30
0.0
 10
301.9015203931483
 20
645.0471176327383
 30
0.0
 10
301.9015203931483
 20
645.0471176327383
 30
0.0
 10
301.9015203931483
 20
645.0471176327383
 30
0.0
 10
301.9744203931484
 20
644.6500176327381
 30
0.0
 10
301.9744203931484
 20
644.6500176327381
 30
0.0
 10
301.9744203931484
 20
644.6500176327381
 30
0.0
 10
305.1829203931484
 20
638.1190176327382
 30
0.0
 10
347.95262039314844
 20
636.3487176327382
 30
0.0
 10
356.8753203931483
 20
634.9556176327382
 30
0.0
 10
356.8753203931483
 20
634.9556176327382
 30
0.0
 10
361.64722039314825
 20
634.1776176327381
 30
0.0
 10
369.7386203931485
 20
630.8839176327382
 30
0.0
 10
368.6828203931484
 20
624.2333176327381
 30
0.0
 10
368.6828203931484
 20
624.2333176327381
 30
0.0
 10
363.0694203931482
 20
611.2047176327382
 30
0.0
 10
306.59192039314826
 20
601.2306176327381
 30
0.0
 10
307.2925203931484
 20
589.7686176327381
 30
0.0
 10
307.2925203931484
 20
589.7686176327381
 30
0.0
 10
307.7511203931483
 20
582.2645176327381
 30
0.0
 10
330.30132039314844
 20
559.8378176327382
 30
0.0
 10
336.01682039314824
 20
552.1655176327381
 30
0.0
 10
336.01682039314824
 20
552.1655176327381
 30
0.0
 10
343.35692039314836
 20
541.2169176327382
 30
0.0
 10
350.9582203931484
 20
524.4047176327382
 30
0.0
 10
353.10242039314835
 20
511.2293176327381
 30
0.0
 10
353.10242039314835
 20
511.2293176327381
 30
0.0
 10
357.64732039314845
 20
479.94681763273815
 30
0.0
 10
352.6724203931483
 20
438.54941763273814
 30
0.0
 10
349.9682203931484
 20
406.7114176327382
 30
0.0
 10
349.9682203931484
 20
406.7114176327382
 30
0.0
 10
347.26902039314837
 20
374.68041763273817
 30
0.0
 10
344.4985203931483
 20
342.6618176327381
 30
0.0
 10
342.1243203931483
 20
310.60411763273817
 30
0.0
 10
342.1243203931483
 20
310.60411763273817
 30
0.0
 10
341.4313203931483
 20
301.16411763273817
 30
0.0
 10
340.8617203931483
 20
291.7578176327381
 30
0.0
 10
340.50192039314834
 20
282.29851763273814
 30
0.0
 10
340.50192039314834
 20
282.29851763273814
 30
0.0
 10
339.6583203931484
 20
259.16991763273813
 30
0.0
 10
344.8514203931484
 20
234.28721763273813
 30
0.0
 10
345.4163203931482
 20
210.54341763273814
 30
0.0
 10
345.4163203931482
 20
210.54341763273814
 30
0.0
 10
345.62462039314846
 20
201.78881763273816
 30
0.0
 10
345.5582203931483
 20
186.64061763273816
 30
0.0
 10
348.7130203931483
 20
178.71301763273814
 30
0.0
 10
348.7130203931483
 20
178.71301763273814
 30
0.0
 10
348.7130203931483
 20
178.71301763273814
 30
0.0
 10
350.4135203931485
 20
175.14461763273815
 30
0.0
 10
350.4135203931485
 20
175.14461763273815
 30
0.0
 10
350.4135203931485
 20
175.14461763273815
 30
0.0
 10
360.6838203931484
 20
162.40351763273816
 30
0.0
 10
369.03522039314817
 20
159.75101763273815
 30
0.0
 10
378.90272039314846
 20
143.61971763273814
 30
0.0
 10
378.90272039314846
 20
143.61971763273814
 30
0.0
 10
385.54172039314835
 20
132.76651763273816
 30
0.0
 10
390.0256203931483
 20
129.75381763273813
 30
0.0
 10
396.8186203931484
 20
129.59191763273816
 30
0.0
 10
396.8186203931484
 20
129.59191763273816
 30
0.0
 10
513.7490203931484
 20
126.80571763273815
 30
0.0
 10
676.2403203931483
 20
132.89261763273814
 30
0.0
 10
793.9171203931485
 20
132.76821763273816
 30
0.0
 10
793.9171203931485
 20
132.76821763273816
 30
0.0
 10
814.0973203931483
 20
132.74691763273816
 30
0.0
 10
840.7157203931483
 20
135.67921763273816
 30
0.0
 10
847.9732203931483
 20
158.15831763273815
 30
0.0
 10
847.9732203931483
 20
158.15831763273815
 30
0.0
 10
852.6728203931482
 20
174.43181763273816
 30
0.0
 10
852.7518203931484
 20
191.90051763273814
 30
0.0
 10
852.4514203931483
 20
208.66991763273813
 30
0.0
 10
852.4514203931483
 20
208.66991763273813
 30
0.0
 10
852.1344203931483
 20
226.37221763273814
 30
0.0
 10
849.7499203931484
 20
265.04121763273815
 30
0.0
 10
855.7013203931483
 20
280.55941763273813
 30
0.0
 10
855.7013203931483
 20
280.55941763273813
 30
0.0
 10
861.0043203931484
 20
294.38661763273814
 30
0.0
 10
865.5614203931484
 20
292.18441763273813
 30
0.0
 10
874.5587203931484
 20
300.41421763273814
 30
0.0
 10
874.5587203931484
 20
300.41421763273814
 30
0.0
 10
882.8343203931483
 20
307.9838176327381
 30
0.0
 10
875.9319203931484
 20
553.4246176327381
 30
0.0
 10
876.0562203931484
 20
584.4054176327381
 30
0.0
 10
876.0562203931484
 20
584.4054176327381
 30
0.0
 10
876.0842203931484
 20
591.1496176327381
 30
0.0
 10
878.8867203931484
 20
615.8358176327381
 30
0.0
 10
872.1544203931483
 20
618.8062176327381
 30
0.0
 10
872.1544203931483
 20
618.8062176327381
 30
0.0
 10
863.7475203931483
 20
621.1883176327382
 30
0.0
 10
822.0261203931484
 20
621.9683176327381
 30
0.0
 10
811.1104203931484
 20
622.3167176327381
 30
0.0
 10
811.1104203931484
 20
622.3167176327381
 30
0.0
 10
802.2184203931483
 20
622.6005176327382
 30
0.0
 10
778.3082203931483
 20
621.3227176327382
 30
0.0
 10
774.3551203931484
 20
631.0963176327382
 30
0.0
 10
774.3551203931484
 20
631.0963176327382
 30
0.0
 10
771.2866203931483
 20
638.6828176327382
 30
0.0
 10
787.4839203931483
 20
643.0826176327382
 30
0.0
 10
792.8247203931485
 20
645.0907176327382
 30
0.0
 10
792.8247203931485
 20
645.0907176327382
 30
0.0
 10
813.7688203931482
 20
652.9656176327383
 30
0.0
 10
835.0303203931483
 20
659.4654176327383
 30
0.0
 10
855.9603203931483
 20
667.2262176327381
 30
0.0
 10
855.9603203931483
 20
667.2262176327381
 30
0.0
 10
874.3629203931484
 20
674.1974176327383
 30
0.0
 10
868.3353203931483
 20
678.9047176327383
 30
0.0
 10
863.6265203931482
 20
695.4357176327383
 30
0.0
 10
863.6265203931482
 20
695.4357176327383
 30
0.0
 10
852.4508203931484
 20
734.6691176327381
 30
0.0
 10
843.1631203931483
 20
778.4599176327381
 30
0.0
 10
834.2478203931485
 20
818.3963176327381
 30
0.0
 10
834.2478203931485
 20
818.3963176327381
 30
0.0
 10
833.2993203931485
 20
822.6679176327382
 30
0.0
 10
831.4206203931483
 20
834.8437176327382
 30
0.0
 10
825.2812203931483
 20
833.8449176327383
 30
0.0
 10
825.2812203931483
 20
833.8449176327383
 30
0.0
 10
816.5778203931484
 20
831.0150176327381
 30
0.0
 10
779.9027203931485
 20
802.6534176327382
 30
0.0
 10
774.6381203931485
 20
809.9731176327382
 30
0.0
 10
774.6381203931485
 20
809.9731176327382
 30
0.0
 10
769.5228203931483
 20
817.0854176327382
 30
0.0
 10
784.1055203931485
 20
829.6265176327381
 30
0.0
 10
788.7800203931483
 20
834.4101176327381
 30
0.0
 10
788.7800203931483
 20
834.4101176327381
 30
0.0
 10
796.1514203931483
 20
841.9537176327383
 30
0.0
 10
805.8988203931483
 20
851.6125176327382
 30
0.0
 10
810.9777203931483
 20
860.7762176327383
 30
0.0
 10
810.9777203931483
 20
860.7762176327383
 30
0.0
 10
812.3915203931483
 20
871.2823176327381
 30
0.0
 10
787.2388203931484
 20
917.6596176327382
 30
0.0
 10
777.9205203931483
 20
921.4928176327383
 30
0.0
 10
777.9205203931483
 20
921.4928176327383
 30
0.0
 10
768.7848203931483
 20
925.2509176327383
 30
0.0
 10
723.3164203931483
 20
925.7557176327382
 30
0.0
 10
710.9465203931484
 20
925.6494176327383
 30
0.0
 10
710.9465203931484
 20
925.6494176327383
 30
0.0
 10
659.4449203931483
 20
924.9789176327381
 30
0.0
 10
604.7279203931482
 20
918.4837176327383
 30
0.0
 10
553.7506203931482
 20
922.0304176327381
 30
0.0
 10
553.7506203931482
 20
922.0304176327381
 30
0.0
 10
547.8591203931483
 20
922.4403176327382
 30
0.0
 10
542.0718203931483
 20
923.0132176327381
 30
0.0
 10
536.2152203931485
 20
923.7716176327383
 30
0.0
  0
SPLINE
  5
51
330
17
100
AcDbEntity
  8
test_spline_4_layer 1
 62
250
370
9
100
AcDbSpline
 70
24
 71
3
 72
8
 73
4
 74
0
 42
1e-09
 40
0.0
 40
0.0
 40
0.0
 40
0.0
 40
1.0
 40
1.0
 40
1.0
 40
1.0
 10
657.0008
 20
1188.647228927055
 30
0.0
 10
657.0008
 20
1188.647228927055
 30
0.0
 10
669.3651000000002
 20
1168.102928927055
 30
0.0
 10
669.3651000000002
 20
1168.102928927055
 30
0.0
  0
SPLINE
  5
52
330
17
100
AcDbEntity
  8
test_spline_4_layer 1
 62
250
370
9
100
AcDbSpline
 70
24
 71
3
 72
8
 73
4
 74
0
 42
1e-09
 40
0.0
 40
0.0
 40
0.0
 40
0.0
 40
1.0
 40
1.0
 40
1.0
 40
1.0
 10
639.2709000000002
 20
1188.647228927055
 30
0.0
 10
639.2709000000002
 20
1188.647228927055
 30
0.0
 10
651.6351999999999
 20
1168.102928927055
 30
0.0
 10
651.6351999999999
 20
1168.102928927055
 30
0.0
  0
SPLINE
  5
53
330
17
100
AcDbEntity
  8
test_spline_4_layer 1
 62
250
370
9
100
AcDbSpline
 70
8
 71
3
 72
32
 73
28
 74
0
 42
1e-09
 40
0.0
 40
0.0
 40
0.0
 40
0.0
 40
0.125
 40
0.125
 40
0.125
 40
0.125
 40
0.25
 40
0.25
 40
0.25
 40
0.25
 40
0.375
 40
0.375
 40
0.375
 40
0.375
 40
0.5
 40
0.5
 40
0.5
 40
0.5
 40
0.625
 40
0.625
 40
0.625
 40
0.625
 40
0.75
 40
0.75
 40
0.75
 40
0.75
 40
1.0
 40
1.0
 40
1.0
 40
1.0
 10
86.29050000000007
 20
984.760528927055
 30
0.0
 10
86.16529999999989
 20
982.679528927055
 30
0.0
 10
84.66309999999999
 20
981.354328927055
 30
0.0
 10
82.73940000000016
 20
981.3446289270549
 30
0.0
 10
82.73940000000016
 20
981.3446289270549
 30
0.0
 10
80.65080000000012
 20
981.344928927055
 30
0.0
 10
78.56220000000008
 20
981.344928927055
 30
0.0
 10
76.47390000000019
 20
981.3446289270549
 30
0.0
 10
76.47390000000019
 20
981.3446289270549
 30
0.0
 10
74.74970000000008
 20
981.250228927055
 30
0.0
 10
72.9833000000001
 20
982.938128927055
 30
0.0
 10
72.99330000000009
 20
984.744928927055
 30
0.0
 10
72.99330000000009
 20
984.744928927055
 30
0.0
 10
72.99370000000022
 20
989.913128927055
 30
0.0
 10
72.99370000000022
 20
995.080828927055
 30
0.0
 10
72.99330000000009
 20
1000.248228927055
 30
0.0
 10
72.99330000000009
 20
1000.248228927055
 30
0.0
 10
72.99710000000005
 20
1002.163328927055
 30
0.0
 10
74.5616
 20
1003.703228927055
 30
0.0
 10
76.48949999999991
 20
1003.6911289270549
 30
0.0
 10
76.48949999999991
 20
1003.6911289270549
 30
0.0
 10
78.57249999999999
 20
1003.6911289270549
 30
0.0
 10
80.65600000000018
 20
1003.6911289270549
 30
0.0
 10
82.73940000000016
 20
1003.6911289270549
 30
0.0
 10
82.73940000000016
 20
1003.6911289270549
 30
0.0
 10
84.4829000000002
 20
1003.722928927055
 30
0.0
 10
86.26660000000015
 20
1002.387028927055
 30
0.0
 10
86.29050000000007
 20
1000.203628927055
 30
0.0
  0
SPLINE
  5
54
330
17
100
AcDbEntity
  8
test_spline_4_layer 1
 62
250
370
9
100
AcDbSpline
 70
8
 71
3
 72
52
 73
48
 74
0
 42
1e-09
 40
0.0
 40
0.0
 40
0.0
 40
0.0
 40
0.0769230769230769
 40
0.0769230769230769
 40
0.0769230769230769
 40
0.0769230769230769
 40
0.1538461538461539
 40
0.1538461538461539
 40
0.1538461538461539
 40
0.1538461538461539
 40
0.2307692307692308
 40
0.2307692307692308
 40
0.2307692307692308
 40
0.2307692307692308
 40
0.3076923076923077
 40
0.3076923076923077
 40
0.3076923076923077
 40
0.3076923076923077
 40
0.3846153846153846
 40
0.3846153846153846
 40
0.3846153846153846
 40
0.3846153846153846
 40
0.4615384615384616
 40
0.4615384615384616
 40
0.4615384615384616
 40
0.4615384615384616
 40
0.5384615384615384
 40
0.5384615384615384
 40
0.5384615384615384
 40
0.5384615384615384
 40
0.6153846153846154
 40
0.6153846153846154
 40
0.6153846153846154
 40
0.6153846153846154
 40
0.6923076923076923
 40
0.6923076923076923
 40
0.6923076923076923
 40
0.6923076923076923
 40
0.7692307692307693
 40
0.7692307692307693
 40
0.7692307692307693
 40
0.7692307692307693
 40
0.8461538461538461
 40
0.8461538461538461
 40
0.8461538461538461
 40
0.8461538461538461
 40
1.0
 40
1.0
 40
1.0
 40
1.0
 10
333.49520000000007
 20
987.990828927055
 30
0.0
 10
333.49520000000007
 20
987.990828927055
 30
0.0
 10
333.49520000000007
 20
989.848028927055
 30
0.0
 10
333.49520000000007
 20
989.848028927055
 30
0.0
 10
333.49520000000007
 20
989.848028927055
 30
0.0
 10
333.4809
 20
991.589928927055
 30
0.0
 10
336.1454000000001
 20
993.708028927055
 30
0.0
 10
338.20450000000005
 20
993.685328927055
 30
0.0
 10
338.20450000000005
 20
993.685328927055
 30
0.0
 10
340.2686000000001
 20
993.685328927055
 30
0.0
 10
342.33259999999996
 20
993.685328927055
 30
0.0
 10
344.3963000000001
 20
993.685328927055
 30
0.0
 10
344.3963000000001
 20
993.685328927055
 30
0.0
 10
346.5908000000002
 20
993.694128927055
 30
0.0
 10
348.18910000000005
 20
991.847328927055
 30
0.0
 10
348.23350000000005
 20
989.9352289270549
 30
0.0
 10
348.23350000000005
 20
989.9352289270549
 30
0.0
 10
348.23310000000015
 20
988.500128927055
 30
0.0
 10
348.23310000000015
 20
987.065028927055
 30
0.0
 10
348.23350000000005
 20
985.6295289270549
 30
0.0
 10
348.23350000000005
 20
985.6295289270549
 30
0.0
 10
348.18489999999997
 20
983.976028927055
 30
0.0
 10
346.58230000000003
 20
981.746028927055
 30
0.0
 10
344.384
 20
981.756028927055
 30
0.0
 10
344.384
 20
981.756028927055
 30
0.0
 10
346.58770000000004
 20
981.744828927055
 30
0.0
 10
348.1957
 20
979.941628927055
 30
0.0
 10
348.2497000000001
 20
977.882128927055
 30
0.0
 10
348.2497000000001
 20
977.882128927055
 30
0.0
 10
348.2493000000002
 20
976.097428927055
 30
0.0
 10
348.2493000000002
 20
974.312728927055
 30
0.0
 10
348.2497000000001
 20
972.5276289270549
 30
0.0
 10
348.2497000000001
 20
972.5276289270549
 30
0.0
 10
348.25980000000004
 20
970.466228927055
 30
0.0
 10
346.20489999999995
 20
968.703128927055
 30
0.0
 10
344.384
 20
968.711228927055
 30
0.0
 10
344.384
 20
968.711228927055
 30
0.0
 10
342.31870000000004
 20
968.711528927055
 30
0.0
 10
340.25350000000003
 20
968.711528927055
 30
0.0
 10
338.1879000000001
 20
968.711228927055
 30
0.0
 10
338.1879000000001
 20
968.711228927055
 30
0.0
 10
336.01930000000016
 20
968.722728927055
 30
0.0
 10
333.4883000000002
 20
971.122928927055
 30
0.0
 10
333.4697000000001
 20
972.584728927055
 30
0.0
 10
333.4697000000001
 20
972.584728927055
 30
0.0
 10
333.4697000000001
 20
972.584728927055
 30
0.0
 10
333.4697000000001
 20
974.493328927055
 30
0.0
 10
333.4697000000001
 20
974.493328927055
 30
0.0
  0
SPLINE
  5
55
330
17
100
AcDbEntity
  8
test_spline_4_layer 1
 62
250
370
9
100
AcDbSpline
 70
24
 71
3
 72
8
 73
4
 74
0
 42
1e-09
 40
0.0
 40
0.0
 40
0.0
 40
0.0
 40
1.0
 40
1.0
 40
1.0
 40
1.0
 10
338.20489999999995
 20
981.745628927055
 30
0.0
 10
338.20489999999995
 20
981.745628927055
 30
0.0
 10
344.4013
 20
981.745628927055
 30
0.0
 10
344.4013
 20
981.745628927055
 30
0.0
  0
SPLINE
  5
56
330
17
100
AcDbEntity
  8
test_spline_4_layer 1
 62
250
370
9
100
AcDbSpline
 70
11
 71
3
 72
36
 73
32
 74
0
 42
1e-09
 40
0.0
 40
0.0
 40
0.0
 40
0.0
 40
0.1111111111111111
 40
0.1111111111111111
 40
0.1111111111111111
 40
0.1111111111111111
 40
0.2222222222222222
 40
0.2222222222222222
 40
0.2222222222222222
 40
0.2222222222222222
 40
0.3333333333333333
 40
0.3333333333333333
 40
0.3333333333333333
 40
0.3333333333333333
 40
0.4444444444444444
 40
0.4444444444444444
 40
0.4444444444444444
 40
0.4444444444444444
 40
0.5555555555555556
 40
0.5555555555555556
 40
0.5555555555555556
 40
0.5555555555555556
 40
0.6666666666666666
 40
0.6666666666666666
 40
0.6666666666666666
 40
0.6666666666666666
 40
0.7777777777777778
 40
0.7777777777777778
 40
0.7777777777777778
 40
0.7777777777777778
 40
1.0
 40
1.0
 40
1.0
 40
1.0
 10
377.27909999999997
 20
993.697628927055
 30
0.0
 10
379.64520000000016
 20
993.697628927055
 30
0.0
 10
382.0117
 20
993.697628927055
 30
0.0
 10
384.3781999999999
 20
993.697628927055
 30
0.0
 10
384.3781999999999
 20
993.697628927055
 30
0.0
 10
386.3587
 20
993.7332289270549
 30
0.0
 10
388.38470000000007
 20
992.238928927055
 30
0.0
 10
388.4118000000001
 20
989.796828927055
 30
0.0
 10
388.4118000000001
 20
989.796828927055
 30
0.0
 10
388.4114000000002
 20
984.039428927055
 30
0.0
 10
388.4114000000002
 20
978.281628927055
 30
0.0
 10
388.4118000000001
 20
972.523428927055
 30
0.0
 10
388.4118000000001
 20
972.523428927055
 30
0.0
 10
388.26970000000006
 20
970.195828927055
 30
0.0
 10
386.5633
 20
968.713528927055
 30
0.0
 10
384.3781999999999
 20
968.702728927055
 30
0.0
 10
384.3781999999999
 20
968.702728927055
 30
0.0
 10
382.00580000000014
 20
968.703128927055
 30
0.0
 10
379.63339999999994
 20
968.703128927055
 30
0.0
 10
377.2614000000001
 20
968.702728927055
 30
0.0
 10
377.2614000000001
 20
968.702728927055
 30
0.0
 10
375.3028999999999
 20
968.597128927055
 30
0.0
 10
373.29650000000015
 20
970.4850289270549
 30
0.0
 10
373.3079
 20
972.506028927055
 30
0.0
 10
373.3079
 20
972.506028927055
 30
0.0
 10
373.3082999999999
 20
978.286628927055
 30
0.0
 10
373.3082999999999
 20
984.066928927055
 30
0.0
 10
373.3079
 20
989.846728927055
 30
0.0
 10
373.3079
 20
989.846728927055
 30
0.0
 10
373.3122000000001
 20
991.988728927055
 30
0.0
 10
375.0893000000001
 20
993.711228927055
 30
0.0
 10
377.27909999999997
 20
993.697628927055
 30
0.0
  0
SPLINE
  5
57
330
17
100
AcDbEntity
  8
test_spline_4_layer 1
 62
250
370
9
100
AcDbSpline
 70
11
 71
3
 72
36
 73
32
 74
0
 42
1e-09
 40
0.0
 40
0.0
 40
0.0
 40
0.0
 40
0.1111111111111111
 40
0.1111111111111111
 40
0.1111111111111111
 40
0.1111111111111111
 40
0.2222222222222222
 40
0.2222222222222222
 40
0.2222222222222222
 40
0.2222222222222222
 40
0.3333333333333333
 40
0.3333333333333333
 40
0.3333333333333333
 40
0.3333333333333333
 40
0.4444444444444444
 40
0.4444444444444444
 40
0.4444444444444444
 40
0.4444444444444444
 40
0.5555555555555556
 40
0.5555555555555556
 40
0.5555555555555556
 40
0.5555555555555556
 40
0.6666666666666666
 40
0.6666666666666666
 40
0.6666666666666666
 40
0.6666666666666666
 40
0.7777777777777778
 40
0.7777777777777778
 40
0.7777777777777778
 40
0.7777777777777778
 40
1.0
 40
1.0
 40
1.0
 40
1.0
 10
357.27909999999997
 20
993.697628927055
 30
0.0
 10
359.64520000000016
 20
993.697628927055
 30
0.0
 10
362.0117
 20
993.697628927055
 30
0.0
 10
364.3781999999999
 20
993.697628927055
 30
0.0
 10
364.3781999999999
 20
993.697628927055
 30
0.0
 10
366.3587
 20
993.7332289270549
 30
0.0
 10
368.38470000000007
 20
992.238928927055
 30
0.0
 10
368.4118000000001
 20
989.796828927055
 30
0.0
 10
368.4118000000001
 20
989.796828927055
 30
0.0
 10
368.4114000000002
 20
984.039428927055
 30
0.0
 10
368.4114000000002
 20
978.281628927055
 30
0.0
 10
368.4118000000001
 20
972.523428927055
 30
0.0
 10
368.4118000000001
 20
972.523428927055
 30
0.0
 10
368.26970000000006
 20
970.195828927055
 30
0.0
 10
366.5633
 20
968.713528927055
 30
0.0
 10
364.3781999999999
 20
968.702728927055
 30
0.0
 10
364.3781999999999
 20
968.702728927055
 30
0.0
 10
362.00580000000014
 20
968.703128927055
 30
0.0
 10
359.63339999999994
 20
968.703128927055
 30
0.0
 10
357.2614000000001
 20
968.702728927055
 30
0.0
 10
357.2614000000001
 20
968.702728927055
 30
0.0
 10
355.3028999999999
 20
968.597128927055
 30
0.0
 10
353.29650000000015
 20
970.4850289270549
 30
0.0
 10
353.3079
 20
972.506028927055
 30
0.0
 10
353.3079
 20
972.506028927055
 30
0.0
 10
353.3082999999999
 20
978.286628927055
 30
0.0
 10
353.3082999999999
 20
984.066928927055
 30
0.0
 10
353.3079
 20
989.846728927055
 30
0.0
 10
353.3079
 20
989.846728927055
 30
0.0
 10
353.3122000000001
 20
991.988728927055
 30
0.0
 10
355.0893000000001
 20
993.711228927055
 30
0.0
 10
357.27909999999997
 20
993.697628927055
 30
0.0
  0
SPLINE
  5
58
330
17
100
AcDbEntity
  8
test_spline_4_layer 2
 62
142
370
158
100
AcDbSpline
 70
8
 71
3
 72
16
 73
12
 74
0
 42
1e-09
 40
0.0
 40
0.0
 40
0.0
 40
0.0
 40
0.25
 40
0.25
 40
0.25
 40
0.25
 40
0.5
 40
0.5
 40
0.5
 40
0.5
 40
1.0
 40
1.0
 40
1.0
 40
1.0
 10
521.5715000000002
 20
1429.860828927055
 30
0.0
 10
521.7626
 20
1369.5312289270548
 30
0.0
 10
520.4244999999999
 20
1307.733228927055
 30
0.0
 10
522.0896
 20
1247.571028927055
 30
0.0
 10
522.0896
 20
1247.571028927055
 30
0.0
 10
522.8415000000002
 20
1220.403328927055
 30
0.0
 10
536.0878
 20
1220.122028927055
 30
0.0
 10
558.8507000000002
 20
1218.797628927055
 30
0.0
 10
558.8507000000002
 20
1218.797628927055
 30
0.0
 10
586.1216000000002
 20
1217.211028927055
 30
0.0
 10
612.6423000000002
 20
1217.780328927055
 30
0.0
 10
639.9069999999999
 20
1218.260028927055
 30
0.0
  0
SPLINE
  5
59
330
17
100
AcDbEntity
  8
test_spline_4_layer 2
 62
142
370
158
100
AcDbSpline
 70
8
 71
3
 72
24
 73
20
 74
0
 42
1e-09
 40
0.0
 40
0.0
 40
0.0
 40
0.0
 40
0.1666666666666667
 40
0.1666666666666667
 40
0.1666666666666667
 40
0.1666666666666667
 40
0.3333333333333333
 40
0.3333333333333333
 40
0.3333333333333333
 40
0.3333333333333333
 40
0.5
 40
0.5
 40
0.5
 40
0.5
 40
0.6666666666666666
 40
0.6666666666666666
 40
0.6666666666666666
 40
0.6666666666666666
 40
1.0
 40
1.0
 40
1.0
 40
1.0
 10
639.5759
 20
1237.930928927055
 30
0.0
 10
639.5759
 20
1237.930928927055
 30
0.0
 10
643.1483000000001
 20
944.614428927055
 30
0.0
 10
643.1483000000001
 20
944.614428927055
 30
0.0
 10
643.1483000000001
 20
944.614428927055
 30
0.0
 10
643.9950000000001
 20
929.877128927055
 30
0.0
 10
653.3936000000001
 20
807.929228927055
 30
0.0
 10
649.44
 20
802.624028927055
 30
0.0
 10
649.44
 20
802.624028927055
 30
0.0
 10
645.6030000000001
 20
797.475428927055
 30
0.0
 10
635.3365999999999
 20
796.851128927055
 30
0.0
 10
629.7699
 20
799.107128927055
 30
0.0
 10
629.7699
 20
799.107128927055
 30
0.0
 10
608.8777000000002
 20
807.574228927055
 30
0.0
 10
599.5795
 20
819.280428927055
 30
0.0
 10
584.5184999999999
 20
834.655128927055
 30
0.0
 10
584.5184999999999
 20
834.655128927055
 30
0.0
 10
548.6198000000002
 20
871.3017289270549
 30
0.0
 10
512.7654
 20
907.9701289270549
 30
0.0
 10
476.6572000000001
 20
944.410528927055
 30
0.0
  0
SPLINE
  5
5A
330
17
100
AcDbEntity
  8
test_spline_4_layer 2
 62
142
370
158
100
AcDbSpline
 70
8
 71
3
 72
36
 73
32
 74
0
 42
1e-09
 40
0.0
 40
0.0
 40
0.0
 40
0.0
 40
0.1111111111111111
 40
0.1111111111111111
 40
0.1111111111111111
 40
0.1111111111111111
 40
0.2222222222222222
 40
0.2222222222222222
 40
0.2222222222222222
 40
0.2222222222222222
 40
0.3333333333333333
 40
0.3333333333333333
 40
0.3333333333333333
 40
0.3333333333333333
 40
0.4444444444444444
 40
0.4444444444444444
 40
0.4444444444444444
 40
0.4444444444444444
 40
0.5555555555555556
 40
0.5555555555555556
 40
0.5555555555555556
 40
0.5555555555555556
 40
0.6666666666666666
 40
0.6666666666666666
 40
0.6666666666666666
 40
0.6666666666666666
 40
0.7777777777777778
 40
0.7777777777777778
 40
0.7777777777777778
 40
0.7777777777777778
 40
1.0
 40
1.0
 40
1.0
 40
1.0
 10
469.43280000000004
 20
946.122128927055
 30
0.0
 10
454.1894
 20
953.354128927055
 30
0.0
 10
452.30410000000006
 20
951.542028927055
 30
0.0
 10
436.0223000000001
 20
951.159128927055
 30
0.0
 10
436.0223000000001
 20
951.159128927055
 30
0.0
 10
392.9082000000001
 20
950.145328927055
 30
0.0
 10
205.98170000000005
 20
939.226328927055
 30
0.0
 10
176.28759999999988
 20
948.999028927055
 30
0.0
 10
176.28759999999988
 20
948.999028927055
 30
0.0
 10
161.28140000000008
 20
954.921028927055
 30
0.0
 10
160.8674000000001
 20
966.973928927055
 30
0.0
 10
161.02639999999997
 20
980.992928927055
 30
0.0
 10
161.02639999999997
 20
980.992928927055
 30
0.0
 10
161.96360000000004
 20
1049.401828927055
 30
0.0
 10
164.11780000000022
 20
1117.878328927055
 30
0.0
 10
165.05460000000016
 20
1186.339228927055
 30
0.0
 10
165.05460000000016
 20
1186.339228927055
 30
0.0
 10
165.12110000000007
 20
1191.237628927055
 30
0.0
 10
164.08909999999992
 20
1203.248828927055
 30
0.0
 10
167.77600000000007
 20
1206.546528927055
 30
0.0
 10
167.77600000000007
 20
1206.546528927055
 30
0.0
 10
178.49360000000001
 20
1213.815828927055
 30
0.0
 10
208.87760000000003
 20
1203.226128927055
 30
0.0
 10
222.14610000000016
 20
1221.697328927055
 30
0.0
 10
222.14610000000016
 20
1221.697328927055
 30
0.0
 10
233.80970000000002
 20
1238.685428927055
 30
0.0
 10
233.7414000000001
 20
1261.505428927055
 30
0.0
 10
235.53780000000006
 20
1281.4821289270549
 30
0.0
 10
235.53780000000006
 20
1281.4821289270549
 30
0.0
 10
239.6929
 20
1327.684728927055
 30
0.0
 10
236.9231000000002
 20
1384.002728927055
 30
0.0
 10
237.21170000000006
 20
1431.132128927055
 30
0.0
  0
SPLINE
  5
5B
330
17
100
AcDbEntity
  8
test_spline_4_layer 2
 62
142
370
158
100
AcDbSpline
 70
8
 71
3
 72
20
 73
16
 74
0
 42
1e-09
 40
0.0
 40
0.0
 40
0.0
 40
0.0
 40
0.2
 40
0.2
 40
0.2
 40
0.2
 40
0.4
 40
0.4
 40
0.4
 40
0.4
 40
0.6
 40
0.6
 40
0.6
 40
0.6
 40
1.0
 40
1.0
 40
1.0
 40
1.0
 10
116.03120000000013
 20
1264.627428927055
 30
0.0
 10
115.99320000000012
 20
1177.2305289270548
 30
0.0
 10
115.90530000000012
 20
1089.8807289270549
 30
0.0
 10
115.64070000000015
 20
1002.483628927055
 30
0.0
 10
115.64070000000015
 20
1002.483628927055
 30
0.0
 10
115.6074000000001
 20
991.502528927055
 30
0.0
 10
115.64630000000011
 20
980.531728927055
 30
0.0
 10
115.8252
 20
969.551828927055
 30
0.0
 10
115.8252
 20
969.551828927055
 30
0.0
 10
116.05590000000007
 20
955.987228927055
 30
0.0
 10
120.54909999999995
 20
936.3573289270549
 30
0.0
 10
129.25200000000018
 20
925.777928927055
 30
0.0
 10
129.25200000000018
 20
925.777928927055
 30
0.0
 10
136.88609999999994
 20
916.497828927055
 30
0.0
 10
143.15210000000002
 20
912.588628927055
 30
0.0
 10
153.50459999999998
 20
906.893928927055
 30
0.0
  0
SPLINE
  5
5C
330
17
100
AcDbEntity
  8
test_spline_4_layer 2
 62
142
370
158
100
AcDbSpline
 70
24
 71
3
 72
8
 73
4
 74
0
 42
1e-09
 40
0.0
 40
0.0
 40
0.0
 40
0.0
 40
1.0
 40
1.0
 40
1.0
 40
1.0
 10
10.071300000000065
 20
857.5085289270551
 30
0.0
 10
10.071300000000065
 20
857.5085289270551
 30
0.0
 10
140.375
 20
857.857528927055
 30
0.0
 10
140.375
 20
857.857528927055
 30
0.0
  0
SPLINE
  5
5D
330
17
100
AcDbEntity
  8
test_spline_4_layer 3
 62
242
370
158
100
AcDbSpline
 70
11
 71
3
 72
232
 73
228
 74
0
 42
1e-09
 40
0.0
 40
0.0
 40
0.0
 40
0.0
 40
0.0172413793103448
 40
0.0172413793103448
 40
0.0172413793103448
 40
0.0172413793103448
 40
0.0344827586206897
 40
0.0344827586206897
 40
0.0344827586206897
 40
0.0344827586206897
 40
0.0517241379310345
 40
0.0517241379310345
 40
0.0517241379310345
 40
0.0517241379310345
 40
0.0689655172413793
 40
0.0689655172413793
 40
0.0689655172413793
 40
0.0689655172413793
 40
0.0862068965517241
 40
0.0862068965517241
 40
0.0862068965517241
 40
0.0862068965517241
 40
0.103448275862069
 40
0.103448275862069
 40
0.103448275862069
 40
0.103448275862069
 40
0.1206896551724138
 40
0.1206896551724138
 40
0.1206896551724138
 40
0.1206896551724138
 40
0.1379310344827586
 40
0.1379310344827586
 40
0.1379310344827586
 40
0.1379310344827586
 40
0.1551724137931035
 40
0.1551724137931035
 40
0.1551724137931035
 40
0.1551724137931035
 40
0.1724137931034483
 40
0.1724137931034483
 40
0.1724137931034483
 40
0.1724137931034483
 40
0.1896551724137931
 40
0.1896551724137931
 40
0.1896551724137931
 40
0.1896551724137931
 40
0.2068965517241379
 40
0.2068965517241379
 40
0.2068965517241379
 40
0.2068965517241379
 40
0.2241379310344828
 40
0.2241379310344828
 40
0.2241379310344828
 40
0.2241379310344828
 40
0.2413793103448276
 40
0.2413793103448276
 40
0.2413793103448276
 40
0.2413793103448276
 40
0.2586206896551724
 40
0.2586206896551724
 40
0.2586206896551724
 40
0.2586206896551724
 40
0.2758620689655172
 40
0.2758620689655172
 40
0.2758620689655172
 40
0.2758620689655172
 40
0.293103448275862
 40
0.293103448275862
 40
0.293103448275862
 40
0.293103448275862
 40
0.3103448275862069
 40
0.3103448275862069
 40
0.3103448275862069
 40
0.3103448275862069
 40
0.3275862068965517
 40
0.3275862068965517
 40
0.3275862068965517
 40
0.3275862068965517
 40
0.3448275862068966
 40
0.3448275862068966
 40
0.3448275862068966
 40
0.3448275862068966
 40
0.3620689655172414
 40
0.3620689655172414
 40
0.3620689655172414
 40
0.3620689655172414
 40
0.3793103448275862
 40
0.3793103448275862
 40
0.3793103448275862
 40
0.3793103448275862
 40
0.396551724137931
 40
0.396551724137931
 40
0.396551724137931
 40
0.396551724137931
 40
0.4137931034482759
 40
0.4137931034482759
 40
0.4137931034482759
 40
0.4137931034482759
 40
0.4310344827586207
 40
0.4310344827586207
 40
0.4310344827586207
 40
0.4310344827586207
 40
0.4482758620689655
 40
0.4482758620689655
 40
0.4482758620689655
 40
0.4482758620689655
 40
0.4655172413793103
 40
0.4655172413793103
 40
0.4655172413793103
 40
0.4655172413793103
 40
0.4827586206896552
 40
0.4827586206896552
 40
0.4827586206896552
 40
0.4827586206896552
 40
0.5
 40
0.5
 40
0.5
 40
0.5
 40
0.5172413793103449
 40
0.5172413793103449
 40
0.5172413793103449
 40
0.5172413793103449
 40
0.5344827586206896
 40
0.5344827586206896
 40
0.5344827586206896
 40
0.5344827586206896
 40
0.5517241379310345
 40
0.5517241379310345
 40
0.5517241379310345
 40
0.5517241379310345
 40
0.5689655172413793
 40
0.5689655172413793
 40
0.5689655172413793
 40
0.5689655172413793
 40
0.5862068965517241
 40
0.5862068965517241
 40
0.5862068965517241
 40
0.5862068965517241
 40
0.603448275862069
 40
0.603448275862069
 40
0.603448275862069
 40
0.603448275862069
 40
0.6206896551724138
 40
0.6206896551724138
 40
0.6206896551724138
 40
0.6206896551724138
 40
0.6379310344827587
 40
0.6379310344827587
 40
0.6379310344827587
 40
0.6379310344827587
 40
0.6551724137931034
 40
0.6551724137931034
 40
0.6551724137931034
 40
0.6551724137931034
 40
0.6724137931034483
 40
0.6724137931034483
 40
0.6724137931034483
 40
0.6724137931034483
 40
0.6896551724137931
 40
0.6896551724137931
 40
0.6896551724137931
 40
0.6896551724137931
 40
0.7068965517241379
 40
0.7068965517241379
 40
0.7068965517241379
 40
0.7068965517241379
 40
0.7241379310344828
 40
0.7241379310344828
 40
0.7241379310344828
 40
0.7241379310344828
 40
0.7413793103448276
 40
0.7413793103448276
 40
0.7413793103448276
 40
0.7413793103448276
 40
0.7586206896551724
 40
0.7586206896551724
 40
0.7586206896551724
 40
0.7586206896551724
 40
0.7758620689655172
 40
0.7758620689655172
 40
0.7758620689655172
 40
0.7758620689655172
 40
0.7931034482758621
 40
0.7931034482758621
 40
0.7931034482758621
 40
0.7931034482758621
 40
0.8103448275862069
 40
0.8103448275862069
 40
0.8103448275862069
 40
0.8103448275862069
 40
0.8275862068965517
 40
0.8275862068965517
 40
0.8275862068965517
 40
0.8275862068965517
 40
0.8448275862068966
 40
0.8448275862068966
 40
0.8448275862068966
 40
0.8448275862068966
 40
0.8620689655172413
 40
0.8620689655172413
 40
0.8620689655172413
 40
0.8620689655172413
 40
0.8793103448275862
 40
0.8793103448275862
 40
0.8793103448275862
 40
0.8793103448275862
 40
0.896551724137931
 40
0.896551724137931
 40
0.896551724137931
 40
0.896551724137931
 40
0.9137931034482759
 40
0.9137931034482759
 40
0.9137931034482759
 40
0.9137931034482759
 40
0.9310344827586207
 40
0.9310344827586207
 40
0.9310344827586207
 40
0.9310344827586207
 40
0.9482758620689655
 40
0.9482758620689655
 40
0.9482758620689655
 40
0.9482758620689655
 40
0.9655172413793104
 40
0.9655172413793104
 40
0.9655172413793104
 40
0.9655172413793104
 40
1.0
 40
1.0
 40
1.0
 40
1.0
 10
13.867200000000025
 20
799.314828927055
 30
0.0
 10
15.561000000000035
 20
797.873128927055
 30
0.0
 10
18.590700000000083
 20
797.508028927055
 30
0.0
 10
24.045900000000074
 20
797.586828927055
 30
0.0
 10
24.045900000000074
 20
797.586828927055
 30
0.0
 10
48.81619999999998
 20
797.944528927055
 30
0.0
 10
119.9335000000001
 20
793.232428927055
 30
0.0
 10
139.81060000000002
 20
798.7069289270551
 30
0.0
 10
139.81060000000002
 20
798.7069289270551
 30
0.0
 10
147.91470000000004
 20
801.0203289270551
 30
0.0
 10
152.50499999999988
 20
802.5173289270549
 30
0.0
 10
150.65150000000017
 20
812.074828927055
 30
0.0
 10
150.65150000000017
 20
812.074828927055
 30
0.0
 10
147.7391
 20
827.092728927055
 30
0.0
 10
141.2197000000001
 20
842.182728927055
 30
0.0
 10
140.375
 20
857.857528927055
 30
0.0
 10
140.375
 20
857.857528927055
 30
0.0
 10
140.7496000000001
 20
864.475728927055
 30
0.0
 10
144.53379999999993
 20
869.4249289270549
 30
0.0
 10
144.66100000000006
 20
879.056928927055
 30
0.0
 10
144.66100000000006
 20
879.056928927055
 30
0.0
 10
144.74410000000012
 20
885.353728927055
 30
0.0
 10
142.83990000000017
 20
903.038228927055
 30
0.0
 10
148.85950000000003
 20
906.656628927055
 30
0.0
 10
148.85950000000003
 20
906.656628927055
 30
0.0
 10
154.97000000000003
 20
909.172028927055
 30
0.0
 10
160.27650000000017
 20
902.311228927055
 30
0.0
 10
162.5130999999999
 20
897.494828927055
 30
0.0
 10
162.5130999999999
 20
897.494828927055
 30
0.0
 10
170.29009999999994
 20
877.950328927055
 30
0.0
 10
171.19260000000008
 20
840.0127289270549
 30
0.0
 10
173.03610000000003
 20
818.0072289270549
 30
0.0
 10
173.03610000000003
 20
818.0072289270549
 30
0.0
 10
173.30820000000017
 20
814.759528927055
 30
0.0
 10
172.98070000000007
 20
806.153728927055
 30
0.0
 10
177.79999999999995
 20
806.174428927055
 30
0.0
 10
177.79999999999995
 20
806.174428927055
 30
0.0
 10
232.64830000000006
 20
806.409928927055
 30
0.0
 10
287.4325000000001
 20
807.251328927055
 30
0.0
 10
342.2722000000001
 20
808.279228927055
 30
0.0
 10
342.2722000000001
 20
808.279228927055
 30
0.0
 10
363.79999999999995
 20
808.682728927055
 30
0.0
 10
386.57770000000005
 20
808.7183289270549
 30
0.0
 10
408.01890000000003
 20
809.886328927055
 30
0.0
 10
408.01890000000003
 20
809.886328927055
 30
0.0
 10
412.2128
 20
810.127028927055
 30
0.0
 10
413.6739
 20
813.064828927055
 30
0.0
 10
416.9552000000001
 20
821.136928927055
 30
0.0
 10
416.9552000000001
 20
821.136928927055
 30
0.0
 10
428.87160000000017
 20
850.451428927055
 30
0.0
 10
441.1416999999999
 20
879.369328927055
 30
0.0
 10
453.3599999999999
 20
908.541628927055
 30
0.0
 10
453.3599999999999
 20
908.541628927055
 30
0.0
 10
456.2191
 20
915.294928927055
 30
0.0
 10
459.90139999999997
 20
922.825528927055
 30
0.0
 10
462.19229999999993
 20
929.664028927055
 30
0.0
 10
462.19229999999993
 20
929.664028927055
 30
0.0
 10
463.51970000000006
 20
933.626428927055
 30
0.0
 10
462.5253
 20
938.674728927055
 30
0.0
 10
463.6115000000002
 20
941.835328927055
 30
0.0
 10
463.6115000000002
 20
941.835328927055
 30
0.0
 10
465.3671999999999
 20
946.944428927055
 30
0.0
 10
473.0719999999999
 20
947.305028927055
 30
0.0
 10
476.6572000000001
 20
944.410528927055
 30
0.0
 10
476.6572000000001
 20
944.410528927055
 30
0.0
 10
480.4323999999999
 20
941.362628927055
 30
0.0
 10
478.70640000000003
 20
936.604328927055
 30
0.0
 10
476.13890000000015
 20
933.218328927055
 30
0.0
 10
476.13890000000015
 20
933.218328927055
 30
0.0
 10
475.07220000000007
 20
931.811628927055
 30
0.0
 10
473.3402000000001
 20
931.188728927055
 30
0.0
 10
472.6242
 20
930.1535289270549
 30
0.0
 10
472.6242
 20
930.1535289270549
 30
0.0
 10
469.20990000000006
 20
925.216728927055
 30
0.0
 10
460.1450000000002
 20
897.162628927055
 30
0.0
 10
457.2509
 20
889.3198289270549
 30
0.0
 10
457.2509
 20
889.3198289270549
 30
0.0
 10
454.77250000000004
 20
882.659028927055
 30
0.0
 10
450.0735000000002
 20
874.508928927055
 30
0.0
 10
453.0634
 20
867.4520289270549
 30
0.0
 10
453.0634
 20
867.4520289270549
 30
0.0
 10
457.6255000000001
 20
856.684628927055
 30
0.0
 10
482.384
 20
839.987628927055
 30
0.0
 10
490.43270000000007
 20
827.3080289270549
 30
0.0
 10
490.43270000000007
 20
827.3080289270549
 30
0.0
 10
494.5463
 20
818.9040289270549
 30
0.0
 10
483.51800000000003
 20
782.2745289270549
 30
0.0
 10
484.7608
 20
767.239028927055
 30
0.0
 10
484.7608
 20
767.239028927055
 30
0.0
 10
486.1490000000001
 20
759.606328927055
 30
0.0
 10
496.5054
 20
745.0789289270549
 30
0.0
 10
502.1327000000001
 20
740.403028927055
 30
0.0
 10
502.1327000000001
 20
740.403028927055
 30
0.0
 10
508.78420000000006
 20
734.8759289270549
 30
0.0
 10
516.6027999999999
 20
741.259728927055
 30
0.0
 10
522.9322
 20
745.107728927055
 30
0.0
 10
522.9322
 20
745.107728927055
 30
0.0
 10
546.3389
 20
759.2110289270549
 30
0.0
 10
570.3781000000001
 20
773.080328927055
 30
0.0
 10
594.0307
 20
786.813328927055
 30
0.0
 10
594.0307
 20
786.813328927055
 30
0.0
 10
612.8855000000001
 20
797.7564289270549
 30
0.0
 10
608.5074000000002
 20
798.666528927055
 30
0.0
 10
629.0571000000002
 20
792.403028927055
 30
0.0
 10
629.0571000000002
 20
792.403028927055
 30
0.0
 10
646.7401000000002
 20
787.061328927055
 30
0.0
 10
658.8561000000002
 20
790.5335289270549
 30
0.0
 10
659.1578999999999
 20
811.099428927055
 30
0.0
 10
659.1578999999999
 20
811.099428927055
 30
0.0
 10
658.5840000000001
 20
826.579928927055
 30
0.0
 10
657.8028000000002
 20
842.101028927055
 30
0.0
 10
657.2232000000001
 20
857.606228927055
 30
0.0
 10
657.2232000000001
 20
857.606228927055
 30
0.0
 10
656.8498999999999
 20
867.5806289270549
 30
0.0
 10
656.4766000000002
 20
877.555028927055
 30
0.0
 10
656.1033
 20
887.529428927055
 30
0.0
 10
656.1033
 20
887.529428927055
 30
0.0
 10
653.8635999999999
 20
947.368328927055
 30
0.0
 10
651.7806
 20
1007.254928927055
 30
0.0
 10
649.3768000000002
 20
1067.082328927055
 30
0.0
 10
649.3768000000002
 20
1067.082328927055
 30
0.0
 10
648.8390999999999
 20
1080.4659289270548
 30
0.0
 10
646.9159999999999
 20
1085.109028927055
 30
0.0
 10
653.9042999999999
 20
1097.1866289270552
 30
0.0
 10
653.9042999999999
 20
1097.1866289270552
 30
0.0
 10
660.2504000000001
 20
1108.154228927055
 30
0.0
 10
666.3127000000002
 20
1111.466128927055
 30
0.0
 10
667.0133000000001
 20
1124.588928927055
 30
0.0
 10
667.0133000000001
 20
1124.588928927055
 30
0.0
 10
667.5045000000002
 20
1143.023428927055
 30
0.0
 10
667.6209000000001
 20
1161.766028927055
 30
0.0
 10
667.9923999999999
 20
1180.252528927055
 30
0.0
 10
667.9923999999999
 20
1180.252528927055
 30
0.0
 10
668.0327
 20
1182.257028927055
 30
0.0
 10
668.0730000000001
 20
1184.261528927055
 30
0.0
 10
668.1133000000002
 20
1186.266028927055
 30
0.0
 10
668.1133000000002
 20
1186.266028927055
 30
0.0
 10
668.3666000000001
 20
1198.3624289270551
 30
0.0
 10
668.6625999999999
 20
1210.5942289270552
 30
0.0
 10
669.0807000000002
 20
1222.682828927055
 30
0.0
 10
669.0807000000002
 20
1222.682828927055
 30
0.0
 10
669.5734
 20
1234.064228927055
 30
0.0
 10
671.5400999999999
 20
1237.850328927055
 30
0.0
 10
658.8036
 20
1237.876428927055
 30
0.0
 10
658.8036
 20
1237.876428927055
 30
0.0
 10
643.1890000000001
 20
1237.908428927055
 30
0.0
 10
625.7590000000002
 20
1238.283128927055
 30
0.0
 10
610.3516999999999
 20
1236.673828927055
 30
0.0
 10
610.3516999999999
 20
1236.673828927055
 30
0.0
 10
597.3244000000002
 20
1235.059028927055
 30
0.0
 10
585.9856000000002
 20
1233.940328927055
 30
0.0
 10
572.8743000000002
 20
1233.102928927055
 30
0.0
 10
572.8743000000002
 20
1233.102928927055
 30
0.0
 10
560.3633000000002
 20
1232.3265289270548
 30
0.0
 10
557.7923000000001
 20
1231.154128927055
 30
0.0
 10
557.943
 20
1243.752328927055
 30
0.0
 10
557.943
 20
1243.752328927055
 30
0.0
 10
558.5844
 20
1297.4034289270548
 30
0.0
 10
558.6804
 20
1351.1939289270551
 30
0.0
 10
559.0092000000002
 20
1404.861828927055
 30
0.0
 10
559.0092000000002
 20
1404.861828927055
 30
0.0
 10
559.0398000000002
 20
1409.850128927055
 30
0.0
 10
560.2138000000002
 20
1424.085728927055
 30
0.0
 10
558.0955000000001
 20
1427.745828927055
 30
0.0
 10
558.0955000000001
 20
1427.745828927055
 30
0.0
 10
555.7104000000002
 20
1431.866928927055
 30
0.0
 10
544.1015
 20
1430.397728927055
 30
0.0
 10
539.6427000000001
 20
1430.351428927055
 30
0.0
 10
539.6427000000001
 20
1430.351428927055
 30
0.0
 10
507.7904000000001
 20
1430.0201289270549
 30
0.0
 10
475.3844999999999
 20
1430.510428927055
 30
0.0
 10
443.47170000000006
 20
1430.604928927055
 30
0.0
 10
443.47170000000006
 20
1430.604928927055
 30
0.0
 10
373.3116
 20
1430.8100289270549
 30
0.0
 10
303.1539
 20
1430.707128927055
 30
0.0
 10
232.9942000000001
 20
1431.158628927055
 30
0.0
 10
232.9942000000001
 20
1431.158628927055
 30
0.0
 10
225.6056000000001
 20
1431.206128927055
 30
0.0
 10
212.05930000000012
 20
1432.721128927055
 30
0.0
 10
206.4955
 20
1428.116528927055
 30
0.0
 10
206.4955
 20
1428.116528927055
 30
0.0
 10
192.80230000000006
 20
1416.783828927055
 30
0.0
 10
210.27510000000007
 20
1260.981528927055
 30
0.0
 10
202.07860000000005
 20
1230.814328927055
 30
0.0
 10
202.07860000000005
 20
1230.814328927055
 30
0.0
 10
198.67020000000002
 20
1218.269328927055
 30
0.0
 10
157.9013
 20
1213.896428927055
 30
0.0
 10
148.31580000000008
 20
1224.308728927055
 30
0.0
 10
148.31580000000008
 20
1224.308728927055
 30
0.0
 10
141.49379999999996
 20
1231.719328927055
 30
0.0
 10
144.1978999999999
 20
1245.9884289270549
 30
0.0
 10
143.86220000000003
 20
1255.294128927055
 30
0.0
 10
143.86220000000003
 20
1255.294128927055
 30
0.0
 10
143.6414000000002
 20
1261.414728927055
 30
0.0
 10
143.54610000000002
 20
1264.1704289270551
 30
0.0
 10
137.09320000000002
 20
1264.4641289270548
 30
0.0
 10
137.09320000000002
 20
1264.4641289270548
 30
0.0
 10
132.13440000000014
 20
1264.662528927055
 30
0.0
 10
100.44460000000004
 20
1265.736228927055
 30
0.0
 10
97.3768
 20
1264.308528927055
 30
0.0
 10
97.3768
 20
1264.308528927055
 30
0.0
 10
95.7804000000001
 20
1263.5655289270549
 30
0.0
 10
94.55989999999997
 20
1262.2628289270551
 30
0.0
 10
94.00670000000014
 20
1260.051328927055
 30
0.0
 10
94.00670000000014
 20
1260.051328927055
 30
0.0
 10
92.16970000000015
 20
1252.7084289270551
 30
0.0
 10
94.1862000000001
 20
1226.485128927055
 30
0.0
 10
94.34950000000003
 20
1216.813228927055
 30
0.0
 10
94.34950000000003
 20
1216.813228927055
 30
0.0
 10
94.69240000000013
 20
1196.471928927055
 30
0.0
 10
94.64120000000003
 20
1175.3128289270549
 30
0.0
 10
95.4577999999999
 20
1155.077928927055
 30
0.0
 10
95.4577999999999
 20
1155.077928927055
 30
0.0
 10
95.78070000000002
 20
1147.078428927055
 30
0.0
 10
95.26880000000006
 20
1134.261228927055
 30
0.0
 10
88.67900000000009
 20
1128.630328927055
 30
0.0
 10
88.67900000000009
 20
1128.630328927055
 30
0.0
 10
79.6585
 20
1120.9223289270549
 30
0.0
 10
27.073399999999992
 20
1116.625428927055
 30
0.0
 10
13.153800000000047
 20
1115.825928927055
 30
0.0
 10
13.153800000000047
 20
1115.825928927055
 30
0.0
 10
7.387000000000057
 20
1115.494728927055
 30
0.0
 10
3.848600000000033
 20
1115.468128927055
 30
0.0
 10
1.9243000000000166
 20
1113.688628927055
 30
0.0
 10
1.9243000000000166
 20
1113.688628927055
 30
0.0
 10
0.0
 20
1111.909128927055
 30
0.0
 10
13.867200000000025
 20
799.314828927055
 30
0.0
 10
13.867200000000025
 20
799.314828927055
 30
0.0
  0
SPLINE
  5
5E
330
17
100
AcDbEntity
  8
test_spline_3_layer 1
 62
250
370
9
100
AcDbSpline
 70
24
 71
3
 72
8
 73
4
 74
0
 42
1e-09
 40
0.0
 40
0.0
 40
0.0
 40
0.0
 40
1.0
 40
1.0
 40
1.0
 40
1.0
 10
251.54226502517372
 20
1975.5458360670866
 30
0.0
 10
251.54226502517372
 20
1975.5458360670866
 30
0.0
 10
263.9065650251737
 20
1955.0015360670868
 30
0.0
 10
263.9065650251737
 20
1955.0015360670868
 30
0.0
  0
SPLINE
  5
5F
330
17
100
AcDbEntity
  8
test_spline_3_layer 1
 62
250
370
9
100
AcDbSpline
 70
24
 71
3
 72
8
 73
4
 74
0
 42
1e-09
 40
0.0
 40
0.0
 40
0.0
 40
0.0
 40
1.0
 40
1.0
 40
1.0
 40
1.0
 10
233.81236502517368
 20
1975.5458360670866
 30
0.0
 10
233.81236502517368
 20
1975.5458360670866
 30
0.0
 10
246.17666502517363
 20
1955.0015360670868
 30
0.0
 10
246.17666502517363
 20
1955.0015360670868
 30
0.0
  0
SPLINE
  5
60
330
17
100
AcDbEntity
  8
test_spline_3_layer 1
 62
250
370
9
100
AcDbSpline
 70
8
 71
3
 72
32
 73
28
 74
0
 42
1e-09
 40
0.0
 40
0.0
 40
0.0
 40
0.0
 40
0.125
 40
0.125
 40
0.125
 40
0.125
 40
0.25
 40
0.25
 40
0.25
 40
0.25
 40
0.375
 40
0.375
 40
0.375
 40
0.375
 40
0.5
 40
0.5
 40
0.5
 40
0.5
 40
0.625
 40
0.625
 40
0.625
 40
0.625
 40
0.75
 40
0.75
 40
0.75
 40
0.75
 40
1.0
 40
1.0
 40
1.0
 40
1.0
 10
864.4486650251736
 20
1817.8178360670868
 30
0.0
 10
864.3234650251736
 20
1815.7368360670869
 30
0.0
 10
862.8212650251737
 20
1814.4116360670866
 30
0.0
 10
860.8975650251737
 20
1814.4019360670868
 30
0.0
 10
860.8975650251737
 20
1814.4019360670868
 30
0.0
 10
858.8089650251738
 20
1814.4022360670867
 30
0.0
 10
856.7203650251738
 20
1814.4022360670867
 30
0.0
 10
854.6320650251737
 20
1814.4019360670868
 30
0.0
 10
854.6320650251737
 20
1814.4019360670868
 30
0.0
 10
852.9078650251738
 20
1814.3075360670866
 30
0.0
 10
851.1414650251738
 20
1815.9954360670868
 30
0.0
 10
851.1514650251736
 20
1817.8022360670868
 30
0.0
 10
851.1514650251736
 20
1817.8022360670868
 30
0.0
 10
851.1518650251737
 20
1822.970436067087
 30
0.0
 10
851.1518650251737
 20
1828.1381360670869
 30
0.0
 10
851.1514650251736
 20
1833.3055360670867
 30
0.0
 10
851.1514650251736
 20
1833.3055360670867
 30
0.0
 10
851.1552650251735
 20
1835.2206360670868
 30
0.0
 10
852.7197650251737
 20
1836.7605360670866
 30
0.0
 10
854.6476650251736
 20
1836.7484360670867
 30
0.0
 10
854.6476650251736
 20
1836.7484360670867
 30
0.0
 10
856.7306650251737
 20
1836.7484360670867
 30
0.0
 10
858.8141650251737
 20
1836.7484360670867
 30
0.0
 10
860.8975650251737
 20
1836.7484360670867
 30
0.0
 10
860.8975650251737
 20
1836.7484360670867
 30
0.0
 10
862.6410650251737
 20
1836.780236067087
 30
0.0
 10
864.4247650251737
 20
1835.4443360670869
 30
0.0
 10
864.4486650251736
 20
1833.2609360670867
 30
0.0
  0
SPLINE
  5
61
330
17
100
AcDbEntity
  8
test_spline_3_layer 1
 62
250
370
9
100
AcDbSpline
 70
8
 71
3
 72
52
 73
48
 74
0
 42
1e-09
 40
0.0
 40
0.0
 40
0.0
 40
0.0
 40
0.0769230769230769
 40
0.0769230769230769
 40
0.0769230769230769
 40
0.0769230769230769
 40
0.1538461538461539
 40
0.1538461538461539
 40
0.1538461538461539
 40
0.1538461538461539
 40
0.2307692307692308
 40
0.2307692307692308
 40
0.2307692307692308
 40
0.2307692307692308
 40
0.3076923076923077
 40
0.3076923076923077
 40
0.3076923076923077
 40
0.3076923076923077
 40
0.3846153846153846
 40
0.3846153846153846
 40
0.3846153846153846
 40
0.3846153846153846
 40
0.4615384615384616
 40
0.4615384615384616
 40
0.4615384615384616
 40
0.4615384615384616
 40
0.5384615384615384
 40
0.5384615384615384
 40
0.5384615384615384
 40
0.5384615384615384
 40
0.6153846153846154
 40
0.6153846153846154
 40
0.6153846153846154
 40
0.6153846153846154
 40
0.6923076923076923
 40
0.6923076923076923
 40
0.6923076923076923
 40
0.6923076923076923
 40
0.7692307692307693
 40
0.7692307692307693
 40
0.7692307692307693
 40
0.7692307692307693
 40
0.8461538461538461
 40
0.8461538461538461
 40
0.8461538461538461
 40
0.8461538461538461
 40
1.0
 40
1.0
 40
1.0
 40
1.0
 10
534.1019650251737
 20
1792.1493360670868
 30
0.0
 10
534.1019650251737
 20
1792.1493360670868
 30
0.0
 10
534.1019650251737
 20
1794.0065360670867
 30
0.0
 10
534.1019650251737
 20
1794.0065360670867
 30
0.0
 10
534.1019650251737
 20
1794.0065360670867
 30
0.0
 10
534.0876650251737
 20
1795.7484360670867
 30
0.0
 10
536.7521650251738
 20
1797.8665360670868
 30
0.0
 10
538.8112650251737
 20
1797.8438360670868
 30
0.0
 10
538.8112650251737
 20
1797.8438360670868
 30
0.0
 10
540.8753650251738
 20
1797.8438360670868
 30
0.0
 10
542.9393650251736
 20
1797.8438360670868
 30
0.0
 10
545.0030650251736
 20
1797.8438360670868
 30
0.0
 10
545.0030650251736
 20
1797.8438360670868
 30
0.0
 10
547.1975650251736
 20
1797.852636067087
 30
0.0
 10
548.7958650251737
 20
1796.0058360670866
 30
0.0
 10
548.8402650251737
 20
1794.0937360670869
 30
0.0
 10
548.8402650251737
 20
1794.0937360670869
 30
0.0
 10
548.8398650251736
 20
1792.6586360670867
 30
0.0
 10
548.8398650251736
 20
1791.2235360670868
 30
0.0
 10
548.8402650251737
 20
1789.7880360670868
 30
0.0
 10
548.8402650251737
 20
1789.7880360670868
 30
0.0
 10
548.7916650251736
 20
1788.1345360670869
 30
0.0
 10
547.1890650251737
 20
1785.9045360670868
 30
0.0
 10
544.9907650251737
 20
1785.9145360670868
 30
0.0
 10
544.9907650251737
 20
1785.9145360670868
 30
0.0
 10
547.1944650251737
 20
1785.9033360670867
 30
0.0
 10
548.8024650251737
 20
1784.1001360670869
 30
0.0
 10
548.8564650251737
 20
1782.0406360670868
 30
0.0
 10
548.8564650251737
 20
1782.0406360670868
 30
0.0
 10
548.8560650251736
 20
1780.2559360670869
 30
0.0
 10
548.8560650251736
 20
1778.4712360670867
 30
0.0
 10
548.8564650251737
 20
1776.6861360670869
 30
0.0
 10
548.8564650251737
 20
1776.6861360670869
 30
0.0
 10
548.8665650251737
 20
1774.6247360670868
 30
0.0
 10
546.8116650251736
 20
1772.8616360670867
 30
0.0
 10
544.9907650251737
 20
1772.8697360670867
 30
0.0
 10
544.9907650251737
 20
1772.8697360670867
 30
0.0
 10
542.9254650251737
 20
1772.8700360670869
 30
0.0
 10
540.8602650251737
 20
1772.8700360670869
 30
0.0
 10
538.7946650251736
 20
1772.8697360670867
 30
0.0
 10
538.7946650251736
 20
1772.8697360670867
 30
0.0
 10
536.6260650251736
 20
1772.8812360670868
 30
0.0
 10
534.0950650251737
 20
1775.2814360670868
 30
0.0
 10
534.0764650251738
 20
1776.7432360670869
 30
0.0
 10
534.0764650251738
 20
1776.7432360670869
 30
0.0
 10
534.0764650251738
 20
1776.7432360670869
 30
0.0
 10
534.0764650251738
 20
1778.6518360670868
 30
0.0
 10
534.0764650251738
 20
1778.6518360670868
 30
0.0
  0
SPLINE
  5
62
330
17
100
AcDbEntity
  8
test_spline_3_layer 1
 62
250
370
9
100
AcDbSpline
 70
24
 71
3
 72
8
 73
4
 74
0
 42
1e-09
 40
0.0
 40
0.0
 40
0.0
 40
0.0
 40
1.0
 40
1.0
 40
1.0
 40
1.0
 10
538.8116650251736
 20
1785.9041360670867
 30
0.0
 10
538.8116650251736
 20
1785.9041360670867
 30
0.0
 10
545.0080650251737
 20
1785.9041360670867
 30
0.0
 10
545.0080650251737
 20
1785.9041360670867
 30
0.0
  0
SPLINE
  5
63
330
17
100
AcDbEntity
  8
test_spline_3_layer 1
 62
250
370
9
100
AcDbSpline
 70
11
 71
3
 72
36
 73
32
 74
0
 42
1e-09
 40
0.0
 40
0.0
 40
0.0
 40
0.0
 40
0.1111111111111111
 40
0.1111111111111111
 40
0.1111111111111111
 40
0.1111111111111111
 40
0.2222222222222222
 40
0.2222222222222222
 40
0.2222222222222222
 40
0.2222222222222222
 40
0.3333333333333333
 40
0.3333333333333333
 40
0.3333333333333333
 40
0.3333333333333333
 40
0.4444444444444444
 40
0.4444444444444444
 40
0.4444444444444444
 40
0.4444444444444444
 40
0.5555555555555556
 40
0.5555555555555556
 40
0.5555555555555556
 40
0.5555555555555556
 40
0.6666666666666666
 40
0.6666666666666666
 40
0.6666666666666666
 40
0.6666666666666666
 40
0.7777777777777778
 40
0.7777777777777778
 40
0.7777777777777778
 40
0.7777777777777778
 40
1.0
 40
1.0
 40
1.0
 40
1.0
 10
577.8858650251736
 20
1797.8561360670867
 30
0.0
 10
580.2519650251736
 20
1797.8561360670867
 30
0.0
 10
582.6184650251737
 20
1797.8561360670867
 30
0.0
 10
584.9849650251738
 20
1797.8561360670867
 30
0.0
 10
584.9849650251738
 20
1797.8561360670867
 30
0.0
 10
586.9654650251737
 20
1797.8917360670869
 30
0.0
 10
588.9914650251737
 20
1796.3974360670868
 30
0.0
 10
589.0185650251738
 20
1793.9553360670868
 30
0.0
 10
589.0185650251738
 20
1793.9553360670868
 30
0.0
 10
589.0181650251736
 20
1788.1979360670869
 30
0.0
 10
589.0181650251736
 20
1782.4401360670868
 30
0.0
 10
589.0185650251738
 20
1776.6819360670868
 30
0.0
 10
589.0185650251738
 20
1776.6819360670868
 30
0.0
 10
588.8764650251737
 20
1774.3543360670867
 30
0.0
 10
587.1700650251737
 20
1772.8720360670868
 30
0.0
 10
584.9849650251738
 20
1772.8612360670868
 30
0.0
 10
584.9849650251738
 20
1772.8612360670868
 30
0.0
 10
582.6125650251736
 20
1772.8616360670867
 30
0.0
 10
580.2401650251738
 20
1772.8616360670867
 30
0.0
 10
577.8681650251738
 20
1772.8612360670868
 30
0.0
 10
577.8681650251738
 20
1772.8612360670868
 30
0.0
 10
575.9096650251738
 20
1772.7556360670867
 30
0.0
 10
573.9032650251736
 20
1774.6435360670869
 30
0.0
 10
573.9146650251737
 20
1776.6645360670868
 30
0.0
 10
573.9146650251737
 20
1776.6645360670868
 30
0.0
 10
573.9150650251738
 20
1782.4451360670869
 30
0.0
 10
573.9150650251738
 20
1788.2254360670868
 30
0.0
 10
573.9146650251737
 20
1794.0052360670868
 30
0.0
 10
573.9146650251737
 20
1794.0052360670868
 30
0.0
 10
573.9189650251737
 20
1796.1472360670866
 30
0.0
 10
575.6960650251738
 20
1797.869736067087
 30
0.0
 10
577.8858650251736
 20
1797.8561360670867
 30
0.0
  0
SPLINE
  5
64
330
17
100
AcDbEntity
  8
test_spline_3_layer 1
 62
250
370
9
100
AcDbSpline
 70
11
 71
3
 72
36
 73
32
 74
0
 42
1e-09
 40
0.0
 40
0.0
 40
0.0
 40
0.0
 40
0.1111111111111111
 40
0.1111111111111111
 40
0.1111111111111111
 40
0.1111111111111111
 40
0.2222222222222222
 40
0.2222222222222222
 40
0.2222222222222222
 40
0.2222222222222222
 40
0.3333333333333333
 40
0.3333333333333333
 40
0.3333333333333333
 40
0.3333333333333333
 40
0.4444444444444444
 40
0.4444444444444444
 40
0.4444444444444444
 40
0.4444444444444444
 40
0.5555555555555556
 40
0.5555555555555556
 40
0.5555555555555556
 40
0.5555555555555556
 40
0.6666666666666666
 40
0.6666666666666666
 40
0.6666666666666666
 40
0.6666666666666666
 40
0.7777777777777778
 40
0.7777777777777778
 40
0.7777777777777778
 40
0.7777777777777778
 40
1.0
 40
1.0
 40
1.0
 40
1.0
 10
557.8858650251736
 20
1797.8561360670867
 30
0.0
 10
560.2519650251736
 20
1797.8561360670867
 30
0.0
 10
562.6184650251737
 20
1797.8561360670867
 30
0.0
 10
564.9849650251738
 20
1797.8561360670867
 30
0.0
 10
564.9849650251738
 20
1797.8561360670867
 30
0.0
 10
566.9654650251737
 20
1797.8917360670869
 30
0.0
 10
568.9914650251737
 20
1796.3974360670868
 30
0.0
 10
569.0185650251738
 20
1793.9553360670868
 30
0.0
 10
569.0185650251738
 20
1793.9553360670868
 30
0.0
 10
569.0181650251736
 20
1788.1979360670869
 30
0.0
 10
569.0181650251736
 20
1782.4401360670868
 30
0.0
 10
569.0185650251738
 20
1776.6819360670868
 30
0.0
 10
569.0185650251738
 20
1776.6819360670868
 30
0.0
 10
568.8764650251737
 20
1774.3543360670867
 30
0.0
 10
567.1700650251737
 20
1772.8720360670868
 30
0.0
 10
564.9849650251738
 20
1772.8612360670868
 30
0.0
 10
564.9849650251738
 20
1772.8612360670868
 30
0.0
 10
562.6125650251736
 20
1772.8616360670867
 30
0.0
 10
560.2401650251738
 20
1772.8616360670867
 30
0.0
 10
557.8681650251738
 20
1772.8612360670868
 30
0.0
 10
557.8681650251738
 20
1772.8612360670868
 30
0.0
 10
555.9096650251738
 20
1772.7556360670867
 30
0.0
 10
553.9032650251736
 20
1774.6435360670869
 30
0.0
 10
553.9146650251737
 20
1776.6645360670868
 30
0.0
 10
553.9146650251737
 20
1776.6645360670868
 30
0.0
 10
553.9150650251738
 20
1782.4451360670869
 30
0.0
 10
553.9150650251738
 20
1788.2254360670868
 30
0.0
 10
553.9146650251737
 20
1794.0052360670868
 30
0.0
 10
553.9146650251737
 20
1794.0052360670868
 30
0.0
 10
553.9189650251737
 20
1796.1472360670866
 30
0.0
 10
555.6960650251738
 20
1797.869736067087
 30
0.0
 10
557.8858650251736
 20
1797.8561360670867
 30
0.0
  0
SPLINE
  5
65
330
17
100
AcDbEntity
  8
test_spline_3_layer 2
 62
142
370
158
100
AcDbSpline
 70
8
 71
3
 72
44
 73
40
 74
0
 42
1e-09
 40
0.0
 40
0.0
 40
0.0
 40
0.0
 40
0.0909090909090909
 40
0.0909090909090909
 40
0.0909090909090909
 40
0.0909090909090909
 40
0.1818181818181818
 40
0.1818181818181818
 40
0.1818181818181818
 40
0.1818181818181818
 40
0.2727272727272727
 40
0.2727272727272727
 40
0.2727272727272727
 40
0.2727272727272727
 40
0.3636363636363636
 40
0.3636363636363636
 40
0.3636363636363636
 40
0.3636363636363636
 40
0.4545454545454545
 40
0.4545454545454545
 40
0.4545454545454545
 40
0.4545454545454545
 40
0.5454545454545454
 40
0.5454545454545454
 40
0.5454545454545454
 40
0.5454545454545454
 40
0.6363636363636364
 40
0.6363636363636364
 40
0.6363636363636364
 40
0.6363636363636364
 40
0.7272727272727273
 40
0.7272727272727273
 40
0.7272727272727273
 40
0.7272727272727273
 40
0.8181818181818182
 40
0.8181818181818182
 40
0.8181818181818182
 40
0.8181818181818182
 40
1.0
 40
1.0
 40
1.0
 40
1.0
 10
734.3735650251735
 20
2027.4056360670868
 30
0.0
 10
737.1420650251737
 20
1947.0617360670867
 30
0.0
 10
740.1861650251738
 20
1866.7341360670869
 30
0.0
 10
742.8775650251737
 20
1786.3856360670868
 30
0.0
 10
742.8775650251737
 20
1786.3856360670868
 30
0.0
 10
743.6508650251737
 20
1754.2578360670868
 30
0.0
 10
732.9602650251738
 20
1755.5385360670869
 30
0.0
 10
704.2669650251737
 20
1755.3557360670868
 30
0.0
 10
704.2669650251737
 20
1755.3557360670868
 30
0.0
 10
617.6863650251737
 20
1754.8771360670867
 30
0.0
 10
531.0391650251738
 20
1756.5172360670867
 30
0.0
 10
444.4839650251736
 20
1754.0675360670868
 30
0.0
 10
444.4839650251736
 20
1754.0675360670868
 30
0.0
 10
421.8286650251737
 20
1752.7635360670868
 30
0.0
 10
420.07656502517375
 20
1744.3755360670868
 30
0.0
 10
406.3286650251737
 20
1728.656136067087
 30
0.0
 10
406.3286650251737
 20
1728.656136067087
 30
0.0
 10
374.06646502517356
 20
1691.6397360670867
 30
0.0
 10
342.8887650251738
 20
1653.7118360670868
 30
0.0
 10
310.73636502517365
 20
1616.6731360670867
 30
0.0
 10
310.73636502517365
 20
1616.6731360670867
 30
0.0
 10
301.32146502517367
 20
1605.8274360670869
 30
0.0
 10
295.47046502517355
 20
1602.7075360670867
 30
0.0
 10
281.09836502517373
 20
1601.2100360670868
 30
0.0
 10
281.09836502517373
 20
1601.2100360670868
 30
0.0
 10
262.9404650251738
 20
1599.3181360670867
 30
0.0
 10
265.10416502517364
 20
1612.1171360670867
 30
0.0
 10
264.9859650251735
 20
1626.0111360670867
 30
0.0
 10
264.9859650251735
 20
1626.0111360670867
 30
0.0
 10
264.44916502517367
 20
1689.1436360670868
 30
0.0
 10
264.74006502517364
 20
1752.4133360670867
 30
0.0
 10
264.55026502517353
 20
1815.5643360670867
 30
0.0
 10
264.55026502517353
 20
1815.5643360670867
 30
0.0
 10
264.35046502517366
 20
1881.9896360670866
 30
0.0
 10
264.5079650251737
 20
1948.602636067087
 30
0.0
 10
263.9534650251737
 20
2015.0038360670867
 30
0.0
 10
263.9534650251737
 20
2015.0038360670867
 30
0.0
 10
263.9186650251738
 20
2019.1710360670868
 30
0.0
 10
263.7179650251737
 20
2023.3994360670868
 30
0.0
 10
263.56966502517366
 20
2027.567336067087
 30
0.0
  0
SPLINE
  5
66
330
17
100
AcDbEntity
  8
test_spline_3_layer 2
 62
142
370
158
100
AcDbSpline
 70
8
 71
3
 72
20
 73
16
 74
0
 42
1e-09
 40
0.0
 40
0.0
 40
0.0
 40
0.0
 40
0.2
 40
0.2
 40
0.2
 40
0.2
 40
0.4
 40
0.4
 40
0.4
 40
0.4
 40
0.6
 40
0.6
 40
0.6
 40
0.6
 40
1.0
 40
1.0
 40
1.0
 40
1.0
 10
361.6610650251737
 20
2177.5698360670867
 30
0.0
 10
361.21206502517384
 20
2167.6150360670867
 30
0.0
 10
360.76316502517375
 20
2157.6602360670868
 30
0.0
 10
360.3141650251737
 20
2147.705336067087
 30
0.0
 10
360.3141650251737
 20
2147.705336067087
 30
0.0
 10
358.87646502517373
 20
2115.8376360670864
 30
0.0
 10
357.71836502517385
 20
2083.819136067087
 30
0.0
 10
356.1724650251738
 20
2051.9883360670865
 30
0.0
 10
356.1724650251738
 20
2051.9883360670865
 30
0.0
 10
355.6297650251738
 20
2040.8144360670867
 30
0.0
 10
353.7478650251737
 20
2034.821836067087
 30
0.0
 10
342.00896502517367
 20
2034.4418360670868
 30
0.0
 10
342.00896502517367
 20
2034.4418360670868
 30
0.0
 10
342.00896502517367
 20
2034.4418360670868
 30
0.0
 10
341.06246502517365
 20
2034.4112360670867
 30
0.0
 10
341.06246502517365
 20
2034.4112360670867
 30
0.0
  0
SPLINE
  5
67
330
17
100
AcDbEntity
  8
test_spline_3_layer 2
 62
142
370
158
100
AcDbSpline
 70
8
 71
3
 72
24
 73
20
 74
0
 42
1e-09
 40
0.0
 40
0.0
 40
0.0
 40
0.0
 40
0.1666666666666667
 40
0.1666666666666667
 40
0.1666666666666667
 40
0.1666666666666667
 40
0.3333333333333333
 40
0.3333333333333333
 40
0.3333333333333333
 40
0.3333333333333333
 40
0.5
 40
0.5
 40
0.5
 40
0.5
 40
0.6666666666666666
 40
0.6666666666666666
 40
0.6666666666666666
 40
0.6666666666666666
 40
1.0
 40
1.0
 40
1.0
 40
1.0
 10
443.34926502517374
 20
2226.515036067087
 30
0.0
 10
426.2959650251737
 20
2208.9766360670865
 30
0.0
 10
416.10686502517365
 20
2201.1566360670868
 30
0.0
 10
395.91846502517365
 20
2187.7038360670867
 30
0.0
 10
395.91846502517365
 20
2187.7038360670867
 30
0.0
 10
374.1587650251738
 20
2173.2040360670867
 30
0.0
 10
377.8230650251737
 20
2168.2312360670867
 30
0.0
 10
377.83556502517376
 20
2143.8867360670865
 30
0.0
 10
377.83556502517376
 20
2143.8867360670865
 30
0.0
 10
377.85176502517356
 20
2110.5961360670867
 30
0.0
 10
377.78926502517356
 20
2074.984036067087
 30
0.0
 10
371.37896502517356
 20
2042.2520360670867
 30
0.0
 10
371.37896502517356
 20
2042.2520360670867
 30
0.0
 10
368.20826502517366
 20
2026.0618360670867
 30
0.0
 10
364.13396502517367
 20
2021.7849360670868
 30
0.0
 10
347.5775650251737
 20
2018.4145360670866
 30
0.0
 10
347.5775650251737
 20
2018.4145360670866
 30
0.0
 10
323.33506502517366
 20
2013.4795360670867
 30
0.0
 10
289.8485650251737
 20
2013.8577360670868
 30
0.0
 10
263.96146502517354
 20
2014.0381360670867
 30
0.0
  0
SPLINE
  5
68
330
17
100
AcDbEntity
  8
test_spline_3_layer 2
 62
142
370
158
100
AcDbSpline
 70
8
 71
3
 72
20
 73
16
 74
0
 42
1e-09
 40
0.0
 40
0.0
 40
0.0
 40
0.0
 40
0.2
 40
0.2
 40
0.2
 40
0.2
 40
0.4
 40
0.4
 40
0.4
 40
0.4
 40
0.6
 40
0.6
 40
0.6
 40
0.6
 40
1.0
 40
1.0
 40
1.0
 40
1.0
 10
784.2481650251736
 20
2078.9236360670866
 30
0.0
 10
786.8277650251737
 20
1982.1999360670868
 30
0.0
 10
790.6173650251737
 20
1885.7633360670868
 30
0.0
 10
794.7697650251737
 20
1789.1041360670868
 30
0.0
 10
794.7697650251737
 20
1789.1041360670868
 30
0.0
 10
795.9492650251736
 20
1763.0465360670867
 30
0.0
 10
798.7510650251736
 20
1734.0703360670868
 30
0.0
 10
770.8912650251737
 20
1721.1270360670867
 30
0.0
 10
770.8912650251737
 20
1721.1270360670867
 30
0.0
 10
754.6131650251737
 20
1713.5644360670867
 30
0.0
 10
728.4514650251738
 20
1710.1442360670867
 30
0.0
 10
710.1809650251737
 20
1706.1705360670867
 30
0.0
 10
710.1809650251737
 20
1706.1705360670867
 30
0.0
 10
704.3724650251736
 20
1704.9072360670868
 30
0.0
 10
698.5648650251737
 20
1703.6397360670867
 30
0.0
 10
692.7575650251736
 20
1702.3712360670868
 30
0.0
  0
SPLINE
  5
69
330
17
100
AcDbEntity
  8
test_spline_3_layer 2
 62
142
370
158
100
AcDbSpline
 70
8
 71
3
 72
20
 73
16
 74
0
 42
1e-09
 40
0.0
 40
0.0
 40
0.0
 40
0.0
 40
0.2
 40
0.2
 40
0.2
 40
0.2
 40
0.4
 40
0.4
 40
0.4
 40
0.4
 40
0.6
 40
0.6
 40
0.6
 40
0.6
 40
1.0
 40
1.0
 40
1.0
 40
1.0
 10
902.5869650251736
 20
1675.2148360670867
 30
0.0
 10
869.1394650251736
 20
1673.2400360670867
 30
0.0
 10
834.8018650251736
 20
1672.1684360670868
 30
0.0
 10
801.5234650251737
 20
1669.3203360670868
 30
0.0
 10
801.5234650251737
 20
1669.3203360670868
 30
0.0
 10
777.6322650251736
 20
1667.2756360670867
 30
0.0
 10
752.9740650251736
 20
1661.8414360670868
 30
0.0
 10
729.2259650251738
 20
1657.6968360670867
 30
0.0
 10
729.2259650251738
 20
1657.6968360670867
 30
0.0
 10
726.7638650251736
 20
1657.2671360670868
 30
0.0
 10
724.3019650251738
 20
1656.8367360670868
 30
0.0
 10
721.8401650251737
 20
1656.4051360670867
 30
0.0
 10
721.8401650251737
 20
1656.4051360670867
 30
0.0
 10
716.9074650251737
 20
1655.5393360670867
 30
0.0
 10
711.9747650251736
 20
1654.6735360670868
 30
0.0
 10
707.0420650251738
 20
1653.8077360670868
 30
0.0
  0
SPLINE
  5
6A
330
17
100
AcDbEntity
  8
test_spline_3_layer 3
 62
242
370
158
100
AcDbSpline
 70
11
 71
3
 72
200
 73
196
 74
0
 42
1e-09
 40
0.0
 40
0.0
 40
0.0
 40
0.0
 40
0.02
 40
0.02
 40
0.02
 40
0.02
 40
0.04
 40
0.04
 40
0.04
 40
0.04
 40
0.06
 40
0.06
 40
0.06
 40
0.06
 40
0.08
 40
0.08
 40
0.08
 40
0.08
 40
0.1
 40
0.1
 40
0.1
 40
0.1
 40
0.12
 40
0.12
 40
0.12
 40
0.12
 40
0.14
 40
0.14
 40
0.14
 40
0.14
 40
0.16
 40
0.16
 40
0.16
 40
0.16
 40
0.18
 40
0.18
 40
0.18
 40
0.18
 40
0.2
 40
0.2
 40
0.2
 40
0.2
 40
0.22
 40
0.22
 40
0.22
 40
0.22
 40
0.24
 40
0.24
 40
0.24
 40
0.24
 40
0.26
 40
0.26
 40
0.26
 40
0.26
 40
0.28
 40
0.28
 40
0.28
 40
0.28
 40
0.3
 40
0.3
 40
0.3
 40
0.3
 40
0.32
 40
0.32
 40
0.32
 40
0.32
 40
0.34
 40
0.34
 40
0.34
 40
0.34
 40
0.36
 40
0.36
 40
0.36
 40
0.36
 40
0.38
 40
0.38
 40
0.38
 40
0.38
 40
0.4
 40
0.4
 40
0.4
 40
0.4
 40
0.42
 40
0.42
 40
0.42
 40
0.42
 40
0.44
 40
0.44
 40
0.44
 40
0.44
 40
0.46
 40
0.46
 40
0.46
 40
0.46
 40
0.48
 40
0.48
 40
0.48
 40
0.48
 40
0.5
 40
0.5
 40
0.5
 40
0.5
 40
0.52
 40
0.52
 40
0.52
 40
0.52
 40
0.54
 40
0.54
 40
0.54
 40
0.54
 40
0.56
 40
0.56
 40
0.56
 40
0.56
 40
0.58
 40
0.58
 40
0.58
 40
0.58
 40
0.6
 40
0.6
 40
0.6
 40
0.6
 40
0.62
 40
0.62
 40
0.62
 40
0.62
 40
0.64
 40
0.64
 40
0.64
 40
0.64
 40
0.66
 40
0.66
 40
0.66
 40
0.66
 40
0.68
 40
0.68
 40
0.68
 40
0.68
 40
0.7
 40
0.7
 40
0.7
 40
0.7
 40
0.72
 40
0.72
 40
0.72
 40
0.72
 40
0.74
 40
0.74
 40
0.74
 40
0.74
 40
0.76
 40
0.76
 40
0.76
 40
0.76
 40
0.78
 40
0.78
 40
0.78
 40
0.78
 40
0.8
 40
0.8
 40
0.8
 40
0.8
 40
0.82
 40
0.82
 40
0.82
 40
0.82
 40
0.84
 40
0.84
 40
0.84
 40
0.84
 40
0.86
 40
0.86
 40
0.86
 40
0.86
 40
0.88
 40
0.88
 40
0.88
 40
0.88
 40
0.9
 40
0.9
 40
0.9
 40
0.9
 40
0.92
 40
0.92
 40
0.92
 40
0.92
 40
0.94
 40
0.94
 40
0.94
 40
0.94
 40
0.96
 40
0.96
 40
0.96
 40
0.96
 40
1.0
 40
1.0
 40
1.0
 40
1.0
 10
348.49086502517366
 20
2155.1125360670867
 30
0.0
 10
345.51266502517365
 20
2149.008336067087
 30
0.0
 10
340.8330650251737
 20
2130.6255360670866
 30
0.0
 10
340.49006502517364
 20
2123.884736067087
 30
0.0
 10
340.49006502517364
 20
2123.884736067087
 30
0.0
 10
339.7956650251738
 20
2110.321236067087
 30
0.0
 10
337.1600650251737
 20
2074.2787360670864
 30
0.0
 10
339.62326502517385
 20
2062.7492360670867
 30
0.0
 10
339.62326502517385
 20
2062.7492360670867
 30
0.0
 10
340.96426502517375
 20
2056.4726360670866
 30
0.0
 10
346.72316502517356
 20
2039.0697360670868
 30
0.0
 10
341.06246502517365
 20
2034.4112360670867
 30
0.0
 10
341.06246502517365
 20
2034.4112360670867
 30
0.0
 10
337.9291650251737
 20
2031.8326360670867
 30
0.0
 10
252.53476502517356
 20
2026.4751360670869
 30
0.0
 10
243.3557650251737
 20
2025.9914360670866
 30
0.0
 10
243.3557650251737
 20
2025.9914360670866
 30
0.0
 10
232.79936502517353
 20
2025.4352360670866
 30
0.0
 10
231.28606502517368
 20
2022.4555360670868
 30
0.0
 10
230.97156502517373
 20
2016.840936067087
 30
0.0
 10
230.97156502517373
 20
2016.840936067087
 30
0.0
 10
230.85716502517357
 20
2014.7991360670867
 30
0.0
 10
230.7836650251736
 20
2012.3487360670867
 30
0.0
 10
230.77456502517384
 20
2009.6593360670868
 30
0.0
 10
230.77456502517384
 20
2009.6593360670868
 30
0.0
 10
230.70616502517373
 20
1989.4419360670868
 30
0.0
 10
230.58076502517383
 20
1966.8255360670867
 30
0.0
 10
231.63966502517383
 20
1946.8814360670867
 30
0.0
 10
231.63966502517383
 20
1946.8814360670867
 30
0.0
 10
235.20646502517366
 20
1913.9796360670869
 30
0.0
 10
252.4140650251736
 20
1927.179536067087
 30
0.0
 10
253.6936650251737
 20
1891.5575360670866
 30
0.0
 10
253.6936650251737
 20
1891.5575360670866
 30
0.0
 10
255.27176502517364
 20
1842.2315360670866
 30
0.0
 10
254.82256502517362
 20
1792.4191360670868
 30
0.0
 10
255.62186502517375
 20
1742.9817360670868
 30
0.0
 10
255.62186502517375
 20
1742.9817360670868
 30
0.0
 10
256.24996502517365
 20
1700.0776360670868
 30
0.0
 10
256.13856502517365
 20
1657.1379360670867
 30
0.0
 10
257.5988650251736
 20
1614.2521360670867
 30
0.0
 10
257.5988650251736
 20
1614.2521360670867
 30
0.0
 10
261.9430650251736
 20
1583.2582360670867
 30
0.0
 10
278.84656502517373
 20
1592.7415360670868
 30
0.0
 10
300.8738650251737
 20
1597.9050360670867
 30
0.0
 10
300.8738650251737
 20
1597.9050360670867
 30
0.0
 10
315.5163650251736
 20
1600.8513360670868
 30
0.0
 10
323.02036502517353
 20
1593.2245360670868
 30
0.0
 10
334.8068650251737
 20
1585.7995360670868
 30
0.0
 10
334.8068650251737
 20
1585.7995360670868
 30
0.0
 10
357.26256502517367
 20
1571.6533360670867
 30
0.0
 10
380.3753650251738
 20
1557.2350360670869
 30
0.0
 10
403.4811650251738
 20
1544.2262360670868
 30
0.0
 10
403.4811650251738
 20
1544.2262360670868
 30
0.0
 10
403.4811650251738
 20
1544.2262360670868
 30
0.0
 10
404.7516650251737
 20
1543.5206360670868
 30
0.0
 10
404.7516650251737
 20
1543.5206360670868
 30
0.0
 10
404.7516650251737
 20
1543.5206360670868
 30
0.0
 10
430.1496650251736
 20
1529.4742360670868
 30
0.0
 10
429.6782650251737
 20
1549.8404360670868
 30
0.0
 10
428.78986502517364
 20
1569.1216360670867
 30
0.0
 10
428.78986502517364
 20
1569.1216360670867
 30
0.0
 10
427.9699650251737
 20
1589.9613360670867
 30
0.0
 10
421.4967650251738
 20
1739.7785360670869
 30
0.0
 10
424.5581650251736
 20
1747.7644360670868
 30
0.0
 10
424.5581650251736
 20
1747.7644360670868
 30
0.0
 10
425.9431650251738
 20
1751.3774360670868
 30
0.0
 10
432.4158650251736
 20
1753.2569360670868
 30
0.0
 10
436.15626502517375
 20
1749.8817360670869
 30
0.0
 10
436.15626502517375
 20
1749.8817360670869
 30
0.0
 10
437.94696502517377
 20
1748.2658360670869
 30
0.0
 10
438.4684650251736
 20
1742.9024360670867
 30
0.0
 10
439.18016502517366
 20
1739.9708360670868
 30
0.0
 10
439.18016502517366
 20
1739.9708360670868
 30
0.0
 10
441.5752650251736
 20
1730.1044360670867
 30
0.0
 10
442.6786650251736
 20
1711.7765360670867
 30
0.0
 10
443.54246502517367
 20
1701.0107360670868
 30
0.0
 10
443.54246502517367
 20
1701.0107360670868
 30
0.0
 10
443.8212650251737
 20
1697.5352360670868
 30
0.0
 10
444.1094650251737
 20
1694.0769360670868
 30
0.0
 10
444.50536502517366
 20
1690.6122360670868
 30
0.0
 10
444.50536502517366
 20
1690.6122360670868
 30
0.0
 10
444.9684650251736
 20
1686.7746360670867
 30
0.0
 10
446.03536502517363
 20
1676.0794360670868
 30
0.0
 10
449.1482650251737
 20
1673.5057360670867
 30
0.0
 10
449.1482650251737
 20
1673.5057360670867
 30
0.0
 10
461.38356502517377
 20
1668.0609360670867
 30
0.0
 10
466.50496502517376
 20
1672.2417360670868
 30
0.0
 10
476.54036502517374
 20
1659.2315360670868
 30
0.0
 10
476.54036502517374
 20
1659.2315360670868
 30
0.0
 10
485.5739650251737
 20
1645.4355360670868
 30
0.0
 10
485.26816502517363
 20
1635.9739360670867
 30
0.0
 10
490.0328650251738
 20
1621.5351360670868
 30
0.0
 10
490.0328650251738
 20
1621.5351360670868
 30
0.0
 10
493.6528650251737
 20
1610.5650360670868
 30
0.0
 10
501.81826502517356
 20
1612.6941360670867
 30
0.0
 10
511.86586502517366
 20
1612.9223360670867
 30
0.0
 10
511.86586502517366
 20
1612.9223360670867
 30
0.0
 10
558.0106650251737
 20
1613.8583360670868
 30
0.0
 10
602.6178650251736
 20
1613.4652360670868
 30
0.0
 10
648.7325650251737
 20
1611.4516360670868
 30
0.0
 10
648.7325650251737
 20
1611.4516360670868
 30
0.0
 10
668.4878650251737
 20
1611.0859360670868
 30
0.0
 10
665.5254650251738
 20
1616.0402360670867
 30
0.0
 10
666.0884650251737
 20
1633.6787360670867
 30
0.0
 10
666.0884650251737
 20
1633.6787360670867
 30
0.0
 10
666.8571650251736
 20
1648.4305360670867
 30
0.0
 10
673.5540650251737
 20
1697.4678360670869
 30
0.0
 10
689.7635650251736
 20
1702.3449360670868
 30
0.0
 10
689.7635650251736
 20
1702.3449360670868
 30
0.0
 10
697.7866650251738
 20
1704.7589360670868
 30
0.0
 10
699.7208650251737
 20
1688.8510360670869
 30
0.0
 10
700.8298650251738
 20
1683.4624360670869
 30
0.0
 10
700.8298650251738
 20
1683.4624360670869
 30
0.0
 10
702.7448650251738
 20
1674.3090360670867
 30
0.0
 10
710.9909650251736
 20
1632.9678360670869
 30
0.0
 10
713.7914650251737
 20
1627.4955360670867
 30
0.0
 10
713.7914650251737
 20
1627.4955360670867
 30
0.0
 10
717.5078650251737
 20
1620.2335360670868
 30
0.0
 10
724.6683650251737
 20
1624.5126360670868
 30
0.0
 10
731.2123650251738
 20
1626.3638360670868
 30
0.0
 10
731.2123650251738
 20
1626.3638360670868
 30
0.0
 10
764.5903650251737
 20
1634.3670360670867
 30
0.0
 10
809.3735650251735
 20
1634.8421360670868
 30
0.0
 10
844.1661650251738
 20
1635.8281360670867
 30
0.0
 10
844.1661650251738
 20
1635.8281360670867
 30
0.0
 10
859.4603650251736
 20
1636.2364360670867
 30
0.0
 10
874.2053650251737
 20
1636.2839360670866
 30
0.0
 10
889.4874650251738
 20
1636.2383360670867
 30
0.0
 10
889.4874650251738
 20
1636.2383360670867
 30
0.0
 10
906.4749650251736
 20
1636.7363360670868
 30
0.0
 10
905.0009650251739
 20
1640.4525360670868
 30
0.0
 10
903.8935650251735
 20
1655.7827360670867
 30
0.0
 10
903.8935650251735
 20
1655.7827360670867
 30
0.0
 10
897.9173650251737
 20
1741.8715360670867
 30
0.0
 10
894.4818650251736
 20
1828.207636067087
 30
0.0
 10
891.0820650251737
 20
1914.4336360670868
 30
0.0
 10
891.0820650251737
 20
1914.4336360670868
 30
0.0
 10
890.3515650251736
 20
1930.131636067087
 30
0.0
 10
888.7386650251735
 20
1928.8345360670867
 30
0.0
 10
873.2020650251736
 20
1930.6255360670868
 30
0.0
 10
873.2020650251736
 20
1930.6255360670868
 30
0.0
 10
860.4363650251737
 20
1932.0971360670867
 30
0.0
 10
815.8926650251738
 20
1935.0513360670868
 30
0.0
 10
808.3969650251736
 20
1943.6164360670866
 30
0.0
 10
808.3969650251736
 20
1943.6164360670866
 30
0.0
 10
800.9223650251736
 20
1952.1575360670868
 30
0.0
 10
803.2165650251738
 20
1972.1902360670867
 30
0.0
 10
803.3660650251738
 20
1983.0658360670868
 30
0.0
 10
803.3660650251738
 20
1983.0658360670868
 30
0.0
 10
803.4276650251738
 20
1994.3600360670869
 30
0.0
 10
804.8062650251738
 20
2071.264136067087
 30
0.0
 10
803.6047650251737
 20
2075.400036067087
 30
0.0
 10
803.6047650251737
 20
2075.400036067087
 30
0.0
 10
802.3065650251735
 20
2079.8686360670868
 30
0.0
 10
795.0799650251736
 20
2078.9105360670865
 30
0.0
 10
791.0021650251736
 20
2078.8993360670866
 30
0.0
 10
791.0021650251736
 20
2078.8993360670866
 30
0.0
 10
785.0011650251738
 20
2078.8827360670866
 30
0.0
 10
757.9659650251735
 20
2079.390536067087
 30
0.0
 10
754.4703650251738
 20
2076.5435360670867
 30
0.0
 10
754.4703650251738
 20
2076.5435360670867
 30
0.0
 10
746.3873650251737
 20
2065.8116360670865
 30
0.0
 10
756.6911650251739
 20
2031.9137360670868
 30
0.0
 10
741.7811650251736
 20
2028.031136067087
 30
0.0
 10
741.7811650251736
 20
2028.031136067087
 30
0.0
 10
733.8708650251735
 20
2026.7170360670868
 30
0.0
 10
698.8662650251738
 20
2026.5059360670869
 30
0.0
 10
692.9346650251737
 20
2030.4174360670868
 30
0.0
 10
692.9346650251737
 20
2030.4174360670868
 30
0.0
 10
687.5387650251737
 20
2033.9756360670867
 30
0.0
 10
692.3835650251738
 20
2045.5933360670867
 30
0.0
 10
693.1789650251737
 20
2051.0275360670867
 30
0.0
 10
693.1789650251737
 20
2051.0275360670867
 30
0.0
 10
698.8514650251736
 20
2089.7842360670866
 30
0.0
 10
701.7714650251737
 20
2184.904436067087
 30
0.0
 10
702.9641650251735
 20
2225.668436067087
 30
0.0
 10
702.9641650251735
 20
2225.668436067087
 30
0.0
 10
703.0755650251738
 20
2229.4770360670864
 30
0.0
 10
702.6034650251738
 20
2232.0638360670864
 30
0.0
 10
699.5741650251737
 20
2233.387436067087
 30
0.0
 10
699.5741650251737
 20
2233.387436067087
 30
0.0
 10
694.4749650251736
 20
2235.6156360670866
 30
0.0
 10
675.3412650251737
 20
2233.5414360670866
 30
0.0
 10
668.2239650251738
 20
2233.326636067087
 30
0.0
 10
668.2239650251738
 20
2233.326636067087
 30
0.0
 10
598.0754650251736
 20
2231.255136067087
 30
0.0
 10
527.0197650251737
 20
2231.521436067087
 30
0.0
 10
457.0577650251737
 20
2227.7863360670867
 30
0.0
 10
457.0577650251737
 20
2227.7863360670867
 30
0.0
 10
421.83326502517366
 20
2225.905836067087
 30
0.0
 10
407.61046502517365
 20
2216.0827360670864
 30
0.0
 10
380.12906502517376
 20
2195.8332360670865
 30
0.0
 10
380.12906502517376
 20
2195.8332360670865
 30
0.0
 10
364.6918650251737
 20
2184.4376360670867
 30
0.0
 10
356.81246502517365
 20
2172.0305360670864
 30
0.0
 10
348.49086502517366
 20
2155.1125360670867
 30
0.0
  0
ENDSEC
  0
SECTION
  2
OBJECTS
  0
DICTIONARY
  5
A
330
0
100
AcDbDictionary
281
1
  3
ACAD_COLOR
350
B
  3
ACAD_GROUP
350
C
  3
ACAD_LAYOUT
350
D
  3
ACAD_MATERIAL
350
E
  3
ACAD_MLEADERSTYLE
350
F
  3
ACAD_MLINESTYLE
350
10
  3
ACAD_PLOTSETTINGS
350
11
  3
ACAD_PLOTSTYLENAME
350
12
  3
ACAD_SCALELIST
350
14
  3
ACAD_TABLESTYLE
350
15
  3
ACAD_VISUALSTYLE
350
16
  3
EZDXF_META
350
2D
  0
DICTIONARY
  5
B
330
A
100
AcDbDictionary
281
1
  0
DICTIONARY
  5
C
330
A
100
AcDbDictionary
281
1
  0
DICTIONARY
  5
D
330
A
100
AcDbDictionary
281
1
  3
Model
350
1A
  3
Layout1
350
1E
  0
DICTIONARY
  5
E
330
A
100
AcDbDictionary
281
1
  3
ByBlock
350
1F
  3
ByLayer
350
20
  3
Global
350
21
  0
DICTIONARY
  5
F
330
A
100
AcDbDictionary
281
1
  3
Standard
350
2C
  0
DICTIONARY
  5
10
330
A
100
AcDbDictionary
281
1
  3
Standard
350
22
  0
DICTIONARY
  5
11
330
A
100
AcDbDictionary
281
1
  0
ACDBDICTIONARYWDFLT
  5
12
330
A
100
AcDbDictionary
281
1
  3
Normal
350
13
100
AcDbDictionaryWithDefault
340
13
  0
ACDBPLACEHOLDER
  5
13
330
12
  0
DICTIONARY
  5
14
330
A
100
AcDbDictionary
281
1
  0
DICTIONARY
  5
15
330
A
100
AcDbDictionary
281
1
  0
DICTIONARY
  5
16
330
A
100
AcDbDictionary
281
1
  0
LAYOUT
  5
1A
330
D
100
AcDbPlotSettings
  1

  4
A3
  6

 40
7.5
 41
20.0
 42
7.5
 43
20.0
 44
420.0
 45
297.0
 46
0.0
 47
0.0
 48
0.0
 49
0.0
140
0.0
141
0.0
142
1.0
143
1.0
 70
1024
 72
1
 73
0
 74
5
  7

 75
16
 76
0
 77
2
 78
300
147
1.0
148
0.0
149
0.0
100
AcDbLayout
  1
Model
 70
1
 71
0
 10
0.0
 20
0.0
 11
420.0
 21
297.0
 12
0.0
 22
0.0
 32
0.0
 14
1e+20
 24
1e+20
 34
1e+20
 15
-1e+20
 25
-1e+20
 35
-1e+20
146
0.0
 13
0.0
 23
0.0
 33
0.0
 16
1.0
 26
0.0
 36
0.0
 17
0.0
 27
1.0
 37
0.0
 76
1
330
17
  0
LAYOUT
  5
1E
330
D
100
AcDbPlotSettings
  1

  4
A3
  6

 40
7.5
 41
20.0
 42
7.5
 43
20.0
 44
420.0
 45
297.0
 46
0.0
 47
0.0
 48
0.0
 49
0.0
140
0.0
141
0.0
142
1.0
143
1.0
 70
0
 72
1
 73
0
 74
5
  7

 75
16
 76
0
 77
2
 78
300
147
1.0
148
0.0
149
0.0
100
AcDbLayout
  1
Layout1
 70
1
 71
1
 10
0.0
 20
0.0
 11
420.0
 21
297.0
 12
0.0
 22
0.0
 32
0.0
 14
1e+20
 24
1e+20
 34
1e+20
 15
-1e+20
 25
-1e+20
 35
-1e+20
146
0.0
 13
0.0
 23
0.0
 33
0.0
 16
1.0
 26
0.0
 36
0.0
 17
0.0
 27
1.0
 37
0.0
 76
1
330
1B
  0
MATERIAL
  5
1F
102
{ACAD_REACTORS
330
E
102
}
330
E
100
AcDbMaterial
  1
ByBlock
  2

 70
0
 40
1.0
 71
1
 41
1.0
 91
-1023410177
 42
1.0
 72
1
  3

 73
1
 74
1
 75
1
 44
0.5
 73
0
 45
1.0
 46
1.0
 77
1
  4

 78
1
 79
1
170
1
 48
1.0
171
1
  6

172
1
173
1
174
1
140
1.0
141
1.0
175
1
  7

176
1
177
1
178
1
143
1.0
179
1
  8

270
1
271
1
272
1
145
1.0
146
1.0
273
1
  9

274
1
275
1
276
1
 42
1.0
 72
1
  3

 73
1
 74
1
 75
1
 94
63
  0
MATERIAL
  5
20
102
{ACAD_REACTORS
330
E
102
}
330
E
100
AcDbMaterial
  1
ByLayer
  2

 70
0
 40
1.0
 71
1
 41
1.0
 91
-1023410177
 42
1.0
 72
1
  3

 73
1
 74
1
 75
1
 44
0.5
 73
0
 45
1.0
 46
1.0
 77
1
  4

 78
1
 79
1
170
1
 48
1.0
171
1
  6

172
1
173
1
174
1
140
1.0
141
1.0
175
1
  7

176
1
177
1
178
1
143
1.0
179
1
  8

270
1
271
1
272
1
145
1.0
146
1.0
273
1
  9

274
1
275
1
276
1
 42
1.0
 72
1
  3

 73
1
 74
1
 75
1
 94
63
  0
MATERIAL
  5
21
102
{ACAD_REACTORS
330
E
102
}
330
E
100
AcDbMaterial
  1
Global
  2

 70
0
 40
1.0
 71
1
 41
1.0
 91
-1023410177
 42
1.0
 72
1
  3

 73
1
 74
1
 75
1
 44
0.5
 73
0
 45
1.0
 46
1.0
 77
1
  4

 78
1
 79
1
170
1
 48
1.0
171
1
  6

172
1
173
1
174
1
140
1.0
141
1.0
175
1
  7

176
1
177
1
178
1
143
1.0
179
1
  8

270
1
271
1
272
1
145
1.0
146
1.0
273
1
  9

274
1
275
1
276
1
 42
1.0
 72
1
  3

 73
1
 74
1
 75
1
 94
63
  0
MLINESTYLE
  5
22
102
{ACAD_REACTORS
330
10
102
}
330
10
100
AcDbMlineStyle
  2
Standard
 70
0
  3

 62
256
 51
90.0
 52
90.0
 71
2
 49
0.5
 62
256
  6
BYLAYER
 49
-0.5
 62
256
  6
BYLAYER
  0
MLEADERSTYLE
  5
2C
102
{ACAD_REACTORS
330
F
102
}
330
F
100
AcDbMLeaderStyle
179
2
170
2
171
1
172
0
 90
2
 40
0.0
 41
0.0
173
1
 91
-1056964608
 92
-2
290
1
 42
2.0
291
1
 43
8.0
  3
Standard
 44
4.0
300

342
29
174
1
175
1
176
0
178
1
 93
-1056964608
 45
4.0
292
0
297
0
 46
4.0
 94
-1056964608
 47
1.0
 49
1.0
140
1.0
294
1
141
0.0
177
0
142
1.0
295
0
296
0
143
3.75
271
0
272
9
273
9
  0
DICTIONARY
  5
2D
330
A
100
AcDbDictionary
280
1
281
1
  3
CREATED_BY_EZDXF
350
2E
  3
WRITTEN_BY_EZDXF
350
6D
  0
DICTIONARYVAR
  5
2E
330
2D
100
DictionaryVariables
280
0
  1
1.4.2 @ 2025-08-15T11:22:48.190713+00:00
  0
DICTIONARYVAR
  5
6D
330
2D
100
DictionaryVariables
280
0
  1
1.4.2 @ 2025-08-15T11:22:48.196706+00:00
  0
ENDSEC
  0
EOF
