  0
SECTION
  2
HEADER
  9
$ACADVER
  1
AC1024
  9
$ACADMAINTVER
 70
6
  9
$DWGCODEPAGE
  3
ANSI_1252
  9
$LASTSAVEDBY
  1
ezdxf
  9
$INSBASE
 10
0.0
 20
0.0
 30
0.0
  9
$EXTMIN
 10
1e+20
 20
1e+20
 30
1e+20
  9
$EXTMAX
 10
-1e+20
 20
-1e+20
 30
-1e+20
  9
$LIMMIN
 10
0.0
 20
0.0
  9
$LIMMAX
 10
420.0
 20
297.0
  9
$ORTHOMODE
 70
0
  9
$REGENMODE
 70
1
  9
$FILLMODE
 70
1
  9
$QTEXTMODE
 70
0
  9
$MIRRTEXT
 70
1
  9
$LTSCALE
 40
1.0
  9
$ATTMODE
 70
1
  9
$TEXTSIZE
 40
2.5
  9
$TRACEWID
 40
1.0
  9
$TEXTSTYLE
  7
Standard
  9
$CLAYER
  8
0
  9
$CELTYPE
  6
ByLayer
  9
$CECOLOR
 62
256
  9
$CELTSCALE
 40
1.0
  9
$DISPSILH
 70
0
  9
$DIMSCALE
 40
1.0
  9
$DIMASZ
 40
2.5
  9
$DIMEXO
 40
0.625
  9
$DIMDLI
 40
3.75
  9
$DIMRND
 40
0.0
  9
$DIMDLE
 40
0.0
  9
$DIMEXE
 40
1.25
  9
$DIMTP
 40
0.0
  9
$DIMTM
 40
0.0
  9
$DIMTXT
 40
2.5
  9
$DIMCEN
 40
2.5
  9
$DIMTSZ
 40
0.0
  9
$DIMTOL
 70
0
  9
$DIMLIM
 70
0
  9
$DIMTIH
 70
0
  9
$DIMTOH
 70
0
  9
$DIMSE1
 70
0
  9
$DIMSE2
 70
0
  9
$DIMTAD
 70
1
  9
$DIMZIN
 70
8
  9
$DIMBLK
  1

  9
$DIMASO
 70
1
  9
$DIMSHO
 70
1
  9
$DIMPOST
  1

  9
$DIMAPOST
  1

  9
$DIMALT
 70
0
  9
$DIMALTD
 70
3
  9
$DIMALTF
 40
0.03937007874
  9
$DIMLFAC
 40
1.0
  9
$DIMTOFL
 70
1
  9
$DIMTVP
 40
0.0
  9
$DIMTIX
 70
0
  9
$DIMSOXD
 70
0
  9
$DIMSAH
 70
0
  9
$DIMBLK1
  1

  9
$DIMBLK2
  1

  9
$DIMSTYLE
  2
ISO-25
  9
$DIMCLRD
 70
0
  9
$DIMCLRE
 70
0
  9
$DIMCLRT
 70
0
  9
$DIMTFAC
 40
1.0
  9
$DIMGAP
 40
0.625
  9
$DIMJUST
 70
0
  9
$DIMSD1
 70
0
  9
$DIMSD2
 70
0
  9
$DIMTOLJ
 70
0
  9
$DIMTZIN
 70
8
  9
$DIMALTZ
 70
0
  9
$DIMALTTZ
 70
0
  9
$DIMUPT
 70
0
  9
$DIMDEC
 70
2
  9
$DIMTDEC
 70
2
  9
$DIMALTU
 70
2
  9
$DIMALTTD
 70
3
  9
$DIMTXSTY
  7
Standard
  9
$DIMAUNIT
 70
0
  9
$DIMADEC
 70
0
  9
$DIMALTRND
 40
0.0
  9
$DIMAZIN
 70
0
  9
$DIMDSEP
 70
44
  9
$DIMATFIT
 70
3
  9
$DIMFRAC
 70
0
  9
$DIMLDRBLK
  1

  9
$DIMLUNIT
 70
2
  9
$DIMLWD
 70
-2
  9
$DIMLWE
 70
-2
  9
$DIMTMOVE
 70
0
  9
$DIMFXL
 40
1.0
  9
$DIMFXLON
 70
0
  9
$DIMJOGANG
 40
0.785398163397
  9
$DIMTFILL
 70
0
  9
$DIMTFILLCLR
 70
0
  9
$DIMARCSYM
 70
0
  9
$DIMLTYPE
  6

  9
$DIMLTEX1
  6

  9
$DIMLTEX2
  6

  9
$DIMTXTDIRECTION
 70
0
  9
$LUNITS
 70
2
  9
$LUPREC
 70
4
  9
$SKETCHINC
 40
1.0
  9
$FILLETRAD
 40
10.0
  9
$AUNITS
 70
0
  9
$AUPREC
 70
2
  9
$MENU
  1
.
  9
$ELEVATION
 40
0.0
  9
$PELEVATION
 40
0.0
  9
$THICKNESS
 40
0.0
  9
$LIMCHECK
 70
0
  9
$CHAMFERA
 40
0.0
  9
$CHAMFERB
 40
0.0
  9
$CHAMFERC
 40
0.0
  9
$CHAMFERD
 40
0.0
  9
$SKPOLY
 70
0
  9
$TDCREATE
 40
2460911.6913888888
  9
$TDUCREATE
 40
2458532.153996898
  9
$TDUPDATE
 40
2460911.6913888888
  9
$TDUUPDATE
 40
2458532.1544311
  9
$TDINDWG
 40
0.0
  9
$TDUSRTIMER
 40
0.0
  9
$USRTIMER
 70
1
  9
$ANGBASE
 50
0.0
  9
$ANGDIR
 70
0
  9
$PDMODE
 70
0
  9
$PDSIZE
 40
0.0
  9
$PLINEWID
 40
0.0
  9
$SPLFRAME
 70
0
  9
$SPLINETYPE
 70
6
  9
$SPLINESEGS
 70
8
  9
$HANDSEED
  5
3F
  9
$SURFTAB1
 70
6
  9
$SURFTAB2
 70
6
  9
$SURFTYPE
 70
6
  9
$SURFU
 70
6
  9
$SURFV
 70
6
  9
$UCSBASE
  2

  9
$UCSNAME
  2

  9
$UCSORG
 10
0.0
 20
0.0
 30
0.0
  9
$UCSXDIR
 10
1.0
 20
0.0
 30
0.0
  9
$UCSYDIR
 10
0.0
 20
1.0
 30
0.0
  9
$UCSORTHOREF
  2

  9
$UCSORTHOVIEW
 70
0
  9
$UCSORGTOP
 10
0.0
 20
0.0
 30
0.0
  9
$UCSORGBOTTOM
 10
0.0
 20
0.0
 30
0.0
  9
$UCSORGLEFT
 10
0.0
 20
0.0
 30
0.0
  9
$UCSORGRIGHT
 10
0.0
 20
0.0
 30
0.0
  9
$UCSORGFRONT
 10
0.0
 20
0.0
 30
0.0
  9
$UCSORGBACK
 10
0.0
 20
0.0
 30
0.0
  9
$PUCSBASE
  2

  9
$PUCSNAME
  2

  9
$PUCSORG
 10
0.0
 20
0.0
 30
0.0
  9
$PUCSXDIR
 10
1.0
 20
0.0
 30
0.0
  9
$PUCSYDIR
 10
0.0
 20
1.0
 30
0.0
  9
$PUCSORTHOREF
  2

  9
$PUCSORTHOVIEW
 70
0
  9
$PUCSORGTOP
 10
0.0
 20
0.0
 30
0.0
  9
$PUCSORGBOTTOM
 10
0.0
 20
0.0
 30
0.0
  9
$PUCSORGLEFT
 10
0.0
 20
0.0
 30
0.0
  9
$PUCSORGRIGHT
 10
0.0
 20
0.0
 30
0.0
  9
$PUCSORGFRONT
 10
0.0
 20
0.0
 30
0.0
  9
$PUCSORGBACK
 10
0.0
 20
0.0
 30
0.0
  9
$USERI1
 70
0
  9
$USERI2
 70
0
  9
$USERI3
 70
0
  9
$USERI4
 70
0
  9
$USERI5
 70
0
  9
$USERR1
 40
0.0
  9
$USERR2
 40
0.0
  9
$USERR3
 40
0.0
  9
$USERR4
 40
0.0
  9
$USERR5
 40
0.0
  9
$WORLDVIEW
 70
1
  9
$SHADEDGE
 70
3
  9
$SHADEDIF
 70
70
  9
$TILEMODE
 70
1
  9
$MAXACTVP
 70
64
  9
$PINSBASE
 10
0.0
 20
0.0
 30
0.0
  9
$PLIMCHECK
 70
0
  9
$PEXTMIN
 10
1e+20
 20
1e+20
 30
1e+20
  9
$PEXTMAX
 10
-1e+20
 20
-1e+20
 30
-1e+20
  9
$PLIMMIN
 10
0.0
 20
0.0
  9
$PLIMMAX
 10
420.0
 20
297.0
  9
$UNITMODE
 70
0
  9
$VISRETAIN
 70
1
  9
$PLINEGEN
 70
0
  9
$PSLTSCALE
 70
1
  9
$TREEDEPTH
 70
3020
  9
$CMLSTYLE
  2
Standard
  9
$CMLJUST
 70
0
  9
$CMLSCALE
 40
20.0
  9
$PROXYGRAPHICS
 70
1
  9
$MEASUREMENT
 70
1
  9
$CELWEIGHT
370
-1
  9
$ENDCAPS
280
0
  9
$JOINSTYLE
280
0
  9
$LWDISPLAY
290
0
  9
$INSUNITS
 70
4
  9
$HYPERLINKBASE
  1

  9
$STYLESHEET
  1

  9
$XEDIT
290
1
  9
$CEPSNTYPE
380
0
  9
$PSTYLEMODE
290
1
  9
$FINGERPRINTGUID
  2
{CAF865A6-B368-49F1-B594-C2ADFCA44E70}
  9
$VERSIONGUID
  2
{CFADFDFB-3657-44F4-90F8-B51B38297DFC}
  9
$EXTNAMES
290
1
  9
$PSVPSCALE
 40
0.0
  9
$OLESTARTUP
290
0
  9
$SORTENTS
280
127
  9
$INDEXCTL
280
0
  9
$HIDETEXT
280
1
  9
$XCLIPFRAME
280
1
  9
$HALOGAP
280
0
  9
$OBSCOLOR
 70
257
  9
$OBSLTYPE
280
0
  9
$INTERSECTIONDISPLAY
280
0
  9
$INTERSECTIONCOLOR
 70
257
  9
$DIMASSOC
280
2
  9
$PROJECTNAME
  1

  9
$CAMERADISPLAY
290
0
  9
$LENSLENGTH
 40
50.0
  9
$CAMERAHEIGHT
 40
0.0
  9
$STEPSPERSEC
 40
24.0
  9
$STEPSIZE
 40
100.0
  9
$3DDWFPREC
 40
2.0
  9
$PSOLWIDTH
 40
0.005
  9
$PSOLHEIGHT
 40
0.08
  9
$LOFTANG1
 40
1.570796326795
  9
$LOFTANG2
 40
1.570796326795
  9
$LOFTMAG1
 40
0.0
  9
$LOFTMAG2
 40
0.0
  9
$LOFTPARAM
 70
7
  9
$LOFTNORMALS
280
1
  9
$LATITUDE
 40
37.795
  9
$LONGITUDE
 40
-122.394
  9
$NORTHDIRECTION
 40
0.0
  9
$TIMEZONE
 70
-8000
  9
$LIGHTGLYPHDISPLAY
280
1
  9
$TILEMODELIGHTSYNCH
280
1
  9
$CMATERIAL
347
20
  9
$SOLIDHIST
280
0
  9
$SHOWHIST
280
1
  9
$DWFFRAME
280
2
  9
$DGNFRAME
280
2
  9
$REALWORLDSCALE
290
1
  9
$INTERFERECOLOR
 62
256
  9
$CSHADOW
280
0
  9
$SHADOWPLANELOCATION
 40
0.0
  0
ENDSEC
  0
SECTION
  2
CLASSES
  0
CLASS
  1
ACDBDICTIONARYWDFLT
  2
AcDbDictionaryWithDefault
  3
ObjectDBX Classes
 90
0
 91
0
280
0
281
0
  0
CLASS
  1
SUN
  2
AcDbSun
  3
SCENEOE
 90
1153
 91
0
280
0
281
0
  0
CLASS
  1
VISUALSTYLE
  2
AcDbVisualStyle
  3
ObjectDBX Classes
 90
4095
 91
0
280
0
281
0
  0
CLASS
  1
MATERIAL
  2
AcDbMaterial
  3
ObjectDBX Classes
 90
1153
 91
0
280
0
281
0
  0
CLASS
  1
SCALE
  2
AcDbScale
  3
ObjectDBX Classes
 90
1153
 91
0
280
0
281
0
  0
CLASS
  1
TABLESTYLE
  2
AcDbTableStyle
  3
ObjectDBX Classes
 90
4095
 91
0
280
0
281
0
  0
CLASS
  1
MLEADERSTYLE
  2
AcDbMLeaderStyle
  3
ACDB_MLEADERSTYLE_CLASS
 90
4095
 91
0
280
0
281
0
  0
CLASS
  1
DICTIONARYVAR
  2
AcDbDictionaryVar
  3
ObjectDBX Classes
 90
0
 91
0
280
0
281
0
  0
CLASS
  1
CELLSTYLEMAP
  2
AcDbCellStyleMap
  3
ObjectDBX Classes
 90
1152
 91
0
280
0
281
0
  0
CLASS
  1
MENTALRAYRENDERSETTINGS
  2
AcDbMentalRayRenderSettings
  3
SCENEOE
 90
1024
 91
0
280
0
281
0
  0
CLASS
  1
ACDBDETAILVIEWSTYLE
  2
AcDbDetailViewStyle
  3
ObjectDBX Classes
 90
1025
 91
0
280
0
281
0
  0
CLASS
  1
ACDBSECTIONVIEWSTYLE
  2
AcDbSectionViewStyle
  3
ObjectDBX Classes
 90
1025
 91
0
280
0
281
0
  0
CLASS
  1
RASTERVARIABLES
  2
AcDbRasterVariables
  3
ISM
 90
0
 91
0
280
0
281
0
  0
CLASS
  1
LAYOUT
  2
AcDbLayout
  3
ObjectDBX Classes
 90
0
 91
0
280
0
281
0
  0
CLASS
  1
ACDBPLACEHOLDER
  2
AcDbPlaceHolder
  3
ObjectDBX Classes
 90
0
 91
0
280
0
281
0
  0
ENDSEC
  0
SECTION
  2
TABLES
  0
TABLE
  2
VPORT
  5
8
330
0
100
AcDbSymbolTable
 70
1
  0
VPORT
  5
23
330
8
100
AcDbSymbolTableRecord
100
AcDbViewportTableRecord
  2
*Active
 70
0
 10
0.0
 20
0.0
 11
1.0
 21
1.0
 12
0.0
 22
0.0
 13
0.0
 23
0.0
 14
0.5
 24
0.5
 15
0.5
 25
0.5
 16
0.0
 26
0.0
 36
1.0
 17
0.0
 27
0.0
 37
0.0
 40
1000.0
 41
1.34
 42
50.0
 43
0.0
 44
0.0
 50
0.0
 51
0.0
 71
0
 72
1000
 73
1
 74
3
 75
0
 76
0
 77
0
 78
0
281
0
 65
0
146
0.0
  0
ENDTAB
  0
TABLE
  2
LTYPE
  5
2
330
0
100
AcDbSymbolTable
 70
3
  0
LTYPE
  5
24
330
2
100
AcDbSymbolTableRecord
100
AcDbLinetypeTableRecord
  2
ByBlock
 70
0
  3

 72
65
 73
0
 40
0.0
  0
LTYPE
  5
25
330
2
100
AcDbSymbolTableRecord
100
AcDbLinetypeTableRecord
  2
ByLayer
 70
0
  3

 72
65
 73
0
 40
0.0
  0
LTYPE
  5
26
330
2
100
AcDbSymbolTableRecord
100
AcDbLinetypeTableRecord
  2
Continuous
 70
0
  3

 72
65
 73
0
 40
0.0
  0
ENDTAB
  0
TABLE
  2
LAYER
  5
1
330
0
100
AcDbSymbolTable
 70
2
  0
LAYER
  5
27
330
1
100
AcDbSymbolTableRecord
100
AcDbLayerTableRecord
  2
0
 70
0
 62
7
  6
Continuous
370
-3
390
13
347
21
  0
LAYER
  5
28
330
1
100
AcDbSymbolTableRecord
100
AcDbLayerTableRecord
  2
Defpoints
 70
0
 62
7
  6
Continuous
290
0
370
-3
390
13
347
21
  0
ENDTAB
  0
TABLE
  2
STYLE
  5
5
330
0
100
AcDbSymbolTable
 70
1
  0
STYLE
  5
29
330
5
100
AcDbSymbolTableRecord
100
AcDbTextStyleTableRecord
  2
Standard
 70
0
 40
0.0
 41
1.0
 50
0.0
 71
0
 42
2.5
  3
txt
  4

  0
ENDTAB
  0
TABLE
  2
VIEW
  5
7
330
0
100
AcDbSymbolTable
 70
0
  0
ENDTAB
  0
TABLE
  2
UCS
  5
6
330
0
100
AcDbSymbolTable
 70
0
  0
ENDTAB
  0
TABLE
  2
APPID
  5
3
330
0
100
AcDbSymbolTable
 70
3
  0
APPID
  5
2A
330
3
100
AcDbSymbolTableRecord
100
AcDbRegAppTableRecord
  2
ACAD
 70
0
  0
APPID
  5
3C
330
3
100
AcDbSymbolTableRecord
100
AcDbRegAppTableRecord
  2
HATCHBACKGROUNDCOLOR
 70
0
  0
APPID
  5
3D
330
3
100
AcDbSymbolTableRecord
100
AcDbRegAppTableRecord
  2
EZDXF
 70
0
  0
ENDTAB
  0
TABLE
  2
DIMSTYLE
  5
4
330
0
100
AcDbSymbolTable
 70
1
100
AcDbDimStyleTable
  0
DIMSTYLE
105
2B
330
4
100
AcDbSymbolTableRecord
100
AcDbDimStyleTableRecord
  2
Standard
 70
0
 40
1.0
 41
2.5
 42
0.625
 43
3.75
 44
1.25
 45
0.0
 46
0.0
 47
0.0
 48
0.0
 49
2.5
140
2.5
141
2.5
142
0.0
143
0.03937007874
144
1.0
145
0.0
146
1.0
147
0.625
148
0.0
 69
0
 70
0
 71
0
 72
0
 73
0
 74
0
 75
0
 76
0
 77
1
 78
8
 79
3
170
0
171
3
172
1
173
0
174
0
175
0
176
0
177
0
178
0
179
2
271
2
272
2
273
2
274
3
275
0
276
0
277
2
278
44
279
0
280
0
281
0
282
0
283
0
284
8
285
0
286
0
288
0
289
3
290
0
371
-2
372
-2
  0
ENDTAB
  0
TABLE
  2
BLOCK_RECORD
  5
9
330
0
100
AcDbSymbolTable
 70
2
  0
BLOCK_RECORD
  5
17
330
9
100
AcDbSymbolTableRecord
100
AcDbBlockTableRecord
  2
*Model_Space
340
1A
 70
0
280
1
281
0
  0
BLOCK_RECORD
  5
1B
330
9
100
AcDbSymbolTableRecord
100
AcDbBlockTableRecord
  2
*Paper_Space
340
1E
 70
0
280
1
281
0
  0
ENDTAB
  0
ENDSEC
  0
SECTION
  2
BLOCKS
  0
BLOCK
  5
18
330
17
100
AcDbEntity
  8
0
100
AcDbBlockBegin
  2
*Model_Space
 70
0
 10
0.0
 20
0.0
 30
0.0
  3
*Model_Space
  1

  0
ENDBLK
  5
19
330
17
100
AcDbEntity
  8
0
100
AcDbBlockEnd
  0
BLOCK
  5
1C
330
1B
100
AcDbEntity
  8
0
100
AcDbBlockBegin
  2
*Paper_Space
 70
0
 10
0.0
 20
0.0
 30
0.0
  3
*Paper_Space
  1

  0
ENDBLK
  5
1D
330
1B
100
AcDbEntity
  8
0
100
AcDbBlockEnd
  0
ENDSEC
  0
SECTION
  2
ENTITIES
  0
SPLINE
  5
2F
330
17
100
AcDbEntity
  8
layer 1
 62
250
370
9
100
AcDbSpline
 70
24
 71
3
 72
8
 73
4
 74
0
 42
1e-09
 40
0.0
 40
0.0
 40
0.0
 40
0.0
 40
1.0
 40
1.0
 40
1.0
 40
1.0
 10
655.1330203458803
 20
449.8888270981082
 30
0.0
 10
655.1330203458803
 20
449.8888270981082
 30
0.0
 10
667.4973203458803
 20
429.3445270981082
 30
0.0
 10
667.4973203458803
 20
429.3445270981082
 30
0.0
  0
SPLINE
  5
30
330
17
100
AcDbEntity
  8
layer 1
 62
250
370
9
100
AcDbSpline
 70
24
 71
3
 72
8
 73
4
 74
0
 42
1e-09
 40
0.0
 40
0.0
 40
0.0
 40
0.0
 40
1.0
 40
1.0
 40
1.0
 40
1.0
 10
637.4031203458803
 20
449.8888270981082
 30
0.0
 10
637.4031203458803
 20
449.8888270981082
 30
0.0
 10
649.7674203458803
 20
429.3445270981082
 30
0.0
 10
649.7674203458803
 20
429.3445270981082
 30
0.0
  0
SPLINE
  5
31
330
17
100
AcDbEntity
  8
layer 1
 62
250
370
9
100
AcDbSpline
 70
8
 71
3
 72
32
 73
28
 74
0
 42
1e-09
 40
0.0
 40
0.0
 40
0.0
 40
0.0
 40
0.125
 40
0.125
 40
0.125
 40
0.125
 40
0.25
 40
0.25
 40
0.25
 40
0.25
 40
0.375
 40
0.375
 40
0.375
 40
0.375
 40
0.5
 40
0.5
 40
0.5
 40
0.5
 40
0.625
 40
0.625
 40
0.625
 40
0.625
 40
0.75
 40
0.75
 40
0.75
 40
0.75
 40
1.0
 40
1.0
 40
1.0
 40
1.0
 10
84.4227203458803
 20
246.0021270981082
 30
0.0
 10
84.29752034588023
 20
243.92112709810817
 30
0.0
 10
82.79532034588033
 20
242.59592709810818
 30
0.0
 10
80.87162034588027
 20
242.5862270981081
 30
0.0
 10
80.87162034588027
 20
242.5862270981081
 30
0.0
 10
78.78302034588023
 20
242.58652709810815
 30
0.0
 10
76.6944203458803
 20
242.58652709810815
 30
0.0
 10
74.6061203458803
 20
242.5862270981081
 30
0.0
 10
74.6061203458803
 20
242.5862270981081
 30
0.0
 10
72.8819203458803
 20
242.49182709810816
 30
0.0
 10
71.11552034588033
 20
244.17972709810817
 30
0.0
 10
71.12552034588032
 20
245.98652709810813
 30
0.0
 10
71.12552034588032
 20
245.98652709810813
 30
0.0
 10
71.12592034588033
 20
251.1547270981082
 30
0.0
 10
71.12592034588033
 20
256.32242709810816
 30
0.0
 10
71.12552034588032
 20
261.4898270981082
 30
0.0
 10
71.12552034588032
 20
261.4898270981082
 30
0.0
 10
71.12932034588027
 20
263.40492709810815
 30
0.0
 10
72.69382034588023
 20
264.94482709810814
 30
0.0
 10
74.62172034588025
 20
264.9327270981081
 30
0.0
 10
74.62172034588025
 20
264.9327270981081
 30
0.0
 10
76.70472034588033
 20
264.9327270981081
 30
0.0
 10
78.78822034588029
 20
264.9327270981081
 30
0.0
 10
80.87162034588027
 20
264.9327270981081
 30
0.0
 10
80.87162034588027
 20
264.9327270981081
 30
0.0
 10
82.61512034588031
 20
264.9645270981082
 30
0.0
 10
84.39882034588027
 20
263.62862709810815
 30
0.0
 10
84.4227203458803
 20
261.44522709810815
 30
0.0
  0
SPLINE
  5
32
330
17
100
AcDbEntity
  8
layer 1
 62
250
370
9
100
AcDbSpline
 70
8
 71
3
 72
52
 73
48
 74
0
 42
1e-09
 40
0.0
 40
0.0
 40
0.0
 40
0.0
 40
0.0769230769230769
 40
0.0769230769230769
 40
0.0769230769230769
 40
0.0769230769230769
 40
0.1538461538461539
 40
0.1538461538461539
 40
0.1538461538461539
 40
0.1538461538461539
 40
0.2307692307692308
 40
0.2307692307692308
 40
0.2307692307692308
 40
0.2307692307692308
 40
0.3076923076923077
 40
0.3076923076923077
 40
0.3076923076923077
 40
0.3076923076923077
 40
0.3846153846153846
 40
0.3846153846153846
 40
0.3846153846153846
 40
0.3846153846153846
 40
0.4615384615384616
 40
0.4615384615384616
 40
0.4615384615384616
 40
0.4615384615384616
 40
0.5384615384615384
 40
0.5384615384615384
 40
0.5384615384615384
 40
0.5384615384615384
 40
0.6153846153846154
 40
0.6153846153846154
 40
0.6153846153846154
 40
0.6153846153846154
 40
0.6923076923076923
 40
0.6923076923076923
 40
0.6923076923076923
 40
0.6923076923076923
 40
0.7692307692307693
 40
0.7692307692307693
 40
0.7692307692307693
 40
0.7692307692307693
 40
0.8461538461538461
 40
0.8461538461538461
 40
0.8461538461538461
 40
0.8461538461538461
 40
1.0
 40
1.0
 40
1.0
 40
1.0
 10
331.6274203458803
 20
249.23242709810813
 30
0.0
 10
331.6274203458803
 20
249.23242709810813
 30
0.0
 10
331.6274203458803
 20
251.08962709810817
 30
0.0
 10
331.6274203458803
 20
251.08962709810817
 30
0.0
 10
331.6274203458803
 20
251.08962709810817
 30
0.0
 10
331.61312034588025
 20
252.83152709810815
 30
0.0
 10
334.2776203458802
 20
254.94962709810818
 30
0.0
 10
336.3367203458803
 20
254.9269270981082
 30
0.0
 10
336.3367203458803
 20
254.9269270981082
 30
0.0
 10
338.4008203458802
 20
254.9269270981082
 30
0.0
 10
340.4648203458803
 20
254.9269270981082
 30
0.0
 10
342.5285203458802
 20
254.9269270981082
 30
0.0
 10
342.5285203458802
 20
254.9269270981082
 30
0.0
 10
344.7230203458803
 20
254.93572709810815
 30
0.0
 10
346.3213203458803
 20
253.08892709810812
 30
0.0
 10
346.3657203458803
 20
251.1768270981081
 30
0.0
 10
346.3657203458803
 20
251.1768270981081
 30
0.0
 10
346.36532034588026
 20
249.74172709810819
 30
0.0
 10
346.36532034588026
 20
248.30662709810815
 30
0.0
 10
346.3657203458803
 20
246.8711270981081
 30
0.0
 10
346.3657203458803
 20
246.8711270981081
 30
0.0
 10
346.3171203458803
 20
245.2176270981082
 30
0.0
 10
344.71452034588026
 20
242.9876270981082
 30
0.0
 10
342.51622034588024
 20
242.99762709810818
 30
0.0
 10
342.51622034588024
 20
242.99762709810818
 30
0.0
 10
344.71992034588027
 20
242.98642709810815
 30
0.0
 10
346.32792034588033
 20
241.1832270981082
 30
0.0
 10
346.3819203458803
 20
239.12372709810813
 30
0.0
 10
346.3819203458803
 20
239.12372709810813
 30
0.0
 10
346.3815203458803
 20
237.3390270981082
 30
0.0
 10
346.3815203458803
 20
235.55432709810816
 30
0.0
 10
346.3819203458803
 20
233.7692270981081
 30
0.0
 10
346.3819203458803
 20
233.7692270981081
 30
0.0
 10
346.39202034588027
 20
231.70782709810817
 30
0.0
 10
344.3371203458803
 20
229.94472709810816
 30
0.0
 10
342.51622034588024
 20
229.95282709810817
 30
0.0
 10
342.51622034588024
 20
229.95282709810817
 30
0.0
 10
340.45092034588026
 20
229.9531270981082
 30
0.0
 10
338.38572034588026
 20
229.9531270981082
 30
0.0
 10
336.32012034588024
 20
229.95282709810817
 30
0.0
 10
336.32012034588024
 20
229.95282709810817
 30
0.0
 10
334.1515203458803
 20
229.96432709810813
 30
0.0
 10
331.6205203458803
 20
232.36452709810817
 30
0.0
 10
331.60192034588033
 20
233.8263270981082
 30
0.0
 10
331.60192034588033
 20
233.8263270981082
 30
0.0
 10
331.60192034588033
 20
233.8263270981082
 30
0.0
 10
331.60192034588033
 20
235.7349270981082
 30
0.0
 10
331.60192034588033
 20
235.7349270981082
 30
0.0
  0
SPLINE
  5
33
330
17
100
AcDbEntity
  8
layer 1
 62
250
370
9
100
AcDbSpline
 70
24
 71
3
 72
8
 73
4
 74
0
 42
1e-09
 40
0.0
 40
0.0
 40
0.0
 40
0.0
 40
1.0
 40
1.0
 40
1.0
 40
1.0
 10
336.3371203458803
 20
242.98722709810818
 30
0.0
 10
336.3371203458803
 20
242.98722709810818
 30
0.0
 10
342.5335203458802
 20
242.98722709810818
 30
0.0
 10
342.5335203458802
 20
242.98722709810818
 30
0.0
  0
SPLINE
  5
34
330
17
100
AcDbEntity
  8
layer 1
 62
250
370
9
100
AcDbSpline
 70
11
 71
3
 72
36
 73
32
 74
0
 42
1e-09
 40
0.0
 40
0.0
 40
0.0
 40
0.0
 40
0.1111111111111111
 40
0.1111111111111111
 40
0.1111111111111111
 40
0.1111111111111111
 40
0.2222222222222222
 40
0.2222222222222222
 40
0.2222222222222222
 40
0.2222222222222222
 40
0.3333333333333333
 40
0.3333333333333333
 40
0.3333333333333333
 40
0.3333333333333333
 40
0.4444444444444444
 40
0.4444444444444444
 40
0.4444444444444444
 40
0.4444444444444444
 40
0.5555555555555556
 40
0.5555555555555556
 40
0.5555555555555556
 40
0.5555555555555556
 40
0.6666666666666666
 40
0.6666666666666666
 40
0.6666666666666666
 40
0.6666666666666666
 40
0.7777777777777778
 40
0.7777777777777778
 40
0.7777777777777778
 40
0.7777777777777778
 40
1.0
 40
1.0
 40
1.0
 40
1.0
 10
375.4113203458803
 20
254.93922709810818
 30
0.0
 10
377.7774203458803
 20
254.93922709810818
 30
0.0
 10
380.14392034588025
 20
254.93922709810818
 30
0.0
 10
382.5104203458802
 20
254.93922709810818
 30
0.0
 10
382.5104203458802
 20
254.93922709810818
 30
0.0
 10
384.4909203458802
 20
254.9748270981081
 30
0.0
 10
386.5169203458803
 20
253.48052709810815
 30
0.0
 10
386.5440203458803
 20
251.03842709810817
 30
0.0
 10
386.5440203458803
 20
251.03842709810817
 30
0.0
 10
386.5436203458803
 20
245.2810270981082
 30
0.0
 10
386.5436203458803
 20
239.52322709810812
 30
0.0
 10
386.5440203458803
 20
233.76502709810813
 30
0.0
 10
386.5440203458803
 20
233.76502709810813
 30
0.0
 10
386.4019203458803
 20
231.43742709810817
 30
0.0
 10
384.69552034588025
 20
229.95512709810816
 30
0.0
 10
382.5104203458802
 20
229.94432709810815
 30
0.0
 10
382.5104203458802
 20
229.94432709810815
 30
0.0
 10
380.13802034588025
 20
229.94472709810816
 30
0.0
 10
377.7656203458803
 20
229.94472709810816
 30
0.0
 10
375.3936203458803
 20
229.94432709810815
 30
0.0
 10
375.3936203458803
 20
229.94432709810815
 30
0.0
 10
373.43512034588025
 20
229.83872709810817
 30
0.0
 10
371.42872034588027
 20
231.7266270981081
 30
0.0
 10
371.44012034588025
 20
233.74762709810818
 30
0.0
 10
371.44012034588025
 20
233.74762709810818
 30
0.0
 10
371.44052034588026
 20
239.52822709810812
 30
0.0
 10
371.44052034588026
 20
245.30852709810813
 30
0.0
 10
371.44012034588025
 20
251.08832709810815
 30
0.0
 10
371.44012034588025
 20
251.08832709810815
 30
0.0
 10
371.4444203458803
 20
253.2303270981082
 30
0.0
 10
373.2215203458803
 20
254.95282709810817
 30
0.0
 10
375.4113203458803
 20
254.93922709810818
 30
0.0
  0
SPLINE
  5
35
330
17
100
AcDbEntity
  8
layer 1
 62
250
370
9
100
AcDbSpline
 70
11
 71
3
 72
36
 73
32
 74
0
 42
1e-09
 40
0.0
 40
0.0
 40
0.0
 40
0.0
 40
0.1111111111111111
 40
0.1111111111111111
 40
0.1111111111111111
 40
0.1111111111111111
 40
0.2222222222222222
 40
0.2222222222222222
 40
0.2222222222222222
 40
0.2222222222222222
 40
0.3333333333333333
 40
0.3333333333333333
 40
0.3333333333333333
 40
0.3333333333333333
 40
0.4444444444444444
 40
0.4444444444444444
 40
0.4444444444444444
 40
0.4444444444444444
 40
0.5555555555555556
 40
0.5555555555555556
 40
0.5555555555555556
 40
0.5555555555555556
 40
0.6666666666666666
 40
0.6666666666666666
 40
0.6666666666666666
 40
0.6666666666666666
 40
0.7777777777777778
 40
0.7777777777777778
 40
0.7777777777777778
 40
0.7777777777777778
 40
1.0
 40
1.0
 40
1.0
 40
1.0
 10
355.4113203458803
 20
254.93922709810818
 30
0.0
 10
357.7774203458803
 20
254.93922709810818
 30
0.0
 10
360.14392034588025
 20
254.93922709810818
 30
0.0
 10
362.5104203458802
 20
254.93922709810818
 30
0.0
 10
362.5104203458802
 20
254.93922709810818
 30
0.0
 10
364.4909203458802
 20
254.9748270981081
 30
0.0
 10
366.5169203458803
 20
253.48052709810815
 30
0.0
 10
366.5440203458803
 20
251.03842709810817
 30
0.0
 10
366.5440203458803
 20
251.03842709810817
 30
0.0
 10
366.5436203458803
 20
245.2810270981082
 30
0.0
 10
366.5436203458803
 20
239.52322709810812
 30
0.0
 10
366.5440203458803
 20
233.76502709810813
 30
0.0
 10
366.5440203458803
 20
233.76502709810813
 30
0.0
 10
366.4019203458803
 20
231.43742709810817
 30
0.0
 10
364.69552034588025
 20
229.95512709810816
 30
0.0
 10
362.5104203458802
 20
229.94432709810815
 30
0.0
 10
362.5104203458802
 20
229.94432709810815
 30
0.0
 10
360.13802034588025
 20
229.94472709810816
 30
0.0
 10
357.7656203458803
 20
229.94472709810816
 30
0.0
 10
355.3936203458803
 20
229.94432709810815
 30
0.0
 10
355.3936203458803
 20
229.94432709810815
 30
0.0
 10
353.43512034588025
 20
229.83872709810817
 30
0.0
 10
351.42872034588027
 20
231.7266270981081
 30
0.0
 10
351.44012034588025
 20
233.74762709810818
 30
0.0
 10
351.44012034588025
 20
233.74762709810818
 30
0.0
 10
351.44052034588026
 20
239.52822709810812
 30
0.0
 10
351.44052034588026
 20
245.30852709810813
 30
0.0
 10
351.44012034588025
 20
251.08832709810815
 30
0.0
 10
351.44012034588025
 20
251.08832709810815
 30
0.0
 10
351.4444203458803
 20
253.2303270981082
 30
0.0
 10
353.2215203458803
 20
254.95282709810817
 30
0.0
 10
355.4113203458803
 20
254.93922709810818
 30
0.0
  0
SPLINE
  5
36
330
17
100
AcDbEntity
  8
layer 2
 62
142
370
158
100
AcDbSpline
 70
8
 71
3
 72
16
 73
12
 74
0
 42
1e-09
 40
0.0
 40
0.0
 40
0.0
 40
0.0
 40
0.25
 40
0.25
 40
0.25
 40
0.25
 40
0.5
 40
0.5
 40
0.5
 40
0.5
 40
1.0
 40
1.0
 40
1.0
 40
1.0
 10
519.7037203458804
 20
691.1024270981083
 30
0.0
 10
519.8948203458802
 20
630.7728270981081
 30
0.0
 10
518.5567203458802
 20
568.9748270981081
 30
0.0
 10
520.2218203458804
 20
508.8126270981081
 30
0.0
 10
520.2218203458804
 20
508.8126270981081
 30
0.0
 10
520.9737203458803
 20
481.64492709810816
 30
0.0
 10
534.2200203458804
 20
481.36362709810817
 30
0.0
 10
556.9829203458803
 20
480.0392270981082
 30
0.0
 10
556.9829203458803
 20
480.0392270981082
 30
0.0
 10
584.2538203458803
 20
478.4526270981081
 30
0.0
 10
610.7745203458803
 20
479.0219270981081
 30
0.0
 10
638.0392203458803
 20
479.5016270981082
 30
0.0
  0
SPLINE
  5
37
330
17
100
AcDbEntity
  8
layer 2
 62
142
370
158
100
AcDbSpline
 70
8
 71
3
 72
24
 73
20
 74
0
 42
1e-09
 40
0.0
 40
0.0
 40
0.0
 40
0.0
 40
0.1666666666666667
 40
0.1666666666666667
 40
0.1666666666666667
 40
0.1666666666666667
 40
0.3333333333333333
 40
0.3333333333333333
 40
0.3333333333333333
 40
0.3333333333333333
 40
0.5
 40
0.5
 40
0.5
 40
0.5
 40
0.6666666666666666
 40
0.6666666666666666
 40
0.6666666666666666
 40
0.6666666666666666
 40
1.0
 40
1.0
 40
1.0
 40
1.0
 10
637.7081203458803
 20
499.17252709810816
 30
0.0
 10
637.7081203458803
 20
499.17252709810816
 30
0.0
 10
641.2805203458803
 20
205.85602709810814
 30
0.0
 10
641.2805203458803
 20
205.85602709810814
 30
0.0
 10
641.2805203458803
 20
205.85602709810814
 30
0.0
 10
642.1272203458802
 20
191.11872709810814
 30
0.0
 10
651.5258203458802
 20
69.17082709810813
 30
0.0
 10
647.5722203458803
 20
63.86562709810818
 30
0.0
 10
647.5722203458803
 20
63.86562709810818
 30
0.0
 10
643.7352203458803
 20
58.71702709810813
 30
0.0
 10
633.4688203458802
 20
58.09272709810813
 30
0.0
 10
627.9021203458803
 20
60.34872709810816
 30
0.0
 10
627.9021203458803
 20
60.34872709810816
 30
0.0
 10
607.0099203458803
 20
68.81582709810817
 30
0.0
 10
597.7117203458803
 20
80.52202709810814
 30
0.0
 10
582.6507203458802
 20
95.89672709810816
 30
0.0
 10
582.6507203458802
 20
95.89672709810816
 30
0.0
 10
546.7520203458803
 20
132.54332709810814
 30
0.0
 10
510.8976203458803
 20
169.21172709810816
 30
0.0
 10
474.78942034588033
 20
205.65212709810817
 30
0.0
  0
SPLINE
  5
38
330
17
100
AcDbEntity
  8
layer 2
 62
142
370
158
100
AcDbSpline
 70
8
 71
3
 72
36
 73
32
 74
0
 42
1e-09
 40
0.0
 40
0.0
 40
0.0
 40
0.0
 40
0.1111111111111111
 40
0.1111111111111111
 40
0.1111111111111111
 40
0.1111111111111111
 40
0.2222222222222222
 40
0.2222222222222222
 40
0.2222222222222222
 40
0.2222222222222222
 40
0.3333333333333333
 40
0.3333333333333333
 40
0.3333333333333333
 40
0.3333333333333333
 40
0.4444444444444444
 40
0.4444444444444444
 40
0.4444444444444444
 40
0.4444444444444444
 40
0.5555555555555556
 40
0.5555555555555556
 40
0.5555555555555556
 40
0.5555555555555556
 40
0.6666666666666666
 40
0.6666666666666666
 40
0.6666666666666666
 40
0.6666666666666666
 40
0.7777777777777778
 40
0.7777777777777778
 40
0.7777777777777778
 40
0.7777777777777778
 40
1.0
 40
1.0
 40
1.0
 40
1.0
 10
467.56502034588027
 20
207.36372709810814
 30
0.0
 10
452.3216203458803
 20
214.5957270981081
 30
0.0
 10
450.4363203458803
 20
212.78362709810813
 30
0.0
 10
434.1545203458803
 20
212.40072709810818
 30
0.0
 10
434.1545203458803
 20
212.40072709810818
 30
0.0
 10
391.0404203458803
 20
211.38692709810812
 30
0.0
 10
204.11392034588027
 20
200.46792709810813
 30
0.0
 10
174.41982034588023
 20
210.24062709810812
 30
0.0
 10
174.41982034588023
 20
210.24062709810812
 30
0.0
 10
159.4136203458803
 20
216.16262709810815
 30
0.0
 10
158.99962034588032
 20
228.21552709810817
 30
0.0
 10
159.1586203458803
 20
242.23452709810817
 30
0.0
 10
159.1586203458803
 20
242.23452709810817
 30
0.0
 10
160.09582034588027
 20
310.6434270981082
 30
0.0
 10
162.25002034588033
 20
379.1199270981082
 30
0.0
 10
163.18682034588028
 20
447.5808270981081
 30
0.0
 10
163.18682034588028
 20
447.5808270981081
 30
0.0
 10
163.2533203458803
 20
452.47922709810814
 30
0.0
 10
162.22132034588026
 20
464.49042709810817
 30
0.0
 10
165.9082203458803
 20
467.78812709810813
 30
0.0
 10
165.9082203458803
 20
467.78812709810813
 30
0.0
 10
176.62582034588024
 20
475.0574270981082
 30
0.0
 10
207.00982034588026
 20
464.4677270981082
 30
0.0
 10
220.27832034588027
 20
482.93892709810814
 30
0.0
 10
220.27832034588027
 20
482.93892709810814
 30
0.0
 10
231.94192034588025
 20
499.92702709810817
 30
0.0
 10
231.87362034588023
 20
522.7470270981081
 30
0.0
 10
233.6700203458803
 20
542.7237270981082
 30
0.0
 10
233.6700203458803
 20
542.7237270981082
 30
0.0
 10
237.82512034588024
 20
588.9263270981081
 30
0.0
 10
235.05532034588032
 20
645.2443270981081
 30
0.0
 10
235.3439203458803
 20
692.3737270981081
 30
0.0
  0
SPLINE
  5
39
330
17
100
AcDbEntity
  8
layer 2
 62
142
370
158
100
AcDbSpline
 70
8
 71
3
 72
20
 73
16
 74
0
 42
1e-09
 40
0.0
 40
0.0
 40
0.0
 40
0.0
 40
0.2
 40
0.2
 40
0.2
 40
0.2
 40
0.4
 40
0.4
 40
0.4
 40
0.4
 40
0.6
 40
0.6
 40
0.6
 40
0.6
 40
1.0
 40
1.0
 40
1.0
 40
1.0
 10
114.16342034588024
 20
525.8690270981082
 30
0.0
 10
114.12542034588023
 20
438.4721270981081
 30
0.0
 10
114.03752034588024
 20
351.12232709810814
 30
0.0
 10
113.77292034588027
 20
263.7252270981081
 30
0.0
 10
113.77292034588027
 20
263.7252270981081
 30
0.0
 10
113.73962034588033
 20
252.74412709810815
 30
0.0
 10
113.77852034588022
 20
241.7733270981082
 30
0.0
 10
113.95742034588022
 20
230.79342709810817
 30
0.0
 10
113.95742034588022
 20
230.79342709810817
 30
0.0
 10
114.1881203458803
 20
217.22882709810813
 30
0.0
 10
118.6813203458803
 20
197.5989270981081
 30
0.0
 10
127.3842203458803
 20
187.01952709810814
 30
0.0
 10
127.3842203458803
 20
187.01952709810814
 30
0.0
 10
135.01832034588028
 20
177.7394270981082
 30
0.0
 10
141.28432034588025
 20
173.83022709810814
 30
0.0
 10
151.63682034588032
 20
168.13552709810813
 30
0.0
  0
SPLINE
  5
3A
330
17
100
AcDbEntity
  8
layer 2
 62
142
370
158
100
AcDbSpline
 70
24
 71
3
 72
8
 73
4
 74
0
 42
1e-09
 40
0.0
 40
0.0
 40
0.0
 40
0.0
 40
1.0
 40
1.0
 40
1.0
 40
1.0
 10
8.203520345880293
 20
118.75012709810818
 30
0.0
 10
8.203520345880293
 20
118.75012709810818
 30
0.0
 10
138.50722034588023
 20
119.09912709810817
 30
0.0
 10
138.50722034588023
 20
119.09912709810817
 30
0.0
  0
SPLINE
  5
3B
330
17
100
AcDbEntity
  8
layer 3
 62
242
370
158
100
AcDbSpline
 70
11
 71
3
 72
232
 73
228
 74
0
 42
1e-09
 40
0.0
 40
0.0
 40
0.0
 40
0.0
 40
0.0172413793103448
 40
0.0172413793103448
 40
0.0172413793103448
 40
0.0172413793103448
 40
0.0344827586206897
 40
0.0344827586206897
 40
0.0344827586206897
 40
0.0344827586206897
 40
0.0517241379310345
 40
0.0517241379310345
 40
0.0517241379310345
 40
0.0517241379310345
 40
0.0689655172413793
 40
0.0689655172413793
 40
0.0689655172413793
 40
0.0689655172413793
 40
0.0862068965517241
 40
0.0862068965517241
 40
0.0862068965517241
 40
0.0862068965517241
 40
0.103448275862069
 40
0.103448275862069
 40
0.103448275862069
 40
0.103448275862069
 40
0.1206896551724138
 40
0.1206896551724138
 40
0.1206896551724138
 40
0.1206896551724138
 40
0.1379310344827586
 40
0.1379310344827586
 40
0.1379310344827586
 40
0.1379310344827586
 40
0.1551724137931035
 40
0.1551724137931035
 40
0.1551724137931035
 40
0.1551724137931035
 40
0.1724137931034483
 40
0.1724137931034483
 40
0.1724137931034483
 40
0.1724137931034483
 40
0.1896551724137931
 40
0.1896551724137931
 40
0.1896551724137931
 40
0.1896551724137931
 40
0.2068965517241379
 40
0.2068965517241379
 40
0.2068965517241379
 40
0.2068965517241379
 40
0.2241379310344828
 40
0.2241379310344828
 40
0.2241379310344828
 40
0.2241379310344828
 40
0.2413793103448276
 40
0.2413793103448276
 40
0.2413793103448276
 40
0.2413793103448276
 40
0.2586206896551724
 40
0.2586206896551724
 40
0.2586206896551724
 40
0.2586206896551724
 40
0.2758620689655172
 40
0.2758620689655172
 40
0.2758620689655172
 40
0.2758620689655172
 40
0.293103448275862
 40
0.293103448275862
 40
0.293103448275862
 40
0.293103448275862
 40
0.3103448275862069
 40
0.3103448275862069
 40
0.3103448275862069
 40
0.3103448275862069
 40
0.3275862068965517
 40
0.3275862068965517
 40
0.3275862068965517
 40
0.3275862068965517
 40
0.3448275862068966
 40
0.3448275862068966
 40
0.3448275862068966
 40
0.3448275862068966
 40
0.3620689655172414
 40
0.3620689655172414
 40
0.3620689655172414
 40
0.3620689655172414
 40
0.3793103448275862
 40
0.3793103448275862
 40
0.3793103448275862
 40
0.3793103448275862
 40
0.396551724137931
 40
0.396551724137931
 40
0.396551724137931
 40
0.396551724137931
 40
0.4137931034482759
 40
0.4137931034482759
 40
0.4137931034482759
 40
0.4137931034482759
 40
0.4310344827586207
 40
0.4310344827586207
 40
0.4310344827586207
 40
0.4310344827586207
 40
0.4482758620689655
 40
0.4482758620689655
 40
0.4482758620689655
 40
0.4482758620689655
 40
0.4655172413793103
 40
0.4655172413793103
 40
0.4655172413793103
 40
0.4655172413793103
 40
0.4827586206896552
 40
0.4827586206896552
 40
0.4827586206896552
 40
0.4827586206896552
 40
0.5
 40
0.5
 40
0.5
 40
0.5
 40
0.5172413793103449
 40
0.5172413793103449
 40
0.5172413793103449
 40
0.5172413793103449
 40
0.5344827586206896
 40
0.5344827586206896
 40
0.5344827586206896
 40
0.5344827586206896
 40
0.5517241379310345
 40
0.5517241379310345
 40
0.5517241379310345
 40
0.5517241379310345
 40
0.5689655172413793
 40
0.5689655172413793
 40
0.5689655172413793
 40
0.5689655172413793
 40
0.5862068965517241
 40
0.5862068965517241
 40
0.5862068965517241
 40
0.5862068965517241
 40
0.603448275862069
 40
0.603448275862069
 40
0.603448275862069
 40
0.603448275862069
 40
0.6206896551724138
 40
0.6206896551724138
 40
0.6206896551724138
 40
0.6206896551724138
 40
0.6379310344827587
 40
0.6379310344827587
 40
0.6379310344827587
 40
0.6379310344827587
 40
0.6551724137931034
 40
0.6551724137931034
 40
0.6551724137931034
 40
0.6551724137931034
 40
0.6724137931034483
 40
0.6724137931034483
 40
0.6724137931034483
 40
0.6724137931034483
 40
0.6896551724137931
 40
0.6896551724137931
 40
0.6896551724137931
 40
0.6896551724137931
 40
0.7068965517241379
 40
0.7068965517241379
 40
0.7068965517241379
 40
0.7068965517241379
 40
0.7241379310344828
 40
0.7241379310344828
 40
0.7241379310344828
 40
0.7241379310344828
 40
0.7413793103448276
 40
0.7413793103448276
 40
0.7413793103448276
 40
0.7413793103448276
 40
0.7586206896551724
 40
0.7586206896551724
 40
0.7586206896551724
 40
0.7586206896551724
 40
0.7758620689655172
 40
0.7758620689655172
 40
0.7758620689655172
 40
0.7758620689655172
 40
0.7931034482758621
 40
0.7931034482758621
 40
0.7931034482758621
 40
0.7931034482758621
 40
0.8103448275862069
 40
0.8103448275862069
 40
0.8103448275862069
 40
0.8103448275862069
 40
0.8275862068965517
 40
0.8275862068965517
 40
0.8275862068965517
 40
0.8275862068965517
 40
0.8448275862068966
 40
0.8448275862068966
 40
0.8448275862068966
 40
0.8448275862068966
 40
0.8620689655172413
 40
0.8620689655172413
 40
0.8620689655172413
 40
0.8620689655172413
 40
0.8793103448275862
 40
0.8793103448275862
 40
0.8793103448275862
 40
0.8793103448275862
 40
0.896551724137931
 40
0.896551724137931
 40
0.896551724137931
 40
0.896551724137931
 40
0.9137931034482759
 40
0.9137931034482759
 40
0.9137931034482759
 40
0.9137931034482759
 40
0.9310344827586207
 40
0.9310344827586207
 40
0.9310344827586207
 40
0.9310344827586207
 40
0.9482758620689655
 40
0.9482758620689655
 40
0.9482758620689655
 40
0.9482758620689655
 40
0.9655172413793104
 40
0.9655172413793104
 40
0.9655172413793104
 40
0.9655172413793104
 40
1.0
 40
1.0
 40
1.0
 40
1.0
 10
11.999420345880253
 20
60.556427098108145
 30
0.0
 10
13.693220345880263
 20
59.114727098108176
 30
0.0
 10
16.72292034588031
 20
58.749627098108135
 30
0.0
 10
22.178120345880302
 20
58.828427098108136
 30
0.0
 10
22.178120345880302
 20
58.828427098108136
 30
0.0
 10
46.94842034588032
 20
59.18612709810816
 30
0.0
 10
118.06572034588032
 20
54.47402709810814
 30
0.0
 10
137.94282034588025
 20
59.94852709810817
 30
0.0
 10
137.94282034588025
 20
59.94852709810817
 30
0.0
 10
146.04692034588027
 20
62.261927098108174
 30
0.0
 10
150.63722034588022
 20
63.75892709810813
 30
0.0
 10
148.78372034588028
 20
73.31642709810814
 30
0.0
 10
148.78372034588028
 20
73.31642709810814
 30
0.0
 10
145.87132034588024
 20
88.33432709810813
 30
0.0
 10
139.35192034588033
 20
103.42432709810817
 30
0.0
 10
138.50722034588023
 20
119.09912709810817
 30
0.0
 10
138.50722034588023
 20
119.09912709810817
 30
0.0
 10
138.88182034588033
 20
125.71732709810817
 30
0.0
 10
142.66602034588027
 20
130.66652709810813
 30
0.0
 10
142.7932203458803
 20
140.29852709810814
 30
0.0
 10
142.7932203458803
 20
140.29852709810814
 30
0.0
 10
142.87632034588023
 20
146.59532709810816
 30
0.0
 10
140.97212034588028
 20
164.27982709810817
 30
0.0
 10
146.99172034588025
 20
167.89822709810818
 30
0.0
 10
146.99172034588025
 20
167.89822709810818
 30
0.0
 10
153.10222034588026
 20
170.41362709810818
 30
0.0
 10
158.40872034588028
 20
163.55282709810814
 30
0.0
 10
160.64532034588024
 20
158.73642709810815
 30
0.0
 10
160.64532034588024
 20
158.73642709810815
 30
0.0
 10
168.42232034588028
 20
139.19192709810818
 30
0.0
 10
169.3248203458803
 20
101.25432709810815
 30
0.0
 10
171.16832034588026
 20
79.24882709810817
 30
0.0
 10
171.16832034588026
 20
79.24882709810817
 30
0.0
 10
171.44042034588028
 20
76.00112709810816
 30
0.0
 10
171.1129203458803
 20
67.39532709810817
 30
0.0
 10
175.9322203458803
 20
67.41602709810815
 30
0.0
 10
175.9322203458803
 20
67.41602709810815
 30
0.0
 10
230.7805203458803
 20
67.65152709810815
 30
0.0
 10
285.56472034588023
 20
68.49292709810817
 30
0.0
 10
340.4044203458802
 20
69.52082709810816
 30
0.0
 10
340.4044203458802
 20
69.52082709810816
 30
0.0
 10
361.9322203458803
 20
69.92432709810817
 30
0.0
 10
384.7099203458803
 20
69.95992709810815
 30
0.0
 10
406.15112034588026
 20
71.12792709810816
 30
0.0
 10
406.15112034588026
 20
71.12792709810816
 30
0.0
 10
410.34502034588024
 20
71.36862709810816
 30
0.0
 10
411.80612034588023
 20
74.30642709810814
 30
0.0
 10
415.08742034588033
 20
82.37852709810818
 30
0.0
 10
415.08742034588033
 20
82.37852709810818
 30
0.0
 10
427.0038203458803
 20
111.69302709810813
 30
0.0
 10
439.27392034588024
 20
140.61092709810816
 30
0.0
 10
451.49222034588024
 20
169.78322709810817
 30
0.0
 10
451.49222034588024
 20
169.78322709810817
 30
0.0
 10
454.35132034588025
 20
176.5365270981082
 30
0.0
 10
458.0336203458803
 20
184.06712709810813
 30
0.0
 10
460.3245203458803
 20
190.9056270981082
 30
0.0
 10
460.3245203458803
 20
190.9056270981082
 30
0.0
 10
461.6519203458803
 20
194.8680270981082
 30
0.0
 10
460.65752034588024
 20
199.91632709810813
 30
0.0
 10
461.7437203458803
 20
203.07692709810817
 30
0.0
 10
461.7437203458803
 20
203.07692709810817
 30
0.0
 10
463.49942034588025
 20
208.18602709810818
 30
0.0
 10
471.20422034588023
 20
208.54662709810816
 30
0.0
 10
474.78942034588033
 20
205.65212709810817
 30
0.0
 10
474.78942034588033
 20
205.65212709810817
 30
0.0
 10
478.56462034588026
 20
202.60422709810814
 30
0.0
 10
476.83862034588026
 20
197.84592709810818
 30
0.0
 10
474.27112034588026
 20
194.4599270981082
 30
0.0
 10
474.27112034588026
 20
194.4599270981082
 30
0.0
 10
473.2044203458803
 20
193.0532270981082
 30
0.0
 10
471.4724203458803
 20
192.43032709810814
 30
0.0
 10
470.7564203458803
 20
191.3951270981081
 30
0.0
 10
470.7564203458803
 20
191.3951270981081
 30
0.0
 10
467.3421203458803
 20
186.45832709810816
 30
0.0
 10
458.2772203458803
 20
158.40422709810815
 30
0.0
 10
455.38312034588023
 20
150.56142709810814
 30
0.0
 10
455.38312034588023
 20
150.56142709810814
 30
0.0
 10
452.90472034588026
 20
143.90062709810815
 30
0.0
 10
448.2057203458803
 20
135.75052709810814
 30
0.0
 10
451.19562034588023
 20
128.69362709810815
 30
0.0
 10
451.19562034588023
 20
128.69362709810815
 30
0.0
 10
455.75772034588033
 20
117.92622709810814
 30
0.0
 10
480.51622034588024
 20
101.22922709810814
 30
0.0
 10
488.5649203458803
 20
88.54962709810815
 30
0.0
 10
488.5649203458803
 20
88.54962709810815
 30
0.0
 10
492.67852034588026
 20
80.14562709810815
 30
0.0
 10
481.65022034588026
 20
43.51612709810814
 30
0.0
 10
482.8930203458803
 20
28.48062709810813
 30
0.0
 10
482.8930203458803
 20
28.48062709810813
 30
0.0
 10
484.2812203458803
 20
20.84792709810813
 30
0.0
 10
494.6376203458803
 20
6.32052709810813
 30
0.0
 10
500.2649203458803
 20
1.6446270981081739
 30
0.0
 10
500.2649203458803
 20
1.6446270981081739
 30
0.0
 10
506.9164203458803
 20
-3.8824729018918447
 30
0.0
 10
514.7350203458802
 20
2.5013270981081632
 30
0.0
 10
521.0644203458803
 20
6.349327098108176
 30
0.0
 10
521.0644203458803
 20
6.349327098108176
 30
0.0
 10
544.4711203458803
 20
20.452627098108167
 30
0.0
 10
568.5103203458802
 20
34.321927098108176
 30
0.0
 10
592.1629203458803
 20
48.05492709810818
 30
0.0
 10
592.1629203458803
 20
48.05492709810818
 30
0.0
 10
611.0177203458802
 20
58.99802709810814
 30
0.0
 10
606.6396203458803
 20
59.90812709810814
 30
0.0
 10
627.1893203458803
 20
53.644627098108174
 30
0.0
 10
627.1893203458803
 20
53.644627098108174
 30
0.0
 10
644.8723203458803
 20
48.30292709810817
 30
0.0
 10
656.9883203458803
 20
51.77512709810816
 30
0.0
 10
657.2901203458803
 20
72.34102709810816
 30
0.0
 10
657.2901203458803
 20
72.34102709810816
 30
0.0
 10
656.7162203458803
 20
87.82152709810816
 30
0.0
 10
655.9350203458803
 20
103.34262709810815
 30
0.0
 10
655.3554203458802
 20
118.84782709810816
 30
0.0
 10
655.3554203458802
 20
118.84782709810816
 30
0.0
 10
654.9821203458803
 20
128.82222709810816
 30
0.0
 10
654.6088203458803
 20
138.79662709810816
 30
0.0
 10
654.2355203458803
 20
148.77102709810816
 30
0.0
 10
654.2355203458803
 20
148.77102709810816
 30
0.0
 10
651.9958203458802
 20
208.6099270981082
 30
0.0
 10
649.9128203458803
 20
268.4965270981081
 30
0.0
 10
647.5090203458803
 20
328.32392709810813
 30
0.0
 10
647.5090203458803
 20
328.32392709810813
 30
0.0
 10
646.9713203458803
 20
341.70752709810813
 30
0.0
 10
645.0482203458803
 20
346.35062709810813
 30
0.0
 10
652.0365203458803
 20
358.4282270981082
 30
0.0
 10
652.0365203458803
 20
358.4282270981082
 30
0.0
 10
658.3826203458802
 20
369.39582709810816
 30
0.0
 10
664.4449203458803
 20
372.7077270981082
 30
0.0
 10
665.1455203458803
 20
385.8305270981082
 30
0.0
 10
665.1455203458803
 20
385.8305270981082
 30
0.0
 10
665.6367203458803
 20
404.26502709810813
 30
0.0
 10
665.7531203458802
 20
423.0076270981082
 30
0.0
 10
666.1246203458802
 20
441.49412709810815
 30
0.0
 10
666.1246203458802
 20
441.49412709810815
 30
0.0
 10
666.1649203458803
 20
443.49862709810816
 30
0.0
 10
666.2052203458802
 20
445.50312709810817
 30
0.0
 10
666.2455203458803
 20
447.5076270981082
 30
0.0
 10
666.2455203458803
 20
447.5076270981082
 30
0.0
 10
666.4988203458803
 20
459.6040270981082
 30
0.0
 10
666.7948203458802
 20
471.8358270981082
 30
0.0
 10
667.2129203458803
 20
483.92442709810814
 30
0.0
 10
667.2129203458803
 20
483.92442709810814
 30
0.0
 10
667.7056203458803
 20
495.3058270981081
 30
0.0
 10
669.6723203458803
 20
499.09192709810816
 30
0.0
 10
656.9358203458803
 20
499.1180270981082
 30
0.0
 10
656.9358203458803
 20
499.1180270981082
 30
0.0
 10
641.3212203458802
 20
499.1500270981081
 30
0.0
 10
623.8912203458804
 20
499.5247270981082
 30
0.0
 10
608.4839203458803
 20
497.9154270981081
 30
0.0
 10
608.4839203458803
 20
497.9154270981081
 30
0.0
 10
595.4566203458803
 20
496.3006270981082
 30
0.0
 10
584.1178203458803
 20
495.1819270981082
 30
0.0
 10
571.0065203458803
 20
494.3445270981082
 30
0.0
 10
571.0065203458803
 20
494.3445270981082
 30
0.0
 10
558.4955203458803
 20
493.5681270981081
 30
0.0
 10
555.9245203458803
 20
492.3957270981082
 30
0.0
 10
556.0752203458803
 20
504.9939270981082
 30
0.0
 10
556.0752203458803
 20
504.9939270981082
 30
0.0
 10
556.7166203458803
 20
558.6450270981081
 30
0.0
 10
556.8126203458803
 20
612.4355270981082
 30
0.0
 10
557.1414203458803
 20
666.1034270981081
 30
0.0
 10
557.1414203458803
 20
666.1034270981081
 30
0.0
 10
557.1720203458804
 20
671.0917270981082
 30
0.0
 10
558.3460203458803
 20
685.3273270981082
 30
0.0
 10
556.2277203458802
 20
688.9874270981082
 30
0.0
 10
556.2277203458802
 20
688.9874270981082
 30
0.0
 10
553.8426203458803
 20
693.1085270981081
 30
0.0
 10
542.2337203458803
 20
691.6393270981081
 30
0.0
 10
537.7749203458802
 20
691.5930270981081
 30
0.0
 10
537.7749203458802
 20
691.5930270981081
 30
0.0
 10
505.92262034588026
 20
691.261727098108
 30
0.0
 10
473.51672034588023
 20
691.7520270981082
 30
0.0
 10
441.6039203458803
 20
691.8465270981081
 30
0.0
 10
441.6039203458803
 20
691.8465270981081
 30
0.0
 10
371.4438203458802
 20
692.051627098108
 30
0.0
 10
301.28612034588025
 20
691.9487270981082
 30
0.0
 10
231.12642034588032
 20
692.4002270981081
 30
0.0
 10
231.12642034588032
 20
692.4002270981081
 30
0.0
 10
223.73782034588032
 20
692.4477270981082
 30
0.0
 10
210.19152034588024
 20
693.9627270981081
 30
0.0
 10
204.62772034588022
 20
689.3581270981082
 30
0.0
 10
204.62772034588022
 20
689.3581270981082
 30
0.0
 10
190.9345203458803
 20
678.0254270981081
 30
0.0
 10
208.4073203458803
 20
522.2231270981082
 30
0.0
 10
200.21082034588028
 20
492.0559270981081
 30
0.0
 10
200.21082034588028
 20
492.0559270981081
 30
0.0
 10
196.80242034588025
 20
479.51092709810814
 30
0.0
 10
156.03352034588022
 20
475.1380270981082
 30
0.0
 10
146.4480203458803
 20
485.55032709810814
 30
0.0
 10
146.4480203458803
 20
485.55032709810814
 30
0.0
 10
139.6260203458803
 20
492.9609270981082
 30
0.0
 10
142.33012034588023
 20
507.23002709810817
 30
0.0
 10
141.99442034588026
 20
516.5357270981082
 30
0.0
 10
141.99442034588026
 20
516.5357270981082
 30
0.0
 10
141.77362034588032
 20
522.6563270981081
 30
0.0
 10
141.67832034588025
 20
525.4120270981082
 30
0.0
 10
135.22542034588025
 20
525.7057270981081
 30
0.0
 10
135.22542034588025
 20
525.7057270981081
 30
0.0
 10
130.26662034588026
 20
525.9041270981081
 30
0.0
 10
98.57682034588026
 20
526.9778270981082
 30
0.0
 10
95.50902034588023
 20
525.5501270981082
 30
0.0
 10
95.50902034588023
 20
525.5501270981082
 30
0.0
 10
93.91262034588033
 20
524.8071270981081
 30
0.0
 10
92.69212034588031
 20
523.5044270981082
 30
0.0
 10
92.13892034588025
 20
521.2929270981082
 30
0.0
 10
92.13892034588025
 20
521.2929270981082
 30
0.0
 10
90.30192034588026
 20
513.9500270981082
 30
0.0
 10
92.31842034588033
 20
487.7267270981082
 30
0.0
 10
92.48172034588026
 20
478.05482709810815
 30
0.0
 10
92.48172034588026
 20
478.05482709810815
 30
0.0
 10
92.82462034588025
 20
457.7135270981081
 30
0.0
 10
92.77342034588025
 20
436.55442709810814
 30
0.0
 10
93.59002034588025
 20
416.3195270981082
 30
0.0
 10
93.59002034588025
 20
416.3195270981082
 30
0.0
 10
93.91292034588025
 20
408.3200270981082
 30
0.0
 10
93.40102034588028
 20
395.5028270981081
 30
0.0
 10
86.81122034588032
 20
389.87192709810813
 30
0.0
 10
86.81122034588032
 20
389.87192709810813
 30
0.0
 10
77.79072034588023
 20
382.16392709810816
 30
0.0
 10
25.20562034588022
 20
377.8670270981081
 30
0.0
 10
11.286020345880274
 20
377.06752709810814
 30
0.0
 10
11.286020345880274
 20
377.06752709810814
 30
0.0
 10
5.519220345880285
 20
376.7363270981082
 30
0.0
 10
1.980820345880261
 20
376.70972709810815
 30
0.0
 10
0.05652034588024435
 20
374.93022709810816
 30
0.0
 10
0.05652034588024435
 20
374.93022709810816
 30
0.0
 10
-1.8677796541197722
 20
373.1507270981082
 30
0.0
 10
11.999420345880253
 20
60.556427098108145
 30
0.0
 10
11.999420345880253
 20
60.556427098108145
 30
0.0
  0
ENDSEC
  0
SECTION
  2
OBJECTS
  0
DICTIONARY
  5
A
330
0
100
AcDbDictionary
281
1
  3
ACAD_COLOR
350
B
  3
ACAD_GROUP
350
C
  3
ACAD_LAYOUT
350
D
  3
ACAD_MATERIAL
350
E
  3
ACAD_MLEADERSTYLE
350
F
  3
ACAD_MLINESTYLE
350
10
  3
ACAD_PLOTSETTINGS
350
11
  3
ACAD_PLOTSTYLENAME
350
12
  3
ACAD_SCALELIST
350
14
  3
ACAD_TABLESTYLE
350
15
  3
ACAD_VISUALSTYLE
350
16
  3
EZDXF_META
350
2D
  0
DICTIONARY
  5
B
330
A
100
AcDbDictionary
281
1
  0
DICTIONARY
  5
C
330
A
100
AcDbDictionary
281
1
  0
DICTIONARY
  5
D
330
A
100
AcDbDictionary
281
1
  3
Model
350
1A
  3
Layout1
350
1E
  0
DICTIONARY
  5
E
330
A
100
AcDbDictionary
281
1
  3
ByBlock
350
1F
  3
ByLayer
350
20
  3
Global
350
21
  0
DICTIONARY
  5
F
330
A
100
AcDbDictionary
281
1
  3
Standard
350
2C
  0
DICTIONARY
  5
10
330
A
100
AcDbDictionary
281
1
  3
Standard
350
22
  0
DICTIONARY
  5
11
330
A
100
AcDbDictionary
281
1
  0
ACDBDICTIONARYWDFLT
  5
12
330
A
100
AcDbDictionary
281
1
  3
Normal
350
13
100
AcDbDictionaryWithDefault
340
13
  0
ACDBPLACEHOLDER
  5
13
330
12
  0
DICTIONARY
  5
14
330
A
100
AcDbDictionary
281
1
  0
DICTIONARY
  5
15
330
A
100
AcDbDictionary
281
1
  0
DICTIONARY
  5
16
330
A
100
AcDbDictionary
281
1
  0
LAYOUT
  5
1A
330
D
100
AcDbPlotSettings
  1

  4
A3
  6

 40
7.5
 41
20.0
 42
7.5
 43
20.0
 44
420.0
 45
297.0
 46
0.0
 47
0.0
 48
0.0
 49
0.0
140
0.0
141
0.0
142
1.0
143
1.0
 70
1024
 72
1
 73
0
 74
5
  7

 75
16
 76
0
 77
2
 78
300
147
1.0
148
0.0
149
0.0
100
AcDbLayout
  1
Model
 70
1
 71
0
 10
0.0
 20
0.0
 11
420.0
 21
297.0
 12
0.0
 22
0.0
 32
0.0
 14
1e+20
 24
1e+20
 34
1e+20
 15
-1e+20
 25
-1e+20
 35
-1e+20
146
0.0
 13
0.0
 23
0.0
 33
0.0
 16
1.0
 26
0.0
 36
0.0
 17
0.0
 27
1.0
 37
0.0
 76
1
330
17
  0
LAYOUT
  5
1E
330
D
100
AcDbPlotSettings
  1

  4
A3
  6

 40
7.5
 41
20.0
 42
7.5
 43
20.0
 44
420.0
 45
297.0
 46
0.0
 47
0.0
 48
0.0
 49
0.0
140
0.0
141
0.0
142
1.0
143
1.0
 70
0
 72
1
 73
0
 74
5
  7

 75
16
 76
0
 77
2
 78
300
147
1.0
148
0.0
149
0.0
100
AcDbLayout
  1
Layout1
 70
1
 71
1
 10
0.0
 20
0.0
 11
420.0
 21
297.0
 12
0.0
 22
0.0
 32
0.0
 14
1e+20
 24
1e+20
 34
1e+20
 15
-1e+20
 25
-1e+20
 35
-1e+20
146
0.0
 13
0.0
 23
0.0
 33
0.0
 16
1.0
 26
0.0
 36
0.0
 17
0.0
 27
1.0
 37
0.0
 76
1
330
1B
  0
MATERIAL
  5
1F
102
{ACAD_REACTORS
330
E
102
}
330
E
100
AcDbMaterial
  1
ByBlock
  2

 70
0
 40
1.0
 71
1
 41
1.0
 91
-1023410177
 42
1.0
 72
1
  3

 73
1
 74
1
 75
1
 44
0.5
 73
0
 45
1.0
 46
1.0
 77
1
  4

 78
1
 79
1
170
1
 48
1.0
171
1
  6

172
1
173
1
174
1
140
1.0
141
1.0
175
1
  7

176
1
177
1
178
1
143
1.0
179
1
  8

270
1
271
1
272
1
145
1.0
146
1.0
273
1
  9

274
1
275
1
276
1
 42
1.0
 72
1
  3

 73
1
 74
1
 75
1
 94
63
  0
MATERIAL
  5
20
102
{ACAD_REACTORS
330
E
102
}
330
E
100
AcDbMaterial
  1
ByLayer
  2

 70
0
 40
1.0
 71
1
 41
1.0
 91
-1023410177
 42
1.0
 72
1
  3

 73
1
 74
1
 75
1
 44
0.5
 73
0
 45
1.0
 46
1.0
 77
1
  4

 78
1
 79
1
170
1
 48
1.0
171
1
  6

172
1
173
1
174
1
140
1.0
141
1.0
175
1
  7

176
1
177
1
178
1
143
1.0
179
1
  8

270
1
271
1
272
1
145
1.0
146
1.0
273
1
  9

274
1
275
1
276
1
 42
1.0
 72
1
  3

 73
1
 74
1
 75
1
 94
63
  0
MATERIAL
  5
21
102
{ACAD_REACTORS
330
E
102
}
330
E
100
AcDbMaterial
  1
Global
  2

 70
0
 40
1.0
 71
1
 41
1.0
 91
-1023410177
 42
1.0
 72
1
  3

 73
1
 74
1
 75
1
 44
0.5
 73
0
 45
1.0
 46
1.0
 77
1
  4

 78
1
 79
1
170
1
 48
1.0
171
1
  6

172
1
173
1
174
1
140
1.0
141
1.0
175
1
  7

176
1
177
1
178
1
143
1.0
179
1
  8

270
1
271
1
272
1
145
1.0
146
1.0
273
1
  9

274
1
275
1
276
1
 42
1.0
 72
1
  3

 73
1
 74
1
 75
1
 94
63
  0
MLINESTYLE
  5
22
102
{ACAD_REACTORS
330
10
102
}
330
10
100
AcDbMlineStyle
  2
Standard
 70
0
  3

 62
256
 51
90.0
 52
90.0
 71
2
 49
0.5
 62
256
  6
BYLAYER
 49
-0.5
 62
256
  6
BYLAYER
  0
MLEADERSTYLE
  5
2C
102
{ACAD_REACTORS
330
F
102
}
330
F
100
AcDbMLeaderStyle
179
2
170
2
171
1
172
0
 90
2
 40
0.0
 41
0.0
173
1
 91
-1056964608
 92
-2
290
1
 42
2.0
291
1
 43
8.0
  3
Standard
 44
4.0
300

342
29
174
1
175
1
176
0
178
1
 93
-1056964608
 45
4.0
292
0
297
0
 46
4.0
 94
-1056964608
 47
1.0
 49
1.0
140
1.0
294
1
141
0.0
177
0
142
1.0
295
0
296
0
143
3.75
271
0
272
9
273
9
  0
DICTIONARY
  5
2D
330
A
100
AcDbDictionary
280
1
281
1
  3
CREATED_BY_EZDXF
350
2E
  3
WRITTEN_BY_EZDXF
350
3E
  0
DICTIONARYVAR
  5
2E
330
2D
100
DictionaryVariables
280
0
  1
1.4.2 @ 2025-08-23T13:35:36.567206+00:00
  0
DICTIONARYVAR
  5
3E
330
2D
100
DictionaryVariables
280
0
  1
1.4.2 @ 2025-08-23T13:35:36.570683+00:00
  0
ENDSEC
  0
EOF
