  0
SECTION
  2
HEADER
  9
$ACADVER
  1
AC1024
  9
$ACADMAINTVER
 70
6
  9
$DWGCODEPAGE
  3
ANSI_1252
  9
$LASTSAVEDBY
  1
ezdxf
  9
$INSBASE
 10
0.0
 20
0.0
 30
0.0
  9
$EXTMIN
 10
1e+20
 20
1e+20
 30
1e+20
  9
$EXTMAX
 10
-1e+20
 20
-1e+20
 30
-1e+20
  9
$LIMMIN
 10
0.0
 20
0.0
  9
$LIMMAX
 10
420.0
 20
297.0
  9
$ORTHOMODE
 70
0
  9
$REGENMODE
 70
1
  9
$FILLMODE
 70
1
  9
$QTEXTMODE
 70
0
  9
$MIRRTEXT
 70
1
  9
$LTSCALE
 40
1.0
  9
$ATTMODE
 70
1
  9
$TEXTSIZE
 40
2.5
  9
$TRACEWID
 40
1.0
  9
$TEXTSTYLE
  7
Standard
  9
$CLAYER
  8
0
  9
$CELTYPE
  6
ByLayer
  9
$CECOLOR
 62
256
  9
$CELTSCALE
 40
1.0
  9
$DISPSILH
 70
0
  9
$DIMSCALE
 40
1.0
  9
$DIMASZ
 40
2.5
  9
$DIMEXO
 40
0.625
  9
$DIMDLI
 40
3.75
  9
$DIMRND
 40
0.0
  9
$DIMDLE
 40
0.0
  9
$DIMEXE
 40
1.25
  9
$DIMTP
 40
0.0
  9
$DIMTM
 40
0.0
  9
$DIMTXT
 40
2.5
  9
$DIMCEN
 40
2.5
  9
$DIMTSZ
 40
0.0
  9
$DIMTOL
 70
0
  9
$DIMLIM
 70
0
  9
$DIMTIH
 70
0
  9
$DIMTOH
 70
0
  9
$DIMSE1
 70
0
  9
$DIMSE2
 70
0
  9
$DIMTAD
 70
1
  9
$DIMZIN
 70
8
  9
$DIMBLK
  1

  9
$DIMASO
 70
1
  9
$DIMSHO
 70
1
  9
$DIMPOST
  1

  9
$DIMAPOST
  1

  9
$DIMALT
 70
0
  9
$DIMALTD
 70
3
  9
$DIMALTF
 40
0.03937007874
  9
$DIMLFAC
 40
1.0
  9
$DIMTOFL
 70
1
  9
$DIMTVP
 40
0.0
  9
$DIMTIX
 70
0
  9
$DIMSOXD
 70
0
  9
$DIMSAH
 70
0
  9
$DIMBLK1
  1

  9
$DIMBLK2
  1

  9
$DIMSTYLE
  2
ISO-25
  9
$DIMCLRD
 70
0
  9
$DIMCLRE
 70
0
  9
$DIMCLRT
 70
0
  9
$DIMTFAC
 40
1.0
  9
$DIMGAP
 40
0.625
  9
$DIMJUST
 70
0
  9
$DIMSD1
 70
0
  9
$DIMSD2
 70
0
  9
$DIMTOLJ
 70
0
  9
$DIMTZIN
 70
8
  9
$DIMALTZ
 70
0
  9
$DIMALTTZ
 70
0
  9
$DIMUPT
 70
0
  9
$DIMDEC
 70
2
  9
$DIMTDEC
 70
2
  9
$DIMALTU
 70
2
  9
$DIMALTTD
 70
3
  9
$DIMTXSTY
  7
Standard
  9
$DIMAUNIT
 70
0
  9
$DIMADEC
 70
0
  9
$DIMALTRND
 40
0.0
  9
$DIMAZIN
 70
0
  9
$DIMDSEP
 70
44
  9
$DIMATFIT
 70
3
  9
$DIMFRAC
 70
0
  9
$DIMLDRBLK
  1

  9
$DIMLUNIT
 70
2
  9
$DIMLWD
 70
-2
  9
$DIMLWE
 70
-2
  9
$DIMTMOVE
 70
0
  9
$DIMFXL
 40
1.0
  9
$DIMFXLON
 70
0
  9
$DIMJOGANG
 40
0.785398163397
  9
$DIMTFILL
 70
0
  9
$DIMTFILLCLR
 70
0
  9
$DIMARCSYM
 70
0
  9
$DIMLTYPE
  6

  9
$DIMLTEX1
  6

  9
$DIMLTEX2
  6

  9
$DIMTXTDIRECTION
 70
0
  9
$LUNITS
 70
2
  9
$LUPREC
 70
4
  9
$SKETCHINC
 40
1.0
  9
$FILLETRAD
 40
10.0
  9
$AUNITS
 70
0
  9
$AUPREC
 70
2
  9
$MENU
  1
.
  9
$ELEVATION
 40
0.0
  9
$PELEVATION
 40
0.0
  9
$THICKNESS
 40
0.0
  9
$LIMCHECK
 70
0
  9
$CHAMFERA
 40
0.0
  9
$CHAMFERB
 40
0.0
  9
$CHAMFERC
 40
0.0
  9
$CHAMFERD
 40
0.0
  9
$SKPOLY
 70
0
  9
$TDCREATE
 40
2460887.689016204
  9
$TDUCREATE
 40
2458532.153996898
  9
$TDUPDATE
 40
2460887.689016204
  9
$TDUUPDATE
 40
2458532.1544311
  9
$TDINDWG
 40
0.0
  9
$TDUSRTIMER
 40
0.0
  9
$USRTIMER
 70
1
  9
$ANGBASE
 50
0.0
  9
$ANGDIR
 70
0
  9
$PDMODE
 70
0
  9
$PDSIZE
 40
0.0
  9
$PLINEWID
 40
0.0
  9
$SPLFRAME
 70
0
  9
$SPLINETYPE
 70
6
  9
$SPLINESEGS
 70
8
  9
$HANDSEED
  5
3D
  9
$SURFTAB1
 70
6
  9
$SURFTAB2
 70
6
  9
$SURFTYPE
 70
6
  9
$SURFU
 70
6
  9
$SURFV
 70
6
  9
$UCSBASE
  2

  9
$UCSNAME
  2

  9
$UCSORG
 10
0.0
 20
0.0
 30
0.0
  9
$UCSXDIR
 10
1.0
 20
0.0
 30
0.0
  9
$UCSYDIR
 10
0.0
 20
1.0
 30
0.0
  9
$UCSORTHOREF
  2

  9
$UCSORTHOVIEW
 70
0
  9
$UCSORGTOP
 10
0.0
 20
0.0
 30
0.0
  9
$UCSORGBOTTOM
 10
0.0
 20
0.0
 30
0.0
  9
$UCSORGLEFT
 10
0.0
 20
0.0
 30
0.0
  9
$UCSORGRIGHT
 10
0.0
 20
0.0
 30
0.0
  9
$UCSORGFRONT
 10
0.0
 20
0.0
 30
0.0
  9
$UCSORGBACK
 10
0.0
 20
0.0
 30
0.0
  9
$PUCSBASE
  2

  9
$PUCSNAME
  2

  9
$PUCSORG
 10
0.0
 20
0.0
 30
0.0
  9
$PUCSXDIR
 10
1.0
 20
0.0
 30
0.0
  9
$PUCSYDIR
 10
0.0
 20
1.0
 30
0.0
  9
$PUCSORTHOREF
  2

  9
$PUCSORTHOVIEW
 70
0
  9
$PUCSORGTOP
 10
0.0
 20
0.0
 30
0.0
  9
$PUCSORGBOTTOM
 10
0.0
 20
0.0
 30
0.0
  9
$PUCSORGLEFT
 10
0.0
 20
0.0
 30
0.0
  9
$PUCSORGRIGHT
 10
0.0
 20
0.0
 30
0.0
  9
$PUCSORGFRONT
 10
0.0
 20
0.0
 30
0.0
  9
$PUCSORGBACK
 10
0.0
 20
0.0
 30
0.0
  9
$USERI1
 70
0
  9
$USERI2
 70
0
  9
$USERI3
 70
0
  9
$USERI4
 70
0
  9
$USERI5
 70
0
  9
$USERR1
 40
0.0
  9
$USERR2
 40
0.0
  9
$USERR3
 40
0.0
  9
$USERR4
 40
0.0
  9
$USERR5
 40
0.0
  9
$WORLDVIEW
 70
1
  9
$SHADEDGE
 70
3
  9
$SHADEDIF
 70
70
  9
$TILEMODE
 70
1
  9
$MAXACTVP
 70
64
  9
$PINSBASE
 10
0.0
 20
0.0
 30
0.0
  9
$PLIMCHECK
 70
0
  9
$PEXTMIN
 10
1e+20
 20
1e+20
 30
1e+20
  9
$PEXTMAX
 10
-1e+20
 20
-1e+20
 30
-1e+20
  9
$PLIMMIN
 10
0.0
 20
0.0
  9
$PLIMMAX
 10
420.0
 20
297.0
  9
$UNITMODE
 70
0
  9
$VISRETAIN
 70
1
  9
$PLINEGEN
 70
0
  9
$PSLTSCALE
 70
1
  9
$TREEDEPTH
 70
3020
  9
$CMLSTYLE
  2
Standard
  9
$CMLJUST
 70
0
  9
$CMLSCALE
 40
20.0
  9
$PROXYGRAPHICS
 70
1
  9
$MEASUREMENT
 70
1
  9
$CELWEIGHT
370
-1
  9
$ENDCAPS
280
0
  9
$JOINSTYLE
280
0
  9
$LWDISPLAY
290
0
  9
$INSUNITS
 70
4
  9
$HYPERLINKBASE
  1

  9
$STYLESHEET
  1

  9
$XEDIT
290
1
  9
$CEPSNTYPE
380
0
  9
$PSTYLEMODE
290
1
  9
$FINGERPRINTGUID
  2
{6CEF9906-C0FA-4C0C-BC6F-3DDEC0C77ABB}
  9
$VERSIONGUID
  2
{7FC870E5-F4F9-449C-9C14-449B9D78DDB3}
  9
$EXTNAMES
290
1
  9
$PSVPSCALE
 40
0.0
  9
$OLESTARTUP
290
0
  9
$SORTENTS
280
127
  9
$INDEXCTL
280
0
  9
$HIDETEXT
280
1
  9
$XCLIPFRAME
280
1
  9
$HALOGAP
280
0
  9
$OBSCOLOR
 70
257
  9
$OBSLTYPE
280
0
  9
$INTERSECTIONDISPLAY
280
0
  9
$INTERSECTIONCOLOR
 70
257
  9
$DIMASSOC
280
2
  9
$PROJECTNAME
  1

  9
$CAMERADISPLAY
290
0
  9
$LENSLENGTH
 40
50.0
  9
$CAMERAHEIGHT
 40
0.0
  9
$STEPSPERSEC
 40
24.0
  9
$STEPSIZE
 40
100.0
  9
$3DDWFPREC
 40
2.0
  9
$PSOLWIDTH
 40
0.005
  9
$PSOLHEIGHT
 40
0.08
  9
$LOFTANG1
 40
1.570796326795
  9
$LOFTANG2
 40
1.570796326795
  9
$LOFTMAG1
 40
0.0
  9
$LOFTMAG2
 40
0.0
  9
$LOFTPARAM
 70
7
  9
$LOFTNORMALS
280
1
  9
$LATITUDE
 40
37.795
  9
$LONGITUDE
 40
-122.394
  9
$NORTHDIRECTION
 40
0.0
  9
$TIMEZONE
 70
-8000
  9
$LIGHTGLYPHDISPLAY
280
1
  9
$TILEMODELIGHTSYNCH
280
1
  9
$CMATERIAL
347
20
  9
$SOLIDHIST
280
0
  9
$SHOWHIST
280
1
  9
$DWFFRAME
280
2
  9
$DGNFRAME
280
2
  9
$REALWORLDSCALE
290
1
  9
$INTERFERECOLOR
 62
256
  9
$CSHADOW
280
0
  9
$SHADOWPLANELOCATION
 40
0.0
  0
ENDSEC
  0
SECTION
  2
CLASSES
  0
CLASS
  1
ACDBDICTIONARYWDFLT
  2
AcDbDictionaryWithDefault
  3
ObjectDBX Classes
 90
0
 91
0
280
0
281
0
  0
CLASS
  1
SUN
  2
AcDbSun
  3
SCENEOE
 90
1153
 91
0
280
0
281
0
  0
CLASS
  1
VISUALSTYLE
  2
AcDbVisualStyle
  3
ObjectDBX Classes
 90
4095
 91
0
280
0
281
0
  0
CLASS
  1
MATERIAL
  2
AcDbMaterial
  3
ObjectDBX Classes
 90
1153
 91
0
280
0
281
0
  0
CLASS
  1
SCALE
  2
AcDbScale
  3
ObjectDBX Classes
 90
1153
 91
0
280
0
281
0
  0
CLASS
  1
TABLESTYLE
  2
AcDbTableStyle
  3
ObjectDBX Classes
 90
4095
 91
0
280
0
281
0
  0
CLASS
  1
MLEADERSTYLE
  2
AcDbMLeaderStyle
  3
ACDB_MLEADERSTYLE_CLASS
 90
4095
 91
0
280
0
281
0
  0
CLASS
  1
DICTIONARYVAR
  2
AcDbDictionaryVar
  3
ObjectDBX Classes
 90
0
 91
0
280
0
281
0
  0
CLASS
  1
CELLSTYLEMAP
  2
AcDbCellStyleMap
  3
ObjectDBX Classes
 90
1152
 91
0
280
0
281
0
  0
CLASS
  1
MENTALRAYRENDERSETTINGS
  2
AcDbMentalRayRenderSettings
  3
SCENEOE
 90
1024
 91
0
280
0
281
0
  0
CLASS
  1
ACDBDETAILVIEWSTYLE
  2
AcDbDetailViewStyle
  3
ObjectDBX Classes
 90
1025
 91
0
280
0
281
0
  0
CLASS
  1
ACDBSECTIONVIEWSTYLE
  2
AcDbSectionViewStyle
  3
ObjectDBX Classes
 90
1025
 91
0
280
0
281
0
  0
CLASS
  1
RASTERVARIABLES
  2
AcDbRasterVariables
  3
ISM
 90
0
 91
0
280
0
281
0
  0
CLASS
  1
IMAGE
  2
AcDbRasterImage
  3
ISM
 90
2175
 91
0
280
0
281
1
  0
CLASS
  1
IMAGEDEF
  2
AcDbRasterImageDef
  3
ISM
 90
0
 91
0
280
0
281
0
  0
CLASS
  1
IMAGEDEF_REACTOR
  2
AcDbRasterImageDefReactor
  3
ISM
 90
1
 91
0
280
0
281
0
  0
CLASS
  1
ACDBPLACEHOLDER
  2
AcDbPlaceHolder
  3
ObjectDBX Classes
 90
0
 91
0
280
0
281
0
  0
CLASS
  1
LAYOUT
  2
AcDbLayout
  3
ObjectDBX Classes
 90
0
 91
0
280
0
281
0
  0
ENDSEC
  0
SECTION
  2
TABLES
  0
TABLE
  2
VPORT
  5
8
330
0
100
AcDbSymbolTable
 70
1
  0
VPORT
  5
23
330
8
100
AcDbSymbolTableRecord
100
AcDbViewportTableRecord
  2
*Active
 70
0
 10
0.0
 20
0.0
 11
1.0
 21
1.0
 12
0.0
 22
0.0
 13
0.0
 23
0.0
 14
0.5
 24
0.5
 15
0.5
 25
0.5
 16
0.0
 26
0.0
 36
1.0
 17
0.0
 27
0.0
 37
0.0
 40
1000.0
 41
1.34
 42
50.0
 43
0.0
 44
0.0
 50
0.0
 51
0.0
 71
0
 72
1000
 73
1
 74
3
 75
0
 76
0
 77
0
 78
0
281
0
 65
0
146
0.0
  0
ENDTAB
  0
TABLE
  2
LTYPE
  5
2
330
0
100
AcDbSymbolTable
 70
3
  0
LTYPE
  5
24
330
2
100
AcDbSymbolTableRecord
100
AcDbLinetypeTableRecord
  2
ByBlock
 70
0
  3

 72
65
 73
0
 40
0.0
  0
LTYPE
  5
25
330
2
100
AcDbSymbolTableRecord
100
AcDbLinetypeTableRecord
  2
ByLayer
 70
0
  3

 72
65
 73
0
 40
0.0
  0
LTYPE
  5
26
330
2
100
AcDbSymbolTableRecord
100
AcDbLinetypeTableRecord
  2
Continuous
 70
0
  3

 72
65
 73
0
 40
0.0
  0
ENDTAB
  0
TABLE
  2
LAYER
  5
1
330
0
100
AcDbSymbolTable
 70
2
  0
LAYER
  5
27
330
1
100
AcDbSymbolTableRecord
100
AcDbLayerTableRecord
  2
0
 70
0
 62
7
  6
Continuous
370
-3
390
13
347
21
  0
LAYER
  5
28
330
1
100
AcDbSymbolTableRecord
100
AcDbLayerTableRecord
  2
Defpoints
 70
0
 62
7
  6
Continuous
290
0
370
-3
390
13
347
21
  0
ENDTAB
  0
TABLE
  2
STYLE
  5
5
330
0
100
AcDbSymbolTable
 70
1
  0
STYLE
  5
29
330
5
100
AcDbSymbolTableRecord
100
AcDbTextStyleTableRecord
  2
Standard
 70
0
 40
0.0
 41
1.0
 50
0.0
 71
0
 42
2.5
  3
txt
  4

  0
ENDTAB
  0
TABLE
  2
VIEW
  5
7
330
0
100
AcDbSymbolTable
 70
0
  0
ENDTAB
  0
TABLE
  2
UCS
  5
6
330
0
100
AcDbSymbolTable
 70
0
  0
ENDTAB
  0
TABLE
  2
APPID
  5
3
330
0
100
AcDbSymbolTable
 70
3
  0
APPID
  5
2A
330
3
100
AcDbSymbolTableRecord
100
AcDbRegAppTableRecord
  2
ACAD
 70
0
  0
APPID
  5
3A
330
3
100
AcDbSymbolTableRecord
100
AcDbRegAppTableRecord
  2
HATCHBACKGROUNDCOLOR
 70
0
  0
APPID
  5
3B
330
3
100
AcDbSymbolTableRecord
100
AcDbRegAppTableRecord
  2
EZDXF
 70
0
  0
ENDTAB
  0
TABLE
  2
DIMSTYLE
  5
4
330
0
100
AcDbSymbolTable
 70
1
100
AcDbDimStyleTable
  0
DIMSTYLE
105
2B
330
4
100
AcDbSymbolTableRecord
100
AcDbDimStyleTableRecord
  2
Standard
 70
0
 40
1.0
 41
2.5
 42
0.625
 43
3.75
 44
1.25
 45
0.0
 46
0.0
 47
0.0
 48
0.0
 49
2.5
140
2.5
141
2.5
142
0.0
143
0.03937007874
144
1.0
145
0.0
146
1.0
147
0.625
148
0.0
 69
0
 70
0
 71
0
 72
0
 73
0
 74
0
 75
0
 76
0
 77
1
 78
8
 79
3
170
0
171
3
172
1
173
0
174
0
175
0
176
0
177
0
178
0
179
2
271
2
272
2
273
2
274
3
275
0
276
0
277
2
278
44
279
0
280
0
281
0
282
0
283
0
284
8
285
0
286
0
288
0
289
3
290
0
371
-2
372
-2
  0
ENDTAB
  0
TABLE
  2
BLOCK_RECORD
  5
9
330
0
100
AcDbSymbolTable
 70
2
  0
BLOCK_RECORD
  5
17
330
9
100
AcDbSymbolTableRecord
100
AcDbBlockTableRecord
  2
*Model_Space
340
1A
 70
0
280
1
281
0
  0
BLOCK_RECORD
  5
1B
330
9
100
AcDbSymbolTableRecord
100
AcDbBlockTableRecord
  2
*Paper_Space
340
1E
 70
0
280
1
281
0
  0
ENDTAB
  0
ENDSEC
  0
SECTION
  2
BLOCKS
  0
BLOCK
  5
18
330
17
100
AcDbEntity
  8
0
100
AcDbBlockBegin
  2
*Model_Space
 70
0
 10
0.0
 20
0.0
 30
0.0
  3
*Model_Space
  1

  0
ENDBLK
  5
19
330
17
100
AcDbEntity
  8
0
100
AcDbBlockEnd
  0
BLOCK
  5
1C
330
1B
100
AcDbEntity
  8
0
100
AcDbBlockBegin
  2
*Paper_Space
 70
0
 10
0.0
 20
0.0
 30
0.0
  3
*Paper_Space
  1

  0
ENDBLK
  5
1D
330
1B
100
AcDbEntity
  8
0
100
AcDbBlockEnd
  0
ENDSEC
  0
SECTION
  2
ENTITIES
  0
LWPOLYLINE
  5
2F
330
17
100
AcDbEntity
  8
SHEET_BOUNDARY
 62
1
100
AcDbPolyline
 90
5
 70
0
 10
0.0
 20
0.0
 10
5000.0
 20
0.0
 10
5000.0
 20
5000.0
 10
0.0
 20
5000.0
 10
0.0
 20
0.0
  0
IMAGE
  5
30
330
17
100
AcDbEntity
  8
4._layer 1
 62
0
 92
140
310
8C000000010000008400000006000000050000000EBE30992AB286C0A0B437F8C24E7CC00000000000000000205D3AD07CD66040A0B437F8C24E7CC00000000000000000205D3AD07CD660402D6894F07FD1964000000000000000000EBE30992AB286C02D6894F07FD1964000000000000000000EBE30992AB286C0A0B437
310
F8C24E7CC00000000000000000
100
AcDbRasterImage
 90
0
 10
-16.700860407194455
 20
-348.97801201786604
 30
0.0
 11
0.0188318540652593
 21
0.0
 31
0.0
 12
0.0
 22
0.0188318540652593
 32
0.0
 13
45719.0
 23
101599.0
340
71
 70
3
280
1
281
50
282
50
283
0
360
31
 71
1
 91
2
 14
-726.2708
 24
-452.9226
 14
-91.27099999999996
 24
958.1881999999999
290
0
  0
SPLINE
  5
32
330
17
100
AcDbEntity
  8
4._layer 2
 62
142
100
AcDbSpline
 70
11
 71
3
 72
52
 73
48
 74
0
 42
1e-09
 40
0.0
 40
0.0
 40
0.0
 40
0.0
 40
0.0769230769230769
 40
0.0769230769230769
 40
0.0769230769230769
 40
0.0769230769230769
 40
0.1538461538461539
 40
0.1538461538461539
 40
0.1538461538461539
 40
0.1538461538461539
 40
0.2307692307692308
 40
0.2307692307692308
 40
0.2307692307692308
 40
0.2307692307692308
 40
0.3076923076923077
 40
0.3076923076923077
 40
0.3076923076923077
 40
0.3076923076923077
 40
0.3846153846153846
 40
0.3846153846153846
 40
0.3846153846153846
 40
0.3846153846153846
 40
0.4615384615384616
 40
0.4615384615384616
 40
0.4615384615384616
 40
0.4615384615384616
 40
0.5384615384615384
 40
0.5384615384615384
 40
0.5384615384615384
 40
0.5384615384615384
 40
0.6153846153846154
 40
0.6153846153846154
 40
0.6153846153846154
 40
0.6153846153846154
 40
0.6923076923076923
 40
0.6923076923076923
 40
0.6923076923076923
 40
0.6923076923076923
 40
0.7692307692307693
 40
0.7692307692307693
 40
0.7692307692307693
 40
0.7692307692307693
 40
0.8461538461538461
 40
0.8461538461538461
 40
0.8461538461538461
 40
0.8461538461538461
 40
1.0
 40
1.0
 40
1.0
 40
1.0
 10
124.07353959280556
 20
362.453087982134
 30
0.0
 10
124.07353959280556
 20
362.453087982134
 30
0.0
 10
124.07353959280556
 20
369.36758798213395
 30
0.0
 10
124.07353959280556
 20
369.36758798213395
 30
0.0
 10
124.07353959280556
 20
369.36758798213395
 30
0.0
 10
124.07353959280556
 20
369.36758798213395
 30
0.0
 10
117.19443959280557
 20
369.36758798213395
 30
0.0
 10
117.19443959280557
 20
369.36758798213395
 30
0.0
 10
117.19443959280557
 20
369.36758798213395
 30
0.0
 10
117.19443959280557
 20
369.36758798213395
 30
0.0
 10
117.19443959280557
 20
372.26038798213403
 30
0.0
 10
117.19443959280557
 20
372.26038798213403
 30
0.0
 10
117.19443959280557
 20
372.26038798213403
 30
0.0
 10
117.19443959280557
 20
372.26038798213403
 30
0.0
 10
124.07353959280556
 20
372.26038798213403
 30
0.0
 10
124.07353959280556
 20
372.26038798213403
 30
0.0
 10
124.07353959280556
 20
372.26038798213403
 30
0.0
 10
124.07353959280556
 20
372.26038798213403
 30
0.0
 10
124.07353959280556
 20
379.139487982134
 30
0.0
 10
124.07353959280556
 20
379.139487982134
 30
0.0
 10
124.07353959280556
 20
379.139487982134
 30
0.0
 10
124.07353959280556
 20
379.139487982134
 30
0.0
 10
127.00163959280553
 20
379.139487982134
 30
0.0
 10
127.00163959280553
 20
379.139487982134
 30
0.0
 10
127.00163959280553
 20
379.139487982134
 30
0.0
 10
127.00163959280553
 20
379.139487982134
 30
0.0
 10
127.00163959280553
 20
372.26038798213403
 30
0.0
 10
127.00163959280553
 20
372.26038798213403
 30
0.0
 10
127.00163959280553
 20
372.26038798213403
 30
0.0
 10
127.00163959280553
 20
372.26038798213403
 30
0.0
 10
133.8808395928055
 20
372.26038798213403
 30
0.0
 10
133.8808395928055
 20
372.26038798213403
 30
0.0
 10
133.8808395928055
 20
372.26038798213403
 30
0.0
 10
133.8808395928055
 20
372.26038798213403
 30
0.0
 10
133.8808395928055
 20
369.36758798213395
 30
0.0
 10
133.8808395928055
 20
369.36758798213395
 30
0.0
 10
133.8808395928055
 20
369.36758798213395
 30
0.0
 10
133.8808395928055
 20
369.36758798213395
 30
0.0
 10
127.00163959280553
 20
369.36758798213395
 30
0.0
 10
127.00163959280553
 20
369.36758798213395
 30
0.0
 10
127.00163959280553
 20
369.36758798213395
 30
0.0
 10
127.00163959280553
 20
369.36758798213395
 30
0.0
 10
127.00163959280553
 20
362.453087982134
 30
0.0
 10
127.00163959280553
 20
362.453087982134
 30
0.0
 10
127.00163959280553
 20
362.453087982134
 30
0.0
 10
127.00163959280553
 20
362.453087982134
 30
0.0
 10
124.07353959280556
 20
362.453087982134
 30
0.0
 10
124.07353959280556
 20
362.453087982134
 30
0.0
  0
SPLINE
  5
33
330
17
100
AcDbEntity
  8
4._layer 2
 62
142
370
158
100
AcDbSpline
 70
8
 71
3
 72
32
 73
28
 74
0
 42
1e-09
 40
0.0
 40
0.0
 40
0.0
 40
0.0
 40
0.125
 40
0.125
 40
0.125
 40
0.125
 40
0.25
 40
0.25
 40
0.25
 40
0.25
 40
0.375
 40
0.375
 40
0.375
 40
0.375
 40
0.5
 40
0.5
 40
0.5
 40
0.5
 40
0.625
 40
0.625
 40
0.625
 40
0.625
 40
0.75
 40
0.75
 40
0.75
 40
0.75
 40
1.0
 40
1.0
 40
1.0
 40
1.0
 10
706.7269395928056
 20
649.932587982134
 30
0.0
 10
706.9398395928056
 20
640.446687982134
 30
0.0
 10
707.1527395928056
 20
630.960787982134
 30
0.0
 10
707.3656395928056
 20
621.474887982134
 30
0.0
 10
707.3656395928056
 20
621.474887982134
 30
0.0
 10
707.5898395928056
 20
611.489787982134
 30
0.0
 10
707.8139395928056
 20
601.504587982134
 30
0.0
 10
708.0380395928056
 20
591.519487982134
 30
0.0
 10
708.0380395928056
 20
591.519487982134
 30
0.0
 10
709.0155395928056
 20
544.028987982134
 30
0.0
 10
707.0387395928055
 20
499.591087982134
 30
0.0
 10
714.2777395928056
 20
452.230987982134
 30
0.0
 10
714.2777395928056
 20
452.230987982134
 30
0.0
 10
718.5886395928055
 20
424.02758798213404
 30
0.0
 10
724.0203395928055
 20
397.778587982134
 30
0.0
 10
726.8660395928056
 20
369.1389879821339
 30
0.0
 10
726.8660395928056
 20
369.1389879821339
 30
0.0
 10
728.4532395928055
 20
353.164987982134
 30
0.0
 10
730.1693395928055
 20
335.192087982134
 30
0.0
 10
730.6998395928056
 20
319.28428798213395
 30
0.0
 10
730.6998395928056
 20
319.28428798213395
 30
0.0
 10
730.9343395928056
 20
312.252887982134
 30
0.0
 10
730.2980395928056
 20
302.743787982134
 30
0.0
 10
730.1050395928055
 20
295.531787982134
 30
0.0
 10
730.1050395928055
 20
295.531787982134
 30
0.0
 10
729.7560395928056
 20
282.492487982134
 30
0.0
 10
729.3997395928055
 20
269.453387982134
 30
0.0
 10
729.0395395928056
 20
256.414387982134
 30
0.0
  0
SPLINE
  5
34
330
17
100
AcDbEntity
  8
4._layer 2
 62
142
370
158
100
AcDbSpline
 70
8
 71
3
 72
28
 73
24
 74
0
 42
1e-09
 40
0.0
 40
0.0
 40
0.0
 40
0.0
 40
0.1428571428571428
 40
0.1428571428571428
 40
0.1428571428571428
 40
0.1428571428571428
 40
0.2857142857142857
 40
0.2857142857142857
 40
0.2857142857142857
 40
0.2857142857142857
 40
0.4285714285714285
 40
0.4285714285714285
 40
0.4285714285714285
 40
0.4285714285714285
 40
0.5714285714285714
 40
0.5714285714285714
 40
0.5714285714285714
 40
0.5714285714285714
 40
0.7142857142857143
 40
0.7142857142857143
 40
0.7142857142857143
 40
0.7142857142857143
 40
1.0
 40
1.0
 40
1.0
 40
1.0
 10
105.6861395928056
 20
269.895087982134
 30
0.0
 10
175.10903959280552
 20
268.77248798213395
 30
0.0
 10
244.53193959280554
 20
267.649987982134
 30
0.0
 10
313.95483959280557
 20
266.527387982134
 30
0.0
 10
313.95483959280557
 20
266.527387982134
 30
0.0
 10
343.9215395928056
 20
266.04288798213395
 30
0.0
 10
373.88833959280555
 20
265.55828798213395
 30
0.0
 10
403.85503959280555
 20
265.07368798213395
 30
0.0
 10
403.85503959280555
 20
265.07368798213395
 30
0.0
 10
413.3445395928056
 20
264.92028798213397
 30
0.0
 10
422.83393959280556
 20
264.766787982134
 30
0.0
 10
432.3234395928055
 20
264.613387982134
 30
0.0
 10
432.3234395928055
 20
264.613387982134
 30
0.0
 10
442.31233959280553
 20
264.45188798213394
 30
0.0
 10
452.30123959280553
 20
264.290387982134
 30
0.0
 10
462.29013959280553
 20
264.128787982134
 30
0.0
 10
462.29013959280553
 20
264.128787982134
 30
0.0
 10
542.1977395928055
 20
262.836687982134
 30
0.0
 10
622.1312395928055
 20
261.694887982134
 30
0.0
 10
702.0333395928055
 20
260.313787982134
 30
0.0
 10
702.0333395928055
 20
260.313787982134
 30
0.0
 10
711.4838395928056
 20
260.150387982134
 30
0.0
 10
712.7589395928055
 20
259.610687982134
 30
0.0
 10
721.6057395928055
 20
256.63528798213395
 30
0.0
  0
SPLINE
  5
35
330
17
100
AcDbEntity
  8
4._layer 3
 62
242
370
158
100
AcDbSpline
 70
11
 71
3
 72
152
 73
148
 74
0
 42
1e-09
 40
0.0
 40
0.0
 40
0.0
 40
0.0
 40
0.0263157894736842
 40
0.0263157894736842
 40
0.0263157894736842
 40
0.0263157894736842
 40
0.0526315789473684
 40
0.0526315789473684
 40
0.0526315789473684
 40
0.0526315789473684
 40
0.0789473684210526
 40
0.0789473684210526
 40
0.0789473684210526
 40
0.0789473684210526
 40
0.1052631578947368
 40
0.1052631578947368
 40
0.1052631578947368
 40
0.1052631578947368
 40
0.131578947368421
 40
0.131578947368421
 40
0.131578947368421
 40
0.131578947368421
 40
0.1578947368421053
 40
0.1578947368421053
 40
0.1578947368421053
 40
0.1578947368421053
 40
0.1842105263157895
 40
0.1842105263157895
 40
0.1842105263157895
 40
0.1842105263157895
 40
0.2105263157894737
 40
0.2105263157894737
 40
0.2105263157894737
 40
0.2105263157894737
 40
0.2368421052631579
 40
0.2368421052631579
 40
0.2368421052631579
 40
0.2368421052631579
 40
0.2631578947368421
 40
0.2631578947368421
 40
0.2631578947368421
 40
0.2631578947368421
 40
0.2894736842105263
 40
0.2894736842105263
 40
0.2894736842105263
 40
0.2894736842105263
 40
0.3157894736842105
 40
0.3157894736842105
 40
0.3157894736842105
 40
0.3157894736842105
 40
0.3421052631578947
 40
0.3421052631578947
 40
0.3421052631578947
 40
0.3421052631578947
 40
0.3684210526315789
 40
0.3684210526315789
 40
0.3684210526315789
 40
0.3684210526315789
 40
0.3947368421052632
 40
0.3947368421052632
 40
0.3947368421052632
 40
0.3947368421052632
 40
0.4210526315789473
 40
0.4210526315789473
 40
0.4210526315789473
 40
0.4210526315789473
 40
0.4473684210526316
 40
0.4473684210526316
 40
0.4473684210526316
 40
0.4473684210526316
 40
0.4736842105263158
 40
0.4736842105263158
 40
0.4736842105263158
 40
0.4736842105263158
 40
0.5
 40
0.5
 40
0.5
 40
0.5
 40
0.5263157894736842
 40
0.5263157894736842
 40
0.5263157894736842
 40
0.5263157894736842
 40
0.5526315789473685
 40
0.5526315789473685
 40
0.5526315789473685
 40
0.5526315789473685
 40
0.5789473684210527
 40
0.5789473684210527
 40
0.5789473684210527
 40
0.5789473684210527
 40
0.6052631578947368
 40
0.6052631578947368
 40
0.6052631578947368
 40
0.6052631578947368
 40
0.631578947368421
 40
0.631578947368421
 40
0.631578947368421
 40
0.631578947368421
 40
0.6578947368421053
 40
0.6578947368421053
 40
0.6578947368421053
 40
0.6578947368421053
 40
0.6842105263157895
 40
0.6842105263157895
 40
0.6842105263157895
 40
0.6842105263157895
 40
0.7105263157894737
 40
0.7105263157894737
 40
0.7105263157894737
 40
0.7105263157894737
 40
0.7368421052631579
 40
0.7368421052631579
 40
0.7368421052631579
 40
0.7368421052631579
 40
0.7631578947368421
 40
0.7631578947368421
 40
0.7631578947368421
 40
0.7631578947368421
 40
0.7894736842105263
 40
0.7894736842105263
 40
0.7894736842105263
 40
0.7894736842105263
 40
0.8157894736842105
 40
0.8157894736842105
 40
0.8157894736842105
 40
0.8157894736842105
 40
0.8421052631578947
 40
0.8421052631578947
 40
0.8421052631578947
 40
0.8421052631578947
 40
0.868421052631579
 40
0.868421052631579
 40
0.868421052631579
 40
0.868421052631579
 40
0.8947368421052632
 40
0.8947368421052632
 40
0.8947368421052632
 40
0.8947368421052632
 40
0.9210526315789473
 40
0.9210526315789473
 40
0.9210526315789473
 40
0.9210526315789473
 40
0.9473684210526315
 40
0.9473684210526315
 40
0.9473684210526315
 40
0.9473684210526315
 40
1.0
 40
1.0
 40
1.0
 40
1.0
 10
614.0815395928056
 20
802.644787982134
 30
0.0
 10
628.2988395928055
 20
803.525987982134
 30
0.0
 10
637.7298395928055
 20
797.6693879821339
 30
0.0
 10
641.7470395928055
 20
782.995687982134
 30
0.0
 10
641.7470395928055
 20
782.995687982134
 30
0.0
 10
647.4709395928055
 20
751.9681879821339
 30
0.0
 10
632.0450395928056
 20
723.638787982134
 30
0.0
 10
629.0914395928055
 20
692.9921879821339
 30
0.0
 10
629.0914395928055
 20
692.9921879821339
 30
0.0
 10
628.1339395928055
 20
684.0338879821339
 30
0.0
 10
624.1691395928055
 20
660.2893879821339
 30
0.0
 10
635.6923395928055
 20
656.896987982134
 30
0.0
 10
635.6923395928055
 20
656.896987982134
 30
0.0
 10
650.6572395928056
 20
652.4912879821339
 30
0.0
 10
688.7614395928056
 20
651.677187982134
 30
0.0
 10
706.7269395928056
 20
649.932587982134
 30
0.0
 10
706.7269395928056
 20
649.932587982134
 30
0.0
 10
713.0190395928056
 20
649.208087982134
 30
0.0
 10
723.9177395928056
 20
647.692687982134
 30
0.0
 10
724.8271395928056
 20
639.870287982134
 30
0.0
 10
724.8271395928056
 20
639.870287982134
 30
0.0
 10
726.5263395928056
 20
624.0587879821339
 30
0.0
 10
725.6676395928056
 20
604.7308879821339
 30
0.0
 10
725.8639395928055
 20
588.444587982134
 30
0.0
 10
725.8639395928055
 20
588.444587982134
 30
0.0
 10
726.3541395928055
 20
535.771587982134
 30
0.0
 10
726.5194395928056
 20
489.41238798213396
 30
0.0
 10
735.4564395928055
 20
437.05478798213403
 30
0.0
 10
735.4564395928055
 20
437.05478798213403
 30
0.0
 10
741.4849395928055
 20
401.83408798213395
 30
0.0
 10
747.0311395928055
 20
372.991487982134
 30
0.0
 10
747.1763395928056
 20
336.819287982134
 30
0.0
 10
747.1763395928056
 20
336.819287982134
 30
0.0
 10
747.3207395928056
 20
326.85438798213397
 30
0.0
 10
749.2972395928056
 20
260.02978798213394
 30
0.0
 10
746.6560395928055
 20
256.732087982134
 30
0.0
 10
746.6560395928055
 20
256.732087982134
 30
0.0
 10
740.7025395928056
 20
249.29868798213397
 30
0.0
 10
717.3677395928056
 20
265.822887982134
 30
0.0
 10
716.3953395928055
 20
249.23538798213397
 30
0.0
 10
716.3953395928055
 20
249.23538798213397
 30
0.0
 10
716.0786395928055
 20
243.83288798213397
 30
0.0
 10
717.7809395928056
 20
237.832587982134
 30
0.0
 10
717.3721395928055
 20
232.505687982134
 30
0.0
 10
717.3721395928055
 20
232.505687982134
 30
0.0
 10
717.1736395928056
 20
229.91828798213396
 30
0.0
 10
717.4874395928056
 20
226.920387982134
 30
0.0
 10
714.8918395928056
 20
225.31838798213397
 30
0.0
 10
714.8918395928056
 20
225.31838798213397
 30
0.0
 10
709.8469395928056
 20
222.20488798213398
 30
0.0
 10
698.6056395928056
 20
216.97178798213397
 30
0.0
 10
690.1936395928055
 20
212.75008798213398
 30
0.0
 10
690.1936395928055
 20
212.75008798213398
 30
0.0
 10
678.5802395928056
 20
206.92168798213396
 30
0.0
 10
669.8273395928055
 20
200.92498798213398
 30
0.0
 10
662.0390395928056
 20
200.24478798213397
 30
0.0
 10
662.0390395928056
 20
200.24478798213397
 30
0.0
 10
658.8040395928056
 20
199.962287982134
 30
0.0
 10
651.4646395928055
 20
199.91798798213398
 30
0.0
 10
646.4952395928055
 20
200.14398798213398
 30
0.0
 10
646.4952395928055
 20
200.14398798213398
 30
0.0
 10
642.4833395928056
 20
200.32638798213398
 30
0.0
 10
637.8322395928055
 20
199.89998798213398
 30
0.0
 10
636.7270395928056
 20
202.87228798213397
 30
0.0
 10
636.7270395928056
 20
202.87228798213397
 30
0.0
 10
636.3922395928056
 20
203.77288798213397
 30
0.0
 10
637.2090395928055
 20
206.91328798213397
 30
0.0
 10
637.4160395928055
 20
208.10138798213399
 30
0.0
 10
637.4160395928055
 20
208.10138798213399
 30
0.0
 10
638.9990395928055
 20
216.62958798213398
 30
0.0
 10
648.8507395928056
 20
253.98218798213398
 30
0.0
 10
638.6895395928055
 20
257.720087982134
 30
0.0
 10
638.6895395928055
 20
257.720087982134
 30
0.0
 10
632.5022395928056
 20
259.565287982134
 30
0.0
 10
579.8831395928055
 20
261.993687982134
 30
0.0
 10
572.3610395928056
 20
260.243687982134
 30
0.0
 10
572.3610395928056
 20
260.243687982134
 30
0.0
 10
567.7126395928055
 20
259.162287982134
 30
0.0
 10
566.5623395928055
 20
258.74728798213397
 30
0.0
 10
565.4306395928056
 20
255.82728798213398
 30
0.0
 10
565.4306395928056
 20
255.82728798213398
 30
0.0
 10
561.0241395928056
 20
244.456887982134
 30
0.0
 10
565.5224395928055
 20
216.34528798213398
 30
0.0
 10
562.4295395928056
 20
210.36308798213398
 30
0.0
 10
562.4295395928056
 20
210.36308798213398
 30
0.0
 10
559.6194395928055
 20
204.92798798213397
 30
0.0
 10
554.4440395928056
 20
205.72758798213397
 30
0.0
 10
541.4967395928055
 20
205.92348798213396
 30
0.0
 10
541.4967395928055
 20
205.92348798213396
 30
0.0
 10
400.9797395928056
 20
208.04998798213398
 30
0.0
 10
256.82973959280554
 20
207.72378798213398
 30
0.0
 10
116.11383959280556
 20
205.655487982134
 30
0.0
 10
116.11383959280556
 20
205.655487982134
 30
0.0
 10
116.11383959280556
 20
205.655487982134
 30
0.0
 10
115.13623959280551
 20
205.64108798213397
 30
0.0
 10
115.13623959280551
 20
205.64108798213397
 30
0.0
 10
115.13623959280551
 20
205.64108798213397
 30
0.0
 10
96.7672395928056
 20
205.35028798213398
 30
0.0
 10
99.26333959280555
 20
212.609287982134
 30
0.0
 10
100.5624395928055
 20
227.15848798213398
 30
0.0
 10
100.5624395928055
 20
227.15848798213398
 30
0.0
 10
105.1385395928055
 20
274.079687982134
 30
0.0
 10
111.9017395928056
 20
315.11308798213395
 30
0.0
 10
109.90013959280554
 20
362.850587982134
 30
0.0
 10
109.90013959280554
 20
362.850587982134
 30
0.0
 10
108.29763959280558
 20
401.301387982134
 30
0.0
 10
107.46493959280554
 20
440.24798798213396
 30
0.0
 10
105.35243959280558
 20
478.597087982134
 30
0.0
 10
105.35243959280558
 20
478.597087982134
 30
0.0
 10
104.92283959280553
 20
486.3957879821339
 30
0.0
 10
101.7807395928055
 20
501.17098798213397
 30
0.0
 10
112.59543959280552
 20
503.03198798213396
 30
0.0
 10
112.59543959280552
 20
503.03198798213396
 30
0.0
 10
124.74293959280556
 20
504.893787982134
 30
0.0
 10
141.9990395928055
 20
503.93338798213404
 30
0.0
 10
154.91923959280552
 20
504.304987982134
 30
0.0
 10
154.91923959280552
 20
504.304987982134
 30
0.0
 10
167.4030395928055
 20
504.451687982134
 30
0.0
 10
188.4035395928056
 20
502.61308798213395
 30
0.0
 10
196.3039395928056
 20
514.113887982134
 30
0.0
 10
196.3039395928056
 20
514.113887982134
 30
0.0
 10
203.59613959280557
 20
525.781887982134
 30
0.0
 10
200.82583959280555
 20
548.714787982134
 30
0.0
 10
200.41583959280553
 20
562.579787982134
 30
0.0
 10
200.41583959280553
 20
562.579787982134
 30
0.0
 10
199.79103959280553
 20
581.265687982134
 30
0.0
 10
196.06193959280552
 20
638.3531879821339
 30
0.0
 10
205.95303959280557
 20
652.105187982134
 30
0.0
 10
205.95303959280557
 20
652.105187982134
 30
0.0
 10
217.39373959280556
 20
664.3781879821339
 30
0.0
 10
234.10433959280556
 20
660.857187982134
 30
0.0
 10
249.51863959280553
 20
660.486287982134
 30
0.0
 10
249.51863959280553
 20
660.486287982134
 30
0.0
 10
258.46333959280554
 20
659.943987982134
 30
0.0
 10
286.95403959280554
 20
656.0968879821339
 30
0.0
 10
290.9815395928056
 20
666.2648879821339
 30
0.0
 10
290.9815395928056
 20
666.2648879821339
 30
0.0
 10
297.3882395928056
 20
697.708187982134
 30
0.0
 10
279.59083959280554
 20
772.353987982134
 30
0.0
 10
285.26063959280555
 20
788.4320879821339
 30
0.0
 10
285.26063959280555
 20
788.4320879821339
 30
0.0
 10
286.81783959280557
 20
792.847687982134
 30
0.0
 10
290.3207395928056
 20
795.085387982134
 30
0.0
 10
294.4278395928055
 20
795.4433879821339
 30
0.0
 10
294.4278395928055
 20
795.4433879821339
 30
0.0
 10
353.10343959280556
 20
800.557787982134
 30
0.0
 10
548.6876395928056
 20
798.591587982134
 30
0.0
 10
614.0815395928056
 20
802.644787982134
 30
0.0
  0
SPLINE
  5
36
330
17
100
AcDbEntity
  8
4._layer 3
 62
142
100
AcDbSpline
 70
11
 71
3
 72
20
 73
16
 74
0
 42
1e-09
 40
0.0
 40
0.0
 40
0.0
 40
0.0
 40
0.2
 40
0.2
 40
0.2
 40
0.2
 40
0.4
 40
0.4
 40
0.4
 40
0.4
 40
0.6
 40
0.6
 40
0.6
 40
0.6
 40
1.0
 40
1.0
 40
1.0
 40
1.0
 10
644.5576395928056
 20
622.0194879821339
 30
0.0
 10
644.5576395928056
 20
622.0194879821339
 30
0.0
 10
639.2780395928055
 20
640.893287982134
 30
0.0
 10
639.2780395928055
 20
640.893287982134
 30
0.0
 10
639.2780395928055
 20
640.893287982134
 30
0.0
 10
639.2780395928055
 20
640.893287982134
 30
0.0
 10
641.0719395928055
 20
640.893287982134
 30
0.0
 10
641.0719395928055
 20
640.893287982134
 30
0.0
 10
641.0719395928055
 20
640.893287982134
 30
0.0
 10
641.0719395928055
 20
640.893287982134
 30
0.0
 10
646.3514395928056
 20
622.0194879821339
 30
0.0
 10
646.3514395928056
 20
622.0194879821339
 30
0.0
 10
646.3514395928056
 20
622.0194879821339
 30
0.0
 10
646.3514395928056
 20
622.0194879821339
 30
0.0
 10
644.5576395928056
 20
622.0194879821339
 30
0.0
 10
644.5576395928056
 20
622.0194879821339
 30
0.0
  0
SPLINE
  5
37
330
17
100
AcDbEntity
  8
4._layer 3
 62
142
100
AcDbSpline
 70
11
 71
3
 72
20
 73
16
 74
0
 42
1e-09
 40
0.0
 40
0.0
 40
0.0
 40
0.0
 40
0.2
 40
0.2
 40
0.2
 40
0.2
 40
0.4
 40
0.4
 40
0.4
 40
0.4
 40
0.6
 40
0.6
 40
0.6
 40
0.6
 40
1.0
 40
1.0
 40
1.0
 40
1.0
 10
658.7300395928055
 20
622.0194879821339
 30
0.0
 10
658.7300395928055
 20
622.0194879821339
 30
0.0
 10
653.4504395928055
 20
640.893287982134
 30
0.0
 10
653.4504395928055
 20
640.893287982134
 30
0.0
 10
653.4504395928055
 20
640.893287982134
 30
0.0
 10
653.4504395928055
 20
640.893287982134
 30
0.0
 10
655.2443395928055
 20
640.893287982134
 30
0.0
 10
655.2443395928055
 20
640.893287982134
 30
0.0
 10
655.2443395928055
 20
640.893287982134
 30
0.0
 10
655.2443395928055
 20
640.893287982134
 30
0.0
 10
660.5238395928055
 20
622.0194879821339
 30
0.0
 10
660.5238395928055
 20
622.0194879821339
 30
0.0
 10
660.5238395928055
 20
622.0194879821339
 30
0.0
 10
660.5238395928055
 20
622.0194879821339
 30
0.0
 10
658.7300395928055
 20
622.0194879821339
 30
0.0
 10
658.7300395928055
 20
622.0194879821339
 30
0.0
  0
SPLINE
  5
38
330
17
100
AcDbEntity
  8
4._layer 3
 62
142
100
AcDbSpline
 70
11
 71
3
 72
20
 73
16
 74
0
 42
1e-09
 40
0.0
 40
0.0
 40
0.0
 40
0.0
 40
0.2
 40
0.2
 40
0.2
 40
0.2
 40
0.4
 40
0.4
 40
0.4
 40
0.4
 40
0.6
 40
0.6
 40
0.6
 40
0.6
 40
1.0
 40
1.0
 40
1.0
 40
1.0
 10
254.13413959280558
 20
632.161487982134
 30
0.0
 10
254.13413959280558
 20
632.161487982134
 30
0.0
 10
248.85453959280557
 20
651.0352879821339
 30
0.0
 10
248.85453959280557
 20
651.0352879821339
 30
0.0
 10
248.85453959280557
 20
651.0352879821339
 30
0.0
 10
248.85453959280557
 20
651.0352879821339
 30
0.0
 10
250.64843959280557
 20
651.0352879821339
 30
0.0
 10
250.64843959280557
 20
651.0352879821339
 30
0.0
 10
250.64843959280557
 20
651.0352879821339
 30
0.0
 10
250.64843959280557
 20
651.0352879821339
 30
0.0
 10
255.92793959280556
 20
632.161487982134
 30
0.0
 10
255.92793959280556
 20
632.161487982134
 30
0.0
 10
255.92793959280556
 20
632.161487982134
 30
0.0
 10
255.92793959280556
 20
632.161487982134
 30
0.0
 10
254.13413959280558
 20
632.161487982134
 30
0.0
 10
254.13413959280558
 20
632.161487982134
 30
0.0
  0
SPLINE
  5
39
330
17
100
AcDbEntity
  8
4._layer 3
 62
142
100
AcDbSpline
 70
11
 71
3
 72
20
 73
16
 74
0
 42
1e-09
 40
0.0
 40
0.0
 40
0.0
 40
0.0
 40
0.2
 40
0.2
 40
0.2
 40
0.2
 40
0.4
 40
0.4
 40
0.4
 40
0.4
 40
0.6
 40
0.6
 40
0.6
 40
0.6
 40
1.0
 40
1.0
 40
1.0
 40
1.0
 10
268.30653959280556
 20
632.161487982134
 30
0.0
 10
268.30653959280556
 20
632.161487982134
 30
0.0
 10
263.02693959280555
 20
651.0352879821339
 30
0.0
 10
263.02693959280555
 20
651.0352879821339
 30
0.0
 10
263.02693959280555
 20
651.0352879821339
 30
0.0
 10
263.02693959280555
 20
651.0352879821339
 30
0.0
 10
264.82083959280556
 20
651.0352879821339
 30
0.0
 10
264.82083959280556
 20
651.0352879821339
 30
0.0
 10
264.82083959280556
 20
651.0352879821339
 30
0.0
 10
264.82083959280556
 20
651.0352879821339
 30
0.0
 10
270.10033959280554
 20
632.161487982134
 30
0.0
 10
270.10033959280554
 20
632.161487982134
 30
0.0
 10
270.10033959280554
 20
632.161487982134
 30
0.0
 10
270.10033959280554
 20
632.161487982134
 30
0.0
 10
268.30653959280556
 20
632.161487982134
 30
0.0
 10
268.30653959280556
 20
632.161487982134
 30
0.0
  0
ENDSEC
  0
SECTION
  2
OBJECTS
  0
DICTIONARY
  5
A
330
0
100
AcDbDictionary
281
1
  3
ACAD_COLOR
350
B
  3
ACAD_GROUP
350
C
  3
ACAD_LAYOUT
350
D
  3
ACAD_MATERIAL
350
E
  3
ACAD_MLEADERSTYLE
350
F
  3
ACAD_MLINESTYLE
350
10
  3
ACAD_PLOTSETTINGS
350
11
  3
ACAD_PLOTSTYLENAME
350
12
  3
ACAD_SCALELIST
350
14
  3
ACAD_TABLESTYLE
350
15
  3
ACAD_VISUALSTYLE
350
16
  3
EZDXF_META
350
2D
  0
DICTIONARY
  5
B
330
A
100
AcDbDictionary
281
1
  0
DICTIONARY
  5
C
330
A
100
AcDbDictionary
281
1
  0
DICTIONARY
  5
D
330
A
100
AcDbDictionary
281
1
  3
Model
350
1A
  3
Layout1
350
1E
  0
DICTIONARY
  5
E
330
A
100
AcDbDictionary
281
1
  3
ByBlock
350
1F
  3
ByLayer
350
20
  3
Global
350
21
  0
DICTIONARY
  5
F
330
A
100
AcDbDictionary
281
1
  3
Standard
350
2C
  0
DICTIONARY
  5
10
330
A
100
AcDbDictionary
281
1
  3
Standard
350
22
  0
DICTIONARY
  5
11
330
A
100
AcDbDictionary
281
1
  0
ACDBDICTIONARYWDFLT
  5
12
330
A
100
AcDbDictionary
281
1
  3
Normal
350
13
100
AcDbDictionaryWithDefault
340
13
  0
ACDBPLACEHOLDER
  5
13
330
12
  0
DICTIONARY
  5
14
330
A
100
AcDbDictionary
281
1
  0
DICTIONARY
  5
15
330
A
100
AcDbDictionary
281
1
  0
DICTIONARY
  5
16
330
A
100
AcDbDictionary
281
1
  0
LAYOUT
  5
1A
330
D
100
AcDbPlotSettings
  1

  4
A3
  6

 40
7.5
 41
20.0
 42
7.5
 43
20.0
 44
420.0
 45
297.0
 46
0.0
 47
0.0
 48
0.0
 49
0.0
140
0.0
141
0.0
142
1.0
143
1.0
 70
1024
 72
1
 73
0
 74
5
  7

 75
16
 76
0
 77
2
 78
300
147
1.0
148
0.0
149
0.0
100
AcDbLayout
  1
Model
 70
1
 71
0
 10
0.0
 20
0.0
 11
420.0
 21
297.0
 12
0.0
 22
0.0
 32
0.0
 14
1e+20
 24
1e+20
 34
1e+20
 15
-1e+20
 25
-1e+20
 35
-1e+20
146
0.0
 13
0.0
 23
0.0
 33
0.0
 16
1.0
 26
0.0
 36
0.0
 17
0.0
 27
1.0
 37
0.0
 76
1
330
17
  0
LAYOUT
  5
1E
330
D
100
AcDbPlotSettings
  1

  4
A3
  6

 40
7.5
 41
20.0
 42
7.5
 43
20.0
 44
420.0
 45
297.0
 46
0.0
 47
0.0
 48
0.0
 49
0.0
140
0.0
141
0.0
142
1.0
143
1.0
 70
0
 72
1
 73
0
 74
5
  7

 75
16
 76
0
 77
2
 78
300
147
1.0
148
0.0
149
0.0
100
AcDbLayout
  1
Layout1
 70
1
 71
1
 10
0.0
 20
0.0
 11
420.0
 21
297.0
 12
0.0
 22
0.0
 32
0.0
 14
1e+20
 24
1e+20
 34
1e+20
 15
-1e+20
 25
-1e+20
 35
-1e+20
146
0.0
 13
0.0
 23
0.0
 33
0.0
 16
1.0
 26
0.0
 36
0.0
 17
0.0
 27
1.0
 37
0.0
 76
1
330
1B
  0
MATERIAL
  5
1F
102
{ACAD_REACTORS
330
E
102
}
330
E
100
AcDbMaterial
  1
ByBlock
  2

 70
0
 40
1.0
 71
1
 41
1.0
 91
-1023410177
 42
1.0
 72
1
  3

 73
1
 74
1
 75
1
 44
0.5
 73
0
 45
1.0
 46
1.0
 77
1
  4

 78
1
 79
1
170
1
 48
1.0
171
1
  6

172
1
173
1
174
1
140
1.0
141
1.0
175
1
  7

176
1
177
1
178
1
143
1.0
179
1
  8

270
1
271
1
272
1
145
1.0
146
1.0
273
1
  9

274
1
275
1
276
1
 42
1.0
 72
1
  3

 73
1
 74
1
 75
1
 94
63
  0
MATERIAL
  5
20
102
{ACAD_REACTORS
330
E
102
}
330
E
100
AcDbMaterial
  1
ByLayer
  2

 70
0
 40
1.0
 71
1
 41
1.0
 91
-1023410177
 42
1.0
 72
1
  3

 73
1
 74
1
 75
1
 44
0.5
 73
0
 45
1.0
 46
1.0
 77
1
  4

 78
1
 79
1
170
1
 48
1.0
171
1
  6

172
1
173
1
174
1
140
1.0
141
1.0
175
1
  7

176
1
177
1
178
1
143
1.0
179
1
  8

270
1
271
1
272
1
145
1.0
146
1.0
273
1
  9

274
1
275
1
276
1
 42
1.0
 72
1
  3

 73
1
 74
1
 75
1
 94
63
  0
MATERIAL
  5
21
102
{ACAD_REACTORS
330
E
102
}
330
E
100
AcDbMaterial
  1
Global
  2

 70
0
 40
1.0
 71
1
 41
1.0
 91
-1023410177
 42
1.0
 72
1
  3

 73
1
 74
1
 75
1
 44
0.5
 73
0
 45
1.0
 46
1.0
 77
1
  4

 78
1
 79
1
170
1
 48
1.0
171
1
  6

172
1
173
1
174
1
140
1.0
141
1.0
175
1
  7

176
1
177
1
178
1
143
1.0
179
1
  8

270
1
271
1
272
1
145
1.0
146
1.0
273
1
  9

274
1
275
1
276
1
 42
1.0
 72
1
  3

 73
1
 74
1
 75
1
 94
63
  0
MLINESTYLE
  5
22
102
{ACAD_REACTORS
330
10
102
}
330
10
100
AcDbMlineStyle
  2
Standard
 70
0
  3

 62
256
 51
90.0
 52
90.0
 71
2
 49
0.5
 62
256
  6
BYLAYER
 49
-0.5
 62
256
  6
BYLAYER
  0
MLEADERSTYLE
  5
2C
102
{ACAD_REACTORS
330
F
102
}
330
F
100
AcDbMLeaderStyle
179
2
170
2
171
1
172
0
 90
2
 40
0.0
 41
0.0
173
1
 91
-1056964608
 92
-2
290
1
 42
2.0
291
1
 43
8.0
  3
Standard
 44
4.0
300

342
29
174
1
175
1
176
0
178
1
 93
-1056964608
 45
4.0
292
0
297
0
 46
4.0
 94
-1056964608
 47
1.0
 49
1.0
140
1.0
294
1
141
0.0
177
0
142
1.0
295
0
296
0
143
3.75
271
0
272
9
273
9
  0
DICTIONARY
  5
2D
330
A
100
AcDbDictionary
280
1
281
1
  3
CREATED_BY_EZDXF
350
2E
  3
WRITTEN_BY_EZDXF
350
3C
  0
DICTIONARYVAR
  5
2E
330
2D
100
DictionaryVariables
280
0
  1
1.4.2 @ 2025-07-30T13:32:11.989421+00:00
  0
IMAGEDEF_REACTOR
  5
31
330
30
100
AcDbRasterImageDefReactor
 90
2
330
30
  0
DICTIONARYVAR
  5
3C
330
2D
100
DictionaryVariables
280
0
  1
1.4.2 @ 2025-07-30T13:32:11.990988+00:00
  0
ENDSEC
  0
EOF
