  0
SECTION
  2
HEADER
  9
$ACADVER
  1
AC1024
  9
$ACADMAINTVER
 70
6
  9
$DWGCODEPAGE
  3
ANSI_1252
  9
$LASTSAVEDBY
  1
ezdxf
  9
$INSBASE
 10
0.0
 20
0.0
 30
0.0
  9
$EXTMIN
 10
1e+20
 20
1e+20
 30
1e+20
  9
$EXTMAX
 10
-1e+20
 20
-1e+20
 30
-1e+20
  9
$LIMMIN
 10
0.0
 20
0.0
  9
$LIMMAX
 10
420.0
 20
297.0
  9
$ORTHOMODE
 70
0
  9
$REGENMODE
 70
1
  9
$FILLMODE
 70
1
  9
$QTEXTMODE
 70
0
  9
$MIRRTEXT
 70
1
  9
$LTSCALE
 40
1.0
  9
$ATTMODE
 70
1
  9
$TEXTSIZE
 40
2.5
  9
$TRACEWID
 40
1.0
  9
$TEXTSTYLE
  7
Standard
  9
$CLAYER
  8
0
  9
$CELTYPE
  6
ByLayer
  9
$CECOLOR
 62
256
  9
$CELTSCALE
 40
1.0
  9
$DISPSILH
 70
0
  9
$DIMSCALE
 40
1.0
  9
$DIMASZ
 40
2.5
  9
$DIMEXO
 40
0.625
  9
$DIMDLI
 40
3.75
  9
$DIMRND
 40
0.0
  9
$DIMDLE
 40
0.0
  9
$DIMEXE
 40
1.25
  9
$DIMTP
 40
0.0
  9
$DIMTM
 40
0.0
  9
$DIMTXT
 40
2.5
  9
$DIMCEN
 40
2.5
  9
$DIMTSZ
 40
0.0
  9
$DIMTOL
 70
0
  9
$DIMLIM
 70
0
  9
$DIMTIH
 70
0
  9
$DIMTOH
 70
0
  9
$DIMSE1
 70
0
  9
$DIMSE2
 70
0
  9
$DIMTAD
 70
1
  9
$DIMZIN
 70
8
  9
$DIMBLK
  1

  9
$DIMASO
 70
1
  9
$DIMSHO
 70
1
  9
$DIMPOST
  1

  9
$DIMAPOST
  1

  9
$DIMALT
 70
0
  9
$DIMALTD
 70
3
  9
$DIMALTF
 40
0.03937007874
  9
$DIMLFAC
 40
1.0
  9
$DIMTOFL
 70
1
  9
$DIMTVP
 40
0.0
  9
$DIMTIX
 70
0
  9
$DIMSOXD
 70
0
  9
$DIMSAH
 70
0
  9
$DIMBLK1
  1

  9
$DIMBLK2
  1

  9
$DIMSTYLE
  2
ISO-25
  9
$DIMCLRD
 70
0
  9
$DIMCLRE
 70
0
  9
$DIMCLRT
 70
0
  9
$DIMTFAC
 40
1.0
  9
$DIMGAP
 40
0.625
  9
$DIMJUST
 70
0
  9
$DIMSD1
 70
0
  9
$DIMSD2
 70
0
  9
$DIMTOLJ
 70
0
  9
$DIMTZIN
 70
8
  9
$DIMALTZ
 70
0
  9
$DIMALTTZ
 70
0
  9
$DIMUPT
 70
0
  9
$DIMDEC
 70
2
  9
$DIMTDEC
 70
2
  9
$DIMALTU
 70
2
  9
$DIMALTTD
 70
3
  9
$DIMTXSTY
  7
Standard
  9
$DIMAUNIT
 70
0
  9
$DIMADEC
 70
0
  9
$DIMALTRND
 40
0.0
  9
$DIMAZIN
 70
0
  9
$DIMDSEP
 70
44
  9
$DIMATFIT
 70
3
  9
$DIMFRAC
 70
0
  9
$DIMLDRBLK
  1

  9
$DIMLUNIT
 70
2
  9
$DIMLWD
 70
-2
  9
$DIMLWE
 70
-2
  9
$DIMTMOVE
 70
0
  9
$DIMFXL
 40
1.0
  9
$DIMFXLON
 70
0
  9
$DIMJOGANG
 40
0.785398163397
  9
$DIMTFILL
 70
0
  9
$DIMTFILLCLR
 70
0
  9
$DIMARCSYM
 70
0
  9
$DIMLTYPE
  6

  9
$DIMLTEX1
  6

  9
$DIMLTEX2
  6

  9
$DIMTXTDIRECTION
 70
0
  9
$LUNITS
 70
2
  9
$LUPREC
 70
4
  9
$SKETCHINC
 40
1.0
  9
$FILLETRAD
 40
10.0
  9
$AUNITS
 70
0
  9
$AUPREC
 70
2
  9
$MENU
  1
.
  9
$ELEVATION
 40
0.0
  9
$PELEVATION
 40
0.0
  9
$THICKNESS
 40
0.0
  9
$LIMCHECK
 70
0
  9
$CHAMFERA
 40
0.0
  9
$CHAMFERB
 40
0.0
  9
$CHAMFERC
 40
0.0
  9
$CHAMFERD
 40
0.0
  9
$SKPOLY
 70
0
  9
$TDCREATE
 40
2460903.6121180556
  9
$TDUCREATE
 40
2458532.153996898
  9
$TDUPDATE
 40
2460903.6121180556
  9
$TDUUPDATE
 40
2458532.1544311
  9
$TDINDWG
 40
0.0
  9
$TDUSRTIMER
 40
0.0
  9
$USRTIMER
 70
1
  9
$ANGBASE
 50
0.0
  9
$ANGDIR
 70
0
  9
$PDMODE
 70
0
  9
$PDSIZE
 40
0.0
  9
$PLINEWID
 40
0.0
  9
$SPLFRAME
 70
0
  9
$SPLINETYPE
 70
6
  9
$SPLINESEGS
 70
8
  9
$HANDSEED
  5
50
  9
$SURFTAB1
 70
6
  9
$SURFTAB2
 70
6
  9
$SURFTYPE
 70
6
  9
$SURFU
 70
6
  9
$SURFV
 70
6
  9
$UCSBASE
  2

  9
$UCSNAME
  2

  9
$UCSORG
 10
0.0
 20
0.0
 30
0.0
  9
$UCSXDIR
 10
1.0
 20
0.0
 30
0.0
  9
$UCSYDIR
 10
0.0
 20
1.0
 30
0.0
  9
$UCSORTHOREF
  2

  9
$UCSORTHOVIEW
 70
0
  9
$UCSORGTOP
 10
0.0
 20
0.0
 30
0.0
  9
$UCSORGBOTTOM
 10
0.0
 20
0.0
 30
0.0
  9
$UCSORGLEFT
 10
0.0
 20
0.0
 30
0.0
  9
$UCSORGRIGHT
 10
0.0
 20
0.0
 30
0.0
  9
$UCSORGFRONT
 10
0.0
 20
0.0
 30
0.0
  9
$UCSORGBACK
 10
0.0
 20
0.0
 30
0.0
  9
$PUCSBASE
  2

  9
$PUCSNAME
  2

  9
$PUCSORG
 10
0.0
 20
0.0
 30
0.0
  9
$PUCSXDIR
 10
1.0
 20
0.0
 30
0.0
  9
$PUCSYDIR
 10
0.0
 20
1.0
 30
0.0
  9
$PUCSORTHOREF
  2

  9
$PUCSORTHOVIEW
 70
0
  9
$PUCSORGTOP
 10
0.0
 20
0.0
 30
0.0
  9
$PUCSORGBOTTOM
 10
0.0
 20
0.0
 30
0.0
  9
$PUCSORGLEFT
 10
0.0
 20
0.0
 30
0.0
  9
$PUCSORGRIGHT
 10
0.0
 20
0.0
 30
0.0
  9
$PUCSORGFRONT
 10
0.0
 20
0.0
 30
0.0
  9
$PUCSORGBACK
 10
0.0
 20
0.0
 30
0.0
  9
$USERI1
 70
0
  9
$USERI2
 70
0
  9
$USERI3
 70
0
  9
$USERI4
 70
0
  9
$USERI5
 70
0
  9
$USERR1
 40
0.0
  9
$USERR2
 40
0.0
  9
$USERR3
 40
0.0
  9
$USERR4
 40
0.0
  9
$USERR5
 40
0.0
  9
$WORLDVIEW
 70
1
  9
$SHADEDGE
 70
3
  9
$SHADEDIF
 70
70
  9
$TILEMODE
 70
1
  9
$MAXACTVP
 70
64
  9
$PINSBASE
 10
0.0
 20
0.0
 30
0.0
  9
$PLIMCHECK
 70
0
  9
$PEXTMIN
 10
1e+20
 20
1e+20
 30
1e+20
  9
$PEXTMAX
 10
-1e+20
 20
-1e+20
 30
-1e+20
  9
$PLIMMIN
 10
0.0
 20
0.0
  9
$PLIMMAX
 10
420.0
 20
297.0
  9
$UNITMODE
 70
0
  9
$VISRETAIN
 70
1
  9
$PLINEGEN
 70
0
  9
$PSLTSCALE
 70
1
  9
$TREEDEPTH
 70
3020
  9
$CMLSTYLE
  2
Standard
  9
$CMLJUST
 70
0
  9
$CMLSCALE
 40
20.0
  9
$PROXYGRAPHICS
 70
1
  9
$MEASUREMENT
 70
1
  9
$CELWEIGHT
370
-1
  9
$ENDCAPS
280
0
  9
$JOINSTYLE
280
0
  9
$LWDISPLAY
290
0
  9
$INSUNITS
 70
4
  9
$HYPERLINKBASE
  1

  9
$STYLESHEET
  1

  9
$XEDIT
290
1
  9
$CEPSNTYPE
380
0
  9
$PSTYLEMODE
290
1
  9
$FINGERPRINTGUID
  2
{FEC89DA2-6EF6-46C7-A14B-06C03A9459BD}
  9
$VERSIONGUID
  2
{C83C4725-67D1-456B-B401-4BA1464642DD}
  9
$EXTNAMES
290
1
  9
$PSVPSCALE
 40
0.0
  9
$OLESTARTUP
290
0
  9
$SORTENTS
280
127
  9
$INDEXCTL
280
0
  9
$HIDETEXT
280
1
  9
$XCLIPFRAME
280
1
  9
$HALOGAP
280
0
  9
$OBSCOLOR
 70
257
  9
$OBSLTYPE
280
0
  9
$INTERSECTIONDISPLAY
280
0
  9
$INTERSECTIONCOLOR
 70
257
  9
$DIMASSOC
280
2
  9
$PROJECTNAME
  1

  9
$CAMERADISPLAY
290
0
  9
$LENSLENGTH
 40
50.0
  9
$CAMERAHEIGHT
 40
0.0
  9
$STEPSPERSEC
 40
24.0
  9
$STEPSIZE
 40
100.0
  9
$3DDWFPREC
 40
2.0
  9
$PSOLWIDTH
 40
0.005
  9
$PSOLHEIGHT
 40
0.08
  9
$LOFTANG1
 40
1.570796326795
  9
$LOFTANG2
 40
1.570796326795
  9
$LOFTMAG1
 40
0.0
  9
$LOFTMAG2
 40
0.0
  9
$LOFTPARAM
 70
7
  9
$LOFTNORMALS
280
1
  9
$LATITUDE
 40
37.795
  9
$LONGITUDE
 40
-122.394
  9
$NORTHDIRECTION
 40
0.0
  9
$TIMEZONE
 70
-8000
  9
$LIGHTGLYPHDISPLAY
280
1
  9
$TILEMODELIGHTSYNCH
280
1
  9
$CMATERIAL
347
20
  9
$SOLIDHIST
280
0
  9
$SHOWHIST
280
1
  9
$DWFFRAME
280
2
  9
$DGNFRAME
280
2
  9
$REALWORLDSCALE
290
1
  9
$INTERFERECOLOR
 62
256
  9
$CSHADOW
280
0
  9
$SHADOWPLANELOCATION
 40
0.0
  0
ENDSEC
  0
SECTION
  2
CLASSES
  0
CLASS
  1
ACDBDICTIONARYWDFLT
  2
AcDbDictionaryWithDefault
  3
ObjectDBX Classes
 90
0
 91
0
280
0
281
0
  0
CLASS
  1
SUN
  2
AcDbSun
  3
SCENEOE
 90
1153
 91
0
280
0
281
0
  0
CLASS
  1
VISUALSTYLE
  2
AcDbVisualStyle
  3
ObjectDBX Classes
 90
4095
 91
0
280
0
281
0
  0
CLASS
  1
MATERIAL
  2
AcDbMaterial
  3
ObjectDBX Classes
 90
1153
 91
0
280
0
281
0
  0
CLASS
  1
SCALE
  2
AcDbScale
  3
ObjectDBX Classes
 90
1153
 91
0
280
0
281
0
  0
CLASS
  1
TABLESTYLE
  2
AcDbTableStyle
  3
ObjectDBX Classes
 90
4095
 91
0
280
0
281
0
  0
CLASS
  1
MLEADERSTYLE
  2
AcDbMLeaderStyle
  3
ACDB_MLEADERSTYLE_CLASS
 90
4095
 91
0
280
0
281
0
  0
CLASS
  1
DICTIONARYVAR
  2
AcDbDictionaryVar
  3
ObjectDBX Classes
 90
0
 91
0
280
0
281
0
  0
CLASS
  1
CELLSTYLEMAP
  2
AcDbCellStyleMap
  3
ObjectDBX Classes
 90
1152
 91
0
280
0
281
0
  0
CLASS
  1
MENTALRAYRENDERSETTINGS
  2
AcDbMentalRayRenderSettings
  3
SCENEOE
 90
1024
 91
0
280
0
281
0
  0
CLASS
  1
ACDBDETAILVIEWSTYLE
  2
AcDbDetailViewStyle
  3
ObjectDBX Classes
 90
1025
 91
0
280
0
281
0
  0
CLASS
  1
ACDBSECTIONVIEWSTYLE
  2
AcDbSectionViewStyle
  3
ObjectDBX Classes
 90
1025
 91
0
280
0
281
0
  0
CLASS
  1
RASTERVARIABLES
  2
AcDbRasterVariables
  3
ISM
 90
0
 91
0
280
0
281
0
  0
CLASS
  1
LAYOUT
  2
AcDbLayout
  3
ObjectDBX Classes
 90
0
 91
0
280
0
281
0
  0
CLASS
  1
ACDBPLACEHOLDER
  2
AcDbPlaceHolder
  3
ObjectDBX Classes
 90
0
 91
0
280
0
281
0
  0
ENDSEC
  0
SECTION
  2
TABLES
  0
TABLE
  2
VPORT
  5
8
330
0
100
AcDbSymbolTable
 70
1
  0
VPORT
  5
23
330
8
100
AcDbSymbolTableRecord
100
AcDbViewportTableRecord
  2
*Active
 70
0
 10
0.0
 20
0.0
 11
1.0
 21
1.0
 12
0.0
 22
0.0
 13
0.0
 23
0.0
 14
0.5
 24
0.5
 15
0.5
 25
0.5
 16
0.0
 26
0.0
 36
1.0
 17
0.0
 27
0.0
 37
0.0
 40
1000.0
 41
1.34
 42
50.0
 43
0.0
 44
0.0
 50
0.0
 51
0.0
 71
0
 72
1000
 73
1
 74
3
 75
0
 76
0
 77
0
 78
0
281
0
 65
0
146
0.0
  0
ENDTAB
  0
TABLE
  2
LTYPE
  5
2
330
0
100
AcDbSymbolTable
 70
3
  0
LTYPE
  5
24
330
2
100
AcDbSymbolTableRecord
100
AcDbLinetypeTableRecord
  2
ByBlock
 70
0
  3

 72
65
 73
0
 40
0.0
  0
LTYPE
  5
25
330
2
100
AcDbSymbolTableRecord
100
AcDbLinetypeTableRecord
  2
ByLayer
 70
0
  3

 72
65
 73
0
 40
0.0
  0
LTYPE
  5
26
330
2
100
AcDbSymbolTableRecord
100
AcDbLinetypeTableRecord
  2
Continuous
 70
0
  3

 72
65
 73
0
 40
0.0
  0
ENDTAB
  0
TABLE
  2
LAYER
  5
1
330
0
100
AcDbSymbolTable
 70
2
  0
LAYER
  5
27
330
1
100
AcDbSymbolTableRecord
100
AcDbLayerTableRecord
  2
0
 70
0
 62
7
  6
Continuous
370
-3
390
13
347
21
  0
LAYER
  5
28
330
1
100
AcDbSymbolTableRecord
100
AcDbLayerTableRecord
  2
Defpoints
 70
0
 62
7
  6
Continuous
290
0
370
-3
390
13
347
21
  0
ENDTAB
  0
TABLE
  2
STYLE
  5
5
330
0
100
AcDbSymbolTable
 70
1
  0
STYLE
  5
29
330
5
100
AcDbSymbolTableRecord
100
AcDbTextStyleTableRecord
  2
Standard
 70
0
 40
0.0
 41
1.0
 50
0.0
 71
0
 42
2.5
  3
txt
  4

  0
ENDTAB
  0
TABLE
  2
VIEW
  5
7
330
0
100
AcDbSymbolTable
 70
0
  0
ENDTAB
  0
TABLE
  2
UCS
  5
6
330
0
100
AcDbSymbolTable
 70
0
  0
ENDTAB
  0
TABLE
  2
APPID
  5
3
330
0
100
AcDbSymbolTable
 70
3
  0
APPID
  5
2A
330
3
100
AcDbSymbolTableRecord
100
AcDbRegAppTableRecord
  2
ACAD
 70
0
  0
APPID
  5
4D
330
3
100
AcDbSymbolTableRecord
100
AcDbRegAppTableRecord
  2
HATCHBACKGROUNDCOLOR
 70
0
  0
APPID
  5
4E
330
3
100
AcDbSymbolTableRecord
100
AcDbRegAppTableRecord
  2
EZDXF
 70
0
  0
ENDTAB
  0
TABLE
  2
DIMSTYLE
  5
4
330
0
100
AcDbSymbolTable
 70
1
100
AcDbDimStyleTable
  0
DIMSTYLE
105
2B
330
4
100
AcDbSymbolTableRecord
100
AcDbDimStyleTableRecord
  2
Standard
 70
0
 40
1.0
 41
2.5
 42
0.625
 43
3.75
 44
1.25
 45
0.0
 46
0.0
 47
0.0
 48
0.0
 49
2.5
140
2.5
141
2.5
142
0.0
143
0.03937007874
144
1.0
145
0.0
146
1.0
147
0.625
148
0.0
 69
0
 70
0
 71
0
 72
0
 73
0
 74
0
 75
0
 76
0
 77
1
 78
8
 79
3
170
0
171
3
172
1
173
0
174
0
175
0
176
0
177
0
178
0
179
2
271
2
272
2
273
2
274
3
275
0
276
0
277
2
278
44
279
0
280
0
281
0
282
0
283
0
284
8
285
0
286
0
288
0
289
3
290
0
371
-2
372
-2
  0
ENDTAB
  0
TABLE
  2
BLOCK_RECORD
  5
9
330
0
100
AcDbSymbolTable
 70
2
  0
BLOCK_RECORD
  5
17
330
9
100
AcDbSymbolTableRecord
100
AcDbBlockTableRecord
  2
*Model_Space
340
1A
 70
0
280
1
281
0
  0
BLOCK_RECORD
  5
1B
330
9
100
AcDbSymbolTableRecord
100
AcDbBlockTableRecord
  2
*Paper_Space
340
1E
 70
0
280
1
281
0
  0
ENDTAB
  0
ENDSEC
  0
SECTION
  2
BLOCKS
  0
BLOCK
  5
18
330
17
100
AcDbEntity
  8
0
100
AcDbBlockBegin
  2
*Model_Space
 70
0
 10
0.0
 20
0.0
 30
0.0
  3
*Model_Space
  1

  0
ENDBLK
  5
19
330
17
100
AcDbEntity
  8
0
100
AcDbBlockEnd
  0
BLOCK
  5
1C
330
1B
100
AcDbEntity
  8
0
100
AcDbBlockBegin
  2
*Paper_Space
 70
0
 10
0.0
 20
0.0
 30
0.0
  3
*Paper_Space
  1

  0
ENDBLK
  5
1D
330
1B
100
AcDbEntity
  8
0
100
AcDbBlockEnd
  0
ENDSEC
  0
SECTION
  2
ENTITIES
  0
LWPOLYLINE
  5
2F
330
17
100
AcDbEntity
  8
SHEET_BOUNDARY
 62
1
100
AcDbPolyline
 90
5
 70
0
 10
0.0
 20
0.0
 10
2000.0
 20
0.0
 10
2000.0
 20
1400.0
 10
0.0
 20
1400.0
 10
0.0
 20
0.0
  0
SPLINE
  5
30
330
17
100
AcDbEntity
  8
test_original_spline_layer 1
 62
250
370
9
100
AcDbSpline
 70
8
 71
3
 72
20
 73
16
 74
0
 42
1e-09
 40
0.0
 40
0.0
 40
0.0
 40
0.0
 40
0.2
 40
0.2
 40
0.2
 40
0.2
 40
0.4
 40
0.4
 40
0.4
 40
0.4
 40
0.6
 40
0.6
 40
0.6
 40
0.6
 40
1.0
 40
1.0
 40
1.0
 40
1.0
 10
168.75900000000001
 20
270.01610000000005
 30
0.0
 10
168.75900000000001
 20
270.01610000000005
 30
0.0
 10
168.75900000000001
 20
294.97399999999993
 30
0.0
 10
168.75900000000001
 20
294.97399999999993
 30
0.0
 10
168.75900000000001
 20
294.97399999999993
 30
0.0
 10
168.75900000000001
 20
294.97399999999993
 30
0.0
 10
177.6841
 20
270.01610000000005
 30
0.0
 10
177.6841
 20
270.01610000000005
 30
0.0
 10
177.6841
 20
270.01610000000005
 30
0.0
 10
177.6841
 20
270.01610000000005
 30
0.0
 10
186.44400000000002
 20
294.97350000000006
 30
0.0
 10
186.44400000000002
 20
294.97350000000006
 30
0.0
 10
186.44400000000002
 20
294.97350000000006
 30
0.0
 10
186.44400000000002
 20
294.97350000000006
 30
0.0
 10
186.44400000000002
 20
270.01610000000005
 30
0.0
 10
186.44400000000002
 20
270.01610000000005
 30
0.0
  0
SPLINE
  5
31
330
17
100
AcDbEntity
  8
test_original_spline_layer 1
 62
250
370
9
100
AcDbSpline
 70
24
 71
3
 72
8
 73
4
 74
0
 42
1e-09
 40
0.0
 40
0.0
 40
0.0
 40
0.0
 40
1.0
 40
1.0
 40
1.0
 40
1.0
 10
154.0174
 20
294.97180000000003
 30
0.0
 10
154.0174
 20
294.97180000000003
 30
0.0
 10
161.1855
 20
294.97180000000003
 30
0.0
 10
161.1855
 20
294.97180000000003
 30
0.0
  0
SPLINE
  5
32
330
17
100
AcDbEntity
  8
test_original_spline_layer 1
 62
250
370
9
100
AcDbSpline
 70
24
 71
3
 72
8
 73
4
 74
0
 42
1e-09
 40
0.0
 40
0.0
 40
0.0
 40
0.0
 40
1.0
 40
1.0
 40
1.0
 40
1.0
 10
154.0174
 20
270.01829999999995
 30
0.0
 10
154.0174
 20
270.01829999999995
 30
0.0
 10
161.1855
 20
270.01829999999995
 30
0.0
 10
161.1855
 20
270.01829999999995
 30
0.0
  0
SPLINE
  5
33
330
17
100
AcDbEntity
  8
test_original_spline_layer 1
 62
250
370
9
100
AcDbSpline
 70
24
 71
3
 72
8
 73
4
 74
0
 42
1e-09
 40
0.0
 40
0.0
 40
0.0
 40
0.0
 40
1.0
 40
1.0
 40
1.0
 40
1.0
 10
157.6014
 20
294.97180000000003
 30
0.0
 10
157.6014
 20
294.97180000000003
 30
0.0
 10
157.6014
 20
270.01829999999995
 30
0.0
 10
157.6014
 20
270.01829999999995
 30
0.0
  0
SPLINE
  5
34
330
17
100
AcDbEntity
  8
test_original_spline_layer 1
 62
250
370
9
100
AcDbSpline
 70
8
 71
3
 72
16
 73
12
 74
0
 42
1e-09
 40
0.0
 40
0.0
 40
0.0
 40
0.0
 40
0.25
 40
0.25
 40
0.25
 40
0.25
 40
0.5
 40
0.5
 40
0.5
 40
0.5
 40
1.0
 40
1.0
 40
1.0
 40
1.0
 10
144.8988
 20
270.0163
 30
0.0
 10
144.8988
 20
270.0163
 30
0.0
 10
130.27980000000002
 20
270.0163
 30
0.0
 10
130.27980000000002
 20
270.0163
 30
0.0
 10
130.27980000000002
 20
270.0163
 30
0.0
 10
130.27980000000002
 20
270.0163
 30
0.0
 10
144.92309999999998
 20
294.9737
 30
0.0
 10
144.92309999999998
 20
294.9737
 30
0.0
 10
144.92309999999998
 20
294.9737
 30
0.0
 10
144.92309999999998
 20
294.9737
 30
0.0
 10
130.27980000000002
 20
294.9737
 30
0.0
 10
130.27980000000002
 20
294.9737
 30
0.0
  0
SPLINE
  5
35
330
17
100
AcDbEntity
  8
test_original_spline_layer 1
 62
250
370
9
100
AcDbSpline
 70
8
 71
3
 72
12
 73
8
 74
0
 42
1e-09
 40
0.0
 40
0.0
 40
0.0
 40
0.0
 40
0.3333333333333333
 40
0.3333333333333333
 40
0.3333333333333333
 40
0.3333333333333333
 40
1.0
 40
1.0
 40
1.0
 40
1.0
 10
110.13099999999997
 20
270.01829999999995
 30
0.0
 10
110.13099999999997
 20
270.01829999999995
 30
0.0
 10
117.50200000000001
 20
294.97180000000003
 30
0.0
 10
117.50200000000001
 20
294.97180000000003
 30
0.0
 10
117.50200000000001
 20
294.97180000000003
 30
0.0
 10
117.50200000000001
 20
294.97180000000003
 30
0.0
 10
125.07190000000003
 20
270.01829999999995
 30
0.0
 10
125.07190000000003
 20
270.01829999999995
 30
0.0
  0
SPLINE
  5
36
330
17
100
AcDbEntity
  8
test_original_spline_layer 1
 62
250
370
9
100
AcDbSpline
 70
24
 71
3
 72
8
 73
4
 74
0
 42
1e-09
 40
0.0
 40
0.0
 40
0.0
 40
0.0
 40
1.0
 40
1.0
 40
1.0
 40
1.0
 10
112.85360000000003
 20
279.2677000000001
 30
0.0
 10
112.85360000000003
 20
279.2677000000001
 30
0.0
 10
122.34929999999997
 20
279.2677000000001
 30
0.0
 10
122.34929999999997
 20
279.2677000000001
 30
0.0
  0
SPLINE
  5
37
330
17
100
AcDbEntity
  8
test_original_spline_layer 1
 62
250
370
9
100
AcDbSpline
 70
8
 71
3
 72
24
 73
20
 74
0
 42
1e-09
 40
0.0
 40
0.0
 40
0.0
 40
0.0
 40
0.1666666666666667
 40
0.1666666666666667
 40
0.1666666666666667
 40
0.1666666666666667
 40
0.3333333333333333
 40
0.3333333333333333
 40
0.3333333333333333
 40
0.3333333333333333
 40
0.5
 40
0.5
 40
0.5
 40
0.5
 40
0.6666666666666666
 40
0.6666666666666666
 40
0.6666666666666666
 40
0.6666666666666666
 40
1.0
 40
1.0
 40
1.0
 40
1.0
 10
206.9287
 20
294.9760000000001
 30
0.0
 10
206.92829999999998
 20
289.4365
 30
0.0
 10
207.02409999999998
 20
279.2347
 30
0.0
 10
207.0245
 20
273.6943000000001
 30
0.0
 10
207.0245
 20
273.6943000000001
 30
0.0
 10
206.8847
 20
271.4548
 30
0.0
 10
205.20749999999998
 20
270.0286000000001
 30
0.0
 10
203.0598
 20
270.0181
 30
0.0
 10
203.0598
 20
270.0181
 30
0.0
 10
200.72789999999998
 20
270.01850000000013
 30
0.0
 10
198.39600000000002
 20
270.01850000000013
 30
0.0
 10
196.0645
 20
270.0181
 30
0.0
 10
196.0645
 20
270.0181
 30
0.0
 10
194.1395
 20
269.9166
 30
0.0
 10
192.1674
 20
271.7330999999999
 30
0.0
 10
192.17860000000002
 20
273.6776
 30
0.0
 10
192.17860000000002
 20
273.6776
 30
0.0
 10
192.1789
 20
279.23950000000013
 30
0.0
 10
192.27429999999998
 20
289.4149
 30
0.0
 10
192.27389999999997
 20
294.9760000000001
 30
0.0
  0
SPLINE
  5
38
330
17
100
AcDbEntity
  8
test_original_spline_layer 1
 62
250
370
9
100
AcDbSpline
 70
24
 71
3
 72
8
 73
4
 74
0
 42
1e-09
 40
0.0
 40
0.0
 40
0.0
 40
0.0
 40
1.0
 40
1.0
 40
1.0
 40
1.0
 10
211.10789999999997
 20
294.9483
 30
0.0
 10
211.10789999999997
 20
294.9483
 30
0.0
 10
228.0951
 20
294.9483
 30
0.0
 10
228.0951
 20
294.9483
 30
0.0
  0
SPLINE
  5
39
330
17
100
AcDbEntity
  8
test_original_spline_layer 1
 62
250
370
9
100
AcDbSpline
 70
24
 71
3
 72
8
 73
4
 74
0
 42
1e-09
 40
0.0
 40
0.0
 40
0.0
 40
0.0
 40
1.0
 40
1.0
 40
1.0
 40
1.0
 10
219.6017
 20
270.01829999999995
 30
0.0
 10
219.6017
 20
270.01829999999995
 30
0.0
 10
219.6017
 20
294.97180000000003
 30
0.0
 10
219.6017
 20
294.97180000000003
 30
0.0
  0
SPLINE
  5
3A
330
17
100
AcDbEntity
  8
test_original_spline_layer 1
 62
250
370
9
100
AcDbSpline
 70
8
 71
3
 72
52
 73
48
 74
0
 42
1e-09
 40
0.0
 40
0.0
 40
0.0
 40
0.0
 40
0.0769230769230769
 40
0.0769230769230769
 40
0.0769230769230769
 40
0.0769230769230769
 40
0.1538461538461539
 40
0.1538461538461539
 40
0.1538461538461539
 40
0.1538461538461539
 40
0.2307692307692308
 40
0.2307692307692308
 40
0.2307692307692308
 40
0.2307692307692308
 40
0.3076923076923077
 40
0.3076923076923077
 40
0.3076923076923077
 40
0.3076923076923077
 40
0.3846153846153846
 40
0.3846153846153846
 40
0.3846153846153846
 40
0.3846153846153846
 40
0.4615384615384616
 40
0.4615384615384616
 40
0.4615384615384616
 40
0.4615384615384616
 40
0.5384615384615384
 40
0.5384615384615384
 40
0.5384615384615384
 40
0.5384615384615384
 40
0.6153846153846154
 40
0.6153846153846154
 40
0.6153846153846154
 40
0.6153846153846154
 40
0.6923076923076923
 40
0.6923076923076923
 40
0.6923076923076923
 40
0.6923076923076923
 40
0.7692307692307693
 40
0.7692307692307693
 40
0.7692307692307693
 40
0.7692307692307693
 40
0.8461538461538461
 40
0.8461538461538461
 40
0.8461538461538461
 40
0.8461538461538461
 40
1.0
 40
1.0
 40
1.0
 40
1.0
 10
390.1241
 20
290.04330000000004
 30
0.0
 10
390.1241
 20
290.04330000000004
 30
0.0
 10
390.1241
 20
291.90049999999997
 30
0.0
 10
390.1241
 20
291.90049999999997
 30
0.0
 10
390.1241
 20
291.90049999999997
 30
0.0
 10
390.10979999999995
 20
293.64239999999995
 30
0.0
 10
392.77430000000004
 20
295.7605000000001
 30
0.0
 10
394.8334
 20
295.7378000000001
 30
0.0
 10
394.8334
 20
295.7378000000001
 30
0.0
 10
396.89750000000004
 20
295.7378000000001
 30
0.0
 10
398.9615
 20
295.7378000000001
 30
0.0
 10
401.02520000000004
 20
295.7378000000001
 30
0.0
 10
401.02520000000004
 20
295.7378000000001
 30
0.0
 10
403.2197
 20
295.74659999999994
 30
0.0
 10
404.818
 20
293.8997999999999
 30
0.0
 10
404.8624
 20
291.98770000000013
 30
0.0
 10
404.8624
 20
291.98770000000013
 30
0.0
 10
404.86199999999997
 20
290.5526
 30
0.0
 10
404.86199999999997
 20
289.11750000000006
 30
0.0
 10
404.8624
 20
287.682
 30
0.0
 10
404.8624
 20
287.682
 30
0.0
 10
404.8138
 20
286.0285000000001
 30
0.0
 10
403.21119999999996
 20
283.7985000000001
 30
0.0
 10
401.01289999999995
 20
283.8085000000001
 30
0.0
 10
401.01289999999995
 20
283.8085000000001
 30
0.0
 10
403.21659999999997
 20
283.79729999999995
 30
0.0
 10
404.82460000000003
 20
281.9941000000001
 30
0.0
 10
404.8786
 20
279.93460000000005
 30
0.0
 10
404.8786
 20
279.93460000000005
 30
0.0
 10
404.8782
 20
278.1499000000001
 30
0.0
 10
404.8782
 20
276.36519999999996
 30
0.0
 10
404.8786
 20
274.58010000000013
 30
0.0
 10
404.8786
 20
274.58010000000013
 30
0.0
 10
404.8887
 20
272.5187000000001
 30
0.0
 10
402.8338
 20
270.75559999999996
 30
0.0
 10
401.01289999999995
 20
270.7637
 30
0.0
 10
401.01289999999995
 20
270.7637
 30
0.0
 10
398.94759999999997
 20
270.7640000000001
 30
0.0
 10
396.88239999999996
 20
270.7640000000001
 30
0.0
 10
394.81680000000006
 20
270.7637
 30
0.0
 10
394.81680000000006
 20
270.7637
 30
0.0
 10
392.6482
 20
270.77520000000004
 30
0.0
 10
390.1172
 20
273.1754000000001
 30
0.0
 10
390.09860000000003
 20
274.6372000000001
 30
0.0
 10
390.09860000000003
 20
274.6372000000001
 30
0.0
 10
390.09860000000003
 20
274.6372000000001
 30
0.0
 10
390.09860000000003
 20
276.5458000000001
 30
0.0
 10
390.09860000000003
 20
276.5458000000001
 30
0.0
  0
SPLINE
  5
3B
330
17
100
AcDbEntity
  8
test_original_spline_layer 1
 62
250
370
9
100
AcDbSpline
 70
24
 71
3
 72
8
 73
4
 74
0
 42
1e-09
 40
0.0
 40
0.0
 40
0.0
 40
0.0
 40
1.0
 40
1.0
 40
1.0
 40
1.0
 10
394.8338
 20
283.7981
 30
0.0
 10
394.8338
 20
283.7981
 30
0.0
 10
401.0301999999999
 20
283.7981
 30
0.0
 10
401.0301999999999
 20
283.7981
 30
0.0
  0
SPLINE
  5
3C
330
17
100
AcDbEntity
  8
test_original_spline_layer 1
 62
250
370
9
100
AcDbSpline
 70
11
 71
3
 72
36
 73
32
 74
0
 42
1e-09
 40
0.0
 40
0.0
 40
0.0
 40
0.0
 40
0.1111111111111111
 40
0.1111111111111111
 40
0.1111111111111111
 40
0.1111111111111111
 40
0.2222222222222222
 40
0.2222222222222222
 40
0.2222222222222222
 40
0.2222222222222222
 40
0.3333333333333333
 40
0.3333333333333333
 40
0.3333333333333333
 40
0.3333333333333333
 40
0.4444444444444444
 40
0.4444444444444444
 40
0.4444444444444444
 40
0.4444444444444444
 40
0.5555555555555556
 40
0.5555555555555556
 40
0.5555555555555556
 40
0.5555555555555556
 40
0.6666666666666666
 40
0.6666666666666666
 40
0.6666666666666666
 40
0.6666666666666666
 40
0.7777777777777778
 40
0.7777777777777778
 40
0.7777777777777778
 40
0.7777777777777778
 40
1.0
 40
1.0
 40
1.0
 40
1.0
 10
409.015
 20
281.74469999999997
 30
0.0
 10
409.015
 20
278.5739000000001
 30
0.0
 10
409.015
 20
276.8718000000001
 30
0.0
 10
409.015
 20
273.70039999999995
 30
0.0
 10
409.015
 20
273.70039999999995
 30
0.0
 10
409.00649999999996
 20
272.47849999999994
 30
0.0
 10
410.70439999999996
 20
270.7858000000001
 30
0.0
 10
411.957
 20
270.77729999999997
 30
0.0
 10
411.957
 20
270.77729999999997
 30
0.0
 10
414.94010000000003
 20
270.7776000000001
 30
0.0
 10
417.9234
 20
270.7776000000001
 30
0.0
 10
420.9068
 20
270.77729999999997
 30
0.0
 10
420.9068
 20
270.77729999999997
 30
0.0
 10
422.2301
 20
270.789
 30
0.0
 10
423.8505
 20
272.41059999999993
 30
0.0
 10
423.83939999999996
 20
273.7098000000001
 30
0.0
 10
423.83939999999996
 20
273.7098000000001
 30
0.0
 10
423.83910000000003
 20
276.87799999999993
 30
0.0
 10
423.83910000000003
 20
278.57680000000005
 30
0.0
 10
423.83939999999996
 20
281.74469999999997
 30
0.0
 10
423.83939999999996
 20
281.74469999999997
 30
0.0
 10
423.76970000000006
 20
283.1251
 30
0.0
 10
422.19190000000003
 20
284.7037
 30
0.0
 10
420.88649999999996
 20
284.69759999999997
 30
0.0
 10
420.88649999999996
 20
284.69759999999997
 30
0.0
 10
417.9099
 20
284.69730000000004
 30
0.0
 10
414.93330000000003
 20
284.69730000000004
 30
0.0
 10
411.957
 20
284.69759999999997
 30
0.0
 10
411.957
 20
284.69759999999997
 30
0.0
 10
410.87750000000005
 20
284.70399999999995
 30
0.0
 10
409.0312
 20
283.1251
 30
0.0
 10
409.015
 20
281.74469999999997
 30
0.0
  0
SPLINE
  5
3D
330
17
100
AcDbEntity
  8
test_original_spline_layer 1
 62
250
370
9
100
AcDbSpline
 70
11
 71
3
 72
36
 73
32
 74
0
 42
1e-09
 40
0.0
 40
0.0
 40
0.0
 40
0.0
 40
0.1111111111111111
 40
0.1111111111111111
 40
0.1111111111111111
 40
0.1111111111111111
 40
0.2222222222222222
 40
0.2222222222222222
 40
0.2222222222222222
 40
0.2222222222222222
 40
0.3333333333333333
 40
0.3333333333333333
 40
0.3333333333333333
 40
0.3333333333333333
 40
0.4444444444444444
 40
0.4444444444444444
 40
0.4444444444444444
 40
0.4444444444444444
 40
0.5555555555555556
 40
0.5555555555555556
 40
0.5555555555555556
 40
0.5555555555555556
 40
0.6666666666666666
 40
0.6666666666666666
 40
0.6666666666666666
 40
0.6666666666666666
 40
0.7777777777777778
 40
0.7777777777777778
 40
0.7777777777777778
 40
0.7777777777777778
 40
1.0
 40
1.0
 40
1.0
 40
1.0
 10
410.4738
 20
294.26289999999995
 30
0.0
 10
410.4738
 20
292.0499
 30
0.0
 10
410.4738
 20
288.36760000000004
 30
0.0
 10
410.4738
 20
286.1542999999999
 30
0.0
 10
410.4738
 20
286.1542999999999
 30
0.0
 10
410.48879999999997
 20
285.64689999999996
 30
0.0
 10
411.2962
 20
284.7155
 30
0.0
 10
411.9963
 20
284.71669999999995
 30
0.0
 10
411.9963
 20
284.71669999999995
 30
0.0
 10
414.96619999999996
 20
284.7169000000001
 30
0.0
 10
417.93640000000005
 20
284.63200000000006
 30
0.0
 10
420.9068
 20
284.63170000000014
 30
0.0
 10
420.9068
 20
284.63170000000014
 30
0.0
 10
421.7039
 20
284.6359
 30
0.0
 10
422.42460000000005
 20
285.4262000000001
 30
0.0
 10
422.422
 20
286.14689999999996
 30
0.0
 10
422.422
 20
286.14689999999996
 30
0.0
 10
422.4217
 20
288.3629000000001
 30
0.0
 10
422.4217
 20
292.0476000000001
 30
0.0
 10
422.422
 20
294.26289999999995
 30
0.0
 10
422.422
 20
294.26289999999995
 30
0.0
 10
422.4035
 20
294.9737
 30
0.0
 10
421.7921
 20
295.7341000000001
 30
0.0
 10
420.95820000000003
 20
295.72669999999994
 30
0.0
 10
420.95820000000003
 20
295.72669999999994
 30
0.0
 10
417.9411
 20
295.7264
 30
0.0
 10
414.9241999999999
 20
295.7264
 30
0.0
 10
411.9076
 20
295.72669999999994
 30
0.0
 10
411.9076
 20
295.72669999999994
 30
0.0
 10
411.2812
 20
295.7343000000001
 30
0.0
 10
410.45709999999997
 20
295.02330000000006
 30
0.0
 10
410.4738
 20
294.26289999999995
 30
0.0
  0
SPLINE
  5
3E
330
17
100
AcDbEntity
  8
test_original_spline_layer 1
 62
250
370
9
100
AcDbSpline
 70
8
 71
3
 72
32
 73
28
 74
0
 42
1e-09
 40
0.0
 40
0.0
 40
0.0
 40
0.0
 40
0.125
 40
0.125
 40
0.125
 40
0.125
 40
0.25
 40
0.25
 40
0.25
 40
0.25
 40
0.375
 40
0.375
 40
0.375
 40
0.375
 40
0.5
 40
0.5
 40
0.5
 40
0.5
 40
0.625
 40
0.625
 40
0.625
 40
0.625
 40
0.75
 40
0.75
 40
0.75
 40
0.75
 40
1.0
 40
1.0
 40
1.0
 40
1.0
 10
304.2694
 20
270.01829999999995
 30
0.0
 10
304.2694
 20
270.01829999999995
 30
0.0
 10
304.2694
 20
294.97180000000003
 30
0.0
 10
304.2694
 20
294.97180000000003
 30
0.0
 10
304.2694
 20
294.97180000000003
 30
0.0
 10
307.8642
 20
294.97180000000003
 30
0.0
 10
311.4597
 20
294.97180000000003
 30
0.0
 10
315.0549
 20
294.97180000000003
 30
0.0
 10
315.0549
 20
294.97180000000003
 30
0.0
 10
317.38019999999995
 20
294.93409999999994
 30
0.0
 10
318.9375
 20
293.44409999999993
 30
0.0
 10
318.9334
 20
291.07770000000005
 30
0.0
 10
318.9334
 20
291.07770000000005
 30
0.0
 10
318.933
 20
289.0422000000001
 30
0.0
 10
318.933
 20
285.9828
 30
0.0
 10
318.9334
 20
283.94679999999994
 30
0.0
 10
318.9334
 20
283.94679999999994
 30
0.0
 10
318.92689999999993
 20
282.07130000000006
 30
0.0
 10
317.1146
 20
280.1295
 30
0.0
 10
315.1051
 20
280.1104
 30
0.0
 10
315.1051
 20
280.1104
 30
0.0
 10
315.1051
 20
280.1104
 30
0.0
 10
304.2694
 20
280.1104
 30
0.0
 10
304.2694
 20
280.1104
 30
0.0
 10
304.2694
 20
280.1104
 30
0.0
 10
304.2694
 20
280.1104
 30
0.0
 10
318.92409999999995
 20
270.01829999999995
 30
0.0
 10
318.92409999999995
 20
270.01829999999995
 30
0.0
  0
SPLINE
  5
3F
330
17
100
AcDbEntity
  8
test_original_spline_layer 1
 62
250
370
9
100
AcDbSpline
 70
8
 71
3
 72
16
 73
12
 74
0
 42
1e-09
 40
0.0
 40
0.0
 40
0.0
 40
0.0
 40
0.25
 40
0.25
 40
0.25
 40
0.25
 40
0.5
 40
0.5
 40
0.5
 40
0.5
 40
1.0
 40
1.0
 40
1.0
 40
1.0
 10
255.04250000000002
 20
294.97180000000003
 30
0.0
 10
255.04250000000002
 20
294.97180000000003
 30
0.0
 10
242.16859999999997
 20
294.97180000000003
 30
0.0
 10
242.16859999999997
 20
294.97180000000003
 30
0.0
 10
242.16859999999997
 20
294.97180000000003
 30
0.0
 10
242.16859999999997
 20
294.97180000000003
 30
0.0
 10
242.16859999999997
 20
270.0182
 30
0.0
 10
242.16859999999997
 20
270.0182
 30
0.0
 10
242.16859999999997
 20
270.0182
 30
0.0
 10
242.16859999999997
 20
270.0182
 30
0.0
 10
257.0344
 20
270.0182
 30
0.0
 10
257.0344
 20
270.0182
 30
0.0
  0
SPLINE
  5
40
330
17
100
AcDbEntity
  8
test_original_spline_layer 1
 62
250
370
9
100
AcDbSpline
 70
24
 71
3
 72
8
 73
4
 74
0
 42
1e-09
 40
0.0
 40
0.0
 40
0.0
 40
0.0
 40
1.0
 40
1.0
 40
1.0
 40
1.0
 10
242.16859999999997
 20
283.0921000000001
 30
0.0
 10
242.16859999999997
 20
283.0921000000001
 30
0.0
 10
249.3367
 20
283.0921000000001
 30
0.0
 10
249.3367
 20
283.0921000000001
 30
0.0
  0
SPLINE
  5
41
330
17
100
AcDbEntity
  8
test_original_spline_layer 1
 62
250
370
9
100
AcDbSpline
 70
24
 71
3
 72
8
 73
4
 74
0
 42
1e-09
 40
0.0
 40
0.0
 40
0.0
 40
0.0
 40
1.0
 40
1.0
 40
1.0
 40
1.0
 10
359.2646
 20
295.7193
 30
0.0
 10
359.2646
 20
295.7193
 30
0.0
 10
376.2518
 20
295.7193
 30
0.0
 10
376.2518
 20
295.7193
 30
0.0
  0
SPLINE
  5
42
330
17
100
AcDbEntity
  8
test_original_spline_layer 1
 62
250
370
9
100
AcDbSpline
 70
24
 71
3
 72
8
 73
4
 74
0
 42
1e-09
 40
0.0
 40
0.0
 40
0.0
 40
0.0
 40
1.0
 40
1.0
 40
1.0
 40
1.0
 10
367.75839999999994
 20
270.7892999999999
 30
0.0
 10
367.75839999999994
 20
270.7892999999999
 30
0.0
 10
367.75839999999994
 20
295.7428
 30
0.0
 10
367.75839999999994
 20
295.7428
 30
0.0
  0
SPLINE
  5
43
330
17
100
AcDbEntity
  8
test_original_spline_layer 1
 62
250
370
9
100
AcDbSpline
 70
8
 71
3
 72
16
 73
12
 74
0
 42
1e-09
 40
0.0
 40
0.0
 40
0.0
 40
0.0
 40
0.25
 40
0.25
 40
0.25
 40
0.25
 40
0.5
 40
0.5
 40
0.5
 40
0.5
 40
1.0
 40
1.0
 40
1.0
 40
1.0
 10
347.7582
 20
283.2660000000001
 30
0.0
 10
343.5099
 20
284.7364
 30
0.0
 10
338.6018
 20
286.5322000000001
 30
0.0
 10
340.6069
 20
292.0525
 30
0.0
 10
340.6069
 20
292.0525
 30
0.0
 10
342.1104
 20
296.19240000000013
 30
0.0
 10
347.32399999999996
 20
295.8039000000001
 30
0.0
 10
350.9276
 20
295.2028
 30
0.0
 10
350.9276
 20
295.2028
 30
0.0
 10
353.78819999999996
 20
294.7256
 30
0.0
 10
354.65290000000005
 20
293.51240000000007
 30
0.0
 10
354.96349999999995
 20
291.42830000000004
 30
0.0
  0
SPLINE
  5
44
330
17
100
AcDbEntity
  8
test_original_spline_layer 1
 62
250
370
9
100
AcDbSpline
 70
8
 71
3
 72
16
 73
12
 74
0
 42
1e-09
 40
0.0
 40
0.0
 40
0.0
 40
0.0
 40
0.25
 40
0.25
 40
0.25
 40
0.25
 40
0.5
 40
0.5
 40
0.5
 40
0.5
 40
1.0
 40
1.0
 40
1.0
 40
1.0
 10
347.7582
 20
283.2659000000001
 30
0.0
 10
351.7768
 20
281.6192000000001
 30
0.0
 10
356.80629999999996
 20
279.7309
 30
0.0
 10
354.9723
 20
274.37059999999997
 30
0.0
 10
354.9723
 20
274.37059999999997
 30
0.0
 10
353.51250000000005
 20
270.1042
 30
0.0
 10
348.60169999999994
 20
270.36090000000013
 30
0.0
 10
344.87559999999996
 20
270.91560000000004
 30
0.0
 10
344.87559999999996
 20
270.91560000000004
 30
0.0
 10
342.12559999999996
 20
271.32539999999995
 30
0.0
 10
340.90470000000005
 20
272.5389
 30
0.0
 10
340.5267
 20
274.65110000000004
 30
0.0
  0
SPLINE
  5
45
330
17
100
AcDbEntity
  8
test_original_spline_layer 1
 62
250
370
9
100
AcDbSpline
 70
24
 71
3
 72
8
 73
4
 74
0
 42
1e-09
 40
0.0
 40
0.0
 40
0.0
 40
0.0
 40
1.0
 40
1.0
 40
1.0
 40
1.0
 10
276.9234
 20
294.97180000000003
 30
0.0
 10
276.9234
 20
294.97180000000003
 30
0.0
 10
269.60159999999996
 20
270.0182
 30
0.0
 10
269.60159999999996
 20
270.0182
 30
0.0
  0
SPLINE
  5
46
330
17
100
AcDbEntity
  8
test_original_spline_layer 1
 62
250
370
9
100
AcDbSpline
 70
24
 71
3
 72
8
 73
4
 74
0
 42
1e-09
 40
0.0
 40
0.0
 40
0.0
 40
0.0
 40
1.0
 40
1.0
 40
1.0
 40
1.0
 10
269.6015
 20
270.0182
 30
0.0
 10
269.6015
 20
270.0182
 30
0.0
 10
262.2797
 20
294.97180000000003
 30
0.0
 10
262.2797
 20
294.97180000000003
 30
0.0
  0
SPLINE
  5
47
330
17
100
AcDbEntity
  8
test_original_spline_layer 1
 62
250
370
9
100
AcDbSpline
 70
8
 71
3
 72
16
 73
12
 74
0
 42
1e-09
 40
0.0
 40
0.0
 40
0.0
 40
0.0
 40
0.25
 40
0.25
 40
0.25
 40
0.25
 40
0.5
 40
0.5
 40
0.5
 40
0.5
 40
1.0
 40
1.0
 40
1.0
 40
1.0
 10
297.0425
 20
294.97180000000003
 30
0.0
 10
297.0425
 20
294.97180000000003
 30
0.0
 10
284.16859999999997
 20
294.97180000000003
 30
0.0
 10
284.16859999999997
 20
294.97180000000003
 30
0.0
 10
284.16859999999997
 20
294.97180000000003
 30
0.0
 10
284.16859999999997
 20
294.97180000000003
 30
0.0
 10
284.16859999999997
 20
270.0182
 30
0.0
 10
284.16859999999997
 20
270.0182
 30
0.0
 10
284.16859999999997
 20
270.0182
 30
0.0
 10
284.16859999999997
 20
270.0182
 30
0.0
 10
299.0344
 20
270.0182
 30
0.0
 10
299.0344
 20
270.0182
 30
0.0
  0
SPLINE
  5
48
330
17
100
AcDbEntity
  8
test_original_spline_layer 1
 62
250
370
9
100
AcDbSpline
 70
24
 71
3
 72
8
 73
4
 74
0
 42
1e-09
 40
0.0
 40
0.0
 40
0.0
 40
0.0
 40
1.0
 40
1.0
 40
1.0
 40
1.0
 10
284.16859999999997
 20
283.0921000000001
 30
0.0
 10
284.16859999999997
 20
283.0921000000001
 30
0.0
 10
291.3367
 20
283.0921000000001
 30
0.0
 10
291.3367
 20
283.0921000000001
 30
0.0
  0
SPLINE
  5
49
330
17
100
AcDbEntity
  8
test_original_spline_layer 1
 62
250
370
9
100
AcDbSpline
 70
8
 71
3
 72
16
 73
12
 74
0
 42
1e-09
 40
0.0
 40
0.0
 40
0.0
 40
0.0
 40
0.25
 40
0.25
 40
0.25
 40
0.25
 40
0.5
 40
0.5
 40
0.5
 40
0.5
 40
1.0
 40
1.0
 40
1.0
 40
1.0
 10
337.0425
 20
294.97180000000003
 30
0.0
 10
337.0425
 20
294.97180000000003
 30
0.0
 10
324.16859999999997
 20
294.97180000000003
 30
0.0
 10
324.16859999999997
 20
294.97180000000003
 30
0.0
 10
324.16859999999997
 20
294.97180000000003
 30
0.0
 10
324.16859999999997
 20
294.97180000000003
 30
0.0
 10
324.16859999999997
 20
270.0182
 30
0.0
 10
324.16859999999997
 20
270.0182
 30
0.0
 10
324.16859999999997
 20
270.0182
 30
0.0
 10
324.16859999999997
 20
270.0182
 30
0.0
 10
339.0344
 20
270.0182
 30
0.0
 10
339.0344
 20
270.0182
 30
0.0
  0
SPLINE
  5
4A
330
17
100
AcDbEntity
  8
test_original_spline_layer 1
 62
250
370
9
100
AcDbSpline
 70
24
 71
3
 72
8
 73
4
 74
0
 42
1e-09
 40
0.0
 40
0.0
 40
0.0
 40
0.0
 40
1.0
 40
1.0
 40
1.0
 40
1.0
 10
324.16859999999997
 20
283.0921000000001
 30
0.0
 10
324.16859999999997
 20
283.0921000000001
 30
0.0
 10
331.33669999999995
 20
283.0921000000001
 30
0.0
 10
331.33669999999995
 20
283.0921000000001
 30
0.0
  0
SPLINE
  5
4B
330
17
100
AcDbEntity
  8
test_original_spline_layer 1
 62
250
370
9
100
AcDbSpline
 70
8
 71
3
 72
40
 73
36
 74
0
 42
1e-09
 40
0.0
 40
0.0
 40
0.0
 40
0.0
 40
0.1
 40
0.1
 40
0.1
 40
0.1
 40
0.2
 40
0.2
 40
0.2
 40
0.2
 40
0.3
 40
0.3
 40
0.3
 40
0.3
 40
0.4
 40
0.4
 40
0.4
 40
0.4
 40
0.5
 40
0.5
 40
0.5
 40
0.5
 40
0.6
 40
0.6
 40
0.6
 40
0.6
 40
0.7
 40
0.7
 40
0.7
 40
0.7
 40
0.8
 40
0.8
 40
0.8
 40
0.8
 40
1.0
 40
1.0
 40
1.0
 40
1.0
 10
441.82129999999995
 20
295.70679999999993
 30
0.0
 10
441.82129999999995
 20
295.70679999999993
 30
0.0
 10
428.9696
 20
295.70679999999993
 30
0.0
 10
428.9696
 20
295.70679999999993
 30
0.0
 10
428.9696
 20
295.70679999999993
 30
0.0
 10
428.96990000000005
 20
291.47620000000006
 30
0.0
 10
428.96990000000005
 20
287.24530000000004
 30
0.0
 10
428.9696
 20
283.0141000000001
 30
0.0
 10
428.9696
 20
283.0141000000001
 30
0.0
 10
428.9693
 20
286.3242
 30
0.0
 10
430.60030000000006
 20
287.39599999999996
 30
0.0
 10
433.41229999999996
 20
287.4565
 30
0.0
 10
433.41229999999996
 20
287.4565
 30
0.0
 10
435.8519
 20
287.45679999999993
 30
0.0
 10
438.29139999999995
 20
287.45679999999993
 30
0.0
 10
440.7306
 20
287.4565
 30
0.0
 10
440.7306
 20
287.4565
 30
0.0
 10
442.3804
 20
287.4633000000001
 30
0.0
 10
443.85529999999994
 20
285.08280000000013
 30
0.0
 10
443.88379999999995
 20
283.0141000000001
 30
0.0
 10
443.88379999999995
 20
283.0141000000001
 30
0.0
 10
443.8835
 20
280.42679999999996
 30
0.0
 10
443.8835
 20
277.8392000000001
 30
0.0
 10
443.88379999999995
 20
275.2515000000001
 30
0.0
 10
443.88379999999995
 20
275.2515000000001
 30
0.0
 10
443.93000000000006
 20
273.2921000000001
 30
0.0
 10
442.4306
 20
270.85580000000004
 30
0.0
 10
440.8047
 20
270.79729999999995
 30
0.0
 10
440.8047
 20
270.79729999999995
 30
0.0
 10
438.8482
 20
270.7976000000001
 30
0.0
 10
433.9531999999999
 20
270.7976000000001
 30
0.0
 10
431.99620000000004
 20
270.79729999999995
 30
0.0
 10
431.99620000000004
 20
270.79729999999995
 30
0.0
 10
430.15070000000003
 20
270.7885000000001
 30
0.0
 10
429.04359999999997
 20
272.7533000000001
 30
0.0
 10
429.02279999999996
 20
275.3044
 30
0.0
  0
SPLINE
  5
4C
330
17
100
AcDbEntity
  8
test_original_spline_layer 1
 62
242
370
9
100
AcDbSpline
 70
11
 71
3
 72
44
 73
40
 74
0
 42
1e-09
 40
0.0
 40
0.0
 40
0.0
 40
0.0
 40
0.0909090909090909
 40
0.0909090909090909
 40
0.0909090909090909
 40
0.0909090909090909
 40
0.1818181818181818
 40
0.1818181818181818
 40
0.1818181818181818
 40
0.1818181818181818
 40
0.2727272727272727
 40
0.2727272727272727
 40
0.2727272727272727
 40
0.2727272727272727
 40
0.3636363636363636
 40
0.3636363636363636
 40
0.3636363636363636
 40
0.3636363636363636
 40
0.4545454545454545
 40
0.4545454545454545
 40
0.4545454545454545
 40
0.4545454545454545
 40
0.5454545454545454
 40
0.5454545454545454
 40
0.5454545454545454
 40
0.5454545454545454
 40
0.6363636363636364
 40
0.6363636363636364
 40
0.6363636363636364
 40
0.6363636363636364
 40
0.7272727272727273
 40
0.7272727272727273
 40
0.7272727272727273
 40
0.7272727272727273
 40
0.8181818181818182
 40
0.8181818181818182
 40
0.8181818181818182
 40
0.8181818181818182
 40
1.0
 40
1.0
 40
1.0
 40
1.0
 10
669.9996
 20
1799.9995
 30
0.0
 10
669.9996
 20
1799.9995
 30
0.0
 10
669.9996
 20
150.0
 30
0.0
 10
669.9996
 20
150.0
 30
0.0
 10
669.9996
 20
150.0
 30
0.0
 10
669.9996
 20
150.0
 30
0.0
 10
-200.0
 20
150.0
 30
0.0
 10
-200.0
 20
150.0
 30
0.0
 10
-200.0
 20
150.0
 30
0.0
 10
-200.0
 20
150.0
 30
0.0
 10
-200.0
 20
1799.9995
 30
0.0
 10
-200.0
 20
1799.9995
 30
0.0
 10
-200.0
 20
1799.9995
 30
0.0
 10
-200.0
 20
1799.9995
 30
0.0
 10
-194.9996
 20
1899.9985000000001
 30
0.0
 10
-194.9996
 20
1899.9985000000001
 30
0.0
 10
-194.9996
 20
1899.9985000000001
 30
0.0
 10
-194.9996
 20
1899.9985000000001
 30
0.0
 10
-194.9996
 20
1999.9975
 30
0.0
 10
-194.9996
 20
1999.9975
 30
0.0
 10
-194.9996
 20
1999.9975
 30
0.0
 10
-194.9996
 20
1999.9975
 30
0.0
 10
-187.4996
 20
2149.9989
 30
0.0
 10
-187.4996
 20
2149.9989
 30
0.0
 10
-187.4996
 20
2149.9989
 30
0.0
 10
-187.4996
 20
2149.9989
 30
0.0
 10
657.5007
 20
2149.9989
 30
0.0
 10
657.5007
 20
2149.9989
 30
0.0
 10
657.5007
 20
2149.9989
 30
0.0
 10
657.5007
 20
2149.9989
 30
0.0
 10
665.0006000000001
 20
1999.9975
 30
0.0
 10
665.0006000000001
 20
1999.9975
 30
0.0
 10
665.0006000000001
 20
1999.9975
 30
0.0
 10
665.0006000000001
 20
1999.9975
 30
0.0
 10
665.0006000000001
 20
1899.9985000000001
 30
0.0
 10
665.0006000000001
 20
1899.9985000000001
 30
0.0
 10
665.0006000000001
 20
1899.9985000000001
 30
0.0
 10
665.0006000000001
 20
1899.9985000000001
 30
0.0
 10
669.9996
 20
1799.9995
 30
0.0
 10
669.9996
 20
1799.9995
 30
0.0
  0
ENDSEC
  0
SECTION
  2
OBJECTS
  0
DICTIONARY
  5
A
330
0
100
AcDbDictionary
281
1
  3
ACAD_COLOR
350
B
  3
ACAD_GROUP
350
C
  3
ACAD_LAYOUT
350
D
  3
ACAD_MATERIAL
350
E
  3
ACAD_MLEADERSTYLE
350
F
  3
ACAD_MLINESTYLE
350
10
  3
ACAD_PLOTSETTINGS
350
11
  3
ACAD_PLOTSTYLENAME
350
12
  3
ACAD_SCALELIST
350
14
  3
ACAD_TABLESTYLE
350
15
  3
ACAD_VISUALSTYLE
350
16
  3
EZDXF_META
350
2D
  0
DICTIONARY
  5
B
330
A
100
AcDbDictionary
281
1
  0
DICTIONARY
  5
C
330
A
100
AcDbDictionary
281
1
  0
DICTIONARY
  5
D
330
A
100
AcDbDictionary
281
1
  3
Model
350
1A
  3
Layout1
350
1E
  0
DICTIONARY
  5
E
330
A
100
AcDbDictionary
281
1
  3
ByBlock
350
1F
  3
ByLayer
350
20
  3
Global
350
21
  0
DICTIONARY
  5
F
330
A
100
AcDbDictionary
281
1
  3
Standard
350
2C
  0
DICTIONARY
  5
10
330
A
100
AcDbDictionary
281
1
  3
Standard
350
22
  0
DICTIONARY
  5
11
330
A
100
AcDbDictionary
281
1
  0
ACDBDICTIONARYWDFLT
  5
12
330
A
100
AcDbDictionary
281
1
  3
Normal
350
13
100
AcDbDictionaryWithDefault
340
13
  0
ACDBPLACEHOLDER
  5
13
330
12
  0
DICTIONARY
  5
14
330
A
100
AcDbDictionary
281
1
  0
DICTIONARY
  5
15
330
A
100
AcDbDictionary
281
1
  0
DICTIONARY
  5
16
330
A
100
AcDbDictionary
281
1
  0
LAYOUT
  5
1A
330
D
100
AcDbPlotSettings
  1

  4
A3
  6

 40
7.5
 41
20.0
 42
7.5
 43
20.0
 44
420.0
 45
297.0
 46
0.0
 47
0.0
 48
0.0
 49
0.0
140
0.0
141
0.0
142
1.0
143
1.0
 70
1024
 72
1
 73
0
 74
5
  7

 75
16
 76
0
 77
2
 78
300
147
1.0
148
0.0
149
0.0
100
AcDbLayout
  1
Model
 70
1
 71
0
 10
0.0
 20
0.0
 11
420.0
 21
297.0
 12
0.0
 22
0.0
 32
0.0
 14
1e+20
 24
1e+20
 34
1e+20
 15
-1e+20
 25
-1e+20
 35
-1e+20
146
0.0
 13
0.0
 23
0.0
 33
0.0
 16
1.0
 26
0.0
 36
0.0
 17
0.0
 27
1.0
 37
0.0
 76
1
330
17
  0
LAYOUT
  5
1E
330
D
100
AcDbPlotSettings
  1

  4
A3
  6

 40
7.5
 41
20.0
 42
7.5
 43
20.0
 44
420.0
 45
297.0
 46
0.0
 47
0.0
 48
0.0
 49
0.0
140
0.0
141
0.0
142
1.0
143
1.0
 70
0
 72
1
 73
0
 74
5
  7

 75
16
 76
0
 77
2
 78
300
147
1.0
148
0.0
149
0.0
100
AcDbLayout
  1
Layout1
 70
1
 71
1
 10
0.0
 20
0.0
 11
420.0
 21
297.0
 12
0.0
 22
0.0
 32
0.0
 14
1e+20
 24
1e+20
 34
1e+20
 15
-1e+20
 25
-1e+20
 35
-1e+20
146
0.0
 13
0.0
 23
0.0
 33
0.0
 16
1.0
 26
0.0
 36
0.0
 17
0.0
 27
1.0
 37
0.0
 76
1
330
1B
  0
MATERIAL
  5
1F
102
{ACAD_REACTORS
330
E
102
}
330
E
100
AcDbMaterial
  1
ByBlock
  2

 70
0
 40
1.0
 71
1
 41
1.0
 91
-1023410177
 42
1.0
 72
1
  3

 73
1
 74
1
 75
1
 44
0.5
 73
0
 45
1.0
 46
1.0
 77
1
  4

 78
1
 79
1
170
1
 48
1.0
171
1
  6

172
1
173
1
174
1
140
1.0
141
1.0
175
1
  7

176
1
177
1
178
1
143
1.0
179
1
  8

270
1
271
1
272
1
145
1.0
146
1.0
273
1
  9

274
1
275
1
276
1
 42
1.0
 72
1
  3

 73
1
 74
1
 75
1
 94
63
  0
MATERIAL
  5
20
102
{ACAD_REACTORS
330
E
102
}
330
E
100
AcDbMaterial
  1
ByLayer
  2

 70
0
 40
1.0
 71
1
 41
1.0
 91
-1023410177
 42
1.0
 72
1
  3

 73
1
 74
1
 75
1
 44
0.5
 73
0
 45
1.0
 46
1.0
 77
1
  4

 78
1
 79
1
170
1
 48
1.0
171
1
  6

172
1
173
1
174
1
140
1.0
141
1.0
175
1
  7

176
1
177
1
178
1
143
1.0
179
1
  8

270
1
271
1
272
1
145
1.0
146
1.0
273
1
  9

274
1
275
1
276
1
 42
1.0
 72
1
  3

 73
1
 74
1
 75
1
 94
63
  0
MATERIAL
  5
21
102
{ACAD_REACTORS
330
E
102
}
330
E
100
AcDbMaterial
  1
Global
  2

 70
0
 40
1.0
 71
1
 41
1.0
 91
-1023410177
 42
1.0
 72
1
  3

 73
1
 74
1
 75
1
 44
0.5
 73
0
 45
1.0
 46
1.0
 77
1
  4

 78
1
 79
1
170
1
 48
1.0
171
1
  6

172
1
173
1
174
1
140
1.0
141
1.0
175
1
  7

176
1
177
1
178
1
143
1.0
179
1
  8

270
1
271
1
272
1
145
1.0
146
1.0
273
1
  9

274
1
275
1
276
1
 42
1.0
 72
1
  3

 73
1
 74
1
 75
1
 94
63
  0
MLINESTYLE
  5
22
102
{ACAD_REACTORS
330
10
102
}
330
10
100
AcDbMlineStyle
  2
Standard
 70
0
  3

 62
256
 51
90.0
 52
90.0
 71
2
 49
0.5
 62
256
  6
BYLAYER
 49
-0.5
 62
256
  6
BYLAYER
  0
MLEADERSTYLE
  5
2C
102
{ACAD_REACTORS
330
F
102
}
330
F
100
AcDbMLeaderStyle
179
2
170
2
171
1
172
0
 90
2
 40
0.0
 41
0.0
173
1
 91
-1056964608
 92
-2
290
1
 42
2.0
291
1
 43
8.0
  3
Standard
 44
4.0
300

342
29
174
1
175
1
176
0
178
1
 93
-1056964608
 45
4.0
292
0
297
0
 46
4.0
 94
-1056964608
 47
1.0
 49
1.0
140
1.0
294
1
141
0.0
177
0
142
1.0
295
0
296
0
143
3.75
271
0
272
9
273
9
  0
DICTIONARY
  5
2D
330
A
100
AcDbDictionary
280
1
281
1
  3
CREATED_BY_EZDXF
350
2E
  3
WRITTEN_BY_EZDXF
350
4F
  0
DICTIONARYVAR
  5
2E
330
2D
100
DictionaryVariables
280
0
  1
1.4.2 @ 2025-08-15T11:41:27.772558+00:00
  0
DICTIONARYVAR
  5
4F
330
2D
100
DictionaryVariables
280
0
  1
1.4.2 @ 2025-08-15T11:41:27.775720+00:00
  0
ENDSEC
  0
EOF
