  0
SECTION
  2
HEADER
  9
$ACADVER
  1
AC1024
  9
$ACADMAINTVER
 70
6
  9
$DWGCODEPAGE
  3
ANSI_1252
  9
$LASTSAVEDBY
  1
ezdxf
  9
$INSBASE
 10
0.0
 20
0.0
 30
0.0
  9
$EXTMIN
 10
1e+20
 20
1e+20
 30
1e+20
  9
$EXTMAX
 10
-1e+20
 20
-1e+20
 30
-1e+20
  9
$LIMMIN
 10
0.0
 20
0.0
  9
$LIMMAX
 10
420.0
 20
297.0
  9
$ORTHOMODE
 70
0
  9
$REGENMODE
 70
1
  9
$FILLMODE
 70
1
  9
$QTEXTMODE
 70
0
  9
$MIRRTEXT
 70
1
  9
$LTSCALE
 40
1.0
  9
$ATTMODE
 70
1
  9
$TEXTSIZE
 40
2.5
  9
$TRACEWID
 40
1.0
  9
$TEXTSTYLE
  7
Standard
  9
$CLAYER
  8
0
  9
$CELTYPE
  6
ByLayer
  9
$CECOLOR
 62
256
  9
$CELTSCALE
 40
1.0
  9
$DISPSILH
 70
0
  9
$DIMSCALE
 40
1.0
  9
$DIMASZ
 40
2.5
  9
$DIMEXO
 40
0.625
  9
$DIMDLI
 40
3.75
  9
$DIMRND
 40
0.0
  9
$DIMDLE
 40
0.0
  9
$DIMEXE
 40
1.25
  9
$DIMTP
 40
0.0
  9
$DIMTM
 40
0.0
  9
$DIMTXT
 40
2.5
  9
$DIMCEN
 40
2.5
  9
$DIMTSZ
 40
0.0
  9
$DIMTOL
 70
0
  9
$DIMLIM
 70
0
  9
$DIMTIH
 70
0
  9
$DIMTOH
 70
0
  9
$DIMSE1
 70
0
  9
$DIMSE2
 70
0
  9
$DIMTAD
 70
1
  9
$DIMZIN
 70
8
  9
$DIMBLK
  1

  9
$DIMASO
 70
1
  9
$DIMSHO
 70
1
  9
$DIMPOST
  1

  9
$DIMAPOST
  1

  9
$DIMALT
 70
0
  9
$DIMALTD
 70
3
  9
$DIMALTF
 40
0.03937007874
  9
$DIMLFAC
 40
1.0
  9
$DIMTOFL
 70
1
  9
$DIMTVP
 40
0.0
  9
$DIMTIX
 70
0
  9
$DIMSOXD
 70
0
  9
$DIMSAH
 70
0
  9
$DIMBLK1
  1

  9
$DIMBLK2
  1

  9
$DIMSTYLE
  2
ISO-25
  9
$DIMCLRD
 70
0
  9
$DIMCLRE
 70
0
  9
$DIMCLRT
 70
0
  9
$DIMTFAC
 40
1.0
  9
$DIMGAP
 40
0.625
  9
$DIMJUST
 70
0
  9
$DIMSD1
 70
0
  9
$DIMSD2
 70
0
  9
$DIMTOLJ
 70
0
  9
$DIMTZIN
 70
8
  9
$DIMALTZ
 70
0
  9
$DIMALTTZ
 70
0
  9
$DIMUPT
 70
0
  9
$DIMDEC
 70
2
  9
$DIMTDEC
 70
2
  9
$DIMALTU
 70
2
  9
$DIMALTTD
 70
3
  9
$DIMTXSTY
  7
Standard
  9
$DIMAUNIT
 70
0
  9
$DIMADEC
 70
0
  9
$DIMALTRND
 40
0.0
  9
$DIMAZIN
 70
0
  9
$DIMDSEP
 70
44
  9
$DIMATFIT
 70
3
  9
$DIMFRAC
 70
0
  9
$DIMLDRBLK
  1

  9
$DIMLUNIT
 70
2
  9
$DIMLWD
 70
-2
  9
$DIMLWE
 70
-2
  9
$DIMTMOVE
 70
0
  9
$DIMFXL
 40
1.0
  9
$DIMFXLON
 70
0
  9
$DIMJOGANG
 40
0.785398163397
  9
$DIMTFILL
 70
0
  9
$DIMTFILLCLR
 70
0
  9
$DIMARCSYM
 70
0
  9
$DIMLTYPE
  6

  9
$DIMLTEX1
  6

  9
$DIMLTEX2
  6

  9
$DIMTXTDIRECTION
 70
0
  9
$LUNITS
 70
2
  9
$LUPREC
 70
4
  9
$SKETCHINC
 40
1.0
  9
$FILLETRAD
 40
10.0
  9
$AUNITS
 70
0
  9
$AUPREC
 70
2
  9
$MENU
  1
.
  9
$ELEVATION
 40
0.0
  9
$PELEVATION
 40
0.0
  9
$THICKNESS
 40
0.0
  9
$LIMCHECK
 70
0
  9
$CHAMFERA
 40
0.0
  9
$CHAMFERB
 40
0.0
  9
$CHAMFERC
 40
0.0
  9
$CHAMFERD
 40
0.0
  9
$SKPOLY
 70
0
  9
$TDCREATE
 40
2460911.655659722
  9
$TDUCREATE
 40
2458532.153996898
  9
$TDUPDATE
 40
2460911.655659722
  9
$TDUUPDATE
 40
2458532.1544311
  9
$TDINDWG
 40
0.0
  9
$TDUSRTIMER
 40
0.0
  9
$USRTIMER
 70
1
  9
$ANGBASE
 50
0.0
  9
$ANGDIR
 70
0
  9
$PDMODE
 70
0
  9
$PDSIZE
 40
0.0
  9
$PLINEWID
 40
0.0
  9
$SPLFRAME
 70
0
  9
$SPLINETYPE
 70
6
  9
$SPLINESEGS
 70
8
  9
$HANDSEED
  5
7D
  9
$SURFTAB1
 70
6
  9
$SURFTAB2
 70
6
  9
$SURFTYPE
 70
6
  9
$SURFU
 70
6
  9
$SURFV
 70
6
  9
$UCSBASE
  2

  9
$UCSNAME
  2

  9
$UCSORG
 10
0.0
 20
0.0
 30
0.0
  9
$UCSXDIR
 10
1.0
 20
0.0
 30
0.0
  9
$UCSYDIR
 10
0.0
 20
1.0
 30
0.0
  9
$UCSORTHOREF
  2

  9
$UCSORTHOVIEW
 70
0
  9
$UCSORGTOP
 10
0.0
 20
0.0
 30
0.0
  9
$UCSORGBOTTOM
 10
0.0
 20
0.0
 30
0.0
  9
$UCSORGLEFT
 10
0.0
 20
0.0
 30
0.0
  9
$UCSORGRIGHT
 10
0.0
 20
0.0
 30
0.0
  9
$UCSORGFRONT
 10
0.0
 20
0.0
 30
0.0
  9
$UCSORGBACK
 10
0.0
 20
0.0
 30
0.0
  9
$PUCSBASE
  2

  9
$PUCSNAME
  2

  9
$PUCSORG
 10
0.0
 20
0.0
 30
0.0
  9
$PUCSXDIR
 10
1.0
 20
0.0
 30
0.0
  9
$PUCSYDIR
 10
0.0
 20
1.0
 30
0.0
  9
$PUCSORTHOREF
  2

  9
$PUCSORTHOVIEW
 70
0
  9
$PUCSORGTOP
 10
0.0
 20
0.0
 30
0.0
  9
$PUCSORGBOTTOM
 10
0.0
 20
0.0
 30
0.0
  9
$PUCSORGLEFT
 10
0.0
 20
0.0
 30
0.0
  9
$PUCSORGRIGHT
 10
0.0
 20
0.0
 30
0.0
  9
$PUCSORGFRONT
 10
0.0
 20
0.0
 30
0.0
  9
$PUCSORGBACK
 10
0.0
 20
0.0
 30
0.0
  9
$USERI1
 70
0
  9
$USERI2
 70
0
  9
$USERI3
 70
0
  9
$USERI4
 70
0
  9
$USERI5
 70
0
  9
$USERR1
 40
0.0
  9
$USERR2
 40
0.0
  9
$USERR3
 40
0.0
  9
$USERR4
 40
0.0
  9
$USERR5
 40
0.0
  9
$WORLDVIEW
 70
1
  9
$SHADEDGE
 70
3
  9
$SHADEDIF
 70
70
  9
$TILEMODE
 70
1
  9
$MAXACTVP
 70
64
  9
$PINSBASE
 10
0.0
 20
0.0
 30
0.0
  9
$PLIMCHECK
 70
0
  9
$PEXTMIN
 10
1e+20
 20
1e+20
 30
1e+20
  9
$PEXTMAX
 10
-1e+20
 20
-1e+20
 30
-1e+20
  9
$PLIMMIN
 10
0.0
 20
0.0
  9
$PLIMMAX
 10
420.0
 20
297.0
  9
$UNITMODE
 70
0
  9
$VISRETAIN
 70
1
  9
$PLINEGEN
 70
0
  9
$PSLTSCALE
 70
1
  9
$TREEDEPTH
 70
3020
  9
$CMLSTYLE
  2
Standard
  9
$CMLJUST
 70
0
  9
$CMLSCALE
 40
20.0
  9
$PROXYGRAPHICS
 70
1
  9
$MEASUREMENT
 70
1
  9
$CELWEIGHT
370
-1
  9
$ENDCAPS
280
0
  9
$JOINSTYLE
280
0
  9
$LWDISPLAY
290
0
  9
$INSUNITS
 70
4
  9
$HYPERLINKBASE
  1

  9
$STYLESHEET
  1

  9
$XEDIT
290
1
  9
$CEPSNTYPE
380
0
  9
$PSTYLEMODE
290
1
  9
$FINGERPRINTGUID
  2
{CB2CFC3D-399A-4E32-9330-C64CA6014183}
  9
$VERSIONGUID
  2
{DD8416F0-8651-4C53-8379-F19FE0D81E3F}
  9
$EXTNAMES
290
1
  9
$PSVPSCALE
 40
0.0
  9
$OLESTARTUP
290
0
  9
$SORTENTS
280
127
  9
$INDEXCTL
280
0
  9
$HIDETEXT
280
1
  9
$XCLIPFRAME
280
1
  9
$HALOGAP
280
0
  9
$OBSCOLOR
 70
257
  9
$OBSLTYPE
280
0
  9
$INTERSECTIONDISPLAY
280
0
  9
$INTERSECTIONCOLOR
 70
257
  9
$DIMASSOC
280
2
  9
$PROJECTNAME
  1

  9
$CAMERADISPLAY
290
0
  9
$LENSLENGTH
 40
50.0
  9
$CAMERAHEIGHT
 40
0.0
  9
$STEPSPERSEC
 40
24.0
  9
$STEPSIZE
 40
100.0
  9
$3DDWFPREC
 40
2.0
  9
$PSOLWIDTH
 40
0.005
  9
$PSOLHEIGHT
 40
0.08
  9
$LOFTANG1
 40
1.570796326795
  9
$LOFTANG2
 40
1.570796326795
  9
$LOFTMAG1
 40
0.0
  9
$LOFTMAG2
 40
0.0
  9
$LOFTPARAM
 70
7
  9
$LOFTNORMALS
280
1
  9
$LATITUDE
 40
37.795
  9
$LONGITUDE
 40
-122.394
  9
$NORTHDIRECTION
 40
0.0
  9
$TIMEZONE
 70
-8000
  9
$LIGHTGLYPHDISPLAY
280
1
  9
$TILEMODELIGHTSYNCH
280
1
  9
$CMATERIAL
347
20
  9
$SOLIDHIST
280
0
  9
$SHOWHIST
280
1
  9
$DWFFRAME
280
2
  9
$DGNFRAME
280
2
  9
$REALWORLDSCALE
290
1
  9
$INTERFERECOLOR
 62
256
  9
$CSHADOW
280
0
  9
$SHADOWPLANELOCATION
 40
0.0
  0
ENDSEC
  0
SECTION
  2
CLASSES
  0
CLASS
  1
ACDBDICTIONARYWDFLT
  2
AcDbDictionaryWithDefault
  3
ObjectDBX Classes
 90
0
 91
0
280
0
281
0
  0
CLASS
  1
SUN
  2
AcDbSun
  3
SCENEOE
 90
1153
 91
0
280
0
281
0
  0
CLASS
  1
VISUALSTYLE
  2
AcDbVisualStyle
  3
ObjectDBX Classes
 90
4095
 91
0
280
0
281
0
  0
CLASS
  1
MATERIAL
  2
AcDbMaterial
  3
ObjectDBX Classes
 90
1153
 91
0
280
0
281
0
  0
CLASS
  1
SCALE
  2
AcDbScale
  3
ObjectDBX Classes
 90
1153
 91
0
280
0
281
0
  0
CLASS
  1
TABLESTYLE
  2
AcDbTableStyle
  3
ObjectDBX Classes
 90
4095
 91
0
280
0
281
0
  0
CLASS
  1
MLEADERSTYLE
  2
AcDbMLeaderStyle
  3
ACDB_MLEADERSTYLE_CLASS
 90
4095
 91
0
280
0
281
0
  0
CLASS
  1
DICTIONARYVAR
  2
AcDbDictionaryVar
  3
ObjectDBX Classes
 90
0
 91
0
280
0
281
0
  0
CLASS
  1
CELLSTYLEMAP
  2
AcDbCellStyleMap
  3
ObjectDBX Classes
 90
1152
 91
0
280
0
281
0
  0
CLASS
  1
MENTALRAYRENDERSETTINGS
  2
AcDbMentalRayRenderSettings
  3
SCENEOE
 90
1024
 91
0
280
0
281
0
  0
CLASS
  1
ACDBDETAILVIEWSTYLE
  2
AcDbDetailViewStyle
  3
ObjectDBX Classes
 90
1025
 91
0
280
0
281
0
  0
CLASS
  1
ACDBSECTIONVIEWSTYLE
  2
AcDbSectionViewStyle
  3
ObjectDBX Classes
 90
1025
 91
0
280
0
281
0
  0
CLASS
  1
RASTERVARIABLES
  2
AcDbRasterVariables
  3
ISM
 90
0
 91
0
280
0
281
0
  0
CLASS
  1
IMAGE
  2
AcDbRasterImage
  3
ISM
 90
2175
 91
0
280
0
281
1
  0
CLASS
  1
IMAGEDEF
  2
AcDbRasterImageDef
  3
ISM
 90
0
 91
0
280
0
281
0
  0
CLASS
  1
IMAGEDEF_REACTOR
  2
AcDbRasterImageDefReactor
  3
ISM
 90
1
 91
0
280
0
281
0
  0
CLASS
  1
LAYOUT
  2
AcDbLayout
  3
ObjectDBX Classes
 90
0
 91
0
280
0
281
0
  0
CLASS
  1
ACDBPLACEHOLDER
  2
AcDbPlaceHolder
  3
ObjectDBX Classes
 90
0
 91
0
280
0
281
0
  0
ENDSEC
  0
SECTION
  2
TABLES
  0
TABLE
  2
VPORT
  5
8
330
0
100
AcDbSymbolTable
 70
1
  0
VPORT
  5
23
330
8
100
AcDbSymbolTableRecord
100
AcDbViewportTableRecord
  2
*Active
 70
0
 10
0.0
 20
0.0
 11
1.0
 21
1.0
 12
0.0
 22
0.0
 13
0.0
 23
0.0
 14
0.5
 24
0.5
 15
0.5
 25
0.5
 16
0.0
 26
0.0
 36
1.0
 17
0.0
 27
0.0
 37
0.0
 40
1000.0
 41
1.34
 42
50.0
 43
0.0
 44
0.0
 50
0.0
 51
0.0
 71
0
 72
1000
 73
1
 74
3
 75
0
 76
0
 77
0
 78
0
281
0
 65
0
146
0.0
  0
ENDTAB
  0
TABLE
  2
LTYPE
  5
2
330
0
100
AcDbSymbolTable
 70
3
  0
LTYPE
  5
24
330
2
100
AcDbSymbolTableRecord
100
AcDbLinetypeTableRecord
  2
ByBlock
 70
0
  3

 72
65
 73
0
 40
0.0
  0
LTYPE
  5
25
330
2
100
AcDbSymbolTableRecord
100
AcDbLinetypeTableRecord
  2
ByLayer
 70
0
  3

 72
65
 73
0
 40
0.0
  0
LTYPE
  5
26
330
2
100
AcDbSymbolTableRecord
100
AcDbLinetypeTableRecord
  2
Continuous
 70
0
  3

 72
65
 73
0
 40
0.0
  0
ENDTAB
  0
TABLE
  2
LAYER
  5
1
330
0
100
AcDbSymbolTable
 70
2
  0
LAYER
  5
27
330
1
100
AcDbSymbolTableRecord
100
AcDbLayerTableRecord
  2
0
 70
0
 62
7
  6
Continuous
370
-3
390
13
347
21
  0
LAYER
  5
28
330
1
100
AcDbSymbolTableRecord
100
AcDbLayerTableRecord
  2
Defpoints
 70
0
 62
7
  6
Continuous
290
0
370
-3
390
13
347
21
  0
ENDTAB
  0
TABLE
  2
STYLE
  5
5
330
0
100
AcDbSymbolTable
 70
1
  0
STYLE
  5
29
330
5
100
AcDbSymbolTableRecord
100
AcDbTextStyleTableRecord
  2
Standard
 70
0
 40
0.0
 41
1.0
 50
0.0
 71
0
 42
2.5
  3
txt
  4

  0
ENDTAB
  0
TABLE
  2
VIEW
  5
7
330
0
100
AcDbSymbolTable
 70
0
  0
ENDTAB
  0
TABLE
  2
UCS
  5
6
330
0
100
AcDbSymbolTable
 70
0
  0
ENDTAB
  0
TABLE
  2
APPID
  5
3
330
0
100
AcDbSymbolTable
 70
3
  0
APPID
  5
2A
330
3
100
AcDbSymbolTableRecord
100
AcDbRegAppTableRecord
  2
ACAD
 70
0
  0
APPID
  5
7A
330
3
100
AcDbSymbolTableRecord
100
AcDbRegAppTableRecord
  2
HATCHBACKGROUNDCOLOR
 70
0
  0
APPID
  5
7B
330
3
100
AcDbSymbolTableRecord
100
AcDbRegAppTableRecord
  2
EZDXF
 70
0
  0
ENDTAB
  0
TABLE
  2
DIMSTYLE
  5
4
330
0
100
AcDbSymbolTable
 70
1
100
AcDbDimStyleTable
  0
DIMSTYLE
105
2B
330
4
100
AcDbSymbolTableRecord
100
AcDbDimStyleTableRecord
  2
Standard
 70
0
 40
1.0
 41
2.5
 42
0.625
 43
3.75
 44
1.25
 45
0.0
 46
0.0
 47
0.0
 48
0.0
 49
2.5
140
2.5
141
2.5
142
0.0
143
0.03937007874
144
1.0
145
0.0
146
1.0
147
0.625
148
0.0
 69
0
 70
0
 71
0
 72
0
 73
0
 74
0
 75
0
 76
0
 77
1
 78
8
 79
3
170
0
171
3
172
1
173
0
174
0
175
0
176
0
177
0
178
0
179
2
271
2
272
2
273
2
274
3
275
0
276
0
277
2
278
44
279
0
280
0
281
0
282
0
283
0
284
8
285
0
286
0
288
0
289
3
290
0
371
-2
372
-2
  0
ENDTAB
  0
TABLE
  2
BLOCK_RECORD
  5
9
330
0
100
AcDbSymbolTable
 70
2
  0
BLOCK_RECORD
  5
17
330
9
100
AcDbSymbolTableRecord
100
AcDbBlockTableRecord
  2
*Model_Space
340
1A
 70
0
280
1
281
0
  0
BLOCK_RECORD
  5
1B
330
9
100
AcDbSymbolTableRecord
100
AcDbBlockTableRecord
  2
*Paper_Space
340
1E
 70
0
280
1
281
0
  0
ENDTAB
  0
ENDSEC
  0
SECTION
  2
BLOCKS
  0
BLOCK
  5
18
330
17
100
AcDbEntity
  8
0
100
AcDbBlockBegin
  2
*Model_Space
 70
0
 10
0.0
 20
0.0
 30
0.0
  3
*Model_Space
  1

  0
ENDBLK
  5
19
330
17
100
AcDbEntity
  8
0
100
AcDbBlockEnd
  0
BLOCK
  5
1C
330
1B
100
AcDbEntity
  8
0
100
AcDbBlockBegin
  2
*Paper_Space
 70
0
 10
0.0
 20
0.0
 30
0.0
  3
*Paper_Space
  1

  0
ENDBLK
  5
1D
330
1B
100
AcDbEntity
  8
0
100
AcDbBlockEnd
  0
ENDSEC
  0
SECTION
  2
ENTITIES
  0
SPLINE
  5
2F
330
17
100
AcDbEntity
  8
layer 1
 62
250
370
9
100
AcDbSpline
 70
8
 71
3
 72
32
 73
28
 74
0
 42
1e-09
 40
0.0
 40
0.0
 40
0.0
 40
0.0
 40
0.125
 40
0.125
 40
0.125
 40
0.125
 40
0.25
 40
0.25
 40
0.25
 40
0.25
 40
0.375
 40
0.375
 40
0.375
 40
0.375
 40
0.5
 40
0.5
 40
0.5
 40
0.5
 40
0.625
 40
0.625
 40
0.625
 40
0.625
 40
0.75
 40
0.75
 40
0.75
 40
0.75
 40
1.0
 40
1.0
 40
1.0
 40
1.0
 10
-23.0593
 20
-1381.4988
 30
0.0
 10
-23.0593
 20
-1381.4988
 30
0.0
 10
-23.0593
 20
-1356.5453
 30
0.0
 10
-23.0593
 20
-1356.5453
 30
0.0
 10
-23.0593
 20
-1356.5453
 30
0.0
 10
-19.4645
 20
-1356.5453
 30
0.0
 10
-15.869
 20
-1356.5453
 30
0.0
 10
-12.273800000000001
 20
-1356.5453
 30
0.0
 10
-12.273800000000001
 20
-1356.5453
 30
0.0
 10
-9.9485
 20
-1356.583
 30
0.0
 10
-8.391200000000001
 20
-1358.073
 30
0.0
 10
-8.395299999999999
 20
-1360.4394
 30
0.0
 10
-8.395299999999999
 20
-1360.4394
 30
0.0
 10
-8.395700000000001
 20
-1362.4749
 30
0.0
 10
-8.395700000000001
 20
-1365.5343
 30
0.0
 10
-8.395299999999999
 20
-1367.5703
 30
0.0
 10
-8.395299999999999
 20
-1367.5703
 30
0.0
 10
-8.401800000000001
 20
-1369.4458
 30
0.0
 10
-10.214099999999998
 20
-1371.3876
 30
0.0
 10
-12.223600000000001
 20
-1371.4067
 30
0.0
 10
-12.223600000000001
 20
-1371.4067
 30
0.0
 10
-12.223600000000001
 20
-1371.4067
 30
0.0
 10
-23.0593
 20
-1371.4067
 30
0.0
 10
-23.0593
 20
-1371.4067
 30
0.0
 10
-23.0593
 20
-1371.4067
 30
0.0
 10
-23.0593
 20
-1371.4067
 30
0.0
 10
-8.404599999999999
 20
-1381.4988
 30
0.0
 10
-8.404599999999999
 20
-1381.4988
 30
0.0
  0
SPLINE
  5
30
330
17
100
AcDbEntity
  8
layer 1
 62
250
370
9
100
AcDbSpline
 70
8
 71
3
 72
20
 73
16
 74
0
 42
1e-09
 40
0.0
 40
0.0
 40
0.0
 40
0.0
 40
0.2
 40
0.2
 40
0.2
 40
0.2
 40
0.4
 40
0.4
 40
0.4
 40
0.4
 40
0.6
 40
0.6
 40
0.6
 40
0.6
 40
1.0
 40
1.0
 40
1.0
 40
1.0
 10
-64.5698
 20
-1381.501
 30
0.0
 10
-64.5698
 20
-1381.501
 30
0.0
 10
-64.5698
 20
-1356.5431
 30
0.0
 10
-64.5698
 20
-1356.5431
 30
0.0
 10
-64.5698
 20
-1356.5431
 30
0.0
 10
-64.5698
 20
-1356.5431
 30
0.0
 10
-55.6447
 20
-1381.501
 30
0.0
 10
-55.6447
 20
-1381.501
 30
0.0
 10
-55.6447
 20
-1381.501
 30
0.0
 10
-55.6447
 20
-1381.501
 30
0.0
 10
-46.8848
 20
-1356.5436
 30
0.0
 10
-46.8848
 20
-1356.5436
 30
0.0
 10
-46.8848
 20
-1356.5436
 30
0.0
 10
-46.8848
 20
-1356.5436
 30
0.0
 10
-46.8848
 20
-1381.501
 30
0.0
 10
-46.8848
 20
-1381.501
 30
0.0
  0
SPLINE
  5
31
330
17
100
AcDbEntity
  8
layer 1
 62
250
370
9
100
AcDbSpline
 70
11
 71
3
 72
28
 73
24
 74
0
 42
1e-09
 40
0.0
 40
0.0
 40
0.0
 40
0.0
 40
0.1428571428571428
 40
0.1428571428571428
 40
0.1428571428571428
 40
0.1428571428571428
 40
0.2857142857142857
 40
0.2857142857142857
 40
0.2857142857142857
 40
0.2857142857142857
 40
0.4285714285714285
 40
0.4285714285714285
 40
0.4285714285714285
 40
0.4285714285714285
 40
0.5714285714285714
 40
0.5714285714285714
 40
0.5714285714285714
 40
0.5714285714285714
 40
0.7142857142857143
 40
0.7142857142857143
 40
0.7142857142857143
 40
0.7142857142857143
 40
1.0
 40
1.0
 40
1.0
 40
1.0
 10
-83.1196
 20
-1381.4707
 30
0.0
 10
-80.7878
 20
-1381.4703
 30
0.0
 10
-75.8376
 20
-1381.4943
 30
0.0
 10
-73.5061
 20
-1381.4946
 30
0.0
 10
-73.5061
 20
-1381.4946
 30
0.0
 10
-71.5811
 20
-1381.6
 30
0.0
 10
-68.2625
 20
-1378.0584
 30
0.0
 10
-68.2737
 20
-1376.0411
 30
0.0
 10
-68.2737
 20
-1376.0411
 30
0.0
 10
-68.2741
 20
-1370.271
 30
0.0
 10
-68.2741
 20
-1368.1013
 30
0.0
 10
-68.2737
 20
-1362.332
 30
0.0
 10
-68.2737
 20
-1362.332
 30
0.0
 10
-68.278
 20
-1360.1939
 30
0.0
 10
-71.6525
 20
-1356.5338
 30
0.0
 10
-73.8049
 20
-1356.5473
 30
0.0
 10
-73.8049
 20
-1356.5473
 30
0.0
 10
-76.1306
 20
-1356.5473
 30
0.0
 10
-80.8549
 20
-1356.5473
 30
0.0
 10
-83.181
 20
-1356.5473
 30
0.0
 10
-83.181
 20
-1356.5473
 30
0.0
 10
-83.1806
 20
-1362.2942
 30
0.0
 10
-83.1193
 20
-1375.7234
 30
0.0
 10
-83.1196
 20
-1381.4707
 30
0.0
  0
SPLINE
  5
32
330
17
100
AcDbEntity
  8
layer 1
 62
250
370
9
100
AcDbSpline
 70
24
 71
3
 72
8
 73
4
 74
0
 42
1e-09
 40
0.0
 40
0.0
 40
0.0
 40
0.0
 40
1.0
 40
1.0
 40
1.0
 40
1.0
 10
-39.3114
 20
-1356.5453
 30
0.0
 10
-39.3114
 20
-1356.5453
 30
0.0
 10
-32.1433
 20
-1356.5453
 30
0.0
 10
-32.1433
 20
-1356.5453
 30
0.0
  0
SPLINE
  5
33
330
17
100
AcDbEntity
  8
layer 1
 62
250
370
9
100
AcDbSpline
 70
24
 71
3
 72
8
 73
4
 74
0
 42
1e-09
 40
0.0
 40
0.0
 40
0.0
 40
0.0
 40
1.0
 40
1.0
 40
1.0
 40
1.0
 10
-39.3114
 20
-1381.4988
 30
0.0
 10
-39.3114
 20
-1381.4988
 30
0.0
 10
-32.1433
 20
-1381.4988
 30
0.0
 10
-32.1433
 20
-1381.4988
 30
0.0
  0
SPLINE
  5
34
330
17
100
AcDbEntity
  8
layer 1
 62
250
370
9
100
AcDbSpline
 70
24
 71
3
 72
8
 73
4
 74
0
 42
1e-09
 40
0.0
 40
0.0
 40
0.0
 40
0.0
 40
1.0
 40
1.0
 40
1.0
 40
1.0
 10
-35.7274
 20
-1356.5453
 30
0.0
 10
-35.7274
 20
-1356.5453
 30
0.0
 10
-35.7274
 20
-1381.4988
 30
0.0
 10
-35.7274
 20
-1381.4988
 30
0.0
  0
SPLINE
  5
35
330
17
100
AcDbEntity
  8
layer 1
 62
250
370
9
100
AcDbSpline
 70
8
 71
3
 72
12
 73
8
 74
0
 42
1e-09
 40
0.0
 40
0.0
 40
0.0
 40
0.0
 40
0.3333333333333333
 40
0.3333333333333333
 40
0.3333333333333333
 40
0.3333333333333333
 40
1.0
 40
1.0
 40
1.0
 40
1.0
 10
-103.1978
 20
-1381.4988
 30
0.0
 10
-103.1978
 20
-1381.4988
 30
0.0
 10
-95.8268
 20
-1356.5453
 30
0.0
 10
-95.8268
 20
-1356.5453
 30
0.0
 10
-95.8268
 20
-1356.5453
 30
0.0
 10
-95.8268
 20
-1356.5453
 30
0.0
 10
-88.2569
 20
-1381.4988
 30
0.0
 10
-88.2569
 20
-1381.4988
 30
0.0
  0
SPLINE
  5
36
330
17
100
AcDbEntity
  8
layer 1
 62
250
370
9
100
AcDbSpline
 70
24
 71
3
 72
8
 73
4
 74
0
 42
1e-09
 40
0.0
 40
0.0
 40
0.0
 40
0.0
 40
1.0
 40
1.0
 40
1.0
 40
1.0
 10
-100.4752
 20
-1372.2494
 30
0.0
 10
-100.4752
 20
-1372.2494
 30
0.0
 10
-90.9795
 20
-1372.2494
 30
0.0
 10
-90.9795
 20
-1372.2494
 30
0.0
  0
SPLINE
  5
37
330
17
100
AcDbEntity
  8
layer 1
 62
250
370
9
100
AcDbSpline
 70
8
 71
3
 72
12
 73
8
 74
0
 42
1e-09
 40
0.0
 40
0.0
 40
0.0
 40
0.0
 40
0.3333333333333333
 40
0.3333333333333333
 40
0.3333333333333333
 40
0.3333333333333333
 40
1.0
 40
1.0
 40
1.0
 40
1.0
 10
30.7472
 20
-1381.4989
 30
0.0
 10
30.7472
 20
-1381.4989
 30
0.0
 10
17.798099999999998
 20
-1381.4989
 30
0.0
 10
17.798099999999998
 20
-1381.4989
 30
0.0
 10
17.798099999999998
 20
-1381.4989
 30
0.0
 10
17.798099999999998
 20
-1381.4989
 30
0.0
 10
17.798099999999998
 20
-1356.5453
 30
0.0
 10
17.798099999999998
 20
-1356.5453
 30
0.0
  0
SPLINE
  5
38
330
17
100
AcDbEntity
  8
layer 1
 62
250
370
9
100
AcDbSpline
 70
8
 71
3
 72
12
 73
8
 74
0
 42
1e-09
 40
0.0
 40
0.0
 40
0.0
 40
0.0
 40
0.3333333333333333
 40
0.3333333333333333
 40
0.3333333333333333
 40
0.3333333333333333
 40
1.0
 40
1.0
 40
1.0
 40
1.0
 10
-3.197800000000001
 20
-1381.4988
 30
0.0
 10
-3.197800000000001
 20
-1381.4988
 30
0.0
 10
4.1732
 20
-1356.5453
 30
0.0
 10
4.1732
 20
-1356.5453
 30
0.0
 10
4.1732
 20
-1356.5453
 30
0.0
 10
4.1732
 20
-1356.5453
 30
0.0
 10
11.7431
 20
-1381.4988
 30
0.0
 10
11.7431
 20
-1381.4988
 30
0.0
  0
SPLINE
  5
39
330
17
100
AcDbEntity
  8
layer 1
 62
250
370
9
100
AcDbSpline
 70
24
 71
3
 72
8
 73
4
 74
0
 42
1e-09
 40
0.0
 40
0.0
 40
0.0
 40
0.0
 40
1.0
 40
1.0
 40
1.0
 40
1.0
 10
-0.4751999999999992
 20
-1372.2494
 30
0.0
 10
-0.4751999999999992
 20
-1372.2494
 30
0.0
 10
9.0205
 20
-1372.2494
 30
0.0
 10
9.0205
 20
-1372.2494
 30
0.0
  0
SPLINE
  5
3A
330
17
100
AcDbEntity
  8
layer 1
 62
250
370
9
100
AcDbSpline
 70
24
 71
3
 72
8
 73
4
 74
0
 42
1e-09
 40
0.0
 40
0.0
 40
0.0
 40
0.0
 40
1.0
 40
1.0
 40
1.0
 40
1.0
 10
54.0503
 20
-1364.7876
 30
0.0
 10
54.0503
 20
-1364.7876
 30
0.0
 10
54.0503
 20
-1382.4523
 30
0.0
 10
54.0503
 20
-1382.4523
 30
0.0
  0
SPLINE
  5
3B
330
17
100
AcDbEntity
  8
layer 1
 62
250
370
9
100
AcDbSpline
 70
8
 71
3
 72
12
 73
8
 74
0
 42
1e-09
 40
0.0
 40
0.0
 40
0.0
 40
0.0
 40
0.3333333333333333
 40
0.3333333333333333
 40
0.3333333333333333
 40
0.3333333333333333
 40
1.0
 40
1.0
 40
1.0
 40
1.0
 10
56.9944
 20
-1375.5487
 30
0.0
 10
56.9944
 20
-1375.5487
 30
0.0
 10
42.1727
 20
-1375.5487
 30
0.0
 10
42.1727
 20
-1375.5487
 30
0.0
 10
42.1727
 20
-1375.5487
 30
0.0
 10
42.1727
 20
-1375.5487
 30
0.0
 10
54.0503
 20
-1357.4782
 30
0.0
 10
54.0503
 20
-1357.4782
 30
0.0
  0
SPLINE
  5
3C
330
17
100
AcDbEntity
  8
layer 1
 62
250
370
9
100
AcDbSpline
 70
11
 71
3
 72
36
 73
32
 74
0
 42
1e-09
 40
0.0
 40
0.0
 40
0.0
 40
0.0
 40
0.1111111111111111
 40
0.1111111111111111
 40
0.1111111111111111
 40
0.1111111111111111
 40
0.2222222222222222
 40
0.2222222222222222
 40
0.2222222222222222
 40
0.2222222222222222
 40
0.3333333333333333
 40
0.3333333333333333
 40
0.3333333333333333
 40
0.3333333333333333
 40
0.4444444444444444
 40
0.4444444444444444
 40
0.4444444444444444
 40
0.4444444444444444
 40
0.5555555555555556
 40
0.5555555555555556
 40
0.5555555555555556
 40
0.5555555555555556
 40
0.6666666666666666
 40
0.6666666666666666
 40
0.6666666666666666
 40
0.6666666666666666
 40
0.7777777777777778
 40
0.7777777777777778
 40
0.7777777777777778
 40
0.7777777777777778
 40
1.0
 40
1.0
 40
1.0
 40
1.0
 10
86.0029
 20
-1357.466
 30
0.0
 10
88.369
 20
-1357.466
 30
0.0
 10
90.7355
 20
-1357.466
 30
0.0
 10
93.102
 20
-1357.466
 30
0.0
 10
93.102
 20
-1357.466
 30
0.0
 10
95.0825
 20
-1357.4304
 30
0.0
 10
97.1085
 20
-1358.9247
 30
0.0
 10
97.1356
 20
-1361.3668
 30
0.0
 10
97.1356
 20
-1361.3668
 30
0.0
 10
97.1352
 20
-1367.1242
 30
0.0
 10
97.1352
 20
-1372.882
 30
0.0
 10
97.1356
 20
-1378.6402
 30
0.0
 10
97.1356
 20
-1378.6402
 30
0.0
 10
96.9935
 20
-1380.9678
 30
0.0
 10
95.2871
 20
-1382.4501
 30
0.0
 10
93.102
 20
-1382.4609
 30
0.0
 10
93.102
 20
-1382.4609
 30
0.0
 10
90.7296
 20
-1382.4605
 30
0.0
 10
88.3572
 20
-1382.4605
 30
0.0
 10
85.9852
 20
-1382.4609
 30
0.0
 10
85.9852
 20
-1382.4609
 30
0.0
 10
84.0267
 20
-1382.5665
 30
0.0
 10
82.0203
 20
-1380.6786
 30
0.0
 10
82.0317
 20
-1378.6576
 30
0.0
 10
82.0317
 20
-1378.6576
 30
0.0
 10
82.0321
 20
-1372.877
 30
0.0
 10
82.0321
 20
-1367.0967
 30
0.0
 10
82.0317
 20
-1361.3169
 30
0.0
 10
82.0317
 20
-1361.3169
 30
0.0
 10
82.036
 20
-1359.1749
 30
0.0
 10
83.8131
 20
-1357.4524
 30
0.0
 10
86.0029
 20
-1357.466
 30
0.0
  0
SPLINE
  5
3D
330
17
100
AcDbEntity
  8
layer 1
 62
250
370
9
100
AcDbSpline
 70
24
 71
3
 72
8
 73
4
 74
0
 42
1e-09
 40
0.0
 40
0.0
 40
0.0
 40
0.0
 40
1.0
 40
1.0
 40
1.0
 40
1.0
 10
69.58359999999999
 20
-1357.4782
 30
0.0
 10
69.58359999999999
 20
-1357.4782
 30
0.0
 10
69.58359999999999
 20
-1382.4523
 30
0.0
 10
69.58359999999999
 20
-1382.4523
 30
0.0
  0
SPLINE
  5
3E
330
17
100
AcDbEntity
  8
layer 1
 62
250
370
9
100
AcDbSpline
 70
11
 71
3
 72
36
 73
32
 74
0
 42
1e-09
 40
0.0
 40
0.0
 40
0.0
 40
0.0
 40
0.1111111111111111
 40
0.1111111111111111
 40
0.1111111111111111
 40
0.1111111111111111
 40
0.2222222222222222
 40
0.2222222222222222
 40
0.2222222222222222
 40
0.2222222222222222
 40
0.3333333333333333
 40
0.3333333333333333
 40
0.3333333333333333
 40
0.3333333333333333
 40
0.4444444444444444
 40
0.4444444444444444
 40
0.4444444444444444
 40
0.4444444444444444
 40
0.5555555555555556
 40
0.5555555555555556
 40
0.5555555555555556
 40
0.5555555555555556
 40
0.6666666666666666
 40
0.6666666666666666
 40
0.6666666666666666
 40
0.6666666666666666
 40
0.7777777777777778
 40
0.7777777777777778
 40
0.7777777777777778
 40
0.7777777777777778
 40
1.0
 40
1.0
 40
1.0
 40
1.0
 10
173.6164
 20
-1358.1051
 30
0.0
 10
175.9421
 20
-1358.1051
 30
0.0
 10
178.2682
 20
-1358.1051
 30
0.0
 10
180.5943
 20
-1358.1051
 30
0.0
 10
180.5943
 20
-1358.1051
 30
0.0
 10
182.5409
 20
-1358.0695
 30
0.0
 10
184.5323
 20
-1359.5611
 30
0.0
 10
184.559
 20
-1361.9987
 30
0.0
 10
184.559
 20
-1361.9987
 30
0.0
 10
184.5586
 20
-1367.7456
 30
0.0
 10
184.5586
 20
-1373.4929
 30
0.0
 10
184.559
 20
-1379.2406
 30
0.0
 10
184.559
 20
-1379.2406
 30
0.0
 10
184.4192
 20
-1381.564
 30
0.0
 10
182.742
 20
-1383.0436
 30
0.0
 10
180.5943
 20
-1383.0544
 30
0.0
 10
180.5943
 20
-1383.0544
 30
0.0
 10
178.2624
 20
-1383.054
 30
0.0
 10
175.9305
 20
-1383.054
 30
0.0
 10
173.599
 20
-1383.0544
 30
0.0
 10
173.599
 20
-1383.0544
 30
0.0
 10
171.674
 20
-1383.1598
 30
0.0
 10
169.7019
 20
-1381.2753
 30
0.0
 10
169.7131
 20
-1379.258
 30
0.0
 10
169.7131
 20
-1379.258
 30
0.0
 10
169.7134
 20
-1373.4879
 30
0.0
 10
169.7134
 20
-1367.7182
 30
0.0
 10
169.7131
 20
-1361.9489
 30
0.0
 10
169.7131
 20
-1361.9489
 30
0.0
 10
169.7173
 20
-1359.8108
 30
0.0
 10
171.464
 20
-1358.0916
 30
0.0
 10
173.6164
 20
-1358.1051
 30
0.0
  0
SPLINE
  5
3F
330
17
100
AcDbEntity
  8
layer 1
 62
250
370
9
100
AcDbSpline
 70
8
 71
3
 72
12
 73
8
 74
0
 42
1e-09
 40
0.0
 40
0.0
 40
0.0
 40
0.0
 40
0.3333333333333333
 40
0.3333333333333333
 40
0.3333333333333333
 40
0.3333333333333333
 40
1.0
 40
1.0
 40
1.0
 40
1.0
 10
164.4577
 20
-1358.1048
 30
0.0
 10
164.4577
 20
-1358.1048
 30
0.0
 10
157.1353
 20
-1370.0035
 30
0.0
 10
157.1353
 20
-1370.0035
 30
0.0
 10
157.1353
 20
-1370.0035
 30
0.0
 10
157.1353
 20
-1370.0035
 30
0.0
 10
157.136
 20
-1383.0584
 30
0.0
 10
157.136
 20
-1383.0584
 30
0.0
  0
SPLINE
  5
40
330
17
100
AcDbEntity
  8
layer 1
 62
250
370
9
100
AcDbSpline
 70
24
 71
3
 72
8
 73
4
 74
0
 42
1e-09
 40
0.0
 40
0.0
 40
0.0
 40
0.0
 40
1.0
 40
1.0
 40
1.0
 40
1.0
 10
157.1353
 20
-1370.0035
 30
0.0
 10
157.1353
 20
-1370.0035
 30
0.0
 10
149.8144
 20
-1358.1048
 30
0.0
 10
149.8144
 20
-1358.1048
 30
0.0
  0
SPLINE
  5
41
330
17
100
AcDbEntity
  8
layer 1
 62
250
370
9
100
AcDbSpline
 70
8
 71
3
 72
28
 73
24
 74
0
 42
1e-09
 40
0.0
 40
0.0
 40
0.0
 40
0.0
 40
0.1428571428571428
 40
0.1428571428571428
 40
0.1428571428571428
 40
0.1428571428571428
 40
0.2857142857142857
 40
0.2857142857142857
 40
0.2857142857142857
 40
0.2857142857142857
 40
0.4285714285714285
 40
0.4285714285714285
 40
0.4285714285714285
 40
0.4285714285714285
 40
0.5714285714285714
 40
0.5714285714285714
 40
0.5714285714285714
 40
0.5714285714285714
 40
0.7142857142857143
 40
0.7142857142857143
 40
0.7142857142857143
 40
0.7142857142857143
 40
1.0
 40
1.0
 40
1.0
 40
1.0
 10
109.8039
 20
-1383.0584
 30
0.0
 10
109.8039
 20
-1383.0584
 30
0.0
 10
109.8039
 20
-1358.1048
 30
0.0
 10
109.8039
 20
-1358.1048
 30
0.0
 10
109.8039
 20
-1358.1048
 30
0.0
 10
113.3989
 20
-1358.1048
 30
0.0
 10
116.9942
 20
-1358.1048
 30
0.0
 10
120.5896
 20
-1358.1048
 30
0.0
 10
120.5896
 20
-1358.1048
 30
0.0
 10
122.9148
 20
-1358.1427
 30
0.0
 10
124.4722
 20
-1359.6328
 30
0.0
 10
124.468
 20
-1361.9989
 30
0.0
 10
124.468
 20
-1361.9989
 30
0.0
 10
124.4676
 20
-1364.0346
 30
0.0
 10
124.4676
 20
-1367.0939
 30
0.0
 10
124.468
 20
-1369.1299
 30
0.0
 10
124.468
 20
-1369.1299
 30
0.0
 10
124.4615
 20
-1371.0053
 30
0.0
 10
122.6493
 20
-1372.9472
 30
0.0
 10
120.6397
 20
-1372.9663
 30
0.0
 10
120.6397
 20
-1372.9663
 30
0.0
 10
120.6397
 20
-1372.9663
 30
0.0
 10
109.8039
 20
-1372.9663
 30
0.0
 10
109.8039
 20
-1372.9663
 30
0.0
  0
SPLINE
  5
42
330
17
100
AcDbEntity
  8
layer 1
 62
250
370
9
100
AcDbSpline
 70
8
 71
3
 72
12
 73
8
 74
0
 42
1e-09
 40
0.0
 40
0.0
 40
0.0
 40
0.0
 40
0.3333333333333333
 40
0.3333333333333333
 40
0.3333333333333333
 40
0.3333333333333333
 40
1.0
 40
1.0
 40
1.0
 40
1.0
 10
129.66559999999998
 20
-1383.0583
 30
0.0
 10
129.66559999999998
 20
-1383.0583
 30
0.0
 10
137.03660000000002
 20
-1358.1048
 30
0.0
 10
137.03660000000002
 20
-1358.1048
 30
0.0
 10
137.03660000000002
 20
-1358.1048
 30
0.0
 10
137.03660000000002
 20
-1358.1048
 30
0.0
 10
144.6065
 20
-1383.0583
 30
0.0
 10
144.6065
 20
-1383.0583
 30
0.0
  0
SPLINE
  5
43
330
17
100
AcDbEntity
  8
layer 1
 62
250
370
9
100
AcDbSpline
 70
24
 71
3
 72
8
 73
4
 74
0
 42
1e-09
 40
0.0
 40
0.0
 40
0.0
 40
0.0
 40
1.0
 40
1.0
 40
1.0
 40
1.0
 10
132.38819999999998
 20
-1373.8089
 30
0.0
 10
132.38819999999998
 20
-1373.8089
 30
0.0
 10
141.8839
 20
-1373.8089
 30
0.0
 10
141.8839
 20
-1373.8089
 30
0.0
  0
SPLINE
  5
44
330
17
100
AcDbEntity
  8
layer 1
 62
250
370
9
100
AcDbSpline
 70
8
 71
3
 72
12
 73
8
 74
0
 42
1e-09
 40
0.0
 40
0.0
 40
0.0
 40
0.0
 40
0.3333333333333333
 40
0.3333333333333333
 40
0.3333333333333333
 40
0.3333333333333333
 40
1.0
 40
1.0
 40
1.0
 40
1.0
 10
203.6105
 20
-1383.0584
 30
0.0
 10
203.6105
 20
-1383.0584
 30
0.0
 10
190.6614
 20
-1383.0584
 30
0.0
 10
190.6614
 20
-1383.0584
 30
0.0
 10
190.6614
 20
-1383.0584
 30
0.0
 10
190.6614
 20
-1383.0584
 30
0.0
 10
190.6614
 20
-1358.1048
 30
0.0
 10
190.6614
 20
-1358.1048
 30
0.0
  0
SPLINE
  5
45
330
17
100
AcDbEntity
  8
layer 1
 62
242
370
9
100
AcDbSpline
 70
11
 71
3
 72
444
 73
440
 74
0
 42
1e-09
 40
0.0
 40
0.0
 40
0.0
 40
0.0
 40
0.009009009009009
 40
0.009009009009009
 40
0.009009009009009
 40
0.009009009009009
 40
0.018018018018018
 40
0.018018018018018
 40
0.018018018018018
 40
0.018018018018018
 40
0.027027027027027
 40
0.027027027027027
 40
0.027027027027027
 40
0.027027027027027
 40
0.036036036036036
 40
0.036036036036036
 40
0.036036036036036
 40
0.036036036036036
 40
0.045045045045045
 40
0.045045045045045
 40
0.045045045045045
 40
0.045045045045045
 40
0.0540540540540541
 40
0.0540540540540541
 40
0.0540540540540541
 40
0.0540540540540541
 40
0.0630630630630631
 40
0.0630630630630631
 40
0.0630630630630631
 40
0.0630630630630631
 40
0.0720720720720721
 40
0.0720720720720721
 40
0.0720720720720721
 40
0.0720720720720721
 40
0.0810810810810811
 40
0.0810810810810811
 40
0.0810810810810811
 40
0.0810810810810811
 40
0.0900900900900901
 40
0.0900900900900901
 40
0.0900900900900901
 40
0.0900900900900901
 40
0.0990990990990991
 40
0.0990990990990991
 40
0.0990990990990991
 40
0.0990990990990991
 40
0.1081081081081081
 40
0.1081081081081081
 40
0.1081081081081081
 40
0.1081081081081081
 40
0.1171171171171171
 40
0.1171171171171171
 40
0.1171171171171171
 40
0.1171171171171171
 40
0.1261261261261261
 40
0.1261261261261261
 40
0.1261261261261261
 40
0.1261261261261261
 40
0.1351351351351351
 40
0.1351351351351351
 40
0.1351351351351351
 40
0.1351351351351351
 40
0.1441441441441441
 40
0.1441441441441441
 40
0.1441441441441441
 40
0.1441441441441441
 40
0.1531531531531531
 40
0.1531531531531531
 40
0.1531531531531531
 40
0.1531531531531531
 40
0.1621621621621622
 40
0.1621621621621622
 40
0.1621621621621622
 40
0.1621621621621622
 40
0.1711711711711712
 40
0.1711711711711712
 40
0.1711711711711712
 40
0.1711711711711712
 40
0.1801801801801802
 40
0.1801801801801802
 40
0.1801801801801802
 40
0.1801801801801802
 40
0.1891891891891892
 40
0.1891891891891892
 40
0.1891891891891892
 40
0.1891891891891892
 40
0.1981981981981982
 40
0.1981981981981982
 40
0.1981981981981982
 40
0.1981981981981982
 40
0.2072072072072072
 40
0.2072072072072072
 40
0.2072072072072072
 40
0.2072072072072072
 40
0.2162162162162162
 40
0.2162162162162162
 40
0.2162162162162162
 40
0.2162162162162162
 40
0.2252252252252252
 40
0.2252252252252252
 40
0.2252252252252252
 40
0.2252252252252252
 40
0.2342342342342342
 40
0.2342342342342342
 40
0.2342342342342342
 40
0.2342342342342342
 40
0.2432432432432433
 40
0.2432432432432433
 40
0.2432432432432433
 40
0.2432432432432433
 40
0.2522522522522522
 40
0.2522522522522522
 40
0.2522522522522522
 40
0.2522522522522522
 40
0.2612612612612613
 40
0.2612612612612613
 40
0.2612612612612613
 40
0.2612612612612613
 40
0.2702702702702703
 40
0.2702702702702703
 40
0.2702702702702703
 40
0.2702702702702703
 40
0.2792792792792793
 40
0.2792792792792793
 40
0.2792792792792793
 40
0.2792792792792793
 40
0.2882882882882883
 40
0.2882882882882883
 40
0.2882882882882883
 40
0.2882882882882883
 40
0.2972972972972973
 40
0.2972972972972973
 40
0.2972972972972973
 40
0.2972972972972973
 40
0.3063063063063063
 40
0.3063063063063063
 40
0.3063063063063063
 40
0.3063063063063063
 40
0.3153153153153153
 40
0.3153153153153153
 40
0.3153153153153153
 40
0.3153153153153153
 40
0.3243243243243243
 40
0.3243243243243243
 40
0.3243243243243243
 40
0.3243243243243243
 40
0.3333333333333333
 40
0.3333333333333333
 40
0.3333333333333333
 40
0.3333333333333333
 40
0.3423423423423423
 40
0.3423423423423423
 40
0.3423423423423423
 40
0.3423423423423423
 40
0.3513513513513514
 40
0.3513513513513514
 40
0.3513513513513514
 40
0.3513513513513514
 40
0.3603603603603603
 40
0.3603603603603603
 40
0.3603603603603603
 40
0.3603603603603603
 40
0.3693693693693694
 40
0.3693693693693694
 40
0.3693693693693694
 40
0.3693693693693694
 40
0.3783783783783784
 40
0.3783783783783784
 40
0.3783783783783784
 40
0.3783783783783784
 40
0.3873873873873874
 40
0.3873873873873874
 40
0.3873873873873874
 40
0.3873873873873874
 40
0.3963963963963964
 40
0.3963963963963964
 40
0.3963963963963964
 40
0.3963963963963964
 40
0.4054054054054054
 40
0.4054054054054054
 40
0.4054054054054054
 40
0.4054054054054054
 40
0.4144144144144144
 40
0.4144144144144144
 40
0.4144144144144144
 40
0.4144144144144144
 40
0.4234234234234234
 40
0.4234234234234234
 40
0.4234234234234234
 40
0.4234234234234234
 40
0.4324324324324325
 40
0.4324324324324325
 40
0.4324324324324325
 40
0.4324324324324325
 40
0.4414414414414414
 40
0.4414414414414414
 40
0.4414414414414414
 40
0.4414414414414414
 40
0.4504504504504505
 40
0.4504504504504505
 40
0.4504504504504505
 40
0.4504504504504505
 40
0.4594594594594595
 40
0.4594594594594595
 40
0.4594594594594595
 40
0.4594594594594595
 40
0.4684684684684685
 40
0.4684684684684685
 40
0.4684684684684685
 40
0.4684684684684685
 40
0.4774774774774775
 40
0.4774774774774775
 40
0.4774774774774775
 40
0.4774774774774775
 40
0.4864864864864865
 40
0.4864864864864865
 40
0.4864864864864865
 40
0.4864864864864865
 40
0.4954954954954955
 40
0.4954954954954955
 40
0.4954954954954955
 40
0.4954954954954955
 40
0.5045045045045045
 40
0.5045045045045045
 40
0.5045045045045045
 40
0.5045045045045045
 40
0.5135135135135135
 40
0.5135135135135135
 40
0.5135135135135135
 40
0.5135135135135135
 40
0.5225225225225225
 40
0.5225225225225225
 40
0.5225225225225225
 40
0.5225225225225225
 40
0.5315315315315315
 40
0.5315315315315315
 40
0.5315315315315315
 40
0.5315315315315315
 40
0.5405405405405406
 40
0.5405405405405406
 40
0.5405405405405406
 40
0.5405405405405406
 40
0.5495495495495496
 40
0.5495495495495496
 40
0.5495495495495496
 40
0.5495495495495496
 40
0.5585585585585585
 40
0.5585585585585585
 40
0.5585585585585585
 40
0.5585585585585585
 40
0.5675675675675675
 40
0.5675675675675675
 40
0.5675675675675675
 40
0.5675675675675675
 40
0.5765765765765766
 40
0.5765765765765766
 40
0.5765765765765766
 40
0.5765765765765766
 40
0.5855855855855856
 40
0.5855855855855856
 40
0.5855855855855856
 40
0.5855855855855856
 40
0.5945945945945946
 40
0.5945945945945946
 40
0.5945945945945946
 40
0.5945945945945946
 40
0.6036036036036037
 40
0.6036036036036037
 40
0.6036036036036037
 40
0.6036036036036037
 40
0.6126126126126126
 40
0.6126126126126126
 40
0.6126126126126126
 40
0.6126126126126126
 40
0.6216216216216216
 40
0.6216216216216216
 40
0.6216216216216216
 40
0.6216216216216216
 40
0.6306306306306306
 40
0.6306306306306306
 40
0.6306306306306306
 40
0.6306306306306306
 40
0.6396396396396397
 40
0.6396396396396397
 40
0.6396396396396397
 40
0.6396396396396397
 40
0.6486486486486487
 40
0.6486486486486487
 40
0.6486486486486487
 40
0.6486486486486487
 40
0.6576576576576577
 40
0.6576576576576577
 40
0.6576576576576577
 40
0.6576576576576577
 40
0.6666666666666666
 40
0.6666666666666666
 40
0.6666666666666666
 40
0.6666666666666666
 40
0.6756756756756757
 40
0.6756756756756757
 40
0.6756756756756757
 40
0.6756756756756757
 40
0.6846846846846847
 40
0.6846846846846847
 40
0.6846846846846847
 40
0.6846846846846847
 40
0.6936936936936937
 40
0.6936936936936937
 40
0.6936936936936937
 40
0.6936936936936937
 40
0.7027027027027027
 40
0.7027027027027027
 40
0.7027027027027027
 40
0.7027027027027027
 40
0.7117117117117117
 40
0.7117117117117117
 40
0.7117117117117117
 40
0.7117117117117117
 40
0.7207207207207207
 40
0.7207207207207207
 40
0.7207207207207207
 40
0.7207207207207207
 40
0.7297297297297297
 40
0.7297297297297297
 40
0.7297297297297297
 40
0.7297297297297297
 40
0.7387387387387387
 40
0.7387387387387387
 40
0.7387387387387387
 40
0.7387387387387387
 40
0.7477477477477478
 40
0.7477477477477478
 40
0.7477477477477478
 40
0.7477477477477478
 40
0.7567567567567568
 40
0.7567567567567568
 40
0.7567567567567568
 40
0.7567567567567568
 40
0.7657657657657657
 40
0.7657657657657657
 40
0.7657657657657657
 40
0.7657657657657657
 40
0.7747747747747747
 40
0.7747747747747747
 40
0.7747747747747747
 40
0.7747747747747747
 40
0.7837837837837838
 40
0.7837837837837838
 40
0.7837837837837838
 40
0.7837837837837838
 40
0.7927927927927928
 40
0.7927927927927928
 40
0.7927927927927928
 40
0.7927927927927928
 40
0.8018018018018018
 40
0.8018018018018018
 40
0.8018018018018018
 40
0.8018018018018018
 40
0.8108108108108109
 40
0.8108108108108109
 40
0.8108108108108109
 40
0.8108108108108109
 40
0.8198198198198198
 40
0.8198198198198198
 40
0.8198198198198198
 40
0.8198198198198198
 40
0.8288288288288288
 40
0.8288288288288288
 40
0.8288288288288288
 40
0.8288288288288288
 40
0.8378378378378378
 40
0.8378378378378378
 40
0.8378378378378378
 40
0.8378378378378378
 40
0.8468468468468469
 40
0.8468468468468469
 40
0.8468468468468469
 40
0.8468468468468469
 40
0.8558558558558559
 40
0.8558558558558559
 40
0.8558558558558559
 40
0.8558558558558559
 40
0.8648648648648649
 40
0.8648648648648649
 40
0.8648648648648649
 40
0.8648648648648649
 40
0.8738738738738738
 40
0.8738738738738738
 40
0.8738738738738738
 40
0.8738738738738738
 40
0.8828828828828829
 40
0.8828828828828829
 40
0.8828828828828829
 40
0.8828828828828829
 40
0.8918918918918919
 40
0.8918918918918919
 40
0.8918918918918919
 40
0.8918918918918919
 40
0.9009009009009009
 40
0.9009009009009009
 40
0.9009009009009009
 40
0.9009009009009009
 40
0.9099099099099099
 40
0.9099099099099099
 40
0.9099099099099099
 40
0.9099099099099099
 40
0.918918918918919
 40
0.918918918918919
 40
0.918918918918919
 40
0.918918918918919
 40
0.9279279279279279
 40
0.9279279279279279
 40
0.9279279279279279
 40
0.9279279279279279
 40
0.9369369369369369
 40
0.9369369369369369
 40
0.9369369369369369
 40
0.9369369369369369
 40
0.9459459459459459
 40
0.9459459459459459
 40
0.9459459459459459
 40
0.9459459459459459
 40
0.954954954954955
 40
0.954954954954955
 40
0.954954954954955
 40
0.954954954954955
 40
0.963963963963964
 40
0.963963963963964
 40
0.963963963963964
 40
0.963963963963964
 40
0.972972972972973
 40
0.972972972972973
 40
0.972972972972973
 40
0.972972972972973
 40
0.9819819819819819
 40
0.9819819819819819
 40
0.9819819819819819
 40
0.9819819819819819
 40
1.0
 40
1.0
 40
1.0
 40
1.0
 10
532.4999
 20
-1226.3391
 30
0.0
 10
532.4999
 20
-1226.3391
 30
0.0
 10
533.5871
 20
-1227.0652
 30
0.0
 10
533.5871
 20
-1227.0652
 30
0.0
 10
533.5871
 20
-1227.0652
 30
0.0
 10
533.5871
 20
-1227.0652
 30
0.0
 10
534.5709
 20
-1227.9288
 30
0.0
 10
534.5709
 20
-1227.9288
 30
0.0
 10
534.5709
 20
-1227.9288
 30
0.0
 10
534.5709
 20
-1227.9288
 30
0.0
 10
535.4339
 20
-1228.912
 30
0.0
 10
535.4339
 20
-1228.912
 30
0.0
 10
535.4339
 20
-1228.912
 30
0.0
 10
535.4339
 20
-1228.912
 30
0.0
 10
536.16
 20
-1229.9992
 30
0.0
 10
536.16
 20
-1229.9992
 30
0.0
 10
536.16
 20
-1229.9992
 30
0.0
 10
536.16
 20
-1229.9992
 30
0.0
 10
536.7387
 20
-1231.1719
 30
0.0
 10
536.7387
 20
-1231.1719
 30
0.0
 10
536.7387
 20
-1231.1719
 30
0.0
 10
536.7387
 20
-1231.1719
 30
0.0
 10
537.1589
 20
-1232.4113
 30
0.0
 10
537.1589
 20
-1232.4113
 30
0.0
 10
537.1589
 20
-1232.4113
 30
0.0
 10
537.1589
 20
-1232.4113
 30
0.0
 10
537.4144
 20
-1233.6928
 30
0.0
 10
537.4144
 20
-1233.6928
 30
0.0
 10
537.4144
 20
-1233.6928
 30
0.0
 10
537.4144
 20
-1233.6928
 30
0.0
 10
537.4989
 20
-1234.9993
 30
0.0
 10
537.4989
 20
-1234.9993
 30
0.0
 10
537.4989
 20
-1234.9993
 30
0.0
 10
537.4989
 20
-1234.9993
 30
0.0
 10
537.4989
 20
-1429.9996
 30
0.0
 10
537.4989
 20
-1429.9996
 30
0.0
 10
537.4989
 20
-1429.9996
 30
0.0
 10
537.4989
 20
-1429.9996
 30
0.0
 10
457.5005
 20
-1499.9989
 30
0.0
 10
457.5005
 20
-1499.9989
 30
0.0
 10
457.5005
 20
-1499.9989
 30
0.0
 10
457.5005
 20
-1499.9989
 30
0.0
 10
-437.5005
 20
-1499.9989
 30
0.0
 10
-437.5005
 20
-1499.9989
 30
0.0
 10
-437.5005
 20
-1499.9989
 30
0.0
 10
-437.5005
 20
-1499.9989
 30
0.0
 10
-517.4989
 20
-1429.9996
 30
0.0
 10
-517.4989
 20
-1429.9996
 30
0.0
 10
-517.4989
 20
-1429.9996
 30
0.0
 10
-517.4989
 20
-1429.9996
 30
0.0
 10
-517.4989
 20
-1234.9993
 30
0.0
 10
-517.4989
 20
-1234.9993
 30
0.0
 10
-517.4989
 20
-1234.9993
 30
0.0
 10
-517.4989
 20
-1234.9993
 30
0.0
 10
-517.415
 20
-1233.6928
 30
0.0
 10
-517.415
 20
-1233.6928
 30
0.0
 10
-517.415
 20
-1233.6928
 30
0.0
 10
-517.415
 20
-1233.6928
 30
0.0
 10
-517.1589
 20
-1232.4113
 30
0.0
 10
-517.1589
 20
-1232.4113
 30
0.0
 10
-517.1589
 20
-1232.4113
 30
0.0
 10
-517.1589
 20
-1232.4113
 30
0.0
 10
-516.7387
 20
-1231.1719
 30
0.0
 10
-516.7387
 20
-1231.1719
 30
0.0
 10
-516.7387
 20
-1231.1719
 30
0.0
 10
-516.7387
 20
-1231.1719
 30
0.0
 10
-516.16
 20
-1229.9992
 30
0.0
 10
-516.16
 20
-1229.9992
 30
0.0
 10
-516.16
 20
-1229.9992
 30
0.0
 10
-516.16
 20
-1229.9992
 30
0.0
 10
-515.4344
 20
-1228.912
 30
0.0
 10
-515.4344
 20
-1228.912
 30
0.0
 10
-515.4344
 20
-1228.912
 30
0.0
 10
-515.4344
 20
-1228.912
 30
0.0
 10
-514.5709
 20
-1227.9288
 30
0.0
 10
-514.5709
 20
-1227.9288
 30
0.0
 10
-514.5709
 20
-1227.9288
 30
0.0
 10
-514.5709
 20
-1227.9288
 30
0.0
 10
-513.5871
 20
-1227.0652
 30
0.0
 10
-513.5871
 20
-1227.0652
 30
0.0
 10
-513.5871
 20
-1227.0652
 30
0.0
 10
-513.5871
 20
-1227.0652
 30
0.0
 10
-512.5004
 20
-1226.3391
 30
0.0
 10
-512.5004
 20
-1226.3391
 30
0.0
 10
-512.5004
 20
-1226.3391
 30
0.0
 10
-512.5004
 20
-1226.3391
 30
0.0
 10
-511.32770000000005
 20
-1225.7609
 30
0.0
 10
-511.32770000000005
 20
-1225.7609
 30
0.0
 10
-511.32770000000005
 20
-1225.7609
 30
0.0
 10
-511.32770000000005
 20
-1225.7609
 30
0.0
 10
-510.0878
 20
-1225.3402
 30
0.0
 10
-510.0878
 20
-1225.3402
 30
0.0
 10
-510.0878
 20
-1225.3402
 30
0.0
 10
-510.0878
 20
-1225.3402
 30
0.0
 10
-508.80460000000005
 20
-1225.0847
 30
0.0
 10
-508.80460000000005
 20
-1225.0847
 30
0.0
 10
-508.80460000000005
 20
-1225.0847
 30
0.0
 10
-508.80460000000005
 20
-1225.0847
 30
0.0
 10
-507.49980000000005
 20
-1224.9986
 30
0.0
 10
-507.49980000000005
 20
-1224.9986
 30
0.0
 10
-507.49980000000005
 20
-1224.9986
 30
0.0
 10
-507.49980000000005
 20
-1224.9986
 30
0.0
 10
-467.5
 20
-1224.9986
 30
0.0
 10
-467.5
 20
-1224.9986
 30
0.0
 10
-467.5
 20
-1224.9986
 30
0.0
 10
-467.5
 20
-1224.9986
 30
0.0
 10
-464.8887
 20
-1224.8286
 30
0.0
 10
-464.8887
 20
-1224.8286
 30
0.0
 10
-464.8887
 20
-1224.8286
 30
0.0
 10
-464.8887
 20
-1224.8286
 30
0.0
 10
-462.3234
 20
-1224.3185
 30
0.0
 10
-462.3234
 20
-1224.3185
 30
0.0
 10
-462.3234
 20
-1224.3185
 30
0.0
 10
-462.3234
 20
-1224.3185
 30
0.0
 10
-459.8464
 20
-1223.4761
 30
0.0
 10
-459.8464
 20
-1223.4761
 30
0.0
 10
-459.8464
 20
-1223.4761
 30
0.0
 10
-459.8464
 20
-1223.4761
 30
0.0
 10
-457.5009
 20
-1222.3207
 30
0.0
 10
-457.5009
 20
-1222.3207
 30
0.0
 10
-457.5009
 20
-1222.3207
 30
0.0
 10
-457.5009
 20
-1222.3207
 30
0.0
 10
-455.3254
 20
-1220.8669
 30
0.0
 10
-455.3254
 20
-1220.8669
 30
0.0
 10
-455.3254
 20
-1220.8669
 30
0.0
 10
-455.3254
 20
-1220.8669
 30
0.0
 10
-453.3579
 20
-1219.1403
 30
0.0
 10
-453.3579
 20
-1219.1403
 30
0.0
 10
-453.3579
 20
-1219.1403
 30
0.0
 10
-453.3579
 20
-1219.1403
 30
0.0
 10
-451.6329
 20
-1217.1749
 30
0.0
 10
-451.6329
 20
-1217.1749
 30
0.0
 10
-451.6329
 20
-1217.1749
 30
0.0
 10
-451.6329
 20
-1217.1749
 30
0.0
 10
-450.1797
 20
-1214.9994
 30
0.0
 10
-450.1797
 20
-1214.9994
 30
0.0
 10
-450.1797
 20
-1214.9994
 30
0.0
 10
-450.1797
 20
-1214.9994
 30
0.0
 10
-449.0221
 20
-1212.6518
 30
0.0
 10
-449.0221
 20
-1212.6518
 30
0.0
 10
-449.0221
 20
-1212.6518
 30
0.0
 10
-449.0221
 20
-1212.6518
 30
0.0
 10
-448.1818
 20
-1210.1748
 30
0.0
 10
-448.1818
 20
-1210.1748
 30
0.0
 10
-448.1818
 20
-1210.1748
 30
0.0
 10
-448.1818
 20
-1210.1748
 30
0.0
 10
-447.6718
 20
-1207.6095
 30
0.0
 10
-447.6718
 20
-1207.6095
 30
0.0
 10
-447.6718
 20
-1207.6095
 30
0.0
 10
-447.6718
 20
-1207.6095
 30
0.0
 10
-447.4996
 20
-1205.0003
 30
0.0
 10
-447.4996
 20
-1205.0003
 30
0.0
 10
-447.4996
 20
-1205.0003
 30
0.0
 10
-447.4996
 20
-1205.0003
 30
0.0
 10
-447.4996
 20
210.00069999999994
 30
0.0
 10
-447.4996
 20
210.00069999999994
 30
0.0
 10
-447.4996
 20
210.00069999999994
 30
0.0
 10
-447.4996
 20
210.00069999999994
 30
0.0
 10
-447.6696
 20
212.6023
 30
0.0
 10
-447.6696
 20
212.6023
 30
0.0
 10
-447.6696
 20
212.6023
 30
0.0
 10
-447.6696
 20
212.6023
 30
0.0
 10
-448.178
 20
215.15949999999998
 30
0.0
 10
-448.178
 20
215.15949999999998
 30
0.0
 10
-448.178
 20
215.15949999999998
 30
0.0
 10
-448.178
 20
215.15949999999998
 30
0.0
 10
-449.0124
 20
217.63109999999995
 30
0.0
 10
-449.0124
 20
217.63109999999995
 30
0.0
 10
-449.0124
 20
217.63109999999995
 30
0.0
 10
-449.0124
 20
217.63109999999995
 30
0.0
 10
-450.1624
 20
219.97120000000007
 30
0.0
 10
-450.1624
 20
219.97120000000007
 30
0.0
 10
-450.1624
 20
219.97120000000007
 30
0.0
 10
-450.1624
 20
219.97120000000007
 30
0.0
 10
-451.6085
 20
222.14289999999994
 30
0.0
 10
-451.6085
 20
222.14289999999994
 30
0.0
 10
-451.6085
 20
222.14289999999994
 30
0.0
 10
-451.6085
 20
222.14289999999994
 30
0.0
 10
-453.3232
 20
224.10609999999997
 30
0.0
 10
-453.3232
 20
224.10609999999997
 30
0.0
 10
-453.3232
 20
224.10609999999997
 30
0.0
 10
-453.3232
 20
224.10609999999997
 30
0.0
 10
-455.2794
 20
225.8311
 30
0.0
 10
-455.2794
 20
225.8311
 30
0.0
 10
-455.2794
 20
225.8311
 30
0.0
 10
-455.2794
 20
225.8311
 30
0.0
 10
-457.4413
 20
227.28639999999996
 30
0.0
 10
-457.4413
 20
227.28639999999996
 30
0.0
 10
-457.4413
 20
227.28639999999996
 30
0.0
 10
-457.4413
 20
227.28639999999996
 30
0.0
 10
-459.7776
 20
228.44999999999993
 30
0.0
 10
-459.7776
 20
228.44999999999993
 30
0.0
 10
-459.7776
 20
228.44999999999993
 30
0.0
 10
-459.7776
 20
228.44999999999993
 30
0.0
 10
-462.2433
 20
229.29779999999994
 30
0.0
 10
-462.2433
 20
229.29779999999994
 30
0.0
 10
-462.2433
 20
229.29779999999994
 30
0.0
 10
-462.2433
 20
229.29779999999994
 30
0.0
 10
-464.7988
 20
229.81709999999998
 30
0.0
 10
-464.7988
 20
229.81709999999998
 30
0.0
 10
-464.7988
 20
229.81709999999998
 30
0.0
 10
-464.7988
 20
229.81709999999998
 30
0.0
 10
-467.4004
 20
230.00059999999996
 30
0.0
 10
-467.4004
 20
230.00059999999996
 30
0.0
 10
-467.4004
 20
230.00059999999996
 30
0.0
 10
-467.4004
 20
230.00059999999996
 30
0.0
 10
-507.49980000000005
 20
230.00059999999996
 30
0.0
 10
-507.49980000000005
 20
230.00059999999996
 30
0.0
 10
-507.49980000000005
 20
230.00059999999996
 30
0.0
 10
-507.49980000000005
 20
230.00059999999996
 30
0.0
 10
-508.80460000000005
 20
230.08669999999995
 30
0.0
 10
-508.80460000000005
 20
230.08669999999995
 30
0.0
 10
-508.80460000000005
 20
230.08669999999995
 30
0.0
 10
-508.80460000000005
 20
230.08669999999995
 30
0.0
 10
-510.0878
 20
230.3406
 30
0.0
 10
-510.0878
 20
230.3406
 30
0.0
 10
-510.0878
 20
230.3406
 30
0.0
 10
-510.0878
 20
230.3406
 30
0.0
 10
-511.32770000000005
 20
230.76080000000002
 30
0.0
 10
-511.32770000000005
 20
230.76080000000002
 30
0.0
 10
-511.32770000000005
 20
230.76080000000002
 30
0.0
 10
-511.32770000000005
 20
230.76080000000002
 30
0.0
 10
-512.5004
 20
231.33960000000002
 30
0.0
 10
-512.5004
 20
231.33960000000002
 30
0.0
 10
-512.5004
 20
231.33960000000002
 30
0.0
 10
-512.5004
 20
231.33960000000002
 30
0.0
 10
-513.5871
 20
232.06730000000005
 30
0.0
 10
-513.5871
 20
232.06730000000005
 30
0.0
 10
-513.5871
 20
232.06730000000005
 30
0.0
 10
-513.5871
 20
232.06730000000005
 30
0.0
 10
-514.5709
 20
232.92870000000005
 30
0.0
 10
-514.5709
 20
232.92870000000005
 30
0.0
 10
-514.5709
 20
232.92870000000005
 30
0.0
 10
-514.5709
 20
232.92870000000005
 30
0.0
 10
-515.4344
 20
233.91250000000002
 30
0.0
 10
-515.4344
 20
233.91250000000002
 30
0.0
 10
-515.4344
 20
233.91250000000002
 30
0.0
 10
-515.4344
 20
233.91250000000002
 30
0.0
 10
-516.16
 20
234.9991
 30
0.0
 10
-516.16
 20
234.9991
 30
0.0
 10
-516.16
 20
234.9991
 30
0.0
 10
-516.16
 20
234.9991
 30
0.0
 10
-516.7387
 20
236.17399999999998
 30
0.0
 10
-516.7387
 20
236.17399999999998
 30
0.0
 10
-516.7387
 20
236.17399999999998
 30
0.0
 10
-516.7387
 20
236.17399999999998
 30
0.0
 10
-517.1589
 20
237.4117
 30
0.0
 10
-517.1589
 20
237.4117
 30
0.0
 10
-517.1589
 20
237.4117
 30
0.0
 10
-517.1589
 20
237.4117
 30
0.0
 10
-517.415
 20
238.69539999999995
 30
0.0
 10
-517.415
 20
238.69539999999995
 30
0.0
 10
-517.415
 20
238.69539999999995
 30
0.0
 10
-517.415
 20
238.69539999999995
 30
0.0
 10
-517.4989
 20
239.99979999999994
 30
0.0
 10
-517.4989
 20
239.99979999999994
 30
0.0
 10
-517.4989
 20
239.99979999999994
 30
0.0
 10
-517.4989
 20
239.99979999999994
 30
0.0
 10
-517.4989
 20
500.0009
 30
0.0
 10
-517.4989
 20
500.0009
 30
0.0
 10
-517.4989
 20
500.0009
 30
0.0
 10
-517.4989
 20
500.0009
 30
0.0
 10
537.4989
 20
500.0009
 30
0.0
 10
537.4989
 20
500.0009
 30
0.0
 10
537.4989
 20
500.0009
 30
0.0
 10
537.4989
 20
500.0009
 30
0.0
 10
537.4989
 20
239.99979999999994
 30
0.0
 10
537.4989
 20
239.99979999999994
 30
0.0
 10
537.4989
 20
239.99979999999994
 30
0.0
 10
537.4989
 20
239.99979999999994
 30
0.0
 10
537.4144
 20
238.69539999999995
 30
0.0
 10
537.4144
 20
238.69539999999995
 30
0.0
 10
537.4144
 20
238.69539999999995
 30
0.0
 10
537.4144
 20
238.69539999999995
 30
0.0
 10
537.1589
 20
237.4117
 30
0.0
 10
537.1589
 20
237.4117
 30
0.0
 10
537.1589
 20
237.4117
 30
0.0
 10
537.1589
 20
237.4117
 30
0.0
 10
536.7387
 20
236.17399999999998
 30
0.0
 10
536.7387
 20
236.17399999999998
 30
0.0
 10
536.7387
 20
236.17399999999998
 30
0.0
 10
536.7387
 20
236.17399999999998
 30
0.0
 10
536.16
 20
234.9991
 30
0.0
 10
536.16
 20
234.9991
 30
0.0
 10
536.16
 20
234.9991
 30
0.0
 10
536.16
 20
234.9991
 30
0.0
 10
535.4339
 20
233.91250000000002
 30
0.0
 10
535.4339
 20
233.91250000000002
 30
0.0
 10
535.4339
 20
233.91250000000002
 30
0.0
 10
535.4339
 20
233.91250000000002
 30
0.0
 10
534.5709
 20
232.92870000000005
 30
0.0
 10
534.5709
 20
232.92870000000005
 30
0.0
 10
534.5709
 20
232.92870000000005
 30
0.0
 10
534.5709
 20
232.92870000000005
 30
0.0
 10
533.5871
 20
232.06730000000005
 30
0.0
 10
533.5871
 20
232.06730000000005
 30
0.0
 10
533.5871
 20
232.06730000000005
 30
0.0
 10
533.5871
 20
232.06730000000005
 30
0.0
 10
532.4999
 20
231.33960000000002
 30
0.0
 10
532.4999
 20
231.33960000000002
 30
0.0
 10
532.4999
 20
231.33960000000002
 30
0.0
 10
532.4999
 20
231.33960000000002
 30
0.0
 10
531.3255
 20
230.76080000000002
 30
0.0
 10
531.3255
 20
230.76080000000002
 30
0.0
 10
531.3255
 20
230.76080000000002
 30
0.0
 10
531.3255
 20
230.76080000000002
 30
0.0
 10
530.0878
 20
230.3406
 30
0.0
 10
530.0878
 20
230.3406
 30
0.0
 10
530.0878
 20
230.3406
 30
0.0
 10
530.0878
 20
230.3406
 30
0.0
 10
528.8041
 20
230.08669999999995
 30
0.0
 10
528.8041
 20
230.08669999999995
 30
0.0
 10
528.8041
 20
230.08669999999995
 30
0.0
 10
528.8041
 20
230.08669999999995
 30
0.0
 10
527.4998
 20
230.00059999999996
 30
0.0
 10
527.4998
 20
230.00059999999996
 30
0.0
 10
527.4998
 20
230.00059999999996
 30
0.0
 10
527.4998
 20
230.00059999999996
 30
0.0
 10
487.3999
 20
230.00059999999996
 30
0.0
 10
487.3999
 20
230.00059999999996
 30
0.0
 10
487.3999
 20
230.00059999999996
 30
0.0
 10
487.3999
 20
230.00059999999996
 30
0.0
 10
484.7988
 20
229.81709999999998
 30
0.0
 10
484.7988
 20
229.81709999999998
 30
0.0
 10
484.7988
 20
229.81709999999998
 30
0.0
 10
484.7988
 20
229.81709999999998
 30
0.0
 10
482.2427
 20
229.29779999999994
 30
0.0
 10
482.2427
 20
229.29779999999994
 30
0.0
 10
482.2427
 20
229.29779999999994
 30
0.0
 10
482.2427
 20
229.29779999999994
 30
0.0
 10
479.7771
 20
228.44999999999993
 30
0.0
 10
479.7771
 20
228.44999999999993
 30
0.0
 10
479.7771
 20
228.44999999999993
 30
0.0
 10
479.7771
 20
228.44999999999993
 30
0.0
 10
477.4413
 20
227.28639999999996
 30
0.0
 10
477.4413
 20
227.28639999999996
 30
0.0
 10
477.4413
 20
227.28639999999996
 30
0.0
 10
477.4413
 20
227.28639999999996
 30
0.0
 10
475.2789
 20
225.8311
 30
0.0
 10
475.2789
 20
225.8311
 30
0.0
 10
475.2789
 20
225.8311
 30
0.0
 10
475.2789
 20
225.8311
 30
0.0
 10
473.3211
 20
224.10609999999997
 30
0.0
 10
473.3211
 20
224.10609999999997
 30
0.0
 10
473.3211
 20
224.10609999999997
 30
0.0
 10
473.3211
 20
224.10609999999997
 30
0.0
 10
471.608
 20
222.14289999999994
 30
0.0
 10
471.608
 20
222.14289999999994
 30
0.0
 10
471.608
 20
222.14289999999994
 30
0.0
 10
471.608
 20
222.14289999999994
 30
0.0
 10
470.1618
 20
219.97120000000007
 30
0.0
 10
470.1618
 20
219.97120000000007
 30
0.0
 10
470.1618
 20
219.97120000000007
 30
0.0
 10
470.1618
 20
219.97120000000007
 30
0.0
 10
469.0124
 20
217.63109999999995
 30
0.0
 10
469.0124
 20
217.63109999999995
 30
0.0
 10
469.0124
 20
217.63109999999995
 30
0.0
 10
469.0124
 20
217.63109999999995
 30
0.0
 10
468.1775
 20
215.15949999999998
 30
0.0
 10
468.1775
 20
215.15949999999998
 30
0.0
 10
468.1775
 20
215.15949999999998
 30
0.0
 10
468.1775
 20
215.15949999999998
 30
0.0
 10
467.6696
 20
212.6023
 30
0.0
 10
467.6696
 20
212.6023
 30
0.0
 10
467.6696
 20
212.6023
 30
0.0
 10
467.6696
 20
212.6023
 30
0.0
 10
467.4996
 20
210.00069999999994
 30
0.0
 10
467.4996
 20
210.00069999999994
 30
0.0
 10
467.4996
 20
210.00069999999994
 30
0.0
 10
467.4996
 20
210.00069999999994
 30
0.0
 10
467.4996
 20
-1205.0003
 30
0.0
 10
467.4996
 20
-1205.0003
 30
0.0
 10
467.4996
 20
-1205.0003
 30
0.0
 10
467.4996
 20
-1205.0003
 30
0.0
 10
467.6712
 20
-1207.6095
 30
0.0
 10
467.6712
 20
-1207.6095
 30
0.0
 10
467.6712
 20
-1207.6095
 30
0.0
 10
467.6712
 20
-1207.6095
 30
0.0
 10
468.1813
 20
-1210.1748
 30
0.0
 10
468.1813
 20
-1210.1748
 30
0.0
 10
468.1813
 20
-1210.1748
 30
0.0
 10
468.1813
 20
-1210.1748
 30
0.0
 10
469.0216
 20
-1212.6518
 30
0.0
 10
469.0216
 20
-1212.6518
 30
0.0
 10
469.0216
 20
-1212.6518
 30
0.0
 10
469.0216
 20
-1212.6518
 30
0.0
 10
470.1791
 20
-1214.9994
 30
0.0
 10
470.1791
 20
-1214.9994
 30
0.0
 10
470.1791
 20
-1214.9994
 30
0.0
 10
470.1791
 20
-1214.9994
 30
0.0
 10
471.6329
 20
-1217.1749
 30
0.0
 10
471.6329
 20
-1217.1749
 30
0.0
 10
471.6329
 20
-1217.1749
 30
0.0
 10
471.6329
 20
-1217.1749
 30
0.0
 10
473.3573
 20
-1219.1403
 30
0.0
 10
473.3573
 20
-1219.1403
 30
0.0
 10
473.3573
 20
-1219.1403
 30
0.0
 10
473.3573
 20
-1219.1403
 30
0.0
 10
475.3249
 20
-1220.8669
 30
0.0
 10
475.3249
 20
-1220.8669
 30
0.0
 10
475.3249
 20
-1220.8669
 30
0.0
 10
475.3249
 20
-1220.8669
 30
0.0
 10
477.4982
 20
-1222.3207
 30
0.0
 10
477.4982
 20
-1222.3207
 30
0.0
 10
477.4982
 20
-1222.3207
 30
0.0
 10
477.4982
 20
-1222.3207
 30
0.0
 10
479.8458
 20
-1223.4761
 30
0.0
 10
479.8458
 20
-1223.4761
 30
0.0
 10
479.8458
 20
-1223.4761
 30
0.0
 10
479.8458
 20
-1223.4761
 30
0.0
 10
482.3234
 20
-1224.3185
 30
0.0
 10
482.3234
 20
-1224.3185
 30
0.0
 10
482.3234
 20
-1224.3185
 30
0.0
 10
482.3234
 20
-1224.3185
 30
0.0
 10
484.8882
 20
-1224.8286
 30
0.0
 10
484.8882
 20
-1224.8286
 30
0.0
 10
484.8882
 20
-1224.8286
 30
0.0
 10
484.8882
 20
-1224.8286
 30
0.0
 10
487.4995
 20
-1224.9986
 30
0.0
 10
487.4995
 20
-1224.9986
 30
0.0
 10
487.4995
 20
-1224.9986
 30
0.0
 10
487.4995
 20
-1224.9986
 30
0.0
 10
527.4998
 20
-1224.9986
 30
0.0
 10
527.4998
 20
-1224.9986
 30
0.0
 10
527.4998
 20
-1224.9986
 30
0.0
 10
527.4998
 20
-1224.9986
 30
0.0
 10
528.8041
 20
-1225.0847
 30
0.0
 10
528.8041
 20
-1225.0847
 30
0.0
 10
528.8041
 20
-1225.0847
 30
0.0
 10
528.8041
 20
-1225.0847
 30
0.0
 10
530.0878
 20
-1225.3402
 30
0.0
 10
530.0878
 20
-1225.3402
 30
0.0
 10
530.0878
 20
-1225.3402
 30
0.0
 10
530.0878
 20
-1225.3402
 30
0.0
 10
531.3255
 20
-1225.7609
 30
0.0
 10
531.3255
 20
-1225.7609
 30
0.0
 10
531.3255
 20
-1225.7609
 30
0.0
 10
531.3255
 20
-1225.7609
 30
0.0
 10
532.4999
 20
-1226.3391
 30
0.0
 10
532.4999
 20
-1226.3391
 30
0.0
  0
SPLINE
  5
46
330
17
100
AcDbEntity
  8
layer 1
 62
242
370
9
100
AcDbSpline
 70
11
 71
3
 72
20
 73
16
 74
0
 42
1e-09
 40
0.0
 40
0.0
 40
0.0
 40
0.0
 40
0.2
 40
0.2
 40
0.2
 40
0.2
 40
0.4
 40
0.4
 40
0.4
 40
0.4
 40
0.6
 40
0.6
 40
0.6
 40
0.6
 40
1.0
 40
1.0
 40
1.0
 40
1.0
 10
807.7753893284471
 20
-979.9993
 30
0.0
 10
807.7753893284471
 20
-979.9993
 30
0.0
 10
807.7753893284471
 20
19.999500000000012
 30
0.0
 10
807.7753893284471
 20
19.999500000000012
 30
0.0
 10
807.7753893284471
 20
19.999500000000012
 30
0.0
 10
807.7753893284471
 20
19.999500000000012
 30
0.0
 10
1107.774789328447
 20
19.999500000000012
 30
0.0
 10
1107.774789328447
 20
19.999500000000012
 30
0.0
 10
1107.774789328447
 20
19.999500000000012
 30
0.0
 10
1107.774789328447
 20
19.999500000000012
 30
0.0
 10
1107.774789328447
 20
-979.9993
 30
0.0
 10
1107.774789328447
 20
-979.9993
 30
0.0
 10
1107.774789328447
 20
-979.9993
 30
0.0
 10
1107.774789328447
 20
-979.9993
 30
0.0
 10
807.7753893284471
 20
-979.9993
 30
0.0
 10
807.7753893284471
 20
-979.9993
 30
0.0
  0
SPLINE
  5
47
330
17
100
AcDbEntity
  8
layer 1
 62
250
370
9
100
AcDbSpline
 70
8
 71
3
 72
32
 73
28
 74
0
 42
1e-09
 40
0.0
 40
0.0
 40
0.0
 40
0.0
 40
0.125
 40
0.125
 40
0.125
 40
0.125
 40
0.25
 40
0.25
 40
0.25
 40
0.25
 40
0.375
 40
0.375
 40
0.375
 40
0.375
 40
0.5
 40
0.5
 40
0.5
 40
0.5
 40
0.625
 40
0.625
 40
0.625
 40
0.625
 40
0.75
 40
0.75
 40
0.75
 40
0.75
 40
1.0
 40
1.0
 40
1.0
 40
1.0
 10
959.2155738867003
 20
1251.0955920588963
 30
0.0
 10
959.2155738867003
 20
1251.0955920588963
 30
0.0
 10
934.2620738867003
 20
1251.0955920588963
 30
0.0
 10
934.2620738867003
 20
1251.0955920588963
 30
0.0
 10
934.2620738867003
 20
1251.0955920588963
 30
0.0
 10
934.2620738867003
 20
1254.6903920588961
 30
0.0
 10
934.2620738867003
 20
1258.285892058896
 30
0.0
 10
934.2620738867003
 20
1261.8810920588962
 30
0.0
 10
934.2620738867003
 20
1261.8810920588962
 30
0.0
 10
934.2997738867003
 20
1264.2063920588962
 30
0.0
 10
935.7897738867003
 20
1265.7636920588961
 30
0.0
 10
938.1561738867003
 20
1265.759592058896
 30
0.0
 10
938.1561738867003
 20
1265.759592058896
 30
0.0
 10
940.1916738867003
 20
1265.7591920588961
 30
0.0
 10
943.2510738867003
 20
1265.7591920588961
 30
0.0
 10
945.2870738867003
 20
1265.759592058896
 30
0.0
 10
945.2870738867003
 20
1265.759592058896
 30
0.0
 10
947.1625738867003
 20
1265.753092058896
 30
0.0
 10
949.1043738867003
 20
1263.940792058896
 30
0.0
 10
949.1234738867003
 20
1261.9312920588961
 30
0.0
 10
949.1234738867003
 20
1261.9312920588961
 30
0.0
 10
949.1234738867003
 20
1261.9312920588961
 30
0.0
 10
949.1234738867003
 20
1251.0955920588963
 30
0.0
 10
949.1234738867003
 20
1251.0955920588963
 30
0.0
 10
949.1234738867003
 20
1251.0955920588963
 30
0.0
 10
949.1234738867003
 20
1251.0955920588963
 30
0.0
 10
959.2155738867003
 20
1265.750292058896
 30
0.0
 10
959.2155738867003
 20
1265.750292058896
 30
0.0
  0
SPLINE
  5
48
330
17
100
AcDbEntity
  8
layer 1
 62
250
370
9
100
AcDbSpline
 70
8
 71
3
 72
20
 73
16
 74
0
 42
1e-09
 40
0.0
 40
0.0
 40
0.0
 40
0.0
 40
0.2
 40
0.2
 40
0.2
 40
0.2
 40
0.4
 40
0.4
 40
0.4
 40
0.4
 40
0.6
 40
0.6
 40
0.6
 40
0.6
 40
1.0
 40
1.0
 40
1.0
 40
1.0
 10
959.2177738867003
 20
1209.5850920588962
 30
0.0
 10
959.2177738867003
 20
1209.5850920588962
 30
0.0
 10
934.2598738867003
 20
1209.5850920588962
 30
0.0
 10
934.2598738867003
 20
1209.5850920588962
 30
0.0
 10
934.2598738867003
 20
1209.5850920588962
 30
0.0
 10
934.2598738867003
 20
1209.5850920588962
 30
0.0
 10
959.2177738867003
 20
1218.510192058896
 30
0.0
 10
959.2177738867003
 20
1218.510192058896
 30
0.0
 10
959.2177738867003
 20
1218.510192058896
 30
0.0
 10
959.2177738867003
 20
1218.510192058896
 30
0.0
 10
934.2603738867003
 20
1227.2700920588961
 30
0.0
 10
934.2603738867003
 20
1227.2700920588961
 30
0.0
 10
934.2603738867003
 20
1227.2700920588961
 30
0.0
 10
934.2603738867003
 20
1227.2700920588961
 30
0.0
 10
959.2177738867003
 20
1227.2700920588961
 30
0.0
 10
959.2177738867003
 20
1227.2700920588961
 30
0.0
  0
SPLINE
  5
49
330
17
100
AcDbEntity
  8
layer 1
 62
250
370
9
100
AcDbSpline
 70
11
 71
3
 72
28
 73
24
 74
0
 42
1e-09
 40
0.0
 40
0.0
 40
0.0
 40
0.0
 40
0.1428571428571428
 40
0.1428571428571428
 40
0.1428571428571428
 40
0.1428571428571428
 40
0.2857142857142857
 40
0.2857142857142857
 40
0.2857142857142857
 40
0.2857142857142857
 40
0.4285714285714285
 40
0.4285714285714285
 40
0.4285714285714285
 40
0.4285714285714285
 40
0.5714285714285714
 40
0.5714285714285714
 40
0.5714285714285714
 40
0.5714285714285714
 40
0.7142857142857143
 40
0.7142857142857143
 40
0.7142857142857143
 40
0.7142857142857143
 40
1.0
 40
1.0
 40
1.0
 40
1.0
 10
959.1874738867003
 20
1191.0352920588962
 30
0.0
 10
959.1870738867003
 20
1193.367092058896
 30
0.0
 10
959.2110738867003
 20
1198.317292058896
 30
0.0
 10
959.2113738867002
 20
1200.648792058896
 30
0.0
 10
959.2113738867002
 20
1200.648792058896
 30
0.0
 10
959.3167738867003
 20
1202.5737920588963
 30
0.0
 10
955.7751738867003
 20
1205.8923920588961
 30
0.0
 10
953.7578738867003
 20
1205.8811920588962
 30
0.0
 10
953.7578738867003
 20
1205.8811920588962
 30
0.0
 10
947.9877738867003
 20
1205.880792058896
 30
0.0
 10
945.8180738867003
 20
1205.880792058896
 30
0.0
 10
940.0487738867002
 20
1205.8811920588962
 30
0.0
 10
940.0487738867002
 20
1205.8811920588962
 30
0.0
 10
937.9106738867002
 20
1205.8768920588961
 30
0.0
 10
934.2505738867003
 20
1202.502392058896
 30
0.0
 10
934.2640738867003
 20
1200.349992058896
 30
0.0
 10
934.2640738867003
 20
1200.349992058896
 30
0.0
 10
934.2640738867003
 20
1198.0242920588962
 30
0.0
 10
934.2640738867003
 20
1193.2999920588961
 30
0.0
 10
934.2640738867003
 20
1190.9738920588961
 30
0.0
 10
934.2640738867003
 20
1190.9738920588961
 30
0.0
 10
940.0109738867003
 20
1190.974292058896
 30
0.0
 10
953.4401738867003
 20
1191.035592058896
 30
0.0
 10
959.1874738867003
 20
1191.0352920588962
 30
0.0
  0
SPLINE
  5
4A
330
17
100
AcDbEntity
  8
layer 1
 62
250
370
9
100
AcDbSpline
 70
24
 71
3
 72
8
 73
4
 74
0
 42
1e-09
 40
0.0
 40
0.0
 40
0.0
 40
0.0
 40
1.0
 40
1.0
 40
1.0
 40
1.0
 10
934.2620738867003
 20
1234.8434920588961
 30
0.0
 10
934.2620738867003
 20
1234.8434920588961
 30
0.0
 10
934.2620738867003
 20
1242.011592058896
 30
0.0
 10
934.2620738867003
 20
1242.011592058896
 30
0.0
  0
SPLINE
  5
4B
330
17
100
AcDbEntity
  8
layer 1
 62
250
370
9
100
AcDbSpline
 70
24
 71
3
 72
8
 73
4
 74
0
 42
1e-09
 40
0.0
 40
0.0
 40
0.0
 40
0.0
 40
1.0
 40
1.0
 40
1.0
 40
1.0
 10
959.2155738867003
 20
1234.8434920588961
 30
0.0
 10
959.2155738867003
 20
1234.8434920588961
 30
0.0
 10
959.2155738867003
 20
1242.011592058896
 30
0.0
 10
959.2155738867003
 20
1242.011592058896
 30
0.0
  0
SPLINE
  5
4C
330
17
100
AcDbEntity
  8
layer 1
 62
250
370
9
100
AcDbSpline
 70
24
 71
3
 72
8
 73
4
 74
0
 42
1e-09
 40
0.0
 40
0.0
 40
0.0
 40
0.0
 40
1.0
 40
1.0
 40
1.0
 40
1.0
 10
934.2620738867003
 20
1238.4274920588962
 30
0.0
 10
934.2620738867003
 20
1238.4274920588962
 30
0.0
 10
959.2155738867003
 20
1238.4274920588962
 30
0.0
 10
959.2155738867003
 20
1238.4274920588962
 30
0.0
  0
SPLINE
  5
4D
330
17
100
AcDbEntity
  8
layer 1
 62
250
370
9
100
AcDbSpline
 70
8
 71
3
 72
12
 73
8
 74
0
 42
1e-09
 40
0.0
 40
0.0
 40
0.0
 40
0.0
 40
0.3333333333333333
 40
0.3333333333333333
 40
0.3333333333333333
 40
0.3333333333333333
 40
1.0
 40
1.0
 40
1.0
 40
1.0
 10
959.2155738867003
 20
1170.9570920588963
 30
0.0
 10
959.2155738867003
 20
1170.9570920588963
 30
0.0
 10
934.2620738867003
 20
1178.3280920588961
 30
0.0
 10
934.2620738867003
 20
1178.3280920588961
 30
0.0
 10
934.2620738867003
 20
1178.3280920588961
 30
0.0
 10
934.2620738867003
 20
1178.3280920588961
 30
0.0
 10
959.2155738867003
 20
1185.897992058896
 30
0.0
 10
959.2155738867003
 20
1185.897992058896
 30
0.0
  0
SPLINE
  5
4E
330
17
100
AcDbEntity
  8
layer 1
 62
250
370
9
100
AcDbSpline
 70
24
 71
3
 72
8
 73
4
 74
0
 42
1e-09
 40
0.0
 40
0.0
 40
0.0
 40
0.0
 40
1.0
 40
1.0
 40
1.0
 40
1.0
 10
949.9661738867003
 20
1173.679692058896
 30
0.0
 10
949.9661738867003
 20
1173.679692058896
 30
0.0
 10
949.9661738867003
 20
1183.1753920588963
 30
0.0
 10
949.9661738867003
 20
1183.1753920588963
 30
0.0
  0
SPLINE
  5
4F
330
17
100
AcDbEntity
  8
layer 1
 62
250
370
9
100
AcDbSpline
 70
8
 71
3
 72
12
 73
8
 74
0
 42
1e-09
 40
0.0
 40
0.0
 40
0.0
 40
0.0
 40
0.3333333333333333
 40
0.3333333333333333
 40
0.3333333333333333
 40
0.3333333333333333
 40
1.0
 40
1.0
 40
1.0
 40
1.0
 10
959.2156738867003
 20
1304.9020920588962
 30
0.0
 10
959.2156738867003
 20
1304.9020920588962
 30
0.0
 10
959.2156738867003
 20
1291.9529920588961
 30
0.0
 10
959.2156738867003
 20
1291.9529920588961
 30
0.0
 10
959.2156738867003
 20
1291.9529920588961
 30
0.0
 10
959.2156738867003
 20
1291.9529920588961
 30
0.0
 10
934.2620738867003
 20
1291.9529920588961
 30
0.0
 10
934.2620738867003
 20
1291.9529920588961
 30
0.0
  0
SPLINE
  5
50
330
17
100
AcDbEntity
  8
layer 1
 62
250
370
9
100
AcDbSpline
 70
8
 71
3
 72
12
 73
8
 74
0
 42
1e-09
 40
0.0
 40
0.0
 40
0.0
 40
0.0
 40
0.3333333333333333
 40
0.3333333333333333
 40
0.3333333333333333
 40
0.3333333333333333
 40
1.0
 40
1.0
 40
1.0
 40
1.0
 10
959.2155738867003
 20
1270.9570920588963
 30
0.0
 10
959.2155738867003
 20
1270.9570920588963
 30
0.0
 10
934.2620738867003
 20
1278.3280920588961
 30
0.0
 10
934.2620738867003
 20
1278.3280920588961
 30
0.0
 10
934.2620738867003
 20
1278.3280920588961
 30
0.0
 10
934.2620738867003
 20
1278.3280920588961
 30
0.0
 10
959.2155738867003
 20
1285.897992058896
 30
0.0
 10
959.2155738867003
 20
1285.897992058896
 30
0.0
  0
SPLINE
  5
51
330
17
100
AcDbEntity
  8
layer 1
 62
250
370
9
100
AcDbSpline
 70
24
 71
3
 72
8
 73
4
 74
0
 42
1e-09
 40
0.0
 40
0.0
 40
0.0
 40
0.0
 40
1.0
 40
1.0
 40
1.0
 40
1.0
 10
949.9661738867003
 20
1273.6796920588963
 30
0.0
 10
949.9661738867003
 20
1273.6796920588963
 30
0.0
 10
949.9661738867003
 20
1283.1753920588963
 30
0.0
 10
949.9661738867003
 20
1283.1753920588963
 30
0.0
  0
SPLINE
  5
52
330
17
100
AcDbEntity
  8
layer 1
 62
250
370
9
100
AcDbSpline
 70
8
 71
3
 72
52
 73
48
 74
0
 42
1e-09
 40
0.0
 40
0.0
 40
0.0
 40
0.0
 40
0.0769230769230769
 40
0.0769230769230769
 40
0.0769230769230769
 40
0.0769230769230769
 40
0.1538461538461539
 40
0.1538461538461539
 40
0.1538461538461539
 40
0.1538461538461539
 40
0.2307692307692308
 40
0.2307692307692308
 40
0.2307692307692308
 40
0.2307692307692308
 40
0.3076923076923077
 40
0.3076923076923077
 40
0.3076923076923077
 40
0.3076923076923077
 40
0.3846153846153846
 40
0.3846153846153846
 40
0.3846153846153846
 40
0.3846153846153846
 40
0.4615384615384616
 40
0.4615384615384616
 40
0.4615384615384616
 40
0.4615384615384616
 40
0.5384615384615384
 40
0.5384615384615384
 40
0.5384615384615384
 40
0.5384615384615384
 40
0.6153846153846154
 40
0.6153846153846154
 40
0.6153846153846154
 40
0.6153846153846154
 40
0.6923076923076923
 40
0.6923076923076923
 40
0.6923076923076923
 40
0.6923076923076923
 40
0.7692307692307693
 40
0.7692307692307693
 40
0.7692307692307693
 40
0.7692307692307693
 40
0.8461538461538461
 40
0.8461538461538461
 40
0.8461538461538461
 40
0.8461538461538461
 40
1.0
 40
1.0
 40
1.0
 40
1.0
 10
940.6807738867003
 20
1316.8659920588962
 30
0.0
 10
940.6807738867003
 20
1316.8659920588962
 30
0.0
 10
938.8235738867003
 20
1316.8659920588962
 30
0.0
 10
938.8235738867003
 20
1316.8659920588962
 30
0.0
 10
938.8235738867003
 20
1316.8659920588962
 30
0.0
 10
937.0816738867003
 20
1316.851692058896
 30
0.0
 10
934.9635738867003
 20
1319.5161920588962
 30
0.0
 10
934.9862738867002
 20
1321.5752920588961
 30
0.0
 10
934.9862738867002
 20
1321.5752920588961
 30
0.0
 10
934.9862738867002
 20
1323.6393920588962
 30
0.0
 10
934.9862738867002
 20
1325.703392058896
 30
0.0
 10
934.9862738867002
 20
1327.7670920588962
 30
0.0
 10
934.9862738867002
 20
1327.7670920588962
 30
0.0
 10
934.9774738867003
 20
1329.9615920588963
 30
0.0
 10
936.8242738867003
 20
1331.5598920588961
 30
0.0
 10
938.7363738867003
 20
1331.6042920588961
 30
0.0
 10
938.7363738867003
 20
1331.6042920588961
 30
0.0
 10
940.1714738867003
 20
1331.6038920588962
 30
0.0
 10
941.6065738867003
 20
1331.6038920588962
 30
0.0
 10
943.0420738867003
 20
1331.6042920588961
 30
0.0
 10
943.0420738867003
 20
1331.6042920588961
 30
0.0
 10
944.6955738867003
 20
1331.555692058896
 30
0.0
 10
946.9255738867002
 20
1329.9530920588961
 30
0.0
 10
946.9155738867003
 20
1327.754792058896
 30
0.0
 10
946.9155738867003
 20
1327.754792058896
 30
0.0
 10
946.9267738867003
 20
1329.9584920588961
 30
0.0
 10
948.7299738867002
 20
1331.566492058896
 30
0.0
 10
950.7894738867003
 20
1331.6204920588962
 30
0.0
 10
950.7894738867003
 20
1331.6204920588962
 30
0.0
 10
952.5741738867002
 20
1331.6200920588963
 30
0.0
 10
954.3588738867003
 20
1331.6200920588963
 30
0.0
 10
956.1439738867003
 20
1331.6204920588962
 30
0.0
 10
956.1439738867003
 20
1331.6204920588962
 30
0.0
 10
958.2053738867003
 20
1331.6305920588961
 30
0.0
 10
959.9684738867003
 20
1329.575692058896
 30
0.0
 10
959.9603738867003
 20
1327.754792058896
 30
0.0
 10
959.9603738867003
 20
1327.754792058896
 30
0.0
 10
959.9600738867003
 20
1325.6894920588961
 30
0.0
 10
959.9600738867003
 20
1323.6242920588961
 30
0.0
 10
959.9603738867003
 20
1321.5586920588962
 30
0.0
 10
959.9603738867003
 20
1321.5586920588962
 30
0.0
 10
959.9488738867003
 20
1319.3900920588962
 30
0.0
 10
957.5486738867003
 20
1316.859092058896
 30
0.0
 10
956.0868738867003
 20
1316.8404920588962
 30
0.0
 10
956.0868738867003
 20
1316.8404920588962
 30
0.0
 10
956.0868738867003
 20
1316.8404920588962
 30
0.0
 10
954.1782738867003
 20
1316.8404920588962
 30
0.0
 10
954.1782738867003
 20
1316.8404920588962
 30
0.0
  0
SPLINE
  5
53
330
17
100
AcDbEntity
  8
layer 1
 62
250
370
9
100
AcDbSpline
 70
24
 71
3
 72
8
 73
4
 74
0
 42
1e-09
 40
0.0
 40
0.0
 40
0.0
 40
0.0
 40
1.0
 40
1.0
 40
1.0
 40
1.0
 10
946.9259738867003
 20
1321.575692058896
 30
0.0
 10
946.9259738867003
 20
1321.575692058896
 30
0.0
 10
946.9259738867003
 20
1327.772092058896
 30
0.0
 10
946.9259738867003
 20
1327.772092058896
 30
0.0
  0
SPLINE
  5
54
330
17
100
AcDbEntity
  8
layer 1
 62
250
370
9
100
AcDbSpline
 70
8
 71
3
 72
40
 73
36
 74
0
 42
1e-09
 40
0.0
 40
0.0
 40
0.0
 40
0.0
 40
0.1
 40
0.1
 40
0.1
 40
0.1
 40
0.2
 40
0.2
 40
0.2
 40
0.2
 40
0.3
 40
0.3
 40
0.3
 40
0.3
 40
0.4
 40
0.4
 40
0.4
 40
0.4
 40
0.5
 40
0.5
 40
0.5
 40
0.5
 40
0.6
 40
0.6
 40
0.6
 40
0.6
 40
0.7
 40
0.7
 40
0.7
 40
0.7
 40
0.8
 40
0.8
 40
0.8
 40
0.8
 40
1.0
 40
1.0
 40
1.0
 40
1.0
 10
935.0543738867003
 20
1369.2525920588962
 30
0.0
 10
935.0543738867003
 20
1369.2525920588962
 30
0.0
 10
935.0543738867003
 20
1356.4008920588963
 30
0.0
 10
935.0543738867003
 20
1356.4008920588963
 30
0.0
 10
935.0543738867003
 20
1356.4008920588963
 30
0.0
 10
939.2849738867003
 20
1356.4011920588962
 30
0.0
 10
943.5158738867003
 20
1356.4011920588962
 30
0.0
 10
947.7470738867003
 20
1356.4008920588963
 30
0.0
 10
947.7470738867003
 20
1356.4008920588963
 30
0.0
 10
944.4369738867003
 20
1356.400592058896
 30
0.0
 10
943.3651738867003
 20
1358.0315920588962
 30
0.0
 10
943.3046738867002
 20
1360.843592058896
 30
0.0
 10
943.3046738867002
 20
1360.843592058896
 30
0.0
 10
943.3043738867003
 20
1363.2831920588962
 30
0.0
 10
943.3043738867003
 20
1365.7226920588962
 30
0.0
 10
943.3046738867002
 20
1368.1618920588962
 30
0.0
 10
943.3046738867002
 20
1368.1618920588962
 30
0.0
 10
943.2978738867002
 20
1369.8116920588961
 30
0.0
 10
945.6783738867003
 20
1371.286592058896
 30
0.0
 10
947.7470738867003
 20
1371.3150920588962
 30
0.0
 10
947.7470738867003
 20
1371.3150920588962
 30
0.0
 10
950.3343738867003
 20
1371.314792058896
 30
0.0
 10
952.9219738867002
 20
1371.314792058896
 30
0.0
 10
955.5096738867003
 20
1371.3150920588962
 30
0.0
 10
955.5096738867003
 20
1371.3150920588962
 30
0.0
 10
957.4690738867002
 20
1371.3612920588962
 30
0.0
 10
959.9053738867003
 20
1369.861892058896
 30
0.0
 10
959.9638738867003
 20
1368.235992058896
 30
0.0
 10
959.9638738867003
 20
1368.235992058896
 30
0.0
 10
959.9635738867003
 20
1366.279492058896
 30
0.0
 10
959.9635738867003
 20
1361.384492058896
 30
0.0
 10
959.9638738867003
 20
1359.4274920588962
 30
0.0
 10
959.9638738867003
 20
1359.4274920588962
 30
0.0
 10
959.9726738867002
 20
1357.581992058896
 30
0.0
 10
958.0078738867003
 20
1356.474892058896
 30
0.0
 10
955.4567738867003
 20
1356.454092058896
 30
0.0
  0
SPLINE
  5
55
330
17
100
AcDbEntity
  8
layer 1
 62
250
370
9
100
AcDbSpline
 70
8
 71
3
 72
52
 73
48
 74
0
 42
1e-09
 40
0.0
 40
0.0
 40
0.0
 40
0.0
 40
0.0769230769230769
 40
0.0769230769230769
 40
0.0769230769230769
 40
0.0769230769230769
 40
0.1538461538461539
 40
0.1538461538461539
 40
0.1538461538461539
 40
0.1538461538461539
 40
0.2307692307692308
 40
0.2307692307692308
 40
0.2307692307692308
 40
0.2307692307692308
 40
0.3076923076923077
 40
0.3076923076923077
 40
0.3076923076923077
 40
0.3076923076923077
 40
0.3846153846153846
 40
0.3846153846153846
 40
0.3846153846153846
 40
0.3846153846153846
 40
0.4615384615384616
 40
0.4615384615384616
 40
0.4615384615384616
 40
0.4615384615384616
 40
0.5384615384615384
 40
0.5384615384615384
 40
0.5384615384615384
 40
0.5384615384615384
 40
0.6153846153846154
 40
0.6153846153846154
 40
0.6153846153846154
 40
0.6153846153846154
 40
0.6923076923076923
 40
0.6923076923076923
 40
0.6923076923076923
 40
0.6923076923076923
 40
0.7692307692307693
 40
0.7692307692307693
 40
0.7692307692307693
 40
0.7692307692307693
 40
0.8461538461538461
 40
0.8461538461538461
 40
0.8461538461538461
 40
0.8461538461538461
 40
1.0
 40
1.0
 40
1.0
 40
1.0
 10
940.6807738867003
 20
1336.8659920588962
 30
0.0
 10
940.6807738867003
 20
1336.8659920588962
 30
0.0
 10
938.8235738867003
 20
1336.8659920588962
 30
0.0
 10
938.8235738867003
 20
1336.8659920588962
 30
0.0
 10
938.8235738867003
 20
1336.8659920588962
 30
0.0
 10
937.0816738867003
 20
1336.851692058896
 30
0.0
 10
934.9635738867003
 20
1339.5161920588962
 30
0.0
 10
934.9862738867002
 20
1341.5752920588961
 30
0.0
 10
934.9862738867002
 20
1341.5752920588961
 30
0.0
 10
934.9862738867002
 20
1343.6393920588962
 30
0.0
 10
934.9862738867002
 20
1345.703392058896
 30
0.0
 10
934.9862738867002
 20
1347.7670920588962
 30
0.0
 10
934.9862738867002
 20
1347.7670920588962
 30
0.0
 10
934.9774738867003
 20
1349.9615920588963
 30
0.0
 10
936.8242738867003
 20
1351.5598920588961
 30
0.0
 10
938.7363738867003
 20
1351.6042920588961
 30
0.0
 10
938.7363738867003
 20
1351.6042920588961
 30
0.0
 10
940.1714738867003
 20
1351.6038920588962
 30
0.0
 10
941.6065738867003
 20
1351.6038920588962
 30
0.0
 10
943.0420738867003
 20
1351.6042920588961
 30
0.0
 10
943.0420738867003
 20
1351.6042920588961
 30
0.0
 10
944.6955738867003
 20
1351.555692058896
 30
0.0
 10
946.9255738867002
 20
1349.9530920588961
 30
0.0
 10
946.9155738867003
 20
1347.754792058896
 30
0.0
 10
946.9155738867003
 20
1347.754792058896
 30
0.0
 10
946.9267738867003
 20
1349.9584920588961
 30
0.0
 10
948.7299738867002
 20
1351.566492058896
 30
0.0
 10
950.7894738867003
 20
1351.6204920588962
 30
0.0
 10
950.7894738867003
 20
1351.6204920588962
 30
0.0
 10
952.5741738867002
 20
1351.6200920588963
 30
0.0
 10
954.3588738867003
 20
1351.6200920588963
 30
0.0
 10
956.1439738867003
 20
1351.6204920588962
 30
0.0
 10
956.1439738867003
 20
1351.6204920588962
 30
0.0
 10
958.2053738867003
 20
1351.6305920588961
 30
0.0
 10
959.9684738867003
 20
1349.575692058896
 30
0.0
 10
959.9603738867003
 20
1347.754792058896
 30
0.0
 10
959.9603738867003
 20
1347.754792058896
 30
0.0
 10
959.9600738867003
 20
1345.6894920588961
 30
0.0
 10
959.9600738867003
 20
1343.6242920588961
 30
0.0
 10
959.9603738867003
 20
1341.5586920588962
 30
0.0
 10
959.9603738867003
 20
1341.5586920588962
 30
0.0
 10
959.9488738867003
 20
1339.3900920588962
 30
0.0
 10
957.5486738867003
 20
1336.859092058896
 30
0.0
 10
956.0868738867003
 20
1336.8404920588962
 30
0.0
 10
956.0868738867003
 20
1336.8404920588962
 30
0.0
 10
956.0868738867003
 20
1336.8404920588962
 30
0.0
 10
954.1782738867003
 20
1336.8404920588962
 30
0.0
 10
954.1782738867003
 20
1336.8404920588962
 30
0.0
  0
SPLINE
  5
56
330
17
100
AcDbEntity
  8
layer 1
 62
250
370
9
100
AcDbSpline
 70
24
 71
3
 72
8
 73
4
 74
0
 42
1e-09
 40
0.0
 40
0.0
 40
0.0
 40
0.0
 40
1.0
 40
1.0
 40
1.0
 40
1.0
 10
946.9259738867003
 20
1341.575692058896
 30
0.0
 10
946.9259738867003
 20
1341.575692058896
 30
0.0
 10
946.9259738867003
 20
1347.772092058896
 30
0.0
 10
946.9259738867003
 20
1347.772092058896
 30
0.0
  0
SPLINE
  5
57
330
17
100
AcDbEntity
  8
layer 1
 62
242
370
9
100
AcDbSpline
 70
11
 71
3
 72
20
 73
16
 74
0
 42
1e-09
 40
0.0
 40
0.0
 40
0.0
 40
0.0
 40
0.2
 40
0.2
 40
0.2
 40
0.2
 40
0.4
 40
0.4
 40
0.4
 40
0.4
 40
0.6
 40
0.6
 40
0.6
 40
0.6
 40
1.0
 40
1.0
 40
1.0
 40
1.0
 10
633.4754738867003
 20
1082.4053920588963
 30
0.0
 10
633.4754738867003
 20
1082.4053920588963
 30
0.0
 10
633.4754738867003
 20
1443.925092058896
 30
0.0
 10
633.4754738867003
 20
1443.925092058896
 30
0.0
 10
633.4754738867003
 20
1443.925092058896
 30
0.0
 10
633.4754738867003
 20
1443.925092058896
 30
0.0
 10
1018.4750738867003
 20
1624.105792058896
 30
0.0
 10
1018.4750738867003
 20
1624.105792058896
 30
0.0
 10
1018.4750738867003
 20
1624.105792058896
 30
0.0
 10
1018.4750738867003
 20
1624.105792058896
 30
0.0
 10
1018.4750738867003
 20
902.2259920588962
 30
0.0
 10
1018.4750738867003
 20
902.2259920588962
 30
0.0
 10
1018.4750738867003
 20
902.2259920588962
 30
0.0
 10
1018.4750738867003
 20
902.2259920588962
 30
0.0
 10
633.4754738867003
 20
1082.4053920588963
 30
0.0
 10
633.4754738867003
 20
1082.4053920588963
 30
0.0
  0
SPLINE
  5
58
330
17
100
AcDbEntity
  8
layer 1
 62
250
370
9
100
AcDbSpline
 70
8
 71
3
 72
32
 73
28
 74
0
 42
1e-09
 40
0.0
 40
0.0
 40
0.0
 40
0.0
 40
0.125
 40
0.125
 40
0.125
 40
0.125
 40
0.25
 40
0.25
 40
0.25
 40
0.25
 40
0.375
 40
0.375
 40
0.375
 40
0.375
 40
0.5
 40
0.5
 40
0.5
 40
0.5
 40
0.625
 40
0.625
 40
0.625
 40
0.625
 40
0.75
 40
0.75
 40
0.75
 40
0.75
 40
1.0
 40
1.0
 40
1.0
 40
1.0
 10
757.4815268385838
 20
1656.93995638203
 30
0.0
 10
757.4815268385838
 20
1656.93995638203
 30
0.0
 10
782.4350268385838
 20
1656.93995638203
 30
0.0
 10
782.4350268385838
 20
1656.93995638203
 30
0.0
 10
782.4350268385838
 20
1656.93995638203
 30
0.0
 10
782.4350268385838
 20
1653.34515638203
 30
0.0
 10
782.4350268385838
 20
1649.74965638203
 30
0.0
 10
782.4350268385838
 20
1646.15445638203
 30
0.0
 10
782.4350268385838
 20
1646.15445638203
 30
0.0
 10
782.3973268385838
 20
1643.8291563820299
 30
0.0
 10
780.9073268385838
 20
1642.27185638203
 30
0.0
 10
778.5409268385838
 20
1642.27595638203
 30
0.0
 10
778.5409268385838
 20
1642.27595638203
 30
0.0
 10
776.5054268385838
 20
1642.27635638203
 30
0.0
 10
773.4460268385839
 20
1642.27635638203
 30
0.0
 10
771.4100268385838
 20
1642.27595638203
 30
0.0
 10
771.4100268385838
 20
1642.27595638203
 30
0.0
 10
769.5345268385838
 20
1642.28245638203
 30
0.0
 10
767.5927268385839
 20
1644.09475638203
 30
0.0
 10
767.5736268385838
 20
1646.10425638203
 30
0.0
 10
767.5736268385838
 20
1646.10425638203
 30
0.0
 10
767.5736268385838
 20
1646.10425638203
 30
0.0
 10
767.5736268385838
 20
1656.93995638203
 30
0.0
 10
767.5736268385838
 20
1656.93995638203
 30
0.0
 10
767.5736268385838
 20
1656.93995638203
 30
0.0
 10
767.5736268385838
 20
1656.93995638203
 30
0.0
 10
757.4815268385838
 20
1642.28525638203
 30
0.0
 10
757.4815268385838
 20
1642.28525638203
 30
0.0
  0
SPLINE
  5
59
330
17
100
AcDbEntity
  8
layer 1
 62
250
370
9
100
AcDbSpline
 70
8
 71
3
 72
32
 73
28
 74
0
 42
1e-09
 40
0.0
 40
0.0
 40
0.0
 40
0.0
 40
0.125
 40
0.125
 40
0.125
 40
0.125
 40
0.25
 40
0.25
 40
0.25
 40
0.25
 40
0.375
 40
0.375
 40
0.375
 40
0.375
 40
0.5
 40
0.5
 40
0.5
 40
0.5
 40
0.625
 40
0.625
 40
0.625
 40
0.625
 40
0.75
 40
0.75
 40
0.75
 40
0.75
 40
1.0
 40
1.0
 40
1.0
 40
1.0
 10
761.3210268385839
 20
1662.09435638203
 30
0.0
 10
758.9976268385839
 20
1662.23415638203
 30
0.0
 10
757.5180268385839
 20
1663.91135638203
 30
0.0
 10
757.5072268385838
 20
1666.05905638203
 30
0.0
 10
757.5072268385838
 20
1666.05905638203
 30
0.0
 10
757.5076268385839
 20
1668.39095638203
 30
0.0
 10
757.5076268385839
 20
1670.72285638203
 30
0.0
 10
757.5072268385838
 20
1673.05435638203
 30
0.0
 10
757.5072268385838
 20
1673.05435638203
 30
0.0
 10
757.4018268385838
 20
1674.97935638203
 30
0.0
 10
759.2863268385838
 20
1676.9514563820298
 30
0.0
 10
761.3036268385838
 20
1676.94025638203
 30
0.0
 10
761.3036268385838
 20
1676.94025638203
 30
0.0
 10
767.0737268385839
 20
1676.93985638203
 30
0.0
 10
772.8434268385838
 20
1676.93985638203
 30
0.0
 10
778.6127268385839
 20
1676.94025638203
 30
0.0
 10
778.6127268385839
 20
1676.94025638203
 30
0.0
 10
780.7508268385839
 20
1676.9360563820298
 30
0.0
 10
782.4700268385839
 20
1675.18935638203
 30
0.0
 10
782.4565268385838
 20
1673.03695638203
 30
0.0
 10
782.4565268385838
 20
1673.03695638203
 30
0.0
 10
782.4565268385838
 20
1670.71125638203
 30
0.0
 10
782.4565268385838
 20
1668.38515638203
 30
0.0
 10
782.4565268385838
 20
1666.05905638203
 30
0.0
 10
782.4565268385838
 20
1666.05905638203
 30
0.0
 10
782.4920268385838
 20
1664.11245638203
 30
0.0
 10
781.0005268385838
 20
1662.12105638203
 30
0.0
 10
778.5629268385838
 20
1662.09435638203
 30
0.0
  0
SPLINE
  5
5A
330
17
100
AcDbEntity
  8
layer 1
 62
250
370
9
100
AcDbSpline
 70
8
 71
3
 72
12
 73
8
 74
0
 42
1e-09
 40
0.0
 40
0.0
 40
0.0
 40
0.0
 40
0.3333333333333333
 40
0.3333333333333333
 40
0.3333333333333333
 40
0.3333333333333333
 40
1.0
 40
1.0
 40
1.0
 40
1.0
 10
757.4814268385838
 20
1623.13335638203
 30
0.0
 10
757.4814268385838
 20
1623.13335638203
 30
0.0
 10
757.4814268385838
 20
1636.08245638203
 30
0.0
 10
757.4814268385838
 20
1636.08245638203
 30
0.0
 10
757.4814268385838
 20
1636.08245638203
 30
0.0
 10
757.4814268385838
 20
1636.08245638203
 30
0.0
 10
782.4350268385838
 20
1636.08245638203
 30
0.0
 10
782.4350268385838
 20
1636.08245638203
 30
0.0
  0
SPLINE
  5
5B
330
17
100
AcDbEntity
  8
layer 1
 62
250
370
9
100
AcDbSpline
 70
8
 71
3
 72
48
 73
44
 74
0
 42
1e-09
 40
0.0
 40
0.0
 40
0.0
 40
0.0
 40
0.0833333333333333
 40
0.0833333333333333
 40
0.0833333333333333
 40
0.0833333333333333
 40
0.1666666666666667
 40
0.1666666666666667
 40
0.1666666666666667
 40
0.1666666666666667
 40
0.25
 40
0.25
 40
0.25
 40
0.25
 40
0.3333333333333333
 40
0.3333333333333333
 40
0.3333333333333333
 40
0.3333333333333333
 40
0.4166666666666667
 40
0.4166666666666667
 40
0.4166666666666667
 40
0.4166666666666667
 40
0.5
 40
0.5
 40
0.5
 40
0.5
 40
0.5833333333333334
 40
0.5833333333333334
 40
0.5833333333333334
 40
0.5833333333333334
 40
0.6666666666666666
 40
0.6666666666666666
 40
0.6666666666666666
 40
0.6666666666666666
 40
0.75
 40
0.75
 40
0.75
 40
0.75
 40
0.8333333333333334
 40
0.8333333333333334
 40
0.8333333333333334
 40
0.8333333333333334
 40
1.0
 40
1.0
 40
1.0
 40
1.0
 10
760.4175268385839
 20
1611.51235638203
 30
0.0
 10
759.0780268385838
 20
1611.48825638203
 30
0.0
 10
757.4247268385839
 20
1610.13205638203
 30
0.0
 10
757.4591268385839
 20
1608.5601563820298
 30
0.0
 10
757.4591268385839
 20
1608.5601563820298
 30
0.0
 10
757.4594268385838
 20
1605.57535638203
 30
0.0
 10
757.4594268385838
 20
1602.59015638203
 30
0.0
 10
757.4591268385839
 20
1599.60475638203
 30
0.0
 10
757.4591268385839
 20
1599.60475638203
 30
0.0
 10
757.4441268385838
 20
1598.38565638203
 30
0.0
 10
758.8817268385839
 20
1596.65745638203
 30
0.0
 10
760.4175268385839
 20
1596.6524563820299
 30
0.0
 10
760.4175268385839
 20
1596.6524563820299
 30
0.0
 10
766.7779268385839
 20
1596.65275638203
 30
0.0
 10
773.1387268385838
 20
1596.65275638203
 30
0.0
 10
779.4995268385838
 20
1596.6524563820299
 30
0.0
 10
779.4995268385838
 20
1596.6524563820299
 30
0.0
 10
780.6624268385838
 20
1596.65715638203
 30
0.0
 10
782.4335268385838
 20
1598.38565638203
 30
0.0
 10
782.4579268385838
 20
1599.60475638203
 30
0.0
 10
782.4579268385838
 20
1599.60475638203
 30
0.0
 10
782.4576268385838
 20
1602.59015638203
 30
0.0
 10
782.4576268385838
 20
1605.57535638203
 30
0.0
 10
782.4579268385838
 20
1608.5601563820298
 30
0.0
 10
782.4579268385838
 20
1608.5601563820298
 30
0.0
 10
782.4141268385838
 20
1609.8382563820298
 30
0.0
 10
780.7996268385839
 20
1611.50795638203
 30
0.0
 10
779.4995268385838
 20
1611.51235638203
 30
0.0
 10
779.4995268385838
 20
1611.51235638203
 30
0.0
 10
775.9161268385839
 20
1611.51235638203
 30
0.0
 10
772.3331268385839
 20
1611.51235638203
 30
0.0
 10
768.7503268385839
 20
1611.51235638203
 30
0.0
 10
768.7503268385839
 20
1611.51235638203
 30
0.0
 10
767.2721268385839
 20
1611.47385638203
 30
0.0
 10
765.8392268385838
 20
1609.89115638203
 30
0.0
 10
765.8413268385839
 20
1608.5601563820298
 30
0.0
 10
765.8413268385839
 20
1608.5601563820298
 30
0.0
 10
765.8410268385838
 20
1605.57535638203
 30
0.0
 10
765.8410268385838
 20
1602.59015638203
 30
0.0
 10
765.8413268385839
 20
1599.60475638203
 30
0.0
 10
765.8413268385839
 20
1599.60475638203
 30
0.0
 10
765.8363268385838
 20
1598.27525638203
 30
0.0
 10
767.3435268385838
 20
1596.63225638203
 30
0.0
 10
768.7721268385839
 20
1596.67395638203
 30
0.0
  0
SPLINE
  5
5C
330
17
100
AcDbEntity
  8
layer 2
 62
230
370
200
100
AcDbSpline
 70
11
 71
3
 72
92
 73
88
 74
0
 42
1e-09
 40
0.0
 40
0.0
 40
0.0
 40
0.0
 40
0.0434782608695652
 40
0.0434782608695652
 40
0.0434782608695652
 40
0.0434782608695652
 40
0.0869565217391304
 40
0.0869565217391304
 40
0.0869565217391304
 40
0.0869565217391304
 40
0.1304347826086956
 40
0.1304347826086956
 40
0.1304347826086956
 40
0.1304347826086956
 40
0.1739130434782609
 40
0.1739130434782609
 40
0.1739130434782609
 40
0.1739130434782609
 40
0.2173913043478261
 40
0.2173913043478261
 40
0.2173913043478261
 40
0.2173913043478261
 40
0.2608695652173913
 40
0.2608695652173913
 40
0.2608695652173913
 40
0.2608695652173913
 40
0.3043478260869565
 40
0.3043478260869565
 40
0.3043478260869565
 40
0.3043478260869565
 40
0.3478260869565217
 40
0.3478260869565217
 40
0.3478260869565217
 40
0.3478260869565217
 40
0.391304347826087
 40
0.391304347826087
 40
0.391304347826087
 40
0.391304347826087
 40
0.4347826086956522
 40
0.4347826086956522
 40
0.4347826086956522
 40
0.4347826086956522
 40
0.4782608695652174
 40
0.4782608695652174
 40
0.4782608695652174
 40
0.4782608695652174
 40
0.5217391304347826
 40
0.5217391304347826
 40
0.5217391304347826
 40
0.5217391304347826
 40
0.5652173913043478
 40
0.5652173913043478
 40
0.5652173913043478
 40
0.5652173913043478
 40
0.6086956521739131
 40
0.6086956521739131
 40
0.6086956521739131
 40
0.6086956521739131
 40
0.6521739130434783
 40
0.6521739130434783
 40
0.6521739130434783
 40
0.6521739130434783
 40
0.6956521739130435
 40
0.6956521739130435
 40
0.6956521739130435
 40
0.6956521739130435
 40
0.7391304347826086
 40
0.7391304347826086
 40
0.7391304347826086
 40
0.7391304347826086
 40
0.782608695652174
 40
0.782608695652174
 40
0.782608695652174
 40
0.782608695652174
 40
0.8260869565217391
 40
0.8260869565217391
 40
0.8260869565217391
 40
0.8260869565217391
 40
0.8695652173913043
 40
0.8695652173913043
 40
0.8695652173913043
 40
0.8695652173913043
 40
0.9130434782608695
 40
0.9130434782608695
 40
0.9130434782608695
 40
0.9130434782608695
 40
1.0
 40
1.0
 40
1.0
 40
1.0
 10
743.6265268385839
 20
1851.1216563820299
 30
0.0
 10
743.6265268385839
 20
1851.1216563820299
 30
0.0
 10
980.4952268385839
 20
1866.53135638203
 30
0.0
 10
980.4952268385839
 20
1866.53135638203
 30
0.0
 10
980.4952268385839
 20
1866.53135638203
 30
0.0
 10
982.5533268385839
 20
1866.6654563820298
 30
0.0
 10
984.1514268385839
 20
1864.76715638203
 30
0.0
 10
983.6660268385839
 20
1862.7629563820299
 30
0.0
 10
983.6660268385839
 20
1862.7629563820299
 30
0.0
 10
980.6335268385839
 20
1850.2468563820298
 30
0.0
 10
971.5181268385838
 20
1812.13335638203
 30
0.0
 10
969.6276268385839
 20
1798.52085638203
 30
0.0
 10
969.6276268385839
 20
1798.52085638203
 30
0.0
 10
967.3514268385838
 20
1782.13315638203
 30
0.0
 10
962.7996268385839
 20
1776.21565638203
 30
0.0
 10
981.0078268385839
 20
1766.20105638203
 30
0.0
 10
981.0078268385839
 20
1766.20105638203
 30
0.0
 10
993.4753268385839
 20
1759.34405638203
 30
0.0
 10
1005.0891268385839
 20
1755.04795638203
 30
0.0
 10
1011.1731268385838
 20
1753.02055638203
 30
0.0
 10
1011.1731268385838
 20
1753.02055638203
 30
0.0
 10
1014.0878268385839
 20
1752.0493563820298
 30
0.0
 10
1016.5809268385839
 20
1750.11395638203
 30
0.0
 10
1018.2421268385838
 20
1747.52985638203
 30
0.0
 10
1018.2421268385838
 20
1747.52985638203
 30
0.0
 10
1021.3388268385838
 20
1742.71305638203
 30
0.0
 10
1021.0689268385838
 20
1736.44845638203
 30
0.0
 10
1017.5175268385839
 20
1731.95655638203
 30
0.0
 10
1017.5175268385839
 20
1731.95655638203
 30
0.0
 10
1012.0791268385839
 20
1725.0784563820298
 30
0.0
 10
1004.7900268385838
 20
1713.46105638203
 30
0.0
 10
1002.8578268385838
 20
1698.83065638203
 30
0.0
 10
1002.8578268385838
 20
1698.83065638203
 30
0.0
 10
999.6712268385838
 20
1674.70455638203
 30
0.0
 10
1001.0368268385838
 20
1606.42385638203
 30
0.0
 10
1005.1336268385838
 20
1586.39485638203
 30
0.0
 10
1005.1336268385838
 20
1586.39485638203
 30
0.0
 10
1007.8726268385839
 20
1573.00375638203
 30
0.0
 10
1016.5124268385838
 20
1557.17115638203
 30
0.0
 10
1023.0268268385838
 20
1546.65095638203
 30
0.0
 10
1023.0268268385838
 20
1546.65095638203
 30
0.0
 10
1026.5158268385837
 20
1541.0167563820298
 30
0.0
 10
1023.7663268385838
 20
1533.60345638203
 30
0.0
 10
1017.4540268385838
 20
1531.58625638203
 30
0.0
 10
1017.4540268385838
 20
1531.58625638203
 30
0.0
 10
1004.5490268385838
 20
1527.46365638203
 30
0.0
 10
994.5566268385838
 20
1524.7811563820298
 30
0.0
 10
988.2909268385838
 20
1521.3003563820298
 30
0.0
 10
988.2909268385838
 20
1521.3003563820298
 30
0.0
 10
980.0973268385839
 20
1516.7484563820299
 30
0.0
 10
972.8142268385839
 20
1509.4649563820299
 30
0.0
 10
974.6349268385839
 20
1494.8980563820298
 30
0.0
 10
974.6349268385839
 20
1494.8980563820298
 30
0.0
 10
976.1945268385838
 20
1482.42275638203
 30
0.0
 10
987.7706268385838
 20
1436.89225638203
 30
0.0
 10
991.0620268385837
 20
1423.21895638203
 30
0.0
 10
991.0620268385837
 20
1423.21895638203
 30
0.0
 10
991.5333268385838
 20
1421.26065638203
 30
0.0
 10
990.0195268385838
 20
1419.3898563820298
 30
0.0
 10
988.0059268385838
 20
1419.44665638203
 30
0.0
 10
988.0059268385838
 20
1419.44665638203
 30
0.0
 10
949.7496268385838
 20
1420.52265638203
 30
0.0
 10
779.9111268385838
 20
1424.87665638203
 30
0.0
 10
751.5192268385838
 20
1425.60405638203
 30
0.0
 10
751.5192268385838
 20
1425.60405638203
 30
0.0
 10
749.2886268385838
 20
1425.66115638203
 30
0.0
 10
747.5201268385838
 20
1427.49885638203
 30
0.0
 10
747.5490268385838
 20
1429.73015638203
 30
0.0
 10
747.5490268385838
 20
1429.73015638203
 30
0.0
 10
747.7483268385838
 20
1444.99585638203
 30
0.0
 10
748.1304268385838
 20
1499.81895638203
 30
0.0
 10
743.8456268385837
 20
1526.30765638203
 30
0.0
 10
743.8456268385837
 20
1526.30765638203
 30
0.0
 10
738.8382268385838
 20
1557.26175638203
 30
0.0
 10
731.5548268385838
 20
1614.81215638203
 30
0.0
 10
731.5548268385838
 20
1644.9858563820299
 30
0.0
 10
731.5548268385838
 20
1644.9858563820299
 30
0.0
 10
731.5548268385838
 20
1696.09945638203
 30
0.0
 10
739.2933268385839
 20
1713.39725638203
 30
0.0
 10
740.2038268385838
 20
1744.35135638203
 30
0.0
 10
740.2038268385838
 20
1744.35135638203
 30
0.0
 10
740.9905268385838
 20
1771.10105638203
 30
0.0
 10
740.0775268385839
 20
1831.1661563820298
 30
0.0
 10
739.8151268385839
 20
1846.9885563820299
 30
0.0
 10
739.8151268385839
 20
1846.9885563820299
 30
0.0
 10
739.7787268385839
 20
1849.16305638203
 30
0.0
 10
741.4562268385839
 20
1850.98055638203
 30
0.0
 10
743.6265268385839
 20
1851.1216563820299
 30
0.0
  0
SPLINE
  5
5D
330
17
100
AcDbEntity
  8
layer 3
 62
142
370
200
100
AcDbSpline
 70
8
 71
3
 72
16
 73
12
 74
0
 42
1e-09
 40
0.0
 40
0.0
 40
0.0
 40
0.0
 40
0.25
 40
0.25
 40
0.25
 40
0.25
 40
0.5
 40
0.5
 40
0.5
 40
0.5
 40
1.0
 40
1.0
 40
1.0
 40
1.0
 10
737.2565268385838
 20
1714.0981563820299
 30
0.0
 10
774.1549268385838
 20
1716.97965638203
 30
0.0
 10
819.6156268385838
 20
1710.20665638203
 30
0.0
 10
855.4794268385839
 20
1714.0981563820299
 30
0.0
 10
855.4794268385839
 20
1714.0981563820299
 30
0.0
 10
891.3431268385839
 20
1717.99005638203
 30
0.0
 10
923.7990268385838
 20
1712.2855563820299
 30
0.0
 10
955.5667268385838
 20
1713.8462563820299
 30
0.0
 10
955.5667268385838
 20
1713.8462563820299
 30
0.0
 10
987.3339268385838
 20
1715.4069563820299
 30
0.0
 10
995.6309268385838
 20
1716.03635638203
 30
0.0
 10
1009.9078268385838
 20
1720.32785638203
 30
0.0
  0
SPLINE
  5
5E
330
17
100
AcDbEntity
  8
layer 3
 62
142
370
200
100
AcDbSpline
 70
8
 71
3
 72
16
 73
12
 74
0
 42
1e-09
 40
0.0
 40
0.0
 40
0.0
 40
0.0
 40
0.25
 40
0.25
 40
0.25
 40
0.25
 40
0.5
 40
0.5
 40
0.5
 40
0.5
 40
1.0
 40
1.0
 40
1.0
 40
1.0
 10
740.8466268385839
 20
1568.59195638203
 30
0.0
 10
754.7694268385839
 20
1571.21865638203
 30
0.0
 10
762.3876268385839
 20
1574.63395638203
 30
0.0
 10
788.1316268385838
 20
1570.6933563820298
 30
0.0
 10
788.1316268385838
 20
1570.6933563820298
 30
0.0
 10
813.8759268385838
 20
1566.75285638203
 30
0.0
 10
845.9744268385838
 20
1562.62395638203
 30
0.0
 10
897.2027268385838
 20
1563.3662563820299
 30
0.0
 10
897.2027268385838
 20
1563.3662563820299
 30
0.0
 10
948.4310268385839
 20
1564.10885638203
 30
0.0
 10
963.1742268385838
 20
1563.4875563820299
 30
0.0
 10
1009.9078268385838
 20
1567.88145638203
 30
0.0
  0
IMAGE
  5
5F
330
17
100
AcDbEntity
  8
layer 1
 62
0
 92
140
310
8C00000001000000840000000600000005000000454772F90FF36540F831E6AE251E69C00000000000000000B4CAEAE1FC718940F831E6AE251E69C00000000000000000B4CAEAE1FC71894088AB3F11AD4F90400000000000000000454772F90FF3654088AB3F11AD4F90400000000000000000454772F90FF36540F831E6
310
AE251E69C00000000000000000
100
AcDbRasterImage
 90
0
 10
1775.4000198192887
 20
1429.4033067760624
 30
0.0
 11
0.01388888888888889
 21
0.0
 31
0.0
 12
0.0
 22
0.01388888888888889
 32
0.0
 13
45983.0
 23
89630.0
340
71
 70
3
280
1
281
50
282
50
283
0
360
60
 71
1
 91
2
 14
175.5957
 24
-200.9421
 14
814.2618
 24
1043.9316
290
0
  0
IMAGE
  5
61
330
17
100
AcDbEntity
  8
layer 1
 62
0
 92
140
310
8C00000001000000840000000600000005000000A52C431CEBE87640C520B072683D7B4000000000000000008C2405C703788240C520B072683D7B4000000000000000008C2405C7037882408C92CC39DA417D400000000000000000A52C431CEBE876408C92CC39DA417D400000000000000000A52C431CEBE87640C520B0
310
72683D7B400000000000000000
100
AcDbRasterImage
 90
0
 10
2412.180119819289
 20
1238.4416067760621
 30
0.0
 11
0.01388888888888889
 21
0.0
 31
0.0
 12
0.0
 22
0.01388888888888889
 32
0.0
 13
16160.0
 23
2324.0
340
74
 70
3
280
1
281
50
282
50
283
0
360
62
 71
1
 91
2
 14
366.5574
 24
435.838
 14
591.0065
 24
468.1172
290
0
  0
IMAGE
  5
65
330
17
100
AcDbEntity
  8
layer 1
 62
0
 92
140
310
8C00000001000000840000000600000005000000A52C431CEBE87640BBB88D06F0E6734000000000000000008C2405C703FB8440BBB88D06F0E6734000000000000000008C2405C703FB8440822AAACD61EB75400000000000000000A52C431CEBE87640822AAACD61EB75400000000000000000A52C431CEBE87640BBB88D
310
06F0E673400000000000000000
100
AcDbRasterImage
 90
0
 10
2294.7757198192885
 20
1238.4416067760621
 30
0.0
 11
0.01388888888888889
 21
0.0
 31
0.0
 12
0.0
 22
0.01388888888888889
 32
0.0
 13
21947.0
 23
2324.0
340
7A
 70
3
280
1
281
50
282
50
283
0
360
66
 71
1
 91
2
 14
366.5574
 24
318.4336
 14
671.3812
 24
350.7128
290
0
  0
IMAGE
  5
69
330
17
100
AcDbEntity
  8
layer 1
 62
0
 92
140
310
8C00000001000000840000000600000005000000A52C431CEBE876404BEA0434111A694000000000000000005296218E75AF82404BEA0434111A694000000000000000005296218E75AF82402F2393174A306D400000000000000000A52C431CEBE876402F2393174A306D400000000000000000A52C431CEBE876404BEA04
310
34111A69400000000000000000
100
AcDbRasterImage
 90
0
 10
2177.156719819289
 20
1238.4416067760621
 30
0.0
 11
0.01388888888888889
 21
0.0
 31
0.0
 12
0.0
 22
0.01388888888888889
 32
0.0
 13
16659.0
 23
2354.0
340
80
 70
3
280
1
281
50
282
50
283
0
360
6A
 71
1
 91
2
 14
366.5574
 24
200.8146
 14
597.9385
 24
233.5171
290
0
  0
IMAGE
  5
6B
330
17
100
AcDbEntity
  8
layer 1
 62
0
 92
140
310
8C00000001000000840000000600000005000000C217265305E9764089D2DEE00B38814000000000000000006FEFCB3766A0804089D2DEE00B38814000000000000000006FEFCB3766A0804089D2DEE00BF781400000000000000000C217265305E9764089D2DEE00BF781400000000000000000C217265305E9764089D2DE
310
E00B3881400000000000000000
100
AcDbRasterImage
 90
0
 10
2527.347919819289
 20
1238.4352067760622
 30
0.0
 11
0.01388888888888889
 21
0.0
 31
0.0
 12
0.0
 22
0.01388888888888889
 32
0.0
 13
11915.0
 23
1719.0
340
83
 70
3
280
1
281
50
282
50
283
0
360
6C
 71
1
 91
2
 14
366.5638
 24
551.0058
 14
532.0517
 24
574.8888000000001
290
0
  0
IMAGE
  5
6D
330
17
100
AcDbEntity
  8
layer 1
 62
0
 92
140
310
8C000000010000008400000006000000050000008D28ED0DBEE87640DFE00B93A9F5824000000000000000009CE94B5CB4818740DFE00B93A9F5824000000000000000009CE94B5CB481874051FDD204C6FF834000000000000000008D28ED0DBEE8764051FDD204C6FF834000000000000000008D28ED0DBEE87640DFE00B
310
93A9F582400000000000000000
100
AcDbRasterImage
 90
0
 10
2583.0499198192892
 20
1238.452606776062
 30
0.0
 11
0.01388888888888889
 21
0.0
 31
0.0
 12
0.0
 22
0.01388888888888889
 32
0.0
 13
27768.0
 23
2395.0
340
86
 70
3
280
1
281
50
282
50
283
0
360
6E
 71
1
 91
2
 14
366.5464
 24
606.7078
 14
752.2254
 24
639.9747
290
0
  0
IMAGE
  5
6F
330
17
100
AcDbEntity
  8
layer 1
 62
0
 92
140
310
8C000000010000008400000006000000050000002C6519E258E97640B7D100DE028886400000000000000000405DB71B57C38440B7D100DE028886400000000000000000405DB71B57C38440627CAB88AD90874000000000000000002C6519E258E97640627CAB88AD90874000000000000000002C6519E258E97640B7D100
310
DE028886400000000000000000
100
AcDbRasterImage
 90
0
 10
2697.343519819289
 20
1238.414806776062
 30
0.0
 11
0.01388888888888889
 21
0.0
 31
0.0
 12
0.0
 22
0.01388888888888889
 32
0.0
 13
21444.0
 23
2382.0
340
8C
 70
3
280
1
281
50
282
50
283
0
360
70
 71
1
 91
2
 14
366.5842
 24
721.0014
 14
664.428
 24
754.0919
290
0
  0
SPLINE
  5
71
330
17
100
AcDbEntity
  8
layer 2
 62
242
370
158
100
AcDbSpline
 70
11
 71
3
 72
168
 73
164
 74
0
 42
1e-09
 40
0.0
 40
0.0
 40
0.0
 40
0.0
 40
0.0238095238095238
 40
0.0238095238095238
 40
0.0238095238095238
 40
0.0238095238095238
 40
0.0476190476190476
 40
0.0476190476190476
 40
0.0476190476190476
 40
0.0476190476190476
 40
0.0714285714285714
 40
0.0714285714285714
 40
0.0714285714285714
 40
0.0714285714285714
 40
0.0952380952380952
 40
0.0952380952380952
 40
0.0952380952380952
 40
0.0952380952380952
 40
0.119047619047619
 40
0.119047619047619
 40
0.119047619047619
 40
0.119047619047619
 40
0.1428571428571428
 40
0.1428571428571428
 40
0.1428571428571428
 40
0.1428571428571428
 40
0.1666666666666667
 40
0.1666666666666667
 40
0.1666666666666667
 40
0.1666666666666667
 40
0.1904761904761905
 40
0.1904761904761905
 40
0.1904761904761905
 40
0.1904761904761905
 40
0.2142857142857143
 40
0.2142857142857143
 40
0.2142857142857143
 40
0.2142857142857143
 40
0.2380952380952381
 40
0.2380952380952381
 40
0.2380952380952381
 40
0.2380952380952381
 40
0.2619047619047619
 40
0.2619047619047619
 40
0.2619047619047619
 40
0.2619047619047619
 40
0.2857142857142857
 40
0.2857142857142857
 40
0.2857142857142857
 40
0.2857142857142857
 40
0.3095238095238095
 40
0.3095238095238095
 40
0.3095238095238095
 40
0.3095238095238095
 40
0.3333333333333333
 40
0.3333333333333333
 40
0.3333333333333333
 40
0.3333333333333333
 40
0.3571428571428572
 40
0.3571428571428572
 40
0.3571428571428572
 40
0.3571428571428572
 40
0.3809523809523809
 40
0.3809523809523809
 40
0.3809523809523809
 40
0.3809523809523809
 40
0.4047619047619048
 40
0.4047619047619048
 40
0.4047619047619048
 40
0.4047619047619048
 40
0.4285714285714285
 40
0.4285714285714285
 40
0.4285714285714285
 40
0.4285714285714285
 40
0.4523809523809524
 40
0.4523809523809524
 40
0.4523809523809524
 40
0.4523809523809524
 40
0.4761904761904762
 40
0.4761904761904762
 40
0.4761904761904762
 40
0.4761904761904762
 40
0.5
 40
0.5
 40
0.5
 40
0.5
 40
0.5238095238095238
 40
0.5238095238095238
 40
0.5238095238095238
 40
0.5238095238095238
 40
0.5476190476190477
 40
0.5476190476190477
 40
0.5476190476190477
 40
0.5476190476190477
 40
0.5714285714285714
 40
0.5714285714285714
 40
0.5714285714285714
 40
0.5714285714285714
 40
0.5952380952380952
 40
0.5952380952380952
 40
0.5952380952380952
 40
0.5952380952380952
 40
0.6190476190476191
 40
0.6190476190476191
 40
0.6190476190476191
 40
0.6190476190476191
 40
0.6428571428571429
 40
0.6428571428571429
 40
0.6428571428571429
 40
0.6428571428571429
 40
0.6666666666666666
 40
0.6666666666666666
 40
0.6666666666666666
 40
0.6666666666666666
 40
0.6904761904761905
 40
0.6904761904761905
 40
0.6904761904761905
 40
0.6904761904761905
 40
0.7142857142857143
 40
0.7142857142857143
 40
0.7142857142857143
 40
0.7142857142857143
 40
0.7380952380952381
 40
0.7380952380952381
 40
0.7380952380952381
 40
0.7380952380952381
 40
0.7619047619047619
 40
0.7619047619047619
 40
0.7619047619047619
 40
0.7619047619047619
 40
0.7857142857142857
 40
0.7857142857142857
 40
0.7857142857142857
 40
0.7857142857142857
 40
0.8095238095238095
 40
0.8095238095238095
 40
0.8095238095238095
 40
0.8095238095238095
 40
0.8333333333333334
 40
0.8333333333333334
 40
0.8333333333333334
 40
0.8333333333333334
 40
0.8571428571428571
 40
0.8571428571428571
 40
0.8571428571428571
 40
0.8571428571428571
 40
0.8809523809523809
 40
0.8809523809523809
 40
0.8809523809523809
 40
0.8809523809523809
 40
0.9047619047619048
 40
0.9047619047619048
 40
0.9047619047619048
 40
0.9047619047619048
 40
0.9285714285714286
 40
0.9285714285714286
 40
0.9285714285714286
 40
0.9285714285714286
 40
0.9523809523809523
 40
0.9523809523809523
 40
0.9523809523809523
 40
0.9523809523809523
 40
1.0
 40
1.0
 40
1.0
 40
1.0
 10
1368.1114024042565
 20
-352.6961
 30
0.0
 10
1368.1114024042565
 20
-352.6961
 30
0.0
 10
1350.7781024042563
 20
-352.8058
 30
0.0
 10
1350.7781024042563
 20
-352.8058
 30
0.0
 10
1350.7781024042563
 20
-352.8058
 30
0.0
 10
1346.2970024042563
 20
-352.8342
 30
0.0
 10
1342.7493024042562
 20
-356.4693
 30
0.0
 10
1342.8301024042564
 20
-360.9498
 30
0.0
 10
1342.8301024042564
 20
-360.9498
 30
0.0
 10
1342.9362024042564
 20
-366.8392
 30
0.0
 10
1342.8664024042562
 20
-397.1939
 30
0.0
 10
1344.1346024042566
 20
-400.3895
 30
0.0
 10
1344.1346024042566
 20
-400.3895
 30
0.0
 10
1346.3132024042563
 20
-405.8793
 30
0.0
 10
1348.9856024042563
 20
-406.1883
 30
0.0
 10
1349.7776024042562
 20
-414.0839
 30
0.0
 10
1349.7776024042562
 20
-414.0839
 30
0.0
 10
1350.2233024042564
 20
-418.5279
 30
0.0
 10
1350.2346024042565
 20
-426.244
 30
0.0
 10
1344.1720024042563
 20
-426.3126
 30
0.0
 10
1344.1720024042563
 20
-426.3126
 30
0.0
 10
1335.6221024042563
 20
-426.4094
 30
0.0
 10
1291.5524024042563
 20
-427.5695
 30
0.0
 10
1287.4599024042566
 20
-425.3332
 30
0.0
 10
1287.4599024042566
 20
-425.3332
 30
0.0
 10
1284.3789024042565
 20
-422.694
 30
0.0
 10
1285.9192024042566
 20
-409.826
 30
0.0
 10
1288.1997024042564
 20
-406.1192
 30
0.0
 10
1288.1997024042564
 20
-406.1192
 30
0.0
 10
1291.9551024042564
 20
-400.015
 30
0.0
 10
1293.4143024042562
 20
-403.5198
 30
0.0
 10
1293.2389024042566
 20
-394.1054
 30
0.0
 10
1293.2389024042566
 20
-394.1054
 30
0.0
 10
1293.0960024042563
 20
-386.4366
 30
0.0
 10
1294.1332024042565
 20
-377.7082
 30
0.0
 10
1293.9984024042562
 20
-370.0393
 30
0.0
 10
1293.9984024042562
 20
-370.0393
 30
0.0
 10
1293.9526024042564
 20
-367.4288
 30
0.0
 10
1292.8747024042566
 20
-366.1161
 30
0.0
 10
1291.6589024042562
 20
-364.9854
 30
0.0
 10
1291.6589024042562
 20
-364.9854
 30
0.0
 10
1289.5160024042564
 20
-362.9926
 30
0.0
 10
1285.1208024042564
 20
-364.7716
 30
0.0
 10
1283.3736024042562
 20
-363.2428
 30
0.0
 10
1283.3736024042562
 20
-363.2428
 30
0.0
 10
1282.0176024042564
 20
-362.0564
 30
0.0
 10
1281.5645024042562
 20
-360.3098
 30
0.0
 10
1281.4270024042564
 20
-359.347
 30
0.0
 10
1281.4270024042564
 20
-359.347
 30
0.0
 10
1281.1296024042565
 20
-357.2642
 30
0.0
 10
1280.6693024042563
 20
-353.994
 30
0.0
 10
1279.5659024042563
 20
-352.958
 30
0.0
 10
1279.5659024042563
 20
-352.958
 30
0.0
 10
1278.9939024042562
 20
-352.421
 30
0.0
 10
1266.2380024042566
 20
-352.3395
 30
0.0
 10
1264.7700024042563
 20
-352.4007
 30
0.0
 10
1264.7700024042563
 20
-352.4007
 30
0.0
 10
1259.6714024042565
 20
-352.612
 30
0.0
 10
1256.4084024042565
 20
-351.3466
 30
0.0
 10
1256.3259024042566
 20
-355.9245
 30
0.0
 10
1256.3259024042566
 20
-355.9245
 30
0.0
 10
1256.2534024042563
 20
-359.9469
 30
0.0
 10
1256.4195024042563
 20
-367.0348
 30
0.0
 10
1256.4282024042566
 20
-367.937
 30
0.0
 10
1256.4282024042566
 20
-367.937
 30
0.0
 10
1256.4878024042566
 20
-374.0705
 30
0.0
 10
1256.7280024042564
 20
-381.1568
 30
0.0
 10
1255.6565024042563
 20
-381.9641
 30
0.0
 10
1255.6565024042563
 20
-381.9641
 30
0.0
 10
1252.9345024042566
 20
-384.0149
 30
0.0
 10
1245.0949024042563
 20
-380.5378
 30
0.0
 10
1242.1748024042565
 20
-382.2211
 30
0.0
 10
1242.1748024042565
 20
-382.2211
 30
0.0
 10
1240.8915024042565
 20
-382.961
 30
0.0
 10
1239.6678024042565
 20
-392.9731
 30
0.0
 10
1239.3071024042563
 20
-394.7224
 30
0.0
 10
1239.3071024042563
 20
-394.7224
 30
0.0
 10
1235.3317024042565
 20
-413.9979
 30
0.0
 10
1231.5653024042565
 20
-433.8133
 30
0.0
 10
1228.6888024042562
 20
-453.2747
 30
0.0
 10
1228.6888024042562
 20
-453.2747
 30
0.0
 10
1228.0866024042564
 20
-457.3887
 30
0.0
 10
1224.1153024042562
 20
-483.5067
 30
0.0
 10
1224.0260024042566
 20
-485.3227
 30
0.0
 10
1224.0260024042566
 20
-485.3227
 30
0.0
 10
1223.7190024042563
 20
-491.5638
 30
0.0
 10
1222.7876024042564
 20
-505.59770000000003
 30
0.0
 10
1222.7745024042563
 20
-510.9465
 30
0.0
 10
1222.7745024042563
 20
-510.9465
 30
0.0
 10
1222.7745024042563
 20
-510.9465
 30
0.0
 10
1222.0920024042564
 20
-774.8254
 30
0.0
 10
1222.0920024042564
 20
-774.8254
 30
0.0
 10
1222.0920024042564
 20
-774.8254
 30
0.0
 10
1222.0802024042566
 20
-779.3701
 30
0.0
 10
1218.4196024042565
 20
-780.7743
 30
0.0
 10
1219.1047024042566
 20
-785.7052
 30
0.0
 10
1219.1047024042566
 20
-785.7052
 30
0.0
 10
1219.1047024042566
 20
-785.7052
 30
0.0
 10
1237.3273024042562
 20
-916.8676
 30
0.0
 10
1237.3273024042562
 20
-916.8676
 30
0.0
 10
1237.3273024042562
 20
-916.8676
 30
0.0
 10
1237.8779024042562
 20
-920.8305
 30
0.0
 10
1241.1988024042564
 20
-923.7407
 30
0.0
 10
1245.1997024042564
 20
-923.7665
 30
0.0
 10
1245.1997024042564
 20
-923.7665
 30
0.0
 10
1245.1997024042564
 20
-923.7665
 30
0.0
 10
1282.6182024042562
 20
-924.0074
 30
0.0
 10
1282.6182024042562
 20
-924.0074
 30
0.0
 10
1282.6182024042562
 20
-924.0074
 30
0.0
 10
1290.2596024042566
 20
-924.0566
 30
0.0
 10
1287.3159024042563
 20
-917.7421
 30
0.0
 10
1294.9037024042566
 20
-917.8107
 30
0.0
 10
1294.9037024042566
 20
-917.8107
 30
0.0
 10
1300.2717024042565
 20
-917.8635
 30
0.0
 10
1337.6841024042562
 20
-917.9405
 30
0.0
 10
1339.6229024042566
 20
-918.5284
 30
0.0
 10
1339.6229024042566
 20
-918.5284
 30
0.0
 10
1342.5589024042563
 20
-919.4185
 30
0.0
 10
1344.0816024042563
 20
-923.7093
 30
0.0
 10
1345.3242024042563
 20
-924.3752
 30
0.0
 10
1345.3242024042563
 20
-924.3752
 30
0.0
 10
1347.2393024042565
 20
-925.4015
 30
0.0
 10
1386.6444024042564
 20
-925.2113
 30
0.0
 10
1392.1857024042563
 20
-925.2541
 30
0.0
 10
1392.1857024042563
 20
-925.2541
 30
0.0
 10
1396.2862024042563
 20
-925.2858
 30
0.0
 10
1399.7157024042565
 20
-922.2584
 30
0.0
 10
1400.1931024042563
 20
-918.1857
 30
0.0
 10
1400.1931024042563
 20
-918.1857
 30
0.0
 10
1400.1931024042563
 20
-918.1857
 30
0.0
 10
1415.7113024042562
 20
-785.7925
 30
0.0
 10
1415.7113024042562
 20
-785.7925
 30
0.0
 10
1415.7113024042562
 20
-785.7925
 30
0.0
 10
1416.3847024042564
 20
-780.0481
 30
0.0
 10
1411.8889024042562
 20
-779.6764
 30
0.0
 10
1411.8085024042564
 20
-774.358
 30
0.0
 10
1411.8085024042564
 20
-774.358
 30
0.0
 10
1411.8085024042564
 20
-774.358
 30
0.0
 10
1407.8292024042564
 20
-511.2809
 30
0.0
 10
1407.8292024042564
 20
-511.2809
 30
0.0
 10
1407.8292024042564
 20
-511.2809
 30
0.0
 10
1407.7229024042565
 20
-504.31129999999996
 30
0.0
 10
1403.0412024042564
 20
-444.951
 30
0.0
 10
1402.2738024042562
 20
-440.2929
 30
0.0
 10
1402.2738024042562
 20
-440.2929
 30
0.0
 10
1401.4914024042562
 20
-435.5441
 30
0.0
 10
1396.3732024042563
 20
-403.5684
 30
0.0
 10
1395.8728024042564
 20
-401.6923
 30
0.0
 10
1395.8728024042564
 20
-401.6923
 30
0.0
 10
1391.5989024042563
 20
-385.6686
 30
0.0
 10
1392.4398024042564
 20
-379.7051
 30
0.0
 10
1381.2592024042563
 20
-380.3503
 30
0.0
 10
1381.2592024042563
 20
-380.3503
 30
0.0
 10
1379.2408024042563
 20
-380.4668
 30
0.0
 10
1376.7873024042563
 20
-380.1332
 30
0.0
 10
1376.2355024042565
 20
-377.8853
 30
0.0
 10
1376.2355024042565
 20
-377.8853
 30
0.0
 10
1376.2355024042565
 20
-377.8853
 30
0.0
 10
1376.1619024042564
 20
-360.6617
 30
0.0
 10
1376.1619024042564
 20
-360.6617
 30
0.0
 10
1376.1619024042564
 20
-360.6617
 30
0.0
 10
1376.1429024042566
 20
-356.2108
 30
0.0
 10
1372.5623024042563
 20
-352.6679
 30
0.0
 10
1368.1114024042565
 20
-352.6961
 30
0.0
  0
SPLINE
  5
72
330
17
100
AcDbEntity
  8
layer 3
 62
142
370
158
100
AcDbSpline
 70
24
 71
3
 72
8
 73
4
 74
0
 42
1e-09
 40
0.0
 40
0.0
 40
0.0
 40
0.0
 40
1.0
 40
1.0
 40
1.0
 40
1.0
 10
1410.2632024042566
 20
-822.3322
 30
0.0
 10
1410.2632024042566
 20
-822.3322
 30
0.0
 10
1367.9298024042562
 20
-822.3322
 30
0.0
 10
1367.9298024042562
 20
-822.3322
 30
0.0
  0
SPLINE
  5
73
330
17
100
AcDbEntity
  8
layer 3
 62
142
370
158
100
AcDbSpline
 70
24
 71
3
 72
8
 73
4
 74
0
 42
1e-09
 40
0.0
 40
0.0
 40
0.0
 40
0.0
 40
1.0
 40
1.0
 40
1.0
 40
1.0
 10
1413.0149024042564
 20
-795.0272
 30
0.0
 10
1413.0149024042564
 20
-795.0272
 30
0.0
 10
1368.7765024042562
 20
-795.2389
 30
0.0
 10
1368.7765024042562
 20
-795.2389
 30
0.0
  0
SPLINE
  5
74
330
17
100
AcDbEntity
  8
layer 3
 62
142
370
158
100
AcDbSpline
 70
24
 71
3
 72
8
 73
4
 74
0
 42
1e-09
 40
0.0
 40
0.0
 40
0.0
 40
0.0
 40
1.0
 40
1.0
 40
1.0
 40
1.0
 10
1225.9013024042563
 20
-822.9672
 30
0.0
 10
1225.9013024042563
 20
-822.9672
 30
0.0
 10
1265.4830024042565
 20
-822.7555
 30
0.0
 10
1265.4830024042565
 20
-822.7555
 30
0.0
  0
SPLINE
  5
75
330
17
100
AcDbEntity
  8
layer 3
 62
142
370
158
100
AcDbSpline
 70
24
 71
3
 72
8
 73
4
 74
0
 42
1e-09
 40
0.0
 40
0.0
 40
0.0
 40
0.0
 40
1.0
 40
1.0
 40
1.0
 40
1.0
 10
1221.6680024042564
 20
-795.4505
 30
0.0
 10
1221.6680024042564
 20
-795.4505
 30
0.0
 10
1266.9647024042563
 20
-795.2388
 30
0.0
 10
1266.9647024042563
 20
-795.2388
 30
0.0
  0
SPLINE
  5
76
330
17
100
AcDbEntity
  8
layer 3
 62
142
370
158
100
AcDbSpline
 70
24
 71
3
 72
8
 73
4
 74
0
 42
1e-09
 40
0.0
 40
0.0
 40
0.0
 40
0.0
 40
1.0
 40
1.0
 40
1.0
 40
1.0
 10
1407.8292024042564
 20
-511.2809
 30
0.0
 10
1407.8292024042564
 20
-511.2809
 30
0.0
 10
1373.8568024042563
 20
-511.6051
 30
0.0
 10
1373.8568024042563
 20
-511.6051
 30
0.0
  0
SPLINE
  5
77
330
17
100
AcDbEntity
  8
layer 3
 62
142
370
158
100
AcDbSpline
 70
24
 71
3
 72
8
 73
4
 74
0
 42
1e-09
 40
0.0
 40
0.0
 40
0.0
 40
0.0
 40
1.0
 40
1.0
 40
1.0
 40
1.0
 10
1406.2418024042565
 20
-534.0418
 30
0.0
 10
1406.2418024042565
 20
-534.0418
 30
0.0
 10
1373.4335024042564
 20
-533.8301
 30
0.0
 10
1373.4335024042564
 20
-533.8301
 30
0.0
  0
SPLINE
  5
78
330
17
100
AcDbEntity
  8
layer 3
 62
142
370
158
100
AcDbSpline
 70
24
 71
3
 72
8
 73
4
 74
0
 42
1e-09
 40
0.0
 40
0.0
 40
0.0
 40
0.0
 40
1.0
 40
1.0
 40
1.0
 40
1.0
 10
1224.4201024042566
 20
-512.5576
 30
0.0
 10
1224.4201024042566
 20
-512.5576
 30
0.0
 10
1255.4293024042565
 20
-512.7693
 30
0.0
 10
1255.4293024042565
 20
-512.7693
 30
0.0
  0
SPLINE
  5
79
330
17
100
AcDbEntity
  8
layer 3
 62
142
370
158
100
AcDbSpline
 70
24
 71
3
 72
8
 73
4
 74
0
 42
1e-09
 40
0.0
 40
0.0
 40
0.0
 40
0.0
 40
1.0
 40
1.0
 40
1.0
 40
1.0
 10
1224.5259024042564
 20
-535.7351
 30
0.0
 10
1224.5259024042564
 20
-535.7351
 30
0.0
 10
1255.8526024042565
 20
-535.1001
 30
0.0
 10
1255.8526024042565
 20
-535.1001
 30
0.0
  0
ENDSEC
  0
SECTION
  2
OBJECTS
  0
DICTIONARY
  5
A
330
0
100
AcDbDictionary
281
1
  3
ACAD_COLOR
350
B
  3
ACAD_GROUP
350
C
  3
ACAD_LAYOUT
350
D
  3
ACAD_MATERIAL
350
E
  3
ACAD_MLEADERSTYLE
350
F
  3
ACAD_MLINESTYLE
350
10
  3
ACAD_PLOTSETTINGS
350
11
  3
ACAD_PLOTSTYLENAME
350
12
  3
ACAD_SCALELIST
350
14
  3
ACAD_TABLESTYLE
350
15
  3
ACAD_VISUALSTYLE
350
16
  3
EZDXF_META
350
2D
  0
DICTIONARY
  5
B
330
A
100
AcDbDictionary
281
1
  0
DICTIONARY
  5
C
330
A
100
AcDbDictionary
281
1
  0
DICTIONARY
  5
D
330
A
100
AcDbDictionary
281
1
  3
Model
350
1A
  3
Layout1
350
1E
  0
DICTIONARY
  5
E
330
A
100
AcDbDictionary
281
1
  3
ByBlock
350
1F
  3
ByLayer
350
20
  3
Global
350
21
  0
DICTIONARY
  5
F
330
A
100
AcDbDictionary
281
1
  3
Standard
350
2C
  0
DICTIONARY
  5
10
330
A
100
AcDbDictionary
281
1
  3
Standard
350
22
  0
DICTIONARY
  5
11
330
A
100
AcDbDictionary
281
1
  0
ACDBDICTIONARYWDFLT
  5
12
330
A
100
AcDbDictionary
281
1
  3
Normal
350
13
100
AcDbDictionaryWithDefault
340
13
  0
ACDBPLACEHOLDER
  5
13
330
12
  0
DICTIONARY
  5
14
330
A
100
AcDbDictionary
281
1
  0
DICTIONARY
  5
15
330
A
100
AcDbDictionary
281
1
  0
DICTIONARY
  5
16
330
A
100
AcDbDictionary
281
1
  0
LAYOUT
  5
1A
330
D
100
AcDbPlotSettings
  1

  4
A3
  6

 40
7.5
 41
20.0
 42
7.5
 43
20.0
 44
420.0
 45
297.0
 46
0.0
 47
0.0
 48
0.0
 49
0.0
140
0.0
141
0.0
142
1.0
143
1.0
 70
1024
 72
1
 73
0
 74
5
  7

 75
16
 76
0
 77
2
 78
300
147
1.0
148
0.0
149
0.0
100
AcDbLayout
  1
Model
 70
1
 71
0
 10
0.0
 20
0.0
 11
420.0
 21
297.0
 12
0.0
 22
0.0
 32
0.0
 14
1e+20
 24
1e+20
 34
1e+20
 15
-1e+20
 25
-1e+20
 35
-1e+20
146
0.0
 13
0.0
 23
0.0
 33
0.0
 16
1.0
 26
0.0
 36
0.0
 17
0.0
 27
1.0
 37
0.0
 76
1
330
17
  0
LAYOUT
  5
1E
330
D
100
AcDbPlotSettings
  1

  4
A3
  6

 40
7.5
 41
20.0
 42
7.5
 43
20.0
 44
420.0
 45
297.0
 46
0.0
 47
0.0
 48
0.0
 49
0.0
140
0.0
141
0.0
142
1.0
143
1.0
 70
0
 72
1
 73
0
 74
5
  7

 75
16
 76
0
 77
2
 78
300
147
1.0
148
0.0
149
0.0
100
AcDbLayout
  1
Layout1
 70
1
 71
1
 10
0.0
 20
0.0
 11
420.0
 21
297.0
 12
0.0
 22
0.0
 32
0.0
 14
1e+20
 24
1e+20
 34
1e+20
 15
-1e+20
 25
-1e+20
 35
-1e+20
146
0.0
 13
0.0
 23
0.0
 33
0.0
 16
1.0
 26
0.0
 36
0.0
 17
0.0
 27
1.0
 37
0.0
 76
1
330
1B
  0
MATERIAL
  5
1F
102
{ACAD_REACTORS
330
E
102
}
330
E
100
AcDbMaterial
  1
ByBlock
  2

 70
0
 40
1.0
 71
1
 41
1.0
 91
-1023410177
 42
1.0
 72
1
  3

 73
1
 74
1
 75
1
 44
0.5
 73
0
 45
1.0
 46
1.0
 77
1
  4

 78
1
 79
1
170
1
 48
1.0
171
1
  6

172
1
173
1
174
1
140
1.0
141
1.0
175
1
  7

176
1
177
1
178
1
143
1.0
179
1
  8

270
1
271
1
272
1
145
1.0
146
1.0
273
1
  9

274
1
275
1
276
1
 42
1.0
 72
1
  3

 73
1
 74
1
 75
1
 94
63
  0
MATERIAL
  5
20
102
{ACAD_REACTORS
330
E
102
}
330
E
100
AcDbMaterial
  1
ByLayer
  2

 70
0
 40
1.0
 71
1
 41
1.0
 91
-1023410177
 42
1.0
 72
1
  3

 73
1
 74
1
 75
1
 44
0.5
 73
0
 45
1.0
 46
1.0
 77
1
  4

 78
1
 79
1
170
1
 48
1.0
171
1
  6

172
1
173
1
174
1
140
1.0
141
1.0
175
1
  7

176
1
177
1
178
1
143
1.0
179
1
  8

270
1
271
1
272
1
145
1.0
146
1.0
273
1
  9

274
1
275
1
276
1
 42
1.0
 72
1
  3

 73
1
 74
1
 75
1
 94
63
  0
MATERIAL
  5
21
102
{ACAD_REACTORS
330
E
102
}
330
E
100
AcDbMaterial
  1
Global
  2

 70
0
 40
1.0
 71
1
 41
1.0
 91
-1023410177
 42
1.0
 72
1
  3

 73
1
 74
1
 75
1
 44
0.5
 73
0
 45
1.0
 46
1.0
 77
1
  4

 78
1
 79
1
170
1
 48
1.0
171
1
  6

172
1
173
1
174
1
140
1.0
141
1.0
175
1
  7

176
1
177
1
178
1
143
1.0
179
1
  8

270
1
271
1
272
1
145
1.0
146
1.0
273
1
  9

274
1
275
1
276
1
 42
1.0
 72
1
  3

 73
1
 74
1
 75
1
 94
63
  0
MLINESTYLE
  5
22
102
{ACAD_REACTORS
330
10
102
}
330
10
100
AcDbMlineStyle
  2
Standard
 70
0
  3

 62
256
 51
90.0
 52
90.0
 71
2
 49
0.5
 62
256
  6
BYLAYER
 49
-0.5
 62
256
  6
BYLAYER
  0
MLEADERSTYLE
  5
2C
102
{ACAD_REACTORS
330
F
102
}
330
F
100
AcDbMLeaderStyle
179
2
170
2
171
1
172
0
 90
2
 40
0.0
 41
0.0
173
1
 91
-1056964608
 92
-2
290
1
 42
2.0
291
1
 43
8.0
  3
Standard
 44
4.0
300

342
29
174
1
175
1
176
0
178
1
 93
-1056964608
 45
4.0
292
0
297
0
 46
4.0
 94
-1056964608
 47
1.0
 49
1.0
140
1.0
294
1
141
0.0
177
0
142
1.0
295
0
296
0
143
3.75
271
0
272
9
273
9
  0
DICTIONARY
  5
2D
330
A
100
AcDbDictionary
280
1
281
1
  3
CREATED_BY_EZDXF
350
2E
  3
WRITTEN_BY_EZDXF
350
7C
  0
DICTIONARYVAR
  5
2E
330
2D
100
DictionaryVariables
280
0
  1
1.4.2 @ 2025-08-23T12:44:09.319972+00:00
  0
IMAGEDEF_REACTOR
  5
60
330
5F
100
AcDbRasterImageDefReactor
 90
2
330
5F
  0
IMAGEDEF_REACTOR
  5
62
330
61
100
AcDbRasterImageDefReactor
 90
2
330
61
  0
IMAGEDEF_REACTOR
  5
64
330
63
100
AcDbRasterImageDefReactor
 90
2
330
63
  0
IMAGEDEF_REACTOR
  5
66
330
65
100
AcDbRasterImageDefReactor
 90
2
330
65
  0
IMAGEDEF_REACTOR
  5
68
330
67
100
AcDbRasterImageDefReactor
 90
2
330
67
  0
IMAGEDEF_REACTOR
  5
6A
330
69
100
AcDbRasterImageDefReactor
 90
2
330
69
  0
IMAGEDEF_REACTOR
  5
6C
330
6B
100
AcDbRasterImageDefReactor
 90
2
330
6B
  0
IMAGEDEF_REACTOR
  5
6E
330
6D
100
AcDbRasterImageDefReactor
 90
2
330
6D
  0
IMAGEDEF_REACTOR
  5
70
330
6F
100
AcDbRasterImageDefReactor
 90
2
330
6F
  0
DICTIONARYVAR
  5
7C
330
2D
100
DictionaryVariables
280
0
  1
1.4.2 @ 2025-08-23T12:44:09.326583+00:00
  0
ENDSEC
  0
EOF
